M48
; DRILL file {KiCad 7.0.9} date Tue Jan 30 21:21:38 2024
; FORMAT={-:-/ absolute / metric / decimal}
; #@! TF.CreationDate,2024-01-30T21:21:38-05:00
; #@! TF.GenerationSoftware,Kicad,Pcbnew,7.0.9
; #@! TF.FileFunction,Plated,1,2,PTH
FMAT,2
METRIC
; #@! TA.AperFunction,Plated,PTH,ViaDrill
T1C0.300
%
G90
G05
T1
X72.8Y-71.143
X73.145Y-119.743
X73.282Y-85.35
X73.282Y-106.564
X73.282Y-110.043
X73.303Y-112.92
X73.344Y-30.599
X73.606Y-125.772
X73.62Y-107.567
X73.66Y-116.373
X73.663Y-117.642
X73.793Y-73.05
X73.793Y-86.75
X73.793Y-93.55
X73.793Y-100.45
X73.893Y-38.75
X73.893Y-59.25
X73.893Y-79.85
X73.993Y-45.55
X73.993Y-52.45
X73.993Y-66.15
X74.21Y-123.16
X74.253Y-124.345
X74.889Y-116.75
X75.443Y-108.5
X75.493Y-98.2
X75.493Y-101.65
X75.493Y-105.15
X75.9Y-28.643
X75.9Y-32.066
X75.9Y-35.489
X75.9Y-38.912
X75.9Y-42.335
X75.9Y-45.758
X75.9Y-49.181
X75.9Y-52.604
X75.9Y-56.027
X75.9Y-59.45
X75.9Y-62.873
X75.9Y-66.296
X75.9Y-69.719
X75.9Y-73.142
X75.9Y-76.565
X75.9Y-79.988
X75.9Y-83.411
X75.9Y-86.834
X75.9Y-90.257
X75.9Y-93.68
X75.9Y-97.103
X75.9Y-100.526
X75.9Y-103.949
X75.9Y-107.372
X75.9Y-110.795
X75.9Y-134.756
X76.043Y-124.583
X76.093Y-131.35
X76.193Y-127.95
X76.7Y-41.852
X77.782Y-119.805
X78.213Y-112.97
X78.273Y-123.581
X78.373Y-120.096
X78.712Y-29.893
X78.712Y-33.316
X78.712Y-36.739
X78.712Y-40.162
X78.712Y-43.585
X78.712Y-47.008
X78.712Y-50.431
X78.712Y-53.854
X78.712Y-57.277
X78.712Y-60.7
X78.712Y-64.123
X78.712Y-67.546
X78.712Y-70.969
X78.712Y-74.392
X78.712Y-77.815
X78.712Y-81.238
X78.712Y-84.661
X78.712Y-88.084
X78.712Y-91.507
X78.712Y-94.93
X78.712Y-98.353
X78.712Y-101.776
X78.712Y-105.199
X78.712Y-108.622
X78.712Y-111.85
X78.863Y-118.745
X79.273Y-114.761
X79.3Y-110.843
X79.323Y-28.643
X79.323Y-32.066
X79.323Y-35.489
X79.323Y-38.912
X79.323Y-42.335
X79.323Y-45.758
X79.323Y-49.181
X79.323Y-52.604
X79.323Y-56.027
X79.323Y-59.45
X79.323Y-62.873
X79.323Y-66.296
X79.323Y-69.719
X79.323Y-73.142
X79.323Y-76.565
X79.323Y-79.988
X79.323Y-83.411
X79.323Y-86.834
X79.323Y-90.257
X79.323Y-93.68
X79.323Y-97.103
X79.323Y-100.526
X79.323Y-103.949
X79.323Y-107.372
X79.323Y-134.756
X79.741Y-113.35
X79.815Y-121.341
X80.09Y-116.839
X80.652Y-123.619
X81.335Y-96.502
X81.665Y-116.643
X81.875Y-118.673
X81.973Y-119.91
X82.131Y-123.793
X82.2Y-55.426
X82.21Y-117.693
X82.3Y-114.243
X82.65Y-116.518
X82.7Y-110.843
X82.746Y-28.643
X82.746Y-32.066
X82.746Y-35.489
X82.746Y-38.912
X82.746Y-42.335
X82.746Y-45.758
X82.746Y-49.181
X82.746Y-52.604
X82.746Y-56.027
X82.746Y-59.45
X82.746Y-62.873
X82.746Y-66.296
X82.746Y-69.719
X82.746Y-73.142
X82.746Y-76.565
X82.746Y-79.988
X82.746Y-83.411
X82.746Y-86.834
X82.746Y-90.257
X82.746Y-93.68
X82.746Y-97.103
X82.746Y-100.526
X82.746Y-103.949
X82.746Y-107.372
X82.746Y-134.756
X83.18Y-128.04
X84.5Y-113.043
X85.0Y-114.143
X86.1Y-110.843
X86.169Y-28.643
X86.169Y-32.066
X86.169Y-35.489
X86.169Y-38.912
X86.169Y-42.335
X86.169Y-45.758
X86.169Y-49.181
X86.169Y-52.604
X86.169Y-56.027
X86.169Y-59.45
X86.169Y-62.873
X86.169Y-66.296
X86.169Y-69.719
X86.169Y-73.142
X86.169Y-76.565
X86.169Y-79.988
X86.169Y-83.411
X86.169Y-86.834
X86.169Y-90.257
X86.169Y-93.68
X86.169Y-97.103
X86.169Y-100.526
X86.169Y-103.949
X86.169Y-107.372
X86.169Y-131.333
X86.169Y-134.756
X86.67Y-120.582
X88.58Y-125.45
X88.623Y-109.83
X88.9Y-101.797
X88.9Y-105.22
X88.9Y-108.643
X88.9Y-112.066
X89.28Y-125.56
X89.4Y-126.193
X89.592Y-28.643
X89.592Y-32.066
X89.592Y-35.489
X89.592Y-38.912
X89.592Y-42.335
X89.592Y-45.758
X89.592Y-49.181
X89.592Y-52.604
X89.592Y-56.027
X89.592Y-59.45
X89.592Y-62.873
X89.592Y-66.296
X89.592Y-69.719
X89.592Y-73.142
X89.592Y-76.565
X89.592Y-79.988
X89.592Y-83.411
X89.592Y-86.834
X89.592Y-90.257
X89.592Y-93.68
X89.592Y-97.103
X89.592Y-100.526
X89.592Y-103.949
X89.592Y-107.372
X89.592Y-131.333
X89.592Y-134.756
X89.7Y-110.843
X90.141Y-116.773
X90.457Y-123.801
X92.0Y-117.643
X92.063Y-124.9
X92.404Y-36.739
X92.404Y-40.162
X92.404Y-43.585
X92.404Y-47.008
X92.404Y-50.431
X92.404Y-53.854
X92.404Y-57.277
X92.404Y-60.7
X92.404Y-64.123
X92.404Y-67.546
X92.404Y-70.969
X92.404Y-74.392
X92.404Y-77.815
X92.404Y-81.238
X92.404Y-84.661
X92.404Y-88.084
X92.404Y-91.507
X92.404Y-94.93
X92.404Y-98.353
X92.404Y-101.776
X92.5Y-116.294
X92.82Y-123.992
X93.0Y-117.643
X93.015Y-28.643
X93.015Y-32.066
X93.015Y-35.489
X93.015Y-38.912
X93.015Y-42.335
X93.015Y-45.758
X93.015Y-49.181
X93.015Y-52.604
X93.015Y-56.027
X93.015Y-59.45
X93.015Y-62.873
X93.015Y-66.296
X93.015Y-69.719
X93.015Y-73.142
X93.015Y-76.565
X93.015Y-79.988
X93.015Y-83.411
X93.015Y-86.834
X93.015Y-90.257
X93.015Y-93.68
X93.015Y-97.103
X93.015Y-100.526
X93.015Y-103.949
X93.015Y-107.372
X93.015Y-134.756
X93.1Y-110.843
X93.3Y-114.043
X93.823Y-123.631
X95.543Y-123.582
X95.7Y-101.797
X95.7Y-105.22
X95.7Y-108.643
X95.7Y-112.066
X96.3Y-114.243
X96.3Y-124.543
X96.3Y-127.943
X96.438Y-28.643
X96.438Y-32.066
X96.438Y-35.489
X96.438Y-38.912
X96.438Y-42.335
X96.438Y-45.758
X96.438Y-49.181
X96.438Y-52.604
X96.438Y-56.027
X96.438Y-59.45
X96.438Y-62.873
X96.438Y-66.296
X96.438Y-69.719
X96.438Y-73.142
X96.438Y-76.565
X96.438Y-79.988
X96.438Y-83.411
X96.438Y-86.834
X96.438Y-90.257
X96.438Y-93.68
X96.438Y-97.103
X96.438Y-100.526
X96.438Y-103.949
X96.438Y-107.372
X96.438Y-134.756
X96.5Y-110.843
X98.73Y-116.608
X98.84Y-121.059
X99.25Y-29.893
X99.25Y-33.316
X99.25Y-36.739
X99.25Y-40.162
X99.25Y-43.585
X99.25Y-47.008
X99.25Y-50.431
X99.25Y-53.854
X99.25Y-57.277
X99.25Y-60.7
X99.25Y-64.123
X99.25Y-67.546
X99.25Y-70.969
X99.25Y-74.392
X99.25Y-77.815
X99.25Y-81.238
X99.25Y-84.661
X99.25Y-88.084
X99.25Y-91.507
X99.25Y-94.93
X99.25Y-98.353
X99.25Y-101.776
X99.25Y-105.199
X99.25Y-108.622
X99.25Y-112.045
X99.8Y-114.243
X99.861Y-28.643
X99.861Y-32.066
X99.861Y-35.489
X99.861Y-38.912
X99.861Y-42.335
X99.861Y-45.758
X99.861Y-49.181
X99.861Y-52.604
X99.861Y-56.027
X99.861Y-59.45
X99.861Y-62.873
X99.861Y-66.296
X99.861Y-69.719
X99.861Y-73.142
X99.861Y-76.565
X99.861Y-79.988
X99.861Y-83.411
X99.861Y-86.834
X99.861Y-90.257
X99.861Y-93.68
X99.861Y-97.103
X99.861Y-100.526
X99.861Y-103.949
X99.861Y-107.372
X99.861Y-134.756
X99.9Y-110.843
X100.141Y-121.914
X100.493Y-127.943
X100.55Y-117.593
X100.811Y-28.472
X100.9Y-59.209
X100.9Y-86.643
X100.9Y-100.285
X101.1Y-45.643
X101.1Y-72.901
X101.296Y-69.625
X101.299Y-42.24
X101.321Y-83.264
X101.329Y-55.872
X101.367Y-96.91
X101.413Y-110.556
X101.741Y-34.884
X107.8Y-71.143
X108.145Y-119.743
X108.282Y-85.35
X108.282Y-106.564
X108.282Y-110.043
X108.303Y-112.92
X108.344Y-30.599
X108.606Y-125.772
X108.62Y-107.567
X108.66Y-116.373
X108.663Y-117.642
X108.793Y-73.05
X108.793Y-86.75
X108.793Y-93.55
X108.793Y-100.45
X108.893Y-38.75
X108.893Y-59.25
X108.893Y-79.85
X108.993Y-45.55
X108.993Y-52.45
X108.993Y-66.15
X109.21Y-123.16
X109.253Y-124.345
X109.889Y-116.75
X110.443Y-108.5
X110.493Y-98.2
X110.493Y-101.65
X110.493Y-105.15
X110.9Y-28.643
X110.9Y-32.066
X110.9Y-35.489
X110.9Y-38.912
X110.9Y-42.335
X110.9Y-45.758
X110.9Y-49.181
X110.9Y-52.604
X110.9Y-56.027
X110.9Y-59.45
X110.9Y-62.873
X110.9Y-66.296
X110.9Y-69.719
X110.9Y-73.142
X110.9Y-76.565
X110.9Y-79.988
X110.9Y-83.411
X110.9Y-86.834
X110.9Y-90.257
X110.9Y-93.68
X110.9Y-97.103
X110.9Y-100.526
X110.9Y-103.949
X110.9Y-107.372
X110.9Y-110.795
X110.9Y-134.756
X111.043Y-124.583
X111.093Y-131.35
X111.193Y-127.95
X111.7Y-41.852
X112.782Y-119.805
X113.213Y-112.97
X113.273Y-123.581
X113.373Y-120.096
X113.712Y-29.893
X113.712Y-33.316
X113.712Y-36.739
X113.712Y-40.162
X113.712Y-43.585
X113.712Y-47.008
X113.712Y-50.431
X113.712Y-53.854
X113.712Y-57.277
X113.712Y-60.7
X113.712Y-64.123
X113.712Y-67.546
X113.712Y-70.969
X113.712Y-74.392
X113.712Y-77.815
X113.712Y-81.238
X113.712Y-84.661
X113.712Y-88.084
X113.712Y-91.507
X113.712Y-94.93
X113.712Y-98.353
X113.712Y-101.776
X113.712Y-105.199
X113.712Y-108.622
X113.712Y-111.85
X113.863Y-118.745
X114.273Y-114.761
X114.3Y-110.843
X114.323Y-28.643
X114.323Y-32.066
X114.323Y-35.489
X114.323Y-38.912
X114.323Y-42.335
X114.323Y-45.758
X114.323Y-49.181
X114.323Y-52.604
X114.323Y-56.027
X114.323Y-59.45
X114.323Y-62.873
X114.323Y-66.296
X114.323Y-69.719
X114.323Y-73.142
X114.323Y-76.565
X114.323Y-79.988
X114.323Y-83.411
X114.323Y-86.834
X114.323Y-90.257
X114.323Y-93.68
X114.323Y-97.103
X114.323Y-100.526
X114.323Y-103.949
X114.323Y-107.372
X114.323Y-134.756
X114.741Y-113.35
X114.815Y-121.341
X115.09Y-116.839
X115.652Y-123.619
X116.335Y-96.502
X116.665Y-116.643
X116.875Y-118.673
X116.973Y-119.91
X117.131Y-123.793
X117.2Y-55.426
X117.21Y-117.693
X117.3Y-114.243
X117.65Y-116.518
X117.7Y-110.843
X117.746Y-28.643
X117.746Y-32.066
X117.746Y-35.489
X117.746Y-38.912
X117.746Y-42.335
X117.746Y-45.758
X117.746Y-49.181
X117.746Y-52.604
X117.746Y-56.027
X117.746Y-59.45
X117.746Y-62.873
X117.746Y-66.296
X117.746Y-69.719
X117.746Y-73.142
X117.746Y-76.565
X117.746Y-79.988
X117.746Y-83.411
X117.746Y-86.834
X117.746Y-90.257
X117.746Y-93.68
X117.746Y-97.103
X117.746Y-100.526
X117.746Y-103.949
X117.746Y-107.372
X117.746Y-134.756
X118.18Y-128.04
X119.5Y-113.043
X120.0Y-114.143
X121.1Y-110.843
X121.169Y-28.643
X121.169Y-32.066
X121.169Y-35.489
X121.169Y-38.912
X121.169Y-42.335
X121.169Y-45.758
X121.169Y-49.181
X121.169Y-52.604
X121.169Y-56.027
X121.169Y-59.45
X121.169Y-62.873
X121.169Y-66.296
X121.169Y-69.719
X121.169Y-73.142
X121.169Y-76.565
X121.169Y-79.988
X121.169Y-83.411
X121.169Y-86.834
X121.169Y-90.257
X121.169Y-93.68
X121.169Y-97.103
X121.169Y-100.526
X121.169Y-103.949
X121.169Y-107.372
X121.169Y-131.333
X121.169Y-134.756
X121.67Y-120.582
X123.58Y-125.45
X123.623Y-109.83
X123.9Y-101.797
X123.9Y-105.22
X123.9Y-108.643
X123.9Y-112.066
X124.28Y-125.56
X124.4Y-126.193
X124.592Y-28.643
X124.592Y-32.066
X124.592Y-35.489
X124.592Y-38.912
X124.592Y-42.335
X124.592Y-45.758
X124.592Y-49.181
X124.592Y-52.604
X124.592Y-56.027
X124.592Y-59.45
X124.592Y-62.873
X124.592Y-66.296
X124.592Y-69.719
X124.592Y-73.142
X124.592Y-76.565
X124.592Y-79.988
X124.592Y-83.411
X124.592Y-86.834
X124.592Y-90.257
X124.592Y-93.68
X124.592Y-97.103
X124.592Y-100.526
X124.592Y-103.949
X124.592Y-107.372
X124.592Y-131.333
X124.592Y-134.756
X124.7Y-110.843
X125.141Y-116.773
X125.457Y-123.801
X127.0Y-117.643
X127.063Y-124.9
X127.404Y-36.739
X127.404Y-40.162
X127.404Y-43.585
X127.404Y-47.008
X127.404Y-50.431
X127.404Y-53.854
X127.404Y-57.277
X127.404Y-60.7
X127.404Y-64.123
X127.404Y-67.546
X127.404Y-70.969
X127.404Y-74.392
X127.404Y-77.815
X127.404Y-81.238
X127.404Y-84.661
X127.404Y-88.084
X127.404Y-91.507
X127.404Y-94.93
X127.404Y-98.353
X127.404Y-101.776
X127.5Y-116.294
X127.82Y-123.992
X128.0Y-117.643
X128.015Y-28.643
X128.015Y-32.066
X128.015Y-35.489
X128.015Y-38.912
X128.015Y-42.335
X128.015Y-45.758
X128.015Y-49.181
X128.015Y-52.604
X128.015Y-56.027
X128.015Y-59.45
X128.015Y-62.873
X128.015Y-66.296
X128.015Y-69.719
X128.015Y-73.142
X128.015Y-76.565
X128.015Y-79.988
X128.015Y-83.411
X128.015Y-86.834
X128.015Y-90.257
X128.015Y-93.68
X128.015Y-97.103
X128.015Y-100.526
X128.015Y-103.949
X128.015Y-107.372
X128.015Y-134.756
X128.1Y-110.843
X128.3Y-114.043
X128.823Y-123.631
X130.543Y-123.582
X130.7Y-101.797
X130.7Y-105.22
X130.7Y-108.643
X130.7Y-112.066
X131.3Y-114.243
X131.3Y-124.543
X131.3Y-127.943
X131.438Y-28.643
X131.438Y-32.066
X131.438Y-35.489
X131.438Y-38.912
X131.438Y-42.335
X131.438Y-45.758
X131.438Y-49.181
X131.438Y-52.604
X131.438Y-56.027
X131.438Y-59.45
X131.438Y-62.873
X131.438Y-66.296
X131.438Y-69.719
X131.438Y-73.142
X131.438Y-76.565
X131.438Y-79.988
X131.438Y-83.411
X131.438Y-86.834
X131.438Y-90.257
X131.438Y-93.68
X131.438Y-97.103
X131.438Y-100.526
X131.438Y-103.949
X131.438Y-107.372
X131.438Y-134.756
X131.5Y-110.843
X133.73Y-116.608
X133.84Y-121.059
X134.25Y-29.893
X134.25Y-33.316
X134.25Y-36.739
X134.25Y-40.162
X134.25Y-43.585
X134.25Y-47.008
X134.25Y-50.431
X134.25Y-53.854
X134.25Y-57.277
X134.25Y-60.7
X134.25Y-64.123
X134.25Y-67.546
X134.25Y-70.969
X134.25Y-74.392
X134.25Y-77.815
X134.25Y-81.238
X134.25Y-84.661
X134.25Y-88.084
X134.25Y-91.507
X134.25Y-94.93
X134.25Y-98.353
X134.25Y-101.776
X134.25Y-105.199
X134.25Y-108.622
X134.25Y-112.045
X134.8Y-114.243
X134.861Y-28.643
X134.861Y-32.066
X134.861Y-35.489
X134.861Y-38.912
X134.861Y-42.335
X134.861Y-45.758
X134.861Y-49.181
X134.861Y-52.604
X134.861Y-56.027
X134.861Y-59.45
X134.861Y-62.873
X134.861Y-66.296
X134.861Y-69.719
X134.861Y-73.142
X134.861Y-76.565
X134.861Y-79.988
X134.861Y-83.411
X134.861Y-86.834
X134.861Y-90.257
X134.861Y-93.68
X134.861Y-97.103
X134.861Y-100.526
X134.861Y-103.949
X134.861Y-107.372
X134.861Y-134.756
X134.9Y-110.843
X135.141Y-121.914
X135.493Y-127.943
X135.55Y-117.593
X135.811Y-28.472
X135.9Y-59.209
X135.9Y-86.643
X135.9Y-100.285
X136.1Y-45.643
X136.1Y-72.901
X136.296Y-69.625
X136.299Y-42.24
X136.321Y-83.264
X136.329Y-55.872
X136.367Y-96.91
X136.413Y-110.556
X136.741Y-34.884
T0
M30
