M48
; DRILL file {KiCad 8.0.1} date 2024-03-31T21:58:16-0400
; FORMAT={-:-/ absolute / metric / decimal}
; #@! TF.CreationDate,2024-03-31T21:58:16-04:00
; #@! TF.GenerationSoftware,Kicad,Pcbnew,8.0.1
; #@! TF.FileFunction,NonPlated,1,2,NPTH
FMAT,2
METRIC
; #@! TA.AperFunction,NonPlated,NPTH,ComponentDrill
T1C0.500
; #@! TA.AperFunction,NonPlated,NPTH,ComponentDrill
T2C1.152
%
G90
G05
T1
X65.0Y-27.0
X65.0Y-138.4
X65.833Y-27.0
X65.833Y-138.4
X66.667Y-27.0
X66.667Y-138.4
X67.5Y-27.0
X67.5Y-138.4
X68.333Y-27.0
X68.333Y-138.4
X69.167Y-27.0
X69.167Y-138.4
X70.0Y-27.0
X70.0Y-138.4
X72.0Y-20.0
X72.0Y-20.833
X72.0Y-21.667
X72.0Y-22.5
X72.0Y-23.333
X72.0Y-24.167
X72.0Y-25.0
X72.0Y-126.522
X72.0Y-127.522
X72.0Y-140.4
X72.0Y-141.233
X72.0Y-142.067
X72.0Y-142.9
X72.0Y-143.733
X72.0Y-144.567
X72.0Y-145.4
X72.0Y-124.522
X72.0Y-125.522
X72.0Y-112.144
X72.0Y-113.144
X72.0Y-114.144
X72.0Y-115.144
X72.0Y-99.767
X72.0Y-100.767
X72.0Y-101.767
X72.0Y-102.767
X72.0Y-87.389
X72.0Y-88.389
X72.0Y-89.389
X72.0Y-90.389
X72.0Y-75.011
X72.0Y-76.011
X72.0Y-77.011
X72.0Y-78.011
X72.0Y-62.633
X72.0Y-63.633
X72.0Y-64.633
X72.0Y-65.633
X72.0Y-50.256
X72.0Y-51.256
X72.0Y-52.256
X72.0Y-53.256
X72.0Y-39.878
X72.0Y-40.878
X72.0Y-37.878
X72.0Y-38.878
X80.833Y-27.0
X80.833Y-138.4
X81.833Y-27.0
X81.833Y-138.4
X82.833Y-27.0
X82.833Y-138.4
X83.833Y-27.0
X83.833Y-138.4
X91.167Y-27.0
X91.167Y-138.4
X92.167Y-27.0
X92.167Y-138.4
X93.167Y-27.0
X93.167Y-138.4
X94.167Y-27.0
X94.167Y-138.4
X103.0Y-37.878
X103.0Y-38.878
X103.0Y-39.878
X103.0Y-40.878
X103.0Y-50.256
X103.0Y-51.256
X103.0Y-52.256
X103.0Y-53.256
X103.0Y-62.633
X103.0Y-63.633
X103.0Y-64.633
X103.0Y-65.633
X103.0Y-75.011
X103.0Y-76.011
X103.0Y-77.011
X103.0Y-78.011
X103.0Y-87.389
X103.0Y-88.389
X103.0Y-89.389
X103.0Y-90.389
X103.0Y-99.767
X103.0Y-100.767
X103.0Y-101.767
X103.0Y-102.767
X103.0Y-112.144
X103.0Y-113.144
X103.0Y-114.144
X103.0Y-115.144
X103.0Y-124.522
X103.0Y-125.522
X103.0Y-126.522
X103.0Y-127.522
X107.0Y-126.522
X107.0Y-127.522
X107.0Y-124.522
X107.0Y-125.522
X107.0Y-112.144
X107.0Y-113.144
X107.0Y-114.144
X107.0Y-115.144
X107.0Y-99.767
X107.0Y-100.767
X107.0Y-101.767
X107.0Y-102.767
X107.0Y-87.389
X107.0Y-88.389
X107.0Y-89.389
X107.0Y-90.389
X107.0Y-75.011
X107.0Y-76.011
X107.0Y-77.011
X107.0Y-78.011
X107.0Y-62.633
X107.0Y-63.633
X107.0Y-64.633
X107.0Y-65.633
X107.0Y-50.256
X107.0Y-51.256
X107.0Y-52.256
X107.0Y-53.256
X107.0Y-39.878
X107.0Y-40.878
X107.0Y-37.878
X107.0Y-38.878
X115.833Y-27.0
X115.833Y-138.4
X116.833Y-27.0
X116.833Y-138.4
X117.833Y-27.0
X117.833Y-138.4
X118.833Y-27.0
X118.833Y-138.4
X126.167Y-27.0
X126.167Y-138.4
X127.167Y-27.0
X127.167Y-138.4
X128.167Y-27.0
X128.167Y-138.4
X129.167Y-27.0
X129.167Y-138.4
X138.0Y-37.878
X138.0Y-38.878
X138.0Y-39.878
X138.0Y-40.878
X138.0Y-50.256
X138.0Y-51.256
X138.0Y-52.256
X138.0Y-53.256
X138.0Y-62.633
X138.0Y-63.633
X138.0Y-64.633
X138.0Y-65.633
X138.0Y-75.011
X138.0Y-76.011
X138.0Y-77.011
X138.0Y-78.011
X138.0Y-87.389
X138.0Y-88.389
X138.0Y-89.389
X138.0Y-90.389
X138.0Y-99.767
X138.0Y-100.767
X138.0Y-101.767
X138.0Y-102.767
X138.0Y-112.144
X138.0Y-113.144
X138.0Y-114.144
X138.0Y-115.144
X138.0Y-124.522
X138.0Y-125.522
X138.0Y-126.522
X138.0Y-127.522
X138.0Y-20.0
X138.0Y-20.833
X138.0Y-21.667
X138.0Y-22.5
X138.0Y-23.333
X138.0Y-24.167
X138.0Y-25.0
X138.0Y-140.4
X138.0Y-141.233
X138.0Y-142.067
X138.0Y-142.9
X138.0Y-143.733
X138.0Y-144.567
X138.0Y-145.4
X140.0Y-27.0
X140.0Y-138.4
X140.833Y-27.0
X140.833Y-138.4
X141.667Y-27.0
X141.667Y-138.4
X142.5Y-27.0
X142.5Y-138.4
X143.333Y-27.0
X143.333Y-138.4
X144.167Y-27.0
X144.167Y-138.4
X145.0Y-27.0
X145.0Y-138.4
T2
X68.0Y-23.0
X68.0Y-142.4
X142.0Y-23.0
X142.0Y-142.4
M30
