G04 #@! TF.GenerationSoftware,KiCad,Pcbnew,8.0.1*
G04 #@! TF.CreationDate,2024-03-31T21:58:01-04:00*
G04 #@! TF.ProjectId,RGB-Panel,5247422d-5061-46e6-956c-2e6b69636164,V3.0*
G04 #@! TF.SameCoordinates,Original*
G04 #@! TF.FileFunction,Paste,Bot*
G04 #@! TF.FilePolarity,Positive*
%FSLAX46Y46*%
G04 Gerber Fmt 4.6, Leading zero omitted, Abs format (unit mm)*
G04 Created by KiCad (PCBNEW 8.0.1) date 2024-03-31 21:58:01*
%MOMM*%
%LPD*%
G01*
G04 APERTURE LIST*
G04 Aperture macros list*
%AMRoundRect*
0 Rectangle with rounded corners*
0 $1 Rounding radius*
0 $2 $3 $4 $5 $6 $7 $8 $9 X,Y pos of 4 corners*
0 Add a 4 corners polygon primitive as box body*
4,1,4,$2,$3,$4,$5,$6,$7,$8,$9,$2,$3,0*
0 Add four circle primitives for the rounded corners*
1,1,$1+$1,$2,$3*
1,1,$1+$1,$4,$5*
1,1,$1+$1,$6,$7*
1,1,$1+$1,$8,$9*
0 Add four rect primitives between the rounded corners*
20,1,$1+$1,$2,$3,$4,$5,0*
20,1,$1+$1,$4,$5,$6,$7,0*
20,1,$1+$1,$6,$7,$8,$9,0*
20,1,$1+$1,$8,$9,$2,$3,0*%
G04 Aperture macros list end*
%ADD10C,0.010000*%
%ADD11RoundRect,0.225000X-0.225000X-0.250000X0.225000X-0.250000X0.225000X0.250000X-0.225000X0.250000X0*%
%ADD12RoundRect,0.135000X0.185000X-0.135000X0.185000X0.135000X-0.185000X0.135000X-0.185000X-0.135000X0*%
%ADD13R,1.200000X1.400000*%
%ADD14RoundRect,0.007800X0.422200X0.122200X-0.422200X0.122200X-0.422200X-0.122200X0.422200X-0.122200X0*%
%ADD15RoundRect,0.007800X-0.122200X0.422200X-0.122200X-0.422200X0.122200X-0.422200X0.122200X0.422200X0*%
%ADD16RoundRect,0.250000X0.312500X0.625000X-0.312500X0.625000X-0.312500X-0.625000X0.312500X-0.625000X0*%
%ADD17RoundRect,0.135000X-0.135000X-0.185000X0.135000X-0.185000X0.135000X0.185000X-0.135000X0.185000X0*%
%ADD18RoundRect,0.147500X0.147500X0.172500X-0.147500X0.172500X-0.147500X-0.172500X0.147500X-0.172500X0*%
%ADD19RoundRect,0.135000X0.135000X0.185000X-0.135000X0.185000X-0.135000X-0.185000X0.135000X-0.185000X0*%
%ADD20R,1.250000X0.760000*%
%ADD21R,0.400000X0.800000*%
%ADD22RoundRect,0.147500X-0.172500X0.147500X-0.172500X-0.147500X0.172500X-0.147500X0.172500X0.147500X0*%
%ADD23RoundRect,0.140000X-0.140000X-0.170000X0.140000X-0.170000X0.140000X0.170000X-0.140000X0.170000X0*%
%ADD24RoundRect,0.140000X0.140000X0.170000X-0.140000X0.170000X-0.140000X-0.170000X0.140000X-0.170000X0*%
%ADD25RoundRect,0.140000X-0.170000X0.140000X-0.170000X-0.140000X0.170000X-0.140000X0.170000X0.140000X0*%
%ADD26RoundRect,0.135000X-0.185000X0.135000X-0.185000X-0.135000X0.185000X-0.135000X0.185000X0.135000X0*%
%ADD27RoundRect,0.050000X-0.050000X-0.750000X0.050000X-0.750000X0.050000X0.750000X-0.050000X0.750000X0*%
%ADD28RoundRect,0.075000X-0.187500X-0.075000X0.187500X-0.075000X0.187500X0.075000X-0.187500X0.075000X0*%
%ADD29RoundRect,0.225000X-0.250000X0.225000X-0.250000X-0.225000X0.250000X-0.225000X0.250000X0.225000X0*%
%ADD30RoundRect,0.249999X0.395001X-0.395001X0.395001X0.395001X-0.395001X0.395001X-0.395001X-0.395001X0*%
%ADD31RoundRect,0.050000X0.050000X-0.387500X0.050000X0.387500X-0.050000X0.387500X-0.050000X-0.387500X0*%
%ADD32RoundRect,0.050000X0.387500X-0.050000X0.387500X0.050000X-0.387500X0.050000X-0.387500X-0.050000X0*%
%ADD33RoundRect,0.147500X0.017678X-0.226274X0.226274X-0.017678X-0.017678X0.226274X-0.226274X0.017678X0*%
%ADD34C,1.152000*%
G04 APERTURE END LIST*
D10*
X119875006Y-128750000D02*
X119625006Y-128750000D01*
X119625006Y-128100000D01*
X119875006Y-128100000D01*
X119875006Y-128750000D01*
G36*
X119875006Y-128750000D02*
G01*
X119625006Y-128750000D01*
X119625006Y-128100000D01*
X119875006Y-128100000D01*
X119875006Y-128750000D01*
G37*
X120375006Y-128750000D02*
X120125006Y-128750000D01*
X120125006Y-128100000D01*
X120375006Y-128100000D01*
X120375006Y-128750000D01*
G36*
X120375006Y-128750000D02*
G01*
X120125006Y-128750000D01*
X120125006Y-128100000D01*
X120375006Y-128100000D01*
X120375006Y-128750000D01*
G37*
X120875006Y-128750000D02*
X120625006Y-128750000D01*
X120625006Y-128100000D01*
X120875006Y-128100000D01*
X120875006Y-128750000D01*
G36*
X120875006Y-128750000D02*
G01*
X120625006Y-128750000D01*
X120625006Y-128100000D01*
X120875006Y-128100000D01*
X120875006Y-128750000D01*
G37*
X121375006Y-128750000D02*
X121125006Y-128750000D01*
X121125006Y-128100000D01*
X121375006Y-128100000D01*
X121375006Y-128750000D01*
G36*
X121375006Y-128750000D02*
G01*
X121125006Y-128750000D01*
X121125006Y-128100000D01*
X121375006Y-128100000D01*
X121375006Y-128750000D01*
G37*
X121875006Y-128750000D02*
X121625006Y-128750000D01*
X121625006Y-128100000D01*
X121875006Y-128100000D01*
X121875006Y-128750000D01*
G36*
X121875006Y-128750000D02*
G01*
X121625006Y-128750000D01*
X121625006Y-128100000D01*
X121875006Y-128100000D01*
X121875006Y-128750000D01*
G37*
X122375006Y-128750000D02*
X122125006Y-128750000D01*
X122125006Y-128100000D01*
X122375006Y-128100000D01*
X122375006Y-128750000D01*
G36*
X122375006Y-128750000D02*
G01*
X122125006Y-128750000D01*
X122125006Y-128100000D01*
X122375006Y-128100000D01*
X122375006Y-128750000D01*
G37*
X122875006Y-128750000D02*
X122625006Y-128750000D01*
X122625006Y-128100000D01*
X122875006Y-128100000D01*
X122875006Y-128750000D01*
G36*
X122875006Y-128750000D02*
G01*
X122625006Y-128750000D01*
X122625006Y-128100000D01*
X122875006Y-128100000D01*
X122875006Y-128750000D01*
G37*
X123375006Y-128750000D02*
X123125006Y-128750000D01*
X123125006Y-128100000D01*
X123375006Y-128100000D01*
X123375006Y-128750000D01*
G36*
X123375006Y-128750000D02*
G01*
X123125006Y-128750000D01*
X123125006Y-128100000D01*
X123375006Y-128100000D01*
X123375006Y-128750000D01*
G37*
X123875006Y-128750000D02*
X123625006Y-128750000D01*
X123625006Y-128100000D01*
X123875006Y-128100000D01*
X123875006Y-128750000D01*
G36*
X123875006Y-128750000D02*
G01*
X123625006Y-128750000D01*
X123625006Y-128100000D01*
X123875006Y-128100000D01*
X123875006Y-128750000D01*
G37*
X124375006Y-128750000D02*
X124125006Y-128750000D01*
X124125006Y-128100000D01*
X124375006Y-128100000D01*
X124375006Y-128750000D01*
G36*
X124375006Y-128750000D02*
G01*
X124125006Y-128750000D01*
X124125006Y-128100000D01*
X124375006Y-128100000D01*
X124375006Y-128750000D01*
G37*
X124875006Y-128750000D02*
X124625006Y-128750000D01*
X124625006Y-128100000D01*
X124875006Y-128100000D01*
X124875006Y-128750000D01*
G36*
X124875006Y-128750000D02*
G01*
X124625006Y-128750000D01*
X124625006Y-128100000D01*
X124875006Y-128100000D01*
X124875006Y-128750000D01*
G37*
X125375006Y-128750000D02*
X125125006Y-128750000D01*
X125125006Y-128100000D01*
X125375006Y-128100000D01*
X125375006Y-128750000D01*
G36*
X125375006Y-128750000D02*
G01*
X125125006Y-128750000D01*
X125125006Y-128100000D01*
X125375006Y-128100000D01*
X125375006Y-128750000D01*
G37*
X84875006Y-128750000D02*
X84625006Y-128750000D01*
X84625006Y-128100000D01*
X84875006Y-128100000D01*
X84875006Y-128750000D01*
G36*
X84875006Y-128750000D02*
G01*
X84625006Y-128750000D01*
X84625006Y-128100000D01*
X84875006Y-128100000D01*
X84875006Y-128750000D01*
G37*
X85375006Y-128750000D02*
X85125006Y-128750000D01*
X85125006Y-128100000D01*
X85375006Y-128100000D01*
X85375006Y-128750000D01*
G36*
X85375006Y-128750000D02*
G01*
X85125006Y-128750000D01*
X85125006Y-128100000D01*
X85375006Y-128100000D01*
X85375006Y-128750000D01*
G37*
X85875006Y-128750000D02*
X85625006Y-128750000D01*
X85625006Y-128100000D01*
X85875006Y-128100000D01*
X85875006Y-128750000D01*
G36*
X85875006Y-128750000D02*
G01*
X85625006Y-128750000D01*
X85625006Y-128100000D01*
X85875006Y-128100000D01*
X85875006Y-128750000D01*
G37*
X86375006Y-128750000D02*
X86125006Y-128750000D01*
X86125006Y-128100000D01*
X86375006Y-128100000D01*
X86375006Y-128750000D01*
G36*
X86375006Y-128750000D02*
G01*
X86125006Y-128750000D01*
X86125006Y-128100000D01*
X86375006Y-128100000D01*
X86375006Y-128750000D01*
G37*
X86875006Y-128750000D02*
X86625006Y-128750000D01*
X86625006Y-128100000D01*
X86875006Y-128100000D01*
X86875006Y-128750000D01*
G36*
X86875006Y-128750000D02*
G01*
X86625006Y-128750000D01*
X86625006Y-128100000D01*
X86875006Y-128100000D01*
X86875006Y-128750000D01*
G37*
X87375006Y-128750000D02*
X87125006Y-128750000D01*
X87125006Y-128100000D01*
X87375006Y-128100000D01*
X87375006Y-128750000D01*
G36*
X87375006Y-128750000D02*
G01*
X87125006Y-128750000D01*
X87125006Y-128100000D01*
X87375006Y-128100000D01*
X87375006Y-128750000D01*
G37*
X87875006Y-128750000D02*
X87625006Y-128750000D01*
X87625006Y-128100000D01*
X87875006Y-128100000D01*
X87875006Y-128750000D01*
G36*
X87875006Y-128750000D02*
G01*
X87625006Y-128750000D01*
X87625006Y-128100000D01*
X87875006Y-128100000D01*
X87875006Y-128750000D01*
G37*
X88375006Y-128750000D02*
X88125006Y-128750000D01*
X88125006Y-128100000D01*
X88375006Y-128100000D01*
X88375006Y-128750000D01*
G36*
X88375006Y-128750000D02*
G01*
X88125006Y-128750000D01*
X88125006Y-128100000D01*
X88375006Y-128100000D01*
X88375006Y-128750000D01*
G37*
X88875006Y-128750000D02*
X88625006Y-128750000D01*
X88625006Y-128100000D01*
X88875006Y-128100000D01*
X88875006Y-128750000D01*
G36*
X88875006Y-128750000D02*
G01*
X88625006Y-128750000D01*
X88625006Y-128100000D01*
X88875006Y-128100000D01*
X88875006Y-128750000D01*
G37*
X89375006Y-128750000D02*
X89125006Y-128750000D01*
X89125006Y-128100000D01*
X89375006Y-128100000D01*
X89375006Y-128750000D01*
G36*
X89375006Y-128750000D02*
G01*
X89125006Y-128750000D01*
X89125006Y-128100000D01*
X89375006Y-128100000D01*
X89375006Y-128750000D01*
G37*
X89875006Y-128750000D02*
X89625006Y-128750000D01*
X89625006Y-128100000D01*
X89875006Y-128100000D01*
X89875006Y-128750000D01*
G36*
X89875006Y-128750000D02*
G01*
X89625006Y-128750000D01*
X89625006Y-128100000D01*
X89875006Y-128100000D01*
X89875006Y-128750000D01*
G37*
X90375006Y-128750000D02*
X90125006Y-128750000D01*
X90125006Y-128100000D01*
X90375006Y-128100000D01*
X90375006Y-128750000D01*
G36*
X90375006Y-128750000D02*
G01*
X90125006Y-128750000D01*
X90125006Y-128100000D01*
X90375006Y-128100000D01*
X90375006Y-128750000D01*
G37*
D11*
X125225006Y-126700000D03*
X126775006Y-126700000D03*
D12*
X80350006Y-114413000D03*
X80350006Y-113393000D03*
D13*
X119714006Y-117835000D03*
X119714006Y-120035000D03*
X118014006Y-120035000D03*
X118014006Y-117835000D03*
D14*
X109865006Y-121845000D03*
D15*
X110300006Y-120910000D03*
X110800006Y-120910000D03*
X111300006Y-120910000D03*
X111800006Y-120910000D03*
X112300006Y-120910000D03*
D14*
X112735006Y-121845000D03*
X112735006Y-122345000D03*
D15*
X112300006Y-123280000D03*
X111800006Y-123280000D03*
X111300006Y-123280000D03*
X110800006Y-123280000D03*
X110300006Y-123280000D03*
D14*
X109865006Y-122345000D03*
D11*
X90225006Y-126700000D03*
X91775006Y-126700000D03*
D16*
X81932899Y-129389892D03*
X79007899Y-129389892D03*
D17*
X132110006Y-124020000D03*
X133130006Y-124020000D03*
D18*
X90985006Y-125500000D03*
X90015006Y-125500000D03*
D19*
X117742899Y-131049892D03*
X116722899Y-131049892D03*
D20*
X134742899Y-127879892D03*
X134742899Y-129149892D03*
X128592899Y-129149892D03*
X128592899Y-127879892D03*
D21*
X118750006Y-131000000D03*
X126250006Y-131000000D03*
D22*
X77622899Y-128709892D03*
X77622899Y-129679892D03*
D19*
X100880006Y-116223000D03*
X99860006Y-116223000D03*
D23*
X132900006Y-118315000D03*
X133860006Y-118315000D03*
X97900006Y-118315000D03*
X98860006Y-118315000D03*
D19*
X110392899Y-111879892D03*
X109372899Y-111879892D03*
D24*
X122060006Y-119800000D03*
X121100006Y-119800000D03*
D25*
X97100006Y-122100000D03*
X97100006Y-123060000D03*
D23*
X83940006Y-116350000D03*
X84900006Y-116350000D03*
D26*
X77692899Y-124479892D03*
X77692899Y-125499892D03*
D19*
X100340006Y-115173000D03*
X99320006Y-115173000D03*
D13*
X84714006Y-117835000D03*
X84714006Y-120035000D03*
X83014006Y-120035000D03*
X83014006Y-117835000D03*
D24*
X132000006Y-113643000D03*
X131040006Y-113643000D03*
X87060006Y-119800000D03*
X86100006Y-119800000D03*
D11*
X80172899Y-127459892D03*
X81722899Y-127459892D03*
D26*
X113970005Y-122495000D03*
X113970005Y-123515000D03*
D23*
X134840006Y-117743000D03*
X135800006Y-117743000D03*
D27*
X134407506Y-120643000D03*
D28*
X133120006Y-121393000D03*
X133120006Y-120893000D03*
X133120006Y-120393000D03*
X133120006Y-119893000D03*
X135695006Y-119893000D03*
X135695006Y-120393000D03*
X135695006Y-120893000D03*
X135695006Y-121393000D03*
D19*
X134220006Y-122684000D03*
X133200006Y-122684000D03*
D17*
X86290006Y-118625000D03*
X87310006Y-118625000D03*
D23*
X126520006Y-113550000D03*
X127480006Y-113550000D03*
X91172899Y-123199892D03*
X92132899Y-123199892D03*
X97400006Y-115900000D03*
X98360006Y-115900000D03*
X126172899Y-123199892D03*
X127132899Y-123199892D03*
D19*
X135340006Y-115173000D03*
X134320006Y-115173000D03*
D29*
X73600006Y-116700000D03*
X73600006Y-118250000D03*
D12*
X115350006Y-114413000D03*
X115350006Y-113393000D03*
D17*
X97110006Y-124020000D03*
X98130006Y-124020000D03*
D23*
X97400006Y-114893000D03*
X98360006Y-114893000D03*
D12*
X78970005Y-121095000D03*
X78970005Y-120075000D03*
D30*
X126700006Y-119100000D03*
X128300006Y-119100000D03*
X126700006Y-117500000D03*
X128300006Y-117500000D03*
D31*
X130100006Y-121737500D03*
X129700006Y-121737500D03*
X129300006Y-121737500D03*
X128900006Y-121737500D03*
X128500006Y-121737500D03*
X128100006Y-121737500D03*
X127700006Y-121737500D03*
X127300006Y-121737500D03*
X126900006Y-121737500D03*
X126500006Y-121737500D03*
X126100006Y-121737500D03*
X125700006Y-121737500D03*
X125300006Y-121737500D03*
X124900006Y-121737500D03*
D32*
X124062506Y-120900000D03*
X124062506Y-120500000D03*
X124062506Y-120100000D03*
X124062506Y-119700000D03*
X124062506Y-119300000D03*
X124062506Y-118900000D03*
X124062506Y-118500000D03*
X124062506Y-118100000D03*
X124062506Y-117700000D03*
X124062506Y-117300000D03*
X124062506Y-116900000D03*
X124062506Y-116500000D03*
X124062506Y-116100000D03*
X124062506Y-115700000D03*
D31*
X124900006Y-114862500D03*
X125300006Y-114862500D03*
X125700006Y-114862500D03*
X126100006Y-114862500D03*
X126500006Y-114862500D03*
X126900006Y-114862500D03*
X127300006Y-114862500D03*
X127700006Y-114862500D03*
X128100006Y-114862500D03*
X128500006Y-114862500D03*
X128900006Y-114862500D03*
X129300006Y-114862500D03*
X129700006Y-114862500D03*
X130100006Y-114862500D03*
D32*
X130937506Y-115700000D03*
X130937506Y-116100000D03*
X130937506Y-116500000D03*
X130937506Y-116900000D03*
X130937506Y-117300000D03*
X130937506Y-117700000D03*
X130937506Y-118100000D03*
X130937506Y-118500000D03*
X130937506Y-118900000D03*
X130937506Y-119300000D03*
X130937506Y-119700000D03*
X130937506Y-120100000D03*
X130937506Y-120500000D03*
X130937506Y-120900000D03*
D26*
X87900006Y-113680000D03*
X87900006Y-114700000D03*
D21*
X83750006Y-131000000D03*
X91250006Y-131000000D03*
D33*
X135957005Y-130585786D03*
X136642899Y-129899892D03*
D20*
X99742899Y-127879892D03*
X99742899Y-129149892D03*
X93592899Y-129149892D03*
X93592899Y-127879892D03*
D26*
X79100005Y-116399999D03*
X79100005Y-117419999D03*
D23*
X118940006Y-116350000D03*
X119900006Y-116350000D03*
D26*
X78970005Y-122495000D03*
X78970005Y-123515000D03*
D19*
X75662899Y-119719892D03*
X74642899Y-119719892D03*
D26*
X112692899Y-124479892D03*
X112692899Y-125499892D03*
X114100005Y-116399999D03*
X114100005Y-117419999D03*
D12*
X110042899Y-125419892D03*
X110042899Y-124399892D03*
D18*
X125985006Y-125500000D03*
X125015006Y-125500000D03*
D12*
X113970005Y-121095000D03*
X113970005Y-120075000D03*
D19*
X82742899Y-131049892D03*
X81722899Y-131049892D03*
X75392899Y-111879892D03*
X74372899Y-111879892D03*
D14*
X74865006Y-121845000D03*
D15*
X75300006Y-120910000D03*
X75800006Y-120910000D03*
X76300006Y-120910000D03*
X76800006Y-120910000D03*
X77300006Y-120910000D03*
D14*
X77735006Y-121845000D03*
X77735006Y-122345000D03*
D15*
X77300006Y-123280000D03*
X76800006Y-123280000D03*
X76300006Y-123280000D03*
X75800006Y-123280000D03*
X75300006Y-123280000D03*
D14*
X74865006Y-122345000D03*
D29*
X73370005Y-122795000D03*
X73370005Y-124345000D03*
D16*
X88662506Y-126360000D03*
X85737506Y-126360000D03*
D23*
X99840006Y-117743000D03*
X100800006Y-117743000D03*
D24*
X87260006Y-117600000D03*
X86300006Y-117600000D03*
D11*
X115172899Y-127459892D03*
X116722899Y-127459892D03*
D24*
X130080006Y-113550000D03*
X129120006Y-113550000D03*
D30*
X91700006Y-119100000D03*
X93300006Y-119100000D03*
X91700006Y-117500000D03*
X93300006Y-117500000D03*
D31*
X95100006Y-121737500D03*
X94700006Y-121737500D03*
X94300006Y-121737500D03*
X93900006Y-121737500D03*
X93500006Y-121737500D03*
X93100006Y-121737500D03*
X92700006Y-121737500D03*
X92300006Y-121737500D03*
X91900006Y-121737500D03*
X91500006Y-121737500D03*
X91100006Y-121737500D03*
X90700006Y-121737500D03*
X90300006Y-121737500D03*
X89900006Y-121737500D03*
D32*
X89062506Y-120900000D03*
X89062506Y-120500000D03*
X89062506Y-120100000D03*
X89062506Y-119700000D03*
X89062506Y-119300000D03*
X89062506Y-118900000D03*
X89062506Y-118500000D03*
X89062506Y-118100000D03*
X89062506Y-117700000D03*
X89062506Y-117300000D03*
X89062506Y-116900000D03*
X89062506Y-116500000D03*
X89062506Y-116100000D03*
X89062506Y-115700000D03*
D31*
X89900006Y-114862500D03*
X90300006Y-114862500D03*
X90700006Y-114862500D03*
X91100006Y-114862500D03*
X91500006Y-114862500D03*
X91900006Y-114862500D03*
X92300006Y-114862500D03*
X92700006Y-114862500D03*
X93100006Y-114862500D03*
X93500006Y-114862500D03*
X93900006Y-114862500D03*
X94300006Y-114862500D03*
X94700006Y-114862500D03*
X95100006Y-114862500D03*
D32*
X95937506Y-115700000D03*
X95937506Y-116100000D03*
X95937506Y-116500000D03*
X95937506Y-116900000D03*
X95937506Y-117300000D03*
X95937506Y-117700000D03*
X95937506Y-118100000D03*
X95937506Y-118500000D03*
X95937506Y-118900000D03*
X95937506Y-119300000D03*
X95937506Y-119700000D03*
X95937506Y-120100000D03*
X95937506Y-120500000D03*
X95937506Y-120900000D03*
D25*
X132100006Y-122100000D03*
X132100006Y-123060000D03*
D33*
X100957005Y-130585786D03*
X101642899Y-129899892D03*
D12*
X75042899Y-125419892D03*
X75042899Y-124399892D03*
D19*
X110900006Y-113500000D03*
X109880006Y-113500000D03*
D14*
X75065006Y-115650000D03*
D15*
X75500006Y-114715000D03*
X76000006Y-114715000D03*
X76500006Y-114715000D03*
X77000006Y-114715000D03*
X77500006Y-114715000D03*
D14*
X77935006Y-115650000D03*
X77935006Y-116150000D03*
D15*
X77500006Y-117085000D03*
X77000006Y-117085000D03*
X76500006Y-117085000D03*
X76000006Y-117085000D03*
X75500006Y-117085000D03*
D14*
X75065006Y-116150000D03*
D23*
X91520006Y-113550000D03*
X92480006Y-113550000D03*
D25*
X100100006Y-122704000D03*
X100100006Y-123664000D03*
D14*
X110065006Y-115650000D03*
D15*
X110500006Y-114715000D03*
X111000006Y-114715000D03*
X111500006Y-114715000D03*
X112000006Y-114715000D03*
X112500006Y-114715000D03*
D14*
X112935006Y-115650000D03*
X112935006Y-116150000D03*
D15*
X112500006Y-117085000D03*
X112000006Y-117085000D03*
X111500006Y-117085000D03*
X111000006Y-117085000D03*
X110500006Y-117085000D03*
D14*
X110065006Y-116150000D03*
D19*
X76460006Y-118320000D03*
X75440006Y-118320000D03*
D29*
X108600006Y-116700000D03*
X108600006Y-118250000D03*
D27*
X99407506Y-120643000D03*
D28*
X98120006Y-121393000D03*
X98120006Y-120893000D03*
X98120006Y-120393000D03*
X98120006Y-119893000D03*
X100695006Y-119893000D03*
X100695006Y-120393000D03*
X100695006Y-120893000D03*
X100695006Y-121393000D03*
D24*
X97000006Y-113643000D03*
X96040006Y-113643000D03*
D23*
X132400006Y-115900000D03*
X133360006Y-115900000D03*
D16*
X116932899Y-129389892D03*
X114007899Y-129389892D03*
X123662506Y-126360000D03*
X120737506Y-126360000D03*
D22*
X128032899Y-125369892D03*
X128032899Y-126339892D03*
D19*
X99220006Y-122684000D03*
X98200006Y-122684000D03*
D22*
X136392899Y-127749892D03*
X136392899Y-128719892D03*
D24*
X122260006Y-116625000D03*
X121300006Y-116625000D03*
D23*
X132400006Y-114893000D03*
X133360006Y-114893000D03*
D19*
X111460006Y-118320000D03*
X110440006Y-118320000D03*
D22*
X101392899Y-127749892D03*
X101392899Y-128719892D03*
D24*
X122260006Y-117600000D03*
X121300006Y-117600000D03*
X95080006Y-113550000D03*
X94120006Y-113550000D03*
D17*
X121290006Y-118625000D03*
X122310006Y-118625000D03*
D22*
X112622899Y-128709892D03*
X112622899Y-129679892D03*
D19*
X75900006Y-113500000D03*
X74880006Y-113500000D03*
D25*
X135100006Y-122704000D03*
X135100006Y-123664000D03*
D29*
X108370005Y-122795000D03*
X108370005Y-124345000D03*
D19*
X110662899Y-119719892D03*
X109642899Y-119719892D03*
X135880006Y-116223000D03*
X134860006Y-116223000D03*
D24*
X87260006Y-116625000D03*
X86300006Y-116625000D03*
D22*
X93032899Y-125369892D03*
X93032899Y-126339892D03*
D26*
X122900006Y-113680000D03*
X122900006Y-114700000D03*
D34*
X67999997Y-23000000D03*
X142000003Y-23000000D03*
X67999997Y-142399995D03*
X142000003Y-142399995D03*
M02*
