G04 #@! TF.GenerationSoftware,KiCad,Pcbnew,8.0.1*
G04 #@! TF.CreationDate,2024-03-31T21:58:01-04:00*
G04 #@! TF.ProjectId,RGB-Panel,5247422d-5061-46e6-956c-2e6b69636164,V3.0*
G04 #@! TF.SameCoordinates,Original*
G04 #@! TF.FileFunction,Legend,Top*
G04 #@! TF.FilePolarity,Positive*
%FSLAX46Y46*%
G04 Gerber Fmt 4.6, Leading zero omitted, Abs format (unit mm)*
G04 Created by KiCad (PCBNEW 8.0.1) date 2024-03-31 21:58:01*
%MOMM*%
%LPD*%
G01*
G04 APERTURE LIST*
%ADD10C,0.300000*%
%ADD11C,0.100000*%
%ADD12R,0.500000X0.500000*%
%ADD13C,0.500000*%
%ADD14C,1.152000*%
%ADD15C,3.000000*%
G04 APERTURE END LIST*
D10*
X98792853Y-142178328D02*
X99149996Y-143678328D01*
X99149996Y-143678328D02*
X99435710Y-142606900D01*
X99435710Y-142606900D02*
X99721425Y-143678328D01*
X99721425Y-143678328D02*
X100078568Y-142178328D01*
X101292854Y-143678328D02*
X101292854Y-142892614D01*
X101292854Y-142892614D02*
X101221425Y-142749757D01*
X101221425Y-142749757D02*
X101078568Y-142678328D01*
X101078568Y-142678328D02*
X100792854Y-142678328D01*
X100792854Y-142678328D02*
X100649996Y-142749757D01*
X101292854Y-143606900D02*
X101149996Y-143678328D01*
X101149996Y-143678328D02*
X100792854Y-143678328D01*
X100792854Y-143678328D02*
X100649996Y-143606900D01*
X100649996Y-143606900D02*
X100578568Y-143464042D01*
X100578568Y-143464042D02*
X100578568Y-143321185D01*
X100578568Y-143321185D02*
X100649996Y-143178328D01*
X100649996Y-143178328D02*
X100792854Y-143106900D01*
X100792854Y-143106900D02*
X101149996Y-143106900D01*
X101149996Y-143106900D02*
X101292854Y-143035471D01*
X101864282Y-142678328D02*
X102221425Y-143678328D01*
X102578568Y-142678328D02*
X102221425Y-143678328D01*
X102221425Y-143678328D02*
X102078568Y-144035471D01*
X102078568Y-144035471D02*
X102007139Y-144106900D01*
X102007139Y-144106900D02*
X101864282Y-144178328D01*
X103007139Y-142178328D02*
X103364282Y-143678328D01*
X103364282Y-143678328D02*
X103649996Y-142606900D01*
X103649996Y-142606900D02*
X103935711Y-143678328D01*
X103935711Y-143678328D02*
X104292854Y-142178328D01*
X105507140Y-143678328D02*
X105507140Y-142892614D01*
X105507140Y-142892614D02*
X105435711Y-142749757D01*
X105435711Y-142749757D02*
X105292854Y-142678328D01*
X105292854Y-142678328D02*
X105007140Y-142678328D01*
X105007140Y-142678328D02*
X104864282Y-142749757D01*
X105507140Y-143606900D02*
X105364282Y-143678328D01*
X105364282Y-143678328D02*
X105007140Y-143678328D01*
X105007140Y-143678328D02*
X104864282Y-143606900D01*
X104864282Y-143606900D02*
X104792854Y-143464042D01*
X104792854Y-143464042D02*
X104792854Y-143321185D01*
X104792854Y-143321185D02*
X104864282Y-143178328D01*
X104864282Y-143178328D02*
X105007140Y-143106900D01*
X105007140Y-143106900D02*
X105364282Y-143106900D01*
X105364282Y-143106900D02*
X105507140Y-143035471D01*
X106078568Y-142678328D02*
X106435711Y-143678328D01*
X106792854Y-142678328D02*
X106435711Y-143678328D01*
X106435711Y-143678328D02*
X106292854Y-144035471D01*
X106292854Y-144035471D02*
X106221425Y-144106900D01*
X106221425Y-144106900D02*
X106078568Y-144178328D01*
X107221425Y-142178328D02*
X107578568Y-143678328D01*
X107578568Y-143678328D02*
X107864282Y-142606900D01*
X107864282Y-142606900D02*
X108149997Y-143678328D01*
X108149997Y-143678328D02*
X108507140Y-142178328D01*
X109721426Y-143678328D02*
X109721426Y-142892614D01*
X109721426Y-142892614D02*
X109649997Y-142749757D01*
X109649997Y-142749757D02*
X109507140Y-142678328D01*
X109507140Y-142678328D02*
X109221426Y-142678328D01*
X109221426Y-142678328D02*
X109078568Y-142749757D01*
X109721426Y-143606900D02*
X109578568Y-143678328D01*
X109578568Y-143678328D02*
X109221426Y-143678328D01*
X109221426Y-143678328D02*
X109078568Y-143606900D01*
X109078568Y-143606900D02*
X109007140Y-143464042D01*
X109007140Y-143464042D02*
X109007140Y-143321185D01*
X109007140Y-143321185D02*
X109078568Y-143178328D01*
X109078568Y-143178328D02*
X109221426Y-143106900D01*
X109221426Y-143106900D02*
X109578568Y-143106900D01*
X109578568Y-143106900D02*
X109721426Y-143035471D01*
X110292854Y-142678328D02*
X110649997Y-143678328D01*
X111007140Y-142678328D02*
X110649997Y-143678328D01*
X110649997Y-143678328D02*
X110507140Y-144035471D01*
X110507140Y-144035471D02*
X110435711Y-144106900D01*
X110435711Y-144106900D02*
X110292854Y-144178328D01*
X98096425Y-22103328D02*
X98096425Y-23174757D01*
X98096425Y-23174757D02*
X98024996Y-23389042D01*
X98024996Y-23389042D02*
X97882139Y-23531900D01*
X97882139Y-23531900D02*
X97667853Y-23603328D01*
X97667853Y-23603328D02*
X97524996Y-23603328D01*
X99524996Y-23603328D02*
X98810710Y-23603328D01*
X98810710Y-23603328D02*
X98810710Y-22103328D01*
X100882139Y-23460471D02*
X100810711Y-23531900D01*
X100810711Y-23531900D02*
X100596425Y-23603328D01*
X100596425Y-23603328D02*
X100453568Y-23603328D01*
X100453568Y-23603328D02*
X100239282Y-23531900D01*
X100239282Y-23531900D02*
X100096425Y-23389042D01*
X100096425Y-23389042D02*
X100024996Y-23246185D01*
X100024996Y-23246185D02*
X99953568Y-22960471D01*
X99953568Y-22960471D02*
X99953568Y-22746185D01*
X99953568Y-22746185D02*
X100024996Y-22460471D01*
X100024996Y-22460471D02*
X100096425Y-22317614D01*
X100096425Y-22317614D02*
X100239282Y-22174757D01*
X100239282Y-22174757D02*
X100453568Y-22103328D01*
X100453568Y-22103328D02*
X100596425Y-22103328D01*
X100596425Y-22103328D02*
X100810711Y-22174757D01*
X100810711Y-22174757D02*
X100882139Y-22246185D01*
X101953568Y-22103328D02*
X101953568Y-23174757D01*
X101953568Y-23174757D02*
X101882139Y-23389042D01*
X101882139Y-23389042D02*
X101739282Y-23531900D01*
X101739282Y-23531900D02*
X101524996Y-23603328D01*
X101524996Y-23603328D02*
X101382139Y-23603328D01*
X103382139Y-23603328D02*
X102667853Y-23603328D01*
X102667853Y-23603328D02*
X102667853Y-22103328D01*
X104739282Y-23460471D02*
X104667854Y-23531900D01*
X104667854Y-23531900D02*
X104453568Y-23603328D01*
X104453568Y-23603328D02*
X104310711Y-23603328D01*
X104310711Y-23603328D02*
X104096425Y-23531900D01*
X104096425Y-23531900D02*
X103953568Y-23389042D01*
X103953568Y-23389042D02*
X103882139Y-23246185D01*
X103882139Y-23246185D02*
X103810711Y-22960471D01*
X103810711Y-22960471D02*
X103810711Y-22746185D01*
X103810711Y-22746185D02*
X103882139Y-22460471D01*
X103882139Y-22460471D02*
X103953568Y-22317614D01*
X103953568Y-22317614D02*
X104096425Y-22174757D01*
X104096425Y-22174757D02*
X104310711Y-22103328D01*
X104310711Y-22103328D02*
X104453568Y-22103328D01*
X104453568Y-22103328D02*
X104667854Y-22174757D01*
X104667854Y-22174757D02*
X104739282Y-22246185D01*
X105810711Y-22103328D02*
X105810711Y-23174757D01*
X105810711Y-23174757D02*
X105739282Y-23389042D01*
X105739282Y-23389042D02*
X105596425Y-23531900D01*
X105596425Y-23531900D02*
X105382139Y-23603328D01*
X105382139Y-23603328D02*
X105239282Y-23603328D01*
X107239282Y-23603328D02*
X106524996Y-23603328D01*
X106524996Y-23603328D02*
X106524996Y-22103328D01*
X108596425Y-23460471D02*
X108524997Y-23531900D01*
X108524997Y-23531900D02*
X108310711Y-23603328D01*
X108310711Y-23603328D02*
X108167854Y-23603328D01*
X108167854Y-23603328D02*
X107953568Y-23531900D01*
X107953568Y-23531900D02*
X107810711Y-23389042D01*
X107810711Y-23389042D02*
X107739282Y-23246185D01*
X107739282Y-23246185D02*
X107667854Y-22960471D01*
X107667854Y-22960471D02*
X107667854Y-22746185D01*
X107667854Y-22746185D02*
X107739282Y-22460471D01*
X107739282Y-22460471D02*
X107810711Y-22317614D01*
X107810711Y-22317614D02*
X107953568Y-22174757D01*
X107953568Y-22174757D02*
X108167854Y-22103328D01*
X108167854Y-22103328D02*
X108310711Y-22103328D01*
X108310711Y-22103328D02*
X108524997Y-22174757D01*
X108524997Y-22174757D02*
X108596425Y-22246185D01*
X109667854Y-22103328D02*
X109667854Y-23174757D01*
X109667854Y-23174757D02*
X109596425Y-23389042D01*
X109596425Y-23389042D02*
X109453568Y-23531900D01*
X109453568Y-23531900D02*
X109239282Y-23603328D01*
X109239282Y-23603328D02*
X109096425Y-23603328D01*
X111096425Y-23603328D02*
X110382139Y-23603328D01*
X110382139Y-23603328D02*
X110382139Y-22103328D01*
X112453568Y-23460471D02*
X112382140Y-23531900D01*
X112382140Y-23531900D02*
X112167854Y-23603328D01*
X112167854Y-23603328D02*
X112024997Y-23603328D01*
X112024997Y-23603328D02*
X111810711Y-23531900D01*
X111810711Y-23531900D02*
X111667854Y-23389042D01*
X111667854Y-23389042D02*
X111596425Y-23246185D01*
X111596425Y-23246185D02*
X111524997Y-22960471D01*
X111524997Y-22960471D02*
X111524997Y-22746185D01*
X111524997Y-22746185D02*
X111596425Y-22460471D01*
X111596425Y-22460471D02*
X111667854Y-22317614D01*
X111667854Y-22317614D02*
X111810711Y-22174757D01*
X111810711Y-22174757D02*
X112024997Y-22103328D01*
X112024997Y-22103328D02*
X112167854Y-22103328D01*
X112167854Y-22103328D02*
X112382140Y-22174757D01*
X112382140Y-22174757D02*
X112453568Y-22246185D01*
D11*
X84902006Y-33866000D02*
G75*
G02*
X84852006Y-33866000I-25000J0D01*
G01*
X84852006Y-33866000D02*
G75*
G02*
X84902006Y-33866000I25000J0D01*
G01*
X102017006Y-71519000D02*
G75*
G02*
X101967006Y-71519000I-25000J0D01*
G01*
X101967006Y-71519000D02*
G75*
G02*
X102017006Y-71519000I25000J0D01*
G01*
X91748006Y-92057000D02*
G75*
G02*
X91698006Y-92057000I-25000J0D01*
G01*
X91698006Y-92057000D02*
G75*
G02*
X91748006Y-92057000I25000J0D01*
G01*
X119902006Y-98903000D02*
G75*
G02*
X119852006Y-98903000I-25000J0D01*
G01*
X119852006Y-98903000D02*
G75*
G02*
X119902006Y-98903000I25000J0D01*
G01*
X81479006Y-54404000D02*
G75*
G02*
X81429006Y-54404000I-25000J0D01*
G01*
X81429006Y-54404000D02*
G75*
G02*
X81479006Y-54404000I25000J0D01*
G01*
X133594006Y-47558000D02*
G75*
G02*
X133544006Y-47558000I-25000J0D01*
G01*
X133544006Y-47558000D02*
G75*
G02*
X133594006Y-47558000I25000J0D01*
G01*
X81479006Y-136556000D02*
G75*
G02*
X81429006Y-136556000I-25000J0D01*
G01*
X81429006Y-136556000D02*
G75*
G02*
X81479006Y-136556000I25000J0D01*
G01*
X123325006Y-54404000D02*
G75*
G02*
X123275006Y-54404000I-25000J0D01*
G01*
X123275006Y-54404000D02*
G75*
G02*
X123325006Y-54404000I25000J0D01*
G01*
X88325006Y-68096000D02*
G75*
G02*
X88275006Y-68096000I-25000J0D01*
G01*
X88275006Y-68096000D02*
G75*
G02*
X88325006Y-68096000I25000J0D01*
G01*
X88325006Y-74942000D02*
G75*
G02*
X88275006Y-74942000I-25000J0D01*
G01*
X88275006Y-74942000D02*
G75*
G02*
X88325006Y-74942000I25000J0D01*
G01*
X116479006Y-133133000D02*
G75*
G02*
X116429006Y-133133000I-25000J0D01*
G01*
X116429006Y-133133000D02*
G75*
G02*
X116479006Y-133133000I25000J0D01*
G01*
X78056006Y-95480000D02*
G75*
G02*
X78006006Y-95480000I-25000J0D01*
G01*
X78006006Y-95480000D02*
G75*
G02*
X78056006Y-95480000I25000J0D01*
G01*
X123325006Y-44135000D02*
G75*
G02*
X123275006Y-44135000I-25000J0D01*
G01*
X123275006Y-44135000D02*
G75*
G02*
X123325006Y-44135000I25000J0D01*
G01*
X102017006Y-54404000D02*
G75*
G02*
X101967006Y-54404000I-25000J0D01*
G01*
X101967006Y-54404000D02*
G75*
G02*
X102017006Y-54404000I25000J0D01*
G01*
X137017006Y-85211000D02*
G75*
G02*
X136967006Y-85211000I-25000J0D01*
G01*
X136967006Y-85211000D02*
G75*
G02*
X137017006Y-85211000I25000J0D01*
G01*
X119902006Y-95480000D02*
G75*
G02*
X119852006Y-95480000I-25000J0D01*
G01*
X119852006Y-95480000D02*
G75*
G02*
X119902006Y-95480000I25000J0D01*
G01*
X81479006Y-126287000D02*
G75*
G02*
X81429006Y-126287000I-25000J0D01*
G01*
X81429006Y-126287000D02*
G75*
G02*
X81479006Y-126287000I25000J0D01*
G01*
X81479006Y-81788000D02*
G75*
G02*
X81429006Y-81788000I-25000J0D01*
G01*
X81429006Y-81788000D02*
G75*
G02*
X81479006Y-81788000I25000J0D01*
G01*
X116479006Y-95480000D02*
G75*
G02*
X116429006Y-95480000I-25000J0D01*
G01*
X116429006Y-95480000D02*
G75*
G02*
X116479006Y-95480000I25000J0D01*
G01*
X126748006Y-119441000D02*
G75*
G02*
X126698006Y-119441000I-25000J0D01*
G01*
X126698006Y-119441000D02*
G75*
G02*
X126748006Y-119441000I25000J0D01*
G01*
X102017006Y-95480000D02*
G75*
G02*
X101967006Y-95480000I-25000J0D01*
G01*
X101967006Y-95480000D02*
G75*
G02*
X102017006Y-95480000I25000J0D01*
G01*
X95171006Y-33866000D02*
G75*
G02*
X95121006Y-33866000I-25000J0D01*
G01*
X95121006Y-33866000D02*
G75*
G02*
X95171006Y-33866000I25000J0D01*
G01*
X95171006Y-30443000D02*
G75*
G02*
X95121006Y-30443000I-25000J0D01*
G01*
X95121006Y-30443000D02*
G75*
G02*
X95171006Y-30443000I25000J0D01*
G01*
X91748006Y-64673000D02*
G75*
G02*
X91698006Y-64673000I-25000J0D01*
G01*
X91698006Y-64673000D02*
G75*
G02*
X91748006Y-64673000I25000J0D01*
G01*
X119902006Y-85211000D02*
G75*
G02*
X119852006Y-85211000I-25000J0D01*
G01*
X119852006Y-85211000D02*
G75*
G02*
X119902006Y-85211000I25000J0D01*
G01*
X98594006Y-126287000D02*
G75*
G02*
X98544006Y-126287000I-25000J0D01*
G01*
X98544006Y-126287000D02*
G75*
G02*
X98594006Y-126287000I25000J0D01*
G01*
X113056006Y-61250000D02*
G75*
G02*
X113006006Y-61250000I-25000J0D01*
G01*
X113006006Y-61250000D02*
G75*
G02*
X113056006Y-61250000I25000J0D01*
G01*
X91748006Y-129710000D02*
G75*
G02*
X91698006Y-129710000I-25000J0D01*
G01*
X91698006Y-129710000D02*
G75*
G02*
X91748006Y-129710000I25000J0D01*
G01*
X91748006Y-78365000D02*
G75*
G02*
X91698006Y-78365000I-25000J0D01*
G01*
X91698006Y-78365000D02*
G75*
G02*
X91748006Y-78365000I25000J0D01*
G01*
X109633006Y-136556000D02*
G75*
G02*
X109583006Y-136556000I-25000J0D01*
G01*
X109583006Y-136556000D02*
G75*
G02*
X109633006Y-136556000I25000J0D01*
G01*
X102017006Y-81788000D02*
G75*
G02*
X101967006Y-81788000I-25000J0D01*
G01*
X101967006Y-81788000D02*
G75*
G02*
X102017006Y-81788000I25000J0D01*
G01*
X137017006Y-112595000D02*
G75*
G02*
X136967006Y-112595000I-25000J0D01*
G01*
X136967006Y-112595000D02*
G75*
G02*
X137017006Y-112595000I25000J0D01*
G01*
X91748006Y-119441000D02*
G75*
G02*
X91698006Y-119441000I-25000J0D01*
G01*
X91698006Y-119441000D02*
G75*
G02*
X91748006Y-119441000I25000J0D01*
G01*
X130171006Y-105749000D02*
G75*
G02*
X130121006Y-105749000I-25000J0D01*
G01*
X130121006Y-105749000D02*
G75*
G02*
X130171006Y-105749000I25000J0D01*
G01*
X126748006Y-129710000D02*
G75*
G02*
X126698006Y-129710000I-25000J0D01*
G01*
X126698006Y-129710000D02*
G75*
G02*
X126748006Y-129710000I25000J0D01*
G01*
X113056006Y-68096000D02*
G75*
G02*
X113006006Y-68096000I-25000J0D01*
G01*
X113006006Y-68096000D02*
G75*
G02*
X113056006Y-68096000I25000J0D01*
G01*
X119902006Y-81788000D02*
G75*
G02*
X119852006Y-81788000I-25000J0D01*
G01*
X119852006Y-81788000D02*
G75*
G02*
X119902006Y-81788000I25000J0D01*
G01*
X130171006Y-88634000D02*
G75*
G02*
X130121006Y-88634000I-25000J0D01*
G01*
X130121006Y-88634000D02*
G75*
G02*
X130171006Y-88634000I25000J0D01*
G01*
X133594006Y-95480000D02*
G75*
G02*
X133544006Y-95480000I-25000J0D01*
G01*
X133544006Y-95480000D02*
G75*
G02*
X133594006Y-95480000I25000J0D01*
G01*
X119902006Y-71519000D02*
G75*
G02*
X119852006Y-71519000I-25000J0D01*
G01*
X119852006Y-71519000D02*
G75*
G02*
X119902006Y-71519000I25000J0D01*
G01*
X116479006Y-47558000D02*
G75*
G02*
X116429006Y-47558000I-25000J0D01*
G01*
X116429006Y-47558000D02*
G75*
G02*
X116479006Y-47558000I25000J0D01*
G01*
X109633006Y-88634000D02*
G75*
G02*
X109583006Y-88634000I-25000J0D01*
G01*
X109583006Y-88634000D02*
G75*
G02*
X109633006Y-88634000I25000J0D01*
G01*
X91748006Y-116018000D02*
G75*
G02*
X91698006Y-116018000I-25000J0D01*
G01*
X91698006Y-116018000D02*
G75*
G02*
X91748006Y-116018000I25000J0D01*
G01*
X78056006Y-54404000D02*
G75*
G02*
X78006006Y-54404000I-25000J0D01*
G01*
X78006006Y-54404000D02*
G75*
G02*
X78056006Y-54404000I25000J0D01*
G01*
X137017006Y-98903000D02*
G75*
G02*
X136967006Y-98903000I-25000J0D01*
G01*
X136967006Y-98903000D02*
G75*
G02*
X137017006Y-98903000I25000J0D01*
G01*
X88325006Y-64673000D02*
G75*
G02*
X88275006Y-64673000I-25000J0D01*
G01*
X88275006Y-64673000D02*
G75*
G02*
X88325006Y-64673000I25000J0D01*
G01*
X137017006Y-95480000D02*
G75*
G02*
X136967006Y-95480000I-25000J0D01*
G01*
X136967006Y-95480000D02*
G75*
G02*
X137017006Y-95480000I25000J0D01*
G01*
X113056006Y-40712000D02*
G75*
G02*
X113006006Y-40712000I-25000J0D01*
G01*
X113006006Y-40712000D02*
G75*
G02*
X113056006Y-40712000I25000J0D01*
G01*
X137017006Y-57827000D02*
G75*
G02*
X136967006Y-57827000I-25000J0D01*
G01*
X136967006Y-57827000D02*
G75*
G02*
X137017006Y-57827000I25000J0D01*
G01*
X113056006Y-98903000D02*
G75*
G02*
X113006006Y-98903000I-25000J0D01*
G01*
X113006006Y-98903000D02*
G75*
G02*
X113056006Y-98903000I25000J0D01*
G01*
X113056006Y-47558000D02*
G75*
G02*
X113006006Y-47558000I-25000J0D01*
G01*
X113006006Y-47558000D02*
G75*
G02*
X113056006Y-47558000I25000J0D01*
G01*
X126748006Y-68096000D02*
G75*
G02*
X126698006Y-68096000I-25000J0D01*
G01*
X126698006Y-68096000D02*
G75*
G02*
X126748006Y-68096000I25000J0D01*
G01*
X119902006Y-44135000D02*
G75*
G02*
X119852006Y-44135000I-25000J0D01*
G01*
X119852006Y-44135000D02*
G75*
G02*
X119902006Y-44135000I25000J0D01*
G01*
X102017006Y-119441000D02*
G75*
G02*
X101967006Y-119441000I-25000J0D01*
G01*
X101967006Y-119441000D02*
G75*
G02*
X102017006Y-119441000I25000J0D01*
G01*
X91748006Y-109172000D02*
G75*
G02*
X91698006Y-109172000I-25000J0D01*
G01*
X91698006Y-109172000D02*
G75*
G02*
X91748006Y-109172000I25000J0D01*
G01*
X126748006Y-85211000D02*
G75*
G02*
X126698006Y-85211000I-25000J0D01*
G01*
X126698006Y-85211000D02*
G75*
G02*
X126748006Y-85211000I25000J0D01*
G01*
X137017006Y-88634000D02*
G75*
G02*
X136967006Y-88634000I-25000J0D01*
G01*
X136967006Y-88634000D02*
G75*
G02*
X137017006Y-88634000I25000J0D01*
G01*
X109633006Y-126287000D02*
G75*
G02*
X109583006Y-126287000I-25000J0D01*
G01*
X109583006Y-126287000D02*
G75*
G02*
X109633006Y-126287000I25000J0D01*
G01*
X88325006Y-112595000D02*
G75*
G02*
X88275006Y-112595000I-25000J0D01*
G01*
X88275006Y-112595000D02*
G75*
G02*
X88325006Y-112595000I25000J0D01*
G01*
X133594006Y-105749000D02*
G75*
G02*
X133544006Y-105749000I-25000J0D01*
G01*
X133544006Y-105749000D02*
G75*
G02*
X133594006Y-105749000I25000J0D01*
G01*
X98594006Y-37289000D02*
G75*
G02*
X98544006Y-37289000I-25000J0D01*
G01*
X98544006Y-37289000D02*
G75*
G02*
X98594006Y-37289000I25000J0D01*
G01*
X102017006Y-109172000D02*
G75*
G02*
X101967006Y-109172000I-25000J0D01*
G01*
X101967006Y-109172000D02*
G75*
G02*
X102017006Y-109172000I25000J0D01*
G01*
X137017006Y-37289000D02*
G75*
G02*
X136967006Y-37289000I-25000J0D01*
G01*
X136967006Y-37289000D02*
G75*
G02*
X137017006Y-37289000I25000J0D01*
G01*
X123325006Y-78365000D02*
G75*
G02*
X123275006Y-78365000I-25000J0D01*
G01*
X123275006Y-78365000D02*
G75*
G02*
X123325006Y-78365000I25000J0D01*
G01*
X126748006Y-112595000D02*
G75*
G02*
X126698006Y-112595000I-25000J0D01*
G01*
X126698006Y-112595000D02*
G75*
G02*
X126748006Y-112595000I25000J0D01*
G01*
X84902006Y-98903000D02*
G75*
G02*
X84852006Y-98903000I-25000J0D01*
G01*
X84852006Y-98903000D02*
G75*
G02*
X84902006Y-98903000I25000J0D01*
G01*
X126748006Y-30443000D02*
G75*
G02*
X126698006Y-30443000I-25000J0D01*
G01*
X126698006Y-30443000D02*
G75*
G02*
X126748006Y-30443000I25000J0D01*
G01*
X102017006Y-98903000D02*
G75*
G02*
X101967006Y-98903000I-25000J0D01*
G01*
X101967006Y-98903000D02*
G75*
G02*
X102017006Y-98903000I25000J0D01*
G01*
X130171006Y-81788000D02*
G75*
G02*
X130121006Y-81788000I-25000J0D01*
G01*
X130121006Y-81788000D02*
G75*
G02*
X130171006Y-81788000I25000J0D01*
G01*
X123325006Y-122864000D02*
G75*
G02*
X123275006Y-122864000I-25000J0D01*
G01*
X123275006Y-122864000D02*
G75*
G02*
X123325006Y-122864000I25000J0D01*
G01*
X119902006Y-40712000D02*
G75*
G02*
X119852006Y-40712000I-25000J0D01*
G01*
X119852006Y-40712000D02*
G75*
G02*
X119902006Y-40712000I25000J0D01*
G01*
X81479006Y-30443000D02*
G75*
G02*
X81429006Y-30443000I-25000J0D01*
G01*
X81429006Y-30443000D02*
G75*
G02*
X81479006Y-30443000I25000J0D01*
G01*
X119902006Y-74942000D02*
G75*
G02*
X119852006Y-74942000I-25000J0D01*
G01*
X119852006Y-74942000D02*
G75*
G02*
X119902006Y-74942000I25000J0D01*
G01*
X126748006Y-78365000D02*
G75*
G02*
X126698006Y-78365000I-25000J0D01*
G01*
X126698006Y-78365000D02*
G75*
G02*
X126748006Y-78365000I25000J0D01*
G01*
X116479006Y-109172000D02*
G75*
G02*
X116429006Y-109172000I-25000J0D01*
G01*
X116429006Y-109172000D02*
G75*
G02*
X116479006Y-109172000I25000J0D01*
G01*
X78056006Y-133133000D02*
G75*
G02*
X78006006Y-133133000I-25000J0D01*
G01*
X78006006Y-133133000D02*
G75*
G02*
X78056006Y-133133000I25000J0D01*
G01*
X102017006Y-33866000D02*
G75*
G02*
X101967006Y-33866000I-25000J0D01*
G01*
X101967006Y-33866000D02*
G75*
G02*
X102017006Y-33866000I25000J0D01*
G01*
X109633006Y-78365000D02*
G75*
G02*
X109583006Y-78365000I-25000J0D01*
G01*
X109583006Y-78365000D02*
G75*
G02*
X109633006Y-78365000I25000J0D01*
G01*
X74633006Y-50981000D02*
G75*
G02*
X74583006Y-50981000I-25000J0D01*
G01*
X74583006Y-50981000D02*
G75*
G02*
X74633006Y-50981000I25000J0D01*
G01*
X95171006Y-129710000D02*
G75*
G02*
X95121006Y-129710000I-25000J0D01*
G01*
X95121006Y-129710000D02*
G75*
G02*
X95171006Y-129710000I25000J0D01*
G01*
X137017006Y-68096000D02*
G75*
G02*
X136967006Y-68096000I-25000J0D01*
G01*
X136967006Y-68096000D02*
G75*
G02*
X137017006Y-68096000I25000J0D01*
G01*
X113056006Y-92057000D02*
G75*
G02*
X113006006Y-92057000I-25000J0D01*
G01*
X113006006Y-92057000D02*
G75*
G02*
X113056006Y-92057000I25000J0D01*
G01*
X109633006Y-85211000D02*
G75*
G02*
X109583006Y-85211000I-25000J0D01*
G01*
X109583006Y-85211000D02*
G75*
G02*
X109633006Y-85211000I25000J0D01*
G01*
X74633006Y-47558000D02*
G75*
G02*
X74583006Y-47558000I-25000J0D01*
G01*
X74583006Y-47558000D02*
G75*
G02*
X74633006Y-47558000I25000J0D01*
G01*
X74633006Y-33866000D02*
G75*
G02*
X74583006Y-33866000I-25000J0D01*
G01*
X74583006Y-33866000D02*
G75*
G02*
X74633006Y-33866000I25000J0D01*
G01*
X91748006Y-126287000D02*
G75*
G02*
X91698006Y-126287000I-25000J0D01*
G01*
X91698006Y-126287000D02*
G75*
G02*
X91748006Y-126287000I25000J0D01*
G01*
X91748006Y-50981000D02*
G75*
G02*
X91698006Y-50981000I-25000J0D01*
G01*
X91698006Y-50981000D02*
G75*
G02*
X91748006Y-50981000I25000J0D01*
G01*
X130171006Y-50981000D02*
G75*
G02*
X130121006Y-50981000I-25000J0D01*
G01*
X130121006Y-50981000D02*
G75*
G02*
X130171006Y-50981000I25000J0D01*
G01*
X95171006Y-47558000D02*
G75*
G02*
X95121006Y-47558000I-25000J0D01*
G01*
X95121006Y-47558000D02*
G75*
G02*
X95171006Y-47558000I25000J0D01*
G01*
X130171006Y-71519000D02*
G75*
G02*
X130121006Y-71519000I-25000J0D01*
G01*
X130121006Y-71519000D02*
G75*
G02*
X130171006Y-71519000I25000J0D01*
G01*
X95171006Y-40712000D02*
G75*
G02*
X95121006Y-40712000I-25000J0D01*
G01*
X95121006Y-40712000D02*
G75*
G02*
X95171006Y-40712000I25000J0D01*
G01*
X95171006Y-50981000D02*
G75*
G02*
X95121006Y-50981000I-25000J0D01*
G01*
X95121006Y-50981000D02*
G75*
G02*
X95171006Y-50981000I25000J0D01*
G01*
X88325006Y-116018000D02*
G75*
G02*
X88275006Y-116018000I-25000J0D01*
G01*
X88275006Y-116018000D02*
G75*
G02*
X88325006Y-116018000I25000J0D01*
G01*
X91748006Y-133133000D02*
G75*
G02*
X91698006Y-133133000I-25000J0D01*
G01*
X91698006Y-133133000D02*
G75*
G02*
X91748006Y-133133000I25000J0D01*
G01*
X91748006Y-74942000D02*
G75*
G02*
X91698006Y-74942000I-25000J0D01*
G01*
X91698006Y-74942000D02*
G75*
G02*
X91748006Y-74942000I25000J0D01*
G01*
X88325006Y-98903000D02*
G75*
G02*
X88275006Y-98903000I-25000J0D01*
G01*
X88275006Y-98903000D02*
G75*
G02*
X88325006Y-98903000I25000J0D01*
G01*
X98594006Y-71519000D02*
G75*
G02*
X98544006Y-71519000I-25000J0D01*
G01*
X98544006Y-71519000D02*
G75*
G02*
X98594006Y-71519000I25000J0D01*
G01*
X88325006Y-109172000D02*
G75*
G02*
X88275006Y-109172000I-25000J0D01*
G01*
X88275006Y-109172000D02*
G75*
G02*
X88325006Y-109172000I25000J0D01*
G01*
X137017006Y-61250000D02*
G75*
G02*
X136967006Y-61250000I-25000J0D01*
G01*
X136967006Y-61250000D02*
G75*
G02*
X137017006Y-61250000I25000J0D01*
G01*
X137017006Y-122864000D02*
G75*
G02*
X136967006Y-122864000I-25000J0D01*
G01*
X136967006Y-122864000D02*
G75*
G02*
X137017006Y-122864000I25000J0D01*
G01*
X74633006Y-54404000D02*
G75*
G02*
X74583006Y-54404000I-25000J0D01*
G01*
X74583006Y-54404000D02*
G75*
G02*
X74633006Y-54404000I25000J0D01*
G01*
X126748006Y-105749000D02*
G75*
G02*
X126698006Y-105749000I-25000J0D01*
G01*
X126698006Y-105749000D02*
G75*
G02*
X126748006Y-105749000I25000J0D01*
G01*
X133594006Y-122864000D02*
G75*
G02*
X133544006Y-122864000I-25000J0D01*
G01*
X133544006Y-122864000D02*
G75*
G02*
X133594006Y-122864000I25000J0D01*
G01*
X119902006Y-88634000D02*
G75*
G02*
X119852006Y-88634000I-25000J0D01*
G01*
X119852006Y-88634000D02*
G75*
G02*
X119902006Y-88634000I25000J0D01*
G01*
X88325006Y-71519000D02*
G75*
G02*
X88275006Y-71519000I-25000J0D01*
G01*
X88275006Y-71519000D02*
G75*
G02*
X88325006Y-71519000I25000J0D01*
G01*
X130171006Y-40712000D02*
G75*
G02*
X130121006Y-40712000I-25000J0D01*
G01*
X130121006Y-40712000D02*
G75*
G02*
X130171006Y-40712000I25000J0D01*
G01*
X126748006Y-74942000D02*
G75*
G02*
X126698006Y-74942000I-25000J0D01*
G01*
X126698006Y-74942000D02*
G75*
G02*
X126748006Y-74942000I25000J0D01*
G01*
X102017006Y-47558000D02*
G75*
G02*
X101967006Y-47558000I-25000J0D01*
G01*
X101967006Y-47558000D02*
G75*
G02*
X102017006Y-47558000I25000J0D01*
G01*
X130171006Y-129710000D02*
G75*
G02*
X130121006Y-129710000I-25000J0D01*
G01*
X130121006Y-129710000D02*
G75*
G02*
X130171006Y-129710000I25000J0D01*
G01*
X113056006Y-102326000D02*
G75*
G02*
X113006006Y-102326000I-25000J0D01*
G01*
X113006006Y-102326000D02*
G75*
G02*
X113056006Y-102326000I25000J0D01*
G01*
X130171006Y-78365000D02*
G75*
G02*
X130121006Y-78365000I-25000J0D01*
G01*
X130121006Y-78365000D02*
G75*
G02*
X130171006Y-78365000I25000J0D01*
G01*
X98594006Y-133133000D02*
G75*
G02*
X98544006Y-133133000I-25000J0D01*
G01*
X98544006Y-133133000D02*
G75*
G02*
X98594006Y-133133000I25000J0D01*
G01*
X119902006Y-133133000D02*
G75*
G02*
X119852006Y-133133000I-25000J0D01*
G01*
X119852006Y-133133000D02*
G75*
G02*
X119902006Y-133133000I25000J0D01*
G01*
X78056006Y-98903000D02*
G75*
G02*
X78006006Y-98903000I-25000J0D01*
G01*
X78006006Y-98903000D02*
G75*
G02*
X78056006Y-98903000I25000J0D01*
G01*
X123325006Y-47558000D02*
G75*
G02*
X123275006Y-47558000I-25000J0D01*
G01*
X123275006Y-47558000D02*
G75*
G02*
X123325006Y-47558000I25000J0D01*
G01*
X95171006Y-54404000D02*
G75*
G02*
X95121006Y-54404000I-25000J0D01*
G01*
X95121006Y-54404000D02*
G75*
G02*
X95171006Y-54404000I25000J0D01*
G01*
X109633006Y-116018000D02*
G75*
G02*
X109583006Y-116018000I-25000J0D01*
G01*
X109583006Y-116018000D02*
G75*
G02*
X109633006Y-116018000I25000J0D01*
G01*
X133594006Y-44135000D02*
G75*
G02*
X133544006Y-44135000I-25000J0D01*
G01*
X133544006Y-44135000D02*
G75*
G02*
X133594006Y-44135000I25000J0D01*
G01*
X91748006Y-54404000D02*
G75*
G02*
X91698006Y-54404000I-25000J0D01*
G01*
X91698006Y-54404000D02*
G75*
G02*
X91748006Y-54404000I25000J0D01*
G01*
X88325006Y-44135000D02*
G75*
G02*
X88275006Y-44135000I-25000J0D01*
G01*
X88275006Y-44135000D02*
G75*
G02*
X88325006Y-44135000I25000J0D01*
G01*
X116479006Y-40712000D02*
G75*
G02*
X116429006Y-40712000I-25000J0D01*
G01*
X116429006Y-40712000D02*
G75*
G02*
X116479006Y-40712000I25000J0D01*
G01*
X137017006Y-47558000D02*
G75*
G02*
X136967006Y-47558000I-25000J0D01*
G01*
X136967006Y-47558000D02*
G75*
G02*
X137017006Y-47558000I25000J0D01*
G01*
X126748006Y-37289000D02*
G75*
G02*
X126698006Y-37289000I-25000J0D01*
G01*
X126698006Y-37289000D02*
G75*
G02*
X126748006Y-37289000I25000J0D01*
G01*
X133594006Y-30443000D02*
G75*
G02*
X133544006Y-30443000I-25000J0D01*
G01*
X133544006Y-30443000D02*
G75*
G02*
X133594006Y-30443000I25000J0D01*
G01*
X126748006Y-71519000D02*
G75*
G02*
X126698006Y-71519000I-25000J0D01*
G01*
X126698006Y-71519000D02*
G75*
G02*
X126748006Y-71519000I25000J0D01*
G01*
X126748006Y-92057000D02*
G75*
G02*
X126698006Y-92057000I-25000J0D01*
G01*
X126698006Y-92057000D02*
G75*
G02*
X126748006Y-92057000I25000J0D01*
G01*
X102017006Y-133133000D02*
G75*
G02*
X101967006Y-133133000I-25000J0D01*
G01*
X101967006Y-133133000D02*
G75*
G02*
X102017006Y-133133000I25000J0D01*
G01*
X123325006Y-129710000D02*
G75*
G02*
X123275006Y-129710000I-25000J0D01*
G01*
X123275006Y-129710000D02*
G75*
G02*
X123325006Y-129710000I25000J0D01*
G01*
X116479006Y-92057000D02*
G75*
G02*
X116429006Y-92057000I-25000J0D01*
G01*
X116429006Y-92057000D02*
G75*
G02*
X116479006Y-92057000I25000J0D01*
G01*
X98594006Y-92057000D02*
G75*
G02*
X98544006Y-92057000I-25000J0D01*
G01*
X98544006Y-92057000D02*
G75*
G02*
X98594006Y-92057000I25000J0D01*
G01*
X119902006Y-122864000D02*
G75*
G02*
X119852006Y-122864000I-25000J0D01*
G01*
X119852006Y-122864000D02*
G75*
G02*
X119902006Y-122864000I25000J0D01*
G01*
X88325006Y-40712000D02*
G75*
G02*
X88275006Y-40712000I-25000J0D01*
G01*
X88275006Y-40712000D02*
G75*
G02*
X88325006Y-40712000I25000J0D01*
G01*
X137017006Y-133133000D02*
G75*
G02*
X136967006Y-133133000I-25000J0D01*
G01*
X136967006Y-133133000D02*
G75*
G02*
X137017006Y-133133000I25000J0D01*
G01*
X109633006Y-129710000D02*
G75*
G02*
X109583006Y-129710000I-25000J0D01*
G01*
X109583006Y-129710000D02*
G75*
G02*
X109633006Y-129710000I25000J0D01*
G01*
X123325006Y-119441000D02*
G75*
G02*
X123275006Y-119441000I-25000J0D01*
G01*
X123275006Y-119441000D02*
G75*
G02*
X123325006Y-119441000I25000J0D01*
G01*
X95171006Y-44135000D02*
G75*
G02*
X95121006Y-44135000I-25000J0D01*
G01*
X95121006Y-44135000D02*
G75*
G02*
X95171006Y-44135000I25000J0D01*
G01*
X133594006Y-74942000D02*
G75*
G02*
X133544006Y-74942000I-25000J0D01*
G01*
X133544006Y-74942000D02*
G75*
G02*
X133594006Y-74942000I25000J0D01*
G01*
X109633006Y-98903000D02*
G75*
G02*
X109583006Y-98903000I-25000J0D01*
G01*
X109583006Y-98903000D02*
G75*
G02*
X109633006Y-98903000I25000J0D01*
G01*
X95171006Y-109172000D02*
G75*
G02*
X95121006Y-109172000I-25000J0D01*
G01*
X95121006Y-109172000D02*
G75*
G02*
X95171006Y-109172000I25000J0D01*
G01*
X98594006Y-85211000D02*
G75*
G02*
X98544006Y-85211000I-25000J0D01*
G01*
X98544006Y-85211000D02*
G75*
G02*
X98594006Y-85211000I25000J0D01*
G01*
X74633006Y-129710000D02*
G75*
G02*
X74583006Y-129710000I-25000J0D01*
G01*
X74583006Y-129710000D02*
G75*
G02*
X74633006Y-129710000I25000J0D01*
G01*
X95171006Y-95480000D02*
G75*
G02*
X95121006Y-95480000I-25000J0D01*
G01*
X95121006Y-95480000D02*
G75*
G02*
X95171006Y-95480000I25000J0D01*
G01*
X126748006Y-88634000D02*
G75*
G02*
X126698006Y-88634000I-25000J0D01*
G01*
X126698006Y-88634000D02*
G75*
G02*
X126748006Y-88634000I25000J0D01*
G01*
X123325006Y-105749000D02*
G75*
G02*
X123275006Y-105749000I-25000J0D01*
G01*
X123275006Y-105749000D02*
G75*
G02*
X123325006Y-105749000I25000J0D01*
G01*
X109633006Y-40712000D02*
G75*
G02*
X109583006Y-40712000I-25000J0D01*
G01*
X109583006Y-40712000D02*
G75*
G02*
X109633006Y-40712000I25000J0D01*
G01*
X113056006Y-33866000D02*
G75*
G02*
X113006006Y-33866000I-25000J0D01*
G01*
X113006006Y-33866000D02*
G75*
G02*
X113056006Y-33866000I25000J0D01*
G01*
X109633006Y-119441000D02*
G75*
G02*
X109583006Y-119441000I-25000J0D01*
G01*
X109583006Y-119441000D02*
G75*
G02*
X109633006Y-119441000I25000J0D01*
G01*
X81479006Y-105749000D02*
G75*
G02*
X81429006Y-105749000I-25000J0D01*
G01*
X81429006Y-105749000D02*
G75*
G02*
X81479006Y-105749000I25000J0D01*
G01*
X109633006Y-92057000D02*
G75*
G02*
X109583006Y-92057000I-25000J0D01*
G01*
X109583006Y-92057000D02*
G75*
G02*
X109633006Y-92057000I25000J0D01*
G01*
X119902006Y-47558000D02*
G75*
G02*
X119852006Y-47558000I-25000J0D01*
G01*
X119852006Y-47558000D02*
G75*
G02*
X119902006Y-47558000I25000J0D01*
G01*
X109633006Y-102326000D02*
G75*
G02*
X109583006Y-102326000I-25000J0D01*
G01*
X109583006Y-102326000D02*
G75*
G02*
X109633006Y-102326000I25000J0D01*
G01*
X113056006Y-71519000D02*
G75*
G02*
X113006006Y-71519000I-25000J0D01*
G01*
X113006006Y-71519000D02*
G75*
G02*
X113056006Y-71519000I25000J0D01*
G01*
X98594006Y-54404000D02*
G75*
G02*
X98544006Y-54404000I-25000J0D01*
G01*
X98544006Y-54404000D02*
G75*
G02*
X98594006Y-54404000I25000J0D01*
G01*
X88325006Y-95480000D02*
G75*
G02*
X88275006Y-95480000I-25000J0D01*
G01*
X88275006Y-95480000D02*
G75*
G02*
X88325006Y-95480000I25000J0D01*
G01*
X74633006Y-112595000D02*
G75*
G02*
X74583006Y-112595000I-25000J0D01*
G01*
X74583006Y-112595000D02*
G75*
G02*
X74633006Y-112595000I25000J0D01*
G01*
X133594006Y-37289000D02*
G75*
G02*
X133544006Y-37289000I-25000J0D01*
G01*
X133544006Y-37289000D02*
G75*
G02*
X133594006Y-37289000I25000J0D01*
G01*
X102017006Y-44135000D02*
G75*
G02*
X101967006Y-44135000I-25000J0D01*
G01*
X101967006Y-44135000D02*
G75*
G02*
X102017006Y-44135000I25000J0D01*
G01*
X133594006Y-119441000D02*
G75*
G02*
X133544006Y-119441000I-25000J0D01*
G01*
X133544006Y-119441000D02*
G75*
G02*
X133594006Y-119441000I25000J0D01*
G01*
X98594006Y-81788000D02*
G75*
G02*
X98544006Y-81788000I-25000J0D01*
G01*
X98544006Y-81788000D02*
G75*
G02*
X98594006Y-81788000I25000J0D01*
G01*
X133594006Y-57827000D02*
G75*
G02*
X133544006Y-57827000I-25000J0D01*
G01*
X133544006Y-57827000D02*
G75*
G02*
X133594006Y-57827000I25000J0D01*
G01*
X102017006Y-112595000D02*
G75*
G02*
X101967006Y-112595000I-25000J0D01*
G01*
X101967006Y-112595000D02*
G75*
G02*
X102017006Y-112595000I25000J0D01*
G01*
X137017006Y-81788000D02*
G75*
G02*
X136967006Y-81788000I-25000J0D01*
G01*
X136967006Y-81788000D02*
G75*
G02*
X137017006Y-81788000I25000J0D01*
G01*
X130171006Y-44135000D02*
G75*
G02*
X130121006Y-44135000I-25000J0D01*
G01*
X130121006Y-44135000D02*
G75*
G02*
X130171006Y-44135000I25000J0D01*
G01*
X84902006Y-133133000D02*
G75*
G02*
X84852006Y-133133000I-25000J0D01*
G01*
X84852006Y-133133000D02*
G75*
G02*
X84902006Y-133133000I25000J0D01*
G01*
X137017006Y-30443000D02*
G75*
G02*
X136967006Y-30443000I-25000J0D01*
G01*
X136967006Y-30443000D02*
G75*
G02*
X137017006Y-30443000I25000J0D01*
G01*
X109633006Y-54404000D02*
G75*
G02*
X109583006Y-54404000I-25000J0D01*
G01*
X109583006Y-54404000D02*
G75*
G02*
X109633006Y-54404000I25000J0D01*
G01*
X126748006Y-102326000D02*
G75*
G02*
X126698006Y-102326000I-25000J0D01*
G01*
X126698006Y-102326000D02*
G75*
G02*
X126748006Y-102326000I25000J0D01*
G01*
X88325006Y-88634000D02*
G75*
G02*
X88275006Y-88634000I-25000J0D01*
G01*
X88275006Y-88634000D02*
G75*
G02*
X88325006Y-88634000I25000J0D01*
G01*
X126748006Y-54404000D02*
G75*
G02*
X126698006Y-54404000I-25000J0D01*
G01*
X126698006Y-54404000D02*
G75*
G02*
X126748006Y-54404000I25000J0D01*
G01*
X133594006Y-88634000D02*
G75*
G02*
X133544006Y-88634000I-25000J0D01*
G01*
X133544006Y-88634000D02*
G75*
G02*
X133594006Y-88634000I25000J0D01*
G01*
X119902006Y-109172000D02*
G75*
G02*
X119852006Y-109172000I-25000J0D01*
G01*
X119852006Y-109172000D02*
G75*
G02*
X119902006Y-109172000I25000J0D01*
G01*
X130171006Y-54404000D02*
G75*
G02*
X130121006Y-54404000I-25000J0D01*
G01*
X130121006Y-54404000D02*
G75*
G02*
X130171006Y-54404000I25000J0D01*
G01*
X95171006Y-116018000D02*
G75*
G02*
X95121006Y-116018000I-25000J0D01*
G01*
X95121006Y-116018000D02*
G75*
G02*
X95171006Y-116018000I25000J0D01*
G01*
X126748006Y-47558000D02*
G75*
G02*
X126698006Y-47558000I-25000J0D01*
G01*
X126698006Y-47558000D02*
G75*
G02*
X126748006Y-47558000I25000J0D01*
G01*
X126748006Y-33866000D02*
G75*
G02*
X126698006Y-33866000I-25000J0D01*
G01*
X126698006Y-33866000D02*
G75*
G02*
X126748006Y-33866000I25000J0D01*
G01*
X133594006Y-54404000D02*
G75*
G02*
X133544006Y-54404000I-25000J0D01*
G01*
X133544006Y-54404000D02*
G75*
G02*
X133594006Y-54404000I25000J0D01*
G01*
X116479006Y-64673000D02*
G75*
G02*
X116429006Y-64673000I-25000J0D01*
G01*
X116429006Y-64673000D02*
G75*
G02*
X116479006Y-64673000I25000J0D01*
G01*
X109633006Y-61250000D02*
G75*
G02*
X109583006Y-61250000I-25000J0D01*
G01*
X109583006Y-61250000D02*
G75*
G02*
X109633006Y-61250000I25000J0D01*
G01*
X81479006Y-74942000D02*
G75*
G02*
X81429006Y-74942000I-25000J0D01*
G01*
X81429006Y-74942000D02*
G75*
G02*
X81479006Y-74942000I25000J0D01*
G01*
X130171006Y-109172000D02*
G75*
G02*
X130121006Y-109172000I-25000J0D01*
G01*
X130121006Y-109172000D02*
G75*
G02*
X130171006Y-109172000I25000J0D01*
G01*
X116479006Y-54404000D02*
G75*
G02*
X116429006Y-54404000I-25000J0D01*
G01*
X116429006Y-54404000D02*
G75*
G02*
X116479006Y-54404000I25000J0D01*
G01*
X119902006Y-68096000D02*
G75*
G02*
X119852006Y-68096000I-25000J0D01*
G01*
X119852006Y-68096000D02*
G75*
G02*
X119902006Y-68096000I25000J0D01*
G01*
X88325006Y-81788000D02*
G75*
G02*
X88275006Y-81788000I-25000J0D01*
G01*
X88275006Y-81788000D02*
G75*
G02*
X88325006Y-81788000I25000J0D01*
G01*
X81479006Y-47558000D02*
G75*
G02*
X81429006Y-47558000I-25000J0D01*
G01*
X81429006Y-47558000D02*
G75*
G02*
X81479006Y-47558000I25000J0D01*
G01*
X98594006Y-44135000D02*
G75*
G02*
X98544006Y-44135000I-25000J0D01*
G01*
X98544006Y-44135000D02*
G75*
G02*
X98594006Y-44135000I25000J0D01*
G01*
X116479006Y-78365000D02*
G75*
G02*
X116429006Y-78365000I-25000J0D01*
G01*
X116429006Y-78365000D02*
G75*
G02*
X116479006Y-78365000I25000J0D01*
G01*
X84902006Y-61250000D02*
G75*
G02*
X84852006Y-61250000I-25000J0D01*
G01*
X84852006Y-61250000D02*
G75*
G02*
X84902006Y-61250000I25000J0D01*
G01*
X81479006Y-68096000D02*
G75*
G02*
X81429006Y-68096000I-25000J0D01*
G01*
X81429006Y-68096000D02*
G75*
G02*
X81479006Y-68096000I25000J0D01*
G01*
X88325006Y-47558000D02*
G75*
G02*
X88275006Y-47558000I-25000J0D01*
G01*
X88275006Y-47558000D02*
G75*
G02*
X88325006Y-47558000I25000J0D01*
G01*
X133594006Y-50981000D02*
G75*
G02*
X133544006Y-50981000I-25000J0D01*
G01*
X133544006Y-50981000D02*
G75*
G02*
X133594006Y-50981000I25000J0D01*
G01*
X95171006Y-119441000D02*
G75*
G02*
X95121006Y-119441000I-25000J0D01*
G01*
X95121006Y-119441000D02*
G75*
G02*
X95171006Y-119441000I25000J0D01*
G01*
X116479006Y-74942000D02*
G75*
G02*
X116429006Y-74942000I-25000J0D01*
G01*
X116429006Y-74942000D02*
G75*
G02*
X116479006Y-74942000I25000J0D01*
G01*
X102017006Y-50981000D02*
G75*
G02*
X101967006Y-50981000I-25000J0D01*
G01*
X101967006Y-50981000D02*
G75*
G02*
X102017006Y-50981000I25000J0D01*
G01*
X109633006Y-122864000D02*
G75*
G02*
X109583006Y-122864000I-25000J0D01*
G01*
X109583006Y-122864000D02*
G75*
G02*
X109633006Y-122864000I25000J0D01*
G01*
X78056006Y-81788000D02*
G75*
G02*
X78006006Y-81788000I-25000J0D01*
G01*
X78006006Y-81788000D02*
G75*
G02*
X78056006Y-81788000I25000J0D01*
G01*
X126748006Y-61250000D02*
G75*
G02*
X126698006Y-61250000I-25000J0D01*
G01*
X126698006Y-61250000D02*
G75*
G02*
X126748006Y-61250000I25000J0D01*
G01*
X74633006Y-133133000D02*
G75*
G02*
X74583006Y-133133000I-25000J0D01*
G01*
X74583006Y-133133000D02*
G75*
G02*
X74633006Y-133133000I25000J0D01*
G01*
X81479006Y-116018000D02*
G75*
G02*
X81429006Y-116018000I-25000J0D01*
G01*
X81429006Y-116018000D02*
G75*
G02*
X81479006Y-116018000I25000J0D01*
G01*
X113056006Y-116018000D02*
G75*
G02*
X113006006Y-116018000I-25000J0D01*
G01*
X113006006Y-116018000D02*
G75*
G02*
X113056006Y-116018000I25000J0D01*
G01*
X126748006Y-40712000D02*
G75*
G02*
X126698006Y-40712000I-25000J0D01*
G01*
X126698006Y-40712000D02*
G75*
G02*
X126748006Y-40712000I25000J0D01*
G01*
X91748006Y-112595000D02*
G75*
G02*
X91698006Y-112595000I-25000J0D01*
G01*
X91698006Y-112595000D02*
G75*
G02*
X91748006Y-112595000I25000J0D01*
G01*
X119902006Y-61250000D02*
G75*
G02*
X119852006Y-61250000I-25000J0D01*
G01*
X119852006Y-61250000D02*
G75*
G02*
X119902006Y-61250000I25000J0D01*
G01*
X126748006Y-116018000D02*
G75*
G02*
X126698006Y-116018000I-25000J0D01*
G01*
X126698006Y-116018000D02*
G75*
G02*
X126748006Y-116018000I25000J0D01*
G01*
X74633006Y-57827000D02*
G75*
G02*
X74583006Y-57827000I-25000J0D01*
G01*
X74583006Y-57827000D02*
G75*
G02*
X74633006Y-57827000I25000J0D01*
G01*
X74633006Y-30443000D02*
G75*
G02*
X74583006Y-30443000I-25000J0D01*
G01*
X74583006Y-30443000D02*
G75*
G02*
X74633006Y-30443000I25000J0D01*
G01*
X81479006Y-44135000D02*
G75*
G02*
X81429006Y-44135000I-25000J0D01*
G01*
X81429006Y-44135000D02*
G75*
G02*
X81479006Y-44135000I25000J0D01*
G01*
X98594006Y-68096000D02*
G75*
G02*
X98544006Y-68096000I-25000J0D01*
G01*
X98544006Y-68096000D02*
G75*
G02*
X98594006Y-68096000I25000J0D01*
G01*
X81479006Y-50981000D02*
G75*
G02*
X81429006Y-50981000I-25000J0D01*
G01*
X81429006Y-50981000D02*
G75*
G02*
X81479006Y-50981000I25000J0D01*
G01*
X81479006Y-109172000D02*
G75*
G02*
X81429006Y-109172000I-25000J0D01*
G01*
X81429006Y-109172000D02*
G75*
G02*
X81479006Y-109172000I25000J0D01*
G01*
X98594006Y-109172000D02*
G75*
G02*
X98544006Y-109172000I-25000J0D01*
G01*
X98544006Y-109172000D02*
G75*
G02*
X98594006Y-109172000I25000J0D01*
G01*
X137017006Y-40712000D02*
G75*
G02*
X136967006Y-40712000I-25000J0D01*
G01*
X136967006Y-40712000D02*
G75*
G02*
X137017006Y-40712000I25000J0D01*
G01*
X95171006Y-57827000D02*
G75*
G02*
X95121006Y-57827000I-25000J0D01*
G01*
X95121006Y-57827000D02*
G75*
G02*
X95171006Y-57827000I25000J0D01*
G01*
X81479006Y-64673000D02*
G75*
G02*
X81429006Y-64673000I-25000J0D01*
G01*
X81429006Y-64673000D02*
G75*
G02*
X81479006Y-64673000I25000J0D01*
G01*
X98594006Y-102326000D02*
G75*
G02*
X98544006Y-102326000I-25000J0D01*
G01*
X98544006Y-102326000D02*
G75*
G02*
X98594006Y-102326000I25000J0D01*
G01*
X78056006Y-126287000D02*
G75*
G02*
X78006006Y-126287000I-25000J0D01*
G01*
X78006006Y-126287000D02*
G75*
G02*
X78056006Y-126287000I25000J0D01*
G01*
X84902006Y-64673000D02*
G75*
G02*
X84852006Y-64673000I-25000J0D01*
G01*
X84852006Y-64673000D02*
G75*
G02*
X84902006Y-64673000I25000J0D01*
G01*
X88325006Y-122864000D02*
G75*
G02*
X88275006Y-122864000I-25000J0D01*
G01*
X88275006Y-122864000D02*
G75*
G02*
X88325006Y-122864000I25000J0D01*
G01*
X133594006Y-85211000D02*
G75*
G02*
X133544006Y-85211000I-25000J0D01*
G01*
X133544006Y-85211000D02*
G75*
G02*
X133594006Y-85211000I25000J0D01*
G01*
X81479006Y-119441000D02*
G75*
G02*
X81429006Y-119441000I-25000J0D01*
G01*
X81429006Y-119441000D02*
G75*
G02*
X81479006Y-119441000I25000J0D01*
G01*
X119902006Y-64673000D02*
G75*
G02*
X119852006Y-64673000I-25000J0D01*
G01*
X119852006Y-64673000D02*
G75*
G02*
X119902006Y-64673000I25000J0D01*
G01*
X113056006Y-37289000D02*
G75*
G02*
X113006006Y-37289000I-25000J0D01*
G01*
X113006006Y-37289000D02*
G75*
G02*
X113056006Y-37289000I25000J0D01*
G01*
X137017006Y-71519000D02*
G75*
G02*
X136967006Y-71519000I-25000J0D01*
G01*
X136967006Y-71519000D02*
G75*
G02*
X137017006Y-71519000I25000J0D01*
G01*
X109633006Y-50981000D02*
G75*
G02*
X109583006Y-50981000I-25000J0D01*
G01*
X109583006Y-50981000D02*
G75*
G02*
X109633006Y-50981000I25000J0D01*
G01*
X102017006Y-68096000D02*
G75*
G02*
X101967006Y-68096000I-25000J0D01*
G01*
X101967006Y-68096000D02*
G75*
G02*
X102017006Y-68096000I25000J0D01*
G01*
X130171006Y-112595000D02*
G75*
G02*
X130121006Y-112595000I-25000J0D01*
G01*
X130121006Y-112595000D02*
G75*
G02*
X130171006Y-112595000I25000J0D01*
G01*
X98594006Y-30443000D02*
G75*
G02*
X98544006Y-30443000I-25000J0D01*
G01*
X98544006Y-30443000D02*
G75*
G02*
X98594006Y-30443000I25000J0D01*
G01*
X116479006Y-119441000D02*
G75*
G02*
X116429006Y-119441000I-25000J0D01*
G01*
X116429006Y-119441000D02*
G75*
G02*
X116479006Y-119441000I25000J0D01*
G01*
X109633006Y-37289000D02*
G75*
G02*
X109583006Y-37289000I-25000J0D01*
G01*
X109583006Y-37289000D02*
G75*
G02*
X109633006Y-37289000I25000J0D01*
G01*
X74633006Y-81788000D02*
G75*
G02*
X74583006Y-81788000I-25000J0D01*
G01*
X74583006Y-81788000D02*
G75*
G02*
X74633006Y-81788000I25000J0D01*
G01*
X81479006Y-40712000D02*
G75*
G02*
X81429006Y-40712000I-25000J0D01*
G01*
X81429006Y-40712000D02*
G75*
G02*
X81479006Y-40712000I25000J0D01*
G01*
X84902006Y-122864000D02*
G75*
G02*
X84852006Y-122864000I-25000J0D01*
G01*
X84852006Y-122864000D02*
G75*
G02*
X84902006Y-122864000I25000J0D01*
G01*
X116479006Y-102326000D02*
G75*
G02*
X116429006Y-102326000I-25000J0D01*
G01*
X116429006Y-102326000D02*
G75*
G02*
X116479006Y-102326000I25000J0D01*
G01*
X81479006Y-133133000D02*
G75*
G02*
X81429006Y-133133000I-25000J0D01*
G01*
X81429006Y-133133000D02*
G75*
G02*
X81479006Y-133133000I25000J0D01*
G01*
X98594006Y-105749000D02*
G75*
G02*
X98544006Y-105749000I-25000J0D01*
G01*
X98544006Y-105749000D02*
G75*
G02*
X98594006Y-105749000I25000J0D01*
G01*
X88325006Y-129710000D02*
G75*
G02*
X88275006Y-129710000I-25000J0D01*
G01*
X88275006Y-129710000D02*
G75*
G02*
X88325006Y-129710000I25000J0D01*
G01*
X109633006Y-112595000D02*
G75*
G02*
X109583006Y-112595000I-25000J0D01*
G01*
X109583006Y-112595000D02*
G75*
G02*
X109633006Y-112595000I25000J0D01*
G01*
X133594006Y-61250000D02*
G75*
G02*
X133544006Y-61250000I-25000J0D01*
G01*
X133544006Y-61250000D02*
G75*
G02*
X133594006Y-61250000I25000J0D01*
G01*
X113056006Y-112595000D02*
G75*
G02*
X113006006Y-112595000I-25000J0D01*
G01*
X113006006Y-112595000D02*
G75*
G02*
X113056006Y-112595000I25000J0D01*
G01*
X78056006Y-61250000D02*
G75*
G02*
X78006006Y-61250000I-25000J0D01*
G01*
X78006006Y-61250000D02*
G75*
G02*
X78056006Y-61250000I25000J0D01*
G01*
X84902006Y-78365000D02*
G75*
G02*
X84852006Y-78365000I-25000J0D01*
G01*
X84852006Y-78365000D02*
G75*
G02*
X84902006Y-78365000I25000J0D01*
G01*
X126748006Y-136556000D02*
G75*
G02*
X126698006Y-136556000I-25000J0D01*
G01*
X126698006Y-136556000D02*
G75*
G02*
X126748006Y-136556000I25000J0D01*
G01*
X95171006Y-136556000D02*
G75*
G02*
X95121006Y-136556000I-25000J0D01*
G01*
X95121006Y-136556000D02*
G75*
G02*
X95171006Y-136556000I25000J0D01*
G01*
X123325006Y-57827000D02*
G75*
G02*
X123275006Y-57827000I-25000J0D01*
G01*
X123275006Y-57827000D02*
G75*
G02*
X123325006Y-57827000I25000J0D01*
G01*
X78056006Y-78365000D02*
G75*
G02*
X78006006Y-78365000I-25000J0D01*
G01*
X78006006Y-78365000D02*
G75*
G02*
X78056006Y-78365000I25000J0D01*
G01*
X130171006Y-116018000D02*
G75*
G02*
X130121006Y-116018000I-25000J0D01*
G01*
X130121006Y-116018000D02*
G75*
G02*
X130171006Y-116018000I25000J0D01*
G01*
X113056006Y-85211000D02*
G75*
G02*
X113006006Y-85211000I-25000J0D01*
G01*
X113006006Y-85211000D02*
G75*
G02*
X113056006Y-85211000I25000J0D01*
G01*
X88325006Y-92057000D02*
G75*
G02*
X88275006Y-92057000I-25000J0D01*
G01*
X88275006Y-92057000D02*
G75*
G02*
X88325006Y-92057000I25000J0D01*
G01*
X98594006Y-119441000D02*
G75*
G02*
X98544006Y-119441000I-25000J0D01*
G01*
X98544006Y-119441000D02*
G75*
G02*
X98594006Y-119441000I25000J0D01*
G01*
X81479006Y-33866000D02*
G75*
G02*
X81429006Y-33866000I-25000J0D01*
G01*
X81429006Y-33866000D02*
G75*
G02*
X81479006Y-33866000I25000J0D01*
G01*
X95171006Y-102326000D02*
G75*
G02*
X95121006Y-102326000I-25000J0D01*
G01*
X95121006Y-102326000D02*
G75*
G02*
X95171006Y-102326000I25000J0D01*
G01*
X123325006Y-92057000D02*
G75*
G02*
X123275006Y-92057000I-25000J0D01*
G01*
X123275006Y-92057000D02*
G75*
G02*
X123325006Y-92057000I25000J0D01*
G01*
X123325006Y-133133000D02*
G75*
G02*
X123275006Y-133133000I-25000J0D01*
G01*
X123275006Y-133133000D02*
G75*
G02*
X123325006Y-133133000I25000J0D01*
G01*
X130171006Y-61250000D02*
G75*
G02*
X130121006Y-61250000I-25000J0D01*
G01*
X130121006Y-61250000D02*
G75*
G02*
X130171006Y-61250000I25000J0D01*
G01*
X74633006Y-119441000D02*
G75*
G02*
X74583006Y-119441000I-25000J0D01*
G01*
X74583006Y-119441000D02*
G75*
G02*
X74633006Y-119441000I25000J0D01*
G01*
X126748006Y-95480000D02*
G75*
G02*
X126698006Y-95480000I-25000J0D01*
G01*
X126698006Y-95480000D02*
G75*
G02*
X126748006Y-95480000I25000J0D01*
G01*
X123325006Y-30443000D02*
G75*
G02*
X123275006Y-30443000I-25000J0D01*
G01*
X123275006Y-30443000D02*
G75*
G02*
X123325006Y-30443000I25000J0D01*
G01*
X74633006Y-37289000D02*
G75*
G02*
X74583006Y-37289000I-25000J0D01*
G01*
X74583006Y-37289000D02*
G75*
G02*
X74633006Y-37289000I25000J0D01*
G01*
X123325006Y-88634000D02*
G75*
G02*
X123275006Y-88634000I-25000J0D01*
G01*
X123275006Y-88634000D02*
G75*
G02*
X123325006Y-88634000I25000J0D01*
G01*
X88325006Y-30443000D02*
G75*
G02*
X88275006Y-30443000I-25000J0D01*
G01*
X88275006Y-30443000D02*
G75*
G02*
X88325006Y-30443000I25000J0D01*
G01*
X102017006Y-102326000D02*
G75*
G02*
X101967006Y-102326000I-25000J0D01*
G01*
X101967006Y-102326000D02*
G75*
G02*
X102017006Y-102326000I25000J0D01*
G01*
X95171006Y-68096000D02*
G75*
G02*
X95121006Y-68096000I-25000J0D01*
G01*
X95121006Y-68096000D02*
G75*
G02*
X95171006Y-68096000I25000J0D01*
G01*
X78056006Y-33866000D02*
G75*
G02*
X78006006Y-33866000I-25000J0D01*
G01*
X78006006Y-33866000D02*
G75*
G02*
X78056006Y-33866000I25000J0D01*
G01*
X98594006Y-78365000D02*
G75*
G02*
X98544006Y-78365000I-25000J0D01*
G01*
X98544006Y-78365000D02*
G75*
G02*
X98594006Y-78365000I25000J0D01*
G01*
X137017006Y-64673000D02*
G75*
G02*
X136967006Y-64673000I-25000J0D01*
G01*
X136967006Y-64673000D02*
G75*
G02*
X137017006Y-64673000I25000J0D01*
G01*
X98594006Y-40712000D02*
G75*
G02*
X98544006Y-40712000I-25000J0D01*
G01*
X98544006Y-40712000D02*
G75*
G02*
X98594006Y-40712000I25000J0D01*
G01*
X116479006Y-98903000D02*
G75*
G02*
X116429006Y-98903000I-25000J0D01*
G01*
X116429006Y-98903000D02*
G75*
G02*
X116479006Y-98903000I25000J0D01*
G01*
X78056006Y-30443000D02*
G75*
G02*
X78006006Y-30443000I-25000J0D01*
G01*
X78006006Y-30443000D02*
G75*
G02*
X78056006Y-30443000I25000J0D01*
G01*
X102017006Y-57827000D02*
G75*
G02*
X101967006Y-57827000I-25000J0D01*
G01*
X101967006Y-57827000D02*
G75*
G02*
X102017006Y-57827000I25000J0D01*
G01*
X102017006Y-136556000D02*
G75*
G02*
X101967006Y-136556000I-25000J0D01*
G01*
X101967006Y-136556000D02*
G75*
G02*
X102017006Y-136556000I25000J0D01*
G01*
X95171006Y-74942000D02*
G75*
G02*
X95121006Y-74942000I-25000J0D01*
G01*
X95121006Y-74942000D02*
G75*
G02*
X95171006Y-74942000I25000J0D01*
G01*
X95171006Y-64673000D02*
G75*
G02*
X95121006Y-64673000I-25000J0D01*
G01*
X95121006Y-64673000D02*
G75*
G02*
X95171006Y-64673000I25000J0D01*
G01*
X133594006Y-71519000D02*
G75*
G02*
X133544006Y-71519000I-25000J0D01*
G01*
X133544006Y-71519000D02*
G75*
G02*
X133594006Y-71519000I25000J0D01*
G01*
X84902006Y-109172000D02*
G75*
G02*
X84852006Y-109172000I-25000J0D01*
G01*
X84852006Y-109172000D02*
G75*
G02*
X84902006Y-109172000I25000J0D01*
G01*
X95171006Y-61250000D02*
G75*
G02*
X95121006Y-61250000I-25000J0D01*
G01*
X95121006Y-61250000D02*
G75*
G02*
X95171006Y-61250000I25000J0D01*
G01*
X113056006Y-57827000D02*
G75*
G02*
X113006006Y-57827000I-25000J0D01*
G01*
X113006006Y-57827000D02*
G75*
G02*
X113056006Y-57827000I25000J0D01*
G01*
X113056006Y-50981000D02*
G75*
G02*
X113006006Y-50981000I-25000J0D01*
G01*
X113006006Y-50981000D02*
G75*
G02*
X113056006Y-50981000I25000J0D01*
G01*
X102017006Y-64673000D02*
G75*
G02*
X101967006Y-64673000I-25000J0D01*
G01*
X101967006Y-64673000D02*
G75*
G02*
X102017006Y-64673000I25000J0D01*
G01*
X98594006Y-61250000D02*
G75*
G02*
X98544006Y-61250000I-25000J0D01*
G01*
X98544006Y-61250000D02*
G75*
G02*
X98594006Y-61250000I25000J0D01*
G01*
X113056006Y-122864000D02*
G75*
G02*
X113006006Y-122864000I-25000J0D01*
G01*
X113006006Y-122864000D02*
G75*
G02*
X113056006Y-122864000I25000J0D01*
G01*
X98594006Y-116018000D02*
G75*
G02*
X98544006Y-116018000I-25000J0D01*
G01*
X98544006Y-116018000D02*
G75*
G02*
X98594006Y-116018000I25000J0D01*
G01*
X137017006Y-74942000D02*
G75*
G02*
X136967006Y-74942000I-25000J0D01*
G01*
X136967006Y-74942000D02*
G75*
G02*
X137017006Y-74942000I25000J0D01*
G01*
X91748006Y-68096000D02*
G75*
G02*
X91698006Y-68096000I-25000J0D01*
G01*
X91698006Y-68096000D02*
G75*
G02*
X91748006Y-68096000I25000J0D01*
G01*
X84902006Y-68096000D02*
G75*
G02*
X84852006Y-68096000I-25000J0D01*
G01*
X84852006Y-68096000D02*
G75*
G02*
X84902006Y-68096000I25000J0D01*
G01*
X102017006Y-116018000D02*
G75*
G02*
X101967006Y-116018000I-25000J0D01*
G01*
X101967006Y-116018000D02*
G75*
G02*
X102017006Y-116018000I25000J0D01*
G01*
X123325006Y-61250000D02*
G75*
G02*
X123275006Y-61250000I-25000J0D01*
G01*
X123275006Y-61250000D02*
G75*
G02*
X123325006Y-61250000I25000J0D01*
G01*
X98594006Y-129710000D02*
G75*
G02*
X98544006Y-129710000I-25000J0D01*
G01*
X98544006Y-129710000D02*
G75*
G02*
X98594006Y-129710000I25000J0D01*
G01*
X126748006Y-81788000D02*
G75*
G02*
X126698006Y-81788000I-25000J0D01*
G01*
X126698006Y-81788000D02*
G75*
G02*
X126748006Y-81788000I25000J0D01*
G01*
X130171006Y-136556000D02*
G75*
G02*
X130121006Y-136556000I-25000J0D01*
G01*
X130121006Y-136556000D02*
G75*
G02*
X130171006Y-136556000I25000J0D01*
G01*
X116479006Y-37289000D02*
G75*
G02*
X116429006Y-37289000I-25000J0D01*
G01*
X116429006Y-37289000D02*
G75*
G02*
X116479006Y-37289000I25000J0D01*
G01*
X84902006Y-92057000D02*
G75*
G02*
X84852006Y-92057000I-25000J0D01*
G01*
X84852006Y-92057000D02*
G75*
G02*
X84902006Y-92057000I25000J0D01*
G01*
X109633006Y-57827000D02*
G75*
G02*
X109583006Y-57827000I-25000J0D01*
G01*
X109583006Y-57827000D02*
G75*
G02*
X109633006Y-57827000I25000J0D01*
G01*
X119902006Y-37289000D02*
G75*
G02*
X119852006Y-37289000I-25000J0D01*
G01*
X119852006Y-37289000D02*
G75*
G02*
X119902006Y-37289000I25000J0D01*
G01*
X123325006Y-68096000D02*
G75*
G02*
X123275006Y-68096000I-25000J0D01*
G01*
X123275006Y-68096000D02*
G75*
G02*
X123325006Y-68096000I25000J0D01*
G01*
X133594006Y-78365000D02*
G75*
G02*
X133544006Y-78365000I-25000J0D01*
G01*
X133544006Y-78365000D02*
G75*
G02*
X133594006Y-78365000I25000J0D01*
G01*
X130171006Y-85211000D02*
G75*
G02*
X130121006Y-85211000I-25000J0D01*
G01*
X130121006Y-85211000D02*
G75*
G02*
X130171006Y-85211000I25000J0D01*
G01*
X84902006Y-129710000D02*
G75*
G02*
X84852006Y-129710000I-25000J0D01*
G01*
X84852006Y-129710000D02*
G75*
G02*
X84902006Y-129710000I25000J0D01*
G01*
X91748006Y-81788000D02*
G75*
G02*
X91698006Y-81788000I-25000J0D01*
G01*
X91698006Y-81788000D02*
G75*
G02*
X91748006Y-81788000I25000J0D01*
G01*
X130171006Y-74942000D02*
G75*
G02*
X130121006Y-74942000I-25000J0D01*
G01*
X130121006Y-74942000D02*
G75*
G02*
X130171006Y-74942000I25000J0D01*
G01*
X78056006Y-112595000D02*
G75*
G02*
X78006006Y-112595000I-25000J0D01*
G01*
X78006006Y-112595000D02*
G75*
G02*
X78056006Y-112595000I25000J0D01*
G01*
X95171006Y-105749000D02*
G75*
G02*
X95121006Y-105749000I-25000J0D01*
G01*
X95121006Y-105749000D02*
G75*
G02*
X95171006Y-105749000I25000J0D01*
G01*
X81479006Y-112595000D02*
G75*
G02*
X81429006Y-112595000I-25000J0D01*
G01*
X81429006Y-112595000D02*
G75*
G02*
X81479006Y-112595000I25000J0D01*
G01*
X91748006Y-88634000D02*
G75*
G02*
X91698006Y-88634000I-25000J0D01*
G01*
X91698006Y-88634000D02*
G75*
G02*
X91748006Y-88634000I25000J0D01*
G01*
X133594006Y-116018000D02*
G75*
G02*
X133544006Y-116018000I-25000J0D01*
G01*
X133544006Y-116018000D02*
G75*
G02*
X133594006Y-116018000I25000J0D01*
G01*
X74633006Y-85211000D02*
G75*
G02*
X74583006Y-85211000I-25000J0D01*
G01*
X74583006Y-85211000D02*
G75*
G02*
X74633006Y-85211000I25000J0D01*
G01*
X88325006Y-126287000D02*
G75*
G02*
X88275006Y-126287000I-25000J0D01*
G01*
X88275006Y-126287000D02*
G75*
G02*
X88325006Y-126287000I25000J0D01*
G01*
X109633006Y-74942000D02*
G75*
G02*
X109583006Y-74942000I-25000J0D01*
G01*
X109583006Y-74942000D02*
G75*
G02*
X109633006Y-74942000I25000J0D01*
G01*
X102017006Y-122864000D02*
G75*
G02*
X101967006Y-122864000I-25000J0D01*
G01*
X101967006Y-122864000D02*
G75*
G02*
X102017006Y-122864000I25000J0D01*
G01*
X78056006Y-85211000D02*
G75*
G02*
X78006006Y-85211000I-25000J0D01*
G01*
X78006006Y-85211000D02*
G75*
G02*
X78056006Y-85211000I25000J0D01*
G01*
X119902006Y-50981000D02*
G75*
G02*
X119852006Y-50981000I-25000J0D01*
G01*
X119852006Y-50981000D02*
G75*
G02*
X119902006Y-50981000I25000J0D01*
G01*
X123325006Y-50981000D02*
G75*
G02*
X123275006Y-50981000I-25000J0D01*
G01*
X123275006Y-50981000D02*
G75*
G02*
X123325006Y-50981000I25000J0D01*
G01*
X130171006Y-47558000D02*
G75*
G02*
X130121006Y-47558000I-25000J0D01*
G01*
X130121006Y-47558000D02*
G75*
G02*
X130171006Y-47558000I25000J0D01*
G01*
X78056006Y-122864000D02*
G75*
G02*
X78006006Y-122864000I-25000J0D01*
G01*
X78006006Y-122864000D02*
G75*
G02*
X78056006Y-122864000I25000J0D01*
G01*
X119902006Y-33866000D02*
G75*
G02*
X119852006Y-33866000I-25000J0D01*
G01*
X119852006Y-33866000D02*
G75*
G02*
X119902006Y-33866000I25000J0D01*
G01*
X119902006Y-30443000D02*
G75*
G02*
X119852006Y-30443000I-25000J0D01*
G01*
X119852006Y-30443000D02*
G75*
G02*
X119902006Y-30443000I25000J0D01*
G01*
X95171006Y-92057000D02*
G75*
G02*
X95121006Y-92057000I-25000J0D01*
G01*
X95121006Y-92057000D02*
G75*
G02*
X95171006Y-92057000I25000J0D01*
G01*
X74633006Y-74942000D02*
G75*
G02*
X74583006Y-74942000I-25000J0D01*
G01*
X74583006Y-74942000D02*
G75*
G02*
X74633006Y-74942000I25000J0D01*
G01*
X91748006Y-47558000D02*
G75*
G02*
X91698006Y-47558000I-25000J0D01*
G01*
X91698006Y-47558000D02*
G75*
G02*
X91748006Y-47558000I25000J0D01*
G01*
X130171006Y-64673000D02*
G75*
G02*
X130121006Y-64673000I-25000J0D01*
G01*
X130121006Y-64673000D02*
G75*
G02*
X130171006Y-64673000I25000J0D01*
G01*
X84902006Y-44135000D02*
G75*
G02*
X84852006Y-44135000I-25000J0D01*
G01*
X84852006Y-44135000D02*
G75*
G02*
X84902006Y-44135000I25000J0D01*
G01*
X84902006Y-116018000D02*
G75*
G02*
X84852006Y-116018000I-25000J0D01*
G01*
X84852006Y-116018000D02*
G75*
G02*
X84902006Y-116018000I25000J0D01*
G01*
X74633006Y-98903000D02*
G75*
G02*
X74583006Y-98903000I-25000J0D01*
G01*
X74583006Y-98903000D02*
G75*
G02*
X74633006Y-98903000I25000J0D01*
G01*
X81479006Y-88634000D02*
G75*
G02*
X81429006Y-88634000I-25000J0D01*
G01*
X81429006Y-88634000D02*
G75*
G02*
X81479006Y-88634000I25000J0D01*
G01*
X126748006Y-133133000D02*
G75*
G02*
X126698006Y-133133000I-25000J0D01*
G01*
X126698006Y-133133000D02*
G75*
G02*
X126748006Y-133133000I25000J0D01*
G01*
X119902006Y-105749000D02*
G75*
G02*
X119852006Y-105749000I-25000J0D01*
G01*
X119852006Y-105749000D02*
G75*
G02*
X119902006Y-105749000I25000J0D01*
G01*
X123325006Y-33866000D02*
G75*
G02*
X123275006Y-33866000I-25000J0D01*
G01*
X123275006Y-33866000D02*
G75*
G02*
X123325006Y-33866000I25000J0D01*
G01*
X133594006Y-98903000D02*
G75*
G02*
X133544006Y-98903000I-25000J0D01*
G01*
X133544006Y-98903000D02*
G75*
G02*
X133594006Y-98903000I25000J0D01*
G01*
X137017006Y-102326000D02*
G75*
G02*
X136967006Y-102326000I-25000J0D01*
G01*
X136967006Y-102326000D02*
G75*
G02*
X137017006Y-102326000I25000J0D01*
G01*
X84902006Y-112595000D02*
G75*
G02*
X84852006Y-112595000I-25000J0D01*
G01*
X84852006Y-112595000D02*
G75*
G02*
X84902006Y-112595000I25000J0D01*
G01*
X88325006Y-136556000D02*
G75*
G02*
X88275006Y-136556000I-25000J0D01*
G01*
X88275006Y-136556000D02*
G75*
G02*
X88325006Y-136556000I25000J0D01*
G01*
X123325006Y-126287000D02*
G75*
G02*
X123275006Y-126287000I-25000J0D01*
G01*
X123275006Y-126287000D02*
G75*
G02*
X123325006Y-126287000I25000J0D01*
G01*
X109633006Y-33866000D02*
G75*
G02*
X109583006Y-33866000I-25000J0D01*
G01*
X109583006Y-33866000D02*
G75*
G02*
X109633006Y-33866000I25000J0D01*
G01*
X126748006Y-98903000D02*
G75*
G02*
X126698006Y-98903000I-25000J0D01*
G01*
X126698006Y-98903000D02*
G75*
G02*
X126748006Y-98903000I25000J0D01*
G01*
X74633006Y-88634000D02*
G75*
G02*
X74583006Y-88634000I-25000J0D01*
G01*
X74583006Y-88634000D02*
G75*
G02*
X74633006Y-88634000I25000J0D01*
G01*
X78056006Y-37289000D02*
G75*
G02*
X78006006Y-37289000I-25000J0D01*
G01*
X78006006Y-37289000D02*
G75*
G02*
X78056006Y-37289000I25000J0D01*
G01*
X130171006Y-122864000D02*
G75*
G02*
X130121006Y-122864000I-25000J0D01*
G01*
X130121006Y-122864000D02*
G75*
G02*
X130171006Y-122864000I25000J0D01*
G01*
X91748006Y-40712000D02*
G75*
G02*
X91698006Y-40712000I-25000J0D01*
G01*
X91698006Y-40712000D02*
G75*
G02*
X91748006Y-40712000I25000J0D01*
G01*
X84902006Y-74942000D02*
G75*
G02*
X84852006Y-74942000I-25000J0D01*
G01*
X84852006Y-74942000D02*
G75*
G02*
X84902006Y-74942000I25000J0D01*
G01*
X88325006Y-33866000D02*
G75*
G02*
X88275006Y-33866000I-25000J0D01*
G01*
X88275006Y-33866000D02*
G75*
G02*
X88325006Y-33866000I25000J0D01*
G01*
X123325006Y-102326000D02*
G75*
G02*
X123275006Y-102326000I-25000J0D01*
G01*
X123275006Y-102326000D02*
G75*
G02*
X123325006Y-102326000I25000J0D01*
G01*
X81479006Y-78365000D02*
G75*
G02*
X81429006Y-78365000I-25000J0D01*
G01*
X81429006Y-78365000D02*
G75*
G02*
X81479006Y-78365000I25000J0D01*
G01*
X95171006Y-81788000D02*
G75*
G02*
X95121006Y-81788000I-25000J0D01*
G01*
X95121006Y-81788000D02*
G75*
G02*
X95171006Y-81788000I25000J0D01*
G01*
X95171006Y-88634000D02*
G75*
G02*
X95121006Y-88634000I-25000J0D01*
G01*
X95121006Y-88634000D02*
G75*
G02*
X95171006Y-88634000I25000J0D01*
G01*
X133594006Y-133133000D02*
G75*
G02*
X133544006Y-133133000I-25000J0D01*
G01*
X133544006Y-133133000D02*
G75*
G02*
X133594006Y-133133000I25000J0D01*
G01*
X137017006Y-54404000D02*
G75*
G02*
X136967006Y-54404000I-25000J0D01*
G01*
X136967006Y-54404000D02*
G75*
G02*
X137017006Y-54404000I25000J0D01*
G01*
X84902006Y-119441000D02*
G75*
G02*
X84852006Y-119441000I-25000J0D01*
G01*
X84852006Y-119441000D02*
G75*
G02*
X84902006Y-119441000I25000J0D01*
G01*
X98594006Y-47558000D02*
G75*
G02*
X98544006Y-47558000I-25000J0D01*
G01*
X98544006Y-47558000D02*
G75*
G02*
X98594006Y-47558000I25000J0D01*
G01*
X81479006Y-57827000D02*
G75*
G02*
X81429006Y-57827000I-25000J0D01*
G01*
X81429006Y-57827000D02*
G75*
G02*
X81479006Y-57827000I25000J0D01*
G01*
X116479006Y-71519000D02*
G75*
G02*
X116429006Y-71519000I-25000J0D01*
G01*
X116429006Y-71519000D02*
G75*
G02*
X116479006Y-71519000I25000J0D01*
G01*
X98594006Y-88634000D02*
G75*
G02*
X98544006Y-88634000I-25000J0D01*
G01*
X98544006Y-88634000D02*
G75*
G02*
X98594006Y-88634000I25000J0D01*
G01*
X102017006Y-78365000D02*
G75*
G02*
X101967006Y-78365000I-25000J0D01*
G01*
X101967006Y-78365000D02*
G75*
G02*
X102017006Y-78365000I25000J0D01*
G01*
X113056006Y-129710000D02*
G75*
G02*
X113006006Y-129710000I-25000J0D01*
G01*
X113006006Y-129710000D02*
G75*
G02*
X113056006Y-129710000I25000J0D01*
G01*
X123325006Y-64673000D02*
G75*
G02*
X123275006Y-64673000I-25000J0D01*
G01*
X123275006Y-64673000D02*
G75*
G02*
X123325006Y-64673000I25000J0D01*
G01*
X116479006Y-116018000D02*
G75*
G02*
X116429006Y-116018000I-25000J0D01*
G01*
X116429006Y-116018000D02*
G75*
G02*
X116479006Y-116018000I25000J0D01*
G01*
X74633006Y-136556000D02*
G75*
G02*
X74583006Y-136556000I-25000J0D01*
G01*
X74583006Y-136556000D02*
G75*
G02*
X74633006Y-136556000I25000J0D01*
G01*
X130171006Y-95480000D02*
G75*
G02*
X130121006Y-95480000I-25000J0D01*
G01*
X130121006Y-95480000D02*
G75*
G02*
X130171006Y-95480000I25000J0D01*
G01*
X78056006Y-136556000D02*
G75*
G02*
X78006006Y-136556000I-25000J0D01*
G01*
X78006006Y-136556000D02*
G75*
G02*
X78056006Y-136556000I25000J0D01*
G01*
X78056006Y-116018000D02*
G75*
G02*
X78006006Y-116018000I-25000J0D01*
G01*
X78006006Y-116018000D02*
G75*
G02*
X78056006Y-116018000I25000J0D01*
G01*
X113056006Y-54404000D02*
G75*
G02*
X113006006Y-54404000I-25000J0D01*
G01*
X113006006Y-54404000D02*
G75*
G02*
X113056006Y-54404000I25000J0D01*
G01*
X116479006Y-61250000D02*
G75*
G02*
X116429006Y-61250000I-25000J0D01*
G01*
X116429006Y-61250000D02*
G75*
G02*
X116479006Y-61250000I25000J0D01*
G01*
X130171006Y-33866000D02*
G75*
G02*
X130121006Y-33866000I-25000J0D01*
G01*
X130121006Y-33866000D02*
G75*
G02*
X130171006Y-33866000I25000J0D01*
G01*
X119902006Y-54404000D02*
G75*
G02*
X119852006Y-54404000I-25000J0D01*
G01*
X119852006Y-54404000D02*
G75*
G02*
X119902006Y-54404000I25000J0D01*
G01*
X119902006Y-119441000D02*
G75*
G02*
X119852006Y-119441000I-25000J0D01*
G01*
X119852006Y-119441000D02*
G75*
G02*
X119902006Y-119441000I25000J0D01*
G01*
X109633006Y-109172000D02*
G75*
G02*
X109583006Y-109172000I-25000J0D01*
G01*
X109583006Y-109172000D02*
G75*
G02*
X109633006Y-109172000I25000J0D01*
G01*
X133594006Y-33866000D02*
G75*
G02*
X133544006Y-33866000I-25000J0D01*
G01*
X133544006Y-33866000D02*
G75*
G02*
X133594006Y-33866000I25000J0D01*
G01*
X88325006Y-61250000D02*
G75*
G02*
X88275006Y-61250000I-25000J0D01*
G01*
X88275006Y-61250000D02*
G75*
G02*
X88325006Y-61250000I25000J0D01*
G01*
X130171006Y-37289000D02*
G75*
G02*
X130121006Y-37289000I-25000J0D01*
G01*
X130121006Y-37289000D02*
G75*
G02*
X130171006Y-37289000I25000J0D01*
G01*
X133594006Y-68096000D02*
G75*
G02*
X133544006Y-68096000I-25000J0D01*
G01*
X133544006Y-68096000D02*
G75*
G02*
X133594006Y-68096000I25000J0D01*
G01*
X102017006Y-105749000D02*
G75*
G02*
X101967006Y-105749000I-25000J0D01*
G01*
X101967006Y-105749000D02*
G75*
G02*
X102017006Y-105749000I25000J0D01*
G01*
X123325006Y-85211000D02*
G75*
G02*
X123275006Y-85211000I-25000J0D01*
G01*
X123275006Y-85211000D02*
G75*
G02*
X123325006Y-85211000I25000J0D01*
G01*
X74633006Y-92057000D02*
G75*
G02*
X74583006Y-92057000I-25000J0D01*
G01*
X74583006Y-92057000D02*
G75*
G02*
X74633006Y-92057000I25000J0D01*
G01*
X119902006Y-92057000D02*
G75*
G02*
X119852006Y-92057000I-25000J0D01*
G01*
X119852006Y-92057000D02*
G75*
G02*
X119902006Y-92057000I25000J0D01*
G01*
X95171006Y-112595000D02*
G75*
G02*
X95121006Y-112595000I-25000J0D01*
G01*
X95121006Y-112595000D02*
G75*
G02*
X95171006Y-112595000I25000J0D01*
G01*
X123325006Y-98903000D02*
G75*
G02*
X123275006Y-98903000I-25000J0D01*
G01*
X123275006Y-98903000D02*
G75*
G02*
X123325006Y-98903000I25000J0D01*
G01*
X95171006Y-98903000D02*
G75*
G02*
X95121006Y-98903000I-25000J0D01*
G01*
X95121006Y-98903000D02*
G75*
G02*
X95171006Y-98903000I25000J0D01*
G01*
X137017006Y-78365000D02*
G75*
G02*
X136967006Y-78365000I-25000J0D01*
G01*
X136967006Y-78365000D02*
G75*
G02*
X137017006Y-78365000I25000J0D01*
G01*
X88325006Y-78365000D02*
G75*
G02*
X88275006Y-78365000I-25000J0D01*
G01*
X88275006Y-78365000D02*
G75*
G02*
X88325006Y-78365000I25000J0D01*
G01*
X84902006Y-126287000D02*
G75*
G02*
X84852006Y-126287000I-25000J0D01*
G01*
X84852006Y-126287000D02*
G75*
G02*
X84902006Y-126287000I25000J0D01*
G01*
X74633006Y-71519000D02*
G75*
G02*
X74583006Y-71519000I-25000J0D01*
G01*
X74583006Y-71519000D02*
G75*
G02*
X74633006Y-71519000I25000J0D01*
G01*
X119902006Y-112595000D02*
G75*
G02*
X119852006Y-112595000I-25000J0D01*
G01*
X119852006Y-112595000D02*
G75*
G02*
X119902006Y-112595000I25000J0D01*
G01*
X137017006Y-50981000D02*
G75*
G02*
X136967006Y-50981000I-25000J0D01*
G01*
X136967006Y-50981000D02*
G75*
G02*
X137017006Y-50981000I25000J0D01*
G01*
X116479006Y-50981000D02*
G75*
G02*
X116429006Y-50981000I-25000J0D01*
G01*
X116429006Y-50981000D02*
G75*
G02*
X116479006Y-50981000I25000J0D01*
G01*
X113056006Y-105749000D02*
G75*
G02*
X113006006Y-105749000I-25000J0D01*
G01*
X113006006Y-105749000D02*
G75*
G02*
X113056006Y-105749000I25000J0D01*
G01*
X123325006Y-74942000D02*
G75*
G02*
X123275006Y-74942000I-25000J0D01*
G01*
X123275006Y-74942000D02*
G75*
G02*
X123325006Y-74942000I25000J0D01*
G01*
X119902006Y-136556000D02*
G75*
G02*
X119852006Y-136556000I-25000J0D01*
G01*
X119852006Y-136556000D02*
G75*
G02*
X119902006Y-136556000I25000J0D01*
G01*
X95171006Y-133133000D02*
G75*
G02*
X95121006Y-133133000I-25000J0D01*
G01*
X95121006Y-133133000D02*
G75*
G02*
X95171006Y-133133000I25000J0D01*
G01*
X137017006Y-119441000D02*
G75*
G02*
X136967006Y-119441000I-25000J0D01*
G01*
X136967006Y-119441000D02*
G75*
G02*
X137017006Y-119441000I25000J0D01*
G01*
X109633006Y-133133000D02*
G75*
G02*
X109583006Y-133133000I-25000J0D01*
G01*
X109583006Y-133133000D02*
G75*
G02*
X109633006Y-133133000I25000J0D01*
G01*
X102017006Y-30443000D02*
G75*
G02*
X101967006Y-30443000I-25000J0D01*
G01*
X101967006Y-30443000D02*
G75*
G02*
X102017006Y-30443000I25000J0D01*
G01*
X98594006Y-98903000D02*
G75*
G02*
X98544006Y-98903000I-25000J0D01*
G01*
X98544006Y-98903000D02*
G75*
G02*
X98594006Y-98903000I25000J0D01*
G01*
X109633006Y-64673000D02*
G75*
G02*
X109583006Y-64673000I-25000J0D01*
G01*
X109583006Y-64673000D02*
G75*
G02*
X109633006Y-64673000I25000J0D01*
G01*
X78056006Y-102326000D02*
G75*
G02*
X78006006Y-102326000I-25000J0D01*
G01*
X78006006Y-102326000D02*
G75*
G02*
X78056006Y-102326000I25000J0D01*
G01*
X119902006Y-129710000D02*
G75*
G02*
X119852006Y-129710000I-25000J0D01*
G01*
X119852006Y-129710000D02*
G75*
G02*
X119902006Y-129710000I25000J0D01*
G01*
X109633006Y-47558000D02*
G75*
G02*
X109583006Y-47558000I-25000J0D01*
G01*
X109583006Y-47558000D02*
G75*
G02*
X109633006Y-47558000I25000J0D01*
G01*
X78056006Y-47558000D02*
G75*
G02*
X78006006Y-47558000I-25000J0D01*
G01*
X78006006Y-47558000D02*
G75*
G02*
X78056006Y-47558000I25000J0D01*
G01*
X98594006Y-122864000D02*
G75*
G02*
X98544006Y-122864000I-25000J0D01*
G01*
X98544006Y-122864000D02*
G75*
G02*
X98594006Y-122864000I25000J0D01*
G01*
X102017006Y-88634000D02*
G75*
G02*
X101967006Y-88634000I-25000J0D01*
G01*
X101967006Y-88634000D02*
G75*
G02*
X102017006Y-88634000I25000J0D01*
G01*
X91748006Y-33866000D02*
G75*
G02*
X91698006Y-33866000I-25000J0D01*
G01*
X91698006Y-33866000D02*
G75*
G02*
X91748006Y-33866000I25000J0D01*
G01*
X81479006Y-95480000D02*
G75*
G02*
X81429006Y-95480000I-25000J0D01*
G01*
X81429006Y-95480000D02*
G75*
G02*
X81479006Y-95480000I25000J0D01*
G01*
X78056006Y-74942000D02*
G75*
G02*
X78006006Y-74942000I-25000J0D01*
G01*
X78006006Y-74942000D02*
G75*
G02*
X78056006Y-74942000I25000J0D01*
G01*
X91748006Y-85211000D02*
G75*
G02*
X91698006Y-85211000I-25000J0D01*
G01*
X91698006Y-85211000D02*
G75*
G02*
X91748006Y-85211000I25000J0D01*
G01*
X81479006Y-122864000D02*
G75*
G02*
X81429006Y-122864000I-25000J0D01*
G01*
X81429006Y-122864000D02*
G75*
G02*
X81479006Y-122864000I25000J0D01*
G01*
X109633006Y-95480000D02*
G75*
G02*
X109583006Y-95480000I-25000J0D01*
G01*
X109583006Y-95480000D02*
G75*
G02*
X109633006Y-95480000I25000J0D01*
G01*
X102017006Y-129710000D02*
G75*
G02*
X101967006Y-129710000I-25000J0D01*
G01*
X101967006Y-129710000D02*
G75*
G02*
X102017006Y-129710000I25000J0D01*
G01*
X119902006Y-102326000D02*
G75*
G02*
X119852006Y-102326000I-25000J0D01*
G01*
X119852006Y-102326000D02*
G75*
G02*
X119902006Y-102326000I25000J0D01*
G01*
X130171006Y-30443000D02*
G75*
G02*
X130121006Y-30443000I-25000J0D01*
G01*
X130121006Y-30443000D02*
G75*
G02*
X130171006Y-30443000I25000J0D01*
G01*
X113056006Y-119441000D02*
G75*
G02*
X113006006Y-119441000I-25000J0D01*
G01*
X113006006Y-119441000D02*
G75*
G02*
X113056006Y-119441000I25000J0D01*
G01*
X119902006Y-126287000D02*
G75*
G02*
X119852006Y-126287000I-25000J0D01*
G01*
X119852006Y-126287000D02*
G75*
G02*
X119902006Y-126287000I25000J0D01*
G01*
X84902006Y-102326000D02*
G75*
G02*
X84852006Y-102326000I-25000J0D01*
G01*
X84852006Y-102326000D02*
G75*
G02*
X84902006Y-102326000I25000J0D01*
G01*
X78056006Y-71519000D02*
G75*
G02*
X78006006Y-71519000I-25000J0D01*
G01*
X78006006Y-71519000D02*
G75*
G02*
X78056006Y-71519000I25000J0D01*
G01*
X98594006Y-33866000D02*
G75*
G02*
X98544006Y-33866000I-25000J0D01*
G01*
X98544006Y-33866000D02*
G75*
G02*
X98594006Y-33866000I25000J0D01*
G01*
X116479006Y-129710000D02*
G75*
G02*
X116429006Y-129710000I-25000J0D01*
G01*
X116429006Y-129710000D02*
G75*
G02*
X116479006Y-129710000I25000J0D01*
G01*
X130171006Y-126287000D02*
G75*
G02*
X130121006Y-126287000I-25000J0D01*
G01*
X130121006Y-126287000D02*
G75*
G02*
X130171006Y-126287000I25000J0D01*
G01*
X116479006Y-112595000D02*
G75*
G02*
X116429006Y-112595000I-25000J0D01*
G01*
X116429006Y-112595000D02*
G75*
G02*
X116479006Y-112595000I25000J0D01*
G01*
X74633006Y-61250000D02*
G75*
G02*
X74583006Y-61250000I-25000J0D01*
G01*
X74583006Y-61250000D02*
G75*
G02*
X74633006Y-61250000I25000J0D01*
G01*
X102017006Y-126287000D02*
G75*
G02*
X101967006Y-126287000I-25000J0D01*
G01*
X101967006Y-126287000D02*
G75*
G02*
X102017006Y-126287000I25000J0D01*
G01*
X113056006Y-109172000D02*
G75*
G02*
X113006006Y-109172000I-25000J0D01*
G01*
X113006006Y-109172000D02*
G75*
G02*
X113056006Y-109172000I25000J0D01*
G01*
X126748006Y-50981000D02*
G75*
G02*
X126698006Y-50981000I-25000J0D01*
G01*
X126698006Y-50981000D02*
G75*
G02*
X126748006Y-50981000I25000J0D01*
G01*
X84902006Y-54404000D02*
G75*
G02*
X84852006Y-54404000I-25000J0D01*
G01*
X84852006Y-54404000D02*
G75*
G02*
X84902006Y-54404000I25000J0D01*
G01*
X81479006Y-85211000D02*
G75*
G02*
X81429006Y-85211000I-25000J0D01*
G01*
X81429006Y-85211000D02*
G75*
G02*
X81479006Y-85211000I25000J0D01*
G01*
X78056006Y-119441000D02*
G75*
G02*
X78006006Y-119441000I-25000J0D01*
G01*
X78006006Y-119441000D02*
G75*
G02*
X78056006Y-119441000I25000J0D01*
G01*
X137017006Y-129710000D02*
G75*
G02*
X136967006Y-129710000I-25000J0D01*
G01*
X136967006Y-129710000D02*
G75*
G02*
X137017006Y-129710000I25000J0D01*
G01*
X78056006Y-57827000D02*
G75*
G02*
X78006006Y-57827000I-25000J0D01*
G01*
X78006006Y-57827000D02*
G75*
G02*
X78056006Y-57827000I25000J0D01*
G01*
X91748006Y-37289000D02*
G75*
G02*
X91698006Y-37289000I-25000J0D01*
G01*
X91698006Y-37289000D02*
G75*
G02*
X91748006Y-37289000I25000J0D01*
G01*
X84902006Y-81788000D02*
G75*
G02*
X84852006Y-81788000I-25000J0D01*
G01*
X84852006Y-81788000D02*
G75*
G02*
X84902006Y-81788000I25000J0D01*
G01*
X78056006Y-88634000D02*
G75*
G02*
X78006006Y-88634000I-25000J0D01*
G01*
X78006006Y-88634000D02*
G75*
G02*
X78056006Y-88634000I25000J0D01*
G01*
X137017006Y-136556000D02*
G75*
G02*
X136967006Y-136556000I-25000J0D01*
G01*
X136967006Y-136556000D02*
G75*
G02*
X137017006Y-136556000I25000J0D01*
G01*
X126748006Y-44135000D02*
G75*
G02*
X126698006Y-44135000I-25000J0D01*
G01*
X126698006Y-44135000D02*
G75*
G02*
X126748006Y-44135000I25000J0D01*
G01*
X81479006Y-98903000D02*
G75*
G02*
X81429006Y-98903000I-25000J0D01*
G01*
X81429006Y-98903000D02*
G75*
G02*
X81479006Y-98903000I25000J0D01*
G01*
X78056006Y-68096000D02*
G75*
G02*
X78006006Y-68096000I-25000J0D01*
G01*
X78006006Y-68096000D02*
G75*
G02*
X78056006Y-68096000I25000J0D01*
G01*
X130171006Y-119441000D02*
G75*
G02*
X130121006Y-119441000I-25000J0D01*
G01*
X130121006Y-119441000D02*
G75*
G02*
X130171006Y-119441000I25000J0D01*
G01*
X116479006Y-81788000D02*
G75*
G02*
X116429006Y-81788000I-25000J0D01*
G01*
X116429006Y-81788000D02*
G75*
G02*
X116479006Y-81788000I25000J0D01*
G01*
X81479006Y-129710000D02*
G75*
G02*
X81429006Y-129710000I-25000J0D01*
G01*
X81429006Y-129710000D02*
G75*
G02*
X81479006Y-129710000I25000J0D01*
G01*
X123325006Y-112595000D02*
G75*
G02*
X123275006Y-112595000I-25000J0D01*
G01*
X123275006Y-112595000D02*
G75*
G02*
X123325006Y-112595000I25000J0D01*
G01*
X113056006Y-88634000D02*
G75*
G02*
X113006006Y-88634000I-25000J0D01*
G01*
X113006006Y-88634000D02*
G75*
G02*
X113056006Y-88634000I25000J0D01*
G01*
X84902006Y-136556000D02*
G75*
G02*
X84852006Y-136556000I-25000J0D01*
G01*
X84852006Y-136556000D02*
G75*
G02*
X84902006Y-136556000I25000J0D01*
G01*
X126748006Y-126287000D02*
G75*
G02*
X126698006Y-126287000I-25000J0D01*
G01*
X126698006Y-126287000D02*
G75*
G02*
X126748006Y-126287000I25000J0D01*
G01*
X123325006Y-109172000D02*
G75*
G02*
X123275006Y-109172000I-25000J0D01*
G01*
X123275006Y-109172000D02*
G75*
G02*
X123325006Y-109172000I25000J0D01*
G01*
X123325006Y-37289000D02*
G75*
G02*
X123275006Y-37289000I-25000J0D01*
G01*
X123275006Y-37289000D02*
G75*
G02*
X123325006Y-37289000I25000J0D01*
G01*
X133594006Y-112595000D02*
G75*
G02*
X133544006Y-112595000I-25000J0D01*
G01*
X133544006Y-112595000D02*
G75*
G02*
X133594006Y-112595000I25000J0D01*
G01*
X133594006Y-136556000D02*
G75*
G02*
X133544006Y-136556000I-25000J0D01*
G01*
X133544006Y-136556000D02*
G75*
G02*
X133594006Y-136556000I25000J0D01*
G01*
X113056006Y-30443000D02*
G75*
G02*
X113006006Y-30443000I-25000J0D01*
G01*
X113006006Y-30443000D02*
G75*
G02*
X113056006Y-30443000I25000J0D01*
G01*
X88325006Y-37289000D02*
G75*
G02*
X88275006Y-37289000I-25000J0D01*
G01*
X88275006Y-37289000D02*
G75*
G02*
X88325006Y-37289000I25000J0D01*
G01*
X133594006Y-40712000D02*
G75*
G02*
X133544006Y-40712000I-25000J0D01*
G01*
X133544006Y-40712000D02*
G75*
G02*
X133594006Y-40712000I25000J0D01*
G01*
X95171006Y-85211000D02*
G75*
G02*
X95121006Y-85211000I-25000J0D01*
G01*
X95121006Y-85211000D02*
G75*
G02*
X95171006Y-85211000I25000J0D01*
G01*
X88325006Y-133133000D02*
G75*
G02*
X88275006Y-133133000I-25000J0D01*
G01*
X88275006Y-133133000D02*
G75*
G02*
X88325006Y-133133000I25000J0D01*
G01*
X91748006Y-30443000D02*
G75*
G02*
X91698006Y-30443000I-25000J0D01*
G01*
X91698006Y-30443000D02*
G75*
G02*
X91748006Y-30443000I25000J0D01*
G01*
X116479006Y-85211000D02*
G75*
G02*
X116429006Y-85211000I-25000J0D01*
G01*
X116429006Y-85211000D02*
G75*
G02*
X116479006Y-85211000I25000J0D01*
G01*
X91748006Y-71519000D02*
G75*
G02*
X91698006Y-71519000I-25000J0D01*
G01*
X91698006Y-71519000D02*
G75*
G02*
X91748006Y-71519000I25000J0D01*
G01*
X102017006Y-85211000D02*
G75*
G02*
X101967006Y-85211000I-25000J0D01*
G01*
X101967006Y-85211000D02*
G75*
G02*
X102017006Y-85211000I25000J0D01*
G01*
X84902006Y-37289000D02*
G75*
G02*
X84852006Y-37289000I-25000J0D01*
G01*
X84852006Y-37289000D02*
G75*
G02*
X84902006Y-37289000I25000J0D01*
G01*
X84902006Y-47558000D02*
G75*
G02*
X84852006Y-47558000I-25000J0D01*
G01*
X84852006Y-47558000D02*
G75*
G02*
X84902006Y-47558000I25000J0D01*
G01*
X81479006Y-71519000D02*
G75*
G02*
X81429006Y-71519000I-25000J0D01*
G01*
X81429006Y-71519000D02*
G75*
G02*
X81479006Y-71519000I25000J0D01*
G01*
X91748006Y-102326000D02*
G75*
G02*
X91698006Y-102326000I-25000J0D01*
G01*
X91698006Y-102326000D02*
G75*
G02*
X91748006Y-102326000I25000J0D01*
G01*
X74633006Y-95480000D02*
G75*
G02*
X74583006Y-95480000I-25000J0D01*
G01*
X74583006Y-95480000D02*
G75*
G02*
X74633006Y-95480000I25000J0D01*
G01*
X116479006Y-44135000D02*
G75*
G02*
X116429006Y-44135000I-25000J0D01*
G01*
X116429006Y-44135000D02*
G75*
G02*
X116479006Y-44135000I25000J0D01*
G01*
X116479006Y-68096000D02*
G75*
G02*
X116429006Y-68096000I-25000J0D01*
G01*
X116429006Y-68096000D02*
G75*
G02*
X116479006Y-68096000I25000J0D01*
G01*
X74633006Y-122864000D02*
G75*
G02*
X74583006Y-122864000I-25000J0D01*
G01*
X74583006Y-122864000D02*
G75*
G02*
X74633006Y-122864000I25000J0D01*
G01*
X126748006Y-122864000D02*
G75*
G02*
X126698006Y-122864000I-25000J0D01*
G01*
X126698006Y-122864000D02*
G75*
G02*
X126748006Y-122864000I25000J0D01*
G01*
X81479006Y-102326000D02*
G75*
G02*
X81429006Y-102326000I-25000J0D01*
G01*
X81429006Y-102326000D02*
G75*
G02*
X81479006Y-102326000I25000J0D01*
G01*
X98594006Y-136556000D02*
G75*
G02*
X98544006Y-136556000I-25000J0D01*
G01*
X98544006Y-136556000D02*
G75*
G02*
X98594006Y-136556000I25000J0D01*
G01*
X123325006Y-81788000D02*
G75*
G02*
X123275006Y-81788000I-25000J0D01*
G01*
X123275006Y-81788000D02*
G75*
G02*
X123325006Y-81788000I25000J0D01*
G01*
X133594006Y-81788000D02*
G75*
G02*
X133544006Y-81788000I-25000J0D01*
G01*
X133544006Y-81788000D02*
G75*
G02*
X133594006Y-81788000I25000J0D01*
G01*
X137017006Y-33866000D02*
G75*
G02*
X136967006Y-33866000I-25000J0D01*
G01*
X136967006Y-33866000D02*
G75*
G02*
X137017006Y-33866000I25000J0D01*
G01*
X74633006Y-64673000D02*
G75*
G02*
X74583006Y-64673000I-25000J0D01*
G01*
X74583006Y-64673000D02*
G75*
G02*
X74633006Y-64673000I25000J0D01*
G01*
X74633006Y-102326000D02*
G75*
G02*
X74583006Y-102326000I-25000J0D01*
G01*
X74583006Y-102326000D02*
G75*
G02*
X74633006Y-102326000I25000J0D01*
G01*
X109633006Y-30443000D02*
G75*
G02*
X109583006Y-30443000I-25000J0D01*
G01*
X109583006Y-30443000D02*
G75*
G02*
X109633006Y-30443000I25000J0D01*
G01*
X126748006Y-64673000D02*
G75*
G02*
X126698006Y-64673000I-25000J0D01*
G01*
X126698006Y-64673000D02*
G75*
G02*
X126748006Y-64673000I25000J0D01*
G01*
X130171006Y-57827000D02*
G75*
G02*
X130121006Y-57827000I-25000J0D01*
G01*
X130121006Y-57827000D02*
G75*
G02*
X130171006Y-57827000I25000J0D01*
G01*
X116479006Y-105749000D02*
G75*
G02*
X116429006Y-105749000I-25000J0D01*
G01*
X116429006Y-105749000D02*
G75*
G02*
X116479006Y-105749000I25000J0D01*
G01*
X98594006Y-74942000D02*
G75*
G02*
X98544006Y-74942000I-25000J0D01*
G01*
X98544006Y-74942000D02*
G75*
G02*
X98594006Y-74942000I25000J0D01*
G01*
X116479006Y-136556000D02*
G75*
G02*
X116429006Y-136556000I-25000J0D01*
G01*
X116429006Y-136556000D02*
G75*
G02*
X116479006Y-136556000I25000J0D01*
G01*
X78056006Y-109172000D02*
G75*
G02*
X78006006Y-109172000I-25000J0D01*
G01*
X78006006Y-109172000D02*
G75*
G02*
X78056006Y-109172000I25000J0D01*
G01*
X84902006Y-30443000D02*
G75*
G02*
X84852006Y-30443000I-25000J0D01*
G01*
X84852006Y-30443000D02*
G75*
G02*
X84902006Y-30443000I25000J0D01*
G01*
X113056006Y-95480000D02*
G75*
G02*
X113006006Y-95480000I-25000J0D01*
G01*
X113006006Y-95480000D02*
G75*
G02*
X113056006Y-95480000I25000J0D01*
G01*
X133594006Y-129710000D02*
G75*
G02*
X133544006Y-129710000I-25000J0D01*
G01*
X133544006Y-129710000D02*
G75*
G02*
X133594006Y-129710000I25000J0D01*
G01*
X88325006Y-54404000D02*
G75*
G02*
X88275006Y-54404000I-25000J0D01*
G01*
X88275006Y-54404000D02*
G75*
G02*
X88325006Y-54404000I25000J0D01*
G01*
X84902006Y-71519000D02*
G75*
G02*
X84852006Y-71519000I-25000J0D01*
G01*
X84852006Y-71519000D02*
G75*
G02*
X84902006Y-71519000I25000J0D01*
G01*
X78056006Y-64673000D02*
G75*
G02*
X78006006Y-64673000I-25000J0D01*
G01*
X78006006Y-64673000D02*
G75*
G02*
X78056006Y-64673000I25000J0D01*
G01*
X137017006Y-109172000D02*
G75*
G02*
X136967006Y-109172000I-25000J0D01*
G01*
X136967006Y-109172000D02*
G75*
G02*
X137017006Y-109172000I25000J0D01*
G01*
X130171006Y-68096000D02*
G75*
G02*
X130121006Y-68096000I-25000J0D01*
G01*
X130121006Y-68096000D02*
G75*
G02*
X130171006Y-68096000I25000J0D01*
G01*
X74633006Y-68096000D02*
G75*
G02*
X74583006Y-68096000I-25000J0D01*
G01*
X74583006Y-68096000D02*
G75*
G02*
X74633006Y-68096000I25000J0D01*
G01*
X91748006Y-44135000D02*
G75*
G02*
X91698006Y-44135000I-25000J0D01*
G01*
X91698006Y-44135000D02*
G75*
G02*
X91748006Y-44135000I25000J0D01*
G01*
X95171006Y-78365000D02*
G75*
G02*
X95121006Y-78365000I-25000J0D01*
G01*
X95121006Y-78365000D02*
G75*
G02*
X95171006Y-78365000I25000J0D01*
G01*
X98594006Y-50981000D02*
G75*
G02*
X98544006Y-50981000I-25000J0D01*
G01*
X98544006Y-50981000D02*
G75*
G02*
X98594006Y-50981000I25000J0D01*
G01*
X126748006Y-109172000D02*
G75*
G02*
X126698006Y-109172000I-25000J0D01*
G01*
X126698006Y-109172000D02*
G75*
G02*
X126748006Y-109172000I25000J0D01*
G01*
X91748006Y-95480000D02*
G75*
G02*
X91698006Y-95480000I-25000J0D01*
G01*
X91698006Y-95480000D02*
G75*
G02*
X91748006Y-95480000I25000J0D01*
G01*
X91748006Y-57827000D02*
G75*
G02*
X91698006Y-57827000I-25000J0D01*
G01*
X91698006Y-57827000D02*
G75*
G02*
X91748006Y-57827000I25000J0D01*
G01*
X84902006Y-40712000D02*
G75*
G02*
X84852006Y-40712000I-25000J0D01*
G01*
X84852006Y-40712000D02*
G75*
G02*
X84902006Y-40712000I25000J0D01*
G01*
X84902006Y-88634000D02*
G75*
G02*
X84852006Y-88634000I-25000J0D01*
G01*
X84852006Y-88634000D02*
G75*
G02*
X84902006Y-88634000I25000J0D01*
G01*
X78056006Y-44135000D02*
G75*
G02*
X78006006Y-44135000I-25000J0D01*
G01*
X78006006Y-44135000D02*
G75*
G02*
X78056006Y-44135000I25000J0D01*
G01*
X88325006Y-57827000D02*
G75*
G02*
X88275006Y-57827000I-25000J0D01*
G01*
X88275006Y-57827000D02*
G75*
G02*
X88325006Y-57827000I25000J0D01*
G01*
X123325006Y-116018000D02*
G75*
G02*
X123275006Y-116018000I-25000J0D01*
G01*
X123275006Y-116018000D02*
G75*
G02*
X123325006Y-116018000I25000J0D01*
G01*
X74633006Y-78365000D02*
G75*
G02*
X74583006Y-78365000I-25000J0D01*
G01*
X74583006Y-78365000D02*
G75*
G02*
X74633006Y-78365000I25000J0D01*
G01*
X81479006Y-37289000D02*
G75*
G02*
X81429006Y-37289000I-25000J0D01*
G01*
X81429006Y-37289000D02*
G75*
G02*
X81479006Y-37289000I25000J0D01*
G01*
X133594006Y-92057000D02*
G75*
G02*
X133544006Y-92057000I-25000J0D01*
G01*
X133544006Y-92057000D02*
G75*
G02*
X133594006Y-92057000I25000J0D01*
G01*
X78056006Y-105749000D02*
G75*
G02*
X78006006Y-105749000I-25000J0D01*
G01*
X78006006Y-105749000D02*
G75*
G02*
X78056006Y-105749000I25000J0D01*
G01*
X119902006Y-57827000D02*
G75*
G02*
X119852006Y-57827000I-25000J0D01*
G01*
X119852006Y-57827000D02*
G75*
G02*
X119902006Y-57827000I25000J0D01*
G01*
X84902006Y-57827000D02*
G75*
G02*
X84852006Y-57827000I-25000J0D01*
G01*
X84852006Y-57827000D02*
G75*
G02*
X84902006Y-57827000I25000J0D01*
G01*
X133594006Y-64673000D02*
G75*
G02*
X133544006Y-64673000I-25000J0D01*
G01*
X133544006Y-64673000D02*
G75*
G02*
X133594006Y-64673000I25000J0D01*
G01*
X88325006Y-119441000D02*
G75*
G02*
X88275006Y-119441000I-25000J0D01*
G01*
X88275006Y-119441000D02*
G75*
G02*
X88325006Y-119441000I25000J0D01*
G01*
X98594006Y-112595000D02*
G75*
G02*
X98544006Y-112595000I-25000J0D01*
G01*
X98544006Y-112595000D02*
G75*
G02*
X98594006Y-112595000I25000J0D01*
G01*
X109633006Y-68096000D02*
G75*
G02*
X109583006Y-68096000I-25000J0D01*
G01*
X109583006Y-68096000D02*
G75*
G02*
X109633006Y-68096000I25000J0D01*
G01*
X84902006Y-85211000D02*
G75*
G02*
X84852006Y-85211000I-25000J0D01*
G01*
X84852006Y-85211000D02*
G75*
G02*
X84902006Y-85211000I25000J0D01*
G01*
X91748006Y-98903000D02*
G75*
G02*
X91698006Y-98903000I-25000J0D01*
G01*
X91698006Y-98903000D02*
G75*
G02*
X91748006Y-98903000I25000J0D01*
G01*
X113056006Y-74942000D02*
G75*
G02*
X113006006Y-74942000I-25000J0D01*
G01*
X113006006Y-74942000D02*
G75*
G02*
X113056006Y-74942000I25000J0D01*
G01*
X74633006Y-126287000D02*
G75*
G02*
X74583006Y-126287000I-25000J0D01*
G01*
X74583006Y-126287000D02*
G75*
G02*
X74633006Y-126287000I25000J0D01*
G01*
X95171006Y-37289000D02*
G75*
G02*
X95121006Y-37289000I-25000J0D01*
G01*
X95121006Y-37289000D02*
G75*
G02*
X95171006Y-37289000I25000J0D01*
G01*
X109633006Y-44135000D02*
G75*
G02*
X109583006Y-44135000I-25000J0D01*
G01*
X109583006Y-44135000D02*
G75*
G02*
X109633006Y-44135000I25000J0D01*
G01*
X88325006Y-105749000D02*
G75*
G02*
X88275006Y-105749000I-25000J0D01*
G01*
X88275006Y-105749000D02*
G75*
G02*
X88325006Y-105749000I25000J0D01*
G01*
X95171006Y-122864000D02*
G75*
G02*
X95121006Y-122864000I-25000J0D01*
G01*
X95121006Y-122864000D02*
G75*
G02*
X95171006Y-122864000I25000J0D01*
G01*
X74633006Y-40712000D02*
G75*
G02*
X74583006Y-40712000I-25000J0D01*
G01*
X74583006Y-40712000D02*
G75*
G02*
X74633006Y-40712000I25000J0D01*
G01*
X116479006Y-57827000D02*
G75*
G02*
X116429006Y-57827000I-25000J0D01*
G01*
X116429006Y-57827000D02*
G75*
G02*
X116479006Y-57827000I25000J0D01*
G01*
X130171006Y-102326000D02*
G75*
G02*
X130121006Y-102326000I-25000J0D01*
G01*
X130121006Y-102326000D02*
G75*
G02*
X130171006Y-102326000I25000J0D01*
G01*
X130171006Y-133133000D02*
G75*
G02*
X130121006Y-133133000I-25000J0D01*
G01*
X130121006Y-133133000D02*
G75*
G02*
X130171006Y-133133000I25000J0D01*
G01*
X102017006Y-92057000D02*
G75*
G02*
X101967006Y-92057000I-25000J0D01*
G01*
X101967006Y-92057000D02*
G75*
G02*
X102017006Y-92057000I25000J0D01*
G01*
X78056006Y-50981000D02*
G75*
G02*
X78006006Y-50981000I-25000J0D01*
G01*
X78006006Y-50981000D02*
G75*
G02*
X78056006Y-50981000I25000J0D01*
G01*
X116479006Y-122864000D02*
G75*
G02*
X116429006Y-122864000I-25000J0D01*
G01*
X116429006Y-122864000D02*
G75*
G02*
X116479006Y-122864000I25000J0D01*
G01*
X78056006Y-129710000D02*
G75*
G02*
X78006006Y-129710000I-25000J0D01*
G01*
X78006006Y-129710000D02*
G75*
G02*
X78056006Y-129710000I25000J0D01*
G01*
X88325006Y-102326000D02*
G75*
G02*
X88275006Y-102326000I-25000J0D01*
G01*
X88275006Y-102326000D02*
G75*
G02*
X88325006Y-102326000I25000J0D01*
G01*
X91748006Y-105749000D02*
G75*
G02*
X91698006Y-105749000I-25000J0D01*
G01*
X91698006Y-105749000D02*
G75*
G02*
X91748006Y-105749000I25000J0D01*
G01*
X102017006Y-74942000D02*
G75*
G02*
X101967006Y-74942000I-25000J0D01*
G01*
X101967006Y-74942000D02*
G75*
G02*
X102017006Y-74942000I25000J0D01*
G01*
X116479006Y-33866000D02*
G75*
G02*
X116429006Y-33866000I-25000J0D01*
G01*
X116429006Y-33866000D02*
G75*
G02*
X116479006Y-33866000I25000J0D01*
G01*
X133594006Y-126287000D02*
G75*
G02*
X133544006Y-126287000I-25000J0D01*
G01*
X133544006Y-126287000D02*
G75*
G02*
X133594006Y-126287000I25000J0D01*
G01*
X113056006Y-44135000D02*
G75*
G02*
X113006006Y-44135000I-25000J0D01*
G01*
X113006006Y-44135000D02*
G75*
G02*
X113056006Y-44135000I25000J0D01*
G01*
X109633006Y-81788000D02*
G75*
G02*
X109583006Y-81788000I-25000J0D01*
G01*
X109583006Y-81788000D02*
G75*
G02*
X109633006Y-81788000I25000J0D01*
G01*
X84902006Y-50981000D02*
G75*
G02*
X84852006Y-50981000I-25000J0D01*
G01*
X84852006Y-50981000D02*
G75*
G02*
X84902006Y-50981000I25000J0D01*
G01*
X98594006Y-57827000D02*
G75*
G02*
X98544006Y-57827000I-25000J0D01*
G01*
X98544006Y-57827000D02*
G75*
G02*
X98594006Y-57827000I25000J0D01*
G01*
X109633006Y-105749000D02*
G75*
G02*
X109583006Y-105749000I-25000J0D01*
G01*
X109583006Y-105749000D02*
G75*
G02*
X109633006Y-105749000I25000J0D01*
G01*
X133594006Y-102326000D02*
G75*
G02*
X133544006Y-102326000I-25000J0D01*
G01*
X133544006Y-102326000D02*
G75*
G02*
X133594006Y-102326000I25000J0D01*
G01*
X123325006Y-136556000D02*
G75*
G02*
X123275006Y-136556000I-25000J0D01*
G01*
X123275006Y-136556000D02*
G75*
G02*
X123325006Y-136556000I25000J0D01*
G01*
X74633006Y-109172000D02*
G75*
G02*
X74583006Y-109172000I-25000J0D01*
G01*
X74583006Y-109172000D02*
G75*
G02*
X74633006Y-109172000I25000J0D01*
G01*
X91748006Y-122864000D02*
G75*
G02*
X91698006Y-122864000I-25000J0D01*
G01*
X91698006Y-122864000D02*
G75*
G02*
X91748006Y-122864000I25000J0D01*
G01*
X78056006Y-92057000D02*
G75*
G02*
X78006006Y-92057000I-25000J0D01*
G01*
X78006006Y-92057000D02*
G75*
G02*
X78056006Y-92057000I25000J0D01*
G01*
X137017006Y-92057000D02*
G75*
G02*
X136967006Y-92057000I-25000J0D01*
G01*
X136967006Y-92057000D02*
G75*
G02*
X137017006Y-92057000I25000J0D01*
G01*
X113056006Y-64673000D02*
G75*
G02*
X113006006Y-64673000I-25000J0D01*
G01*
X113006006Y-64673000D02*
G75*
G02*
X113056006Y-64673000I25000J0D01*
G01*
X126748006Y-57827000D02*
G75*
G02*
X126698006Y-57827000I-25000J0D01*
G01*
X126698006Y-57827000D02*
G75*
G02*
X126748006Y-57827000I25000J0D01*
G01*
X88325006Y-85211000D02*
G75*
G02*
X88275006Y-85211000I-25000J0D01*
G01*
X88275006Y-85211000D02*
G75*
G02*
X88325006Y-85211000I25000J0D01*
G01*
X88325006Y-50981000D02*
G75*
G02*
X88275006Y-50981000I-25000J0D01*
G01*
X88275006Y-50981000D02*
G75*
G02*
X88325006Y-50981000I25000J0D01*
G01*
X81479006Y-61250000D02*
G75*
G02*
X81429006Y-61250000I-25000J0D01*
G01*
X81429006Y-61250000D02*
G75*
G02*
X81479006Y-61250000I25000J0D01*
G01*
X123325006Y-71519000D02*
G75*
G02*
X123275006Y-71519000I-25000J0D01*
G01*
X123275006Y-71519000D02*
G75*
G02*
X123325006Y-71519000I25000J0D01*
G01*
X116479006Y-126287000D02*
G75*
G02*
X116429006Y-126287000I-25000J0D01*
G01*
X116429006Y-126287000D02*
G75*
G02*
X116479006Y-126287000I25000J0D01*
G01*
X84902006Y-105749000D02*
G75*
G02*
X84852006Y-105749000I-25000J0D01*
G01*
X84852006Y-105749000D02*
G75*
G02*
X84902006Y-105749000I25000J0D01*
G01*
X137017006Y-44135000D02*
G75*
G02*
X136967006Y-44135000I-25000J0D01*
G01*
X136967006Y-44135000D02*
G75*
G02*
X137017006Y-44135000I25000J0D01*
G01*
X113056006Y-78365000D02*
G75*
G02*
X113006006Y-78365000I-25000J0D01*
G01*
X113006006Y-78365000D02*
G75*
G02*
X113056006Y-78365000I25000J0D01*
G01*
X123325006Y-40712000D02*
G75*
G02*
X123275006Y-40712000I-25000J0D01*
G01*
X123275006Y-40712000D02*
G75*
G02*
X123325006Y-40712000I25000J0D01*
G01*
X74633006Y-44135000D02*
G75*
G02*
X74583006Y-44135000I-25000J0D01*
G01*
X74583006Y-44135000D02*
G75*
G02*
X74633006Y-44135000I25000J0D01*
G01*
X137017006Y-116018000D02*
G75*
G02*
X136967006Y-116018000I-25000J0D01*
G01*
X136967006Y-116018000D02*
G75*
G02*
X137017006Y-116018000I25000J0D01*
G01*
X116479006Y-30443000D02*
G75*
G02*
X116429006Y-30443000I-25000J0D01*
G01*
X116429006Y-30443000D02*
G75*
G02*
X116479006Y-30443000I25000J0D01*
G01*
X137017006Y-126287000D02*
G75*
G02*
X136967006Y-126287000I-25000J0D01*
G01*
X136967006Y-126287000D02*
G75*
G02*
X137017006Y-126287000I25000J0D01*
G01*
X113056006Y-126287000D02*
G75*
G02*
X113006006Y-126287000I-25000J0D01*
G01*
X113006006Y-126287000D02*
G75*
G02*
X113056006Y-126287000I25000J0D01*
G01*
X133594006Y-109172000D02*
G75*
G02*
X133544006Y-109172000I-25000J0D01*
G01*
X133544006Y-109172000D02*
G75*
G02*
X133594006Y-109172000I25000J0D01*
G01*
X91748006Y-61250000D02*
G75*
G02*
X91698006Y-61250000I-25000J0D01*
G01*
X91698006Y-61250000D02*
G75*
G02*
X91748006Y-61250000I25000J0D01*
G01*
X74633006Y-105749000D02*
G75*
G02*
X74583006Y-105749000I-25000J0D01*
G01*
X74583006Y-105749000D02*
G75*
G02*
X74633006Y-105749000I25000J0D01*
G01*
X113056006Y-133133000D02*
G75*
G02*
X113006006Y-133133000I-25000J0D01*
G01*
X113006006Y-133133000D02*
G75*
G02*
X113056006Y-133133000I25000J0D01*
G01*
X78056006Y-40712000D02*
G75*
G02*
X78006006Y-40712000I-25000J0D01*
G01*
X78006006Y-40712000D02*
G75*
G02*
X78056006Y-40712000I25000J0D01*
G01*
X81479006Y-92057000D02*
G75*
G02*
X81429006Y-92057000I-25000J0D01*
G01*
X81429006Y-92057000D02*
G75*
G02*
X81479006Y-92057000I25000J0D01*
G01*
X119902006Y-116018000D02*
G75*
G02*
X119852006Y-116018000I-25000J0D01*
G01*
X119852006Y-116018000D02*
G75*
G02*
X119902006Y-116018000I25000J0D01*
G01*
X113056006Y-81788000D02*
G75*
G02*
X113006006Y-81788000I-25000J0D01*
G01*
X113006006Y-81788000D02*
G75*
G02*
X113056006Y-81788000I25000J0D01*
G01*
X130171006Y-92057000D02*
G75*
G02*
X130121006Y-92057000I-25000J0D01*
G01*
X130121006Y-92057000D02*
G75*
G02*
X130171006Y-92057000I25000J0D01*
G01*
X98594006Y-95480000D02*
G75*
G02*
X98544006Y-95480000I-25000J0D01*
G01*
X98544006Y-95480000D02*
G75*
G02*
X98594006Y-95480000I25000J0D01*
G01*
X102017006Y-61250000D02*
G75*
G02*
X101967006Y-61250000I-25000J0D01*
G01*
X101967006Y-61250000D02*
G75*
G02*
X102017006Y-61250000I25000J0D01*
G01*
X123325006Y-95480000D02*
G75*
G02*
X123275006Y-95480000I-25000J0D01*
G01*
X123275006Y-95480000D02*
G75*
G02*
X123325006Y-95480000I25000J0D01*
G01*
X91748006Y-136556000D02*
G75*
G02*
X91698006Y-136556000I-25000J0D01*
G01*
X91698006Y-136556000D02*
G75*
G02*
X91748006Y-136556000I25000J0D01*
G01*
X130171006Y-98903000D02*
G75*
G02*
X130121006Y-98903000I-25000J0D01*
G01*
X130121006Y-98903000D02*
G75*
G02*
X130171006Y-98903000I25000J0D01*
G01*
X137017006Y-105749000D02*
G75*
G02*
X136967006Y-105749000I-25000J0D01*
G01*
X136967006Y-105749000D02*
G75*
G02*
X137017006Y-105749000I25000J0D01*
G01*
X102017006Y-37289000D02*
G75*
G02*
X101967006Y-37289000I-25000J0D01*
G01*
X101967006Y-37289000D02*
G75*
G02*
X102017006Y-37289000I25000J0D01*
G01*
X95171006Y-126287000D02*
G75*
G02*
X95121006Y-126287000I-25000J0D01*
G01*
X95121006Y-126287000D02*
G75*
G02*
X95171006Y-126287000I25000J0D01*
G01*
X95171006Y-71519000D02*
G75*
G02*
X95121006Y-71519000I-25000J0D01*
G01*
X95121006Y-71519000D02*
G75*
G02*
X95171006Y-71519000I25000J0D01*
G01*
X113056006Y-136556000D02*
G75*
G02*
X113006006Y-136556000I-25000J0D01*
G01*
X113006006Y-136556000D02*
G75*
G02*
X113056006Y-136556000I25000J0D01*
G01*
X109633006Y-71519000D02*
G75*
G02*
X109583006Y-71519000I-25000J0D01*
G01*
X109583006Y-71519000D02*
G75*
G02*
X109633006Y-71519000I25000J0D01*
G01*
X116479006Y-88634000D02*
G75*
G02*
X116429006Y-88634000I-25000J0D01*
G01*
X116429006Y-88634000D02*
G75*
G02*
X116479006Y-88634000I25000J0D01*
G01*
X119902006Y-78365000D02*
G75*
G02*
X119852006Y-78365000I-25000J0D01*
G01*
X119852006Y-78365000D02*
G75*
G02*
X119902006Y-78365000I25000J0D01*
G01*
X74633006Y-116018000D02*
G75*
G02*
X74583006Y-116018000I-25000J0D01*
G01*
X74583006Y-116018000D02*
G75*
G02*
X74633006Y-116018000I25000J0D01*
G01*
X102017006Y-40712000D02*
G75*
G02*
X101967006Y-40712000I-25000J0D01*
G01*
X101967006Y-40712000D02*
G75*
G02*
X102017006Y-40712000I25000J0D01*
G01*
X84902006Y-95480000D02*
G75*
G02*
X84852006Y-95480000I-25000J0D01*
G01*
X84852006Y-95480000D02*
G75*
G02*
X84902006Y-95480000I25000J0D01*
G01*
X98594006Y-64673000D02*
G75*
G02*
X98544006Y-64673000I-25000J0D01*
G01*
X98544006Y-64673000D02*
G75*
G02*
X98594006Y-64673000I25000J0D01*
G01*
%LPC*%
D12*
X84527006Y-33516000D03*
X84527006Y-32616000D03*
X83627006Y-32616000D03*
X83627006Y-33516000D03*
X101642006Y-71169000D03*
X101642006Y-70269000D03*
X100742006Y-70269000D03*
X100742006Y-71169000D03*
X91373006Y-91707000D03*
X91373006Y-90807000D03*
X90473006Y-90807000D03*
X90473006Y-91707000D03*
X119527006Y-98553000D03*
X119527006Y-97653000D03*
X118627006Y-97653000D03*
X118627006Y-98553000D03*
X81104006Y-54054000D03*
X81104006Y-53154000D03*
X80204006Y-53154000D03*
X80204006Y-54054000D03*
X133219006Y-47208000D03*
X133219006Y-46308000D03*
X132319006Y-46308000D03*
X132319006Y-47208000D03*
X81104006Y-136206000D03*
X81104006Y-135306000D03*
X80204006Y-135306000D03*
X80204006Y-136206000D03*
X122950006Y-54054000D03*
X122950006Y-53154000D03*
X122050006Y-53154000D03*
X122050006Y-54054000D03*
D13*
X102999997Y-89388886D03*
D12*
X87950006Y-67746000D03*
X87950006Y-66846000D03*
X87050006Y-66846000D03*
X87050006Y-67746000D03*
X87950006Y-74592000D03*
X87950006Y-73692000D03*
X87050006Y-73692000D03*
X87050006Y-74592000D03*
D13*
X137999994Y-64633332D03*
X103000000Y-115144441D03*
D12*
X116104006Y-132783000D03*
X116104006Y-131883000D03*
X115204006Y-131883000D03*
X115204006Y-132783000D03*
X77681006Y-95130000D03*
X77681006Y-94230000D03*
X76781006Y-94230000D03*
X76781006Y-95130000D03*
D13*
X127166667Y-27000001D03*
D12*
X122950006Y-43785000D03*
X122950006Y-42885000D03*
X122050006Y-42885000D03*
X122050006Y-43785000D03*
X101642006Y-54054000D03*
X101642006Y-53154000D03*
X100742006Y-53154000D03*
X100742006Y-54054000D03*
D13*
X80833332Y-138399995D03*
D12*
X136642006Y-84861000D03*
X136642006Y-83961000D03*
X135742006Y-83961000D03*
X135742006Y-84861000D03*
X119527006Y-95130000D03*
X119527006Y-94230000D03*
X118627006Y-94230000D03*
X118627006Y-95130000D03*
X81104006Y-125937000D03*
X81104006Y-125037000D03*
X80204006Y-125037000D03*
X80204006Y-125937000D03*
X81104006Y-81438000D03*
X81104006Y-80538000D03*
X80204006Y-80538000D03*
X80204006Y-81438000D03*
D13*
X129166667Y-138399995D03*
D12*
X116104006Y-95130000D03*
X116104006Y-94230000D03*
X115204006Y-94230000D03*
X115204006Y-95130000D03*
D13*
X144166669Y-27000000D03*
X118833331Y-138399995D03*
D12*
X126373006Y-119091000D03*
X126373006Y-118191000D03*
X125473006Y-118191000D03*
X125473006Y-119091000D03*
X101642006Y-95130000D03*
X101642006Y-94230000D03*
X100742006Y-94230000D03*
X100742006Y-95130000D03*
X94796006Y-33516000D03*
X94796006Y-32616000D03*
X93896006Y-32616000D03*
X93896006Y-33516000D03*
D13*
X71999998Y-125522218D03*
D12*
X94796006Y-30093000D03*
X94796006Y-29193000D03*
X93896006Y-29193000D03*
X93896006Y-30093000D03*
X91373006Y-64323000D03*
X91373006Y-63423000D03*
X90473006Y-63423000D03*
X90473006Y-64323000D03*
X119527006Y-84861000D03*
X119527006Y-83961000D03*
X118627006Y-83961000D03*
X118627006Y-84861000D03*
X98219006Y-125937000D03*
X98219006Y-125037000D03*
X97319006Y-125037000D03*
X97319006Y-125937000D03*
X112681006Y-60900000D03*
X112681006Y-60000000D03*
X111781006Y-60000000D03*
X111781006Y-60900000D03*
X91373006Y-129360000D03*
X91373006Y-128460000D03*
X90473006Y-128460000D03*
X90473006Y-129360000D03*
X91373006Y-78015000D03*
X91373006Y-77115000D03*
X90473006Y-77115000D03*
X90473006Y-78015000D03*
X109258006Y-136206000D03*
X109258006Y-135306000D03*
X108358006Y-135306000D03*
X108358006Y-136206000D03*
X101642006Y-81438000D03*
X101642006Y-80538000D03*
X100742006Y-80538000D03*
X100742006Y-81438000D03*
X136642006Y-112245000D03*
X136642006Y-111345000D03*
X135742006Y-111345000D03*
X135742006Y-112245000D03*
X91373006Y-119091000D03*
X91373006Y-118191000D03*
X90473006Y-118191000D03*
X90473006Y-119091000D03*
X129796006Y-105399000D03*
X129796006Y-104499000D03*
X128896006Y-104499000D03*
X128896006Y-105399000D03*
X126373006Y-129360000D03*
X126373006Y-128460000D03*
X125473006Y-128460000D03*
X125473006Y-129360000D03*
X112681006Y-67746000D03*
X112681006Y-66846000D03*
X111781006Y-66846000D03*
X111781006Y-67746000D03*
X119527006Y-81438000D03*
X119527006Y-80538000D03*
X118627006Y-80538000D03*
X118627006Y-81438000D03*
D13*
X72000002Y-78011109D03*
X71999997Y-127522218D03*
D12*
X129796006Y-88284000D03*
X129796006Y-87384000D03*
X128896006Y-87384000D03*
X128896006Y-88284000D03*
X133219006Y-95130000D03*
X133219006Y-94230000D03*
X132319006Y-94230000D03*
X132319006Y-95130000D03*
X119527006Y-71169000D03*
X119527006Y-70269000D03*
X118627006Y-70269000D03*
X118627006Y-71169000D03*
X116104006Y-47208000D03*
X116104006Y-46308000D03*
X115204006Y-46308000D03*
X115204006Y-47208000D03*
X109258006Y-88284000D03*
X109258006Y-87384000D03*
X108358006Y-87384000D03*
X108358006Y-88284000D03*
X91373006Y-115668000D03*
X91373006Y-114768000D03*
X90473006Y-114768000D03*
X90473006Y-115668000D03*
X77681006Y-54054000D03*
X77681006Y-53154000D03*
X76781006Y-53154000D03*
X76781006Y-54054000D03*
X136642006Y-98553000D03*
X136642006Y-97653000D03*
X135742006Y-97653000D03*
X135742006Y-98553000D03*
D13*
X107000005Y-38877777D03*
X128166667Y-138399995D03*
D12*
X87950006Y-64323000D03*
X87950006Y-63423000D03*
X87050006Y-63423000D03*
X87050006Y-64323000D03*
X136642006Y-95130000D03*
X136642006Y-94230000D03*
X135742006Y-94230000D03*
X135742006Y-95130000D03*
X112681006Y-40362000D03*
X112681006Y-39462000D03*
X111781006Y-39462000D03*
X111781006Y-40362000D03*
X136642006Y-57477000D03*
X136642006Y-56577000D03*
X135742006Y-56577000D03*
X135742006Y-57477000D03*
X112681006Y-98553000D03*
X112681006Y-97653000D03*
X111781006Y-97653000D03*
X111781006Y-98553000D03*
D13*
X71999997Y-141233328D03*
D12*
X112681006Y-47208000D03*
X112681006Y-46308000D03*
X111781006Y-46308000D03*
X111781006Y-47208000D03*
D13*
X71999997Y-22500000D03*
D12*
X126373006Y-67746000D03*
X126373006Y-66846000D03*
X125473006Y-66846000D03*
X125473006Y-67746000D03*
X119527006Y-43785000D03*
X119527006Y-42885000D03*
X118627006Y-42885000D03*
X118627006Y-43785000D03*
X101642006Y-119091000D03*
X101642006Y-118191000D03*
X100742006Y-118191000D03*
X100742006Y-119091000D03*
X91373006Y-108822000D03*
X91373006Y-107922000D03*
X90473006Y-107922000D03*
X90473006Y-108822000D03*
X126373006Y-84861000D03*
X126373006Y-83961000D03*
X125473006Y-83961000D03*
X125473006Y-84861000D03*
D13*
X102999991Y-37877777D03*
D12*
X136642006Y-88284000D03*
X136642006Y-87384000D03*
X135742006Y-87384000D03*
X135742006Y-88284000D03*
X109258006Y-125937000D03*
X109258006Y-125037000D03*
X108358006Y-125037000D03*
X108358006Y-125937000D03*
X87950006Y-112245000D03*
X87950006Y-111345000D03*
X87050006Y-111345000D03*
X87050006Y-112245000D03*
X133219006Y-105399000D03*
X133219006Y-104499000D03*
X132319006Y-104499000D03*
X132319006Y-105399000D03*
X98219006Y-36939000D03*
X98219006Y-36039000D03*
X97319006Y-36039000D03*
X97319006Y-36939000D03*
D13*
X71999997Y-144566661D03*
D12*
X101642006Y-108822000D03*
X101642006Y-107922000D03*
X100742006Y-107922000D03*
X100742006Y-108822000D03*
X136642006Y-36939000D03*
X136642006Y-36039000D03*
X135742006Y-36039000D03*
X135742006Y-36939000D03*
X122950006Y-78015000D03*
X122950006Y-77115000D03*
X122050006Y-77115000D03*
X122050006Y-78015000D03*
D13*
X72000002Y-75011109D03*
X102999995Y-76011109D03*
X138000002Y-141233328D03*
D12*
X126373006Y-112245000D03*
X126373006Y-111345000D03*
X125473006Y-111345000D03*
X125473006Y-112245000D03*
D14*
X67999997Y-23000000D03*
D12*
X84527006Y-98553000D03*
X84527006Y-97653000D03*
X83627006Y-97653000D03*
X83627006Y-98553000D03*
D13*
X103000000Y-114144441D03*
D12*
X126373006Y-30093000D03*
X126373006Y-29193000D03*
X125473006Y-29193000D03*
X125473006Y-30093000D03*
X101642006Y-98553000D03*
X101642006Y-97653000D03*
X100742006Y-97653000D03*
X100742006Y-98553000D03*
X129796006Y-81438000D03*
X129796006Y-80538000D03*
X128896006Y-80538000D03*
X128896006Y-81438000D03*
X122950006Y-122514000D03*
X122950006Y-121614000D03*
X122050006Y-121614000D03*
X122050006Y-122514000D03*
X119527006Y-40362000D03*
X119527006Y-39462000D03*
X118627006Y-39462000D03*
X118627006Y-40362000D03*
X81104006Y-30093000D03*
X81104006Y-29193000D03*
X80204006Y-29193000D03*
X80204006Y-30093000D03*
D13*
X72000006Y-38877777D03*
D12*
X119527006Y-74592000D03*
X119527006Y-73692000D03*
X118627006Y-73692000D03*
X118627006Y-74592000D03*
X126373006Y-78015000D03*
X126373006Y-77115000D03*
X125473006Y-77115000D03*
X125473006Y-78015000D03*
X116104006Y-108822000D03*
X116104006Y-107922000D03*
X115204006Y-107922000D03*
X115204006Y-108822000D03*
X77681006Y-132783000D03*
X77681006Y-131883000D03*
X76781006Y-131883000D03*
X76781006Y-132783000D03*
X101642006Y-33516000D03*
X101642006Y-32616000D03*
X100742006Y-32616000D03*
X100742006Y-33516000D03*
X109258006Y-78015000D03*
X109258006Y-77115000D03*
X108358006Y-77115000D03*
X108358006Y-78015000D03*
D13*
X107000000Y-88388886D03*
D12*
X74258006Y-50631000D03*
X74258006Y-49731000D03*
X73358006Y-49731000D03*
X73358006Y-50631000D03*
D13*
X102999995Y-75011109D03*
D12*
X94796006Y-129360000D03*
X94796006Y-128460000D03*
X93896006Y-128460000D03*
X93896006Y-129360000D03*
X136642006Y-67746000D03*
X136642006Y-66846000D03*
X135742006Y-66846000D03*
X135742006Y-67746000D03*
D13*
X107000000Y-90388886D03*
X137999995Y-76011109D03*
X137999998Y-99766663D03*
D12*
X112681006Y-91707000D03*
X112681006Y-90807000D03*
X111781006Y-90807000D03*
X111781006Y-91707000D03*
X109258006Y-84861000D03*
X109258006Y-83961000D03*
X108358006Y-83961000D03*
X108358006Y-84861000D03*
X74258006Y-47208000D03*
X74258006Y-46308000D03*
X73358006Y-46308000D03*
X73358006Y-47208000D03*
X74258006Y-33516000D03*
X74258006Y-32616000D03*
X73358006Y-32616000D03*
X73358006Y-33516000D03*
D13*
X106999996Y-126522218D03*
D12*
X91373006Y-125937000D03*
X91373006Y-125037000D03*
X90473006Y-125037000D03*
X90473006Y-125937000D03*
X91373006Y-50631000D03*
X91373006Y-49731000D03*
X90473006Y-49731000D03*
X90473006Y-50631000D03*
X129796006Y-50631000D03*
X129796006Y-49731000D03*
X128896006Y-49731000D03*
X128896006Y-50631000D03*
D13*
X102999998Y-99766663D03*
D12*
X94796006Y-47208000D03*
X94796006Y-46308000D03*
X93896006Y-46308000D03*
X93896006Y-47208000D03*
X129796006Y-71169000D03*
X129796006Y-70269000D03*
X128896006Y-70269000D03*
X128896006Y-71169000D03*
X94796006Y-40362000D03*
X94796006Y-39462000D03*
X93896006Y-39462000D03*
X93896006Y-40362000D03*
D13*
X102999994Y-65633332D03*
D12*
X94796006Y-50631000D03*
X94796006Y-49731000D03*
X93896006Y-49731000D03*
X93896006Y-50631000D03*
X87950006Y-115668000D03*
X87950006Y-114768000D03*
X87050006Y-114768000D03*
X87050006Y-115668000D03*
X91373006Y-132783000D03*
X91373006Y-131883000D03*
X90473006Y-131883000D03*
X90473006Y-132783000D03*
X91373006Y-74592000D03*
X91373006Y-73692000D03*
X90473006Y-73692000D03*
X90473006Y-74592000D03*
X87950006Y-98553000D03*
X87950006Y-97653000D03*
X87050006Y-97653000D03*
X87050006Y-98553000D03*
X98219006Y-71169000D03*
X98219006Y-70269000D03*
X97319006Y-70269000D03*
X97319006Y-71169000D03*
D13*
X71999997Y-142899995D03*
D12*
X87950006Y-108822000D03*
X87950006Y-107922000D03*
X87050006Y-107922000D03*
X87050006Y-108822000D03*
X136642006Y-60900000D03*
X136642006Y-60000000D03*
X135742006Y-60000000D03*
X135742006Y-60900000D03*
X136642006Y-122514000D03*
X136642006Y-121614000D03*
X135742006Y-121614000D03*
X135742006Y-122514000D03*
X74258006Y-54054000D03*
X74258006Y-53154000D03*
X73358006Y-53154000D03*
X73358006Y-54054000D03*
X126373006Y-105399000D03*
X126373006Y-104499000D03*
X125473006Y-104499000D03*
X125473006Y-105399000D03*
X133219006Y-122514000D03*
X133219006Y-121614000D03*
X132319006Y-121614000D03*
X132319006Y-122514000D03*
X119527006Y-88284000D03*
X119527006Y-87384000D03*
X118627006Y-87384000D03*
X118627006Y-88284000D03*
X87950006Y-71169000D03*
X87950006Y-70269000D03*
X87050006Y-70269000D03*
X87050006Y-71169000D03*
X129796006Y-40362000D03*
X129796006Y-39462000D03*
X128896006Y-39462000D03*
X128896006Y-40362000D03*
X126373006Y-74592000D03*
X126373006Y-73692000D03*
X125473006Y-73692000D03*
X125473006Y-74592000D03*
X101642006Y-47208000D03*
X101642006Y-46308000D03*
X100742006Y-46308000D03*
X100742006Y-47208000D03*
X129796006Y-129360000D03*
X129796006Y-128460000D03*
X128896006Y-128460000D03*
X128896006Y-129360000D03*
X112681006Y-101976000D03*
X112681006Y-101076000D03*
X111781006Y-101076000D03*
X111781006Y-101976000D03*
X129796006Y-78015000D03*
X129796006Y-77115000D03*
X128896006Y-77115000D03*
X128896006Y-78015000D03*
X98219006Y-132783000D03*
X98219006Y-131883000D03*
X97319006Y-131883000D03*
X97319006Y-132783000D03*
D13*
X72000000Y-99766663D03*
D12*
X119527006Y-132783000D03*
X119527006Y-131883000D03*
X118627006Y-131883000D03*
X118627006Y-132783000D03*
X77681006Y-98553000D03*
X77681006Y-97653000D03*
X76781006Y-97653000D03*
X76781006Y-98553000D03*
X122950006Y-47208000D03*
X122950006Y-46308000D03*
X122050006Y-46308000D03*
X122050006Y-47208000D03*
X94796006Y-54054000D03*
X94796006Y-53154000D03*
X93896006Y-53154000D03*
X93896006Y-54054000D03*
X109258006Y-115668000D03*
X109258006Y-114768000D03*
X108358006Y-114768000D03*
X108358006Y-115668000D03*
X133219006Y-43785000D03*
X133219006Y-42885000D03*
X132319006Y-42885000D03*
X132319006Y-43785000D03*
X91373006Y-54054000D03*
X91373006Y-53154000D03*
X90473006Y-53154000D03*
X90473006Y-54054000D03*
X87950006Y-43785000D03*
X87950006Y-42885000D03*
X87050006Y-42885000D03*
X87050006Y-43785000D03*
X116104006Y-40362000D03*
X116104006Y-39462000D03*
X115204006Y-39462000D03*
X115204006Y-40362000D03*
X136642006Y-47208000D03*
X136642006Y-46308000D03*
X135742006Y-46308000D03*
X135742006Y-47208000D03*
X126373006Y-36939000D03*
X126373006Y-36039000D03*
X125473006Y-36039000D03*
X125473006Y-36939000D03*
X133219006Y-30093000D03*
X133219006Y-29193000D03*
X132319006Y-29193000D03*
X132319006Y-30093000D03*
X126373006Y-71169000D03*
X126373006Y-70269000D03*
X125473006Y-70269000D03*
X125473006Y-71169000D03*
X126373006Y-91707000D03*
X126373006Y-90807000D03*
X125473006Y-90807000D03*
X125473006Y-91707000D03*
D13*
X72000003Y-63633332D03*
X83833332Y-138399995D03*
D12*
X101642006Y-132783000D03*
X101642006Y-131883000D03*
X100742006Y-131883000D03*
X100742006Y-132783000D03*
X122950006Y-129360000D03*
X122950006Y-128460000D03*
X122050006Y-128460000D03*
X122050006Y-129360000D03*
X116104006Y-91707000D03*
X116104006Y-90807000D03*
X115204006Y-90807000D03*
X115204006Y-91707000D03*
D13*
X71999999Y-115144441D03*
D12*
X98219006Y-91707000D03*
X98219006Y-90807000D03*
X97319006Y-90807000D03*
X97319006Y-91707000D03*
D13*
X72000001Y-90388886D03*
X102999995Y-78011109D03*
X144166669Y-138399996D03*
X72000000Y-100766663D03*
X72000003Y-62633332D03*
D12*
X119527006Y-122514000D03*
X119527006Y-121614000D03*
X118627006Y-121614000D03*
X118627006Y-122514000D03*
X87950006Y-40362000D03*
X87950006Y-39462000D03*
X87050006Y-39462000D03*
X87050006Y-40362000D03*
D13*
X72000006Y-37877777D03*
D12*
X136642006Y-132783000D03*
X136642006Y-131883000D03*
X135742006Y-131883000D03*
X135742006Y-132783000D03*
X109258006Y-129360000D03*
X109258006Y-128460000D03*
X108358006Y-128460000D03*
X108358006Y-129360000D03*
X122950006Y-119091000D03*
X122950006Y-118191000D03*
X122050006Y-118191000D03*
X122050006Y-119091000D03*
X94796006Y-43785000D03*
X94796006Y-42885000D03*
X93896006Y-42885000D03*
X93896006Y-43785000D03*
X133219006Y-74592000D03*
X133219006Y-73692000D03*
X132319006Y-73692000D03*
X132319006Y-74592000D03*
X109258006Y-98553000D03*
X109258006Y-97653000D03*
X108358006Y-97653000D03*
X108358006Y-98553000D03*
D13*
X137999992Y-51255554D03*
D12*
X94796006Y-108822000D03*
X94796006Y-107922000D03*
X93896006Y-107922000D03*
X93896006Y-108822000D03*
X98219006Y-84861000D03*
X98219006Y-83961000D03*
X97319006Y-83961000D03*
X97319006Y-84861000D03*
X74258006Y-129360000D03*
X74258006Y-128460000D03*
X73358006Y-128460000D03*
X73358006Y-129360000D03*
X94796006Y-95130000D03*
X94796006Y-94230000D03*
X93896006Y-94230000D03*
X93896006Y-95130000D03*
D13*
X72000001Y-87388886D03*
D12*
X126373006Y-88284000D03*
X126373006Y-87384000D03*
X125473006Y-87384000D03*
X125473006Y-88284000D03*
X122950006Y-105399000D03*
X122950006Y-104499000D03*
X122050006Y-104499000D03*
X122050006Y-105399000D03*
D13*
X64999997Y-138399996D03*
D12*
X109258006Y-40362000D03*
X109258006Y-39462000D03*
X108358006Y-39462000D03*
X108358006Y-40362000D03*
X112681006Y-33516000D03*
X112681006Y-32616000D03*
X111781006Y-32616000D03*
X111781006Y-33516000D03*
D13*
X107000001Y-76011109D03*
D12*
X109258006Y-119091000D03*
X109258006Y-118191000D03*
X108358006Y-118191000D03*
X108358006Y-119091000D03*
X81104006Y-105399000D03*
X81104006Y-104499000D03*
X80204006Y-104499000D03*
X80204006Y-105399000D03*
X109258006Y-91707000D03*
X109258006Y-90807000D03*
X108358006Y-90807000D03*
X108358006Y-91707000D03*
D13*
X66666664Y-27000000D03*
D12*
X119527006Y-47208000D03*
X119527006Y-46308000D03*
X118627006Y-46308000D03*
X118627006Y-47208000D03*
X109258006Y-101976000D03*
X109258006Y-101076000D03*
X108358006Y-101076000D03*
X108358006Y-101976000D03*
X112681006Y-71169000D03*
X112681006Y-70269000D03*
X111781006Y-70269000D03*
X111781006Y-71169000D03*
X98219006Y-54054000D03*
X98219006Y-53154000D03*
X97319006Y-53154000D03*
X97319006Y-54054000D03*
X87950006Y-95130000D03*
X87950006Y-94230000D03*
X87050006Y-94230000D03*
X87050006Y-95130000D03*
D13*
X127166667Y-138399995D03*
D12*
X74258006Y-112245000D03*
X74258006Y-111345000D03*
X73358006Y-111345000D03*
X73358006Y-112245000D03*
X133219006Y-36939000D03*
X133219006Y-36039000D03*
X132319006Y-36039000D03*
X132319006Y-36939000D03*
X101642006Y-43785000D03*
X101642006Y-42885000D03*
X100742006Y-42885000D03*
X100742006Y-43785000D03*
X133219006Y-119091000D03*
X133219006Y-118191000D03*
X132319006Y-118191000D03*
X132319006Y-119091000D03*
X98219006Y-81438000D03*
X98219006Y-80538000D03*
X97319006Y-80538000D03*
X97319006Y-81438000D03*
X133219006Y-57477000D03*
X133219006Y-56577000D03*
X132319006Y-56577000D03*
X132319006Y-57477000D03*
D13*
X71999999Y-114144441D03*
D12*
X101642006Y-112245000D03*
X101642006Y-111345000D03*
X100742006Y-111345000D03*
X100742006Y-112245000D03*
X136642006Y-81438000D03*
X136642006Y-80538000D03*
X135742006Y-80538000D03*
X135742006Y-81438000D03*
X129796006Y-43785000D03*
X129796006Y-42885000D03*
X128896006Y-42885000D03*
X128896006Y-43785000D03*
D13*
X71999998Y-124522218D03*
D12*
X84527006Y-132783000D03*
X84527006Y-131883000D03*
X83627006Y-131883000D03*
X83627006Y-132783000D03*
X136642006Y-30093000D03*
X136642006Y-29193000D03*
X135742006Y-29193000D03*
X135742006Y-30093000D03*
X109258006Y-54054000D03*
X109258006Y-53154000D03*
X108358006Y-53154000D03*
X108358006Y-54054000D03*
X126373006Y-101976000D03*
X126373006Y-101076000D03*
X125473006Y-101076000D03*
X125473006Y-101976000D03*
X87950006Y-88284000D03*
X87950006Y-87384000D03*
X87050006Y-87384000D03*
X87050006Y-88284000D03*
X126373006Y-54054000D03*
X126373006Y-53154000D03*
X125473006Y-53154000D03*
X125473006Y-54054000D03*
X133219006Y-88284000D03*
X133219006Y-87384000D03*
X132319006Y-87384000D03*
X132319006Y-88284000D03*
X119527006Y-108822000D03*
X119527006Y-107922000D03*
X118627006Y-107922000D03*
X118627006Y-108822000D03*
D13*
X107000003Y-53255554D03*
X102999991Y-39877777D03*
D12*
X129796006Y-54054000D03*
X129796006Y-53154000D03*
X128896006Y-53154000D03*
X128896006Y-54054000D03*
X94796006Y-115668000D03*
X94796006Y-114768000D03*
X93896006Y-114768000D03*
X93896006Y-115668000D03*
X126373006Y-47208000D03*
X126373006Y-46308000D03*
X125473006Y-46308000D03*
X125473006Y-47208000D03*
D13*
X71999997Y-20833334D03*
D12*
X126373006Y-33516000D03*
X126373006Y-32616000D03*
X125473006Y-32616000D03*
X125473006Y-33516000D03*
X133219006Y-54054000D03*
X133219006Y-53154000D03*
X132319006Y-53154000D03*
X132319006Y-54054000D03*
X116104006Y-64323000D03*
X116104006Y-63423000D03*
X115204006Y-63423000D03*
X115204006Y-64323000D03*
X109258006Y-60900000D03*
X109258006Y-60000000D03*
X108358006Y-60000000D03*
X108358006Y-60900000D03*
X81104006Y-74592000D03*
X81104006Y-73692000D03*
X80204006Y-73692000D03*
X80204006Y-74592000D03*
X129796006Y-108822000D03*
X129796006Y-107922000D03*
X128896006Y-107922000D03*
X128896006Y-108822000D03*
D13*
X80833332Y-27000000D03*
D12*
X116104006Y-54054000D03*
X116104006Y-53154000D03*
X115204006Y-53154000D03*
X115204006Y-54054000D03*
X119527006Y-67746000D03*
X119527006Y-66846000D03*
X118627006Y-66846000D03*
X118627006Y-67746000D03*
X87950006Y-81438000D03*
X87950006Y-80538000D03*
X87050006Y-80538000D03*
X87050006Y-81438000D03*
X81104006Y-47208000D03*
X81104006Y-46308000D03*
X80204006Y-46308000D03*
X80204006Y-47208000D03*
D13*
X69999997Y-138399996D03*
D12*
X98219006Y-43785000D03*
X98219006Y-42885000D03*
X97319006Y-42885000D03*
X97319006Y-43785000D03*
X116104006Y-78015000D03*
X116104006Y-77115000D03*
X115204006Y-77115000D03*
X115204006Y-78015000D03*
X84527006Y-60900000D03*
X84527006Y-60000000D03*
X83627006Y-60000000D03*
X83627006Y-60900000D03*
X81104006Y-67746000D03*
X81104006Y-66846000D03*
X80204006Y-66846000D03*
X80204006Y-67746000D03*
X87950006Y-47208000D03*
X87950006Y-46308000D03*
X87050006Y-46308000D03*
X87050006Y-47208000D03*
X133219006Y-50631000D03*
X133219006Y-49731000D03*
X132319006Y-49731000D03*
X132319006Y-50631000D03*
X94796006Y-119091000D03*
X94796006Y-118191000D03*
X93896006Y-118191000D03*
X93896006Y-119091000D03*
X116104006Y-74592000D03*
X116104006Y-73692000D03*
X115204006Y-73692000D03*
X115204006Y-74592000D03*
X101642006Y-50631000D03*
X101642006Y-49731000D03*
X100742006Y-49731000D03*
X100742006Y-50631000D03*
X109258006Y-122514000D03*
X109258006Y-121614000D03*
X108358006Y-121614000D03*
X108358006Y-122514000D03*
X77681006Y-81438000D03*
X77681006Y-80538000D03*
X76781006Y-80538000D03*
X76781006Y-81438000D03*
X126373006Y-60900000D03*
X126373006Y-60000000D03*
X125473006Y-60000000D03*
X125473006Y-60900000D03*
D13*
X137999999Y-112144441D03*
D12*
X74258006Y-132783000D03*
X74258006Y-131883000D03*
X73358006Y-131883000D03*
X73358006Y-132783000D03*
X81104006Y-115668000D03*
X81104006Y-114768000D03*
X80204006Y-114768000D03*
X80204006Y-115668000D03*
X112681006Y-115668000D03*
X112681006Y-114768000D03*
X111781006Y-114768000D03*
X111781006Y-115668000D03*
X126373006Y-40362000D03*
X126373006Y-39462000D03*
X125473006Y-39462000D03*
X125473006Y-40362000D03*
D13*
X140000003Y-138399996D03*
D12*
X91373006Y-112245000D03*
X91373006Y-111345000D03*
X90473006Y-111345000D03*
X90473006Y-112245000D03*
X119527006Y-60900000D03*
X119527006Y-60000000D03*
X118627006Y-60000000D03*
X118627006Y-60900000D03*
X126373006Y-115668000D03*
X126373006Y-114768000D03*
X125473006Y-114768000D03*
X125473006Y-115668000D03*
X74258006Y-57477000D03*
X74258006Y-56577000D03*
X73358006Y-56577000D03*
X73358006Y-57477000D03*
X74258006Y-30093000D03*
X74258006Y-29193000D03*
X73358006Y-29193000D03*
X73358006Y-30093000D03*
X81104006Y-43785000D03*
X81104006Y-42885000D03*
X80204006Y-42885000D03*
X80204006Y-43785000D03*
X98219006Y-67746000D03*
X98219006Y-66846000D03*
X97319006Y-66846000D03*
X97319006Y-67746000D03*
D13*
X106999998Y-114144441D03*
X82833332Y-27000000D03*
D12*
X81104006Y-50631000D03*
X81104006Y-49731000D03*
X80204006Y-49731000D03*
X80204006Y-50631000D03*
D13*
X71999997Y-142066661D03*
X94166667Y-27000001D03*
X138000001Y-126522218D03*
D12*
X81104006Y-108822000D03*
X81104006Y-107922000D03*
X80204006Y-107922000D03*
X80204006Y-108822000D03*
X98219006Y-108822000D03*
X98219006Y-107922000D03*
X97319006Y-107922000D03*
X97319006Y-108822000D03*
D13*
X71999997Y-140399995D03*
D12*
X136642006Y-40362000D03*
X136642006Y-39462000D03*
X135742006Y-39462000D03*
X135742006Y-40362000D03*
X94796006Y-57477000D03*
X94796006Y-56577000D03*
X93896006Y-56577000D03*
X93896006Y-57477000D03*
D13*
X71999999Y-112144441D03*
D12*
X81104006Y-64323000D03*
X81104006Y-63423000D03*
X80204006Y-63423000D03*
X80204006Y-64323000D03*
X98219006Y-101976000D03*
X98219006Y-101076000D03*
X97319006Y-101076000D03*
X97319006Y-101976000D03*
X77681006Y-125937000D03*
X77681006Y-125037000D03*
X76781006Y-125037000D03*
X76781006Y-125937000D03*
X84527006Y-64323000D03*
X84527006Y-63423000D03*
X83627006Y-63423000D03*
X83627006Y-64323000D03*
X87950006Y-122514000D03*
X87950006Y-121614000D03*
X87050006Y-121614000D03*
X87050006Y-122514000D03*
D13*
X106999998Y-115144441D03*
D12*
X133219006Y-84861000D03*
X133219006Y-83961000D03*
X132319006Y-83961000D03*
X132319006Y-84861000D03*
X81104006Y-119091000D03*
X81104006Y-118191000D03*
X80204006Y-118191000D03*
X80204006Y-119091000D03*
X119527006Y-64323000D03*
X119527006Y-63423000D03*
X118627006Y-63423000D03*
X118627006Y-64323000D03*
X112681006Y-36939000D03*
X112681006Y-36039000D03*
X111781006Y-36039000D03*
X111781006Y-36939000D03*
D13*
X103000001Y-127522218D03*
D12*
X136642006Y-71169000D03*
X136642006Y-70269000D03*
X135742006Y-70269000D03*
X135742006Y-71169000D03*
D13*
X138000000Y-114144441D03*
D12*
X109258006Y-50631000D03*
X109258006Y-49731000D03*
X108358006Y-49731000D03*
X108358006Y-50631000D03*
D13*
X141666669Y-138399996D03*
D12*
X101642006Y-67746000D03*
X101642006Y-66846000D03*
X100742006Y-66846000D03*
X100742006Y-67746000D03*
D13*
X117833331Y-138399995D03*
D12*
X129796006Y-112245000D03*
X129796006Y-111345000D03*
X128896006Y-111345000D03*
X128896006Y-112245000D03*
X98219006Y-30093000D03*
X98219006Y-29193000D03*
X97319006Y-29193000D03*
X97319006Y-30093000D03*
D13*
X71999997Y-143733328D03*
D12*
X116104006Y-119091000D03*
X116104006Y-118191000D03*
X115204006Y-118191000D03*
X115204006Y-119091000D03*
X109258006Y-36939000D03*
X109258006Y-36039000D03*
X108358006Y-36039000D03*
X108358006Y-36939000D03*
X74258006Y-81438000D03*
X74258006Y-80538000D03*
X73358006Y-80538000D03*
X73358006Y-81438000D03*
X81104006Y-40362000D03*
X81104006Y-39462000D03*
X80204006Y-39462000D03*
X80204006Y-40362000D03*
D13*
X102999993Y-53255554D03*
X107000004Y-39877777D03*
X138000002Y-144566661D03*
D12*
X84527006Y-122514000D03*
X84527006Y-121614000D03*
X83627006Y-121614000D03*
X83627006Y-122514000D03*
D13*
X72000005Y-40877777D03*
D12*
X116104006Y-101976000D03*
X116104006Y-101076000D03*
X115204006Y-101076000D03*
X115204006Y-101976000D03*
X81104006Y-132783000D03*
X81104006Y-131883000D03*
X80204006Y-131883000D03*
X80204006Y-132783000D03*
X98219006Y-105399000D03*
X98219006Y-104499000D03*
X97319006Y-104499000D03*
X97319006Y-105399000D03*
X87950006Y-129360000D03*
X87950006Y-128460000D03*
X87050006Y-128460000D03*
X87050006Y-129360000D03*
D13*
X107000003Y-51255554D03*
D12*
X109258006Y-112245000D03*
X109258006Y-111345000D03*
X108358006Y-111345000D03*
X108358006Y-112245000D03*
X133219006Y-60900000D03*
X133219006Y-60000000D03*
X132319006Y-60000000D03*
X132319006Y-60900000D03*
D13*
X102999992Y-50255554D03*
D12*
X112681006Y-112245000D03*
X112681006Y-111345000D03*
X111781006Y-111345000D03*
X111781006Y-112245000D03*
X77681006Y-60900000D03*
X77681006Y-60000000D03*
X76781006Y-60000000D03*
X76781006Y-60900000D03*
X84527006Y-78015000D03*
X84527006Y-77115000D03*
X83627006Y-77115000D03*
X83627006Y-78015000D03*
X126373006Y-136206000D03*
X126373006Y-135306000D03*
X125473006Y-135306000D03*
X125473006Y-136206000D03*
D13*
X115833331Y-27000000D03*
D12*
X94796006Y-136206000D03*
X94796006Y-135306000D03*
X93896006Y-135306000D03*
X93896006Y-136206000D03*
X122950006Y-57477000D03*
X122950006Y-56577000D03*
X122050006Y-56577000D03*
X122050006Y-57477000D03*
X77681006Y-78015000D03*
X77681006Y-77115000D03*
X76781006Y-77115000D03*
X76781006Y-78015000D03*
D13*
X138000001Y-125522218D03*
D12*
X129796006Y-115668000D03*
X129796006Y-114768000D03*
X128896006Y-114768000D03*
X128896006Y-115668000D03*
D13*
X137999998Y-102766663D03*
D12*
X112681006Y-84861000D03*
X112681006Y-83961000D03*
X111781006Y-83961000D03*
X111781006Y-84861000D03*
D13*
X72000003Y-65633332D03*
D12*
X87950006Y-91707000D03*
X87950006Y-90807000D03*
X87050006Y-90807000D03*
X87050006Y-91707000D03*
X98219006Y-119091000D03*
X98219006Y-118191000D03*
X97319006Y-118191000D03*
X97319006Y-119091000D03*
X81104006Y-33516000D03*
X81104006Y-32616000D03*
X80204006Y-32616000D03*
X80204006Y-33516000D03*
D13*
X106999997Y-124522218D03*
D12*
X94796006Y-101976000D03*
X94796006Y-101076000D03*
X93896006Y-101076000D03*
X93896006Y-101976000D03*
X122950006Y-91707000D03*
X122950006Y-90807000D03*
X122050006Y-90807000D03*
X122050006Y-91707000D03*
D13*
X137999994Y-63633332D03*
D12*
X122950006Y-132783000D03*
X122950006Y-131883000D03*
X122050006Y-131883000D03*
X122050006Y-132783000D03*
D13*
X106999999Y-102766663D03*
D12*
X129796006Y-60900000D03*
X129796006Y-60000000D03*
X128896006Y-60000000D03*
X128896006Y-60900000D03*
X74258006Y-119091000D03*
X74258006Y-118191000D03*
X73358006Y-118191000D03*
X73358006Y-119091000D03*
D13*
X137999994Y-65633332D03*
X83833332Y-27000000D03*
D12*
X126373006Y-95130000D03*
X126373006Y-94230000D03*
X125473006Y-94230000D03*
X125473006Y-95130000D03*
X122950006Y-30093000D03*
X122950006Y-29193000D03*
X122050006Y-29193000D03*
X122050006Y-30093000D03*
X74258006Y-36939000D03*
X74258006Y-36039000D03*
X73358006Y-36039000D03*
X73358006Y-36939000D03*
D13*
X107000002Y-64633332D03*
D12*
X122950006Y-88284000D03*
X122950006Y-87384000D03*
X122050006Y-87384000D03*
X122050006Y-88284000D03*
X87950006Y-30093000D03*
X87950006Y-29193000D03*
X87050006Y-29193000D03*
X87050006Y-30093000D03*
X101642006Y-101976000D03*
X101642006Y-101076000D03*
X100742006Y-101076000D03*
X100742006Y-101976000D03*
X94796006Y-67746000D03*
X94796006Y-66846000D03*
X93896006Y-66846000D03*
X93896006Y-67746000D03*
X77681006Y-33516000D03*
X77681006Y-32616000D03*
X76781006Y-32616000D03*
X76781006Y-33516000D03*
X98219006Y-78015000D03*
X98219006Y-77115000D03*
X97319006Y-77115000D03*
X97319006Y-78015000D03*
D13*
X145000003Y-27000000D03*
X126166667Y-27000001D03*
D12*
X136642006Y-64323000D03*
X136642006Y-63423000D03*
X135742006Y-63423000D03*
X135742006Y-64323000D03*
D13*
X107000003Y-52255554D03*
D12*
X98219006Y-40362000D03*
X98219006Y-39462000D03*
X97319006Y-39462000D03*
X97319006Y-40362000D03*
X116104006Y-98553000D03*
X116104006Y-97653000D03*
X115204006Y-97653000D03*
X115204006Y-98553000D03*
X77681006Y-30093000D03*
X77681006Y-29193000D03*
X76781006Y-29193000D03*
X76781006Y-30093000D03*
X101642006Y-57477000D03*
X101642006Y-56577000D03*
X100742006Y-56577000D03*
X100742006Y-57477000D03*
D13*
X72000004Y-50255554D03*
D12*
X101642006Y-136206000D03*
X101642006Y-135306000D03*
X100742006Y-135306000D03*
X100742006Y-136206000D03*
X94796006Y-74592000D03*
X94796006Y-73692000D03*
X93896006Y-73692000D03*
X93896006Y-74592000D03*
D13*
X137999991Y-38877777D03*
X138000001Y-124522218D03*
X82833332Y-138399995D03*
D12*
X94796006Y-64323000D03*
X94796006Y-63423000D03*
X93896006Y-63423000D03*
X93896006Y-64323000D03*
X133219006Y-71169000D03*
X133219006Y-70269000D03*
X132319006Y-70269000D03*
X132319006Y-71169000D03*
X84527006Y-108822000D03*
X84527006Y-107922000D03*
X83627006Y-107922000D03*
X83627006Y-108822000D03*
D15*
X67999997Y-128899995D03*
D12*
X94796006Y-60900000D03*
X94796006Y-60000000D03*
X93896006Y-60000000D03*
X93896006Y-60900000D03*
D13*
X72000001Y-88388886D03*
X137999992Y-50255554D03*
D12*
X112681006Y-57477000D03*
X112681006Y-56577000D03*
X111781006Y-56577000D03*
X111781006Y-57477000D03*
X112681006Y-50631000D03*
X112681006Y-49731000D03*
X111781006Y-49731000D03*
X111781006Y-50631000D03*
D13*
X102999991Y-40877777D03*
D12*
X101642006Y-64323000D03*
X101642006Y-63423000D03*
X100742006Y-63423000D03*
X100742006Y-64323000D03*
X98219006Y-60900000D03*
X98219006Y-60000000D03*
X97319006Y-60000000D03*
X97319006Y-60900000D03*
X112681006Y-122514000D03*
X112681006Y-121614000D03*
X111781006Y-121614000D03*
X111781006Y-122514000D03*
D13*
X72000002Y-76011109D03*
X81833332Y-27000000D03*
D12*
X98219006Y-115668000D03*
X98219006Y-114768000D03*
X97319006Y-114768000D03*
X97319006Y-115668000D03*
D13*
X102999994Y-64633332D03*
D12*
X136642006Y-74592000D03*
X136642006Y-73692000D03*
X135742006Y-73692000D03*
X135742006Y-74592000D03*
X91373006Y-67746000D03*
X91373006Y-66846000D03*
X90473006Y-66846000D03*
X90473006Y-67746000D03*
D13*
X92166667Y-27000001D03*
X69166664Y-138399996D03*
D12*
X84527006Y-67746000D03*
X84527006Y-66846000D03*
X83627006Y-66846000D03*
X83627006Y-67746000D03*
X101642006Y-115668000D03*
X101642006Y-114768000D03*
X100742006Y-114768000D03*
X100742006Y-115668000D03*
D13*
X72000004Y-52255554D03*
X71999997Y-21666667D03*
D12*
X122950006Y-60900000D03*
X122950006Y-60000000D03*
X122050006Y-60000000D03*
X122050006Y-60900000D03*
X98219006Y-129360000D03*
X98219006Y-128460000D03*
X97319006Y-128460000D03*
X97319006Y-129360000D03*
D13*
X106999999Y-101766663D03*
D12*
X126373006Y-81438000D03*
X126373006Y-80538000D03*
X125473006Y-80538000D03*
X125473006Y-81438000D03*
D13*
X71999997Y-145399995D03*
X138000001Y-127522218D03*
D12*
X129796006Y-136206000D03*
X129796006Y-135306000D03*
X128896006Y-135306000D03*
X128896006Y-136206000D03*
X116104006Y-36939000D03*
X116104006Y-36039000D03*
X115204006Y-36039000D03*
X115204006Y-36939000D03*
D13*
X116833331Y-27000000D03*
D12*
X84527006Y-91707000D03*
X84527006Y-90807000D03*
X83627006Y-90807000D03*
X83627006Y-91707000D03*
X109258006Y-57477000D03*
X109258006Y-56577000D03*
X108358006Y-56577000D03*
X108358006Y-57477000D03*
X119527006Y-36939000D03*
X119527006Y-36039000D03*
X118627006Y-36039000D03*
X118627006Y-36939000D03*
X122950006Y-67746000D03*
X122950006Y-66846000D03*
X122050006Y-66846000D03*
X122050006Y-67746000D03*
D13*
X137999991Y-39877777D03*
D12*
X133219006Y-78015000D03*
X133219006Y-77115000D03*
X132319006Y-77115000D03*
X132319006Y-78015000D03*
X129796006Y-84861000D03*
X129796006Y-83961000D03*
X128896006Y-83961000D03*
X128896006Y-84861000D03*
X84527006Y-129360000D03*
X84527006Y-128460000D03*
X83627006Y-128460000D03*
X83627006Y-129360000D03*
X91373006Y-81438000D03*
X91373006Y-80538000D03*
X90473006Y-80538000D03*
X90473006Y-81438000D03*
X129796006Y-74592000D03*
X129796006Y-73692000D03*
X128896006Y-73692000D03*
X128896006Y-74592000D03*
D13*
X138000002Y-20833334D03*
D12*
X77681006Y-112245000D03*
X77681006Y-111345000D03*
X76781006Y-111345000D03*
X76781006Y-112245000D03*
X94796006Y-105399000D03*
X94796006Y-104499000D03*
X93896006Y-104499000D03*
X93896006Y-105399000D03*
X81104006Y-112245000D03*
X81104006Y-111345000D03*
X80204006Y-111345000D03*
X80204006Y-112245000D03*
X91373006Y-88284000D03*
X91373006Y-87384000D03*
X90473006Y-87384000D03*
X90473006Y-88284000D03*
X133219006Y-115668000D03*
X133219006Y-114768000D03*
X132319006Y-114768000D03*
X132319006Y-115668000D03*
X74258006Y-84861000D03*
X74258006Y-83961000D03*
X73358006Y-83961000D03*
X73358006Y-84861000D03*
X87950006Y-125937000D03*
X87950006Y-125037000D03*
X87050006Y-125037000D03*
X87050006Y-125937000D03*
X109258006Y-74592000D03*
X109258006Y-73692000D03*
X108358006Y-73692000D03*
X108358006Y-74592000D03*
X101642006Y-122514000D03*
X101642006Y-121614000D03*
X100742006Y-121614000D03*
X100742006Y-122514000D03*
X77681006Y-84861000D03*
X77681006Y-83961000D03*
X76781006Y-83961000D03*
X76781006Y-84861000D03*
X119527006Y-50631000D03*
X119527006Y-49731000D03*
X118627006Y-49731000D03*
X118627006Y-50631000D03*
D14*
X142000003Y-23000000D03*
D12*
X122950006Y-50631000D03*
X122950006Y-49731000D03*
X122050006Y-49731000D03*
X122050006Y-50631000D03*
D13*
X138000002Y-23333334D03*
D12*
X129796006Y-47208000D03*
X129796006Y-46308000D03*
X128896006Y-46308000D03*
X128896006Y-47208000D03*
X77681006Y-122514000D03*
X77681006Y-121614000D03*
X76781006Y-121614000D03*
X76781006Y-122514000D03*
X119527006Y-33516000D03*
X119527006Y-32616000D03*
X118627006Y-32616000D03*
X118627006Y-33516000D03*
D13*
X102999995Y-77011109D03*
D12*
X119527006Y-30093000D03*
X119527006Y-29193000D03*
X118627006Y-29193000D03*
X118627006Y-30093000D03*
D13*
X140833336Y-27000000D03*
D12*
X94796006Y-91707000D03*
X94796006Y-90807000D03*
X93896006Y-90807000D03*
X93896006Y-91707000D03*
X74258006Y-74592000D03*
X74258006Y-73692000D03*
X73358006Y-73692000D03*
X73358006Y-74592000D03*
X91373006Y-47208000D03*
X91373006Y-46308000D03*
X90473006Y-46308000D03*
X90473006Y-47208000D03*
X129796006Y-64323000D03*
X129796006Y-63423000D03*
X128896006Y-63423000D03*
X128896006Y-64323000D03*
X84527006Y-43785000D03*
X84527006Y-42885000D03*
X83627006Y-42885000D03*
X83627006Y-43785000D03*
X84527006Y-115668000D03*
X84527006Y-114768000D03*
X83627006Y-114768000D03*
X83627006Y-115668000D03*
X74258006Y-98553000D03*
X74258006Y-97653000D03*
X73358006Y-97653000D03*
X73358006Y-98553000D03*
X81104006Y-88284000D03*
X81104006Y-87384000D03*
X80204006Y-87384000D03*
X80204006Y-88284000D03*
X126373006Y-132783000D03*
X126373006Y-131883000D03*
X125473006Y-131883000D03*
X125473006Y-132783000D03*
X119527006Y-105399000D03*
X119527006Y-104499000D03*
X118627006Y-104499000D03*
X118627006Y-105399000D03*
X122950006Y-33516000D03*
X122950006Y-32616000D03*
X122050006Y-32616000D03*
X122050006Y-33516000D03*
D13*
X103000001Y-126522218D03*
D12*
X133219006Y-98553000D03*
X133219006Y-97653000D03*
X132319006Y-97653000D03*
X132319006Y-98553000D03*
X136642006Y-101976000D03*
X136642006Y-101076000D03*
X135742006Y-101076000D03*
X135742006Y-101976000D03*
X84527006Y-112245000D03*
X84527006Y-111345000D03*
X83627006Y-111345000D03*
X83627006Y-112245000D03*
D13*
X71999997Y-24166667D03*
X128166667Y-27000001D03*
D12*
X87950006Y-136206000D03*
X87950006Y-135306000D03*
X87050006Y-135306000D03*
X87050006Y-136206000D03*
D13*
X102999991Y-38877777D03*
D12*
X122950006Y-125937000D03*
X122950006Y-125037000D03*
X122050006Y-125037000D03*
X122050006Y-125937000D03*
X109258006Y-33516000D03*
X109258006Y-32616000D03*
X108358006Y-32616000D03*
X108358006Y-33516000D03*
X126373006Y-98553000D03*
X126373006Y-97653000D03*
X125473006Y-97653000D03*
X125473006Y-98553000D03*
X74258006Y-88284000D03*
X74258006Y-87384000D03*
X73358006Y-87384000D03*
X73358006Y-88284000D03*
X77681006Y-36939000D03*
X77681006Y-36039000D03*
X76781006Y-36039000D03*
X76781006Y-36939000D03*
D13*
X102999997Y-90388886D03*
X69999997Y-27000000D03*
X140000003Y-27000000D03*
X137999997Y-88388886D03*
D12*
X129796006Y-122514000D03*
X129796006Y-121614000D03*
X128896006Y-121614000D03*
X128896006Y-122514000D03*
X91373006Y-40362000D03*
X91373006Y-39462000D03*
X90473006Y-39462000D03*
X90473006Y-40362000D03*
X84527006Y-74592000D03*
X84527006Y-73692000D03*
X83627006Y-73692000D03*
X83627006Y-74592000D03*
X87950006Y-33516000D03*
X87950006Y-32616000D03*
X87050006Y-32616000D03*
X87050006Y-33516000D03*
X122950006Y-101976000D03*
X122950006Y-101076000D03*
X122050006Y-101076000D03*
X122050006Y-101976000D03*
D13*
X107000005Y-37877777D03*
X102999999Y-112144441D03*
D12*
X81104006Y-78015000D03*
X81104006Y-77115000D03*
X80204006Y-77115000D03*
X80204006Y-78015000D03*
X94796006Y-81438000D03*
X94796006Y-80538000D03*
X93896006Y-80538000D03*
X93896006Y-81438000D03*
D13*
X102999997Y-88388886D03*
D12*
X94796006Y-88284000D03*
X94796006Y-87384000D03*
X93896006Y-87384000D03*
X93896006Y-88284000D03*
X133219006Y-132783000D03*
X133219006Y-131883000D03*
X132319006Y-131883000D03*
X132319006Y-132783000D03*
X136642006Y-54054000D03*
X136642006Y-53154000D03*
X135742006Y-53154000D03*
X135742006Y-54054000D03*
X84527006Y-119091000D03*
X84527006Y-118191000D03*
X83627006Y-118191000D03*
X83627006Y-119091000D03*
X98219006Y-47208000D03*
X98219006Y-46308000D03*
X97319006Y-46308000D03*
X97319006Y-47208000D03*
X81104006Y-57477000D03*
X81104006Y-56577000D03*
X80204006Y-56577000D03*
X80204006Y-57477000D03*
X116104006Y-71169000D03*
X116104006Y-70269000D03*
X115204006Y-70269000D03*
X115204006Y-71169000D03*
X98219006Y-88284000D03*
X98219006Y-87384000D03*
X97319006Y-87384000D03*
X97319006Y-88284000D03*
X101642006Y-78015000D03*
X101642006Y-77115000D03*
X100742006Y-77115000D03*
X100742006Y-78015000D03*
X112681006Y-129360000D03*
X112681006Y-128460000D03*
X111781006Y-128460000D03*
X111781006Y-129360000D03*
D13*
X137999991Y-40877777D03*
D12*
X122950006Y-64323000D03*
X122950006Y-63423000D03*
X122050006Y-63423000D03*
X122050006Y-64323000D03*
D13*
X107000001Y-77011109D03*
D12*
X116104006Y-115668000D03*
X116104006Y-114768000D03*
X115204006Y-114768000D03*
X115204006Y-115668000D03*
D13*
X102999997Y-87388886D03*
D12*
X74258006Y-136206000D03*
X74258006Y-135306000D03*
X73358006Y-135306000D03*
X73358006Y-136206000D03*
X129796006Y-95130000D03*
X129796006Y-94230000D03*
X128896006Y-94230000D03*
X128896006Y-95130000D03*
X77681006Y-136206000D03*
X77681006Y-135306000D03*
X76781006Y-135306000D03*
X76781006Y-136206000D03*
X77681006Y-115668000D03*
X77681006Y-114768000D03*
X76781006Y-114768000D03*
X76781006Y-115668000D03*
X112681006Y-54054000D03*
X112681006Y-53154000D03*
X111781006Y-53154000D03*
X111781006Y-54054000D03*
X116104006Y-60900000D03*
X116104006Y-60000000D03*
X115204006Y-60000000D03*
X115204006Y-60900000D03*
D13*
X68333331Y-27000000D03*
D12*
X129796006Y-33516000D03*
X129796006Y-32616000D03*
X128896006Y-32616000D03*
X128896006Y-33516000D03*
X119527006Y-54054000D03*
X119527006Y-53154000D03*
X118627006Y-53154000D03*
X118627006Y-54054000D03*
D13*
X65833331Y-138399996D03*
X143333336Y-27000000D03*
D12*
X119527006Y-119091000D03*
X119527006Y-118191000D03*
X118627006Y-118191000D03*
X118627006Y-119091000D03*
X109258006Y-108822000D03*
X109258006Y-107922000D03*
X108358006Y-107922000D03*
X108358006Y-108822000D03*
D13*
X65833331Y-27000000D03*
X107000001Y-75011109D03*
D12*
X133219006Y-33516000D03*
X133219006Y-32616000D03*
X132319006Y-32616000D03*
X132319006Y-33516000D03*
X87950006Y-60900000D03*
X87950006Y-60000000D03*
X87050006Y-60000000D03*
X87050006Y-60900000D03*
X129796006Y-36939000D03*
X129796006Y-36039000D03*
X128896006Y-36039000D03*
X128896006Y-36939000D03*
D13*
X107000002Y-65633332D03*
D12*
X133219006Y-67746000D03*
X133219006Y-66846000D03*
X132319006Y-66846000D03*
X132319006Y-67746000D03*
D13*
X118833331Y-27000000D03*
D12*
X101642006Y-105399000D03*
X101642006Y-104499000D03*
X100742006Y-104499000D03*
X100742006Y-105399000D03*
D13*
X138000002Y-21666667D03*
X72000004Y-53255554D03*
X72000002Y-77011109D03*
D12*
X122950006Y-84861000D03*
X122950006Y-83961000D03*
X122050006Y-83961000D03*
X122050006Y-84861000D03*
X74258006Y-91707000D03*
X74258006Y-90807000D03*
X73358006Y-90807000D03*
X73358006Y-91707000D03*
X119527006Y-91707000D03*
X119527006Y-90807000D03*
X118627006Y-90807000D03*
X118627006Y-91707000D03*
X94796006Y-112245000D03*
X94796006Y-111345000D03*
X93896006Y-111345000D03*
X93896006Y-112245000D03*
X122950006Y-98553000D03*
X122950006Y-97653000D03*
X122050006Y-97653000D03*
X122050006Y-98553000D03*
X94796006Y-98553000D03*
X94796006Y-97653000D03*
X93896006Y-97653000D03*
X93896006Y-98553000D03*
D13*
X68333331Y-138399996D03*
X107000000Y-87388886D03*
D12*
X136642006Y-78015000D03*
X136642006Y-77115000D03*
X135742006Y-77115000D03*
X135742006Y-78015000D03*
X87950006Y-78015000D03*
X87950006Y-77115000D03*
X87050006Y-77115000D03*
X87050006Y-78015000D03*
D13*
X72000004Y-51255554D03*
D12*
X84527006Y-125937000D03*
X84527006Y-125037000D03*
X83627006Y-125037000D03*
X83627006Y-125937000D03*
D13*
X137999998Y-100766663D03*
D12*
X74258006Y-71169000D03*
X74258006Y-70269000D03*
X73358006Y-70269000D03*
X73358006Y-71169000D03*
X119527006Y-112245000D03*
X119527006Y-111345000D03*
X118627006Y-111345000D03*
X118627006Y-112245000D03*
X136642006Y-50631000D03*
X136642006Y-49731000D03*
X135742006Y-49731000D03*
X135742006Y-50631000D03*
D13*
X142500003Y-27000000D03*
D12*
X116104006Y-50631000D03*
X116104006Y-49731000D03*
X115204006Y-49731000D03*
X115204006Y-50631000D03*
X112681006Y-105399000D03*
X112681006Y-104499000D03*
X111781006Y-104499000D03*
X111781006Y-105399000D03*
X122950006Y-74592000D03*
X122950006Y-73692000D03*
X122050006Y-73692000D03*
X122050006Y-74592000D03*
D13*
X107000002Y-63633332D03*
D12*
X119527006Y-136206000D03*
X119527006Y-135306000D03*
X118627006Y-135306000D03*
X118627006Y-136206000D03*
X94796006Y-132783000D03*
X94796006Y-131883000D03*
X93896006Y-131883000D03*
X93896006Y-132783000D03*
D13*
X102999994Y-63633332D03*
D12*
X136642006Y-119091000D03*
X136642006Y-118191000D03*
X135742006Y-118191000D03*
X135742006Y-119091000D03*
X109258006Y-132783000D03*
X109258006Y-131883000D03*
X108358006Y-131883000D03*
X108358006Y-132783000D03*
D13*
X138000002Y-143733328D03*
D12*
X101642006Y-30093000D03*
X101642006Y-29193000D03*
X100742006Y-29193000D03*
X100742006Y-30093000D03*
X98219006Y-98553000D03*
X98219006Y-97653000D03*
X97319006Y-97653000D03*
X97319006Y-98553000D03*
X109258006Y-64323000D03*
X109258006Y-63423000D03*
X108358006Y-63423000D03*
X108358006Y-64323000D03*
X77681006Y-101976000D03*
X77681006Y-101076000D03*
X76781006Y-101076000D03*
X76781006Y-101976000D03*
X119527006Y-129360000D03*
X119527006Y-128460000D03*
X118627006Y-128460000D03*
X118627006Y-129360000D03*
D13*
X107000004Y-40877777D03*
D12*
X109258006Y-47208000D03*
X109258006Y-46308000D03*
X108358006Y-46308000D03*
X108358006Y-47208000D03*
D13*
X102999998Y-100766663D03*
D12*
X77681006Y-47208000D03*
X77681006Y-46308000D03*
X76781006Y-46308000D03*
X76781006Y-47208000D03*
X98219006Y-122514000D03*
X98219006Y-121614000D03*
X97319006Y-121614000D03*
X97319006Y-122514000D03*
X101642006Y-88284000D03*
X101642006Y-87384000D03*
X100742006Y-87384000D03*
X100742006Y-88284000D03*
X91373006Y-33516000D03*
X91373006Y-32616000D03*
X90473006Y-32616000D03*
X90473006Y-33516000D03*
X81104006Y-95130000D03*
X81104006Y-94230000D03*
X80204006Y-94230000D03*
X80204006Y-95130000D03*
D13*
X72000001Y-89388886D03*
D12*
X77681006Y-74592000D03*
X77681006Y-73692000D03*
X76781006Y-73692000D03*
X76781006Y-74592000D03*
D13*
X106999998Y-113144441D03*
D12*
X91373006Y-84861000D03*
X91373006Y-83961000D03*
X90473006Y-83961000D03*
X90473006Y-84861000D03*
D13*
X71999997Y-126522218D03*
D15*
X67999997Y-36500000D03*
D13*
X138000002Y-25000000D03*
D12*
X81104006Y-122514000D03*
X81104006Y-121614000D03*
X80204006Y-121614000D03*
X80204006Y-122514000D03*
X109258006Y-95130000D03*
X109258006Y-94230000D03*
X108358006Y-94230000D03*
X108358006Y-95130000D03*
D13*
X107000001Y-78011109D03*
X141666669Y-27000000D03*
D12*
X101642006Y-129360000D03*
X101642006Y-128460000D03*
X100742006Y-128460000D03*
X100742006Y-129360000D03*
X119527006Y-101976000D03*
X119527006Y-101076000D03*
X118627006Y-101076000D03*
X118627006Y-101976000D03*
D14*
X67999997Y-142399995D03*
D13*
X138000002Y-22500000D03*
D12*
X129796006Y-30093000D03*
X129796006Y-29193000D03*
X128896006Y-29193000D03*
X128896006Y-30093000D03*
X112681006Y-119091000D03*
X112681006Y-118191000D03*
X111781006Y-118191000D03*
X111781006Y-119091000D03*
D13*
X138000000Y-113144441D03*
D12*
X119527006Y-125937000D03*
X119527006Y-125037000D03*
X118627006Y-125037000D03*
X118627006Y-125937000D03*
X84527006Y-101976000D03*
X84527006Y-101076000D03*
X83627006Y-101076000D03*
X83627006Y-101976000D03*
X77681006Y-71169000D03*
X77681006Y-70269000D03*
X76781006Y-70269000D03*
X76781006Y-71169000D03*
X98219006Y-33516000D03*
X98219006Y-32616000D03*
X97319006Y-32616000D03*
X97319006Y-33516000D03*
X116104006Y-129360000D03*
X116104006Y-128460000D03*
X115204006Y-128460000D03*
X115204006Y-129360000D03*
D13*
X103000001Y-125522218D03*
D12*
X129796006Y-125937000D03*
X129796006Y-125037000D03*
X128896006Y-125037000D03*
X128896006Y-125937000D03*
D13*
X72000000Y-102766663D03*
D12*
X116104006Y-112245000D03*
X116104006Y-111345000D03*
X115204006Y-111345000D03*
X115204006Y-112245000D03*
X74258006Y-60900000D03*
X74258006Y-60000000D03*
X73358006Y-60000000D03*
X73358006Y-60900000D03*
X101642006Y-125937000D03*
X101642006Y-125037000D03*
X100742006Y-125037000D03*
X100742006Y-125937000D03*
X112681006Y-108822000D03*
X112681006Y-107922000D03*
X111781006Y-107922000D03*
X111781006Y-108822000D03*
X126373006Y-50631000D03*
X126373006Y-49731000D03*
X125473006Y-49731000D03*
X125473006Y-50631000D03*
X84527006Y-54054000D03*
X84527006Y-53154000D03*
X83627006Y-53154000D03*
X83627006Y-54054000D03*
X81104006Y-84861000D03*
X81104006Y-83961000D03*
X80204006Y-83961000D03*
X80204006Y-84861000D03*
X77681006Y-119091000D03*
X77681006Y-118191000D03*
X76781006Y-118191000D03*
X76781006Y-119091000D03*
X136642006Y-129360000D03*
X136642006Y-128460000D03*
X135742006Y-128460000D03*
X135742006Y-129360000D03*
X77681006Y-57477000D03*
X77681006Y-56577000D03*
X76781006Y-56577000D03*
X76781006Y-57477000D03*
X91373006Y-36939000D03*
X91373006Y-36039000D03*
X90473006Y-36039000D03*
X90473006Y-36939000D03*
D13*
X81833332Y-138399995D03*
D12*
X84527006Y-81438000D03*
X84527006Y-80538000D03*
X83627006Y-80538000D03*
X83627006Y-81438000D03*
X77681006Y-88284000D03*
X77681006Y-87384000D03*
X76781006Y-87384000D03*
X76781006Y-88284000D03*
X136642006Y-136206000D03*
X136642006Y-135306000D03*
X135742006Y-135306000D03*
X135742006Y-136206000D03*
X126373006Y-43785000D03*
X126373006Y-42885000D03*
X125473006Y-42885000D03*
X125473006Y-43785000D03*
X81104006Y-98553000D03*
X81104006Y-97653000D03*
X80204006Y-97653000D03*
X80204006Y-98553000D03*
X77681006Y-67746000D03*
X77681006Y-66846000D03*
X76781006Y-66846000D03*
X76781006Y-67746000D03*
X129796006Y-119091000D03*
X129796006Y-118191000D03*
X128896006Y-118191000D03*
X128896006Y-119091000D03*
D13*
X107000000Y-89388886D03*
D12*
X116104006Y-81438000D03*
X116104006Y-80538000D03*
X115204006Y-80538000D03*
X115204006Y-81438000D03*
X81104006Y-129360000D03*
X81104006Y-128460000D03*
X80204006Y-128460000D03*
X80204006Y-129360000D03*
X122950006Y-112245000D03*
X122950006Y-111345000D03*
X122050006Y-111345000D03*
X122050006Y-112245000D03*
D13*
X102999994Y-62633332D03*
D12*
X112681006Y-88284000D03*
X112681006Y-87384000D03*
X111781006Y-87384000D03*
X111781006Y-88284000D03*
D13*
X91166667Y-27000001D03*
X137999991Y-37877777D03*
D12*
X84527006Y-136206000D03*
X84527006Y-135306000D03*
X83627006Y-135306000D03*
X83627006Y-136206000D03*
X126373006Y-125937000D03*
X126373006Y-125037000D03*
X125473006Y-125037000D03*
X125473006Y-125937000D03*
D13*
X107000002Y-62633332D03*
D12*
X122950006Y-108822000D03*
X122950006Y-107922000D03*
X122050006Y-107922000D03*
X122050006Y-108822000D03*
D13*
X138000002Y-142899995D03*
D12*
X122950006Y-36939000D03*
X122950006Y-36039000D03*
X122050006Y-36039000D03*
X122050006Y-36939000D03*
D13*
X106999999Y-100766663D03*
D12*
X133219006Y-112245000D03*
X133219006Y-111345000D03*
X132319006Y-111345000D03*
X132319006Y-112245000D03*
X133219006Y-136206000D03*
X133219006Y-135306000D03*
X132319006Y-135306000D03*
X132319006Y-136206000D03*
X112681006Y-30093000D03*
X112681006Y-29193000D03*
X111781006Y-29193000D03*
X111781006Y-30093000D03*
D13*
X137999998Y-101766663D03*
X72000005Y-39877777D03*
X115833331Y-138399995D03*
D12*
X87950006Y-36939000D03*
X87950006Y-36039000D03*
X87050006Y-36039000D03*
X87050006Y-36939000D03*
X133219006Y-40362000D03*
X133219006Y-39462000D03*
X132319006Y-39462000D03*
X132319006Y-40362000D03*
X94796006Y-84861000D03*
X94796006Y-83961000D03*
X93896006Y-83961000D03*
X93896006Y-84861000D03*
X87950006Y-132783000D03*
X87950006Y-131883000D03*
X87050006Y-131883000D03*
X87050006Y-132783000D03*
X91373006Y-30093000D03*
X91373006Y-29193000D03*
X90473006Y-29193000D03*
X90473006Y-30093000D03*
D13*
X138000002Y-24166667D03*
D12*
X116104006Y-84861000D03*
X116104006Y-83961000D03*
X115204006Y-83961000D03*
X115204006Y-84861000D03*
X91373006Y-71169000D03*
X91373006Y-70269000D03*
X90473006Y-70269000D03*
X90473006Y-71169000D03*
D13*
X106999996Y-127522218D03*
D12*
X101642006Y-84861000D03*
X101642006Y-83961000D03*
X100742006Y-83961000D03*
X100742006Y-84861000D03*
D13*
X69166664Y-27000000D03*
X137999997Y-89388886D03*
D12*
X84527006Y-36939000D03*
X84527006Y-36039000D03*
X83627006Y-36039000D03*
X83627006Y-36939000D03*
X84527006Y-47208000D03*
X84527006Y-46308000D03*
X83627006Y-46308000D03*
X83627006Y-47208000D03*
X81104006Y-71169000D03*
X81104006Y-70269000D03*
X80204006Y-70269000D03*
X80204006Y-71169000D03*
X91373006Y-101976000D03*
X91373006Y-101076000D03*
X90473006Y-101076000D03*
X90473006Y-101976000D03*
X74258006Y-95130000D03*
X74258006Y-94230000D03*
X73358006Y-94230000D03*
X73358006Y-95130000D03*
X116104006Y-43785000D03*
X116104006Y-42885000D03*
X115204006Y-42885000D03*
X115204006Y-43785000D03*
X116104006Y-67746000D03*
X116104006Y-66846000D03*
X115204006Y-66846000D03*
X115204006Y-67746000D03*
X74258006Y-122514000D03*
X74258006Y-121614000D03*
X73358006Y-121614000D03*
X73358006Y-122514000D03*
D13*
X138000002Y-142066661D03*
D12*
X126373006Y-122514000D03*
X126373006Y-121614000D03*
X125473006Y-121614000D03*
X125473006Y-122514000D03*
X81104006Y-101976000D03*
X81104006Y-101076000D03*
X80204006Y-101076000D03*
X80204006Y-101976000D03*
D13*
X138000002Y-20000000D03*
X138000002Y-140399995D03*
D12*
X98219006Y-136206000D03*
X98219006Y-135306000D03*
X97319006Y-135306000D03*
X97319006Y-136206000D03*
D13*
X71999997Y-20000000D03*
X106999997Y-125522218D03*
D12*
X122950006Y-81438000D03*
X122950006Y-80538000D03*
X122050006Y-80538000D03*
X122050006Y-81438000D03*
X133219006Y-81438000D03*
X133219006Y-80538000D03*
X132319006Y-80538000D03*
X132319006Y-81438000D03*
X136642006Y-33516000D03*
X136642006Y-32616000D03*
X135742006Y-32616000D03*
X135742006Y-33516000D03*
X74258006Y-64323000D03*
X74258006Y-63423000D03*
X73358006Y-63423000D03*
X73358006Y-64323000D03*
D13*
X92166667Y-138399995D03*
D12*
X74258006Y-101976000D03*
X74258006Y-101076000D03*
X73358006Y-101076000D03*
X73358006Y-101976000D03*
X109258006Y-30093000D03*
X109258006Y-29193000D03*
X108358006Y-29193000D03*
X108358006Y-30093000D03*
X126373006Y-64323000D03*
X126373006Y-63423000D03*
X125473006Y-63423000D03*
X125473006Y-64323000D03*
X129796006Y-57477000D03*
X129796006Y-56577000D03*
X128896006Y-56577000D03*
X128896006Y-57477000D03*
D13*
X72000000Y-101766663D03*
D12*
X116104006Y-105399000D03*
X116104006Y-104499000D03*
X115204006Y-104499000D03*
X115204006Y-105399000D03*
X98219006Y-74592000D03*
X98219006Y-73692000D03*
X97319006Y-73692000D03*
X97319006Y-74592000D03*
D13*
X138000002Y-145399995D03*
X91166667Y-138399995D03*
D12*
X116104006Y-136206000D03*
X116104006Y-135306000D03*
X115204006Y-135306000D03*
X115204006Y-136206000D03*
X77681006Y-108822000D03*
X77681006Y-107922000D03*
X76781006Y-107922000D03*
X76781006Y-108822000D03*
X84527006Y-30093000D03*
X84527006Y-29193000D03*
X83627006Y-29193000D03*
X83627006Y-30093000D03*
X112681006Y-95130000D03*
X112681006Y-94230000D03*
X111781006Y-94230000D03*
X111781006Y-95130000D03*
D13*
X103000001Y-124522218D03*
D12*
X133219006Y-129360000D03*
X133219006Y-128460000D03*
X132319006Y-128460000D03*
X132319006Y-129360000D03*
X87950006Y-54054000D03*
X87950006Y-53154000D03*
X87050006Y-53154000D03*
X87050006Y-54054000D03*
X84527006Y-71169000D03*
X84527006Y-70269000D03*
X83627006Y-70269000D03*
X83627006Y-71169000D03*
X77681006Y-64323000D03*
X77681006Y-63423000D03*
X76781006Y-63423000D03*
X76781006Y-64323000D03*
X136642006Y-108822000D03*
X136642006Y-107922000D03*
X135742006Y-107922000D03*
X135742006Y-108822000D03*
X129796006Y-67746000D03*
X129796006Y-66846000D03*
X128896006Y-66846000D03*
X128896006Y-67746000D03*
X74258006Y-67746000D03*
X74258006Y-66846000D03*
X73358006Y-66846000D03*
X73358006Y-67746000D03*
X91373006Y-43785000D03*
X91373006Y-42885000D03*
X90473006Y-42885000D03*
X90473006Y-43785000D03*
D13*
X67499997Y-138399996D03*
D12*
X94796006Y-78015000D03*
X94796006Y-77115000D03*
X93896006Y-77115000D03*
X93896006Y-78015000D03*
D13*
X137999992Y-52255554D03*
X137999995Y-75011109D03*
X117833331Y-27000000D03*
D12*
X98219006Y-50631000D03*
X98219006Y-49731000D03*
X97319006Y-49731000D03*
X97319006Y-50631000D03*
X126373006Y-108822000D03*
X126373006Y-107922000D03*
X125473006Y-107922000D03*
X125473006Y-108822000D03*
X91373006Y-95130000D03*
X91373006Y-94230000D03*
X90473006Y-94230000D03*
X90473006Y-95130000D03*
X91373006Y-57477000D03*
X91373006Y-56577000D03*
X90473006Y-56577000D03*
X90473006Y-57477000D03*
X84527006Y-40362000D03*
X84527006Y-39462000D03*
X83627006Y-39462000D03*
X83627006Y-40362000D03*
D13*
X107000003Y-50255554D03*
X106999998Y-112144441D03*
D12*
X84527006Y-88284000D03*
X84527006Y-87384000D03*
X83627006Y-87384000D03*
X83627006Y-88284000D03*
D13*
X138000000Y-115144441D03*
D12*
X77681006Y-43785000D03*
X77681006Y-42885000D03*
X76781006Y-42885000D03*
X76781006Y-43785000D03*
X87950006Y-57477000D03*
X87950006Y-56577000D03*
X87050006Y-56577000D03*
X87050006Y-57477000D03*
X122950006Y-115668000D03*
X122950006Y-114768000D03*
X122050006Y-114768000D03*
X122050006Y-115668000D03*
X74258006Y-78015000D03*
X74258006Y-77115000D03*
X73358006Y-77115000D03*
X73358006Y-78015000D03*
X81104006Y-36939000D03*
X81104006Y-36039000D03*
X80204006Y-36039000D03*
X80204006Y-36939000D03*
X133219006Y-91707000D03*
X133219006Y-90807000D03*
X132319006Y-90807000D03*
X132319006Y-91707000D03*
X77681006Y-105399000D03*
X77681006Y-104499000D03*
X76781006Y-104499000D03*
X76781006Y-105399000D03*
D13*
X93166667Y-138399995D03*
D12*
X119527006Y-57477000D03*
X119527006Y-56577000D03*
X118627006Y-56577000D03*
X118627006Y-57477000D03*
X84527006Y-57477000D03*
X84527006Y-56577000D03*
X83627006Y-56577000D03*
X83627006Y-57477000D03*
X133219006Y-64323000D03*
X133219006Y-63423000D03*
X132319006Y-63423000D03*
X132319006Y-64323000D03*
X87950006Y-119091000D03*
X87950006Y-118191000D03*
X87050006Y-118191000D03*
X87050006Y-119091000D03*
X98219006Y-112245000D03*
X98219006Y-111345000D03*
X97319006Y-111345000D03*
X97319006Y-112245000D03*
X109258006Y-67746000D03*
X109258006Y-66846000D03*
X108358006Y-66846000D03*
X108358006Y-67746000D03*
X84527006Y-84861000D03*
X84527006Y-83961000D03*
X83627006Y-83961000D03*
X83627006Y-84861000D03*
X91373006Y-98553000D03*
X91373006Y-97653000D03*
X90473006Y-97653000D03*
X90473006Y-98553000D03*
X112681006Y-74592000D03*
X112681006Y-73692000D03*
X111781006Y-73692000D03*
X111781006Y-74592000D03*
X74258006Y-125937000D03*
X74258006Y-125037000D03*
X73358006Y-125037000D03*
X73358006Y-125937000D03*
X94796006Y-36939000D03*
X94796006Y-36039000D03*
X93896006Y-36039000D03*
X93896006Y-36939000D03*
X109258006Y-43785000D03*
X109258006Y-42885000D03*
X108358006Y-42885000D03*
X108358006Y-43785000D03*
X87950006Y-105399000D03*
X87950006Y-104499000D03*
X87050006Y-104499000D03*
X87050006Y-105399000D03*
D13*
X129166667Y-27000001D03*
D12*
X94796006Y-122514000D03*
X94796006Y-121614000D03*
X93896006Y-121614000D03*
X93896006Y-122514000D03*
X74258006Y-40362000D03*
X74258006Y-39462000D03*
X73358006Y-39462000D03*
X73358006Y-40362000D03*
X116104006Y-57477000D03*
X116104006Y-56577000D03*
X115204006Y-56577000D03*
X115204006Y-57477000D03*
X129796006Y-101976000D03*
X129796006Y-101076000D03*
X128896006Y-101076000D03*
X128896006Y-101976000D03*
X129796006Y-132783000D03*
X129796006Y-131883000D03*
X128896006Y-131883000D03*
X128896006Y-132783000D03*
X101642006Y-91707000D03*
X101642006Y-90807000D03*
X100742006Y-90807000D03*
X100742006Y-91707000D03*
X77681006Y-50631000D03*
X77681006Y-49731000D03*
X76781006Y-49731000D03*
X76781006Y-50631000D03*
X116104006Y-122514000D03*
X116104006Y-121614000D03*
X115204006Y-121614000D03*
X115204006Y-122514000D03*
X77681006Y-129360000D03*
X77681006Y-128460000D03*
X76781006Y-128460000D03*
X76781006Y-129360000D03*
X87950006Y-101976000D03*
X87950006Y-101076000D03*
X87050006Y-101076000D03*
X87050006Y-101976000D03*
X91373006Y-105399000D03*
X91373006Y-104499000D03*
X90473006Y-104499000D03*
X90473006Y-105399000D03*
X101642006Y-74592000D03*
X101642006Y-73692000D03*
X100742006Y-73692000D03*
X100742006Y-74592000D03*
X116104006Y-33516000D03*
X116104006Y-32616000D03*
X115204006Y-32616000D03*
X115204006Y-33516000D03*
X133219006Y-125937000D03*
X133219006Y-125037000D03*
X132319006Y-125037000D03*
X132319006Y-125937000D03*
X112681006Y-43785000D03*
X112681006Y-42885000D03*
X111781006Y-42885000D03*
X111781006Y-43785000D03*
D14*
X142000003Y-142399995D03*
D13*
X143333336Y-138399996D03*
X67499997Y-27000000D03*
D12*
X109258006Y-81438000D03*
X109258006Y-80538000D03*
X108358006Y-80538000D03*
X108358006Y-81438000D03*
X84527006Y-50631000D03*
X84527006Y-49731000D03*
X83627006Y-49731000D03*
X83627006Y-50631000D03*
D13*
X145000003Y-138399996D03*
D12*
X98219006Y-57477000D03*
X98219006Y-56577000D03*
X97319006Y-56577000D03*
X97319006Y-57477000D03*
D13*
X137999995Y-78011109D03*
D12*
X109258006Y-105399000D03*
X109258006Y-104499000D03*
X108358006Y-104499000D03*
X108358006Y-105399000D03*
X133219006Y-101976000D03*
X133219006Y-101076000D03*
X132319006Y-101076000D03*
X132319006Y-101976000D03*
D15*
X142000003Y-36500000D03*
D13*
X72000003Y-64633332D03*
X71999997Y-23333334D03*
D12*
X122950006Y-136206000D03*
X122950006Y-135306000D03*
X122050006Y-135306000D03*
X122050006Y-136206000D03*
X74258006Y-108822000D03*
X74258006Y-107922000D03*
X73358006Y-107922000D03*
X73358006Y-108822000D03*
X91373006Y-122514000D03*
X91373006Y-121614000D03*
X90473006Y-121614000D03*
X90473006Y-122514000D03*
X77681006Y-91707000D03*
X77681006Y-90807000D03*
X76781006Y-90807000D03*
X76781006Y-91707000D03*
X136642006Y-91707000D03*
X136642006Y-90807000D03*
X135742006Y-90807000D03*
X135742006Y-91707000D03*
D13*
X102999992Y-52255554D03*
X137999994Y-62633332D03*
D12*
X112681006Y-64323000D03*
X112681006Y-63423000D03*
X111781006Y-63423000D03*
X111781006Y-64323000D03*
X126373006Y-57477000D03*
X126373006Y-56577000D03*
X125473006Y-56577000D03*
X125473006Y-57477000D03*
X87950006Y-84861000D03*
X87950006Y-83961000D03*
X87050006Y-83961000D03*
X87050006Y-84861000D03*
X87950006Y-50631000D03*
X87950006Y-49731000D03*
X87050006Y-49731000D03*
X87050006Y-50631000D03*
D13*
X126166667Y-138399995D03*
X66666664Y-138399996D03*
D12*
X81104006Y-60900000D03*
X81104006Y-60000000D03*
X80204006Y-60000000D03*
X80204006Y-60900000D03*
X122950006Y-71169000D03*
X122950006Y-70269000D03*
X122050006Y-70269000D03*
X122050006Y-71169000D03*
D13*
X137999995Y-77011109D03*
D12*
X116104006Y-125937000D03*
X116104006Y-125037000D03*
X115204006Y-125037000D03*
X115204006Y-125937000D03*
D13*
X137999997Y-90388886D03*
X64999997Y-27000000D03*
D12*
X84527006Y-105399000D03*
X84527006Y-104499000D03*
X83627006Y-104499000D03*
X83627006Y-105399000D03*
D13*
X137999997Y-87388886D03*
D12*
X136642006Y-43785000D03*
X136642006Y-42885000D03*
X135742006Y-42885000D03*
X135742006Y-43785000D03*
X112681006Y-78015000D03*
X112681006Y-77115000D03*
X111781006Y-77115000D03*
X111781006Y-78015000D03*
X122950006Y-40362000D03*
X122950006Y-39462000D03*
X122050006Y-39462000D03*
X122050006Y-40362000D03*
X74258006Y-43785000D03*
X74258006Y-42885000D03*
X73358006Y-42885000D03*
X73358006Y-43785000D03*
D15*
X142000003Y-128899995D03*
D12*
X136642006Y-115668000D03*
X136642006Y-114768000D03*
X135742006Y-114768000D03*
X135742006Y-115668000D03*
X116104006Y-30093000D03*
X116104006Y-29193000D03*
X115204006Y-29193000D03*
X115204006Y-30093000D03*
D13*
X140833336Y-138399996D03*
X137999993Y-53255554D03*
X71999997Y-25000000D03*
D12*
X136642006Y-125937000D03*
X136642006Y-125037000D03*
X135742006Y-125037000D03*
X135742006Y-125937000D03*
D13*
X102999998Y-101766663D03*
D12*
X112681006Y-125937000D03*
X112681006Y-125037000D03*
X111781006Y-125037000D03*
X111781006Y-125937000D03*
D13*
X93166667Y-27000001D03*
D12*
X133219006Y-108822000D03*
X133219006Y-107922000D03*
X132319006Y-107922000D03*
X132319006Y-108822000D03*
D13*
X103000000Y-113144441D03*
D12*
X91373006Y-60900000D03*
X91373006Y-60000000D03*
X90473006Y-60000000D03*
X90473006Y-60900000D03*
X74258006Y-105399000D03*
X74258006Y-104499000D03*
X73358006Y-104499000D03*
X73358006Y-105399000D03*
D13*
X106999999Y-99766663D03*
X102999998Y-102766663D03*
D12*
X112681006Y-132783000D03*
X112681006Y-131883000D03*
X111781006Y-131883000D03*
X111781006Y-132783000D03*
X77681006Y-40362000D03*
X77681006Y-39462000D03*
X76781006Y-39462000D03*
X76781006Y-40362000D03*
X81104006Y-91707000D03*
X81104006Y-90807000D03*
X80204006Y-90807000D03*
X80204006Y-91707000D03*
X119527006Y-115668000D03*
X119527006Y-114768000D03*
X118627006Y-114768000D03*
X118627006Y-115668000D03*
X112681006Y-81438000D03*
X112681006Y-80538000D03*
X111781006Y-80538000D03*
X111781006Y-81438000D03*
D13*
X116833331Y-138399995D03*
D12*
X129796006Y-91707000D03*
X129796006Y-90807000D03*
X128896006Y-90807000D03*
X128896006Y-91707000D03*
X98219006Y-95130000D03*
X98219006Y-94230000D03*
X97319006Y-94230000D03*
X97319006Y-95130000D03*
X101642006Y-60900000D03*
X101642006Y-60000000D03*
X100742006Y-60000000D03*
X100742006Y-60900000D03*
X122950006Y-95130000D03*
X122950006Y-94230000D03*
X122050006Y-94230000D03*
X122050006Y-95130000D03*
X91373006Y-136206000D03*
X91373006Y-135306000D03*
X90473006Y-135306000D03*
X90473006Y-136206000D03*
D13*
X71999999Y-113144441D03*
D12*
X129796006Y-98553000D03*
X129796006Y-97653000D03*
X128896006Y-97653000D03*
X128896006Y-98553000D03*
D13*
X94166667Y-138399995D03*
D12*
X136642006Y-105399000D03*
X136642006Y-104499000D03*
X135742006Y-104499000D03*
X135742006Y-105399000D03*
D13*
X142500003Y-138399996D03*
D12*
X101642006Y-36939000D03*
X101642006Y-36039000D03*
X100742006Y-36039000D03*
X100742006Y-36939000D03*
X94796006Y-125937000D03*
X94796006Y-125037000D03*
X93896006Y-125037000D03*
X93896006Y-125937000D03*
X94796006Y-71169000D03*
X94796006Y-70269000D03*
X93896006Y-70269000D03*
X93896006Y-71169000D03*
X112681006Y-136206000D03*
X112681006Y-135306000D03*
X111781006Y-135306000D03*
X111781006Y-136206000D03*
X109258006Y-71169000D03*
X109258006Y-70269000D03*
X108358006Y-70269000D03*
X108358006Y-71169000D03*
X116104006Y-88284000D03*
X116104006Y-87384000D03*
X115204006Y-87384000D03*
X115204006Y-88284000D03*
X119527006Y-78015000D03*
X119527006Y-77115000D03*
X118627006Y-77115000D03*
X118627006Y-78015000D03*
X74258006Y-115668000D03*
X74258006Y-114768000D03*
X73358006Y-114768000D03*
X73358006Y-115668000D03*
D13*
X102999992Y-51255554D03*
D12*
X101642006Y-40362000D03*
X101642006Y-39462000D03*
X100742006Y-39462000D03*
X100742006Y-40362000D03*
X84527006Y-95130000D03*
X84527006Y-94230000D03*
X83627006Y-94230000D03*
X83627006Y-95130000D03*
X98219006Y-64323000D03*
X98219006Y-63423000D03*
X97319006Y-63423000D03*
X97319006Y-64323000D03*
%LPD*%
M02*
