G04 #@! TF.GenerationSoftware,KiCad,Pcbnew,7.0.7*
G04 #@! TF.CreationDate,2023-08-29T23:24:06-04:00*
G04 #@! TF.ProjectId,MicrocontrollerInputModule,4d696372-6f63-46f6-9e74-726f6c6c6572,V2*
G04 #@! TF.SameCoordinates,Original*
G04 #@! TF.FileFunction,Soldermask,Top*
G04 #@! TF.FilePolarity,Negative*
%FSLAX46Y46*%
G04 Gerber Fmt 4.6, Leading zero omitted, Abs format (unit mm)*
G04 Created by KiCad (PCBNEW 7.0.7) date 2023-08-29 23:24:06*
%MOMM*%
%LPD*%
G01*
G04 APERTURE LIST*
G04 Aperture macros list*
%AMRoundRect*
0 Rectangle with rounded corners*
0 $1 Rounding radius*
0 $2 $3 $4 $5 $6 $7 $8 $9 X,Y pos of 4 corners*
0 Add a 4 corners polygon primitive as box body*
4,1,4,$2,$3,$4,$5,$6,$7,$8,$9,$2,$3,0*
0 Add four circle primitives for the rounded corners*
1,1,$1+$1,$2,$3*
1,1,$1+$1,$4,$5*
1,1,$1+$1,$6,$7*
1,1,$1+$1,$8,$9*
0 Add four rect primitives between the rounded corners*
20,1,$1+$1,$2,$3,$4,$5,0*
20,1,$1+$1,$4,$5,$6,$7,0*
20,1,$1+$1,$6,$7,$8,$9,0*
20,1,$1+$1,$8,$9,$2,$3,0*%
G04 Aperture macros list end*
%ADD10R,0.500000X0.500000*%
%ADD11C,2.100000*%
%ADD12RoundRect,0.140000X-0.170000X0.140000X-0.170000X-0.140000X0.170000X-0.140000X0.170000X0.140000X0*%
%ADD13R,0.550000X1.500000*%
%ADD14C,6.200000*%
G04 APERTURE END LIST*
D10*
X77934000Y-153687500D03*
X77934000Y-152787500D03*
X77034000Y-152787500D03*
X77034000Y-153687500D03*
X67365000Y-132549500D03*
X67365000Y-131649500D03*
X66465000Y-131649500D03*
X66465000Y-132549500D03*
X81457000Y-90273500D03*
X81457000Y-89373500D03*
X80557000Y-89373500D03*
X80557000Y-90273500D03*
D11*
X80420000Y-169300000D03*
D10*
X74411000Y-69135500D03*
X74411000Y-68235500D03*
X73511000Y-68235500D03*
X73511000Y-69135500D03*
X60319000Y-153687500D03*
X60319000Y-152787500D03*
X59419000Y-152787500D03*
X59419000Y-153687500D03*
X53273000Y-136072500D03*
X53273000Y-135172500D03*
X52373000Y-135172500D03*
X52373000Y-136072500D03*
X70888000Y-104365500D03*
X70888000Y-103465500D03*
X69988000Y-103465500D03*
X69988000Y-104365500D03*
X63842000Y-97319500D03*
X63842000Y-96419500D03*
X62942000Y-96419500D03*
X62942000Y-97319500D03*
X67365000Y-107888500D03*
X67365000Y-106988500D03*
X66465000Y-106988500D03*
X66465000Y-107888500D03*
X81457000Y-93796500D03*
X81457000Y-92896500D03*
X80557000Y-92896500D03*
X80557000Y-93796500D03*
X67365000Y-111411500D03*
X67365000Y-110511500D03*
X66465000Y-110511500D03*
X66465000Y-111411500D03*
X60319000Y-76181500D03*
X60319000Y-75281500D03*
X59419000Y-75281500D03*
X59419000Y-76181500D03*
X81457000Y-121980500D03*
X81457000Y-121080500D03*
X80557000Y-121080500D03*
X80557000Y-121980500D03*
X60319000Y-114934500D03*
X60319000Y-114034500D03*
X59419000Y-114034500D03*
X59419000Y-114934500D03*
X56796000Y-114934500D03*
X56796000Y-114034500D03*
X55896000Y-114034500D03*
X55896000Y-114934500D03*
D12*
X65400000Y-77600000D03*
X65400000Y-78560000D03*
X65400000Y-56400000D03*
X65400000Y-57360000D03*
D10*
X70888000Y-146641500D03*
X70888000Y-145741500D03*
X69988000Y-145741500D03*
X69988000Y-146641500D03*
X67365000Y-100842500D03*
X67365000Y-99942500D03*
X66465000Y-99942500D03*
X66465000Y-100842500D03*
X77934000Y-160733500D03*
X77934000Y-159833500D03*
X77034000Y-159833500D03*
X77034000Y-160733500D03*
X81457000Y-143118500D03*
X81457000Y-142218500D03*
X80557000Y-142218500D03*
X80557000Y-143118500D03*
X53273000Y-164256500D03*
X53273000Y-163356500D03*
X52373000Y-163356500D03*
X52373000Y-164256500D03*
X56796000Y-76181500D03*
X56796000Y-75281500D03*
X55896000Y-75281500D03*
X55896000Y-76181500D03*
X67365000Y-143118500D03*
X67365000Y-142218500D03*
X66465000Y-142218500D03*
X66465000Y-143118500D03*
X77934000Y-136072500D03*
X77934000Y-135172500D03*
X77034000Y-135172500D03*
X77034000Y-136072500D03*
X67365000Y-146641500D03*
X67365000Y-145741500D03*
X66465000Y-145741500D03*
X66465000Y-146641500D03*
X70888000Y-107888500D03*
X70888000Y-106988500D03*
X69988000Y-106988500D03*
X69988000Y-107888500D03*
X60319000Y-97319500D03*
X60319000Y-96419500D03*
X59419000Y-96419500D03*
X59419000Y-97319500D03*
X81457000Y-164256500D03*
X81457000Y-163356500D03*
X80557000Y-163356500D03*
X80557000Y-164256500D03*
X70888000Y-69135500D03*
X70888000Y-68235500D03*
X69988000Y-68235500D03*
X69988000Y-69135500D03*
X56796000Y-111411500D03*
X56796000Y-110511500D03*
X55896000Y-110511500D03*
X55896000Y-111411500D03*
X63842000Y-139595500D03*
X63842000Y-138695500D03*
X62942000Y-138695500D03*
X62942000Y-139595500D03*
X77934000Y-65612500D03*
X77934000Y-64712500D03*
X77034000Y-64712500D03*
X77034000Y-65612500D03*
X70888000Y-132549500D03*
X70888000Y-131649500D03*
X69988000Y-131649500D03*
X69988000Y-132549500D03*
X56796000Y-93796500D03*
X56796000Y-92896500D03*
X55896000Y-92896500D03*
X55896000Y-93796500D03*
X74411000Y-86750500D03*
X74411000Y-85850500D03*
X73511000Y-85850500D03*
X73511000Y-86750500D03*
D11*
X53410000Y-169300000D03*
D10*
X63842000Y-164256500D03*
X63842000Y-163356500D03*
X62942000Y-163356500D03*
X62942000Y-164256500D03*
X60319000Y-100842500D03*
X60319000Y-99942500D03*
X59419000Y-99942500D03*
X59419000Y-100842500D03*
X63842000Y-160733500D03*
X63842000Y-159833500D03*
X62942000Y-159833500D03*
X62942000Y-160733500D03*
X60319000Y-164256500D03*
X60319000Y-163356500D03*
X59419000Y-163356500D03*
X59419000Y-164256500D03*
X53273000Y-86750500D03*
X53273000Y-85850500D03*
X52373000Y-85850500D03*
X52373000Y-86750500D03*
X74411000Y-150164500D03*
X74411000Y-149264500D03*
X73511000Y-149264500D03*
X73511000Y-150164500D03*
X74411000Y-114934500D03*
X74411000Y-114034500D03*
X73511000Y-114034500D03*
X73511000Y-114934500D03*
X56796000Y-65612500D03*
X56796000Y-64712500D03*
X55896000Y-64712500D03*
X55896000Y-65612500D03*
X70888000Y-153687500D03*
X70888000Y-152787500D03*
X69988000Y-152787500D03*
X69988000Y-153687500D03*
X81457000Y-79704500D03*
X81457000Y-78804500D03*
X80557000Y-78804500D03*
X80557000Y-79704500D03*
X67365000Y-139595500D03*
X67365000Y-138695500D03*
X66465000Y-138695500D03*
X66465000Y-139595500D03*
X56796000Y-107888500D03*
X56796000Y-106988500D03*
X55896000Y-106988500D03*
X55896000Y-107888500D03*
X63842000Y-114934500D03*
X63842000Y-114034500D03*
X62942000Y-114034500D03*
X62942000Y-114934500D03*
X56796000Y-100842500D03*
X56796000Y-99942500D03*
X55896000Y-99942500D03*
X55896000Y-100842500D03*
X60319000Y-55043500D03*
X60319000Y-54143500D03*
X59419000Y-54143500D03*
X59419000Y-55043500D03*
X77934000Y-139595500D03*
X77934000Y-138695500D03*
X77034000Y-138695500D03*
X77034000Y-139595500D03*
X60319000Y-93796500D03*
X60319000Y-92896500D03*
X59419000Y-92896500D03*
X59419000Y-93796500D03*
X53273000Y-107888500D03*
X53273000Y-106988500D03*
X52373000Y-106988500D03*
X52373000Y-107888500D03*
X56796000Y-136072500D03*
X56796000Y-135172500D03*
X55896000Y-135172500D03*
X55896000Y-136072500D03*
X67365000Y-83227500D03*
X67365000Y-82327500D03*
X66465000Y-82327500D03*
X66465000Y-83227500D03*
X70888000Y-121980500D03*
X70888000Y-121080500D03*
X69988000Y-121080500D03*
X69988000Y-121980500D03*
X67365000Y-150164500D03*
X67365000Y-149264500D03*
X66465000Y-149264500D03*
X66465000Y-150164500D03*
X60319000Y-104365500D03*
X60319000Y-103465500D03*
X59419000Y-103465500D03*
X59419000Y-104365500D03*
X81457000Y-97319500D03*
X81457000Y-96419500D03*
X80557000Y-96419500D03*
X80557000Y-97319500D03*
X67365000Y-55043500D03*
X67365000Y-54143500D03*
X66465000Y-54143500D03*
X66465000Y-55043500D03*
X53273000Y-129026500D03*
X53273000Y-128126500D03*
X52373000Y-128126500D03*
X52373000Y-129026500D03*
X81457000Y-86750500D03*
X81457000Y-85850500D03*
X80557000Y-85850500D03*
X80557000Y-86750500D03*
X53273000Y-146641500D03*
X53273000Y-145741500D03*
X52373000Y-145741500D03*
X52373000Y-146641500D03*
X81457000Y-111411500D03*
X81457000Y-110511500D03*
X80557000Y-110511500D03*
X80557000Y-111411500D03*
X56796000Y-104365500D03*
X56796000Y-103465500D03*
X55896000Y-103465500D03*
X55896000Y-104365500D03*
X63842000Y-107888500D03*
X63842000Y-106988500D03*
X62942000Y-106988500D03*
X62942000Y-107888500D03*
X74411000Y-125503500D03*
X74411000Y-124603500D03*
X73511000Y-124603500D03*
X73511000Y-125503500D03*
X77934000Y-164256500D03*
X77934000Y-163356500D03*
X77034000Y-163356500D03*
X77034000Y-164256500D03*
X53273000Y-93796500D03*
X53273000Y-92896500D03*
X52373000Y-92896500D03*
X52373000Y-93796500D03*
X60319000Y-132549500D03*
X60319000Y-131649500D03*
X59419000Y-131649500D03*
X59419000Y-132549500D03*
X67365000Y-90273500D03*
X67365000Y-89373500D03*
X66465000Y-89373500D03*
X66465000Y-90273500D03*
X70888000Y-157210500D03*
X70888000Y-156310500D03*
X69988000Y-156310500D03*
X69988000Y-157210500D03*
X53273000Y-121980500D03*
X53273000Y-121080500D03*
X52373000Y-121080500D03*
X52373000Y-121980500D03*
X67365000Y-62089500D03*
X67365000Y-61189500D03*
X66465000Y-61189500D03*
X66465000Y-62089500D03*
X81457000Y-83227500D03*
X81457000Y-82327500D03*
X80557000Y-82327500D03*
X80557000Y-83227500D03*
X56796000Y-90273500D03*
X56796000Y-89373500D03*
X55896000Y-89373500D03*
X55896000Y-90273500D03*
X70888000Y-143118500D03*
X70888000Y-142218500D03*
X69988000Y-142218500D03*
X69988000Y-143118500D03*
X67365000Y-72658500D03*
X67365000Y-71758500D03*
X66465000Y-71758500D03*
X66465000Y-72658500D03*
X74411000Y-79704500D03*
X74411000Y-78804500D03*
X73511000Y-78804500D03*
X73511000Y-79704500D03*
X67365000Y-65612500D03*
X67365000Y-64712500D03*
X66465000Y-64712500D03*
X66465000Y-65612500D03*
X63842000Y-93796500D03*
X63842000Y-92896500D03*
X62942000Y-92896500D03*
X62942000Y-93796500D03*
X63842000Y-125503500D03*
X63842000Y-124603500D03*
X62942000Y-124603500D03*
X62942000Y-125503500D03*
X53273000Y-58566500D03*
X53273000Y-57666500D03*
X52373000Y-57666500D03*
X52373000Y-58566500D03*
X56796000Y-86750500D03*
X56796000Y-85850500D03*
X55896000Y-85850500D03*
X55896000Y-86750500D03*
X56796000Y-129026500D03*
X56796000Y-128126500D03*
X55896000Y-128126500D03*
X55896000Y-129026500D03*
X77934000Y-143118500D03*
X77934000Y-142218500D03*
X77034000Y-142218500D03*
X77034000Y-143118500D03*
X63842000Y-86750500D03*
X63842000Y-85850500D03*
X62942000Y-85850500D03*
X62942000Y-86750500D03*
X60319000Y-157210500D03*
X60319000Y-156310500D03*
X59419000Y-156310500D03*
X59419000Y-157210500D03*
X81457000Y-132549500D03*
X81457000Y-131649500D03*
X80557000Y-131649500D03*
X80557000Y-132549500D03*
X81457000Y-72658500D03*
X81457000Y-71758500D03*
X80557000Y-71758500D03*
X80557000Y-72658500D03*
X63842000Y-111411500D03*
X63842000Y-110511500D03*
X62942000Y-110511500D03*
X62942000Y-111411500D03*
X60319000Y-107888500D03*
X60319000Y-106988500D03*
X59419000Y-106988500D03*
X59419000Y-107888500D03*
X63842000Y-143118500D03*
X63842000Y-142218500D03*
X62942000Y-142218500D03*
X62942000Y-143118500D03*
X70888000Y-118457500D03*
X70888000Y-117557500D03*
X69988000Y-117557500D03*
X69988000Y-118457500D03*
X70888000Y-90273500D03*
X70888000Y-89373500D03*
X69988000Y-89373500D03*
X69988000Y-90273500D03*
X56796000Y-143118500D03*
X56796000Y-142218500D03*
X55896000Y-142218500D03*
X55896000Y-143118500D03*
X70888000Y-150164500D03*
X70888000Y-149264500D03*
X69988000Y-149264500D03*
X69988000Y-150164500D03*
D12*
X65400000Y-84600000D03*
X65400000Y-85560000D03*
D10*
X53273000Y-160733500D03*
X53273000Y-159833500D03*
X52373000Y-159833500D03*
X52373000Y-160733500D03*
X67365000Y-86750500D03*
X67365000Y-85850500D03*
X66465000Y-85850500D03*
X66465000Y-86750500D03*
X74411000Y-121980500D03*
X74411000Y-121080500D03*
X73511000Y-121080500D03*
X73511000Y-121980500D03*
X60319000Y-139595500D03*
X60319000Y-138695500D03*
X59419000Y-138695500D03*
X59419000Y-139595500D03*
X67365000Y-69135500D03*
X67365000Y-68235500D03*
X66465000Y-68235500D03*
X66465000Y-69135500D03*
X56796000Y-146641500D03*
X56796000Y-145741500D03*
X55896000Y-145741500D03*
X55896000Y-146641500D03*
X63842000Y-58566500D03*
X63842000Y-57666500D03*
X62942000Y-57666500D03*
X62942000Y-58566500D03*
X67365000Y-118457500D03*
X67365000Y-117557500D03*
X66465000Y-117557500D03*
X66465000Y-118457500D03*
X56796000Y-139595500D03*
X56796000Y-138695500D03*
X55896000Y-138695500D03*
X55896000Y-139595500D03*
X74411000Y-118457500D03*
X74411000Y-117557500D03*
X73511000Y-117557500D03*
X73511000Y-118457500D03*
X60319000Y-150164500D03*
X60319000Y-149264500D03*
X59419000Y-149264500D03*
X59419000Y-150164500D03*
X81457000Y-118457500D03*
X81457000Y-117557500D03*
X80557000Y-117557500D03*
X80557000Y-118457500D03*
X70888000Y-55043500D03*
X70888000Y-54143500D03*
X69988000Y-54143500D03*
X69988000Y-55043500D03*
X70888000Y-160733500D03*
X70888000Y-159833500D03*
X69988000Y-159833500D03*
X69988000Y-160733500D03*
X67365000Y-125503500D03*
X67365000Y-124603500D03*
X66465000Y-124603500D03*
X66465000Y-125503500D03*
X56796000Y-118457500D03*
X56796000Y-117557500D03*
X55896000Y-117557500D03*
X55896000Y-118457500D03*
X81457000Y-157210500D03*
X81457000Y-156310500D03*
X80557000Y-156310500D03*
X80557000Y-157210500D03*
X74411000Y-111411500D03*
X74411000Y-110511500D03*
X73511000Y-110511500D03*
X73511000Y-111411500D03*
X70888000Y-164256500D03*
X70888000Y-163356500D03*
X69988000Y-163356500D03*
X69988000Y-164256500D03*
X74411000Y-139595500D03*
X74411000Y-138695500D03*
X73511000Y-138695500D03*
X73511000Y-139595500D03*
X53273000Y-157210500D03*
X53273000Y-156310500D03*
X52373000Y-156310500D03*
X52373000Y-157210500D03*
X70888000Y-65612500D03*
X70888000Y-64712500D03*
X69988000Y-64712500D03*
X69988000Y-65612500D03*
X53273000Y-72658500D03*
X53273000Y-71758500D03*
X52373000Y-71758500D03*
X52373000Y-72658500D03*
X74411000Y-58566500D03*
X74411000Y-57666500D03*
X73511000Y-57666500D03*
X73511000Y-58566500D03*
X60319000Y-118457500D03*
X60319000Y-117557500D03*
X59419000Y-117557500D03*
X59419000Y-118457500D03*
X77934000Y-129026500D03*
X77934000Y-128126500D03*
X77034000Y-128126500D03*
X77034000Y-129026500D03*
X70888000Y-114934500D03*
X70888000Y-114034500D03*
X69988000Y-114034500D03*
X69988000Y-114934500D03*
X70888000Y-62089500D03*
X70888000Y-61189500D03*
X69988000Y-61189500D03*
X69988000Y-62089500D03*
X74411000Y-107888500D03*
X74411000Y-106988500D03*
X73511000Y-106988500D03*
X73511000Y-107888500D03*
X56796000Y-79704500D03*
X56796000Y-78804500D03*
X55896000Y-78804500D03*
X55896000Y-79704500D03*
X77934000Y-132549500D03*
X77934000Y-131649500D03*
X77034000Y-131649500D03*
X77034000Y-132549500D03*
X81457000Y-139595500D03*
X81457000Y-138695500D03*
X80557000Y-138695500D03*
X80557000Y-139595500D03*
X70888000Y-97319500D03*
X70888000Y-96419500D03*
X69988000Y-96419500D03*
X69988000Y-97319500D03*
X77934000Y-72658500D03*
X77934000Y-71758500D03*
X77034000Y-71758500D03*
X77034000Y-72658500D03*
X60319000Y-79704500D03*
X60319000Y-78804500D03*
X59419000Y-78804500D03*
X59419000Y-79704500D03*
X56796000Y-160733500D03*
X56796000Y-159833500D03*
X55896000Y-159833500D03*
X55896000Y-160733500D03*
D13*
X73195000Y-167894000D03*
X76445000Y-167894000D03*
D10*
X60319000Y-65612500D03*
X60319000Y-64712500D03*
X59419000Y-64712500D03*
X59419000Y-65612500D03*
X60319000Y-121980500D03*
X60319000Y-121080500D03*
X59419000Y-121080500D03*
X59419000Y-121980500D03*
X74411000Y-104365500D03*
X74411000Y-103465500D03*
X73511000Y-103465500D03*
X73511000Y-104365500D03*
X60319000Y-90273500D03*
X60319000Y-89373500D03*
X59419000Y-89373500D03*
X59419000Y-90273500D03*
X77934000Y-104365500D03*
X77934000Y-103465500D03*
X77034000Y-103465500D03*
X77034000Y-104365500D03*
X74411000Y-143118500D03*
X74411000Y-142218500D03*
X73511000Y-142218500D03*
X73511000Y-143118500D03*
X63842000Y-62089500D03*
X63842000Y-61189500D03*
X62942000Y-61189500D03*
X62942000Y-62089500D03*
X67365000Y-157210500D03*
X67365000Y-156310500D03*
X66465000Y-156310500D03*
X66465000Y-157210500D03*
X70888000Y-93796500D03*
X70888000Y-92896500D03*
X69988000Y-92896500D03*
X69988000Y-93796500D03*
X74411000Y-100842500D03*
X74411000Y-99942500D03*
X73511000Y-99942500D03*
X73511000Y-100842500D03*
X63842000Y-104365500D03*
X63842000Y-103465500D03*
X62942000Y-103465500D03*
X62942000Y-104365500D03*
X60319000Y-136072500D03*
X60319000Y-135172500D03*
X59419000Y-135172500D03*
X59419000Y-136072500D03*
X77934000Y-58566500D03*
X77934000Y-57666500D03*
X77034000Y-57666500D03*
X77034000Y-58566500D03*
X77934000Y-97319500D03*
X77934000Y-96419500D03*
X77034000Y-96419500D03*
X77034000Y-97319500D03*
X77934000Y-157210500D03*
X77934000Y-156310500D03*
X77034000Y-156310500D03*
X77034000Y-157210500D03*
X63842000Y-129026500D03*
X63842000Y-128126500D03*
X62942000Y-128126500D03*
X62942000Y-129026500D03*
X67365000Y-153687500D03*
X67365000Y-152787500D03*
X66465000Y-152787500D03*
X66465000Y-153687500D03*
X56796000Y-58566500D03*
X56796000Y-57666500D03*
X55896000Y-57666500D03*
X55896000Y-58566500D03*
X53273000Y-76181500D03*
X53273000Y-75281500D03*
X52373000Y-75281500D03*
X52373000Y-76181500D03*
X81457000Y-125503500D03*
X81457000Y-124603500D03*
X80557000Y-124603500D03*
X80557000Y-125503500D03*
X74411000Y-83227500D03*
X74411000Y-82327500D03*
X73511000Y-82327500D03*
X73511000Y-83227500D03*
X53273000Y-55043500D03*
X53273000Y-54143500D03*
X52373000Y-54143500D03*
X52373000Y-55043500D03*
X60319000Y-69135500D03*
X60319000Y-68235500D03*
X59419000Y-68235500D03*
X59419000Y-69135500D03*
X81457000Y-69135500D03*
X81457000Y-68235500D03*
X80557000Y-68235500D03*
X80557000Y-69135500D03*
X63842000Y-153687500D03*
X63842000Y-152787500D03*
X62942000Y-152787500D03*
X62942000Y-153687500D03*
X77934000Y-86750500D03*
X77934000Y-85850500D03*
X77034000Y-85850500D03*
X77034000Y-86750500D03*
X60319000Y-146641500D03*
X60319000Y-145741500D03*
X59419000Y-145741500D03*
X59419000Y-146641500D03*
X67365000Y-79704500D03*
X67365000Y-78804500D03*
X66465000Y-78804500D03*
X66465000Y-79704500D03*
X60319000Y-86750500D03*
X60319000Y-85850500D03*
X59419000Y-85850500D03*
X59419000Y-86750500D03*
X81457000Y-65612500D03*
X81457000Y-64712500D03*
X80557000Y-64712500D03*
X80557000Y-65612500D03*
X81457000Y-76181500D03*
X81457000Y-75281500D03*
X80557000Y-75281500D03*
X80557000Y-76181500D03*
X70888000Y-136072500D03*
X70888000Y-135172500D03*
X69988000Y-135172500D03*
X69988000Y-136072500D03*
X67365000Y-97319500D03*
X67365000Y-96419500D03*
X66465000Y-96419500D03*
X66465000Y-97319500D03*
X81457000Y-114934500D03*
X81457000Y-114034500D03*
X80557000Y-114034500D03*
X80557000Y-114934500D03*
X63842000Y-121980500D03*
X63842000Y-121080500D03*
X62942000Y-121080500D03*
X62942000Y-121980500D03*
X63842000Y-146641500D03*
X63842000Y-145741500D03*
X62942000Y-145741500D03*
X62942000Y-146641500D03*
X74411000Y-132549500D03*
X74411000Y-131649500D03*
X73511000Y-131649500D03*
X73511000Y-132549500D03*
X70888000Y-79704500D03*
X70888000Y-78804500D03*
X69988000Y-78804500D03*
X69988000Y-79704500D03*
X74411000Y-65612500D03*
X74411000Y-64712500D03*
X73511000Y-64712500D03*
X73511000Y-65612500D03*
X53273000Y-125503500D03*
X53273000Y-124603500D03*
X52373000Y-124603500D03*
X52373000Y-125503500D03*
D12*
X65500000Y-126900000D03*
X65500000Y-127860000D03*
D10*
X53273000Y-111411500D03*
X53273000Y-110511500D03*
X52373000Y-110511500D03*
X52373000Y-111411500D03*
X53273000Y-90273500D03*
X53273000Y-89373500D03*
X52373000Y-89373500D03*
X52373000Y-90273500D03*
X74411000Y-136072500D03*
X74411000Y-135172500D03*
X73511000Y-135172500D03*
X73511000Y-136072500D03*
X74411000Y-146641500D03*
X74411000Y-145741500D03*
X73511000Y-145741500D03*
X73511000Y-146641500D03*
X81457000Y-160733500D03*
X81457000Y-159833500D03*
X80557000Y-159833500D03*
X80557000Y-160733500D03*
X77934000Y-150164500D03*
X77934000Y-149264500D03*
X77034000Y-149264500D03*
X77034000Y-150164500D03*
D12*
X65500000Y-155100000D03*
X65500000Y-156060000D03*
D10*
X77934000Y-107888500D03*
X77934000Y-106988500D03*
X77034000Y-106988500D03*
X77034000Y-107888500D03*
D12*
X65500000Y-148000000D03*
X65500000Y-148960000D03*
D10*
X56796000Y-72658500D03*
X56796000Y-71758500D03*
X55896000Y-71758500D03*
X55896000Y-72658500D03*
X77934000Y-79704500D03*
X77934000Y-78804500D03*
X77034000Y-78804500D03*
X77034000Y-79704500D03*
X53273000Y-143118500D03*
X53273000Y-142218500D03*
X52373000Y-142218500D03*
X52373000Y-143118500D03*
X77934000Y-62089500D03*
X77934000Y-61189500D03*
X77034000Y-61189500D03*
X77034000Y-62089500D03*
X63842000Y-76181500D03*
X63842000Y-75281500D03*
X62942000Y-75281500D03*
X62942000Y-76181500D03*
X56796000Y-150164500D03*
X56796000Y-149264500D03*
X55896000Y-149264500D03*
X55896000Y-150164500D03*
X53273000Y-150164500D03*
X53273000Y-149264500D03*
X52373000Y-149264500D03*
X52373000Y-150164500D03*
D12*
X65400000Y-98700000D03*
X65400000Y-99660000D03*
D10*
X56796000Y-132549500D03*
X56796000Y-131649500D03*
X55896000Y-131649500D03*
X55896000Y-132549500D03*
X74411000Y-97319500D03*
X74411000Y-96419500D03*
X73511000Y-96419500D03*
X73511000Y-97319500D03*
X74411000Y-62089500D03*
X74411000Y-61189500D03*
X73511000Y-61189500D03*
X73511000Y-62089500D03*
X63842000Y-69135500D03*
X63842000Y-68235500D03*
X62942000Y-68235500D03*
X62942000Y-69135500D03*
X67365000Y-136072500D03*
X67365000Y-135172500D03*
X66465000Y-135172500D03*
X66465000Y-136072500D03*
X63842000Y-55043500D03*
X63842000Y-54143500D03*
X62942000Y-54143500D03*
X62942000Y-55043500D03*
D12*
X65400000Y-91700000D03*
X65400000Y-92660000D03*
D10*
X70888000Y-129026500D03*
X70888000Y-128126500D03*
X69988000Y-128126500D03*
X69988000Y-129026500D03*
X77934000Y-93796500D03*
X77934000Y-92896500D03*
X77034000Y-92896500D03*
X77034000Y-93796500D03*
X60319000Y-83227500D03*
X60319000Y-82327500D03*
X59419000Y-82327500D03*
X59419000Y-83227500D03*
X60319000Y-111411500D03*
X60319000Y-110511500D03*
X59419000Y-110511500D03*
X59419000Y-111411500D03*
X60319000Y-129026500D03*
X60319000Y-128126500D03*
X59419000Y-128126500D03*
X59419000Y-129026500D03*
X67365000Y-160733500D03*
X67365000Y-159833500D03*
X66465000Y-159833500D03*
X66465000Y-160733500D03*
X77934000Y-125503500D03*
X77934000Y-124603500D03*
X77034000Y-124603500D03*
X77034000Y-125503500D03*
X67365000Y-58566500D03*
X67365000Y-57666500D03*
X66465000Y-57666500D03*
X66465000Y-58566500D03*
X53273000Y-97319500D03*
X53273000Y-96419500D03*
X52373000Y-96419500D03*
X52373000Y-97319500D03*
X74411000Y-153687500D03*
X74411000Y-152787500D03*
X73511000Y-152787500D03*
X73511000Y-153687500D03*
X70888000Y-76181500D03*
X70888000Y-75281500D03*
X69988000Y-75281500D03*
X69988000Y-76181500D03*
X63842000Y-90273500D03*
X63842000Y-89373500D03*
X62942000Y-89373500D03*
X62942000Y-90273500D03*
X53273000Y-104365500D03*
X53273000Y-103465500D03*
X52373000Y-103465500D03*
X52373000Y-104365500D03*
X74411000Y-90273500D03*
X74411000Y-89373500D03*
X73511000Y-89373500D03*
X73511000Y-90273500D03*
X63842000Y-118457500D03*
X63842000Y-117557500D03*
X62942000Y-117557500D03*
X62942000Y-118457500D03*
X56796000Y-153687500D03*
X56796000Y-152787500D03*
X55896000Y-152787500D03*
X55896000Y-153687500D03*
D12*
X65500000Y-134000000D03*
X65500000Y-134960000D03*
D10*
X63842000Y-100842500D03*
X63842000Y-99942500D03*
X62942000Y-99942500D03*
X62942000Y-100842500D03*
X74411000Y-76181500D03*
X74411000Y-75281500D03*
X73511000Y-75281500D03*
X73511000Y-76181500D03*
X81457000Y-104365500D03*
X81457000Y-103465500D03*
X80557000Y-103465500D03*
X80557000Y-104365500D03*
X53273000Y-65612500D03*
X53273000Y-64712500D03*
X52373000Y-64712500D03*
X52373000Y-65612500D03*
X77934000Y-111411500D03*
X77934000Y-110511500D03*
X77034000Y-110511500D03*
X77034000Y-111411500D03*
X56796000Y-62089500D03*
X56796000Y-61189500D03*
X55896000Y-61189500D03*
X55896000Y-62089500D03*
X77934000Y-69135500D03*
X77934000Y-68235500D03*
X77034000Y-68235500D03*
X77034000Y-69135500D03*
X67365000Y-164256500D03*
X67365000Y-163356500D03*
X66465000Y-163356500D03*
X66465000Y-164256500D03*
X81457000Y-107888500D03*
X81457000Y-106988500D03*
X80557000Y-106988500D03*
X80557000Y-107888500D03*
X60319000Y-160733500D03*
X60319000Y-159833500D03*
X59419000Y-159833500D03*
X59419000Y-160733500D03*
X81457000Y-62089500D03*
X81457000Y-61189500D03*
X80557000Y-61189500D03*
X80557000Y-62089500D03*
X53273000Y-79704500D03*
X53273000Y-78804500D03*
X52373000Y-78804500D03*
X52373000Y-79704500D03*
X56796000Y-164256500D03*
X56796000Y-163356500D03*
X55896000Y-163356500D03*
X55896000Y-164256500D03*
X77934000Y-121980500D03*
X77934000Y-121080500D03*
X77034000Y-121080500D03*
X77034000Y-121980500D03*
X70888000Y-100842500D03*
X70888000Y-99942500D03*
X69988000Y-99942500D03*
X69988000Y-100842500D03*
X77934000Y-76181500D03*
X77934000Y-75281500D03*
X77034000Y-75281500D03*
X77034000Y-76181500D03*
X77934000Y-114934500D03*
X77934000Y-114034500D03*
X77034000Y-114034500D03*
X77034000Y-114934500D03*
X53273000Y-132549500D03*
X53273000Y-131649500D03*
X52373000Y-131649500D03*
X52373000Y-132549500D03*
X63842000Y-136072500D03*
X63842000Y-135172500D03*
X62942000Y-135172500D03*
X62942000Y-136072500D03*
X67365000Y-104365500D03*
X67365000Y-103465500D03*
X66465000Y-103465500D03*
X66465000Y-104365500D03*
X81457000Y-100842500D03*
X81457000Y-99942500D03*
X80557000Y-99942500D03*
X80557000Y-100842500D03*
X67365000Y-114934500D03*
X67365000Y-114034500D03*
X66465000Y-114034500D03*
X66465000Y-114934500D03*
X63842000Y-150164500D03*
X63842000Y-149264500D03*
X62942000Y-149264500D03*
X62942000Y-150164500D03*
X53273000Y-153687500D03*
X53273000Y-152787500D03*
X52373000Y-152787500D03*
X52373000Y-153687500D03*
X56796000Y-157210500D03*
X56796000Y-156310500D03*
X55896000Y-156310500D03*
X55896000Y-157210500D03*
X63842000Y-132549500D03*
X63842000Y-131649500D03*
X62942000Y-131649500D03*
X62942000Y-132549500D03*
X77934000Y-90273500D03*
X77934000Y-89373500D03*
X77034000Y-89373500D03*
X77034000Y-90273500D03*
X53273000Y-118457500D03*
X53273000Y-117557500D03*
X52373000Y-117557500D03*
X52373000Y-118457500D03*
X81457000Y-55043500D03*
X81457000Y-54143500D03*
X80557000Y-54143500D03*
X80557000Y-55043500D03*
X77934000Y-118457500D03*
X77934000Y-117557500D03*
X77034000Y-117557500D03*
X77034000Y-118457500D03*
X70888000Y-125503500D03*
X70888000Y-124603500D03*
X69988000Y-124603500D03*
X69988000Y-125503500D03*
X77934000Y-55043500D03*
X77934000Y-54143500D03*
X77034000Y-54143500D03*
X77034000Y-55043500D03*
X63842000Y-65612500D03*
X63842000Y-64712500D03*
X62942000Y-64712500D03*
X62942000Y-65612500D03*
X63842000Y-83227500D03*
X63842000Y-82327500D03*
X62942000Y-82327500D03*
X62942000Y-83227500D03*
X70888000Y-83227500D03*
X70888000Y-82327500D03*
X69988000Y-82327500D03*
X69988000Y-83227500D03*
X81457000Y-58566500D03*
X81457000Y-57666500D03*
X80557000Y-57666500D03*
X80557000Y-58566500D03*
D13*
X60635000Y-167894000D03*
X57385000Y-167894000D03*
D10*
X77934000Y-83227500D03*
X77934000Y-82327500D03*
X77034000Y-82327500D03*
X77034000Y-83227500D03*
X63842000Y-79704500D03*
X63842000Y-78804500D03*
X62942000Y-78804500D03*
X62942000Y-79704500D03*
X74411000Y-129026500D03*
X74411000Y-128126500D03*
X73511000Y-128126500D03*
X73511000Y-129026500D03*
X60319000Y-72658500D03*
X60319000Y-71758500D03*
X59419000Y-71758500D03*
X59419000Y-72658500D03*
D12*
X65400000Y-63500000D03*
X65400000Y-64460000D03*
D10*
X67365000Y-121980500D03*
X67365000Y-121080500D03*
X66465000Y-121080500D03*
X66465000Y-121980500D03*
X74411000Y-93796500D03*
X74411000Y-92896500D03*
X73511000Y-92896500D03*
X73511000Y-93796500D03*
X81457000Y-150164500D03*
X81457000Y-149264500D03*
X80557000Y-149264500D03*
X80557000Y-150164500D03*
X70888000Y-139595500D03*
X70888000Y-138695500D03*
X69988000Y-138695500D03*
X69988000Y-139595500D03*
X56796000Y-121980500D03*
X56796000Y-121080500D03*
X55896000Y-121080500D03*
X55896000Y-121980500D03*
X67365000Y-129026500D03*
X67365000Y-128126500D03*
X66465000Y-128126500D03*
X66465000Y-129026500D03*
X56796000Y-83227500D03*
X56796000Y-82327500D03*
X55896000Y-82327500D03*
X55896000Y-83227500D03*
X63842000Y-72658500D03*
X63842000Y-71758500D03*
X62942000Y-71758500D03*
X62942000Y-72658500D03*
X77934000Y-100842500D03*
X77934000Y-99942500D03*
X77034000Y-99942500D03*
X77034000Y-100842500D03*
X70888000Y-72658500D03*
X70888000Y-71758500D03*
X69988000Y-71758500D03*
X69988000Y-72658500D03*
X53273000Y-114934500D03*
X53273000Y-114034500D03*
X52373000Y-114034500D03*
X52373000Y-114934500D03*
X53273000Y-62089500D03*
X53273000Y-61189500D03*
X52373000Y-61189500D03*
X52373000Y-62089500D03*
X63842000Y-157210500D03*
X63842000Y-156310500D03*
X62942000Y-156310500D03*
X62942000Y-157210500D03*
X53273000Y-83227500D03*
X53273000Y-82327500D03*
X52373000Y-82327500D03*
X52373000Y-83227500D03*
X77934000Y-146641500D03*
X77934000Y-145741500D03*
X77034000Y-145741500D03*
X77034000Y-146641500D03*
X70888000Y-58566500D03*
X70888000Y-57666500D03*
X69988000Y-57666500D03*
X69988000Y-58566500D03*
X67365000Y-76181500D03*
X67365000Y-75281500D03*
X66465000Y-75281500D03*
X66465000Y-76181500D03*
X81457000Y-136072500D03*
X81457000Y-135172500D03*
X80557000Y-135172500D03*
X80557000Y-136072500D03*
D12*
X65500000Y-112800000D03*
X65500000Y-113760000D03*
D10*
X60319000Y-58566500D03*
X60319000Y-57666500D03*
X59419000Y-57666500D03*
X59419000Y-58566500D03*
X70888000Y-86750500D03*
X70888000Y-85850500D03*
X69988000Y-85850500D03*
X69988000Y-86750500D03*
X81457000Y-146641500D03*
X81457000Y-145741500D03*
X80557000Y-145741500D03*
X80557000Y-146641500D03*
D12*
X65400000Y-105700000D03*
X65400000Y-106660000D03*
D10*
X81457000Y-153687500D03*
X81457000Y-152787500D03*
X80557000Y-152787500D03*
X80557000Y-153687500D03*
X56796000Y-69135500D03*
X56796000Y-68235500D03*
X55896000Y-68235500D03*
X55896000Y-69135500D03*
X60319000Y-62089500D03*
X60319000Y-61189500D03*
X59419000Y-61189500D03*
X59419000Y-62089500D03*
X74411000Y-157210500D03*
X74411000Y-156310500D03*
X73511000Y-156310500D03*
X73511000Y-157210500D03*
X53273000Y-139595500D03*
X53273000Y-138695500D03*
X52373000Y-138695500D03*
X52373000Y-139595500D03*
D12*
X65500000Y-141000000D03*
X65500000Y-141960000D03*
X65400000Y-70600000D03*
X65400000Y-71560000D03*
X65500000Y-162200000D03*
X65500000Y-163160000D03*
D10*
X56796000Y-55043500D03*
X56796000Y-54143500D03*
X55896000Y-54143500D03*
X55896000Y-55043500D03*
X74411000Y-72658500D03*
X74411000Y-71758500D03*
X73511000Y-71758500D03*
X73511000Y-72658500D03*
X56796000Y-125503500D03*
X56796000Y-124603500D03*
X55896000Y-124603500D03*
X55896000Y-125503500D03*
X74411000Y-164256500D03*
X74411000Y-163356500D03*
X73511000Y-163356500D03*
X73511000Y-164256500D03*
X67365000Y-93796500D03*
X67365000Y-92896500D03*
X66465000Y-92896500D03*
X66465000Y-93796500D03*
X53273000Y-100842500D03*
X53273000Y-99942500D03*
X52373000Y-99942500D03*
X52373000Y-100842500D03*
X74411000Y-55043500D03*
X74411000Y-54143500D03*
X73511000Y-54143500D03*
X73511000Y-55043500D03*
X60319000Y-125503500D03*
X60319000Y-124603500D03*
X59419000Y-124603500D03*
X59419000Y-125503500D03*
X56796000Y-97319500D03*
X56796000Y-96419500D03*
X55896000Y-96419500D03*
X55896000Y-97319500D03*
X53273000Y-69135500D03*
X53273000Y-68235500D03*
X52373000Y-68235500D03*
X52373000Y-69135500D03*
X70888000Y-111411500D03*
X70888000Y-110511500D03*
X69988000Y-110511500D03*
X69988000Y-111411500D03*
X81457000Y-129026500D03*
X81457000Y-128126500D03*
X80557000Y-128126500D03*
X80557000Y-129026500D03*
X74411000Y-160733500D03*
X74411000Y-159833500D03*
X73511000Y-159833500D03*
X73511000Y-160733500D03*
D12*
X65500000Y-119900000D03*
X65500000Y-120860000D03*
D10*
X60319000Y-143118500D03*
X60319000Y-142218500D03*
X59419000Y-142218500D03*
X59419000Y-143118500D03*
D14*
X59010000Y-174000000D03*
X74820000Y-174000000D03*
M02*
