G04 #@! TF.GenerationSoftware,KiCad,Pcbnew,7.0.7*
G04 #@! TF.CreationDate,2023-08-29T23:24:06-04:00*
G04 #@! TF.ProjectId,MicrocontrollerInputModule,4d696372-6f63-46f6-9e74-726f6c6c6572,V2*
G04 #@! TF.SameCoordinates,Original*
G04 #@! TF.FileFunction,Soldermask,Bot*
G04 #@! TF.FilePolarity,Negative*
%FSLAX46Y46*%
G04 Gerber Fmt 4.6, Leading zero omitted, Abs format (unit mm)*
G04 Created by KiCad (PCBNEW 7.0.7) date 2023-08-29 23:24:06*
%MOMM*%
%LPD*%
G01*
G04 APERTURE LIST*
G04 Aperture macros list*
%AMRoundRect*
0 Rectangle with rounded corners*
0 $1 Rounding radius*
0 $2 $3 $4 $5 $6 $7 $8 $9 X,Y pos of 4 corners*
0 Add a 4 corners polygon primitive as box body*
4,1,4,$2,$3,$4,$5,$6,$7,$8,$9,$2,$3,0*
0 Add four circle primitives for the rounded corners*
1,1,$1+$1,$2,$3*
1,1,$1+$1,$4,$5*
1,1,$1+$1,$6,$7*
1,1,$1+$1,$8,$9*
0 Add four rect primitives between the rounded corners*
20,1,$1+$1,$2,$3,$4,$5,0*
20,1,$1+$1,$4,$5,$6,$7,0*
20,1,$1+$1,$6,$7,$8,$9,0*
20,1,$1+$1,$8,$9,$2,$3,0*%
G04 Aperture macros list end*
%ADD10C,1.500000*%
%ADD11C,2.100000*%
%ADD12RoundRect,0.140000X-0.140000X-0.170000X0.140000X-0.170000X0.140000X0.170000X-0.140000X0.170000X0*%
%ADD13RoundRect,0.225000X-0.250000X0.225000X-0.250000X-0.225000X0.250000X-0.225000X0.250000X0.225000X0*%
%ADD14C,6.200000*%
%ADD15RoundRect,0.050000X0.050000X-0.387500X0.050000X0.387500X-0.050000X0.387500X-0.050000X-0.387500X0*%
%ADD16RoundRect,0.050000X0.387500X-0.050000X0.387500X0.050000X-0.387500X0.050000X-0.387500X-0.050000X0*%
%ADD17R,3.200000X3.200000*%
%ADD18RoundRect,0.135000X0.135000X0.185000X-0.135000X0.185000X-0.135000X-0.185000X0.135000X-0.185000X0*%
%ADD19RoundRect,0.147500X0.172500X-0.147500X0.172500X0.147500X-0.172500X0.147500X-0.172500X-0.147500X0*%
%ADD20RoundRect,0.225000X-0.225000X-0.250000X0.225000X-0.250000X0.225000X0.250000X-0.225000X0.250000X0*%
%ADD21RoundRect,0.225000X0.250000X-0.225000X0.250000X0.225000X-0.250000X0.225000X-0.250000X-0.225000X0*%
%ADD22RoundRect,0.147500X0.147500X0.172500X-0.147500X0.172500X-0.147500X-0.172500X0.147500X-0.172500X0*%
%ADD23RoundRect,0.075000X-0.187500X-0.075000X0.187500X-0.075000X0.187500X0.075000X-0.187500X0.075000X0*%
%ADD24R,0.300000X1.700000*%
%ADD25RoundRect,0.135000X-0.135000X-0.185000X0.135000X-0.185000X0.135000X0.185000X-0.135000X0.185000X0*%
%ADD26RoundRect,0.140000X0.170000X-0.140000X0.170000X0.140000X-0.170000X0.140000X-0.170000X-0.140000X0*%
%ADD27R,1.200000X1.400000*%
%ADD28R,1.000000X0.200000*%
%ADD29RoundRect,0.135000X0.035355X-0.226274X0.226274X-0.035355X-0.035355X0.226274X-0.226274X0.035355X0*%
%ADD30RoundRect,0.140000X-0.170000X0.140000X-0.170000X-0.140000X0.170000X-0.140000X0.170000X0.140000X0*%
%ADD31RoundRect,0.225000X0.225000X0.250000X-0.225000X0.250000X-0.225000X-0.250000X0.225000X-0.250000X0*%
%ADD32RoundRect,0.147500X-0.017678X0.226274X-0.226274X0.017678X0.017678X-0.226274X0.226274X-0.017678X0*%
%ADD33RoundRect,0.140000X0.140000X0.170000X-0.140000X0.170000X-0.140000X-0.170000X0.140000X-0.170000X0*%
%ADD34RoundRect,0.147500X-0.147500X-0.172500X0.147500X-0.172500X0.147500X0.172500X-0.147500X0.172500X0*%
%ADD35R,0.200000X1.000000*%
G04 APERTURE END LIST*
D10*
X63915000Y-175750000D03*
X63915000Y-172250000D03*
X65915000Y-175750000D03*
X65915000Y-172250000D03*
X67915000Y-175750000D03*
X67915000Y-172250000D03*
X69915000Y-175750000D03*
X69915000Y-172250000D03*
D11*
X80420000Y-169300000D03*
X53410000Y-169300000D03*
D12*
X76300000Y-146415000D03*
X77260000Y-146415000D03*
X76315000Y-142934000D03*
X77275000Y-142934000D03*
D13*
X60680000Y-153740000D03*
X60680000Y-155290000D03*
D14*
X59010000Y-174000000D03*
D15*
X73500000Y-149837500D03*
X73100000Y-149837500D03*
X72700000Y-149837500D03*
X72300000Y-149837500D03*
X71900000Y-149837500D03*
X71500000Y-149837500D03*
X71100000Y-149837500D03*
X70700000Y-149837500D03*
X70300000Y-149837500D03*
X69900000Y-149837500D03*
X69500000Y-149837500D03*
X69100000Y-149837500D03*
X68700000Y-149837500D03*
X68300000Y-149837500D03*
D16*
X67462500Y-149000000D03*
X67462500Y-148600000D03*
X67462500Y-148200000D03*
X67462500Y-147800000D03*
X67462500Y-147400000D03*
X67462500Y-147000000D03*
X67462500Y-146600000D03*
X67462500Y-146200000D03*
X67462500Y-145800000D03*
X67462500Y-145400000D03*
X67462500Y-145000000D03*
X67462500Y-144600000D03*
X67462500Y-144200000D03*
X67462500Y-143800000D03*
D15*
X68300000Y-142962500D03*
X68700000Y-142962500D03*
X69100000Y-142962500D03*
X69500000Y-142962500D03*
X69900000Y-142962500D03*
X70300000Y-142962500D03*
X70700000Y-142962500D03*
X71100000Y-142962500D03*
X71500000Y-142962500D03*
X71900000Y-142962500D03*
X72300000Y-142962500D03*
X72700000Y-142962500D03*
X73100000Y-142962500D03*
X73500000Y-142962500D03*
D16*
X74337500Y-143800000D03*
X74337500Y-144200000D03*
X74337500Y-144600000D03*
X74337500Y-145000000D03*
X74337500Y-145400000D03*
X74337500Y-145800000D03*
X74337500Y-146200000D03*
X74337500Y-146600000D03*
X74337500Y-147000000D03*
X74337500Y-147400000D03*
X74337500Y-147800000D03*
X74337500Y-148200000D03*
X74337500Y-148600000D03*
X74337500Y-149000000D03*
D17*
X70900000Y-146400000D03*
D18*
X69000000Y-155400000D03*
X67980000Y-155400000D03*
D19*
X73210000Y-152410000D03*
X73210000Y-151440000D03*
D18*
X77920000Y-152116000D03*
X76900000Y-152116000D03*
D20*
X74316000Y-154020000D03*
X75866000Y-154020000D03*
D21*
X54820000Y-149590000D03*
X54820000Y-148040000D03*
D12*
X76300000Y-145490000D03*
X77260000Y-145490000D03*
X61784000Y-149702000D03*
X62744000Y-149702000D03*
D22*
X75000000Y-155300000D03*
X74030000Y-155300000D03*
D23*
X77025000Y-150071000D03*
X77025000Y-149571000D03*
X77025000Y-149071000D03*
X77025000Y-148571000D03*
X79600000Y-148571000D03*
X79600000Y-149071000D03*
X79600000Y-149571000D03*
X79600000Y-150071000D03*
D24*
X78312500Y-149321000D03*
D13*
X56860000Y-143530000D03*
X56860000Y-145080000D03*
D18*
X77920000Y-151100000D03*
X76900000Y-151100000D03*
D25*
X58100000Y-153450000D03*
X59120000Y-153450000D03*
D12*
X76315000Y-143950000D03*
X77275000Y-143950000D03*
D26*
X73500000Y-141300000D03*
X73500000Y-140340000D03*
D27*
X63114000Y-145935000D03*
X63114000Y-148135000D03*
X61414000Y-148135000D03*
X61414000Y-145935000D03*
D28*
X56575000Y-151275000D03*
X56575000Y-151675000D03*
X56575000Y-152075000D03*
X56575000Y-152475000D03*
X56575000Y-152875000D03*
X56575000Y-153275000D03*
X56575000Y-153675000D03*
X56575000Y-154075000D03*
X56575000Y-154475000D03*
X56575000Y-154875000D03*
X54775000Y-154875000D03*
X54775000Y-154475000D03*
X54775000Y-154075000D03*
X54775000Y-153675000D03*
X54775000Y-153275000D03*
X54775000Y-152875000D03*
X54775000Y-152475000D03*
X54775000Y-152075000D03*
X54775000Y-151675000D03*
X54775000Y-151275000D03*
D29*
X59580000Y-139560000D03*
X60301248Y-138838752D03*
D18*
X80775000Y-145316000D03*
X79755000Y-145316000D03*
D13*
X59777000Y-145650000D03*
X59777000Y-147200000D03*
D12*
X62340000Y-144450000D03*
X63300000Y-144450000D03*
D30*
X74800000Y-151400000D03*
X74800000Y-152360000D03*
D12*
X78835000Y-151100000D03*
X79795000Y-151100000D03*
D14*
X74820000Y-174000000D03*
D26*
X69884000Y-141165000D03*
X69884000Y-140205000D03*
D18*
X80775000Y-144300000D03*
X79755000Y-144300000D03*
D30*
X69884000Y-151050000D03*
X69884000Y-152010000D03*
D22*
X81700000Y-154800000D03*
X80730000Y-154800000D03*
D31*
X63350000Y-140890000D03*
X61800000Y-140890000D03*
D12*
X76315000Y-141918000D03*
X77275000Y-141918000D03*
D32*
X68380000Y-152830000D03*
X67694106Y-153515894D03*
D33*
X65660000Y-145200000D03*
X64700000Y-145200000D03*
D34*
X78670000Y-154274000D03*
X79640000Y-154274000D03*
D35*
X58375000Y-141075000D03*
X57975000Y-141075000D03*
X57575000Y-141075000D03*
X57175000Y-141075000D03*
X56775000Y-141075000D03*
X56375000Y-141075000D03*
X55975000Y-141075000D03*
X55575000Y-141075000D03*
X55175000Y-141075000D03*
X54775000Y-141075000D03*
X54775000Y-139275000D03*
X55175000Y-139275000D03*
X55575000Y-139275000D03*
X55975000Y-139275000D03*
X56375000Y-139275000D03*
X56775000Y-139275000D03*
X57175000Y-139275000D03*
X57575000Y-139275000D03*
X57975000Y-139275000D03*
X58375000Y-139275000D03*
D25*
X64690000Y-147610000D03*
X65710000Y-147610000D03*
D33*
X65660000Y-146175000D03*
X64700000Y-146175000D03*
D25*
X64730000Y-144200000D03*
X65750000Y-144200000D03*
M02*
