M48
; DRILL file {KiCad 7.0.8} date Sun Oct 22 01:26:39 2023
; FORMAT={-:-/ absolute / metric / decimal}
; #@! TF.CreationDate,2023-10-22T01:26:39-04:00
; #@! TF.GenerationSoftware,Kicad,Pcbnew,7.0.8
; #@! TF.FileFunction,Plated,1,2,PTH
FMAT,2
METRIC
; #@! TA.AperFunction,Plated,PTH,ViaDrill
T1C0.300
%
G90
G05
T1
X31.407Y-62.193
X31.752Y-110.793
X31.889Y-76.4
X31.889Y-97.614
X31.889Y-101.093
X31.91Y-103.97
X31.951Y-21.649
X32.213Y-116.822
X32.227Y-98.617
X32.267Y-107.423
X32.27Y-108.693
X32.4Y-64.1
X32.4Y-77.8
X32.4Y-84.6
X32.4Y-91.5
X32.5Y-29.8
X32.5Y-50.3
X32.5Y-70.9
X32.6Y-36.6
X32.6Y-43.5
X32.6Y-57.2
X32.817Y-114.21
X32.86Y-115.395
X33.496Y-107.8
X34.05Y-99.55
X34.1Y-89.25
X34.1Y-92.7
X34.1Y-96.2
X34.507Y-19.693
X34.507Y-23.116
X34.507Y-26.539
X34.507Y-29.962
X34.507Y-33.385
X34.507Y-36.808
X34.507Y-40.231
X34.507Y-43.654
X34.507Y-47.077
X34.507Y-50.5
X34.507Y-53.923
X34.507Y-57.346
X34.507Y-60.769
X34.507Y-64.192
X34.507Y-67.615
X34.507Y-71.038
X34.507Y-74.461
X34.507Y-77.884
X34.507Y-81.307
X34.507Y-84.73
X34.507Y-88.153
X34.507Y-91.576
X34.507Y-94.999
X34.507Y-98.422
X34.507Y-101.845
X34.507Y-125.806
X34.65Y-115.633
X35.307Y-32.903
X36.389Y-110.855
X36.82Y-104.02
X36.88Y-114.631
X36.98Y-111.146
X37.319Y-20.943
X37.319Y-24.366
X37.319Y-27.789
X37.319Y-31.212
X37.319Y-34.635
X37.319Y-38.058
X37.319Y-41.481
X37.319Y-44.904
X37.319Y-48.327
X37.319Y-51.75
X37.319Y-55.173
X37.319Y-58.596
X37.319Y-62.019
X37.319Y-65.442
X37.319Y-68.865
X37.319Y-72.288
X37.319Y-75.711
X37.319Y-79.134
X37.319Y-82.557
X37.319Y-85.98
X37.319Y-89.403
X37.319Y-92.826
X37.319Y-96.249
X37.319Y-99.672
X37.319Y-102.9
X37.47Y-109.795
X37.88Y-105.811
X37.907Y-101.893
X37.93Y-19.693
X37.93Y-23.116
X37.93Y-26.539
X37.93Y-29.962
X37.93Y-33.385
X37.93Y-36.808
X37.93Y-40.231
X37.93Y-43.654
X37.93Y-47.077
X37.93Y-50.5
X37.93Y-53.923
X37.93Y-57.346
X37.93Y-60.769
X37.93Y-64.192
X37.93Y-67.615
X37.93Y-71.038
X37.93Y-74.461
X37.93Y-77.884
X37.93Y-81.307
X37.93Y-84.73
X37.93Y-88.153
X37.93Y-91.576
X37.93Y-94.999
X37.93Y-98.422
X37.93Y-125.806
X38.348Y-104.4
X38.422Y-112.391
X38.697Y-107.889
X39.259Y-114.669
X39.942Y-87.552
X40.272Y-107.693
X40.482Y-109.723
X40.58Y-110.96
X40.738Y-114.843
X40.807Y-46.476
X40.817Y-108.743
X40.907Y-105.293
X41.257Y-107.568
X41.307Y-101.893
X41.353Y-19.693
X41.353Y-23.116
X41.353Y-26.539
X41.353Y-29.962
X41.353Y-33.385
X41.353Y-36.808
X41.353Y-40.231
X41.353Y-43.654
X41.353Y-47.077
X41.353Y-50.5
X41.353Y-53.923
X41.353Y-57.346
X41.353Y-60.769
X41.353Y-64.192
X41.353Y-67.615
X41.353Y-71.038
X41.353Y-74.461
X41.353Y-77.884
X41.353Y-81.307
X41.353Y-84.73
X41.353Y-88.153
X41.353Y-91.576
X41.353Y-94.999
X41.353Y-98.422
X41.353Y-125.806
X41.787Y-119.09
X43.107Y-104.093
X43.607Y-105.193
X44.707Y-101.893
X44.776Y-19.693
X44.776Y-23.116
X44.776Y-26.539
X44.776Y-29.962
X44.776Y-33.385
X44.776Y-36.808
X44.776Y-40.231
X44.776Y-43.654
X44.776Y-47.077
X44.776Y-50.5
X44.776Y-53.923
X44.776Y-57.346
X44.776Y-60.769
X44.776Y-64.192
X44.776Y-67.615
X44.776Y-71.038
X44.776Y-74.461
X44.776Y-77.884
X44.776Y-81.307
X44.776Y-84.73
X44.776Y-88.153
X44.776Y-91.576
X44.776Y-94.999
X44.776Y-98.422
X44.776Y-122.383
X44.776Y-125.806
X45.277Y-111.632
X47.187Y-116.5
X47.23Y-100.88
X47.507Y-92.847
X47.507Y-96.27
X47.507Y-99.693
X47.507Y-103.116
X47.887Y-116.61
X48.007Y-117.243
X48.199Y-19.693
X48.199Y-23.116
X48.199Y-26.539
X48.199Y-29.962
X48.199Y-33.385
X48.199Y-36.808
X48.199Y-40.231
X48.199Y-43.654
X48.199Y-47.077
X48.199Y-50.5
X48.199Y-53.923
X48.199Y-57.346
X48.199Y-60.769
X48.199Y-64.192
X48.199Y-67.615
X48.199Y-71.038
X48.199Y-74.461
X48.199Y-77.884
X48.199Y-81.307
X48.199Y-84.73
X48.199Y-88.153
X48.199Y-91.576
X48.199Y-94.999
X48.199Y-98.422
X48.199Y-122.383
X48.199Y-125.806
X48.307Y-101.893
X48.749Y-107.823
X49.065Y-114.851
X50.607Y-108.693
X50.67Y-115.95
X51.011Y-27.789
X51.011Y-31.212
X51.011Y-34.635
X51.011Y-38.058
X51.011Y-41.481
X51.011Y-44.904
X51.011Y-48.327
X51.011Y-51.75
X51.011Y-55.173
X51.011Y-58.596
X51.011Y-62.019
X51.011Y-65.442
X51.011Y-68.865
X51.011Y-72.288
X51.011Y-75.711
X51.011Y-79.134
X51.011Y-82.557
X51.011Y-85.98
X51.011Y-89.403
X51.011Y-92.826
X51.107Y-107.344
X51.427Y-115.042
X51.607Y-108.693
X51.622Y-19.693
X51.622Y-23.116
X51.622Y-26.539
X51.622Y-29.962
X51.622Y-33.385
X51.622Y-36.808
X51.622Y-40.231
X51.622Y-43.654
X51.622Y-47.077
X51.622Y-50.5
X51.622Y-53.923
X51.622Y-57.346
X51.622Y-60.769
X51.622Y-64.192
X51.622Y-67.615
X51.622Y-71.038
X51.622Y-74.461
X51.622Y-77.884
X51.622Y-81.307
X51.622Y-84.73
X51.622Y-88.153
X51.622Y-91.576
X51.622Y-94.999
X51.622Y-98.422
X51.622Y-125.806
X51.707Y-101.893
X51.907Y-105.093
X52.43Y-114.681
X54.15Y-114.632
X54.307Y-92.847
X54.307Y-96.27
X54.307Y-99.693
X54.307Y-103.116
X54.907Y-105.293
X54.907Y-115.593
X54.907Y-118.993
X55.045Y-19.693
X55.045Y-23.116
X55.045Y-26.539
X55.045Y-29.962
X55.045Y-33.385
X55.045Y-36.808
X55.045Y-40.231
X55.045Y-43.654
X55.045Y-47.077
X55.045Y-50.5
X55.045Y-53.923
X55.045Y-57.346
X55.045Y-60.769
X55.045Y-64.192
X55.045Y-67.615
X55.045Y-71.038
X55.045Y-74.461
X55.045Y-77.884
X55.045Y-81.307
X55.045Y-84.73
X55.045Y-88.153
X55.045Y-91.576
X55.045Y-94.999
X55.045Y-98.422
X55.045Y-125.806
X55.107Y-101.893
X57.337Y-107.658
X57.447Y-112.109
X57.857Y-20.943
X57.857Y-24.366
X57.857Y-27.789
X57.857Y-31.212
X57.857Y-34.635
X57.857Y-38.058
X57.857Y-41.481
X57.857Y-44.904
X57.857Y-48.327
X57.857Y-51.75
X57.857Y-55.173
X57.857Y-58.596
X57.857Y-62.019
X57.857Y-65.442
X57.857Y-68.865
X57.857Y-72.288
X57.857Y-75.711
X57.857Y-79.134
X57.857Y-82.557
X57.857Y-85.98
X57.857Y-89.403
X57.857Y-92.826
X57.857Y-96.249
X57.857Y-99.672
X57.857Y-103.095
X58.407Y-105.293
X58.468Y-19.693
X58.468Y-23.116
X58.468Y-26.539
X58.468Y-29.962
X58.468Y-33.385
X58.468Y-36.808
X58.468Y-40.231
X58.468Y-43.654
X58.468Y-47.077
X58.468Y-50.5
X58.468Y-53.923
X58.468Y-57.346
X58.468Y-60.769
X58.468Y-64.192
X58.468Y-67.615
X58.468Y-71.038
X58.468Y-74.461
X58.468Y-77.884
X58.468Y-81.307
X58.468Y-84.73
X58.468Y-88.153
X58.468Y-91.576
X58.468Y-94.999
X58.468Y-98.422
X58.468Y-125.806
X58.507Y-101.893
X58.748Y-112.964
X59.1Y-118.993
X59.157Y-108.643
X59.418Y-19.522
X59.507Y-50.259
X59.507Y-77.693
X59.507Y-91.335
X59.707Y-36.693
X59.707Y-63.951
X59.903Y-60.675
X59.906Y-33.29
X59.928Y-74.314
X59.936Y-46.922
X59.974Y-87.96
X60.02Y-101.606
X60.348Y-25.934
T0
M30
