%TF.GenerationSoftware,KiCad,Pcbnew,7.0.8*%
%TF.CreationDate,2023-10-22T01:26:40-04:00*%
%TF.ProjectId,MicrocontrollerInputModule,4d696372-6f63-46f6-9e74-726f6c6c6572,V2.6*%
%TF.SameCoordinates,Original*%
%TF.FileFunction,Drillmap*%
%TF.FilePolarity,Positive*%
%FSLAX45Y45*%
G04 Gerber Fmt 4.5, Leading zero omitted, Abs format (unit mm)*
G04 Created by KiCad (PCBNEW 7.0.8) date 2023-10-22 01:26:40*
%MOMM*%
%LPD*%
G01*
G04 APERTURE LIST*
%ADD10C,0.100000*%
%ADD11C,0.200000*%
G04 APERTURE END LIST*
D10*
X3160711Y-1805011D02*
G75*
G03*
X3060711Y-1905011I-1J-99999D01*
G01*
X6160710Y-12845011D02*
X6160711Y-1905011D01*
X3160711Y-12945010D02*
X6060710Y-12945011D01*
X3060710Y-12845010D02*
G75*
G03*
X3160711Y-12945010I100000J0D01*
G01*
X6060711Y-1805011D02*
X3160711Y-1805011D01*
X6160709Y-1905011D02*
G75*
G03*
X6060711Y-1805011I-99999J1D01*
G01*
X3060711Y-1905011D02*
X3060711Y-12845010D01*
X6060710Y-12945010D02*
G75*
G03*
X6160710Y-12845011I-1J100000D01*
G01*
D11*
X3316487Y-13261494D02*
X3316487Y-13061494D01*
X3316487Y-13061494D02*
X3364106Y-13061494D01*
X3364106Y-13061494D02*
X3392678Y-13071018D01*
X3392678Y-13071018D02*
X3411726Y-13090066D01*
X3411726Y-13090066D02*
X3421249Y-13109113D01*
X3421249Y-13109113D02*
X3430773Y-13147209D01*
X3430773Y-13147209D02*
X3430773Y-13175780D01*
X3430773Y-13175780D02*
X3421249Y-13213875D01*
X3421249Y-13213875D02*
X3411726Y-13232923D01*
X3411726Y-13232923D02*
X3392678Y-13251971D01*
X3392678Y-13251971D02*
X3364106Y-13261494D01*
X3364106Y-13261494D02*
X3316487Y-13261494D01*
X3516487Y-13261494D02*
X3516487Y-13128161D01*
X3516487Y-13166256D02*
X3526011Y-13147209D01*
X3526011Y-13147209D02*
X3535535Y-13137685D01*
X3535535Y-13137685D02*
X3554583Y-13128161D01*
X3554583Y-13128161D02*
X3573630Y-13128161D01*
X3640297Y-13261494D02*
X3640297Y-13128161D01*
X3640297Y-13061494D02*
X3630773Y-13071018D01*
X3630773Y-13071018D02*
X3640297Y-13080542D01*
X3640297Y-13080542D02*
X3649821Y-13071018D01*
X3649821Y-13071018D02*
X3640297Y-13061494D01*
X3640297Y-13061494D02*
X3640297Y-13080542D01*
X3764106Y-13261494D02*
X3745059Y-13251971D01*
X3745059Y-13251971D02*
X3735535Y-13232923D01*
X3735535Y-13232923D02*
X3735535Y-13061494D01*
X3868868Y-13261494D02*
X3849821Y-13251971D01*
X3849821Y-13251971D02*
X3840297Y-13232923D01*
X3840297Y-13232923D02*
X3840297Y-13061494D01*
X4097440Y-13261494D02*
X4097440Y-13061494D01*
X4097440Y-13061494D02*
X4164107Y-13204351D01*
X4164107Y-13204351D02*
X4230773Y-13061494D01*
X4230773Y-13061494D02*
X4230773Y-13261494D01*
X4411726Y-13261494D02*
X4411726Y-13156732D01*
X4411726Y-13156732D02*
X4402202Y-13137685D01*
X4402202Y-13137685D02*
X4383154Y-13128161D01*
X4383154Y-13128161D02*
X4345059Y-13128161D01*
X4345059Y-13128161D02*
X4326011Y-13137685D01*
X4411726Y-13251971D02*
X4392678Y-13261494D01*
X4392678Y-13261494D02*
X4345059Y-13261494D01*
X4345059Y-13261494D02*
X4326011Y-13251971D01*
X4326011Y-13251971D02*
X4316488Y-13232923D01*
X4316488Y-13232923D02*
X4316488Y-13213875D01*
X4316488Y-13213875D02*
X4326011Y-13194828D01*
X4326011Y-13194828D02*
X4345059Y-13185304D01*
X4345059Y-13185304D02*
X4392678Y-13185304D01*
X4392678Y-13185304D02*
X4411726Y-13175780D01*
X4506964Y-13128161D02*
X4506964Y-13328161D01*
X4506964Y-13137685D02*
X4526011Y-13128161D01*
X4526011Y-13128161D02*
X4564107Y-13128161D01*
X4564107Y-13128161D02*
X4583154Y-13137685D01*
X4583154Y-13137685D02*
X4592678Y-13147209D01*
X4592678Y-13147209D02*
X4602202Y-13166256D01*
X4602202Y-13166256D02*
X4602202Y-13223399D01*
X4602202Y-13223399D02*
X4592678Y-13242447D01*
X4592678Y-13242447D02*
X4583154Y-13251971D01*
X4583154Y-13251971D02*
X4564107Y-13261494D01*
X4564107Y-13261494D02*
X4526011Y-13261494D01*
X4526011Y-13261494D02*
X4506964Y-13251971D01*
X4687916Y-13242447D02*
X4697440Y-13251971D01*
X4697440Y-13251971D02*
X4687916Y-13261494D01*
X4687916Y-13261494D02*
X4678392Y-13251971D01*
X4678392Y-13251971D02*
X4687916Y-13242447D01*
X4687916Y-13242447D02*
X4687916Y-13261494D01*
X4687916Y-13137685D02*
X4697440Y-13147209D01*
X4697440Y-13147209D02*
X4687916Y-13156732D01*
X4687916Y-13156732D02*
X4678392Y-13147209D01*
X4678392Y-13147209D02*
X4687916Y-13137685D01*
X4687916Y-13137685D02*
X4687916Y-13156732D01*
M02*
