M48
; DRILL file {KiCad 8.0.1} date 2024-04-01T01:10:39-0400
; FORMAT={-:-/ absolute / inch / decimal}
; #@! TF.CreationDate,2024-04-01T01:10:39-04:00
; #@! TF.GenerationSoftware,Kicad,Pcbnew,8.0.1
; #@! TF.FileFunction,NonPlated,1,2,NPTH
FMAT,2
INCH
; #@! TA.AperFunction,NonPlated,NPTH,ComponentDrill
T1C0.0197
; #@! TA.AperFunction,NonPlated,NPTH,ComponentDrill
T2C0.0454
%
G90
G05
T1
X0.0Y-0.2756
X0.0Y-4.6614
X0.0328Y-0.2756
X0.0328Y-4.6614
X0.0656Y-0.2756
X0.0656Y-4.6614
X0.0984Y-0.2756
X0.0984Y-4.6614
X0.1312Y-0.2756
X0.1312Y-4.6614
X0.164Y-0.2756
X0.164Y-4.6614
X0.1969Y-0.2756
X0.1969Y-4.6614
X0.2756Y0.0
X0.2756Y-0.0328
X0.2756Y-0.0656
X0.2756Y-0.0984
X0.2756Y-0.1312
X0.2756Y-0.164
X0.2756Y-0.1969
X0.2756Y-4.1938
X0.2756Y-4.2332
X0.2756Y-4.7402
X0.2756Y-4.773
X0.2756Y-4.8058
X0.2756Y-4.8386
X0.2756Y-4.8714
X0.2756Y-4.9042
X0.2756Y-4.937
X0.2756Y-4.115
X0.2756Y-4.1544
X0.2756Y-3.6277
X0.2756Y-3.6671
X0.2756Y-3.7065
X0.2756Y-3.7458
X0.2756Y-3.1404
X0.2756Y-3.1798
X0.2756Y-3.2192
X0.2756Y-3.2585
X0.2756Y-2.6531
X0.2756Y-2.6925
X0.2756Y-2.7318
X0.2756Y-2.7712
X0.2756Y-2.1658
X0.2756Y-2.2052
X0.2756Y-2.2445
X0.2756Y-2.2839
X0.2756Y-1.6785
X0.2756Y-1.7178
X0.2756Y-1.7572
X0.2756Y-1.7966
X0.2756Y-1.1912
X0.2756Y-1.2305
X0.2756Y-1.2699
X0.2756Y-1.3093
X0.2756Y-0.7826
X0.2756Y-0.822
X0.2756Y-0.7038
X0.2756Y-0.7432
X0.6234Y-0.2756
X0.6234Y-4.6614
X0.6627Y-0.2756
X0.6627Y-4.6614
X0.7021Y-0.2756
X0.7021Y-4.6614
X0.7415Y-0.2756
X0.7415Y-4.6614
X1.0302Y-0.2756
X1.0302Y-4.6614
X1.0696Y-0.2756
X1.0696Y-4.6614
X1.1089Y-0.2756
X1.1089Y-4.6614
X1.1483Y-0.2756
X1.1483Y-4.6614
X1.4961Y-0.7038
X1.4961Y-0.7432
X1.4961Y-0.7826
X1.4961Y-0.822
X1.4961Y-1.1912
X1.4961Y-1.2305
X1.4961Y-1.2699
X1.4961Y-1.3093
X1.4961Y-1.6785
X1.4961Y-1.7178
X1.4961Y-1.7572
X1.4961Y-1.7966
X1.4961Y-2.1658
X1.4961Y-2.2052
X1.4961Y-2.2445
X1.4961Y-2.2839
X1.4961Y-2.6531
X1.4961Y-2.6925
X1.4961Y-2.7318
X1.4961Y-2.7712
X1.4961Y-3.1404
X1.4961Y-3.1798
X1.4961Y-3.2192
X1.4961Y-3.2585
X1.4961Y-3.6277
X1.4961Y-3.6671
X1.4961Y-3.7065
X1.4961Y-3.7458
X1.4961Y-4.115
X1.4961Y-4.1544
X1.4961Y-4.1938
X1.4961Y-4.2332
X1.6535Y-4.1938
X1.6535Y-4.2332
X1.6535Y-4.115
X1.6535Y-4.1544
X1.6535Y-3.6277
X1.6535Y-3.6671
X1.6535Y-3.7065
X1.6535Y-3.7458
X1.6535Y-3.1404
X1.6535Y-3.1798
X1.6535Y-3.2192
X1.6535Y-3.2585
X1.6535Y-2.6531
X1.6535Y-2.6925
X1.6535Y-2.7318
X1.6535Y-2.7712
X1.6535Y-2.1658
X1.6535Y-2.2052
X1.6535Y-2.2445
X1.6535Y-2.2839
X1.6535Y-1.6785
X1.6535Y-1.7178
X1.6535Y-1.7572
X1.6535Y-1.7966
X1.6535Y-1.1912
X1.6535Y-1.2305
X1.6535Y-1.2699
X1.6535Y-1.3093
X1.6535Y-0.7826
X1.6535Y-0.822
X1.6535Y-0.7038
X1.6535Y-0.7432
X2.0013Y-0.2756
X2.0013Y-4.6614
X2.0407Y-0.2756
X2.0407Y-4.6614
X2.0801Y-0.2756
X2.0801Y-4.6614
X2.1194Y-0.2756
X2.1194Y-4.6614
X2.4081Y-0.2756
X2.4081Y-4.6614
X2.4475Y-0.2756
X2.4475Y-4.6614
X2.4869Y-0.2756
X2.4869Y-4.6614
X2.5262Y-0.2756
X2.5262Y-4.6614
X2.874Y-0.7038
X2.874Y-0.7432
X2.874Y-0.7826
X2.874Y-0.822
X2.874Y-1.1912
X2.874Y-1.2305
X2.874Y-1.2699
X2.874Y-1.3093
X2.874Y-1.6785
X2.874Y-1.7178
X2.874Y-1.7572
X2.874Y-1.7966
X2.874Y-2.1658
X2.874Y-2.2052
X2.874Y-2.2445
X2.874Y-2.2839
X2.874Y-2.6531
X2.874Y-2.6925
X2.874Y-2.7318
X2.874Y-2.7712
X2.874Y-3.1404
X2.874Y-3.1798
X2.874Y-3.2192
X2.874Y-3.2585
X2.874Y-3.6277
X2.874Y-3.6671
X2.874Y-3.7065
X2.874Y-3.7458
X2.874Y-4.115
X2.874Y-4.1544
X2.874Y-4.1938
X2.874Y-4.2332
X2.874Y0.0
X2.874Y-0.0328
X2.874Y-0.0656
X2.874Y-0.0984
X2.874Y-0.1312
X2.874Y-0.164
X2.874Y-0.1969
X2.874Y-4.7402
X2.874Y-4.773
X2.874Y-4.8058
X2.874Y-4.8386
X2.874Y-4.8714
X2.874Y-4.9042
X2.874Y-4.937
X2.9528Y-0.2756
X2.9528Y-4.6614
X2.9856Y-0.2756
X2.9856Y-4.6614
X3.0184Y-0.2756
X3.0184Y-4.6614
X3.0512Y-0.2756
X3.0512Y-4.6614
X3.084Y-0.2756
X3.084Y-4.6614
X3.1168Y-0.2756
X3.1168Y-4.6614
X3.1496Y-0.2756
X3.1496Y-4.6614
T2
X0.1181Y-0.1181
X0.1181Y-4.8189
X3.0315Y-0.1181
X3.0315Y-4.8189
M30
