M48
; DRILL file {KiCad 8.0.1} date 2024-04-01T01:10:39-0400
; FORMAT={-:-/ absolute / inch / decimal}
; #@! TF.CreationDate,2024-04-01T01:10:39-04:00
; #@! TF.GenerationSoftware,Kicad,Pcbnew,8.0.1
; #@! TF.FileFunction,Plated,1,2,PTH
FMAT,2
INCH
; #@! TA.AperFunction,Plated,PTH,ViaDrill
T1C0.0118
%
G90
G05
T1
X0.3071Y-2.0135
X0.3206Y-3.9269
X0.3261Y-2.5728
X0.3261Y-3.408
X0.3269Y-3.6583
X0.3285Y-0.4173
X0.3368Y-3.5564
X0.3388Y-4.1642
X0.3394Y-3.4475
X0.3409Y-3.7942
X0.3411Y-3.8442
X0.3462Y-2.0886
X0.3462Y-2.6279
X0.3462Y-2.8957
X0.3462Y-3.1673
X0.3501Y-0.7382
X0.3501Y-1.5453
X0.3501Y-2.3563
X0.3541Y-1.0059
X0.3541Y-1.2776
X0.3541Y-1.8169
X0.3626Y-4.0614
X0.3643Y-4.1081
X0.3893Y-3.8091
X0.4111Y-3.4842
X0.4131Y-3.0787
X0.4131Y-3.2146
X0.4131Y-3.3524
X0.4291Y-0.3403
X0.4291Y-0.475
X0.4291Y-0.6098
X0.4291Y-0.7446
X0.4291Y-0.8793
X0.4291Y-1.0141
X0.4291Y-1.1489
X0.4291Y-1.2836
X0.4291Y-1.4184
X0.4291Y-1.5531
X0.4291Y-1.6879
X0.4291Y-1.8227
X0.4291Y-1.9574
X0.4291Y-2.0922
X0.4291Y-2.227
X0.4291Y-2.3617
X0.4291Y-2.4965
X0.4291Y-2.6313
X0.4291Y-2.766
X0.4291Y-2.9008
X0.4291Y-3.0356
X0.4291Y-3.1703
X0.4291Y-3.3051
X0.4291Y-3.4398
X0.4291Y-3.5746
X0.4291Y-4.518
X0.4348Y-4.1174
X0.4367Y-4.3839
X0.4407Y-4.25
X0.4606Y-0.8603
X0.5032Y-3.9293
X0.5202Y-3.6602
X0.5226Y-4.078
X0.5265Y-3.9408
X0.5398Y-0.3895
X0.5398Y-0.5243
X0.5398Y-0.659
X0.5398Y-0.7938
X0.5398Y-0.9285
X0.5398Y-1.0633
X0.5398Y-1.1981
X0.5398Y-1.3328
X0.5398Y-1.4676
X0.5398Y-1.6024
X0.5398Y-1.7371
X0.5398Y-1.8719
X0.5398Y-2.0067
X0.5398Y-2.1414
X0.5398Y-2.2762
X0.5398Y-2.4109
X0.5398Y-2.5457
X0.5398Y-2.6805
X0.5398Y-2.8152
X0.5398Y-2.95
X0.5398Y-3.0848
X0.5398Y-3.2195
X0.5398Y-3.3543
X0.5398Y-3.4891
X0.5398Y-3.6161
X0.5458Y-3.8876
X0.5619Y-3.7307
X0.563Y-3.5765
X0.5639Y-0.3403
X0.5639Y-0.475
X0.5639Y-0.6098
X0.5639Y-0.7446
X0.5639Y-0.8793
X0.5639Y-1.0141
X0.5639Y-1.1489
X0.5639Y-1.2836
X0.5639Y-1.4184
X0.5639Y-1.5531
X0.5639Y-1.6879
X0.5639Y-1.8227
X0.5639Y-1.9574
X0.5639Y-2.0922
X0.5639Y-2.227
X0.5639Y-2.3617
X0.5639Y-2.4965
X0.5639Y-2.6313
X0.5639Y-2.766
X0.5639Y-2.9008
X0.5639Y-3.0356
X0.5639Y-3.1703
X0.5639Y-3.3051
X0.5639Y-3.4398
X0.5639Y-4.518
X0.5804Y-3.6752
X0.5833Y-3.9898
X0.5941Y-3.8125
X0.6162Y-4.0795
X0.6431Y-3.0119
X0.6561Y-3.8048
X0.6644Y-3.8848
X0.6682Y-3.9335
X0.6744Y-4.0863
X0.6772Y-1.3947
X0.6776Y-3.8462
X0.6811Y-3.7104
X0.6949Y-3.7999
X0.6969Y-3.5765
X0.6987Y-0.3403
X0.6987Y-0.475
X0.6987Y-0.6098
X0.6987Y-0.7446
X0.6987Y-0.8793
X0.6987Y-1.0141
X0.6987Y-1.1489
X0.6987Y-1.2836
X0.6987Y-1.4184
X0.6987Y-1.5531
X0.6987Y-1.6879
X0.6987Y-1.8227
X0.6987Y-1.9574
X0.6987Y-2.0922
X0.6987Y-2.227
X0.6987Y-2.3617
X0.6987Y-2.4965
X0.6987Y-2.6313
X0.6987Y-2.766
X0.6987Y-2.9008
X0.6987Y-3.0356
X0.6987Y-3.1703
X0.6987Y-3.3051
X0.6987Y-3.4398
X0.6987Y-4.518
X0.7157Y-4.2535
X0.7677Y-3.6631
X0.7874Y-3.7064
X0.8307Y-3.5765
X0.8334Y-0.3403
X0.8334Y-0.475
X0.8334Y-0.6098
X0.8334Y-0.7446
X0.8334Y-0.8793
X0.8334Y-1.0141
X0.8334Y-1.1489
X0.8334Y-1.2836
X0.8334Y-1.4184
X0.8334Y-1.5531
X0.8334Y-1.6879
X0.8334Y-1.8227
X0.8334Y-1.9574
X0.8334Y-2.0922
X0.8334Y-2.227
X0.8334Y-2.3617
X0.8334Y-2.4965
X0.8334Y-2.6313
X0.8334Y-2.766
X0.8334Y-2.9008
X0.8334Y-3.0356
X0.8334Y-3.1703
X0.8334Y-3.3051
X0.8334Y-3.4398
X0.8334Y-4.3832
X0.8334Y-4.518
X0.8531Y-3.9599
X0.8632Y-3.5604
X0.9283Y-4.1516
X0.9409Y-3.2204
X0.9409Y-3.3551
X0.9409Y-3.4899
X0.9409Y-3.6246
X0.9559Y-4.1559
X0.9606Y-4.1808
X0.9682Y-0.3403
X0.9682Y-0.475
X0.9682Y-0.6098
X0.9682Y-0.7446
X0.9682Y-0.8793
X0.9682Y-1.0141
X0.9682Y-1.1489
X0.9682Y-1.2836
X0.9682Y-1.4184
X0.9682Y-1.5531
X0.9682Y-1.6879
X0.9682Y-1.8227
X0.9682Y-1.9574
X0.9682Y-2.0922
X0.9682Y-2.227
X0.9682Y-2.3617
X0.9682Y-2.4965
X0.9682Y-2.6313
X0.9682Y-2.766
X0.9682Y-2.9008
X0.9682Y-3.0356
X0.9682Y-3.1703
X0.9682Y-3.3051
X0.9682Y-3.4398
X0.9682Y-4.3832
X0.9682Y-4.518
X0.9724Y-3.5765
X0.9898Y-3.81
X1.0023Y-4.0866
X1.063Y-3.8442
X1.0655Y-4.1299
X1.0789Y-0.659
X1.0789Y-0.7938
X1.0789Y-0.9285
X1.0789Y-1.0633
X1.0789Y-1.1981
X1.0789Y-1.3328
X1.0789Y-1.4676
X1.0789Y-1.6024
X1.0789Y-1.7371
X1.0789Y-1.8719
X1.0789Y-2.0067
X1.0789Y-2.1414
X1.0789Y-2.2762
X1.0789Y-2.4109
X1.0789Y-2.5457
X1.0789Y-2.6805
X1.0789Y-2.8152
X1.0789Y-2.95
X1.0789Y-3.0848
X1.0789Y-3.2195
X1.0827Y-3.7911
X1.0953Y-4.0942
X1.1024Y-3.8442
X1.103Y-0.3403
X1.103Y-0.475
X1.103Y-0.6098
X1.103Y-0.7446
X1.103Y-0.8793
X1.103Y-1.0141
X1.103Y-1.1489
X1.103Y-1.2836
X1.103Y-1.4184
X1.103Y-1.5531
X1.103Y-1.6879
X1.103Y-1.8227
X1.103Y-1.9574
X1.103Y-2.0922
X1.103Y-2.227
X1.103Y-2.3617
X1.103Y-2.4965
X1.103Y-2.6313
X1.103Y-2.766
X1.103Y-2.9008
X1.103Y-3.0356
X1.103Y-3.1703
X1.103Y-3.3051
X1.103Y-3.4398
X1.103Y-4.518
X1.1063Y-3.5765
X1.1142Y-3.7025
X1.1346Y-4.0945
X1.1966Y-4.0866
X1.2087Y-3.2204
X1.2087Y-3.3551
X1.2087Y-3.4899
X1.2087Y-3.6246
X1.2323Y-3.7104
X1.2323Y-4.1159
X1.2323Y-4.2497
X1.2377Y-0.3403
X1.2377Y-0.475
X1.2377Y-0.6098
X1.2377Y-0.7446
X1.2377Y-0.8793
X1.2377Y-1.0141
X1.2377Y-1.1489
X1.2377Y-1.2836
X1.2377Y-1.4184
X1.2377Y-1.5531
X1.2377Y-1.6879
X1.2377Y-1.8227
X1.2377Y-1.9574
X1.2377Y-2.0922
X1.2377Y-2.227
X1.2377Y-2.3617
X1.2377Y-2.4965
X1.2377Y-2.6313
X1.2377Y-2.766
X1.2377Y-2.9008
X1.2377Y-3.0356
X1.2377Y-3.1703
X1.2377Y-3.3051
X1.2377Y-3.4398
X1.2377Y-4.518
X1.2402Y-3.5765
X1.328Y-3.8035
X1.3323Y-3.9787
X1.3484Y-0.3895
X1.3484Y-0.5243
X1.3484Y-0.659
X1.3484Y-0.7938
X1.3484Y-0.9285
X1.3484Y-1.0633
X1.3484Y-1.1981
X1.3484Y-1.3328
X1.3484Y-1.4676
X1.3484Y-1.6024
X1.3484Y-1.7371
X1.3484Y-1.8719
X1.3484Y-2.0067
X1.3484Y-2.1414
X1.3484Y-2.2762
X1.3484Y-2.4109
X1.3484Y-2.5457
X1.3484Y-2.6805
X1.3484Y-2.8152
X1.3484Y-2.95
X1.3484Y-3.0848
X1.3484Y-3.2195
X1.3484Y-3.3543
X1.3484Y-3.4891
X1.3484Y-3.6238
X1.3701Y-3.7104
X1.3725Y-0.3403
X1.3725Y-0.475
X1.3725Y-0.6098
X1.3725Y-0.7446
X1.3725Y-0.8793
X1.3725Y-1.0141
X1.3725Y-1.1489
X1.3725Y-1.2836
X1.3725Y-1.4184
X1.3725Y-1.5531
X1.3725Y-1.6879
X1.3725Y-1.8227
X1.3725Y-1.9574
X1.3725Y-2.0922
X1.3725Y-2.227
X1.3725Y-2.3617
X1.3725Y-2.4965
X1.3725Y-2.6313
X1.3725Y-2.766
X1.3725Y-2.9008
X1.3725Y-3.0356
X1.3725Y-3.1703
X1.3725Y-3.3051
X1.3725Y-3.4398
X1.3725Y-4.518
X1.374Y-3.5765
X1.3835Y-4.0124
X1.3974Y-4.2497
X1.3996Y-3.8422
X1.4099Y-0.3335
X1.4134Y-1.5437
X1.4134Y-2.6237
X1.4134Y-3.1608
X1.4213Y-1.0096
X1.4213Y-2.0827
X1.429Y-1.9537
X1.4291Y-0.8756
X1.43Y-2.4907
X1.4303Y-1.4123
X1.4318Y-3.028
X1.4336Y-3.5652
X1.4465Y-0.586
X1.685Y-2.0135
X1.6986Y-3.9269
X1.704Y-2.5728
X1.704Y-3.408
X1.7048Y-3.6583
X1.7065Y-0.4173
X1.7147Y-3.5564
X1.7168Y-4.1642
X1.7173Y-3.4475
X1.7189Y-3.7942
X1.719Y-3.8442
X1.7241Y-2.0886
X1.7241Y-2.6279
X1.7241Y-2.8957
X1.7241Y-3.1673
X1.7281Y-0.7382
X1.7281Y-1.5453
X1.7281Y-2.3563
X1.732Y-1.0059
X1.732Y-1.2776
X1.732Y-1.8169
X1.7406Y-4.0614
X1.7422Y-4.1081
X1.7673Y-3.8091
X1.7891Y-3.4842
X1.7911Y-3.0787
X1.7911Y-3.2146
X1.7911Y-3.3524
X1.8071Y-0.3403
X1.8071Y-0.475
X1.8071Y-0.6098
X1.8071Y-0.7446
X1.8071Y-0.8793
X1.8071Y-1.0141
X1.8071Y-1.1489
X1.8071Y-1.2836
X1.8071Y-1.4184
X1.8071Y-1.5531
X1.8071Y-1.6879
X1.8071Y-1.8227
X1.8071Y-1.9574
X1.8071Y-2.0922
X1.8071Y-2.227
X1.8071Y-2.3617
X1.8071Y-2.4965
X1.8071Y-2.6313
X1.8071Y-2.766
X1.8071Y-2.9008
X1.8071Y-3.0356
X1.8071Y-3.1703
X1.8071Y-3.3051
X1.8071Y-3.4398
X1.8071Y-3.5746
X1.8071Y-4.518
X1.8127Y-4.1174
X1.8147Y-4.3839
X1.8186Y-4.25
X1.8386Y-0.8603
X1.8812Y-3.9293
X1.8981Y-3.6602
X1.9005Y-4.078
X1.9044Y-3.9408
X1.9178Y-0.3895
X1.9178Y-0.5243
X1.9178Y-0.659
X1.9178Y-0.7938
X1.9178Y-0.9285
X1.9178Y-1.0633
X1.9178Y-1.1981
X1.9178Y-1.3328
X1.9178Y-1.4676
X1.9178Y-1.6024
X1.9178Y-1.7371
X1.9178Y-1.8719
X1.9178Y-2.0067
X1.9178Y-2.1414
X1.9178Y-2.2762
X1.9178Y-2.4109
X1.9178Y-2.5457
X1.9178Y-2.6805
X1.9178Y-2.8152
X1.9178Y-2.95
X1.9178Y-3.0848
X1.9178Y-3.2195
X1.9178Y-3.3543
X1.9178Y-3.4891
X1.9178Y-3.6161
X1.9237Y-3.8876
X1.9399Y-3.7307
X1.9409Y-3.5765
X1.9419Y-0.3403
X1.9419Y-0.475
X1.9419Y-0.6098
X1.9419Y-0.7446
X1.9419Y-0.8793
X1.9419Y-1.0141
X1.9419Y-1.1489
X1.9419Y-1.2836
X1.9419Y-1.4184
X1.9419Y-1.5531
X1.9419Y-1.6879
X1.9419Y-1.8227
X1.9419Y-1.9574
X1.9419Y-2.0922
X1.9419Y-2.227
X1.9419Y-2.3617
X1.9419Y-2.4965
X1.9419Y-2.6313
X1.9419Y-2.766
X1.9419Y-2.9008
X1.9419Y-3.0356
X1.9419Y-3.1703
X1.9419Y-3.3051
X1.9419Y-3.4398
X1.9419Y-4.518
X1.9583Y-3.6752
X1.9612Y-3.9898
X1.9721Y-3.8125
X1.9942Y-4.0795
X2.0211Y-3.0119
X2.034Y-3.8048
X2.0423Y-3.8848
X2.0462Y-3.9335
X2.0524Y-4.0863
X2.0551Y-1.3947
X2.0555Y-3.8462
X2.0591Y-3.7104
X2.0728Y-3.7999
X2.0748Y-3.5765
X2.0766Y-0.3403
X2.0766Y-0.475
X2.0766Y-0.6098
X2.0766Y-0.7446
X2.0766Y-0.8793
X2.0766Y-1.0141
X2.0766Y-1.1489
X2.0766Y-1.2836
X2.0766Y-1.4184
X2.0766Y-1.5531
X2.0766Y-1.6879
X2.0766Y-1.8227
X2.0766Y-1.9574
X2.0766Y-2.0922
X2.0766Y-2.227
X2.0766Y-2.3617
X2.0766Y-2.4965
X2.0766Y-2.6313
X2.0766Y-2.766
X2.0766Y-2.9008
X2.0766Y-3.0356
X2.0766Y-3.1703
X2.0766Y-3.3051
X2.0766Y-3.4398
X2.0766Y-4.518
X2.0937Y-4.2535
X2.1457Y-3.6631
X2.1654Y-3.7064
X2.2087Y-3.5765
X2.2114Y-0.3403
X2.2114Y-0.475
X2.2114Y-0.6098
X2.2114Y-0.7446
X2.2114Y-0.8793
X2.2114Y-1.0141
X2.2114Y-1.1489
X2.2114Y-1.2836
X2.2114Y-1.4184
X2.2114Y-1.5531
X2.2114Y-1.6879
X2.2114Y-1.8227
X2.2114Y-1.9574
X2.2114Y-2.0922
X2.2114Y-2.227
X2.2114Y-2.3617
X2.2114Y-2.4965
X2.2114Y-2.6313
X2.2114Y-2.766
X2.2114Y-2.9008
X2.2114Y-3.0356
X2.2114Y-3.1703
X2.2114Y-3.3051
X2.2114Y-3.4398
X2.2114Y-4.3832
X2.2114Y-4.518
X2.2311Y-3.9599
X2.2411Y-3.5604
X2.3063Y-4.1516
X2.3189Y-3.2204
X2.3189Y-3.3551
X2.3189Y-3.4899
X2.3189Y-3.6246
X2.3339Y-4.1559
X2.3386Y-4.1808
X2.3461Y-0.3403
X2.3461Y-0.475
X2.3461Y-0.6098
X2.3461Y-0.7446
X2.3461Y-0.8793
X2.3461Y-1.0141
X2.3461Y-1.1489
X2.3461Y-1.2836
X2.3461Y-1.4184
X2.3461Y-1.5531
X2.3461Y-1.6879
X2.3461Y-1.8227
X2.3461Y-1.9574
X2.3461Y-2.0922
X2.3461Y-2.227
X2.3461Y-2.3617
X2.3461Y-2.4965
X2.3461Y-2.6313
X2.3461Y-2.766
X2.3461Y-2.9008
X2.3461Y-3.0356
X2.3461Y-3.1703
X2.3461Y-3.3051
X2.3461Y-3.4398
X2.3461Y-4.3832
X2.3461Y-4.518
X2.3504Y-3.5765
X2.3678Y-3.81
X2.3802Y-4.0866
X2.4409Y-3.8442
X2.4434Y-4.1299
X2.4569Y-0.659
X2.4569Y-0.7938
X2.4569Y-0.9285
X2.4569Y-1.0633
X2.4569Y-1.1981
X2.4569Y-1.3328
X2.4569Y-1.4676
X2.4569Y-1.6024
X2.4569Y-1.7371
X2.4569Y-1.8719
X2.4569Y-2.0067
X2.4569Y-2.1414
X2.4569Y-2.2762
X2.4569Y-2.4109
X2.4569Y-2.5457
X2.4569Y-2.6805
X2.4569Y-2.8152
X2.4569Y-2.95
X2.4569Y-3.0848
X2.4569Y-3.2195
X2.4606Y-3.7911
X2.4732Y-4.0942
X2.4803Y-3.8442
X2.4809Y-0.3403
X2.4809Y-0.475
X2.4809Y-0.6098
X2.4809Y-0.7446
X2.4809Y-0.8793
X2.4809Y-1.0141
X2.4809Y-1.1489
X2.4809Y-1.2836
X2.4809Y-1.4184
X2.4809Y-1.5531
X2.4809Y-1.6879
X2.4809Y-1.8227
X2.4809Y-1.9574
X2.4809Y-2.0922
X2.4809Y-2.227
X2.4809Y-2.3617
X2.4809Y-2.4965
X2.4809Y-2.6313
X2.4809Y-2.766
X2.4809Y-2.9008
X2.4809Y-3.0356
X2.4809Y-3.1703
X2.4809Y-3.3051
X2.4809Y-3.4398
X2.4809Y-4.518
X2.4843Y-3.5765
X2.4921Y-3.7025
X2.5125Y-4.0945
X2.5745Y-4.0866
X2.5866Y-3.2204
X2.5866Y-3.3551
X2.5866Y-3.4899
X2.5866Y-3.6246
X2.6102Y-3.7104
X2.6102Y-4.1159
X2.6102Y-4.2497
X2.6157Y-0.3403
X2.6157Y-0.475
X2.6157Y-0.6098
X2.6157Y-0.7446
X2.6157Y-0.8793
X2.6157Y-1.0141
X2.6157Y-1.1489
X2.6157Y-1.2836
X2.6157Y-1.4184
X2.6157Y-1.5531
X2.6157Y-1.6879
X2.6157Y-1.8227
X2.6157Y-1.9574
X2.6157Y-2.0922
X2.6157Y-2.227
X2.6157Y-2.3617
X2.6157Y-2.4965
X2.6157Y-2.6313
X2.6157Y-2.766
X2.6157Y-2.9008
X2.6157Y-3.0356
X2.6157Y-3.1703
X2.6157Y-3.3051
X2.6157Y-3.4398
X2.6157Y-4.518
X2.6181Y-3.5765
X2.7059Y-3.8035
X2.7102Y-3.9787
X2.7264Y-0.3895
X2.7264Y-0.5243
X2.7264Y-0.659
X2.7264Y-0.7938
X2.7264Y-0.9285
X2.7264Y-1.0633
X2.7264Y-1.1981
X2.7264Y-1.3328
X2.7264Y-1.4676
X2.7264Y-1.6024
X2.7264Y-1.7371
X2.7264Y-1.8719
X2.7264Y-2.0067
X2.7264Y-2.1414
X2.7264Y-2.2762
X2.7264Y-2.4109
X2.7264Y-2.5457
X2.7264Y-2.6805
X2.7264Y-2.8152
X2.7264Y-2.95
X2.7264Y-3.0848
X2.7264Y-3.2195
X2.7264Y-3.3543
X2.7264Y-3.4891
X2.7264Y-3.6238
X2.748Y-3.7104
X2.7504Y-0.3403
X2.7504Y-0.475
X2.7504Y-0.6098
X2.7504Y-0.7446
X2.7504Y-0.8793
X2.7504Y-1.0141
X2.7504Y-1.1489
X2.7504Y-1.2836
X2.7504Y-1.4184
X2.7504Y-1.5531
X2.7504Y-1.6879
X2.7504Y-1.8227
X2.7504Y-1.9574
X2.7504Y-2.0922
X2.7504Y-2.227
X2.7504Y-2.3617
X2.7504Y-2.4965
X2.7504Y-2.6313
X2.7504Y-2.766
X2.7504Y-2.9008
X2.7504Y-3.0356
X2.7504Y-3.1703
X2.7504Y-3.3051
X2.7504Y-3.4398
X2.7504Y-4.518
X2.752Y-3.5765
X2.7615Y-4.0124
X2.7753Y-4.2497
X2.7776Y-3.8422
X2.7878Y-0.3335
X2.7913Y-1.5437
X2.7913Y-2.6237
X2.7913Y-3.1608
X2.7992Y-1.0096
X2.7992Y-2.0827
X2.8069Y-1.9537
X2.8071Y-0.8756
X2.8079Y-2.4907
X2.8082Y-1.4123
X2.8097Y-3.028
X2.8115Y-3.5652
X2.8244Y-0.586
M30
