%TF.GenerationSoftware,KiCad,Pcbnew,8.0.1*%
%TF.CreationDate,2024-04-01T01:10:39-04:00*%
%TF.ProjectId,RGB-Panel,5247422d-5061-46e6-956c-2e6b69636164,V3.0*%
%TF.SameCoordinates,Original*%
%TF.FileFunction,Paste,Top*%
%TF.FilePolarity,Positive*%
%FSLAX46Y46*%
G04 Gerber Fmt 4.6, Leading zero omitted, Abs format (unit mm)*
G04 Created by KiCad (PCBNEW 8.0.1) date 2024-04-01 01:10:39*
%MOMM*%
%LPD*%
G01*
G04 APERTURE LIST*
%ADD10R,0.500000X0.500000*%
%ADD11C,1.152000*%
G04 APERTURE END LIST*
D10*
%TO.C,N65-0*%
X12681009Y-34054000D03*
X12681009Y-33154000D03*
X11781009Y-33154000D03*
X11781009Y-34054000D03*
%TD*%
%TO.C,N121-1*%
X54527009Y-54592000D03*
X54527009Y-53692000D03*
X53627009Y-53692000D03*
X53627009Y-54592000D03*
%TD*%
D11*
%TO.C,KiKit_TO_4*%
X77000006Y-122399995D03*
%TD*%
D10*
%TO.C,N222-0*%
X26373009Y-92245000D03*
X26373009Y-91345000D03*
X25473009Y-91345000D03*
X25473009Y-92245000D03*
%TD*%
%TO.C,N261-0*%
X36642009Y-105937000D03*
X36642009Y-105037000D03*
X35742009Y-105037000D03*
X35742009Y-105937000D03*
%TD*%
%TO.C,N57-1*%
X51104009Y-30631000D03*
X51104009Y-29731000D03*
X50204009Y-29731000D03*
X50204009Y-30631000D03*
%TD*%
%TO.C,N73-0*%
X9258009Y-37477000D03*
X9258009Y-36577000D03*
X8358009Y-36577000D03*
X8358009Y-37477000D03*
%TD*%
%TO.C,N228-1*%
X51104009Y-95668000D03*
X51104009Y-94768000D03*
X50204009Y-94768000D03*
X50204009Y-95668000D03*
%TD*%
%TO.C,N287-1*%
X68219009Y-116206000D03*
X68219009Y-115306000D03*
X67319009Y-115306000D03*
X67319009Y-116206000D03*
%TD*%
%TO.C,N225-1*%
X71642009Y-92245000D03*
X71642009Y-91345000D03*
X70742009Y-91345000D03*
X70742009Y-92245000D03*
%TD*%
%TO.C,N21-0*%
X16104009Y-16939000D03*
X16104009Y-16039000D03*
X15204009Y-16039000D03*
X15204009Y-16939000D03*
%TD*%
%TO.C,N15-1*%
X61373009Y-13516000D03*
X61373009Y-12616000D03*
X60473009Y-12616000D03*
X60473009Y-13516000D03*
%TD*%
%TO.C,N285-0*%
X26373009Y-116206000D03*
X26373009Y-115306000D03*
X25473009Y-115306000D03*
X25473009Y-116206000D03*
%TD*%
%TO.C,N193-1*%
X54527009Y-81976000D03*
X54527009Y-81076000D03*
X53627009Y-81076000D03*
X53627009Y-81976000D03*
%TD*%
%TO.C,N241-1*%
X64796009Y-99091000D03*
X64796009Y-98191000D03*
X63896009Y-98191000D03*
X63896009Y-99091000D03*
%TD*%
%TO.C,N121-0*%
X19527009Y-54592000D03*
X19527009Y-53692000D03*
X18627009Y-53692000D03*
X18627009Y-54592000D03*
%TD*%
%TO.C,N7-0*%
X29796009Y-10093000D03*
X29796009Y-9193000D03*
X28896009Y-9193000D03*
X28896009Y-10093000D03*
%TD*%
%TO.C,N155-0*%
X12681009Y-68284000D03*
X12681009Y-67384000D03*
X11781009Y-67384000D03*
X11781009Y-68284000D03*
%TD*%
%TO.C,N243-0*%
X36642009Y-99091000D03*
X36642009Y-98191000D03*
X35742009Y-98191000D03*
X35742009Y-99091000D03*
%TD*%
%TO.C,N77-0*%
X22950009Y-37477000D03*
X22950009Y-36577000D03*
X22050009Y-36577000D03*
X22050009Y-37477000D03*
%TD*%
%TO.C,N217-1*%
X44258009Y-92245000D03*
X44258009Y-91345000D03*
X43358009Y-91345000D03*
X43358009Y-92245000D03*
%TD*%
%TO.C,N127-0*%
X9258009Y-58015000D03*
X9258009Y-57115000D03*
X8358009Y-57115000D03*
X8358009Y-58015000D03*
%TD*%
%TO.C,N140-0*%
X22950009Y-61438000D03*
X22950009Y-60538000D03*
X22050009Y-60538000D03*
X22050009Y-61438000D03*
%TD*%
%TO.C,N260-0*%
X33219009Y-105937000D03*
X33219009Y-105037000D03*
X32319009Y-105037000D03*
X32319009Y-105937000D03*
%TD*%
%TO.C,N57-0*%
X16104009Y-30631000D03*
X16104009Y-29731000D03*
X15204009Y-29731000D03*
X15204009Y-30631000D03*
%TD*%
%TO.C,N38-1*%
X47681009Y-23785000D03*
X47681009Y-22885000D03*
X46781009Y-22885000D03*
X46781009Y-23785000D03*
%TD*%
%TO.C,N53-0*%
X33219009Y-27208000D03*
X33219009Y-26308000D03*
X32319009Y-26308000D03*
X32319009Y-27208000D03*
%TD*%
%TO.C,N179-0*%
X33219009Y-75130000D03*
X33219009Y-74230000D03*
X32319009Y-74230000D03*
X32319009Y-75130000D03*
%TD*%
%TO.C,N220-0*%
X19527009Y-92245000D03*
X19527009Y-91345000D03*
X18627009Y-91345000D03*
X18627009Y-92245000D03*
%TD*%
%TO.C,N284-1*%
X57950009Y-116206000D03*
X57950009Y-115306000D03*
X57050009Y-115306000D03*
X57050009Y-116206000D03*
%TD*%
%TO.C,N3-1*%
X51104009Y-10093000D03*
X51104009Y-9193000D03*
X50204009Y-9193000D03*
X50204009Y-10093000D03*
%TD*%
%TO.C,N262-1*%
X44258009Y-109360000D03*
X44258009Y-108460000D03*
X43358009Y-108460000D03*
X43358009Y-109360000D03*
%TD*%
%TO.C,N275-1*%
X57950009Y-112783000D03*
X57950009Y-111883000D03*
X57050009Y-111883000D03*
X57050009Y-112783000D03*
%TD*%
%TO.C,N193-0*%
X19527009Y-81976000D03*
X19527009Y-81076000D03*
X18627009Y-81076000D03*
X18627009Y-81976000D03*
%TD*%
%TO.C,N15-0*%
X26373009Y-13516000D03*
X26373009Y-12616000D03*
X25473009Y-12616000D03*
X25473009Y-13516000D03*
%TD*%
%TO.C,N164-1*%
X47681009Y-71707000D03*
X47681009Y-70807000D03*
X46781009Y-70807000D03*
X46781009Y-71707000D03*
%TD*%
%TO.C,N268-0*%
X29796009Y-109360000D03*
X29796009Y-108460000D03*
X28896009Y-108460000D03*
X28896009Y-109360000D03*
%TD*%
%TO.C,N44-1*%
X68219009Y-23785000D03*
X68219009Y-22885000D03*
X67319009Y-22885000D03*
X67319009Y-23785000D03*
%TD*%
%TO.C,N42-0*%
X26373009Y-23785000D03*
X26373009Y-22885000D03*
X25473009Y-22885000D03*
X25473009Y-23785000D03*
%TD*%
%TO.C,N231-1*%
X61373009Y-95668000D03*
X61373009Y-94768000D03*
X60473009Y-94768000D03*
X60473009Y-95668000D03*
%TD*%
%TO.C,N71-0*%
X33219009Y-34054000D03*
X33219009Y-33154000D03*
X32319009Y-33154000D03*
X32319009Y-34054000D03*
%TD*%
%TO.C,N203-0*%
X22950009Y-85399000D03*
X22950009Y-84499000D03*
X22050009Y-84499000D03*
X22050009Y-85399000D03*
%TD*%
%TO.C,N6-0*%
X26373009Y-10093000D03*
X26373009Y-9193000D03*
X25473009Y-9193000D03*
X25473009Y-10093000D03*
%TD*%
%TO.C,N171-1*%
X71642009Y-71707000D03*
X71642009Y-70807000D03*
X70742009Y-70807000D03*
X70742009Y-71707000D03*
%TD*%
%TO.C,N66-0*%
X16104009Y-34054000D03*
X16104009Y-33154000D03*
X15204009Y-33154000D03*
X15204009Y-34054000D03*
%TD*%
%TO.C,N49-0*%
X19527009Y-27208000D03*
X19527009Y-26308000D03*
X18627009Y-26308000D03*
X18627009Y-27208000D03*
%TD*%
%TO.C,N147-0*%
X16104009Y-64861000D03*
X16104009Y-63961000D03*
X15204009Y-63961000D03*
X15204009Y-64861000D03*
%TD*%
%TO.C,N30-0*%
X16104009Y-20362000D03*
X16104009Y-19462000D03*
X15204009Y-19462000D03*
X15204009Y-20362000D03*
%TD*%
%TO.C,N68-1*%
X57950009Y-34054000D03*
X57950009Y-33154000D03*
X57050009Y-33154000D03*
X57050009Y-34054000D03*
%TD*%
%TO.C,N200-1*%
X47681009Y-85399000D03*
X47681009Y-84499000D03*
X46781009Y-84499000D03*
X46781009Y-85399000D03*
%TD*%
%TO.C,N216-1*%
X71642009Y-88822000D03*
X71642009Y-87922000D03*
X70742009Y-87922000D03*
X70742009Y-88822000D03*
%TD*%
%TO.C,N197-1*%
X68219009Y-81976000D03*
X68219009Y-81076000D03*
X67319009Y-81076000D03*
X67319009Y-81976000D03*
%TD*%
%TO.C,N56-1*%
X47681009Y-30631000D03*
X47681009Y-29731000D03*
X46781009Y-29731000D03*
X46781009Y-30631000D03*
%TD*%
%TO.C,N111-0*%
X16104009Y-51169000D03*
X16104009Y-50269000D03*
X15204009Y-50269000D03*
X15204009Y-51169000D03*
%TD*%
%TO.C,N175-0*%
X19527009Y-75130000D03*
X19527009Y-74230000D03*
X18627009Y-74230000D03*
X18627009Y-75130000D03*
%TD*%
%TO.C,N21-1*%
X51104009Y-16939000D03*
X51104009Y-16039000D03*
X50204009Y-16039000D03*
X50204009Y-16939000D03*
%TD*%
%TO.C,N131-0*%
X22950009Y-58015000D03*
X22950009Y-57115000D03*
X22050009Y-57115000D03*
X22050009Y-58015000D03*
%TD*%
%TO.C,N221-1*%
X57950009Y-92245000D03*
X57950009Y-91345000D03*
X57050009Y-91345000D03*
X57050009Y-92245000D03*
%TD*%
%TO.C,N189-1*%
X71642009Y-78553000D03*
X71642009Y-77653000D03*
X70742009Y-77653000D03*
X70742009Y-78553000D03*
%TD*%
%TO.C,N2-1*%
X47681009Y-10093000D03*
X47681009Y-9193000D03*
X46781009Y-9193000D03*
X46781009Y-10093000D03*
%TD*%
%TO.C,N25-0*%
X29796009Y-16939000D03*
X29796009Y-16039000D03*
X28896009Y-16039000D03*
X28896009Y-16939000D03*
%TD*%
%TO.C,N100-1*%
X44258009Y-47746000D03*
X44258009Y-46846000D03*
X43358009Y-46846000D03*
X43358009Y-47746000D03*
%TD*%
%TO.C,N202-1*%
X54527009Y-85399000D03*
X54527009Y-84499000D03*
X53627009Y-84499000D03*
X53627009Y-85399000D03*
%TD*%
%TO.C,N192-0*%
X16104009Y-81976000D03*
X16104009Y-81076000D03*
X15204009Y-81076000D03*
X15204009Y-81976000D03*
%TD*%
%TO.C,N106-1*%
X64796009Y-47746000D03*
X64796009Y-46846000D03*
X63896009Y-46846000D03*
X63896009Y-47746000D03*
%TD*%
%TO.C,N117-1*%
X71642009Y-51169000D03*
X71642009Y-50269000D03*
X70742009Y-50269000D03*
X70742009Y-51169000D03*
%TD*%
%TO.C,N273-1*%
X51104009Y-112783000D03*
X51104009Y-111883000D03*
X50204009Y-111883000D03*
X50204009Y-112783000D03*
%TD*%
%TO.C,N13-0*%
X19527009Y-13516000D03*
X19527009Y-12616000D03*
X18627009Y-12616000D03*
X18627009Y-13516000D03*
%TD*%
%TO.C,N81-0*%
X36642009Y-37477000D03*
X36642009Y-36577000D03*
X35742009Y-36577000D03*
X35742009Y-37477000D03*
%TD*%
%TO.C,N242-0*%
X33219009Y-99091000D03*
X33219009Y-98191000D03*
X32319009Y-98191000D03*
X32319009Y-99091000D03*
%TD*%
%TO.C,N151-0*%
X29796009Y-64861000D03*
X29796009Y-63961000D03*
X28896009Y-63961000D03*
X28896009Y-64861000D03*
%TD*%
%TO.C,N240-1*%
X61373009Y-99091000D03*
X61373009Y-98191000D03*
X60473009Y-98191000D03*
X60473009Y-99091000D03*
%TD*%
%TO.C,N212-0*%
X22950009Y-88822000D03*
X22950009Y-87922000D03*
X22050009Y-87922000D03*
X22050009Y-88822000D03*
%TD*%
%TO.C,N19-1*%
X44258009Y-16939000D03*
X44258009Y-16039000D03*
X43358009Y-16039000D03*
X43358009Y-16939000D03*
%TD*%
%TO.C,N50-0*%
X22950009Y-27208000D03*
X22950009Y-26308000D03*
X22050009Y-26308000D03*
X22050009Y-27208000D03*
%TD*%
%TO.C,N220-1*%
X54527009Y-92245000D03*
X54527009Y-91345000D03*
X53627009Y-91345000D03*
X53627009Y-92245000D03*
%TD*%
%TO.C,N182-1*%
X47681009Y-78553000D03*
X47681009Y-77653000D03*
X46781009Y-77653000D03*
X46781009Y-78553000D03*
%TD*%
%TO.C,N252-1*%
X71642009Y-102514000D03*
X71642009Y-101614000D03*
X70742009Y-101614000D03*
X70742009Y-102514000D03*
%TD*%
%TO.C,N208-0*%
X9258009Y-88822000D03*
X9258009Y-87922000D03*
X8358009Y-87922000D03*
X8358009Y-88822000D03*
%TD*%
%TO.C,N177-1*%
X61373009Y-75130000D03*
X61373009Y-74230000D03*
X60473009Y-74230000D03*
X60473009Y-75130000D03*
%TD*%
%TO.C,N260-1*%
X68219009Y-105937000D03*
X68219009Y-105037000D03*
X67319009Y-105037000D03*
X67319009Y-105937000D03*
%TD*%
%TO.C,N232-0*%
X29796009Y-95668000D03*
X29796009Y-94768000D03*
X28896009Y-94768000D03*
X28896009Y-95668000D03*
%TD*%
%TO.C,N264-1*%
X51104009Y-109360000D03*
X51104009Y-108460000D03*
X50204009Y-108460000D03*
X50204009Y-109360000D03*
%TD*%
%TO.C,N145-0*%
X9258009Y-64861000D03*
X9258009Y-63961000D03*
X8358009Y-63961000D03*
X8358009Y-64861000D03*
%TD*%
%TO.C,N100-0*%
X9258009Y-47746000D03*
X9258009Y-46846000D03*
X8358009Y-46846000D03*
X8358009Y-47746000D03*
%TD*%
%TO.C,N46-1*%
X44258009Y-27208000D03*
X44258009Y-26308000D03*
X43358009Y-26308000D03*
X43358009Y-27208000D03*
%TD*%
%TO.C,N36-1*%
X71642009Y-20362000D03*
X71642009Y-19462000D03*
X70742009Y-19462000D03*
X70742009Y-20362000D03*
%TD*%
%TO.C,N24-0*%
X26373009Y-16939000D03*
X26373009Y-16039000D03*
X25473009Y-16039000D03*
X25473009Y-16939000D03*
%TD*%
%TO.C,N235-0*%
X9258009Y-99091000D03*
X9258009Y-98191000D03*
X8358009Y-98191000D03*
X8358009Y-99091000D03*
%TD*%
%TO.C,N201-1*%
X51104009Y-85399000D03*
X51104009Y-84499000D03*
X50204009Y-84499000D03*
X50204009Y-85399000D03*
%TD*%
%TO.C,N33-1*%
X61373009Y-20362000D03*
X61373009Y-19462000D03*
X60473009Y-19462000D03*
X60473009Y-20362000D03*
%TD*%
%TO.C,N43-0*%
X29796009Y-23785000D03*
X29796009Y-22885000D03*
X28896009Y-22885000D03*
X28896009Y-23785000D03*
%TD*%
%TO.C,N128-0*%
X12681009Y-58015000D03*
X12681009Y-57115000D03*
X11781009Y-57115000D03*
X11781009Y-58015000D03*
%TD*%
%TO.C,N149-1*%
X57950009Y-64861000D03*
X57950009Y-63961000D03*
X57050009Y-63961000D03*
X57050009Y-64861000D03*
%TD*%
%TO.C,N92-0*%
X12681009Y-44323000D03*
X12681009Y-43423000D03*
X11781009Y-43423000D03*
X11781009Y-44323000D03*
%TD*%
%TO.C,N174-1*%
X51104009Y-75130000D03*
X51104009Y-74230000D03*
X50204009Y-74230000D03*
X50204009Y-75130000D03*
%TD*%
%TO.C,N245-0*%
X12681009Y-102514000D03*
X12681009Y-101614000D03*
X11781009Y-101614000D03*
X11781009Y-102514000D03*
%TD*%
%TO.C,N219-0*%
X16104009Y-92245000D03*
X16104009Y-91345000D03*
X15204009Y-91345000D03*
X15204009Y-92245000D03*
%TD*%
%TO.C,N191-1*%
X47681009Y-81976000D03*
X47681009Y-81076000D03*
X46781009Y-81076000D03*
X46781009Y-81976000D03*
%TD*%
%TO.C,N278-1*%
X68219009Y-112783000D03*
X68219009Y-111883000D03*
X67319009Y-111883000D03*
X67319009Y-112783000D03*
%TD*%
%TO.C,N137-1*%
X47681009Y-61438000D03*
X47681009Y-60538000D03*
X46781009Y-60538000D03*
X46781009Y-61438000D03*
%TD*%
%TO.C,N89-0*%
X33219009Y-40900000D03*
X33219009Y-40000000D03*
X32319009Y-40000000D03*
X32319009Y-40900000D03*
%TD*%
%TO.C,N283-0*%
X19527009Y-116206000D03*
X19527009Y-115306000D03*
X18627009Y-115306000D03*
X18627009Y-116206000D03*
%TD*%
%TO.C,N198-1*%
X71642009Y-81976000D03*
X71642009Y-81076000D03*
X70742009Y-81076000D03*
X70742009Y-81976000D03*
%TD*%
%TO.C,N9-0*%
X36642009Y-10093000D03*
X36642009Y-9193000D03*
X35742009Y-9193000D03*
X35742009Y-10093000D03*
%TD*%
%TO.C,N45-1*%
X71642009Y-23785000D03*
X71642009Y-22885000D03*
X70742009Y-22885000D03*
X70742009Y-23785000D03*
%TD*%
%TO.C,N238-0*%
X19527009Y-99091000D03*
X19527009Y-98191000D03*
X18627009Y-98191000D03*
X18627009Y-99091000D03*
%TD*%
%TO.C,N40-1*%
X54527009Y-23785000D03*
X54527009Y-22885000D03*
X53627009Y-22885000D03*
X53627009Y-23785000D03*
%TD*%
%TO.C,N9-1*%
X71642009Y-10093000D03*
X71642009Y-9193000D03*
X70742009Y-9193000D03*
X70742009Y-10093000D03*
%TD*%
%TO.C,N242-1*%
X68219009Y-99091000D03*
X68219009Y-98191000D03*
X67319009Y-98191000D03*
X67319009Y-99091000D03*
%TD*%
%TO.C,N113-1*%
X57950009Y-51169000D03*
X57950009Y-50269000D03*
X57050009Y-50269000D03*
X57050009Y-51169000D03*
%TD*%
%TO.C,N28-1*%
X44258009Y-20362000D03*
X44258009Y-19462000D03*
X43358009Y-19462000D03*
X43358009Y-20362000D03*
%TD*%
%TO.C,N10-1*%
X44258009Y-13516000D03*
X44258009Y-12616000D03*
X43358009Y-12616000D03*
X43358009Y-13516000D03*
%TD*%
%TO.C,N173-1*%
X47681009Y-75130000D03*
X47681009Y-74230000D03*
X46781009Y-74230000D03*
X46781009Y-75130000D03*
%TD*%
%TO.C,N160-1*%
X64796009Y-68284000D03*
X64796009Y-67384000D03*
X63896009Y-67384000D03*
X63896009Y-68284000D03*
%TD*%
%TO.C,N216-0*%
X36642009Y-88822000D03*
X36642009Y-87922000D03*
X35742009Y-87922000D03*
X35742009Y-88822000D03*
%TD*%
%TO.C,N112-0*%
X19527009Y-51169000D03*
X19527009Y-50269000D03*
X18627009Y-50269000D03*
X18627009Y-51169000D03*
%TD*%
%TO.C,N199-0*%
X9258009Y-85399000D03*
X9258009Y-84499000D03*
X8358009Y-84499000D03*
X8358009Y-85399000D03*
%TD*%
%TO.C,N210-1*%
X51104009Y-88822000D03*
X51104009Y-87922000D03*
X50204009Y-87922000D03*
X50204009Y-88822000D03*
%TD*%
%TO.C,N213-0*%
X26373009Y-88822000D03*
X26373009Y-87922000D03*
X25473009Y-87922000D03*
X25473009Y-88822000D03*
%TD*%
%TO.C,N156-0*%
X16104009Y-68284000D03*
X16104009Y-67384000D03*
X15204009Y-67384000D03*
X15204009Y-68284000D03*
%TD*%
%TO.C,N139-0*%
X19527009Y-61438000D03*
X19527009Y-60538000D03*
X18627009Y-60538000D03*
X18627009Y-61438000D03*
%TD*%
%TO.C,N272-1*%
X47681009Y-112783000D03*
X47681009Y-111883000D03*
X46781009Y-111883000D03*
X46781009Y-112783000D03*
%TD*%
%TO.C,N203-1*%
X57950009Y-85399000D03*
X57950009Y-84499000D03*
X57050009Y-84499000D03*
X57050009Y-85399000D03*
%TD*%
%TO.C,N116-1*%
X68219009Y-51169000D03*
X68219009Y-50269000D03*
X67319009Y-50269000D03*
X67319009Y-51169000D03*
%TD*%
%TO.C,N102-1*%
X51104009Y-47746000D03*
X51104009Y-46846000D03*
X50204009Y-46846000D03*
X50204009Y-47746000D03*
%TD*%
%TO.C,N161-1*%
X68219009Y-68284000D03*
X68219009Y-67384000D03*
X67319009Y-67384000D03*
X67319009Y-68284000D03*
%TD*%
%TO.C,N133-1*%
X64796009Y-58015000D03*
X64796009Y-57115000D03*
X63896009Y-57115000D03*
X63896009Y-58015000D03*
%TD*%
%TO.C,N163-1*%
X44258009Y-71707000D03*
X44258009Y-70807000D03*
X43358009Y-70807000D03*
X43358009Y-71707000D03*
%TD*%
%TO.C,N140-1*%
X57950009Y-61438000D03*
X57950009Y-60538000D03*
X57050009Y-60538000D03*
X57050009Y-61438000D03*
%TD*%
%TO.C,N49-1*%
X54527009Y-27208000D03*
X54527009Y-26308000D03*
X53627009Y-26308000D03*
X53627009Y-27208000D03*
%TD*%
%TO.C,N256-0*%
X19527009Y-105937000D03*
X19527009Y-105037000D03*
X18627009Y-105037000D03*
X18627009Y-105937000D03*
%TD*%
%TO.C,N279-0*%
X36642009Y-112783000D03*
X36642009Y-111883000D03*
X35742009Y-111883000D03*
X35742009Y-112783000D03*
%TD*%
%TO.C,N266-0*%
X22950009Y-109360000D03*
X22950009Y-108460000D03*
X22050009Y-108460000D03*
X22050009Y-109360000D03*
%TD*%
%TO.C,N119-1*%
X47681009Y-54592000D03*
X47681009Y-53692000D03*
X46781009Y-53692000D03*
X46781009Y-54592000D03*
%TD*%
%TO.C,N267-1*%
X61373009Y-109360000D03*
X61373009Y-108460000D03*
X60473009Y-108460000D03*
X60473009Y-109360000D03*
%TD*%
%TO.C,N106-0*%
X29796009Y-47746000D03*
X29796009Y-46846000D03*
X28896009Y-46846000D03*
X28896009Y-47746000D03*
%TD*%
%TO.C,N155-1*%
X47681009Y-68284000D03*
X47681009Y-67384000D03*
X46781009Y-67384000D03*
X46781009Y-68284000D03*
%TD*%
%TO.C,N192-1*%
X51104009Y-81976000D03*
X51104009Y-81076000D03*
X50204009Y-81076000D03*
X50204009Y-81976000D03*
%TD*%
%TO.C,N158-0*%
X22950009Y-68284000D03*
X22950009Y-67384000D03*
X22050009Y-67384000D03*
X22050009Y-68284000D03*
%TD*%
%TO.C,N78-1*%
X61373009Y-37477000D03*
X61373009Y-36577000D03*
X60473009Y-36577000D03*
X60473009Y-37477000D03*
%TD*%
%TO.C,N205-0*%
X29796009Y-85399000D03*
X29796009Y-84499000D03*
X28896009Y-84499000D03*
X28896009Y-85399000D03*
%TD*%
%TO.C,N171-0*%
X36642009Y-71707000D03*
X36642009Y-70807000D03*
X35742009Y-70807000D03*
X35742009Y-71707000D03*
%TD*%
%TO.C,N66-1*%
X51104009Y-34054000D03*
X51104009Y-33154000D03*
X50204009Y-33154000D03*
X50204009Y-34054000D03*
%TD*%
%TO.C,N137-0*%
X12681009Y-61438000D03*
X12681009Y-60538000D03*
X11781009Y-60538000D03*
X11781009Y-61438000D03*
%TD*%
%TO.C,N44-0*%
X33219009Y-23785000D03*
X33219009Y-22885000D03*
X32319009Y-22885000D03*
X32319009Y-23785000D03*
%TD*%
%TO.C,N135-1*%
X71642009Y-58015000D03*
X71642009Y-57115000D03*
X70742009Y-57115000D03*
X70742009Y-58015000D03*
%TD*%
%TO.C,N72-1*%
X71642009Y-34054000D03*
X71642009Y-33154000D03*
X70742009Y-33154000D03*
X70742009Y-34054000D03*
%TD*%
%TO.C,N43-1*%
X64796009Y-23785000D03*
X64796009Y-22885000D03*
X63896009Y-22885000D03*
X63896009Y-23785000D03*
%TD*%
%TO.C,N194-0*%
X22950009Y-81976000D03*
X22950009Y-81076000D03*
X22050009Y-81076000D03*
X22050009Y-81976000D03*
%TD*%
%TO.C,N152-1*%
X68219009Y-64861000D03*
X68219009Y-63961000D03*
X67319009Y-63961000D03*
X67319009Y-64861000D03*
%TD*%
%TO.C,N82-0*%
X9258009Y-40900000D03*
X9258009Y-40000000D03*
X8358009Y-40000000D03*
X8358009Y-40900000D03*
%TD*%
%TO.C,N180-0*%
X36642009Y-75130000D03*
X36642009Y-74230000D03*
X35742009Y-74230000D03*
X35742009Y-75130000D03*
%TD*%
%TO.C,N239-1*%
X57950009Y-99091000D03*
X57950009Y-98191000D03*
X57050009Y-98191000D03*
X57050009Y-99091000D03*
%TD*%
%TO.C,N176-0*%
X22950009Y-75130000D03*
X22950009Y-74230000D03*
X22050009Y-74230000D03*
X22050009Y-75130000D03*
%TD*%
%TO.C,N115-1*%
X64796009Y-51169000D03*
X64796009Y-50269000D03*
X63896009Y-50269000D03*
X63896009Y-51169000D03*
%TD*%
%TO.C,N50-1*%
X57950009Y-27208000D03*
X57950009Y-26308000D03*
X57050009Y-26308000D03*
X57050009Y-27208000D03*
%TD*%
%TO.C,N119-0*%
X12681009Y-54592000D03*
X12681009Y-53692000D03*
X11781009Y-53692000D03*
X11781009Y-54592000D03*
%TD*%
%TO.C,N26-0*%
X33219009Y-16939000D03*
X33219009Y-16039000D03*
X32319009Y-16039000D03*
X32319009Y-16939000D03*
%TD*%
%TO.C,N141-1*%
X61373009Y-61438000D03*
X61373009Y-60538000D03*
X60473009Y-60538000D03*
X60473009Y-61438000D03*
%TD*%
%TO.C,N114-0*%
X26373009Y-51169000D03*
X26373009Y-50269000D03*
X25473009Y-50269000D03*
X25473009Y-51169000D03*
%TD*%
%TO.C,N257-1*%
X57950009Y-105937000D03*
X57950009Y-105037000D03*
X57050009Y-105037000D03*
X57050009Y-105937000D03*
%TD*%
%TO.C,N272-0*%
X12681009Y-112783000D03*
X12681009Y-111883000D03*
X11781009Y-111883000D03*
X11781009Y-112783000D03*
%TD*%
%TO.C,N288-0*%
X36642009Y-116206000D03*
X36642009Y-115306000D03*
X35742009Y-115306000D03*
X35742009Y-116206000D03*
%TD*%
%TO.C,N101-0*%
X12681009Y-47746000D03*
X12681009Y-46846000D03*
X11781009Y-46846000D03*
X11781009Y-47746000D03*
%TD*%
%TO.C,N252-0*%
X36642009Y-102514000D03*
X36642009Y-101614000D03*
X35742009Y-101614000D03*
X35742009Y-102514000D03*
%TD*%
%TO.C,N168-0*%
X26373009Y-71707000D03*
X26373009Y-70807000D03*
X25473009Y-70807000D03*
X25473009Y-71707000D03*
%TD*%
%TO.C,N200-0*%
X12681009Y-85399000D03*
X12681009Y-84499000D03*
X11781009Y-84499000D03*
X11781009Y-85399000D03*
%TD*%
%TO.C,N118-0*%
X9258009Y-54592000D03*
X9258009Y-53692000D03*
X8358009Y-53692000D03*
X8358009Y-54592000D03*
%TD*%
%TO.C,N2-0*%
X12681009Y-10093000D03*
X12681009Y-9193000D03*
X11781009Y-9193000D03*
X11781009Y-10093000D03*
%TD*%
%TO.C,N25-1*%
X64796009Y-16939000D03*
X64796009Y-16039000D03*
X63896009Y-16039000D03*
X63896009Y-16939000D03*
%TD*%
%TO.C,N37-0*%
X9258009Y-23785000D03*
X9258009Y-22885000D03*
X8358009Y-22885000D03*
X8358009Y-23785000D03*
%TD*%
%TO.C,N38-0*%
X12681009Y-23785000D03*
X12681009Y-22885000D03*
X11781009Y-22885000D03*
X11781009Y-23785000D03*
%TD*%
%TO.C,N190-1*%
X44258009Y-81976000D03*
X44258009Y-81076000D03*
X43358009Y-81076000D03*
X43358009Y-81976000D03*
%TD*%
%TO.C,N110-1*%
X47681009Y-51169000D03*
X47681009Y-50269000D03*
X46781009Y-50269000D03*
X46781009Y-51169000D03*
%TD*%
%TO.C,N88-1*%
X64796009Y-40900000D03*
X64796009Y-40000000D03*
X63896009Y-40000000D03*
X63896009Y-40900000D03*
%TD*%
%TO.C,N67-0*%
X19527009Y-34054000D03*
X19527009Y-33154000D03*
X18627009Y-33154000D03*
X18627009Y-34054000D03*
%TD*%
%TO.C,N143-0*%
X33219009Y-61438000D03*
X33219009Y-60538000D03*
X32319009Y-60538000D03*
X32319009Y-61438000D03*
%TD*%
%TO.C,N107-0*%
X33219009Y-47746000D03*
X33219009Y-46846000D03*
X32319009Y-46846000D03*
X32319009Y-47746000D03*
%TD*%
%TO.C,N60-0*%
X26373009Y-30631000D03*
X26373009Y-29731000D03*
X25473009Y-29731000D03*
X25473009Y-30631000D03*
%TD*%
%TO.C,N251-0*%
X33219009Y-102514000D03*
X33219009Y-101614000D03*
X32319009Y-101614000D03*
X32319009Y-102514000D03*
%TD*%
%TO.C,N158-1*%
X57950009Y-68284000D03*
X57950009Y-67384000D03*
X57050009Y-67384000D03*
X57050009Y-68284000D03*
%TD*%
%TO.C,N246-0*%
X16104009Y-102514000D03*
X16104009Y-101614000D03*
X15204009Y-101614000D03*
X15204009Y-102514000D03*
%TD*%
%TO.C,N63-0*%
X36642009Y-30631000D03*
X36642009Y-29731000D03*
X35742009Y-29731000D03*
X35742009Y-30631000D03*
%TD*%
%TO.C,N187-0*%
X29796009Y-78553000D03*
X29796009Y-77653000D03*
X28896009Y-77653000D03*
X28896009Y-78553000D03*
%TD*%
%TO.C,N229-0*%
X19527009Y-95668000D03*
X19527009Y-94768000D03*
X18627009Y-94768000D03*
X18627009Y-95668000D03*
%TD*%
%TO.C,N74-1*%
X47681009Y-37477000D03*
X47681009Y-36577000D03*
X46781009Y-36577000D03*
X46781009Y-37477000D03*
%TD*%
%TO.C,N64-0*%
X9258009Y-34054000D03*
X9258009Y-33154000D03*
X8358009Y-33154000D03*
X8358009Y-34054000D03*
%TD*%
%TO.C,N62-0*%
X33219009Y-30631000D03*
X33219009Y-29731000D03*
X32319009Y-29731000D03*
X32319009Y-30631000D03*
%TD*%
%TO.C,N39-1*%
X51104009Y-23785000D03*
X51104009Y-22885000D03*
X50204009Y-22885000D03*
X50204009Y-23785000D03*
%TD*%
%TO.C,N6-1*%
X61373009Y-10093000D03*
X61373009Y-9193000D03*
X60473009Y-9193000D03*
X60473009Y-10093000D03*
%TD*%
%TO.C,N126-1*%
X71642009Y-54592000D03*
X71642009Y-53692000D03*
X70742009Y-53692000D03*
X70742009Y-54592000D03*
%TD*%
%TO.C,N86-0*%
X22950009Y-40900000D03*
X22950009Y-40000000D03*
X22050009Y-40000000D03*
X22050009Y-40900000D03*
%TD*%
%TO.C,N90-0*%
X36642009Y-40900000D03*
X36642009Y-40000000D03*
X35742009Y-40000000D03*
X35742009Y-40900000D03*
%TD*%
%TO.C,N82-1*%
X44258009Y-40900000D03*
X44258009Y-40000000D03*
X43358009Y-40000000D03*
X43358009Y-40900000D03*
%TD*%
%TO.C,N71-1*%
X68219009Y-34054000D03*
X68219009Y-33154000D03*
X67319009Y-33154000D03*
X67319009Y-34054000D03*
%TD*%
%TO.C,N225-0*%
X36642009Y-92245000D03*
X36642009Y-91345000D03*
X35742009Y-91345000D03*
X35742009Y-92245000D03*
%TD*%
%TO.C,N207-0*%
X36642009Y-85399000D03*
X36642009Y-84499000D03*
X35742009Y-84499000D03*
X35742009Y-85399000D03*
%TD*%
%TO.C,N58-0*%
X19527009Y-30631000D03*
X19527009Y-29731000D03*
X18627009Y-29731000D03*
X18627009Y-30631000D03*
%TD*%
%TO.C,N167-1*%
X57950009Y-71707000D03*
X57950009Y-70807000D03*
X57050009Y-70807000D03*
X57050009Y-71707000D03*
%TD*%
%TO.C,N180-1*%
X71642009Y-75130000D03*
X71642009Y-74230000D03*
X70742009Y-74230000D03*
X70742009Y-75130000D03*
%TD*%
%TO.C,N31-1*%
X54527009Y-20362000D03*
X54527009Y-19462000D03*
X53627009Y-19462000D03*
X53627009Y-20362000D03*
%TD*%
%TO.C,N248-1*%
X57950009Y-102514000D03*
X57950009Y-101614000D03*
X57050009Y-101614000D03*
X57050009Y-102514000D03*
%TD*%
%TO.C,N54-0*%
X36642009Y-27208000D03*
X36642009Y-26308000D03*
X35742009Y-26308000D03*
X35742009Y-27208000D03*
%TD*%
%TO.C,N209-1*%
X47681009Y-88822000D03*
X47681009Y-87922000D03*
X46781009Y-87922000D03*
X46781009Y-88822000D03*
%TD*%
%TO.C,N255-0*%
X16104009Y-105937000D03*
X16104009Y-105037000D03*
X15204009Y-105037000D03*
X15204009Y-105937000D03*
%TD*%
%TO.C,N27-0*%
X36642009Y-16939000D03*
X36642009Y-16039000D03*
X35742009Y-16039000D03*
X35742009Y-16939000D03*
%TD*%
%TO.C,N146-1*%
X47681009Y-64861000D03*
X47681009Y-63961000D03*
X46781009Y-63961000D03*
X46781009Y-64861000D03*
%TD*%
%TO.C,N104-0*%
X22950009Y-47746000D03*
X22950009Y-46846000D03*
X22050009Y-46846000D03*
X22050009Y-47746000D03*
%TD*%
%TO.C,N98-0*%
X33219009Y-44323000D03*
X33219009Y-43423000D03*
X32319009Y-43423000D03*
X32319009Y-44323000D03*
%TD*%
%TO.C,N94-0*%
X19527009Y-44323000D03*
X19527009Y-43423000D03*
X18627009Y-43423000D03*
X18627009Y-44323000D03*
%TD*%
%TO.C,N149-0*%
X22950009Y-64861000D03*
X22950009Y-63961000D03*
X22050009Y-63961000D03*
X22050009Y-64861000D03*
%TD*%
%TO.C,N69-1*%
X61373009Y-34054000D03*
X61373009Y-33154000D03*
X60473009Y-33154000D03*
X60473009Y-34054000D03*
%TD*%
%TO.C,N206-1*%
X68219009Y-85399000D03*
X68219009Y-84499000D03*
X67319009Y-84499000D03*
X67319009Y-85399000D03*
%TD*%
%TO.C,N227-1*%
X47681009Y-95668000D03*
X47681009Y-94768000D03*
X46781009Y-94768000D03*
X46781009Y-95668000D03*
%TD*%
%TO.C,N95-1*%
X57950009Y-44323000D03*
X57950009Y-43423000D03*
X57050009Y-43423000D03*
X57050009Y-44323000D03*
%TD*%
%TO.C,N182-0*%
X12681009Y-78553000D03*
X12681009Y-77653000D03*
X11781009Y-77653000D03*
X11781009Y-78553000D03*
%TD*%
%TO.C,N103-1*%
X54527009Y-47746000D03*
X54527009Y-46846000D03*
X53627009Y-46846000D03*
X53627009Y-47746000D03*
%TD*%
%TO.C,N23-0*%
X22950009Y-16939000D03*
X22950009Y-16039000D03*
X22050009Y-16039000D03*
X22050009Y-16939000D03*
%TD*%
%TO.C,N269-1*%
X68219009Y-109360000D03*
X68219009Y-108460000D03*
X67319009Y-108460000D03*
X67319009Y-109360000D03*
%TD*%
%TO.C,N247-1*%
X54527009Y-102514000D03*
X54527009Y-101614000D03*
X53627009Y-101614000D03*
X53627009Y-102514000D03*
%TD*%
%TO.C,N80-0*%
X33219009Y-37477000D03*
X33219009Y-36577000D03*
X32319009Y-36577000D03*
X32319009Y-37477000D03*
%TD*%
%TO.C,N4-0*%
X19527009Y-10093000D03*
X19527009Y-9193000D03*
X18627009Y-9193000D03*
X18627009Y-10093000D03*
%TD*%
%TO.C,N280-0*%
X9258009Y-116206000D03*
X9258009Y-115306000D03*
X8358009Y-115306000D03*
X8358009Y-116206000D03*
%TD*%
%TO.C,N288-1*%
X71642009Y-116206000D03*
X71642009Y-115306000D03*
X70742009Y-115306000D03*
X70742009Y-116206000D03*
%TD*%
%TO.C,N62-1*%
X68219009Y-30631000D03*
X68219009Y-29731000D03*
X67319009Y-29731000D03*
X67319009Y-30631000D03*
%TD*%
%TO.C,N170-0*%
X33219009Y-71707000D03*
X33219009Y-70807000D03*
X32319009Y-70807000D03*
X32319009Y-71707000D03*
%TD*%
%TO.C,N172-1*%
X44258009Y-75130000D03*
X44258009Y-74230000D03*
X43358009Y-74230000D03*
X43358009Y-75130000D03*
%TD*%
%TO.C,N184-0*%
X19527009Y-78553000D03*
X19527009Y-77653000D03*
X18627009Y-77653000D03*
X18627009Y-78553000D03*
%TD*%
%TO.C,N34-1*%
X64796009Y-20362000D03*
X64796009Y-19462000D03*
X63896009Y-19462000D03*
X63896009Y-20362000D03*
%TD*%
%TO.C,N3-0*%
X16104009Y-10093000D03*
X16104009Y-9193000D03*
X15204009Y-9193000D03*
X15204009Y-10093000D03*
%TD*%
%TO.C,N114-1*%
X61373009Y-51169000D03*
X61373009Y-50269000D03*
X60473009Y-50269000D03*
X60473009Y-51169000D03*
%TD*%
%TO.C,N283-1*%
X54527009Y-116206000D03*
X54527009Y-115306000D03*
X53627009Y-115306000D03*
X53627009Y-116206000D03*
%TD*%
%TO.C,N191-0*%
X12681009Y-81976000D03*
X12681009Y-81076000D03*
X11781009Y-81076000D03*
X11781009Y-81976000D03*
%TD*%
%TO.C,N265-1*%
X54527009Y-109360000D03*
X54527009Y-108460000D03*
X53627009Y-108460000D03*
X53627009Y-109360000D03*
%TD*%
%TO.C,N226-1*%
X44258009Y-95668000D03*
X44258009Y-94768000D03*
X43358009Y-94768000D03*
X43358009Y-95668000D03*
%TD*%
%TO.C,N41-1*%
X57950009Y-23785000D03*
X57950009Y-22885000D03*
X57050009Y-22885000D03*
X57050009Y-23785000D03*
%TD*%
%TO.C,N183-0*%
X16104009Y-78553000D03*
X16104009Y-77653000D03*
X15204009Y-77653000D03*
X15204009Y-78553000D03*
%TD*%
%TO.C,N286-1*%
X64796009Y-116206000D03*
X64796009Y-115306000D03*
X63896009Y-115306000D03*
X63896009Y-116206000D03*
%TD*%
%TO.C,N159-1*%
X61373009Y-68284000D03*
X61373009Y-67384000D03*
X60473009Y-67384000D03*
X60473009Y-68284000D03*
%TD*%
%TO.C,N26-1*%
X68219009Y-16939000D03*
X68219009Y-16039000D03*
X67319009Y-16039000D03*
X67319009Y-16939000D03*
%TD*%
%TO.C,N136-0*%
X9258009Y-61438000D03*
X9258009Y-60538000D03*
X8358009Y-60538000D03*
X8358009Y-61438000D03*
%TD*%
%TO.C,N161-0*%
X33219009Y-68284000D03*
X33219009Y-67384000D03*
X32319009Y-67384000D03*
X32319009Y-68284000D03*
%TD*%
%TO.C,N190-0*%
X9258009Y-81976000D03*
X9258009Y-81076000D03*
X8358009Y-81076000D03*
X8358009Y-81976000D03*
%TD*%
%TO.C,N148-0*%
X19527009Y-64861000D03*
X19527009Y-63961000D03*
X18627009Y-63961000D03*
X18627009Y-64861000D03*
%TD*%
%TO.C,N223-1*%
X64796009Y-92245000D03*
X64796009Y-91345000D03*
X63896009Y-91345000D03*
X63896009Y-92245000D03*
%TD*%
%TO.C,N96-0*%
X26373009Y-44323000D03*
X26373009Y-43423000D03*
X25473009Y-43423000D03*
X25473009Y-44323000D03*
%TD*%
%TO.C,N154-1*%
X44258009Y-68284000D03*
X44258009Y-67384000D03*
X43358009Y-67384000D03*
X43358009Y-68284000D03*
%TD*%
%TO.C,N85-1*%
X54527009Y-40900000D03*
X54527009Y-40000000D03*
X53627009Y-40000000D03*
X53627009Y-40900000D03*
%TD*%
%TO.C,N237-1*%
X51104009Y-99091000D03*
X51104009Y-98191000D03*
X50204009Y-98191000D03*
X50204009Y-99091000D03*
%TD*%
%TO.C,N8-0*%
X33219009Y-10093000D03*
X33219009Y-9193000D03*
X32319009Y-9193000D03*
X32319009Y-10093000D03*
%TD*%
%TO.C,N214-1*%
X64796009Y-88822000D03*
X64796009Y-87922000D03*
X63896009Y-87922000D03*
X63896009Y-88822000D03*
%TD*%
%TO.C,N219-1*%
X51104009Y-92245000D03*
X51104009Y-91345000D03*
X50204009Y-91345000D03*
X50204009Y-92245000D03*
%TD*%
%TO.C,N141-0*%
X26373009Y-61438000D03*
X26373009Y-60538000D03*
X25473009Y-60538000D03*
X25473009Y-61438000D03*
%TD*%
%TO.C,N69-0*%
X26373009Y-34054000D03*
X26373009Y-33154000D03*
X25473009Y-33154000D03*
X25473009Y-34054000D03*
%TD*%
%TO.C,N110-0*%
X12681009Y-51169000D03*
X12681009Y-50269000D03*
X11781009Y-50269000D03*
X11781009Y-51169000D03*
%TD*%
%TO.C,N47-0*%
X12681009Y-27208000D03*
X12681009Y-26308000D03*
X11781009Y-26308000D03*
X11781009Y-27208000D03*
%TD*%
%TO.C,N84-1*%
X51104009Y-40900000D03*
X51104009Y-40000000D03*
X50204009Y-40000000D03*
X50204009Y-40900000D03*
%TD*%
%TO.C,N160-0*%
X29796009Y-68284000D03*
X29796009Y-67384000D03*
X28896009Y-67384000D03*
X28896009Y-68284000D03*
%TD*%
%TO.C,N85-0*%
X19527009Y-40900000D03*
X19527009Y-40000000D03*
X18627009Y-40000000D03*
X18627009Y-40900000D03*
%TD*%
%TO.C,N286-0*%
X29796009Y-116206000D03*
X29796009Y-115306000D03*
X28896009Y-115306000D03*
X28896009Y-116206000D03*
%TD*%
%TO.C,N59-1*%
X57950009Y-30631000D03*
X57950009Y-29731000D03*
X57050009Y-29731000D03*
X57050009Y-30631000D03*
%TD*%
%TO.C,N14-0*%
X22950009Y-13516000D03*
X22950009Y-12616000D03*
X22050009Y-12616000D03*
X22050009Y-13516000D03*
%TD*%
%TO.C,N164-0*%
X12681009Y-71707000D03*
X12681009Y-70807000D03*
X11781009Y-70807000D03*
X11781009Y-71707000D03*
%TD*%
%TO.C,N196-1*%
X64796009Y-81976000D03*
X64796009Y-81076000D03*
X63896009Y-81076000D03*
X63896009Y-81976000D03*
%TD*%
D11*
%TO.C,KiKit_TO_1*%
X3000000Y-3000000D03*
%TD*%
D10*
%TO.C,N181-0*%
X9258009Y-78553000D03*
X9258009Y-77653000D03*
X8358009Y-77653000D03*
X8358009Y-78553000D03*
%TD*%
%TO.C,N215-1*%
X68219009Y-88822000D03*
X68219009Y-87922000D03*
X67319009Y-87922000D03*
X67319009Y-88822000D03*
%TD*%
%TO.C,N113-0*%
X22950009Y-51169000D03*
X22950009Y-50269000D03*
X22050009Y-50269000D03*
X22050009Y-51169000D03*
%TD*%
%TO.C,N268-1*%
X64796009Y-109360000D03*
X64796009Y-108460000D03*
X63896009Y-108460000D03*
X63896009Y-109360000D03*
%TD*%
%TO.C,N195-0*%
X26373009Y-81976000D03*
X26373009Y-81076000D03*
X25473009Y-81076000D03*
X25473009Y-81976000D03*
%TD*%
%TO.C,N276-0*%
X26373009Y-112783000D03*
X26373009Y-111883000D03*
X25473009Y-111883000D03*
X25473009Y-112783000D03*
%TD*%
%TO.C,N231-0*%
X26373009Y-95668000D03*
X26373009Y-94768000D03*
X25473009Y-94768000D03*
X25473009Y-95668000D03*
%TD*%
%TO.C,N1-1*%
X44258009Y-10093000D03*
X44258009Y-9193000D03*
X43358009Y-9193000D03*
X43358009Y-10093000D03*
%TD*%
%TO.C,N233-1*%
X68219009Y-95668000D03*
X68219009Y-94768000D03*
X67319009Y-94768000D03*
X67319009Y-95668000D03*
%TD*%
%TO.C,N19-0*%
X9258009Y-16939000D03*
X9258009Y-16039000D03*
X8358009Y-16039000D03*
X8358009Y-16939000D03*
%TD*%
%TO.C,N271-1*%
X44258009Y-112783000D03*
X44258009Y-111883000D03*
X43358009Y-111883000D03*
X43358009Y-112783000D03*
%TD*%
%TO.C,N148-1*%
X54527009Y-64861000D03*
X54527009Y-63961000D03*
X53627009Y-63961000D03*
X53627009Y-64861000D03*
%TD*%
%TO.C,N42-1*%
X61373009Y-23785000D03*
X61373009Y-22885000D03*
X60473009Y-22885000D03*
X60473009Y-23785000D03*
%TD*%
%TO.C,N102-0*%
X16104009Y-47746000D03*
X16104009Y-46846000D03*
X15204009Y-46846000D03*
X15204009Y-47746000D03*
%TD*%
%TO.C,N79-1*%
X64796009Y-37477000D03*
X64796009Y-36577000D03*
X63896009Y-36577000D03*
X63896009Y-37477000D03*
%TD*%
%TO.C,N187-1*%
X64796009Y-78553000D03*
X64796009Y-77653000D03*
X63896009Y-77653000D03*
X63896009Y-78553000D03*
%TD*%
%TO.C,N1-0*%
X9258009Y-10093000D03*
X9258009Y-9193000D03*
X8358009Y-9193000D03*
X8358009Y-10093000D03*
%TD*%
%TO.C,N95-0*%
X22950009Y-44323000D03*
X22950009Y-43423000D03*
X22050009Y-43423000D03*
X22050009Y-44323000D03*
%TD*%
%TO.C,N224-0*%
X33219009Y-92245000D03*
X33219009Y-91345000D03*
X32319009Y-91345000D03*
X32319009Y-92245000D03*
%TD*%
%TO.C,N278-0*%
X33219009Y-112783000D03*
X33219009Y-111883000D03*
X32319009Y-111883000D03*
X32319009Y-112783000D03*
%TD*%
%TO.C,N152-0*%
X33219009Y-64861000D03*
X33219009Y-63961000D03*
X32319009Y-63961000D03*
X32319009Y-64861000D03*
%TD*%
%TO.C,N87-0*%
X26373009Y-40900000D03*
X26373009Y-40000000D03*
X25473009Y-40000000D03*
X25473009Y-40900000D03*
%TD*%
%TO.C,N91-1*%
X44258009Y-44323000D03*
X44258009Y-43423000D03*
X43358009Y-43423000D03*
X43358009Y-44323000D03*
%TD*%
%TO.C,N230-0*%
X22950009Y-95668000D03*
X22950009Y-94768000D03*
X22050009Y-94768000D03*
X22050009Y-95668000D03*
%TD*%
%TO.C,N139-1*%
X54527009Y-61438000D03*
X54527009Y-60538000D03*
X53627009Y-60538000D03*
X53627009Y-61438000D03*
%TD*%
%TO.C,N264-0*%
X16104009Y-109360000D03*
X16104009Y-108460000D03*
X15204009Y-108460000D03*
X15204009Y-109360000D03*
%TD*%
%TO.C,N157-0*%
X19527009Y-68284000D03*
X19527009Y-67384000D03*
X18627009Y-67384000D03*
X18627009Y-68284000D03*
%TD*%
%TO.C,N11-0*%
X12681009Y-13516000D03*
X12681009Y-12616000D03*
X11781009Y-12616000D03*
X11781009Y-13516000D03*
%TD*%
%TO.C,N22-0*%
X19527009Y-16939000D03*
X19527009Y-16039000D03*
X18627009Y-16039000D03*
X18627009Y-16939000D03*
%TD*%
%TO.C,N48-0*%
X16104009Y-27208000D03*
X16104009Y-26308000D03*
X15204009Y-26308000D03*
X15204009Y-27208000D03*
%TD*%
%TO.C,N270-1*%
X71642009Y-109360000D03*
X71642009Y-108460000D03*
X70742009Y-108460000D03*
X70742009Y-109360000D03*
%TD*%
%TO.C,N127-1*%
X44258009Y-58015000D03*
X44258009Y-57115000D03*
X43358009Y-57115000D03*
X43358009Y-58015000D03*
%TD*%
%TO.C,N63-1*%
X71642009Y-30631000D03*
X71642009Y-29731000D03*
X70742009Y-29731000D03*
X70742009Y-30631000D03*
%TD*%
%TO.C,N84-0*%
X16104009Y-40900000D03*
X16104009Y-40000000D03*
X15204009Y-40000000D03*
X15204009Y-40900000D03*
%TD*%
%TO.C,N10-0*%
X9258009Y-13516000D03*
X9258009Y-12616000D03*
X8358009Y-12616000D03*
X8358009Y-13516000D03*
%TD*%
%TO.C,N263-1*%
X47681009Y-109360000D03*
X47681009Y-108460000D03*
X46781009Y-108460000D03*
X46781009Y-109360000D03*
%TD*%
%TO.C,N17-0*%
X33219009Y-13516000D03*
X33219009Y-12616000D03*
X32319009Y-12616000D03*
X32319009Y-13516000D03*
%TD*%
%TO.C,N93-0*%
X16104009Y-44323000D03*
X16104009Y-43423000D03*
X15204009Y-43423000D03*
X15204009Y-44323000D03*
%TD*%
%TO.C,N79-0*%
X29796009Y-37477000D03*
X29796009Y-36577000D03*
X28896009Y-36577000D03*
X28896009Y-37477000D03*
%TD*%
%TO.C,N232-1*%
X64796009Y-95668000D03*
X64796009Y-94768000D03*
X63896009Y-94768000D03*
X63896009Y-95668000D03*
%TD*%
%TO.C,N130-0*%
X19527009Y-58015000D03*
X19527009Y-57115000D03*
X18627009Y-57115000D03*
X18627009Y-58015000D03*
%TD*%
%TO.C,N40-0*%
X19527009Y-23785000D03*
X19527009Y-22885000D03*
X18627009Y-22885000D03*
X18627009Y-23785000D03*
%TD*%
%TO.C,N188-1*%
X68219009Y-78553000D03*
X68219009Y-77653000D03*
X67319009Y-77653000D03*
X67319009Y-78553000D03*
%TD*%
%TO.C,N144-1*%
X71642009Y-61438000D03*
X71642009Y-60538000D03*
X70742009Y-60538000D03*
X70742009Y-61438000D03*
%TD*%
%TO.C,N246-1*%
X51104009Y-102514000D03*
X51104009Y-101614000D03*
X50204009Y-101614000D03*
X50204009Y-102514000D03*
%TD*%
%TO.C,N269-0*%
X33219009Y-109360000D03*
X33219009Y-108460000D03*
X32319009Y-108460000D03*
X32319009Y-109360000D03*
%TD*%
%TO.C,N221-0*%
X22950009Y-92245000D03*
X22950009Y-91345000D03*
X22050009Y-91345000D03*
X22050009Y-92245000D03*
%TD*%
%TO.C,N234-0*%
X36642009Y-95668000D03*
X36642009Y-94768000D03*
X35742009Y-94768000D03*
X35742009Y-95668000D03*
%TD*%
%TO.C,N28-0*%
X9258009Y-20362000D03*
X9258009Y-19462000D03*
X8358009Y-19462000D03*
X8358009Y-20362000D03*
%TD*%
%TO.C,N165-0*%
X16104009Y-71707000D03*
X16104009Y-70807000D03*
X15204009Y-70807000D03*
X15204009Y-71707000D03*
%TD*%
%TO.C,N166-1*%
X54527009Y-71707000D03*
X54527009Y-70807000D03*
X53627009Y-70807000D03*
X53627009Y-71707000D03*
%TD*%
%TO.C,N284-0*%
X22950009Y-116206000D03*
X22950009Y-115306000D03*
X22050009Y-115306000D03*
X22050009Y-116206000D03*
%TD*%
%TO.C,N241-0*%
X29796009Y-99091000D03*
X29796009Y-98191000D03*
X28896009Y-98191000D03*
X28896009Y-99091000D03*
%TD*%
%TO.C,N134-1*%
X68219009Y-58015000D03*
X68219009Y-57115000D03*
X67319009Y-57115000D03*
X67319009Y-58015000D03*
%TD*%
%TO.C,N209-0*%
X12681009Y-88822000D03*
X12681009Y-87922000D03*
X11781009Y-87922000D03*
X11781009Y-88822000D03*
%TD*%
%TO.C,N279-1*%
X71642009Y-112783000D03*
X71642009Y-111883000D03*
X70742009Y-111883000D03*
X70742009Y-112783000D03*
%TD*%
%TO.C,N56-0*%
X12681009Y-30631000D03*
X12681009Y-29731000D03*
X11781009Y-29731000D03*
X11781009Y-30631000D03*
%TD*%
%TO.C,N238-1*%
X54527009Y-99091000D03*
X54527009Y-98191000D03*
X53627009Y-98191000D03*
X53627009Y-99091000D03*
%TD*%
%TO.C,N239-0*%
X22950009Y-99091000D03*
X22950009Y-98191000D03*
X22050009Y-98191000D03*
X22050009Y-99091000D03*
%TD*%
%TO.C,N94-1*%
X54527009Y-44323000D03*
X54527009Y-43423000D03*
X53627009Y-43423000D03*
X53627009Y-44323000D03*
%TD*%
%TO.C,N162-1*%
X71642009Y-68284000D03*
X71642009Y-67384000D03*
X70742009Y-67384000D03*
X70742009Y-68284000D03*
%TD*%
%TO.C,N99-1*%
X71642009Y-44323000D03*
X71642009Y-43423000D03*
X70742009Y-43423000D03*
X70742009Y-44323000D03*
%TD*%
%TO.C,N51-1*%
X61373009Y-27208000D03*
X61373009Y-26308000D03*
X60473009Y-26308000D03*
X60473009Y-27208000D03*
%TD*%
%TO.C,N120-1*%
X51104009Y-54592000D03*
X51104009Y-53692000D03*
X50204009Y-53692000D03*
X50204009Y-54592000D03*
%TD*%
%TO.C,N117-0*%
X36642009Y-51169000D03*
X36642009Y-50269000D03*
X35742009Y-50269000D03*
X35742009Y-51169000D03*
%TD*%
%TO.C,N108-0*%
X36642009Y-47746000D03*
X36642009Y-46846000D03*
X35742009Y-46846000D03*
X35742009Y-47746000D03*
%TD*%
%TO.C,N178-1*%
X64796009Y-75130000D03*
X64796009Y-74230000D03*
X63896009Y-74230000D03*
X63896009Y-75130000D03*
%TD*%
%TO.C,N138-0*%
X16104009Y-61438000D03*
X16104009Y-60538000D03*
X15204009Y-60538000D03*
X15204009Y-61438000D03*
%TD*%
%TO.C,N153-0*%
X36642009Y-64861000D03*
X36642009Y-63961000D03*
X35742009Y-63961000D03*
X35742009Y-64861000D03*
%TD*%
%TO.C,N88-0*%
X29796009Y-40900000D03*
X29796009Y-40000000D03*
X28896009Y-40000000D03*
X28896009Y-40900000D03*
%TD*%
%TO.C,N223-0*%
X29796009Y-92245000D03*
X29796009Y-91345000D03*
X28896009Y-91345000D03*
X28896009Y-92245000D03*
%TD*%
%TO.C,N109-0*%
X9258009Y-51169000D03*
X9258009Y-50269000D03*
X8358009Y-50269000D03*
X8358009Y-51169000D03*
%TD*%
%TO.C,N109-1*%
X44258009Y-51169000D03*
X44258009Y-50269000D03*
X43358009Y-50269000D03*
X43358009Y-51169000D03*
%TD*%
%TO.C,N125-0*%
X33219009Y-54592000D03*
X33219009Y-53692000D03*
X32319009Y-53692000D03*
X32319009Y-54592000D03*
%TD*%
%TO.C,N281-0*%
X12681009Y-116206000D03*
X12681009Y-115306000D03*
X11781009Y-115306000D03*
X11781009Y-116206000D03*
%TD*%
%TO.C,N287-0*%
X33219009Y-116206000D03*
X33219009Y-115306000D03*
X32319009Y-115306000D03*
X32319009Y-116206000D03*
%TD*%
%TO.C,N41-0*%
X22950009Y-23785000D03*
X22950009Y-22885000D03*
X22050009Y-22885000D03*
X22050009Y-23785000D03*
%TD*%
%TO.C,N14-1*%
X57950009Y-13516000D03*
X57950009Y-12616000D03*
X57050009Y-12616000D03*
X57050009Y-13516000D03*
%TD*%
%TO.C,N77-1*%
X57950009Y-37477000D03*
X57950009Y-36577000D03*
X57050009Y-36577000D03*
X57050009Y-37477000D03*
%TD*%
%TO.C,N249-1*%
X61373009Y-102514000D03*
X61373009Y-101614000D03*
X60473009Y-101614000D03*
X60473009Y-102514000D03*
%TD*%
%TO.C,N81-1*%
X71642009Y-37477000D03*
X71642009Y-36577000D03*
X70742009Y-36577000D03*
X70742009Y-37477000D03*
%TD*%
%TO.C,N112-1*%
X54527009Y-51169000D03*
X54527009Y-50269000D03*
X53627009Y-50269000D03*
X53627009Y-51169000D03*
%TD*%
%TO.C,N17-1*%
X68219009Y-13516000D03*
X68219009Y-12616000D03*
X67319009Y-12616000D03*
X67319009Y-13516000D03*
%TD*%
%TO.C,N206-0*%
X33219009Y-85399000D03*
X33219009Y-84499000D03*
X32319009Y-84499000D03*
X32319009Y-85399000D03*
%TD*%
%TO.C,N122-0*%
X22950009Y-54592000D03*
X22950009Y-53692000D03*
X22050009Y-53692000D03*
X22050009Y-54592000D03*
%TD*%
%TO.C,N197-0*%
X33219009Y-81976000D03*
X33219009Y-81076000D03*
X32319009Y-81076000D03*
X32319009Y-81976000D03*
%TD*%
%TO.C,N12-0*%
X16104009Y-13516000D03*
X16104009Y-12616000D03*
X15204009Y-12616000D03*
X15204009Y-13516000D03*
%TD*%
%TO.C,N86-1*%
X57950009Y-40900000D03*
X57950009Y-40000000D03*
X57050009Y-40000000D03*
X57050009Y-40900000D03*
%TD*%
%TO.C,N5-1*%
X57950009Y-10093000D03*
X57950009Y-9193000D03*
X57050009Y-9193000D03*
X57050009Y-10093000D03*
%TD*%
%TO.C,N163-0*%
X9258009Y-71707000D03*
X9258009Y-70807000D03*
X8358009Y-70807000D03*
X8358009Y-71707000D03*
%TD*%
%TO.C,N212-1*%
X57950009Y-88822000D03*
X57950009Y-87922000D03*
X57050009Y-87922000D03*
X57050009Y-88822000D03*
%TD*%
%TO.C,N183-1*%
X51104009Y-78553000D03*
X51104009Y-77653000D03*
X50204009Y-77653000D03*
X50204009Y-78553000D03*
%TD*%
%TO.C,N101-1*%
X47681009Y-47746000D03*
X47681009Y-46846000D03*
X46781009Y-46846000D03*
X46781009Y-47746000D03*
%TD*%
%TO.C,N151-1*%
X64796009Y-64861000D03*
X64796009Y-63961000D03*
X63896009Y-63961000D03*
X63896009Y-64861000D03*
%TD*%
%TO.C,N122-1*%
X57950009Y-54592000D03*
X57950009Y-53692000D03*
X57050009Y-53692000D03*
X57050009Y-54592000D03*
%TD*%
%TO.C,N261-1*%
X71642009Y-105937000D03*
X71642009Y-105037000D03*
X70742009Y-105037000D03*
X70742009Y-105937000D03*
%TD*%
%TO.C,N258-0*%
X26373009Y-105937000D03*
X26373009Y-105037000D03*
X25473009Y-105037000D03*
X25473009Y-105937000D03*
%TD*%
%TO.C,N47-1*%
X47681009Y-27208000D03*
X47681009Y-26308000D03*
X46781009Y-26308000D03*
X46781009Y-27208000D03*
%TD*%
%TO.C,N213-1*%
X61373009Y-88822000D03*
X61373009Y-87922000D03*
X60473009Y-87922000D03*
X60473009Y-88822000D03*
%TD*%
%TO.C,N72-0*%
X36642009Y-34054000D03*
X36642009Y-33154000D03*
X35742009Y-33154000D03*
X35742009Y-34054000D03*
%TD*%
%TO.C,N281-1*%
X47681009Y-116206000D03*
X47681009Y-115306000D03*
X46781009Y-115306000D03*
X46781009Y-116206000D03*
%TD*%
%TO.C,N52-0*%
X29796009Y-27208000D03*
X29796009Y-26308000D03*
X28896009Y-26308000D03*
X28896009Y-27208000D03*
%TD*%
%TO.C,N92-1*%
X47681009Y-44323000D03*
X47681009Y-43423000D03*
X46781009Y-43423000D03*
X46781009Y-44323000D03*
%TD*%
%TO.C,N31-0*%
X19527009Y-20362000D03*
X19527009Y-19462000D03*
X18627009Y-19462000D03*
X18627009Y-20362000D03*
%TD*%
%TO.C,N173-0*%
X12681009Y-75130000D03*
X12681009Y-74230000D03*
X11781009Y-74230000D03*
X11781009Y-75130000D03*
%TD*%
%TO.C,N211-0*%
X19527009Y-88822000D03*
X19527009Y-87922000D03*
X18627009Y-87922000D03*
X18627009Y-88822000D03*
%TD*%
%TO.C,N20-0*%
X12681009Y-16939000D03*
X12681009Y-16039000D03*
X11781009Y-16039000D03*
X11781009Y-16939000D03*
%TD*%
%TO.C,N45-0*%
X36642009Y-23785000D03*
X36642009Y-22885000D03*
X35742009Y-22885000D03*
X35742009Y-23785000D03*
%TD*%
%TO.C,N282-0*%
X16104009Y-116206000D03*
X16104009Y-115306000D03*
X15204009Y-115306000D03*
X15204009Y-116206000D03*
%TD*%
%TO.C,N179-1*%
X68219009Y-75130000D03*
X68219009Y-74230000D03*
X67319009Y-74230000D03*
X67319009Y-75130000D03*
%TD*%
%TO.C,N265-0*%
X19527009Y-109360000D03*
X19527009Y-108460000D03*
X18627009Y-108460000D03*
X18627009Y-109360000D03*
%TD*%
%TO.C,N271-0*%
X9258009Y-112783000D03*
X9258009Y-111883000D03*
X8358009Y-111883000D03*
X8358009Y-112783000D03*
%TD*%
%TO.C,N87-1*%
X61373009Y-40900000D03*
X61373009Y-40000000D03*
X60473009Y-40000000D03*
X60473009Y-40900000D03*
%TD*%
%TO.C,N70-1*%
X64796009Y-34054000D03*
X64796009Y-33154000D03*
X63896009Y-33154000D03*
X63896009Y-34054000D03*
%TD*%
%TO.C,N222-1*%
X61373009Y-92245000D03*
X61373009Y-91345000D03*
X60473009Y-91345000D03*
X60473009Y-92245000D03*
%TD*%
%TO.C,N210-0*%
X16104009Y-88822000D03*
X16104009Y-87922000D03*
X15204009Y-87922000D03*
X15204009Y-88822000D03*
%TD*%
%TO.C,N123-0*%
X26373009Y-54592000D03*
X26373009Y-53692000D03*
X25473009Y-53692000D03*
X25473009Y-54592000D03*
%TD*%
%TO.C,N13-1*%
X54527009Y-13516000D03*
X54527009Y-12616000D03*
X53627009Y-12616000D03*
X53627009Y-13516000D03*
%TD*%
%TO.C,N23-1*%
X57950009Y-16939000D03*
X57950009Y-16039000D03*
X57050009Y-16039000D03*
X57050009Y-16939000D03*
%TD*%
%TO.C,N198-0*%
X36642009Y-81976000D03*
X36642009Y-81076000D03*
X35742009Y-81076000D03*
X35742009Y-81976000D03*
%TD*%
%TO.C,N169-0*%
X29796009Y-71707000D03*
X29796009Y-70807000D03*
X28896009Y-70807000D03*
X28896009Y-71707000D03*
%TD*%
%TO.C,N256-1*%
X54527009Y-105937000D03*
X54527009Y-105037000D03*
X53627009Y-105037000D03*
X53627009Y-105937000D03*
%TD*%
%TO.C,N55-0*%
X9258009Y-30631000D03*
X9258009Y-29731000D03*
X8358009Y-29731000D03*
X8358009Y-30631000D03*
%TD*%
%TO.C,N156-1*%
X51104009Y-68284000D03*
X51104009Y-67384000D03*
X50204009Y-67384000D03*
X50204009Y-68284000D03*
%TD*%
%TO.C,N130-1*%
X54527009Y-58015000D03*
X54527009Y-57115000D03*
X53627009Y-57115000D03*
X53627009Y-58015000D03*
%TD*%
%TO.C,N217-0*%
X9258009Y-92245000D03*
X9258009Y-91345000D03*
X8358009Y-91345000D03*
X8358009Y-92245000D03*
%TD*%
%TO.C,N124-0*%
X29796009Y-54592000D03*
X29796009Y-53692000D03*
X28896009Y-53692000D03*
X28896009Y-54592000D03*
%TD*%
%TO.C,N74-0*%
X12681009Y-37477000D03*
X12681009Y-36577000D03*
X11781009Y-36577000D03*
X11781009Y-37477000D03*
%TD*%
%TO.C,N167-0*%
X22950009Y-71707000D03*
X22950009Y-70807000D03*
X22050009Y-70807000D03*
X22050009Y-71707000D03*
%TD*%
%TO.C,N5-0*%
X22950009Y-10093000D03*
X22950009Y-9193000D03*
X22050009Y-9193000D03*
X22050009Y-10093000D03*
%TD*%
%TO.C,N248-0*%
X22950009Y-102514000D03*
X22950009Y-101614000D03*
X22050009Y-101614000D03*
X22050009Y-102514000D03*
%TD*%
%TO.C,N194-1*%
X57950009Y-81976000D03*
X57950009Y-81076000D03*
X57050009Y-81076000D03*
X57050009Y-81976000D03*
%TD*%
%TO.C,N136-1*%
X44258009Y-61438000D03*
X44258009Y-60538000D03*
X43358009Y-60538000D03*
X43358009Y-61438000D03*
%TD*%
%TO.C,N175-1*%
X54527009Y-75130000D03*
X54527009Y-74230000D03*
X53627009Y-74230000D03*
X53627009Y-75130000D03*
%TD*%
%TO.C,N27-1*%
X71642009Y-16939000D03*
X71642009Y-16039000D03*
X70742009Y-16039000D03*
X70742009Y-16939000D03*
%TD*%
%TO.C,N103-0*%
X19527009Y-47746000D03*
X19527009Y-46846000D03*
X18627009Y-46846000D03*
X18627009Y-47746000D03*
%TD*%
%TO.C,N76-0*%
X19527009Y-37477000D03*
X19527009Y-36577000D03*
X18627009Y-36577000D03*
X18627009Y-37477000D03*
%TD*%
%TO.C,N154-0*%
X9258009Y-68284000D03*
X9258009Y-67384000D03*
X8358009Y-67384000D03*
X8358009Y-68284000D03*
%TD*%
%TO.C,N96-1*%
X61373009Y-44323000D03*
X61373009Y-43423000D03*
X60473009Y-43423000D03*
X60473009Y-44323000D03*
%TD*%
%TO.C,N108-1*%
X71642009Y-47746000D03*
X71642009Y-46846000D03*
X70742009Y-46846000D03*
X70742009Y-47746000D03*
%TD*%
%TO.C,N129-1*%
X51104009Y-58015000D03*
X51104009Y-57115000D03*
X50204009Y-57115000D03*
X50204009Y-58015000D03*
%TD*%
%TO.C,N18-1*%
X71642009Y-13516000D03*
X71642009Y-12616000D03*
X70742009Y-12616000D03*
X70742009Y-13516000D03*
%TD*%
%TO.C,N181-1*%
X44258009Y-78553000D03*
X44258009Y-77653000D03*
X43358009Y-77653000D03*
X43358009Y-78553000D03*
%TD*%
%TO.C,N228-0*%
X16104009Y-95668000D03*
X16104009Y-94768000D03*
X15204009Y-94768000D03*
X15204009Y-95668000D03*
%TD*%
%TO.C,N11-1*%
X47681009Y-13516000D03*
X47681009Y-12616000D03*
X46781009Y-12616000D03*
X46781009Y-13516000D03*
%TD*%
%TO.C,N67-1*%
X54527009Y-34054000D03*
X54527009Y-33154000D03*
X53627009Y-33154000D03*
X53627009Y-34054000D03*
%TD*%
%TO.C,N131-1*%
X57950009Y-58015000D03*
X57950009Y-57115000D03*
X57050009Y-57115000D03*
X57050009Y-58015000D03*
%TD*%
%TO.C,N128-1*%
X47681009Y-58015000D03*
X47681009Y-57115000D03*
X46781009Y-57115000D03*
X46781009Y-58015000D03*
%TD*%
%TO.C,N34-0*%
X29796009Y-20362000D03*
X29796009Y-19462000D03*
X28896009Y-19462000D03*
X28896009Y-20362000D03*
%TD*%
%TO.C,N244-0*%
X9258009Y-102514000D03*
X9258009Y-101614000D03*
X8358009Y-101614000D03*
X8358009Y-102514000D03*
%TD*%
%TO.C,N205-1*%
X64796009Y-85399000D03*
X64796009Y-84499000D03*
X63896009Y-84499000D03*
X63896009Y-85399000D03*
%TD*%
%TO.C,N18-0*%
X36642009Y-13516000D03*
X36642009Y-12616000D03*
X35742009Y-12616000D03*
X35742009Y-13516000D03*
%TD*%
%TO.C,N174-0*%
X16104009Y-75130000D03*
X16104009Y-74230000D03*
X15204009Y-74230000D03*
X15204009Y-75130000D03*
%TD*%
%TO.C,N201-0*%
X16104009Y-85399000D03*
X16104009Y-84499000D03*
X15204009Y-84499000D03*
X15204009Y-85399000D03*
%TD*%
%TO.C,N126-0*%
X36642009Y-54592000D03*
X36642009Y-53692000D03*
X35742009Y-53692000D03*
X35742009Y-54592000D03*
%TD*%
%TO.C,N89-1*%
X68219009Y-40900000D03*
X68219009Y-40000000D03*
X67319009Y-40000000D03*
X67319009Y-40900000D03*
%TD*%
%TO.C,N204-0*%
X26373009Y-85399000D03*
X26373009Y-84499000D03*
X25473009Y-84499000D03*
X25473009Y-85399000D03*
%TD*%
%TO.C,N254-1*%
X47681009Y-105937000D03*
X47681009Y-105037000D03*
X46781009Y-105037000D03*
X46781009Y-105937000D03*
%TD*%
%TO.C,N162-0*%
X36642009Y-68284000D03*
X36642009Y-67384000D03*
X35742009Y-67384000D03*
X35742009Y-68284000D03*
%TD*%
%TO.C,N35-1*%
X68219009Y-20362000D03*
X68219009Y-19462000D03*
X67319009Y-19462000D03*
X67319009Y-20362000D03*
%TD*%
%TO.C,N263-0*%
X12681009Y-109360000D03*
X12681009Y-108460000D03*
X11781009Y-108460000D03*
X11781009Y-109360000D03*
%TD*%
%TO.C,N277-0*%
X29796009Y-112783000D03*
X29796009Y-111883000D03*
X28896009Y-111883000D03*
X28896009Y-112783000D03*
%TD*%
%TO.C,N253-1*%
X44258009Y-105937000D03*
X44258009Y-105037000D03*
X43358009Y-105037000D03*
X43358009Y-105937000D03*
%TD*%
%TO.C,N169-1*%
X64796009Y-71707000D03*
X64796009Y-70807000D03*
X63896009Y-70807000D03*
X63896009Y-71707000D03*
%TD*%
%TO.C,N170-1*%
X68219009Y-71707000D03*
X68219009Y-70807000D03*
X67319009Y-70807000D03*
X67319009Y-71707000D03*
%TD*%
%TO.C,N178-0*%
X29796009Y-75130000D03*
X29796009Y-74230000D03*
X28896009Y-74230000D03*
X28896009Y-75130000D03*
%TD*%
%TO.C,N61-0*%
X29796009Y-30631000D03*
X29796009Y-29731000D03*
X28896009Y-29731000D03*
X28896009Y-30631000D03*
%TD*%
%TO.C,N61-1*%
X64796009Y-30631000D03*
X64796009Y-29731000D03*
X63896009Y-29731000D03*
X63896009Y-30631000D03*
%TD*%
%TO.C,N185-1*%
X57950009Y-78553000D03*
X57950009Y-77653000D03*
X57050009Y-77653000D03*
X57050009Y-78553000D03*
%TD*%
%TO.C,N4-1*%
X54527009Y-10093000D03*
X54527009Y-9193000D03*
X53627009Y-9193000D03*
X53627009Y-10093000D03*
%TD*%
%TO.C,N199-1*%
X44258009Y-85399000D03*
X44258009Y-84499000D03*
X43358009Y-84499000D03*
X43358009Y-85399000D03*
%TD*%
%TO.C,N144-0*%
X36642009Y-61438000D03*
X36642009Y-60538000D03*
X35742009Y-60538000D03*
X35742009Y-61438000D03*
%TD*%
%TO.C,N116-0*%
X33219009Y-51169000D03*
X33219009Y-50269000D03*
X32319009Y-50269000D03*
X32319009Y-51169000D03*
%TD*%
%TO.C,N73-1*%
X44258009Y-37477000D03*
X44258009Y-36577000D03*
X43358009Y-36577000D03*
X43358009Y-37477000D03*
%TD*%
%TO.C,N60-1*%
X61373009Y-30631000D03*
X61373009Y-29731000D03*
X60473009Y-29731000D03*
X60473009Y-30631000D03*
%TD*%
%TO.C,N270-0*%
X36642009Y-109360000D03*
X36642009Y-108460000D03*
X35742009Y-108460000D03*
X35742009Y-109360000D03*
%TD*%
%TO.C,N138-1*%
X51104009Y-61438000D03*
X51104009Y-60538000D03*
X50204009Y-60538000D03*
X50204009Y-61438000D03*
%TD*%
%TO.C,N65-1*%
X47681009Y-34054000D03*
X47681009Y-33154000D03*
X46781009Y-33154000D03*
X46781009Y-34054000D03*
%TD*%
%TO.C,N236-0*%
X12681009Y-99091000D03*
X12681009Y-98191000D03*
X11781009Y-98191000D03*
X11781009Y-99091000D03*
%TD*%
%TO.C,N24-1*%
X61373009Y-16939000D03*
X61373009Y-16039000D03*
X60473009Y-16039000D03*
X60473009Y-16939000D03*
%TD*%
%TO.C,N78-0*%
X26373009Y-37477000D03*
X26373009Y-36577000D03*
X25473009Y-36577000D03*
X25473009Y-37477000D03*
%TD*%
%TO.C,N243-1*%
X71642009Y-99091000D03*
X71642009Y-98191000D03*
X70742009Y-98191000D03*
X70742009Y-99091000D03*
%TD*%
%TO.C,N159-0*%
X26373009Y-68284000D03*
X26373009Y-67384000D03*
X25473009Y-67384000D03*
X25473009Y-68284000D03*
%TD*%
%TO.C,N251-1*%
X68219009Y-102514000D03*
X68219009Y-101614000D03*
X67319009Y-101614000D03*
X67319009Y-102514000D03*
%TD*%
%TO.C,N76-1*%
X54527009Y-37477000D03*
X54527009Y-36577000D03*
X53627009Y-36577000D03*
X53627009Y-37477000D03*
%TD*%
%TO.C,N273-0*%
X16104009Y-112783000D03*
X16104009Y-111883000D03*
X15204009Y-111883000D03*
X15204009Y-112783000D03*
%TD*%
%TO.C,N29-1*%
X47681009Y-20362000D03*
X47681009Y-19462000D03*
X46781009Y-19462000D03*
X46781009Y-20362000D03*
%TD*%
%TO.C,N20-1*%
X47681009Y-16939000D03*
X47681009Y-16039000D03*
X46781009Y-16039000D03*
X46781009Y-16939000D03*
%TD*%
%TO.C,N105-0*%
X26373009Y-47746000D03*
X26373009Y-46846000D03*
X25473009Y-46846000D03*
X25473009Y-47746000D03*
%TD*%
%TO.C,N274-0*%
X19527009Y-112783000D03*
X19527009Y-111883000D03*
X18627009Y-111883000D03*
X18627009Y-112783000D03*
%TD*%
%TO.C,N90-1*%
X71642009Y-40900000D03*
X71642009Y-40000000D03*
X70742009Y-40000000D03*
X70742009Y-40900000D03*
%TD*%
%TO.C,N7-1*%
X64796009Y-10093000D03*
X64796009Y-9193000D03*
X63896009Y-9193000D03*
X63896009Y-10093000D03*
%TD*%
%TO.C,N83-0*%
X12681009Y-40900000D03*
X12681009Y-40000000D03*
X11781009Y-40000000D03*
X11781009Y-40900000D03*
%TD*%
%TO.C,N124-1*%
X64796009Y-54592000D03*
X64796009Y-53692000D03*
X63896009Y-53692000D03*
X63896009Y-54592000D03*
%TD*%
%TO.C,N214-0*%
X29796009Y-88822000D03*
X29796009Y-87922000D03*
X28896009Y-87922000D03*
X28896009Y-88822000D03*
%TD*%
%TO.C,N234-1*%
X71642009Y-95668000D03*
X71642009Y-94768000D03*
X70742009Y-94768000D03*
X70742009Y-95668000D03*
%TD*%
%TO.C,N12-1*%
X51104009Y-13516000D03*
X51104009Y-12616000D03*
X50204009Y-12616000D03*
X50204009Y-13516000D03*
%TD*%
%TO.C,N250-0*%
X29796009Y-102514000D03*
X29796009Y-101614000D03*
X28896009Y-101614000D03*
X28896009Y-102514000D03*
%TD*%
%TO.C,N259-1*%
X64796009Y-105937000D03*
X64796009Y-105037000D03*
X63896009Y-105037000D03*
X63896009Y-105937000D03*
%TD*%
%TO.C,N247-0*%
X19527009Y-102514000D03*
X19527009Y-101614000D03*
X18627009Y-101614000D03*
X18627009Y-102514000D03*
%TD*%
%TO.C,N255-1*%
X51104009Y-105937000D03*
X51104009Y-105037000D03*
X50204009Y-105037000D03*
X50204009Y-105937000D03*
%TD*%
%TO.C,N257-0*%
X22950009Y-105937000D03*
X22950009Y-105037000D03*
X22050009Y-105037000D03*
X22050009Y-105937000D03*
%TD*%
%TO.C,N275-0*%
X22950009Y-112783000D03*
X22950009Y-111883000D03*
X22050009Y-111883000D03*
X22050009Y-112783000D03*
%TD*%
%TO.C,N132-0*%
X26373009Y-58015000D03*
X26373009Y-57115000D03*
X25473009Y-57115000D03*
X25473009Y-58015000D03*
%TD*%
%TO.C,N218-1*%
X47681009Y-92245000D03*
X47681009Y-91345000D03*
X46781009Y-91345000D03*
X46781009Y-92245000D03*
%TD*%
%TO.C,N184-1*%
X54527009Y-78553000D03*
X54527009Y-77653000D03*
X53627009Y-77653000D03*
X53627009Y-78553000D03*
%TD*%
%TO.C,N39-0*%
X16104009Y-23785000D03*
X16104009Y-22885000D03*
X15204009Y-22885000D03*
X15204009Y-23785000D03*
%TD*%
%TO.C,N93-1*%
X51104009Y-44323000D03*
X51104009Y-43423000D03*
X50204009Y-43423000D03*
X50204009Y-44323000D03*
%TD*%
%TO.C,N188-0*%
X33219009Y-78553000D03*
X33219009Y-77653000D03*
X32319009Y-77653000D03*
X32319009Y-78553000D03*
%TD*%
%TO.C,N166-0*%
X19527009Y-71707000D03*
X19527009Y-70807000D03*
X18627009Y-70807000D03*
X18627009Y-71707000D03*
%TD*%
%TO.C,N202-0*%
X19527009Y-85399000D03*
X19527009Y-84499000D03*
X18627009Y-84499000D03*
X18627009Y-85399000D03*
%TD*%
%TO.C,N120-0*%
X16104009Y-54592000D03*
X16104009Y-53692000D03*
X15204009Y-53692000D03*
X15204009Y-54592000D03*
%TD*%
%TO.C,N30-1*%
X51104009Y-20362000D03*
X51104009Y-19462000D03*
X50204009Y-19462000D03*
X50204009Y-20362000D03*
%TD*%
%TO.C,N115-0*%
X29796009Y-51169000D03*
X29796009Y-50269000D03*
X28896009Y-50269000D03*
X28896009Y-51169000D03*
%TD*%
%TO.C,N211-1*%
X54527009Y-88822000D03*
X54527009Y-87922000D03*
X53627009Y-87922000D03*
X53627009Y-88822000D03*
%TD*%
%TO.C,N233-0*%
X33219009Y-95668000D03*
X33219009Y-94768000D03*
X32319009Y-94768000D03*
X32319009Y-95668000D03*
%TD*%
%TO.C,N244-1*%
X44258009Y-102514000D03*
X44258009Y-101614000D03*
X43358009Y-101614000D03*
X43358009Y-102514000D03*
%TD*%
%TO.C,N274-1*%
X54527009Y-112783000D03*
X54527009Y-111883000D03*
X53627009Y-111883000D03*
X53627009Y-112783000D03*
%TD*%
D11*
%TO.C,KiKit_TO_3*%
X3000000Y-122399995D03*
%TD*%
D10*
%TO.C,N147-1*%
X51104009Y-64861000D03*
X51104009Y-63961000D03*
X50204009Y-63961000D03*
X50204009Y-64861000D03*
%TD*%
%TO.C,N35-0*%
X33219009Y-20362000D03*
X33219009Y-19462000D03*
X32319009Y-19462000D03*
X32319009Y-20362000D03*
%TD*%
%TO.C,N189-0*%
X36642009Y-78553000D03*
X36642009Y-77653000D03*
X35742009Y-77653000D03*
X35742009Y-78553000D03*
%TD*%
%TO.C,N22-1*%
X54527009Y-16939000D03*
X54527009Y-16039000D03*
X53627009Y-16039000D03*
X53627009Y-16939000D03*
%TD*%
%TO.C,N55-1*%
X44258009Y-30631000D03*
X44258009Y-29731000D03*
X43358009Y-29731000D03*
X43358009Y-30631000D03*
%TD*%
%TO.C,N245-1*%
X47681009Y-102514000D03*
X47681009Y-101614000D03*
X46781009Y-101614000D03*
X46781009Y-102514000D03*
%TD*%
%TO.C,N54-1*%
X71642009Y-27208000D03*
X71642009Y-26308000D03*
X70742009Y-26308000D03*
X70742009Y-27208000D03*
%TD*%
%TO.C,N185-0*%
X22950009Y-78553000D03*
X22950009Y-77653000D03*
X22050009Y-77653000D03*
X22050009Y-78553000D03*
%TD*%
%TO.C,N258-1*%
X61373009Y-105937000D03*
X61373009Y-105037000D03*
X60473009Y-105037000D03*
X60473009Y-105937000D03*
%TD*%
%TO.C,N250-1*%
X64796009Y-102514000D03*
X64796009Y-101614000D03*
X63896009Y-101614000D03*
X63896009Y-102514000D03*
%TD*%
%TO.C,N262-0*%
X9258009Y-109360000D03*
X9258009Y-108460000D03*
X8358009Y-108460000D03*
X8358009Y-109360000D03*
%TD*%
%TO.C,N33-0*%
X26373009Y-20362000D03*
X26373009Y-19462000D03*
X25473009Y-19462000D03*
X25473009Y-20362000D03*
%TD*%
%TO.C,N226-0*%
X9258009Y-95668000D03*
X9258009Y-94768000D03*
X8358009Y-94768000D03*
X8358009Y-95668000D03*
%TD*%
%TO.C,N133-0*%
X29796009Y-58015000D03*
X29796009Y-57115000D03*
X28896009Y-57115000D03*
X28896009Y-58015000D03*
%TD*%
%TO.C,N123-1*%
X61373009Y-54592000D03*
X61373009Y-53692000D03*
X60473009Y-53692000D03*
X60473009Y-54592000D03*
%TD*%
%TO.C,N97-1*%
X64796009Y-44323000D03*
X64796009Y-43423000D03*
X63896009Y-43423000D03*
X63896009Y-44323000D03*
%TD*%
%TO.C,N68-0*%
X22950009Y-34054000D03*
X22950009Y-33154000D03*
X22050009Y-33154000D03*
X22050009Y-34054000D03*
%TD*%
%TO.C,N218-0*%
X12681009Y-92245000D03*
X12681009Y-91345000D03*
X11781009Y-91345000D03*
X11781009Y-92245000D03*
%TD*%
%TO.C,N196-0*%
X29796009Y-81976000D03*
X29796009Y-81076000D03*
X28896009Y-81076000D03*
X28896009Y-81976000D03*
%TD*%
%TO.C,N230-1*%
X57950009Y-95668000D03*
X57950009Y-94768000D03*
X57050009Y-94768000D03*
X57050009Y-95668000D03*
%TD*%
%TO.C,N285-1*%
X61373009Y-116206000D03*
X61373009Y-115306000D03*
X60473009Y-115306000D03*
X60473009Y-116206000D03*
%TD*%
%TO.C,N236-1*%
X47681009Y-99091000D03*
X47681009Y-98191000D03*
X46781009Y-98191000D03*
X46781009Y-99091000D03*
%TD*%
%TO.C,N142-1*%
X64796009Y-61438000D03*
X64796009Y-60538000D03*
X63896009Y-60538000D03*
X63896009Y-61438000D03*
%TD*%
%TO.C,N98-1*%
X68219009Y-44323000D03*
X68219009Y-43423000D03*
X67319009Y-43423000D03*
X67319009Y-44323000D03*
%TD*%
%TO.C,N150-0*%
X26373009Y-64861000D03*
X26373009Y-63961000D03*
X25473009Y-63961000D03*
X25473009Y-64861000D03*
%TD*%
%TO.C,N215-0*%
X33219009Y-88822000D03*
X33219009Y-87922000D03*
X32319009Y-87922000D03*
X32319009Y-88822000D03*
%TD*%
%TO.C,N146-0*%
X12681009Y-64861000D03*
X12681009Y-63961000D03*
X11781009Y-63961000D03*
X11781009Y-64861000D03*
%TD*%
%TO.C,N165-1*%
X51104009Y-71707000D03*
X51104009Y-70807000D03*
X50204009Y-70807000D03*
X50204009Y-71707000D03*
%TD*%
%TO.C,N235-1*%
X44258009Y-99091000D03*
X44258009Y-98191000D03*
X43358009Y-98191000D03*
X43358009Y-99091000D03*
%TD*%
%TO.C,N75-0*%
X16104009Y-37477000D03*
X16104009Y-36577000D03*
X15204009Y-36577000D03*
X15204009Y-37477000D03*
%TD*%
%TO.C,N99-0*%
X36642009Y-44323000D03*
X36642009Y-43423000D03*
X35742009Y-43423000D03*
X35742009Y-44323000D03*
%TD*%
%TO.C,N52-1*%
X64796009Y-27208000D03*
X64796009Y-26308000D03*
X63896009Y-26308000D03*
X63896009Y-27208000D03*
%TD*%
%TO.C,N135-0*%
X36642009Y-58015000D03*
X36642009Y-57115000D03*
X35742009Y-57115000D03*
X35742009Y-58015000D03*
%TD*%
%TO.C,N282-1*%
X51104009Y-116206000D03*
X51104009Y-115306000D03*
X50204009Y-115306000D03*
X50204009Y-116206000D03*
%TD*%
%TO.C,N132-1*%
X61373009Y-58015000D03*
X61373009Y-57115000D03*
X60473009Y-57115000D03*
X60473009Y-58015000D03*
%TD*%
%TO.C,N118-1*%
X44258009Y-54592000D03*
X44258009Y-53692000D03*
X43358009Y-53692000D03*
X43358009Y-54592000D03*
%TD*%
%TO.C,N105-1*%
X61373009Y-47746000D03*
X61373009Y-46846000D03*
X60473009Y-46846000D03*
X60473009Y-47746000D03*
%TD*%
%TO.C,N125-1*%
X68219009Y-54592000D03*
X68219009Y-53692000D03*
X67319009Y-53692000D03*
X67319009Y-54592000D03*
%TD*%
%TO.C,N64-1*%
X44258009Y-34054000D03*
X44258009Y-33154000D03*
X43358009Y-33154000D03*
X43358009Y-34054000D03*
%TD*%
%TO.C,N8-1*%
X68219009Y-10093000D03*
X68219009Y-9193000D03*
X67319009Y-9193000D03*
X67319009Y-10093000D03*
%TD*%
%TO.C,N227-0*%
X12681009Y-95668000D03*
X12681009Y-94768000D03*
X11781009Y-94768000D03*
X11781009Y-95668000D03*
%TD*%
%TO.C,N172-0*%
X9258009Y-75130000D03*
X9258009Y-74230000D03*
X8358009Y-74230000D03*
X8358009Y-75130000D03*
%TD*%
%TO.C,N186-1*%
X61373009Y-78553000D03*
X61373009Y-77653000D03*
X60473009Y-77653000D03*
X60473009Y-78553000D03*
%TD*%
%TO.C,N32-0*%
X22950009Y-20362000D03*
X22950009Y-19462000D03*
X22050009Y-19462000D03*
X22050009Y-20362000D03*
%TD*%
%TO.C,N29-0*%
X12681009Y-20362000D03*
X12681009Y-19462000D03*
X11781009Y-19462000D03*
X11781009Y-20362000D03*
%TD*%
%TO.C,N97-0*%
X29796009Y-44323000D03*
X29796009Y-43423000D03*
X28896009Y-43423000D03*
X28896009Y-44323000D03*
%TD*%
D11*
%TO.C,KiKit_TO_2*%
X77000006Y-3000000D03*
%TD*%
D10*
%TO.C,N266-1*%
X57950009Y-109360000D03*
X57950009Y-108460000D03*
X57050009Y-108460000D03*
X57050009Y-109360000D03*
%TD*%
%TO.C,N276-1*%
X61373009Y-112783000D03*
X61373009Y-111883000D03*
X60473009Y-111883000D03*
X60473009Y-112783000D03*
%TD*%
%TO.C,N186-0*%
X26373009Y-78553000D03*
X26373009Y-77653000D03*
X25473009Y-77653000D03*
X25473009Y-78553000D03*
%TD*%
%TO.C,N70-0*%
X29796009Y-34054000D03*
X29796009Y-33154000D03*
X28896009Y-33154000D03*
X28896009Y-34054000D03*
%TD*%
%TO.C,N91-0*%
X9258009Y-44323000D03*
X9258009Y-43423000D03*
X8358009Y-43423000D03*
X8358009Y-44323000D03*
%TD*%
%TO.C,N32-1*%
X57950009Y-20362000D03*
X57950009Y-19462000D03*
X57050009Y-19462000D03*
X57050009Y-20362000D03*
%TD*%
%TO.C,N208-1*%
X44258009Y-88822000D03*
X44258009Y-87922000D03*
X43358009Y-87922000D03*
X43358009Y-88822000D03*
%TD*%
%TO.C,N16-1*%
X64796009Y-13516000D03*
X64796009Y-12616000D03*
X63896009Y-12616000D03*
X63896009Y-13516000D03*
%TD*%
%TO.C,N207-1*%
X71642009Y-85399000D03*
X71642009Y-84499000D03*
X70742009Y-84499000D03*
X70742009Y-85399000D03*
%TD*%
%TO.C,N104-1*%
X57950009Y-47746000D03*
X57950009Y-46846000D03*
X57050009Y-46846000D03*
X57050009Y-47746000D03*
%TD*%
%TO.C,N48-1*%
X51104009Y-27208000D03*
X51104009Y-26308000D03*
X50204009Y-26308000D03*
X50204009Y-27208000D03*
%TD*%
%TO.C,N142-0*%
X29796009Y-61438000D03*
X29796009Y-60538000D03*
X28896009Y-60538000D03*
X28896009Y-61438000D03*
%TD*%
%TO.C,N145-1*%
X44258009Y-64861000D03*
X44258009Y-63961000D03*
X43358009Y-63961000D03*
X43358009Y-64861000D03*
%TD*%
%TO.C,N277-1*%
X64796009Y-112783000D03*
X64796009Y-111883000D03*
X63896009Y-111883000D03*
X63896009Y-112783000D03*
%TD*%
%TO.C,N111-1*%
X51104009Y-51169000D03*
X51104009Y-50269000D03*
X50204009Y-50269000D03*
X50204009Y-51169000D03*
%TD*%
%TO.C,N75-1*%
X51104009Y-37477000D03*
X51104009Y-36577000D03*
X50204009Y-36577000D03*
X50204009Y-37477000D03*
%TD*%
%TO.C,N150-1*%
X61373009Y-64861000D03*
X61373009Y-63961000D03*
X60473009Y-63961000D03*
X60473009Y-64861000D03*
%TD*%
%TO.C,N253-0*%
X9258009Y-105937000D03*
X9258009Y-105037000D03*
X8358009Y-105037000D03*
X8358009Y-105937000D03*
%TD*%
%TO.C,N80-1*%
X68219009Y-37477000D03*
X68219009Y-36577000D03*
X67319009Y-36577000D03*
X67319009Y-37477000D03*
%TD*%
%TO.C,N83-1*%
X47681009Y-40900000D03*
X47681009Y-40000000D03*
X46781009Y-40000000D03*
X46781009Y-40900000D03*
%TD*%
%TO.C,N143-1*%
X68219009Y-61438000D03*
X68219009Y-60538000D03*
X67319009Y-60538000D03*
X67319009Y-61438000D03*
%TD*%
%TO.C,N204-1*%
X61373009Y-85399000D03*
X61373009Y-84499000D03*
X60473009Y-84499000D03*
X60473009Y-85399000D03*
%TD*%
%TO.C,N177-0*%
X26373009Y-75130000D03*
X26373009Y-74230000D03*
X25473009Y-74230000D03*
X25473009Y-75130000D03*
%TD*%
%TO.C,N254-0*%
X12681009Y-105937000D03*
X12681009Y-105037000D03*
X11781009Y-105037000D03*
X11781009Y-105937000D03*
%TD*%
%TO.C,N129-0*%
X16104009Y-58015000D03*
X16104009Y-57115000D03*
X15204009Y-57115000D03*
X15204009Y-58015000D03*
%TD*%
%TO.C,N107-1*%
X68219009Y-47746000D03*
X68219009Y-46846000D03*
X67319009Y-46846000D03*
X67319009Y-47746000D03*
%TD*%
%TO.C,N259-0*%
X29796009Y-105937000D03*
X29796009Y-105037000D03*
X28896009Y-105037000D03*
X28896009Y-105937000D03*
%TD*%
%TO.C,N224-1*%
X68219009Y-92245000D03*
X68219009Y-91345000D03*
X67319009Y-91345000D03*
X67319009Y-92245000D03*
%TD*%
%TO.C,N53-1*%
X68219009Y-27208000D03*
X68219009Y-26308000D03*
X67319009Y-26308000D03*
X67319009Y-27208000D03*
%TD*%
%TO.C,N16-0*%
X29796009Y-13516000D03*
X29796009Y-12616000D03*
X28896009Y-12616000D03*
X28896009Y-13516000D03*
%TD*%
%TO.C,N36-0*%
X36642009Y-20362000D03*
X36642009Y-19462000D03*
X35742009Y-19462000D03*
X35742009Y-20362000D03*
%TD*%
%TO.C,N237-0*%
X16104009Y-99091000D03*
X16104009Y-98191000D03*
X15204009Y-98191000D03*
X15204009Y-99091000D03*
%TD*%
%TO.C,N153-1*%
X71642009Y-64861000D03*
X71642009Y-63961000D03*
X70742009Y-63961000D03*
X70742009Y-64861000D03*
%TD*%
%TO.C,N267-0*%
X26373009Y-109360000D03*
X26373009Y-108460000D03*
X25473009Y-108460000D03*
X25473009Y-109360000D03*
%TD*%
%TO.C,N249-0*%
X26373009Y-102514000D03*
X26373009Y-101614000D03*
X25473009Y-101614000D03*
X25473009Y-102514000D03*
%TD*%
%TO.C,N176-1*%
X57950009Y-75130000D03*
X57950009Y-74230000D03*
X57050009Y-74230000D03*
X57050009Y-75130000D03*
%TD*%
%TO.C,N195-1*%
X61373009Y-81976000D03*
X61373009Y-81076000D03*
X60473009Y-81076000D03*
X60473009Y-81976000D03*
%TD*%
%TO.C,N37-1*%
X44258009Y-23785000D03*
X44258009Y-22885000D03*
X43358009Y-22885000D03*
X43358009Y-23785000D03*
%TD*%
%TO.C,N240-0*%
X26373009Y-99091000D03*
X26373009Y-98191000D03*
X25473009Y-98191000D03*
X25473009Y-99091000D03*
%TD*%
%TO.C,N229-1*%
X54527009Y-95668000D03*
X54527009Y-94768000D03*
X53627009Y-94768000D03*
X53627009Y-95668000D03*
%TD*%
%TO.C,N58-1*%
X54527009Y-30631000D03*
X54527009Y-29731000D03*
X53627009Y-29731000D03*
X53627009Y-30631000D03*
%TD*%
%TO.C,N51-0*%
X26373009Y-27208000D03*
X26373009Y-26308000D03*
X25473009Y-26308000D03*
X25473009Y-27208000D03*
%TD*%
%TO.C,N59-0*%
X22950009Y-30631000D03*
X22950009Y-29731000D03*
X22050009Y-29731000D03*
X22050009Y-30631000D03*
%TD*%
%TO.C,N134-0*%
X33219009Y-58015000D03*
X33219009Y-57115000D03*
X32319009Y-57115000D03*
X32319009Y-58015000D03*
%TD*%
%TO.C,N157-1*%
X54527009Y-68284000D03*
X54527009Y-67384000D03*
X53627009Y-67384000D03*
X53627009Y-68284000D03*
%TD*%
%TO.C,N168-1*%
X61373009Y-71707000D03*
X61373009Y-70807000D03*
X60473009Y-70807000D03*
X60473009Y-71707000D03*
%TD*%
%TO.C,N280-1*%
X44258009Y-116206000D03*
X44258009Y-115306000D03*
X43358009Y-115306000D03*
X43358009Y-116206000D03*
%TD*%
%TO.C,N46-0*%
X9258009Y-27208000D03*
X9258009Y-26308000D03*
X8358009Y-26308000D03*
X8358009Y-27208000D03*
%TD*%
M02*
