%TF.GenerationSoftware,KiCad,Pcbnew,8.0.1*%
%TF.CreationDate,2024-04-01T01:10:39-04:00*%
%TF.ProjectId,RGB-Panel,5247422d-5061-46e6-956c-2e6b69636164,V3.0*%
%TF.SameCoordinates,Original*%
%TF.FileFunction,Paste,Bot*%
%TF.FilePolarity,Positive*%
%FSLAX46Y46*%
G04 Gerber Fmt 4.6, Leading zero omitted, Abs format (unit mm)*
G04 Created by KiCad (PCBNEW 8.0.1) date 2024-04-01 01:10:39*
%MOMM*%
%LPD*%
G01*
G04 APERTURE LIST*
G04 Aperture macros list*
%AMRoundRect*
0 Rectangle with rounded corners*
0 $1 Rounding radius*
0 $2 $3 $4 $5 $6 $7 $8 $9 X,Y pos of 4 corners*
0 Add a 4 corners polygon primitive as box body*
4,1,4,$2,$3,$4,$5,$6,$7,$8,$9,$2,$3,0*
0 Add four circle primitives for the rounded corners*
1,1,$1+$1,$2,$3*
1,1,$1+$1,$4,$5*
1,1,$1+$1,$6,$7*
1,1,$1+$1,$8,$9*
0 Add four rect primitives between the rounded corners*
20,1,$1+$1,$2,$3,$4,$5,0*
20,1,$1+$1,$4,$5,$6,$7,0*
20,1,$1+$1,$6,$7,$8,$9,0*
20,1,$1+$1,$8,$9,$2,$3,0*%
G04 Aperture macros list end*
%ADD10C,0.010000*%
%ADD11RoundRect,0.135000X-0.185000X0.135000X-0.185000X-0.135000X0.185000X-0.135000X0.185000X0.135000X0*%
%ADD12RoundRect,0.135000X0.135000X0.185000X-0.135000X0.185000X-0.135000X-0.185000X0.135000X-0.185000X0*%
%ADD13RoundRect,0.135000X-0.135000X-0.185000X0.135000X-0.185000X0.135000X0.185000X-0.135000X0.185000X0*%
%ADD14RoundRect,0.147500X-0.172500X0.147500X-0.172500X-0.147500X0.172500X-0.147500X0.172500X0.147500X0*%
%ADD15RoundRect,0.140000X-0.170000X0.140000X-0.170000X-0.140000X0.170000X-0.140000X0.170000X0.140000X0*%
%ADD16RoundRect,0.249999X0.395001X-0.395001X0.395001X0.395001X-0.395001X0.395001X-0.395001X-0.395001X0*%
%ADD17RoundRect,0.050000X0.050000X-0.387500X0.050000X0.387500X-0.050000X0.387500X-0.050000X-0.387500X0*%
%ADD18RoundRect,0.050000X0.387500X-0.050000X0.387500X0.050000X-0.387500X0.050000X-0.387500X-0.050000X0*%
%ADD19RoundRect,0.140000X0.140000X0.170000X-0.140000X0.170000X-0.140000X-0.170000X0.140000X-0.170000X0*%
%ADD20RoundRect,0.050000X-0.050000X-0.750000X0.050000X-0.750000X0.050000X0.750000X-0.050000X0.750000X0*%
%ADD21RoundRect,0.075000X-0.187500X-0.075000X0.187500X-0.075000X0.187500X0.075000X-0.187500X0.075000X0*%
%ADD22RoundRect,0.225000X-0.225000X-0.250000X0.225000X-0.250000X0.225000X0.250000X-0.225000X0.250000X0*%
%ADD23RoundRect,0.147500X0.147500X0.172500X-0.147500X0.172500X-0.147500X-0.172500X0.147500X-0.172500X0*%
%ADD24RoundRect,0.007800X0.422200X0.122200X-0.422200X0.122200X-0.422200X-0.122200X0.422200X-0.122200X0*%
%ADD25RoundRect,0.007800X-0.122200X0.422200X-0.122200X-0.422200X0.122200X-0.422200X0.122200X0.422200X0*%
%ADD26RoundRect,0.135000X0.185000X-0.135000X0.185000X0.135000X-0.185000X0.135000X-0.185000X-0.135000X0*%
%ADD27R,1.250000X0.760000*%
%ADD28RoundRect,0.250000X0.312500X0.625000X-0.312500X0.625000X-0.312500X-0.625000X0.312500X-0.625000X0*%
%ADD29R,0.400000X0.800000*%
%ADD30RoundRect,0.140000X-0.140000X-0.170000X0.140000X-0.170000X0.140000X0.170000X-0.140000X0.170000X0*%
%ADD31RoundRect,0.225000X-0.250000X0.225000X-0.250000X-0.225000X0.250000X-0.225000X0.250000X0.225000X0*%
%ADD32RoundRect,0.147500X0.017678X-0.226274X0.226274X-0.017678X-0.017678X0.226274X-0.226274X0.017678X0*%
%ADD33R,1.200000X1.400000*%
%ADD34C,1.152000*%
G04 APERTURE END LIST*
D10*
%TO.C,J2-0*%
X19875009Y-108750000D02*
X19625009Y-108750000D01*
X19625009Y-108100000D01*
X19875009Y-108100000D01*
X19875009Y-108750000D01*
G36*
X19875009Y-108750000D02*
G01*
X19625009Y-108750000D01*
X19625009Y-108100000D01*
X19875009Y-108100000D01*
X19875009Y-108750000D01*
G37*
X20375009Y-108750000D02*
X20125009Y-108750000D01*
X20125009Y-108100000D01*
X20375009Y-108100000D01*
X20375009Y-108750000D01*
G36*
X20375009Y-108750000D02*
G01*
X20125009Y-108750000D01*
X20125009Y-108100000D01*
X20375009Y-108100000D01*
X20375009Y-108750000D01*
G37*
X20875009Y-108750000D02*
X20625009Y-108750000D01*
X20625009Y-108100000D01*
X20875009Y-108100000D01*
X20875009Y-108750000D01*
G36*
X20875009Y-108750000D02*
G01*
X20625009Y-108750000D01*
X20625009Y-108100000D01*
X20875009Y-108100000D01*
X20875009Y-108750000D01*
G37*
X21375009Y-108750000D02*
X21125009Y-108750000D01*
X21125009Y-108100000D01*
X21375009Y-108100000D01*
X21375009Y-108750000D01*
G36*
X21375009Y-108750000D02*
G01*
X21125009Y-108750000D01*
X21125009Y-108100000D01*
X21375009Y-108100000D01*
X21375009Y-108750000D01*
G37*
X21875009Y-108750000D02*
X21625009Y-108750000D01*
X21625009Y-108100000D01*
X21875009Y-108100000D01*
X21875009Y-108750000D01*
G36*
X21875009Y-108750000D02*
G01*
X21625009Y-108750000D01*
X21625009Y-108100000D01*
X21875009Y-108100000D01*
X21875009Y-108750000D01*
G37*
X22375009Y-108750000D02*
X22125009Y-108750000D01*
X22125009Y-108100000D01*
X22375009Y-108100000D01*
X22375009Y-108750000D01*
G36*
X22375009Y-108750000D02*
G01*
X22125009Y-108750000D01*
X22125009Y-108100000D01*
X22375009Y-108100000D01*
X22375009Y-108750000D01*
G37*
X22875009Y-108750000D02*
X22625009Y-108750000D01*
X22625009Y-108100000D01*
X22875009Y-108100000D01*
X22875009Y-108750000D01*
G36*
X22875009Y-108750000D02*
G01*
X22625009Y-108750000D01*
X22625009Y-108100000D01*
X22875009Y-108100000D01*
X22875009Y-108750000D01*
G37*
X23375009Y-108750000D02*
X23125009Y-108750000D01*
X23125009Y-108100000D01*
X23375009Y-108100000D01*
X23375009Y-108750000D01*
G36*
X23375009Y-108750000D02*
G01*
X23125009Y-108750000D01*
X23125009Y-108100000D01*
X23375009Y-108100000D01*
X23375009Y-108750000D01*
G37*
X23875009Y-108750000D02*
X23625009Y-108750000D01*
X23625009Y-108100000D01*
X23875009Y-108100000D01*
X23875009Y-108750000D01*
G36*
X23875009Y-108750000D02*
G01*
X23625009Y-108750000D01*
X23625009Y-108100000D01*
X23875009Y-108100000D01*
X23875009Y-108750000D01*
G37*
X24375009Y-108750000D02*
X24125009Y-108750000D01*
X24125009Y-108100000D01*
X24375009Y-108100000D01*
X24375009Y-108750000D01*
G36*
X24375009Y-108750000D02*
G01*
X24125009Y-108750000D01*
X24125009Y-108100000D01*
X24375009Y-108100000D01*
X24375009Y-108750000D01*
G37*
X24875009Y-108750000D02*
X24625009Y-108750000D01*
X24625009Y-108100000D01*
X24875009Y-108100000D01*
X24875009Y-108750000D01*
G36*
X24875009Y-108750000D02*
G01*
X24625009Y-108750000D01*
X24625009Y-108100000D01*
X24875009Y-108100000D01*
X24875009Y-108750000D01*
G37*
X25375009Y-108750000D02*
X25125009Y-108750000D01*
X25125009Y-108100000D01*
X25375009Y-108100000D01*
X25375009Y-108750000D01*
G36*
X25375009Y-108750000D02*
G01*
X25125009Y-108750000D01*
X25125009Y-108100000D01*
X25375009Y-108100000D01*
X25375009Y-108750000D01*
G37*
%TO.C,J2-1*%
X54875009Y-108750000D02*
X54625009Y-108750000D01*
X54625009Y-108100000D01*
X54875009Y-108100000D01*
X54875009Y-108750000D01*
G36*
X54875009Y-108750000D02*
G01*
X54625009Y-108750000D01*
X54625009Y-108100000D01*
X54875009Y-108100000D01*
X54875009Y-108750000D01*
G37*
X55375009Y-108750000D02*
X55125009Y-108750000D01*
X55125009Y-108100000D01*
X55375009Y-108100000D01*
X55375009Y-108750000D01*
G36*
X55375009Y-108750000D02*
G01*
X55125009Y-108750000D01*
X55125009Y-108100000D01*
X55375009Y-108100000D01*
X55375009Y-108750000D01*
G37*
X55875009Y-108750000D02*
X55625009Y-108750000D01*
X55625009Y-108100000D01*
X55875009Y-108100000D01*
X55875009Y-108750000D01*
G36*
X55875009Y-108750000D02*
G01*
X55625009Y-108750000D01*
X55625009Y-108100000D01*
X55875009Y-108100000D01*
X55875009Y-108750000D01*
G37*
X56375009Y-108750000D02*
X56125009Y-108750000D01*
X56125009Y-108100000D01*
X56375009Y-108100000D01*
X56375009Y-108750000D01*
G36*
X56375009Y-108750000D02*
G01*
X56125009Y-108750000D01*
X56125009Y-108100000D01*
X56375009Y-108100000D01*
X56375009Y-108750000D01*
G37*
X56875009Y-108750000D02*
X56625009Y-108750000D01*
X56625009Y-108100000D01*
X56875009Y-108100000D01*
X56875009Y-108750000D01*
G36*
X56875009Y-108750000D02*
G01*
X56625009Y-108750000D01*
X56625009Y-108100000D01*
X56875009Y-108100000D01*
X56875009Y-108750000D01*
G37*
X57375009Y-108750000D02*
X57125009Y-108750000D01*
X57125009Y-108100000D01*
X57375009Y-108100000D01*
X57375009Y-108750000D01*
G36*
X57375009Y-108750000D02*
G01*
X57125009Y-108750000D01*
X57125009Y-108100000D01*
X57375009Y-108100000D01*
X57375009Y-108750000D01*
G37*
X57875009Y-108750000D02*
X57625009Y-108750000D01*
X57625009Y-108100000D01*
X57875009Y-108100000D01*
X57875009Y-108750000D01*
G36*
X57875009Y-108750000D02*
G01*
X57625009Y-108750000D01*
X57625009Y-108100000D01*
X57875009Y-108100000D01*
X57875009Y-108750000D01*
G37*
X58375009Y-108750000D02*
X58125009Y-108750000D01*
X58125009Y-108100000D01*
X58375009Y-108100000D01*
X58375009Y-108750000D01*
G36*
X58375009Y-108750000D02*
G01*
X58125009Y-108750000D01*
X58125009Y-108100000D01*
X58375009Y-108100000D01*
X58375009Y-108750000D01*
G37*
X58875009Y-108750000D02*
X58625009Y-108750000D01*
X58625009Y-108100000D01*
X58875009Y-108100000D01*
X58875009Y-108750000D01*
G36*
X58875009Y-108750000D02*
G01*
X58625009Y-108750000D01*
X58625009Y-108100000D01*
X58875009Y-108100000D01*
X58875009Y-108750000D01*
G37*
X59375009Y-108750000D02*
X59125009Y-108750000D01*
X59125009Y-108100000D01*
X59375009Y-108100000D01*
X59375009Y-108750000D01*
G36*
X59375009Y-108750000D02*
G01*
X59125009Y-108750000D01*
X59125009Y-108100000D01*
X59375009Y-108100000D01*
X59375009Y-108750000D01*
G37*
X59875009Y-108750000D02*
X59625009Y-108750000D01*
X59625009Y-108100000D01*
X59875009Y-108100000D01*
X59875009Y-108750000D01*
G36*
X59875009Y-108750000D02*
G01*
X59625009Y-108750000D01*
X59625009Y-108100000D01*
X59875009Y-108100000D01*
X59875009Y-108750000D01*
G37*
X60375009Y-108750000D02*
X60125009Y-108750000D01*
X60125009Y-108100000D01*
X60375009Y-108100000D01*
X60375009Y-108750000D01*
G36*
X60375009Y-108750000D02*
G01*
X60125009Y-108750000D01*
X60125009Y-108100000D01*
X60375009Y-108100000D01*
X60375009Y-108750000D01*
G37*
%TD*%
D11*
%TO.C,R15-0*%
X13970008Y-102495000D03*
X13970008Y-103515000D03*
%TD*%
D12*
%TO.C,R13-0*%
X10662902Y-99719892D03*
X9642902Y-99719892D03*
%TD*%
D11*
%TO.C,R11-1*%
X49100008Y-96399999D03*
X49100008Y-97419999D03*
%TD*%
D13*
%TO.C,R1-1*%
X67110009Y-104020000D03*
X68130009Y-104020000D03*
%TD*%
D12*
%TO.C,R5-1*%
X70880009Y-96223000D03*
X69860009Y-96223000D03*
%TD*%
D14*
%TO.C,D4-1*%
X71392902Y-107749892D03*
X71392902Y-108719892D03*
%TD*%
D13*
%TO.C,R3-0*%
X21290009Y-98625000D03*
X22310009Y-98625000D03*
%TD*%
D15*
%TO.C,C3-1*%
X70100009Y-102704000D03*
X70100009Y-103664000D03*
%TD*%
D16*
%TO.C,U2-1*%
X61700009Y-99100000D03*
X63300009Y-99100000D03*
X61700009Y-97500000D03*
X63300009Y-97500000D03*
D17*
X65100009Y-101737500D03*
X64700009Y-101737500D03*
X64300009Y-101737500D03*
X63900009Y-101737500D03*
X63500009Y-101737500D03*
X63100009Y-101737500D03*
X62700009Y-101737500D03*
X62300009Y-101737500D03*
X61900009Y-101737500D03*
X61500009Y-101737500D03*
X61100009Y-101737500D03*
X60700009Y-101737500D03*
X60300009Y-101737500D03*
X59900009Y-101737500D03*
D18*
X59062509Y-100900000D03*
X59062509Y-100500000D03*
X59062509Y-100100000D03*
X59062509Y-99700000D03*
X59062509Y-99300000D03*
X59062509Y-98900000D03*
X59062509Y-98500000D03*
X59062509Y-98100000D03*
X59062509Y-97700000D03*
X59062509Y-97300000D03*
X59062509Y-96900000D03*
X59062509Y-96500000D03*
X59062509Y-96100000D03*
X59062509Y-95700000D03*
D17*
X59900009Y-94862500D03*
X60300009Y-94862500D03*
X60700009Y-94862500D03*
X61100009Y-94862500D03*
X61500009Y-94862500D03*
X61900009Y-94862500D03*
X62300009Y-94862500D03*
X62700009Y-94862500D03*
X63100009Y-94862500D03*
X63500009Y-94862500D03*
X63900009Y-94862500D03*
X64300009Y-94862500D03*
X64700009Y-94862500D03*
X65100009Y-94862500D03*
D18*
X65937509Y-95700000D03*
X65937509Y-96100000D03*
X65937509Y-96500000D03*
X65937509Y-96900000D03*
X65937509Y-97300000D03*
X65937509Y-97700000D03*
X65937509Y-98100000D03*
X65937509Y-98500000D03*
X65937509Y-98900000D03*
X65937509Y-99300000D03*
X65937509Y-99700000D03*
X65937509Y-100100000D03*
X65937509Y-100500000D03*
X65937509Y-100900000D03*
%TD*%
D19*
%TO.C,C14-0*%
X22260009Y-97600000D03*
X21300009Y-97600000D03*
%TD*%
D20*
%TO.C,U1-0*%
X34407509Y-100643000D03*
D21*
X33120009Y-101393000D03*
X33120009Y-100893000D03*
X33120009Y-100393000D03*
X33120009Y-99893000D03*
X35695009Y-99893000D03*
X35695009Y-100393000D03*
X35695009Y-100893000D03*
X35695009Y-101393000D03*
%TD*%
D11*
%TO.C,R4-0*%
X22900009Y-93680000D03*
X22900009Y-94700000D03*
%TD*%
D22*
%TO.C,C16-0*%
X15172902Y-107459892D03*
X16722902Y-107459892D03*
%TD*%
D23*
%TO.C,D2-1*%
X60985009Y-105500000D03*
X60015009Y-105500000D03*
%TD*%
D24*
%TO.C,U4-0*%
X9865009Y-101845000D03*
D25*
X10300009Y-100910000D03*
X10800009Y-100910000D03*
X11300009Y-100910000D03*
X11800009Y-100910000D03*
X12300009Y-100910000D03*
D24*
X12735009Y-101845000D03*
X12735009Y-102345000D03*
D25*
X12300009Y-103280000D03*
X11800009Y-103280000D03*
X11300009Y-103280000D03*
X10800009Y-103280000D03*
X10300009Y-103280000D03*
D24*
X9865009Y-102345000D03*
%TD*%
D15*
%TO.C,C10-0*%
X32100009Y-102100000D03*
X32100009Y-103060000D03*
%TD*%
D12*
%TO.C,R7-1*%
X52742902Y-111049892D03*
X51722902Y-111049892D03*
%TD*%
D22*
%TO.C,C16-1*%
X50172902Y-107459892D03*
X51722902Y-107459892D03*
%TD*%
D11*
%TO.C,R11-0*%
X14100008Y-96399999D03*
X14100008Y-97419999D03*
%TD*%
D26*
%TO.C,R10-0*%
X15350009Y-94413000D03*
X15350009Y-93393000D03*
%TD*%
D16*
%TO.C,U2-0*%
X26700009Y-99100000D03*
X28300009Y-99100000D03*
X26700009Y-97500000D03*
X28300009Y-97500000D03*
D17*
X30100009Y-101737500D03*
X29700009Y-101737500D03*
X29300009Y-101737500D03*
X28900009Y-101737500D03*
X28500009Y-101737500D03*
X28100009Y-101737500D03*
X27700009Y-101737500D03*
X27300009Y-101737500D03*
X26900009Y-101737500D03*
X26500009Y-101737500D03*
X26100009Y-101737500D03*
X25700009Y-101737500D03*
X25300009Y-101737500D03*
X24900009Y-101737500D03*
D18*
X24062509Y-100900000D03*
X24062509Y-100500000D03*
X24062509Y-100100000D03*
X24062509Y-99700000D03*
X24062509Y-99300000D03*
X24062509Y-98900000D03*
X24062509Y-98500000D03*
X24062509Y-98100000D03*
X24062509Y-97700000D03*
X24062509Y-97300000D03*
X24062509Y-96900000D03*
X24062509Y-96500000D03*
X24062509Y-96100000D03*
X24062509Y-95700000D03*
D17*
X24900009Y-94862500D03*
X25300009Y-94862500D03*
X25700009Y-94862500D03*
X26100009Y-94862500D03*
X26500009Y-94862500D03*
X26900009Y-94862500D03*
X27300009Y-94862500D03*
X27700009Y-94862500D03*
X28100009Y-94862500D03*
X28500009Y-94862500D03*
X28900009Y-94862500D03*
X29300009Y-94862500D03*
X29700009Y-94862500D03*
X30100009Y-94862500D03*
D18*
X30937509Y-95700000D03*
X30937509Y-96100000D03*
X30937509Y-96500000D03*
X30937509Y-96900000D03*
X30937509Y-97300000D03*
X30937509Y-97700000D03*
X30937509Y-98100000D03*
X30937509Y-98500000D03*
X30937509Y-98900000D03*
X30937509Y-99300000D03*
X30937509Y-99700000D03*
X30937509Y-100100000D03*
X30937509Y-100500000D03*
X30937509Y-100900000D03*
%TD*%
D27*
%TO.C,SW1-1*%
X69742902Y-107879892D03*
X69742902Y-109149892D03*
X63592902Y-109149892D03*
X63592902Y-107879892D03*
%TD*%
D28*
%TO.C,F2-1*%
X51932902Y-109389892D03*
X49007902Y-109389892D03*
%TD*%
D19*
%TO.C,C1-0*%
X22060009Y-99800000D03*
X21100009Y-99800000D03*
%TD*%
D29*
%TO.C,J2-0*%
X18750009Y-111000000D03*
X26250009Y-111000000D03*
%TD*%
D22*
%TO.C,C15-1*%
X60225009Y-106700000D03*
X61775009Y-106700000D03*
%TD*%
D30*
%TO.C,C5-0*%
X32900009Y-98315000D03*
X33860009Y-98315000D03*
%TD*%
D24*
%TO.C,U3-0*%
X10065009Y-95650000D03*
D25*
X10500009Y-94715000D03*
X11000009Y-94715000D03*
X11500009Y-94715000D03*
X12000009Y-94715000D03*
X12500009Y-94715000D03*
D24*
X12935009Y-95650000D03*
X12935009Y-96150000D03*
D25*
X12500009Y-97085000D03*
X12000009Y-97085000D03*
X11500009Y-97085000D03*
X11000009Y-97085000D03*
X10500009Y-97085000D03*
D24*
X10065009Y-96150000D03*
%TD*%
D31*
%TO.C,C18-1*%
X43370008Y-102795000D03*
X43370008Y-104345000D03*
%TD*%
D12*
%TO.C,R6-1*%
X70340009Y-95173000D03*
X69320009Y-95173000D03*
%TD*%
D27*
%TO.C,SW1-0*%
X34742902Y-107879892D03*
X34742902Y-109149892D03*
X28592902Y-109149892D03*
X28592902Y-107879892D03*
%TD*%
D12*
%TO.C,R9-1*%
X45900009Y-93500000D03*
X44880009Y-93500000D03*
%TD*%
D30*
%TO.C,C6-0*%
X32400009Y-95900000D03*
X33360009Y-95900000D03*
%TD*%
D12*
%TO.C,R2-0*%
X34220009Y-102684000D03*
X33200009Y-102684000D03*
%TD*%
D19*
%TO.C,C14-1*%
X57260009Y-97600000D03*
X56300009Y-97600000D03*
%TD*%
D32*
%TO.C,D3-1*%
X70957008Y-110585786D03*
X71642902Y-109899892D03*
%TD*%
D14*
%TO.C,D5-1*%
X63032902Y-105369892D03*
X63032902Y-106339892D03*
%TD*%
D31*
%TO.C,C17-0*%
X8600009Y-96700000D03*
X8600009Y-98250000D03*
%TD*%
D15*
%TO.C,C3-0*%
X35100009Y-102704000D03*
X35100009Y-103664000D03*
%TD*%
D12*
%TO.C,R6-0*%
X35340009Y-95173000D03*
X34320009Y-95173000D03*
%TD*%
%TO.C,R24-0*%
X10392902Y-91879892D03*
X9372902Y-91879892D03*
%TD*%
D31*
%TO.C,C17-1*%
X43600009Y-96700000D03*
X43600009Y-98250000D03*
%TD*%
D15*
%TO.C,C10-1*%
X67100009Y-102100000D03*
X67100009Y-103060000D03*
%TD*%
D26*
%TO.C,R14-0*%
X13970008Y-101095000D03*
X13970008Y-100075000D03*
%TD*%
D13*
%TO.C,R1-0*%
X32110009Y-104020000D03*
X33130009Y-104020000D03*
%TD*%
D26*
%TO.C,R8-0*%
X10042902Y-105419892D03*
X10042902Y-104399892D03*
%TD*%
D28*
%TO.C,F2-0*%
X16932902Y-109389892D03*
X14007902Y-109389892D03*
%TD*%
D14*
%TO.C,D1-0*%
X12622902Y-108709892D03*
X12622902Y-109679892D03*
%TD*%
D12*
%TO.C,R7-0*%
X17742902Y-111049892D03*
X16722902Y-111049892D03*
%TD*%
D26*
%TO.C,R14-1*%
X48970008Y-101095000D03*
X48970008Y-100075000D03*
%TD*%
D20*
%TO.C,U1-1*%
X69407509Y-100643000D03*
D21*
X68120009Y-101393000D03*
X68120009Y-100893000D03*
X68120009Y-100393000D03*
X68120009Y-99893000D03*
X70695009Y-99893000D03*
X70695009Y-100393000D03*
X70695009Y-100893000D03*
X70695009Y-101393000D03*
%TD*%
D12*
%TO.C,R13-1*%
X45662902Y-99719892D03*
X44642902Y-99719892D03*
%TD*%
D30*
%TO.C,C8-1*%
X67400009Y-94893000D03*
X68360009Y-94893000D03*
%TD*%
D12*
%TO.C,R12-0*%
X11460009Y-98320000D03*
X10440009Y-98320000D03*
%TD*%
%TO.C,R2-1*%
X69220009Y-102684000D03*
X68200009Y-102684000D03*
%TD*%
D30*
%TO.C,C13-1*%
X61520009Y-93550000D03*
X62480009Y-93550000D03*
%TD*%
D24*
%TO.C,U4-1*%
X44865009Y-101845000D03*
D25*
X45300009Y-100910000D03*
X45800009Y-100910000D03*
X46300009Y-100910000D03*
X46800009Y-100910000D03*
X47300009Y-100910000D03*
D24*
X47735009Y-101845000D03*
X47735009Y-102345000D03*
D25*
X47300009Y-103280000D03*
X46800009Y-103280000D03*
X46300009Y-103280000D03*
X45800009Y-103280000D03*
X45300009Y-103280000D03*
D24*
X44865009Y-102345000D03*
%TD*%
D11*
%TO.C,R15-1*%
X48970008Y-102495000D03*
X48970008Y-103515000D03*
%TD*%
D19*
%TO.C,C1-1*%
X57060009Y-99800000D03*
X56100009Y-99800000D03*
%TD*%
D24*
%TO.C,U3-1*%
X45065009Y-95650000D03*
D25*
X45500009Y-94715000D03*
X46000009Y-94715000D03*
X46500009Y-94715000D03*
X47000009Y-94715000D03*
X47500009Y-94715000D03*
D24*
X47935009Y-95650000D03*
X47935009Y-96150000D03*
D25*
X47500009Y-97085000D03*
X47000009Y-97085000D03*
X46500009Y-97085000D03*
X46000009Y-97085000D03*
X45500009Y-97085000D03*
D24*
X45065009Y-96150000D03*
%TD*%
D19*
%TO.C,C4-0*%
X22260009Y-96625000D03*
X21300009Y-96625000D03*
%TD*%
D12*
%TO.C,R24-1*%
X45392902Y-91879892D03*
X44372902Y-91879892D03*
%TD*%
D30*
%TO.C,C6-1*%
X67400009Y-95900000D03*
X68360009Y-95900000D03*
%TD*%
D13*
%TO.C,R3-1*%
X56290009Y-98625000D03*
X57310009Y-98625000D03*
%TD*%
D28*
%TO.C,F1-0*%
X23662509Y-106360000D03*
X20737509Y-106360000D03*
%TD*%
D19*
%TO.C,C7-0*%
X32000009Y-93643000D03*
X31040009Y-93643000D03*
%TD*%
D14*
%TO.C,D5-0*%
X28032902Y-105369892D03*
X28032902Y-106339892D03*
%TD*%
D19*
%TO.C,C4-1*%
X57260009Y-96625000D03*
X56300009Y-96625000D03*
%TD*%
D23*
%TO.C,D2-0*%
X25985009Y-105500000D03*
X25015009Y-105500000D03*
%TD*%
D30*
%TO.C,C9-0*%
X34840009Y-97743000D03*
X35800009Y-97743000D03*
%TD*%
%TO.C,C9-1*%
X69840009Y-97743000D03*
X70800009Y-97743000D03*
%TD*%
D19*
%TO.C,C11-0*%
X30080009Y-93550000D03*
X29120009Y-93550000D03*
%TD*%
D11*
%TO.C,R16-1*%
X47692902Y-104479892D03*
X47692902Y-105499892D03*
%TD*%
%TO.C,R16-0*%
X12692902Y-104479892D03*
X12692902Y-105499892D03*
%TD*%
D33*
%TO.C,Y1-1*%
X54714009Y-97835000D03*
X54714009Y-100035000D03*
X53014009Y-100035000D03*
X53014009Y-97835000D03*
%TD*%
D12*
%TO.C,R9-0*%
X10900009Y-93500000D03*
X9880009Y-93500000D03*
%TD*%
D31*
%TO.C,C18-0*%
X8370008Y-102795000D03*
X8370008Y-104345000D03*
%TD*%
D32*
%TO.C,D3-0*%
X35957008Y-110585786D03*
X36642902Y-109899892D03*
%TD*%
D33*
%TO.C,Y1-0*%
X19714009Y-97835000D03*
X19714009Y-100035000D03*
X18014009Y-100035000D03*
X18014009Y-97835000D03*
%TD*%
D30*
%TO.C,C2-1*%
X53940009Y-96350000D03*
X54900009Y-96350000D03*
%TD*%
%TO.C,C2-0*%
X18940009Y-96350000D03*
X19900009Y-96350000D03*
%TD*%
D12*
%TO.C,R5-0*%
X35880009Y-96223000D03*
X34860009Y-96223000D03*
%TD*%
D19*
%TO.C,C7-1*%
X67000009Y-93643000D03*
X66040009Y-93643000D03*
%TD*%
D30*
%TO.C,C12-1*%
X61172902Y-103199892D03*
X62132902Y-103199892D03*
%TD*%
D12*
%TO.C,R12-1*%
X46460009Y-98320000D03*
X45440009Y-98320000D03*
%TD*%
D14*
%TO.C,D4-0*%
X36392902Y-107749892D03*
X36392902Y-108719892D03*
%TD*%
D26*
%TO.C,R10-1*%
X50350009Y-94413000D03*
X50350009Y-93393000D03*
%TD*%
D28*
%TO.C,F1-1*%
X58662509Y-106360000D03*
X55737509Y-106360000D03*
%TD*%
D14*
%TO.C,D1-1*%
X47622902Y-108709892D03*
X47622902Y-109679892D03*
%TD*%
D22*
%TO.C,C15-0*%
X25225009Y-106700000D03*
X26775009Y-106700000D03*
%TD*%
D19*
%TO.C,C11-1*%
X65080009Y-93550000D03*
X64120009Y-93550000D03*
%TD*%
D30*
%TO.C,C5-1*%
X67900009Y-98315000D03*
X68860009Y-98315000D03*
%TD*%
%TO.C,C12-0*%
X26172902Y-103199892D03*
X27132902Y-103199892D03*
%TD*%
%TO.C,C13-0*%
X26520009Y-93550000D03*
X27480009Y-93550000D03*
%TD*%
%TO.C,C8-0*%
X32400009Y-94893000D03*
X33360009Y-94893000D03*
%TD*%
D29*
%TO.C,J2-1*%
X53750009Y-111000000D03*
X61250009Y-111000000D03*
%TD*%
D26*
%TO.C,R8-1*%
X45042902Y-105419892D03*
X45042902Y-104399892D03*
%TD*%
D11*
%TO.C,R4-1*%
X57900009Y-93680000D03*
X57900009Y-94700000D03*
%TD*%
D34*
%TO.C,KiKit_TO_4*%
X77000006Y-122399995D03*
%TD*%
%TO.C,KiKit_TO_1*%
X3000000Y-3000000D03*
%TD*%
%TO.C,KiKit_TO_3*%
X3000000Y-122399995D03*
%TD*%
%TO.C,KiKit_TO_2*%
X77000006Y-3000000D03*
%TD*%
M02*
