G04 #@! TF.GenerationSoftware,KiCad,Pcbnew,7.0.8*
G04 #@! TF.CreationDate,2023-10-22T01:26:06-04:00*
G04 #@! TF.ProjectId,MicrocontrollerInputModule,4d696372-6f63-46f6-9e74-726f6c6c6572,V2.6*
G04 #@! TF.SameCoordinates,Original*
G04 #@! TF.FileFunction,Soldermask,Bot*
G04 #@! TF.FilePolarity,Negative*
%FSLAX46Y46*%
G04 Gerber Fmt 4.6, Leading zero omitted, Abs format (unit mm)*
G04 Created by KiCad (PCBNEW 7.0.8) date 2023-10-22 01:26:06*
%MOMM*%
%LPD*%
G01*
G04 APERTURE LIST*
G04 Aperture macros list*
%AMRoundRect*
0 Rectangle with rounded corners*
0 $1 Rounding radius*
0 $2 $3 $4 $5 $6 $7 $8 $9 X,Y pos of 4 corners*
0 Add a 4 corners polygon primitive as box body*
4,1,4,$2,$3,$4,$5,$6,$7,$8,$9,$2,$3,0*
0 Add four circle primitives for the rounded corners*
1,1,$1+$1,$2,$3*
1,1,$1+$1,$4,$5*
1,1,$1+$1,$6,$7*
1,1,$1+$1,$8,$9*
0 Add four rect primitives between the rounded corners*
20,1,$1+$1,$2,$3,$4,$5,0*
20,1,$1+$1,$4,$5,$6,$7,0*
20,1,$1+$1,$6,$7,$8,$9,0*
20,1,$1+$1,$8,$9,$2,$3,0*%
G04 Aperture macros list end*
%ADD10R,1.250000X0.760000*%
%ADD11RoundRect,0.140000X-0.140000X-0.170000X0.140000X-0.170000X0.140000X0.170000X-0.140000X0.170000X0*%
%ADD12RoundRect,0.140000X0.140000X0.170000X-0.140000X0.170000X-0.140000X-0.170000X0.140000X-0.170000X0*%
%ADD13RoundRect,0.135000X0.185000X-0.135000X0.185000X0.135000X-0.185000X0.135000X-0.185000X-0.135000X0*%
%ADD14RoundRect,0.225000X-0.250000X0.225000X-0.250000X-0.225000X0.250000X-0.225000X0.250000X0.225000X0*%
%ADD15RoundRect,0.050000X0.050000X-0.387500X0.050000X0.387500X-0.050000X0.387500X-0.050000X-0.387500X0*%
%ADD16RoundRect,0.050000X0.387500X-0.050000X0.387500X0.050000X-0.387500X0.050000X-0.387500X-0.050000X0*%
%ADD17R,3.200000X3.200000*%
%ADD18RoundRect,0.135000X0.135000X0.185000X-0.135000X0.185000X-0.135000X-0.185000X0.135000X-0.185000X0*%
%ADD19RoundRect,0.250000X0.312500X0.625000X-0.312500X0.625000X-0.312500X-0.625000X0.312500X-0.625000X0*%
%ADD20RoundRect,0.147500X-0.172500X0.147500X-0.172500X-0.147500X0.172500X-0.147500X0.172500X0.147500X0*%
%ADD21RoundRect,0.135000X-0.135000X-0.185000X0.135000X-0.185000X0.135000X0.185000X-0.135000X0.185000X0*%
%ADD22RoundRect,0.135000X-0.185000X0.135000X-0.185000X-0.135000X0.185000X-0.135000X0.185000X0.135000X0*%
%ADD23RoundRect,0.225000X-0.225000X-0.250000X0.225000X-0.250000X0.225000X0.250000X-0.225000X0.250000X0*%
%ADD24RoundRect,0.075000X-0.187500X-0.075000X0.187500X-0.075000X0.187500X0.075000X-0.187500X0.075000X0*%
%ADD25R,0.300000X1.700000*%
%ADD26R,1.200000X1.400000*%
%ADD27RoundRect,0.109800X0.422200X0.122200X-0.422200X0.122200X-0.422200X-0.122200X0.422200X-0.122200X0*%
%ADD28RoundRect,0.109800X-0.122200X0.422200X-0.122200X-0.422200X0.122200X-0.422200X0.122200X0.422200X0*%
%ADD29RoundRect,0.050000X0.150000X0.400000X-0.150000X0.400000X-0.150000X-0.400000X0.150000X-0.400000X0*%
%ADD30RoundRect,0.050000X0.200000X0.400000X-0.200000X0.400000X-0.200000X-0.400000X0.200000X-0.400000X0*%
%ADD31RoundRect,0.140000X-0.170000X0.140000X-0.170000X-0.140000X0.170000X-0.140000X0.170000X0.140000X0*%
%ADD32RoundRect,0.147500X0.147500X0.172500X-0.147500X0.172500X-0.147500X-0.172500X0.147500X-0.172500X0*%
%ADD33RoundRect,0.147500X0.017678X-0.226274X0.226274X-0.017678X-0.017678X0.226274X-0.226274X0.017678X0*%
G04 APERTURE END LIST*
D10*
X58350000Y-118930000D03*
X58350000Y-120200000D03*
X52200000Y-120200000D03*
X52200000Y-118930000D03*
D11*
X56507107Y-109365108D03*
X57467107Y-109365108D03*
D12*
X55607107Y-104693108D03*
X54647107Y-104693108D03*
D13*
X33650000Y-116470000D03*
X33650000Y-115450000D03*
D14*
X31977106Y-113845108D03*
X31977106Y-115395108D03*
D15*
X53707107Y-112787608D03*
X53307107Y-112787608D03*
X52907107Y-112787608D03*
X52507107Y-112787608D03*
X52107107Y-112787608D03*
X51707107Y-112787608D03*
X51307107Y-112787608D03*
X50907107Y-112787608D03*
X50507107Y-112787608D03*
X50107107Y-112787608D03*
X49707107Y-112787608D03*
X49307107Y-112787608D03*
X48907107Y-112787608D03*
X48507107Y-112787608D03*
D16*
X47669607Y-111950108D03*
X47669607Y-111550108D03*
X47669607Y-111150108D03*
X47669607Y-110750108D03*
X47669607Y-110350108D03*
X47669607Y-109950108D03*
X47669607Y-109550108D03*
X47669607Y-109150108D03*
X47669607Y-108750108D03*
X47669607Y-108350108D03*
X47669607Y-107950108D03*
X47669607Y-107550108D03*
X47669607Y-107150108D03*
X47669607Y-106750108D03*
D15*
X48507107Y-105912608D03*
X48907107Y-105912608D03*
X49307107Y-105912608D03*
X49707107Y-105912608D03*
X50107107Y-105912608D03*
X50507107Y-105912608D03*
X50907107Y-105912608D03*
X51307107Y-105912608D03*
X51707107Y-105912608D03*
X52107107Y-105912608D03*
X52507107Y-105912608D03*
X52907107Y-105912608D03*
X53307107Y-105912608D03*
X53707107Y-105912608D03*
D16*
X54544607Y-106750108D03*
X54544607Y-107150108D03*
X54544607Y-107550108D03*
X54544607Y-107950108D03*
X54544607Y-108350108D03*
X54544607Y-108750108D03*
X54544607Y-109150108D03*
X54544607Y-109550108D03*
X54544607Y-109950108D03*
X54544607Y-110350108D03*
X54544607Y-110750108D03*
X54544607Y-111150108D03*
X54544607Y-111550108D03*
X54544607Y-111950108D03*
D17*
X51107107Y-109350108D03*
D18*
X35067107Y-109370108D03*
X34047107Y-109370108D03*
X41350000Y-122100000D03*
X40330000Y-122100000D03*
D19*
X47269607Y-117410108D03*
X44344607Y-117410108D03*
D20*
X51640000Y-116420000D03*
X51640000Y-117390000D03*
D21*
X55717107Y-115070108D03*
X56737107Y-115070108D03*
D22*
X37707106Y-107450107D03*
X37707106Y-108470107D03*
D23*
X38780000Y-118510000D03*
X40330000Y-118510000D03*
X48832107Y-117750108D03*
X50382107Y-117750108D03*
D11*
X58447107Y-108793108D03*
X59407107Y-108793108D03*
D12*
X45667107Y-110850108D03*
X44707107Y-110850108D03*
D20*
X36230000Y-119760000D03*
X36230000Y-120730000D03*
D24*
X56727107Y-112443108D03*
X56727107Y-111943108D03*
X56727107Y-111443108D03*
X56727107Y-110943108D03*
X59302107Y-110943108D03*
X59302107Y-111443108D03*
X59302107Y-111943108D03*
X59302107Y-112443108D03*
D25*
X58014607Y-111693108D03*
D18*
X57827107Y-113734108D03*
X56807107Y-113734108D03*
D11*
X56007107Y-106950108D03*
X56967107Y-106950108D03*
D18*
X34507107Y-104550108D03*
X33487107Y-104550108D03*
D13*
X38957107Y-105463108D03*
X38957107Y-104443108D03*
D12*
X53687107Y-104600108D03*
X52727107Y-104600108D03*
D26*
X43321107Y-108885108D03*
X43321107Y-111085108D03*
X41621107Y-111085108D03*
X41621107Y-108885108D03*
D19*
X40540000Y-120440000D03*
X37615000Y-120440000D03*
D27*
X33472107Y-112895108D03*
D28*
X33907107Y-111960108D03*
X34407107Y-111960108D03*
X34907107Y-111960108D03*
X35407107Y-111960108D03*
X35907107Y-111960108D03*
D27*
X36342107Y-112895108D03*
X36342107Y-113395108D03*
D28*
X35907107Y-114330108D03*
X35407107Y-114330108D03*
X34907107Y-114330108D03*
X34407107Y-114330108D03*
X33907107Y-114330108D03*
D27*
X33472107Y-113395108D03*
D22*
X37577106Y-113545108D03*
X37577106Y-114565108D03*
X36300000Y-115530000D03*
X36300000Y-116550000D03*
D18*
X59487107Y-107273108D03*
X58467107Y-107273108D03*
D13*
X37577106Y-112145108D03*
X37577106Y-111125108D03*
D14*
X32207107Y-107750108D03*
X32207107Y-109300108D03*
D29*
X43357107Y-119550108D03*
X43857107Y-119550108D03*
X44357107Y-119550108D03*
X44857107Y-119550108D03*
X45357107Y-119550108D03*
X45857107Y-119550108D03*
X46357107Y-119550108D03*
X46857107Y-119550108D03*
X47357107Y-119550108D03*
X47857107Y-119550108D03*
X48357107Y-119550108D03*
X48857107Y-119550108D03*
D30*
X42357107Y-122050108D03*
X49857107Y-122050108D03*
D11*
X42547107Y-107400108D03*
X43507107Y-107400108D03*
D31*
X55707107Y-113150108D03*
X55707107Y-114110108D03*
X58707107Y-113754108D03*
X58707107Y-114714108D03*
D11*
X50127107Y-104600108D03*
X51087107Y-104600108D03*
D18*
X58947107Y-106223108D03*
X57927107Y-106223108D03*
D11*
X49780000Y-114250000D03*
X50740000Y-114250000D03*
D20*
X60000000Y-118800000D03*
X60000000Y-119770000D03*
D18*
X34270000Y-110770000D03*
X33250000Y-110770000D03*
D11*
X56007107Y-105943108D03*
X56967107Y-105943108D03*
D32*
X49592107Y-116550108D03*
X48622107Y-116550108D03*
D12*
X45867107Y-107675108D03*
X44907107Y-107675108D03*
D27*
X33672107Y-106700108D03*
D28*
X34107107Y-105765108D03*
X34607107Y-105765108D03*
X35107107Y-105765108D03*
X35607107Y-105765108D03*
X36107107Y-105765108D03*
D27*
X36542107Y-106700108D03*
X36542107Y-107200108D03*
D28*
X36107107Y-108135108D03*
X35607107Y-108135108D03*
X35107107Y-108135108D03*
X34607107Y-108135108D03*
X34107107Y-108135108D03*
D27*
X33672107Y-107200108D03*
D33*
X59564106Y-121635894D03*
X60250000Y-120950000D03*
D21*
X44897107Y-109675108D03*
X45917107Y-109675108D03*
D12*
X45867107Y-108650108D03*
X44907107Y-108650108D03*
D22*
X46507107Y-104730108D03*
X46507107Y-105750108D03*
D18*
X34000000Y-102930000D03*
X32980000Y-102930000D03*
M02*
