G04 #@! TF.GenerationSoftware,KiCad,Pcbnew,7.0.8*
G04 #@! TF.CreationDate,2023-10-14T22:57:58-04:00*
G04 #@! TF.ProjectId,MicrocontrollerInputModule,4d696372-6f63-46f6-9e74-726f6c6c6572,V2*
G04 #@! TF.SameCoordinates,Original*
G04 #@! TF.FileFunction,Legend,Top*
G04 #@! TF.FilePolarity,Positive*
%FSLAX46Y46*%
G04 Gerber Fmt 4.6, Leading zero omitted, Abs format (unit mm)*
G04 Created by KiCad (PCBNEW 7.0.8) date 2023-10-14 22:57:58*
%MOMM*%
%LPD*%
G01*
G04 APERTURE LIST*
G04 Aperture macros list*
%AMRoundRect*
0 Rectangle with rounded corners*
0 $1 Rounding radius*
0 $2 $3 $4 $5 $6 $7 $8 $9 X,Y pos of 4 corners*
0 Add a 4 corners polygon primitive as box body*
4,1,4,$2,$3,$4,$5,$6,$7,$8,$9,$2,$3,0*
0 Add four circle primitives for the rounded corners*
1,1,$1+$1,$2,$3*
1,1,$1+$1,$4,$5*
1,1,$1+$1,$6,$7*
1,1,$1+$1,$8,$9*
0 Add four rect primitives between the rounded corners*
20,1,$1+$1,$2,$3,$4,$5,0*
20,1,$1+$1,$4,$5,$6,$7,0*
20,1,$1+$1,$6,$7,$8,$9,0*
20,1,$1+$1,$8,$9,$2,$3,0*%
G04 Aperture macros list end*
%ADD10C,0.150000*%
%ADD11C,0.120000*%
%ADD12R,0.500000X0.500000*%
%ADD13RoundRect,0.225000X-0.250000X0.225000X-0.250000X-0.225000X0.250000X-0.225000X0.250000X0.225000X0*%
%ADD14RoundRect,0.135000X-0.135000X-0.185000X0.135000X-0.185000X0.135000X0.185000X-0.135000X0.185000X0*%
G04 APERTURE END LIST*
D10*
X45864249Y-43252688D02*
X45816630Y-43300308D01*
X45816630Y-43300308D02*
X45673773Y-43347927D01*
X45673773Y-43347927D02*
X45578535Y-43347927D01*
X45578535Y-43347927D02*
X45435678Y-43300308D01*
X45435678Y-43300308D02*
X45340440Y-43205069D01*
X45340440Y-43205069D02*
X45292821Y-43109831D01*
X45292821Y-43109831D02*
X45245202Y-42919355D01*
X45245202Y-42919355D02*
X45245202Y-42776498D01*
X45245202Y-42776498D02*
X45292821Y-42586022D01*
X45292821Y-42586022D02*
X45340440Y-42490784D01*
X45340440Y-42490784D02*
X45435678Y-42395546D01*
X45435678Y-42395546D02*
X45578535Y-42347927D01*
X45578535Y-42347927D02*
X45673773Y-42347927D01*
X45673773Y-42347927D02*
X45816630Y-42395546D01*
X45816630Y-42395546D02*
X45864249Y-42443165D01*
X46245202Y-42443165D02*
X46292821Y-42395546D01*
X46292821Y-42395546D02*
X46388059Y-42347927D01*
X46388059Y-42347927D02*
X46626154Y-42347927D01*
X46626154Y-42347927D02*
X46721392Y-42395546D01*
X46721392Y-42395546D02*
X46769011Y-42443165D01*
X46769011Y-42443165D02*
X46816630Y-42538403D01*
X46816630Y-42538403D02*
X46816630Y-42633641D01*
X46816630Y-42633641D02*
X46769011Y-42776498D01*
X46769011Y-42776498D02*
X46197583Y-43347927D01*
X46197583Y-43347927D02*
X46816630Y-43347927D01*
X47673773Y-42681260D02*
X47673773Y-43347927D01*
X47435678Y-42300308D02*
X47197583Y-43014593D01*
X47197583Y-43014593D02*
X47816630Y-43014593D01*
X45864249Y-22652688D02*
X45816630Y-22700308D01*
X45816630Y-22700308D02*
X45673773Y-22747927D01*
X45673773Y-22747927D02*
X45578535Y-22747927D01*
X45578535Y-22747927D02*
X45435678Y-22700308D01*
X45435678Y-22700308D02*
X45340440Y-22605069D01*
X45340440Y-22605069D02*
X45292821Y-22509831D01*
X45292821Y-22509831D02*
X45245202Y-22319355D01*
X45245202Y-22319355D02*
X45245202Y-22176498D01*
X45245202Y-22176498D02*
X45292821Y-21986022D01*
X45292821Y-21986022D02*
X45340440Y-21890784D01*
X45340440Y-21890784D02*
X45435678Y-21795546D01*
X45435678Y-21795546D02*
X45578535Y-21747927D01*
X45578535Y-21747927D02*
X45673773Y-21747927D01*
X45673773Y-21747927D02*
X45816630Y-21795546D01*
X45816630Y-21795546D02*
X45864249Y-21843165D01*
X46245202Y-21843165D02*
X46292821Y-21795546D01*
X46292821Y-21795546D02*
X46388059Y-21747927D01*
X46388059Y-21747927D02*
X46626154Y-21747927D01*
X46626154Y-21747927D02*
X46721392Y-21795546D01*
X46721392Y-21795546D02*
X46769011Y-21843165D01*
X46769011Y-21843165D02*
X46816630Y-21938403D01*
X46816630Y-21938403D02*
X46816630Y-22033641D01*
X46816630Y-22033641D02*
X46769011Y-22176498D01*
X46769011Y-22176498D02*
X46197583Y-22747927D01*
X46197583Y-22747927D02*
X46816630Y-22747927D01*
X47769011Y-22747927D02*
X47197583Y-22747927D01*
X47483297Y-22747927D02*
X47483297Y-21747927D01*
X47483297Y-21747927D02*
X47388059Y-21890784D01*
X47388059Y-21890784D02*
X47292821Y-21986022D01*
X47292821Y-21986022D02*
X47197583Y-22033641D01*
X56964249Y-43247927D02*
X56630916Y-42771736D01*
X56392821Y-43247927D02*
X56392821Y-42247927D01*
X56392821Y-42247927D02*
X56773773Y-42247927D01*
X56773773Y-42247927D02*
X56869011Y-42295546D01*
X56869011Y-42295546D02*
X56916630Y-42343165D01*
X56916630Y-42343165D02*
X56964249Y-42438403D01*
X56964249Y-42438403D02*
X56964249Y-42581260D01*
X56964249Y-42581260D02*
X56916630Y-42676498D01*
X56916630Y-42676498D02*
X56869011Y-42724117D01*
X56869011Y-42724117D02*
X56773773Y-42771736D01*
X56773773Y-42771736D02*
X56392821Y-42771736D01*
X57916630Y-43247927D02*
X57345202Y-43247927D01*
X57630916Y-43247927D02*
X57630916Y-42247927D01*
X57630916Y-42247927D02*
X57535678Y-42390784D01*
X57535678Y-42390784D02*
X57440440Y-42486022D01*
X57440440Y-42486022D02*
X57345202Y-42533641D01*
X58488059Y-42676498D02*
X58392821Y-42628879D01*
X58392821Y-42628879D02*
X58345202Y-42581260D01*
X58345202Y-42581260D02*
X58297583Y-42486022D01*
X58297583Y-42486022D02*
X58297583Y-42438403D01*
X58297583Y-42438403D02*
X58345202Y-42343165D01*
X58345202Y-42343165D02*
X58392821Y-42295546D01*
X58392821Y-42295546D02*
X58488059Y-42247927D01*
X58488059Y-42247927D02*
X58678535Y-42247927D01*
X58678535Y-42247927D02*
X58773773Y-42295546D01*
X58773773Y-42295546D02*
X58821392Y-42343165D01*
X58821392Y-42343165D02*
X58869011Y-42438403D01*
X58869011Y-42438403D02*
X58869011Y-42486022D01*
X58869011Y-42486022D02*
X58821392Y-42581260D01*
X58821392Y-42581260D02*
X58773773Y-42628879D01*
X58773773Y-42628879D02*
X58678535Y-42676498D01*
X58678535Y-42676498D02*
X58488059Y-42676498D01*
X58488059Y-42676498D02*
X58392821Y-42724117D01*
X58392821Y-42724117D02*
X58345202Y-42771736D01*
X58345202Y-42771736D02*
X58297583Y-42866974D01*
X58297583Y-42866974D02*
X58297583Y-43057450D01*
X58297583Y-43057450D02*
X58345202Y-43152688D01*
X58345202Y-43152688D02*
X58392821Y-43200308D01*
X58392821Y-43200308D02*
X58488059Y-43247927D01*
X58488059Y-43247927D02*
X58678535Y-43247927D01*
X58678535Y-43247927D02*
X58773773Y-43200308D01*
X58773773Y-43200308D02*
X58821392Y-43152688D01*
X58821392Y-43152688D02*
X58869011Y-43057450D01*
X58869011Y-43057450D02*
X58869011Y-42866974D01*
X58869011Y-42866974D02*
X58821392Y-42771736D01*
X58821392Y-42771736D02*
X58773773Y-42724117D01*
X58773773Y-42724117D02*
X58678535Y-42676498D01*
X57064249Y-111747927D02*
X56730916Y-111271736D01*
X56492821Y-111747927D02*
X56492821Y-110747927D01*
X56492821Y-110747927D02*
X56873773Y-110747927D01*
X56873773Y-110747927D02*
X56969011Y-110795546D01*
X56969011Y-110795546D02*
X57016630Y-110843165D01*
X57016630Y-110843165D02*
X57064249Y-110938403D01*
X57064249Y-110938403D02*
X57064249Y-111081260D01*
X57064249Y-111081260D02*
X57016630Y-111176498D01*
X57016630Y-111176498D02*
X56969011Y-111224117D01*
X56969011Y-111224117D02*
X56873773Y-111271736D01*
X56873773Y-111271736D02*
X56492821Y-111271736D01*
X57445202Y-110843165D02*
X57492821Y-110795546D01*
X57492821Y-110795546D02*
X57588059Y-110747927D01*
X57588059Y-110747927D02*
X57826154Y-110747927D01*
X57826154Y-110747927D02*
X57921392Y-110795546D01*
X57921392Y-110795546D02*
X57969011Y-110843165D01*
X57969011Y-110843165D02*
X58016630Y-110938403D01*
X58016630Y-110938403D02*
X58016630Y-111033641D01*
X58016630Y-111033641D02*
X57969011Y-111176498D01*
X57969011Y-111176498D02*
X57397583Y-111747927D01*
X57397583Y-111747927D02*
X58016630Y-111747927D01*
X58349964Y-110747927D02*
X58969011Y-110747927D01*
X58969011Y-110747927D02*
X58635678Y-111128879D01*
X58635678Y-111128879D02*
X58778535Y-111128879D01*
X58778535Y-111128879D02*
X58873773Y-111176498D01*
X58873773Y-111176498D02*
X58921392Y-111224117D01*
X58921392Y-111224117D02*
X58969011Y-111319355D01*
X58969011Y-111319355D02*
X58969011Y-111557450D01*
X58969011Y-111557450D02*
X58921392Y-111652688D01*
X58921392Y-111652688D02*
X58873773Y-111700308D01*
X58873773Y-111700308D02*
X58778535Y-111747927D01*
X58778535Y-111747927D02*
X58492821Y-111747927D01*
X58492821Y-111747927D02*
X58397583Y-111700308D01*
X58397583Y-111700308D02*
X58349964Y-111652688D01*
X45864249Y-50052688D02*
X45816630Y-50100308D01*
X45816630Y-50100308D02*
X45673773Y-50147927D01*
X45673773Y-50147927D02*
X45578535Y-50147927D01*
X45578535Y-50147927D02*
X45435678Y-50100308D01*
X45435678Y-50100308D02*
X45340440Y-50005069D01*
X45340440Y-50005069D02*
X45292821Y-49909831D01*
X45292821Y-49909831D02*
X45245202Y-49719355D01*
X45245202Y-49719355D02*
X45245202Y-49576498D01*
X45245202Y-49576498D02*
X45292821Y-49386022D01*
X45292821Y-49386022D02*
X45340440Y-49290784D01*
X45340440Y-49290784D02*
X45435678Y-49195546D01*
X45435678Y-49195546D02*
X45578535Y-49147927D01*
X45578535Y-49147927D02*
X45673773Y-49147927D01*
X45673773Y-49147927D02*
X45816630Y-49195546D01*
X45816630Y-49195546D02*
X45864249Y-49243165D01*
X46245202Y-49243165D02*
X46292821Y-49195546D01*
X46292821Y-49195546D02*
X46388059Y-49147927D01*
X46388059Y-49147927D02*
X46626154Y-49147927D01*
X46626154Y-49147927D02*
X46721392Y-49195546D01*
X46721392Y-49195546D02*
X46769011Y-49243165D01*
X46769011Y-49243165D02*
X46816630Y-49338403D01*
X46816630Y-49338403D02*
X46816630Y-49433641D01*
X46816630Y-49433641D02*
X46769011Y-49576498D01*
X46769011Y-49576498D02*
X46197583Y-50147927D01*
X46197583Y-50147927D02*
X46816630Y-50147927D01*
X47721392Y-49147927D02*
X47245202Y-49147927D01*
X47245202Y-49147927D02*
X47197583Y-49624117D01*
X47197583Y-49624117D02*
X47245202Y-49576498D01*
X47245202Y-49576498D02*
X47340440Y-49528879D01*
X47340440Y-49528879D02*
X47578535Y-49528879D01*
X47578535Y-49528879D02*
X47673773Y-49576498D01*
X47673773Y-49576498D02*
X47721392Y-49624117D01*
X47721392Y-49624117D02*
X47769011Y-49719355D01*
X47769011Y-49719355D02*
X47769011Y-49957450D01*
X47769011Y-49957450D02*
X47721392Y-50052688D01*
X47721392Y-50052688D02*
X47673773Y-50100308D01*
X47673773Y-50100308D02*
X47578535Y-50147927D01*
X47578535Y-50147927D02*
X47340440Y-50147927D01*
X47340440Y-50147927D02*
X47245202Y-50100308D01*
X47245202Y-50100308D02*
X47197583Y-50052688D01*
X57064249Y-70647927D02*
X56730916Y-70171736D01*
X56492821Y-70647927D02*
X56492821Y-69647927D01*
X56492821Y-69647927D02*
X56873773Y-69647927D01*
X56873773Y-69647927D02*
X56969011Y-69695546D01*
X56969011Y-69695546D02*
X57016630Y-69743165D01*
X57016630Y-69743165D02*
X57064249Y-69838403D01*
X57064249Y-69838403D02*
X57064249Y-69981260D01*
X57064249Y-69981260D02*
X57016630Y-70076498D01*
X57016630Y-70076498D02*
X56969011Y-70124117D01*
X56969011Y-70124117D02*
X56873773Y-70171736D01*
X56873773Y-70171736D02*
X56492821Y-70171736D01*
X57445202Y-69743165D02*
X57492821Y-69695546D01*
X57492821Y-69695546D02*
X57588059Y-69647927D01*
X57588059Y-69647927D02*
X57826154Y-69647927D01*
X57826154Y-69647927D02*
X57921392Y-69695546D01*
X57921392Y-69695546D02*
X57969011Y-69743165D01*
X57969011Y-69743165D02*
X58016630Y-69838403D01*
X58016630Y-69838403D02*
X58016630Y-69933641D01*
X58016630Y-69933641D02*
X57969011Y-70076498D01*
X57969011Y-70076498D02*
X57397583Y-70647927D01*
X57397583Y-70647927D02*
X58016630Y-70647927D01*
X58635678Y-69647927D02*
X58730916Y-69647927D01*
X58730916Y-69647927D02*
X58826154Y-69695546D01*
X58826154Y-69695546D02*
X58873773Y-69743165D01*
X58873773Y-69743165D02*
X58921392Y-69838403D01*
X58921392Y-69838403D02*
X58969011Y-70028879D01*
X58969011Y-70028879D02*
X58969011Y-70266974D01*
X58969011Y-70266974D02*
X58921392Y-70457450D01*
X58921392Y-70457450D02*
X58873773Y-70552688D01*
X58873773Y-70552688D02*
X58826154Y-70600308D01*
X58826154Y-70600308D02*
X58730916Y-70647927D01*
X58730916Y-70647927D02*
X58635678Y-70647927D01*
X58635678Y-70647927D02*
X58540440Y-70600308D01*
X58540440Y-70600308D02*
X58492821Y-70552688D01*
X58492821Y-70552688D02*
X58445202Y-70457450D01*
X58445202Y-70457450D02*
X58397583Y-70266974D01*
X58397583Y-70266974D02*
X58397583Y-70028879D01*
X58397583Y-70028879D02*
X58445202Y-69838403D01*
X58445202Y-69838403D02*
X58492821Y-69743165D01*
X58492821Y-69743165D02*
X58540440Y-69695546D01*
X58540440Y-69695546D02*
X58635678Y-69647927D01*
X45864249Y-91152688D02*
X45816630Y-91200308D01*
X45816630Y-91200308D02*
X45673773Y-91247927D01*
X45673773Y-91247927D02*
X45578535Y-91247927D01*
X45578535Y-91247927D02*
X45435678Y-91200308D01*
X45435678Y-91200308D02*
X45340440Y-91105069D01*
X45340440Y-91105069D02*
X45292821Y-91009831D01*
X45292821Y-91009831D02*
X45245202Y-90819355D01*
X45245202Y-90819355D02*
X45245202Y-90676498D01*
X45245202Y-90676498D02*
X45292821Y-90486022D01*
X45292821Y-90486022D02*
X45340440Y-90390784D01*
X45340440Y-90390784D02*
X45435678Y-90295546D01*
X45435678Y-90295546D02*
X45578535Y-90247927D01*
X45578535Y-90247927D02*
X45673773Y-90247927D01*
X45673773Y-90247927D02*
X45816630Y-90295546D01*
X45816630Y-90295546D02*
X45864249Y-90343165D01*
X46197583Y-90247927D02*
X46816630Y-90247927D01*
X46816630Y-90247927D02*
X46483297Y-90628879D01*
X46483297Y-90628879D02*
X46626154Y-90628879D01*
X46626154Y-90628879D02*
X46721392Y-90676498D01*
X46721392Y-90676498D02*
X46769011Y-90724117D01*
X46769011Y-90724117D02*
X46816630Y-90819355D01*
X46816630Y-90819355D02*
X46816630Y-91057450D01*
X46816630Y-91057450D02*
X46769011Y-91152688D01*
X46769011Y-91152688D02*
X46721392Y-91200308D01*
X46721392Y-91200308D02*
X46626154Y-91247927D01*
X46626154Y-91247927D02*
X46340440Y-91247927D01*
X46340440Y-91247927D02*
X46245202Y-91200308D01*
X46245202Y-91200308D02*
X46197583Y-91152688D01*
X47769011Y-91247927D02*
X47197583Y-91247927D01*
X47483297Y-91247927D02*
X47483297Y-90247927D01*
X47483297Y-90247927D02*
X47388059Y-90390784D01*
X47388059Y-90390784D02*
X47292821Y-90486022D01*
X47292821Y-90486022D02*
X47197583Y-90533641D01*
X45864249Y-118552688D02*
X45816630Y-118600308D01*
X45816630Y-118600308D02*
X45673773Y-118647927D01*
X45673773Y-118647927D02*
X45578535Y-118647927D01*
X45578535Y-118647927D02*
X45435678Y-118600308D01*
X45435678Y-118600308D02*
X45340440Y-118505069D01*
X45340440Y-118505069D02*
X45292821Y-118409831D01*
X45292821Y-118409831D02*
X45245202Y-118219355D01*
X45245202Y-118219355D02*
X45245202Y-118076498D01*
X45245202Y-118076498D02*
X45292821Y-117886022D01*
X45292821Y-117886022D02*
X45340440Y-117790784D01*
X45340440Y-117790784D02*
X45435678Y-117695546D01*
X45435678Y-117695546D02*
X45578535Y-117647927D01*
X45578535Y-117647927D02*
X45673773Y-117647927D01*
X45673773Y-117647927D02*
X45816630Y-117695546D01*
X45816630Y-117695546D02*
X45864249Y-117743165D01*
X46197583Y-117647927D02*
X46816630Y-117647927D01*
X46816630Y-117647927D02*
X46483297Y-118028879D01*
X46483297Y-118028879D02*
X46626154Y-118028879D01*
X46626154Y-118028879D02*
X46721392Y-118076498D01*
X46721392Y-118076498D02*
X46769011Y-118124117D01*
X46769011Y-118124117D02*
X46816630Y-118219355D01*
X46816630Y-118219355D02*
X46816630Y-118457450D01*
X46816630Y-118457450D02*
X46769011Y-118552688D01*
X46769011Y-118552688D02*
X46721392Y-118600308D01*
X46721392Y-118600308D02*
X46626154Y-118647927D01*
X46626154Y-118647927D02*
X46340440Y-118647927D01*
X46340440Y-118647927D02*
X46245202Y-118600308D01*
X46245202Y-118600308D02*
X46197583Y-118552688D01*
X47721392Y-117647927D02*
X47245202Y-117647927D01*
X47245202Y-117647927D02*
X47197583Y-118124117D01*
X47197583Y-118124117D02*
X47245202Y-118076498D01*
X47245202Y-118076498D02*
X47340440Y-118028879D01*
X47340440Y-118028879D02*
X47578535Y-118028879D01*
X47578535Y-118028879D02*
X47673773Y-118076498D01*
X47673773Y-118076498D02*
X47721392Y-118124117D01*
X47721392Y-118124117D02*
X47769011Y-118219355D01*
X47769011Y-118219355D02*
X47769011Y-118457450D01*
X47769011Y-118457450D02*
X47721392Y-118552688D01*
X47721392Y-118552688D02*
X47673773Y-118600308D01*
X47673773Y-118600308D02*
X47578535Y-118647927D01*
X47578535Y-118647927D02*
X47340440Y-118647927D01*
X47340440Y-118647927D02*
X47245202Y-118600308D01*
X47245202Y-118600308D02*
X47197583Y-118552688D01*
X56964249Y-98047927D02*
X56630916Y-97571736D01*
X56392821Y-98047927D02*
X56392821Y-97047927D01*
X56392821Y-97047927D02*
X56773773Y-97047927D01*
X56773773Y-97047927D02*
X56869011Y-97095546D01*
X56869011Y-97095546D02*
X56916630Y-97143165D01*
X56916630Y-97143165D02*
X56964249Y-97238403D01*
X56964249Y-97238403D02*
X56964249Y-97381260D01*
X56964249Y-97381260D02*
X56916630Y-97476498D01*
X56916630Y-97476498D02*
X56869011Y-97524117D01*
X56869011Y-97524117D02*
X56773773Y-97571736D01*
X56773773Y-97571736D02*
X56392821Y-97571736D01*
X57345202Y-97143165D02*
X57392821Y-97095546D01*
X57392821Y-97095546D02*
X57488059Y-97047927D01*
X57488059Y-97047927D02*
X57726154Y-97047927D01*
X57726154Y-97047927D02*
X57821392Y-97095546D01*
X57821392Y-97095546D02*
X57869011Y-97143165D01*
X57869011Y-97143165D02*
X57916630Y-97238403D01*
X57916630Y-97238403D02*
X57916630Y-97333641D01*
X57916630Y-97333641D02*
X57869011Y-97476498D01*
X57869011Y-97476498D02*
X57297583Y-98047927D01*
X57297583Y-98047927D02*
X57916630Y-98047927D01*
X58297583Y-97143165D02*
X58345202Y-97095546D01*
X58345202Y-97095546D02*
X58440440Y-97047927D01*
X58440440Y-97047927D02*
X58678535Y-97047927D01*
X58678535Y-97047927D02*
X58773773Y-97095546D01*
X58773773Y-97095546D02*
X58821392Y-97143165D01*
X58821392Y-97143165D02*
X58869011Y-97238403D01*
X58869011Y-97238403D02*
X58869011Y-97333641D01*
X58869011Y-97333641D02*
X58821392Y-97476498D01*
X58821392Y-97476498D02*
X58249964Y-98047927D01*
X58249964Y-98047927D02*
X58869011Y-98047927D01*
X45864249Y-111652688D02*
X45816630Y-111700308D01*
X45816630Y-111700308D02*
X45673773Y-111747927D01*
X45673773Y-111747927D02*
X45578535Y-111747927D01*
X45578535Y-111747927D02*
X45435678Y-111700308D01*
X45435678Y-111700308D02*
X45340440Y-111605069D01*
X45340440Y-111605069D02*
X45292821Y-111509831D01*
X45292821Y-111509831D02*
X45245202Y-111319355D01*
X45245202Y-111319355D02*
X45245202Y-111176498D01*
X45245202Y-111176498D02*
X45292821Y-110986022D01*
X45292821Y-110986022D02*
X45340440Y-110890784D01*
X45340440Y-110890784D02*
X45435678Y-110795546D01*
X45435678Y-110795546D02*
X45578535Y-110747927D01*
X45578535Y-110747927D02*
X45673773Y-110747927D01*
X45673773Y-110747927D02*
X45816630Y-110795546D01*
X45816630Y-110795546D02*
X45864249Y-110843165D01*
X46197583Y-110747927D02*
X46816630Y-110747927D01*
X46816630Y-110747927D02*
X46483297Y-111128879D01*
X46483297Y-111128879D02*
X46626154Y-111128879D01*
X46626154Y-111128879D02*
X46721392Y-111176498D01*
X46721392Y-111176498D02*
X46769011Y-111224117D01*
X46769011Y-111224117D02*
X46816630Y-111319355D01*
X46816630Y-111319355D02*
X46816630Y-111557450D01*
X46816630Y-111557450D02*
X46769011Y-111652688D01*
X46769011Y-111652688D02*
X46721392Y-111700308D01*
X46721392Y-111700308D02*
X46626154Y-111747927D01*
X46626154Y-111747927D02*
X46340440Y-111747927D01*
X46340440Y-111747927D02*
X46245202Y-111700308D01*
X46245202Y-111700308D02*
X46197583Y-111652688D01*
X47673773Y-111081260D02*
X47673773Y-111747927D01*
X47435678Y-110700308D02*
X47197583Y-111414593D01*
X47197583Y-111414593D02*
X47816630Y-111414593D01*
X45864249Y-63752688D02*
X45816630Y-63800308D01*
X45816630Y-63800308D02*
X45673773Y-63847927D01*
X45673773Y-63847927D02*
X45578535Y-63847927D01*
X45578535Y-63847927D02*
X45435678Y-63800308D01*
X45435678Y-63800308D02*
X45340440Y-63705069D01*
X45340440Y-63705069D02*
X45292821Y-63609831D01*
X45292821Y-63609831D02*
X45245202Y-63419355D01*
X45245202Y-63419355D02*
X45245202Y-63276498D01*
X45245202Y-63276498D02*
X45292821Y-63086022D01*
X45292821Y-63086022D02*
X45340440Y-62990784D01*
X45340440Y-62990784D02*
X45435678Y-62895546D01*
X45435678Y-62895546D02*
X45578535Y-62847927D01*
X45578535Y-62847927D02*
X45673773Y-62847927D01*
X45673773Y-62847927D02*
X45816630Y-62895546D01*
X45816630Y-62895546D02*
X45864249Y-62943165D01*
X46245202Y-62943165D02*
X46292821Y-62895546D01*
X46292821Y-62895546D02*
X46388059Y-62847927D01*
X46388059Y-62847927D02*
X46626154Y-62847927D01*
X46626154Y-62847927D02*
X46721392Y-62895546D01*
X46721392Y-62895546D02*
X46769011Y-62943165D01*
X46769011Y-62943165D02*
X46816630Y-63038403D01*
X46816630Y-63038403D02*
X46816630Y-63133641D01*
X46816630Y-63133641D02*
X46769011Y-63276498D01*
X46769011Y-63276498D02*
X46197583Y-63847927D01*
X46197583Y-63847927D02*
X46816630Y-63847927D01*
X47149964Y-62847927D02*
X47816630Y-62847927D01*
X47816630Y-62847927D02*
X47388059Y-63847927D01*
X45864249Y-56852688D02*
X45816630Y-56900308D01*
X45816630Y-56900308D02*
X45673773Y-56947927D01*
X45673773Y-56947927D02*
X45578535Y-56947927D01*
X45578535Y-56947927D02*
X45435678Y-56900308D01*
X45435678Y-56900308D02*
X45340440Y-56805069D01*
X45340440Y-56805069D02*
X45292821Y-56709831D01*
X45292821Y-56709831D02*
X45245202Y-56519355D01*
X45245202Y-56519355D02*
X45245202Y-56376498D01*
X45245202Y-56376498D02*
X45292821Y-56186022D01*
X45292821Y-56186022D02*
X45340440Y-56090784D01*
X45340440Y-56090784D02*
X45435678Y-55995546D01*
X45435678Y-55995546D02*
X45578535Y-55947927D01*
X45578535Y-55947927D02*
X45673773Y-55947927D01*
X45673773Y-55947927D02*
X45816630Y-55995546D01*
X45816630Y-55995546D02*
X45864249Y-56043165D01*
X46245202Y-56043165D02*
X46292821Y-55995546D01*
X46292821Y-55995546D02*
X46388059Y-55947927D01*
X46388059Y-55947927D02*
X46626154Y-55947927D01*
X46626154Y-55947927D02*
X46721392Y-55995546D01*
X46721392Y-55995546D02*
X46769011Y-56043165D01*
X46769011Y-56043165D02*
X46816630Y-56138403D01*
X46816630Y-56138403D02*
X46816630Y-56233641D01*
X46816630Y-56233641D02*
X46769011Y-56376498D01*
X46769011Y-56376498D02*
X46197583Y-56947927D01*
X46197583Y-56947927D02*
X46816630Y-56947927D01*
X47673773Y-55947927D02*
X47483297Y-55947927D01*
X47483297Y-55947927D02*
X47388059Y-55995546D01*
X47388059Y-55995546D02*
X47340440Y-56043165D01*
X47340440Y-56043165D02*
X47245202Y-56186022D01*
X47245202Y-56186022D02*
X47197583Y-56376498D01*
X47197583Y-56376498D02*
X47197583Y-56757450D01*
X47197583Y-56757450D02*
X47245202Y-56852688D01*
X47245202Y-56852688D02*
X47292821Y-56900308D01*
X47292821Y-56900308D02*
X47388059Y-56947927D01*
X47388059Y-56947927D02*
X47578535Y-56947927D01*
X47578535Y-56947927D02*
X47673773Y-56900308D01*
X47673773Y-56900308D02*
X47721392Y-56852688D01*
X47721392Y-56852688D02*
X47769011Y-56757450D01*
X47769011Y-56757450D02*
X47769011Y-56519355D01*
X47769011Y-56519355D02*
X47721392Y-56424117D01*
X47721392Y-56424117D02*
X47673773Y-56376498D01*
X47673773Y-56376498D02*
X47578535Y-56328879D01*
X47578535Y-56328879D02*
X47388059Y-56328879D01*
X47388059Y-56328879D02*
X47292821Y-56376498D01*
X47292821Y-56376498D02*
X47245202Y-56424117D01*
X47245202Y-56424117D02*
X47197583Y-56519355D01*
X45864249Y-97952688D02*
X45816630Y-98000308D01*
X45816630Y-98000308D02*
X45673773Y-98047927D01*
X45673773Y-98047927D02*
X45578535Y-98047927D01*
X45578535Y-98047927D02*
X45435678Y-98000308D01*
X45435678Y-98000308D02*
X45340440Y-97905069D01*
X45340440Y-97905069D02*
X45292821Y-97809831D01*
X45292821Y-97809831D02*
X45245202Y-97619355D01*
X45245202Y-97619355D02*
X45245202Y-97476498D01*
X45245202Y-97476498D02*
X45292821Y-97286022D01*
X45292821Y-97286022D02*
X45340440Y-97190784D01*
X45340440Y-97190784D02*
X45435678Y-97095546D01*
X45435678Y-97095546D02*
X45578535Y-97047927D01*
X45578535Y-97047927D02*
X45673773Y-97047927D01*
X45673773Y-97047927D02*
X45816630Y-97095546D01*
X45816630Y-97095546D02*
X45864249Y-97143165D01*
X46197583Y-97047927D02*
X46816630Y-97047927D01*
X46816630Y-97047927D02*
X46483297Y-97428879D01*
X46483297Y-97428879D02*
X46626154Y-97428879D01*
X46626154Y-97428879D02*
X46721392Y-97476498D01*
X46721392Y-97476498D02*
X46769011Y-97524117D01*
X46769011Y-97524117D02*
X46816630Y-97619355D01*
X46816630Y-97619355D02*
X46816630Y-97857450D01*
X46816630Y-97857450D02*
X46769011Y-97952688D01*
X46769011Y-97952688D02*
X46721392Y-98000308D01*
X46721392Y-98000308D02*
X46626154Y-98047927D01*
X46626154Y-98047927D02*
X46340440Y-98047927D01*
X46340440Y-98047927D02*
X46245202Y-98000308D01*
X46245202Y-98000308D02*
X46197583Y-97952688D01*
X47197583Y-97143165D02*
X47245202Y-97095546D01*
X47245202Y-97095546D02*
X47340440Y-97047927D01*
X47340440Y-97047927D02*
X47578535Y-97047927D01*
X47578535Y-97047927D02*
X47673773Y-97095546D01*
X47673773Y-97095546D02*
X47721392Y-97143165D01*
X47721392Y-97143165D02*
X47769011Y-97238403D01*
X47769011Y-97238403D02*
X47769011Y-97333641D01*
X47769011Y-97333641D02*
X47721392Y-97476498D01*
X47721392Y-97476498D02*
X47149964Y-98047927D01*
X47149964Y-98047927D02*
X47769011Y-98047927D01*
X57164249Y-29547927D02*
X56830916Y-29071736D01*
X56592821Y-29547927D02*
X56592821Y-28547927D01*
X56592821Y-28547927D02*
X56973773Y-28547927D01*
X56973773Y-28547927D02*
X57069011Y-28595546D01*
X57069011Y-28595546D02*
X57116630Y-28643165D01*
X57116630Y-28643165D02*
X57164249Y-28738403D01*
X57164249Y-28738403D02*
X57164249Y-28881260D01*
X57164249Y-28881260D02*
X57116630Y-28976498D01*
X57116630Y-28976498D02*
X57069011Y-29024117D01*
X57069011Y-29024117D02*
X56973773Y-29071736D01*
X56973773Y-29071736D02*
X56592821Y-29071736D01*
X58116630Y-29547927D02*
X57545202Y-29547927D01*
X57830916Y-29547927D02*
X57830916Y-28547927D01*
X57830916Y-28547927D02*
X57735678Y-28690784D01*
X57735678Y-28690784D02*
X57640440Y-28786022D01*
X57640440Y-28786022D02*
X57545202Y-28833641D01*
X58449964Y-28547927D02*
X59116630Y-28547927D01*
X59116630Y-28547927D02*
X58688059Y-29547927D01*
X57064249Y-84347927D02*
X56730916Y-83871736D01*
X56492821Y-84347927D02*
X56492821Y-83347927D01*
X56492821Y-83347927D02*
X56873773Y-83347927D01*
X56873773Y-83347927D02*
X56969011Y-83395546D01*
X56969011Y-83395546D02*
X57016630Y-83443165D01*
X57016630Y-83443165D02*
X57064249Y-83538403D01*
X57064249Y-83538403D02*
X57064249Y-83681260D01*
X57064249Y-83681260D02*
X57016630Y-83776498D01*
X57016630Y-83776498D02*
X56969011Y-83824117D01*
X56969011Y-83824117D02*
X56873773Y-83871736D01*
X56873773Y-83871736D02*
X56492821Y-83871736D01*
X57445202Y-83443165D02*
X57492821Y-83395546D01*
X57492821Y-83395546D02*
X57588059Y-83347927D01*
X57588059Y-83347927D02*
X57826154Y-83347927D01*
X57826154Y-83347927D02*
X57921392Y-83395546D01*
X57921392Y-83395546D02*
X57969011Y-83443165D01*
X57969011Y-83443165D02*
X58016630Y-83538403D01*
X58016630Y-83538403D02*
X58016630Y-83633641D01*
X58016630Y-83633641D02*
X57969011Y-83776498D01*
X57969011Y-83776498D02*
X57397583Y-84347927D01*
X57397583Y-84347927D02*
X58016630Y-84347927D01*
X58969011Y-84347927D02*
X58397583Y-84347927D01*
X58683297Y-84347927D02*
X58683297Y-83347927D01*
X58683297Y-83347927D02*
X58588059Y-83490784D01*
X58588059Y-83490784D02*
X58492821Y-83586022D01*
X58492821Y-83586022D02*
X58397583Y-83633641D01*
X45864249Y-29623580D02*
X45816630Y-29671200D01*
X45816630Y-29671200D02*
X45673773Y-29718819D01*
X45673773Y-29718819D02*
X45578535Y-29718819D01*
X45578535Y-29718819D02*
X45435678Y-29671200D01*
X45435678Y-29671200D02*
X45340440Y-29575961D01*
X45340440Y-29575961D02*
X45292821Y-29480723D01*
X45292821Y-29480723D02*
X45245202Y-29290247D01*
X45245202Y-29290247D02*
X45245202Y-29147390D01*
X45245202Y-29147390D02*
X45292821Y-28956914D01*
X45292821Y-28956914D02*
X45340440Y-28861676D01*
X45340440Y-28861676D02*
X45435678Y-28766438D01*
X45435678Y-28766438D02*
X45578535Y-28718819D01*
X45578535Y-28718819D02*
X45673773Y-28718819D01*
X45673773Y-28718819D02*
X45816630Y-28766438D01*
X45816630Y-28766438D02*
X45864249Y-28814057D01*
X46245202Y-28814057D02*
X46292821Y-28766438D01*
X46292821Y-28766438D02*
X46388059Y-28718819D01*
X46388059Y-28718819D02*
X46626154Y-28718819D01*
X46626154Y-28718819D02*
X46721392Y-28766438D01*
X46721392Y-28766438D02*
X46769011Y-28814057D01*
X46769011Y-28814057D02*
X46816630Y-28909295D01*
X46816630Y-28909295D02*
X46816630Y-29004533D01*
X46816630Y-29004533D02*
X46769011Y-29147390D01*
X46769011Y-29147390D02*
X46197583Y-29718819D01*
X46197583Y-29718819D02*
X46816630Y-29718819D01*
X47197583Y-28814057D02*
X47245202Y-28766438D01*
X47245202Y-28766438D02*
X47340440Y-28718819D01*
X47340440Y-28718819D02*
X47578535Y-28718819D01*
X47578535Y-28718819D02*
X47673773Y-28766438D01*
X47673773Y-28766438D02*
X47721392Y-28814057D01*
X47721392Y-28814057D02*
X47769011Y-28909295D01*
X47769011Y-28909295D02*
X47769011Y-29004533D01*
X47769011Y-29004533D02*
X47721392Y-29147390D01*
X47721392Y-29147390D02*
X47149964Y-29718819D01*
X47149964Y-29718819D02*
X47769011Y-29718819D01*
X45964249Y-77452688D02*
X45916630Y-77500308D01*
X45916630Y-77500308D02*
X45773773Y-77547927D01*
X45773773Y-77547927D02*
X45678535Y-77547927D01*
X45678535Y-77547927D02*
X45535678Y-77500308D01*
X45535678Y-77500308D02*
X45440440Y-77405069D01*
X45440440Y-77405069D02*
X45392821Y-77309831D01*
X45392821Y-77309831D02*
X45345202Y-77119355D01*
X45345202Y-77119355D02*
X45345202Y-76976498D01*
X45345202Y-76976498D02*
X45392821Y-76786022D01*
X45392821Y-76786022D02*
X45440440Y-76690784D01*
X45440440Y-76690784D02*
X45535678Y-76595546D01*
X45535678Y-76595546D02*
X45678535Y-76547927D01*
X45678535Y-76547927D02*
X45773773Y-76547927D01*
X45773773Y-76547927D02*
X45916630Y-76595546D01*
X45916630Y-76595546D02*
X45964249Y-76643165D01*
X46345202Y-76643165D02*
X46392821Y-76595546D01*
X46392821Y-76595546D02*
X46488059Y-76547927D01*
X46488059Y-76547927D02*
X46726154Y-76547927D01*
X46726154Y-76547927D02*
X46821392Y-76595546D01*
X46821392Y-76595546D02*
X46869011Y-76643165D01*
X46869011Y-76643165D02*
X46916630Y-76738403D01*
X46916630Y-76738403D02*
X46916630Y-76833641D01*
X46916630Y-76833641D02*
X46869011Y-76976498D01*
X46869011Y-76976498D02*
X46297583Y-77547927D01*
X46297583Y-77547927D02*
X46916630Y-77547927D01*
X47392821Y-77547927D02*
X47583297Y-77547927D01*
X47583297Y-77547927D02*
X47678535Y-77500308D01*
X47678535Y-77500308D02*
X47726154Y-77452688D01*
X47726154Y-77452688D02*
X47821392Y-77309831D01*
X47821392Y-77309831D02*
X47869011Y-77119355D01*
X47869011Y-77119355D02*
X47869011Y-76738403D01*
X47869011Y-76738403D02*
X47821392Y-76643165D01*
X47821392Y-76643165D02*
X47773773Y-76595546D01*
X47773773Y-76595546D02*
X47678535Y-76547927D01*
X47678535Y-76547927D02*
X47488059Y-76547927D01*
X47488059Y-76547927D02*
X47392821Y-76595546D01*
X47392821Y-76595546D02*
X47345202Y-76643165D01*
X47345202Y-76643165D02*
X47297583Y-76738403D01*
X47297583Y-76738403D02*
X47297583Y-76976498D01*
X47297583Y-76976498D02*
X47345202Y-77071736D01*
X47345202Y-77071736D02*
X47392821Y-77119355D01*
X47392821Y-77119355D02*
X47488059Y-77166974D01*
X47488059Y-77166974D02*
X47678535Y-77166974D01*
X47678535Y-77166974D02*
X47773773Y-77119355D01*
X47773773Y-77119355D02*
X47821392Y-77071736D01*
X47821392Y-77071736D02*
X47869011Y-76976498D01*
X45964249Y-70652688D02*
X45916630Y-70700308D01*
X45916630Y-70700308D02*
X45773773Y-70747927D01*
X45773773Y-70747927D02*
X45678535Y-70747927D01*
X45678535Y-70747927D02*
X45535678Y-70700308D01*
X45535678Y-70700308D02*
X45440440Y-70605069D01*
X45440440Y-70605069D02*
X45392821Y-70509831D01*
X45392821Y-70509831D02*
X45345202Y-70319355D01*
X45345202Y-70319355D02*
X45345202Y-70176498D01*
X45345202Y-70176498D02*
X45392821Y-69986022D01*
X45392821Y-69986022D02*
X45440440Y-69890784D01*
X45440440Y-69890784D02*
X45535678Y-69795546D01*
X45535678Y-69795546D02*
X45678535Y-69747927D01*
X45678535Y-69747927D02*
X45773773Y-69747927D01*
X45773773Y-69747927D02*
X45916630Y-69795546D01*
X45916630Y-69795546D02*
X45964249Y-69843165D01*
X46345202Y-69843165D02*
X46392821Y-69795546D01*
X46392821Y-69795546D02*
X46488059Y-69747927D01*
X46488059Y-69747927D02*
X46726154Y-69747927D01*
X46726154Y-69747927D02*
X46821392Y-69795546D01*
X46821392Y-69795546D02*
X46869011Y-69843165D01*
X46869011Y-69843165D02*
X46916630Y-69938403D01*
X46916630Y-69938403D02*
X46916630Y-70033641D01*
X46916630Y-70033641D02*
X46869011Y-70176498D01*
X46869011Y-70176498D02*
X46297583Y-70747927D01*
X46297583Y-70747927D02*
X46916630Y-70747927D01*
X47488059Y-70176498D02*
X47392821Y-70128879D01*
X47392821Y-70128879D02*
X47345202Y-70081260D01*
X47345202Y-70081260D02*
X47297583Y-69986022D01*
X47297583Y-69986022D02*
X47297583Y-69938403D01*
X47297583Y-69938403D02*
X47345202Y-69843165D01*
X47345202Y-69843165D02*
X47392821Y-69795546D01*
X47392821Y-69795546D02*
X47488059Y-69747927D01*
X47488059Y-69747927D02*
X47678535Y-69747927D01*
X47678535Y-69747927D02*
X47773773Y-69795546D01*
X47773773Y-69795546D02*
X47821392Y-69843165D01*
X47821392Y-69843165D02*
X47869011Y-69938403D01*
X47869011Y-69938403D02*
X47869011Y-69986022D01*
X47869011Y-69986022D02*
X47821392Y-70081260D01*
X47821392Y-70081260D02*
X47773773Y-70128879D01*
X47773773Y-70128879D02*
X47678535Y-70176498D01*
X47678535Y-70176498D02*
X47488059Y-70176498D01*
X47488059Y-70176498D02*
X47392821Y-70224117D01*
X47392821Y-70224117D02*
X47345202Y-70271736D01*
X47345202Y-70271736D02*
X47297583Y-70366974D01*
X47297583Y-70366974D02*
X47297583Y-70557450D01*
X47297583Y-70557450D02*
X47345202Y-70652688D01*
X47345202Y-70652688D02*
X47392821Y-70700308D01*
X47392821Y-70700308D02*
X47488059Y-70747927D01*
X47488059Y-70747927D02*
X47678535Y-70747927D01*
X47678535Y-70747927D02*
X47773773Y-70700308D01*
X47773773Y-70700308D02*
X47821392Y-70652688D01*
X47821392Y-70652688D02*
X47869011Y-70557450D01*
X47869011Y-70557450D02*
X47869011Y-70366974D01*
X47869011Y-70366974D02*
X47821392Y-70271736D01*
X47821392Y-70271736D02*
X47773773Y-70224117D01*
X47773773Y-70224117D02*
X47678535Y-70176498D01*
X45864249Y-104852688D02*
X45816630Y-104900308D01*
X45816630Y-104900308D02*
X45673773Y-104947927D01*
X45673773Y-104947927D02*
X45578535Y-104947927D01*
X45578535Y-104947927D02*
X45435678Y-104900308D01*
X45435678Y-104900308D02*
X45340440Y-104805069D01*
X45340440Y-104805069D02*
X45292821Y-104709831D01*
X45292821Y-104709831D02*
X45245202Y-104519355D01*
X45245202Y-104519355D02*
X45245202Y-104376498D01*
X45245202Y-104376498D02*
X45292821Y-104186022D01*
X45292821Y-104186022D02*
X45340440Y-104090784D01*
X45340440Y-104090784D02*
X45435678Y-103995546D01*
X45435678Y-103995546D02*
X45578535Y-103947927D01*
X45578535Y-103947927D02*
X45673773Y-103947927D01*
X45673773Y-103947927D02*
X45816630Y-103995546D01*
X45816630Y-103995546D02*
X45864249Y-104043165D01*
X46197583Y-103947927D02*
X46816630Y-103947927D01*
X46816630Y-103947927D02*
X46483297Y-104328879D01*
X46483297Y-104328879D02*
X46626154Y-104328879D01*
X46626154Y-104328879D02*
X46721392Y-104376498D01*
X46721392Y-104376498D02*
X46769011Y-104424117D01*
X46769011Y-104424117D02*
X46816630Y-104519355D01*
X46816630Y-104519355D02*
X46816630Y-104757450D01*
X46816630Y-104757450D02*
X46769011Y-104852688D01*
X46769011Y-104852688D02*
X46721392Y-104900308D01*
X46721392Y-104900308D02*
X46626154Y-104947927D01*
X46626154Y-104947927D02*
X46340440Y-104947927D01*
X46340440Y-104947927D02*
X46245202Y-104900308D01*
X46245202Y-104900308D02*
X46197583Y-104852688D01*
X47149964Y-103947927D02*
X47769011Y-103947927D01*
X47769011Y-103947927D02*
X47435678Y-104328879D01*
X47435678Y-104328879D02*
X47578535Y-104328879D01*
X47578535Y-104328879D02*
X47673773Y-104376498D01*
X47673773Y-104376498D02*
X47721392Y-104424117D01*
X47721392Y-104424117D02*
X47769011Y-104519355D01*
X47769011Y-104519355D02*
X47769011Y-104757450D01*
X47769011Y-104757450D02*
X47721392Y-104852688D01*
X47721392Y-104852688D02*
X47673773Y-104900308D01*
X47673773Y-104900308D02*
X47578535Y-104947927D01*
X47578535Y-104947927D02*
X47292821Y-104947927D01*
X47292821Y-104947927D02*
X47197583Y-104900308D01*
X47197583Y-104900308D02*
X47149964Y-104852688D01*
X45864249Y-36352688D02*
X45816630Y-36400308D01*
X45816630Y-36400308D02*
X45673773Y-36447927D01*
X45673773Y-36447927D02*
X45578535Y-36447927D01*
X45578535Y-36447927D02*
X45435678Y-36400308D01*
X45435678Y-36400308D02*
X45340440Y-36305069D01*
X45340440Y-36305069D02*
X45292821Y-36209831D01*
X45292821Y-36209831D02*
X45245202Y-36019355D01*
X45245202Y-36019355D02*
X45245202Y-35876498D01*
X45245202Y-35876498D02*
X45292821Y-35686022D01*
X45292821Y-35686022D02*
X45340440Y-35590784D01*
X45340440Y-35590784D02*
X45435678Y-35495546D01*
X45435678Y-35495546D02*
X45578535Y-35447927D01*
X45578535Y-35447927D02*
X45673773Y-35447927D01*
X45673773Y-35447927D02*
X45816630Y-35495546D01*
X45816630Y-35495546D02*
X45864249Y-35543165D01*
X46245202Y-35543165D02*
X46292821Y-35495546D01*
X46292821Y-35495546D02*
X46388059Y-35447927D01*
X46388059Y-35447927D02*
X46626154Y-35447927D01*
X46626154Y-35447927D02*
X46721392Y-35495546D01*
X46721392Y-35495546D02*
X46769011Y-35543165D01*
X46769011Y-35543165D02*
X46816630Y-35638403D01*
X46816630Y-35638403D02*
X46816630Y-35733641D01*
X46816630Y-35733641D02*
X46769011Y-35876498D01*
X46769011Y-35876498D02*
X46197583Y-36447927D01*
X46197583Y-36447927D02*
X46816630Y-36447927D01*
X47149964Y-35447927D02*
X47769011Y-35447927D01*
X47769011Y-35447927D02*
X47435678Y-35828879D01*
X47435678Y-35828879D02*
X47578535Y-35828879D01*
X47578535Y-35828879D02*
X47673773Y-35876498D01*
X47673773Y-35876498D02*
X47721392Y-35924117D01*
X47721392Y-35924117D02*
X47769011Y-36019355D01*
X47769011Y-36019355D02*
X47769011Y-36257450D01*
X47769011Y-36257450D02*
X47721392Y-36352688D01*
X47721392Y-36352688D02*
X47673773Y-36400308D01*
X47673773Y-36400308D02*
X47578535Y-36447927D01*
X47578535Y-36447927D02*
X47292821Y-36447927D01*
X47292821Y-36447927D02*
X47197583Y-36400308D01*
X47197583Y-36400308D02*
X47149964Y-36352688D01*
X45864249Y-125352688D02*
X45816630Y-125400308D01*
X45816630Y-125400308D02*
X45673773Y-125447927D01*
X45673773Y-125447927D02*
X45578535Y-125447927D01*
X45578535Y-125447927D02*
X45435678Y-125400308D01*
X45435678Y-125400308D02*
X45340440Y-125305069D01*
X45340440Y-125305069D02*
X45292821Y-125209831D01*
X45292821Y-125209831D02*
X45245202Y-125019355D01*
X45245202Y-125019355D02*
X45245202Y-124876498D01*
X45245202Y-124876498D02*
X45292821Y-124686022D01*
X45292821Y-124686022D02*
X45340440Y-124590784D01*
X45340440Y-124590784D02*
X45435678Y-124495546D01*
X45435678Y-124495546D02*
X45578535Y-124447927D01*
X45578535Y-124447927D02*
X45673773Y-124447927D01*
X45673773Y-124447927D02*
X45816630Y-124495546D01*
X45816630Y-124495546D02*
X45864249Y-124543165D01*
X46197583Y-124447927D02*
X46816630Y-124447927D01*
X46816630Y-124447927D02*
X46483297Y-124828879D01*
X46483297Y-124828879D02*
X46626154Y-124828879D01*
X46626154Y-124828879D02*
X46721392Y-124876498D01*
X46721392Y-124876498D02*
X46769011Y-124924117D01*
X46769011Y-124924117D02*
X46816630Y-125019355D01*
X46816630Y-125019355D02*
X46816630Y-125257450D01*
X46816630Y-125257450D02*
X46769011Y-125352688D01*
X46769011Y-125352688D02*
X46721392Y-125400308D01*
X46721392Y-125400308D02*
X46626154Y-125447927D01*
X46626154Y-125447927D02*
X46340440Y-125447927D01*
X46340440Y-125447927D02*
X46245202Y-125400308D01*
X46245202Y-125400308D02*
X46197583Y-125352688D01*
X47673773Y-124447927D02*
X47483297Y-124447927D01*
X47483297Y-124447927D02*
X47388059Y-124495546D01*
X47388059Y-124495546D02*
X47340440Y-124543165D01*
X47340440Y-124543165D02*
X47245202Y-124686022D01*
X47245202Y-124686022D02*
X47197583Y-124876498D01*
X47197583Y-124876498D02*
X47197583Y-125257450D01*
X47197583Y-125257450D02*
X47245202Y-125352688D01*
X47245202Y-125352688D02*
X47292821Y-125400308D01*
X47292821Y-125400308D02*
X47388059Y-125447927D01*
X47388059Y-125447927D02*
X47578535Y-125447927D01*
X47578535Y-125447927D02*
X47673773Y-125400308D01*
X47673773Y-125400308D02*
X47721392Y-125352688D01*
X47721392Y-125352688D02*
X47769011Y-125257450D01*
X47769011Y-125257450D02*
X47769011Y-125019355D01*
X47769011Y-125019355D02*
X47721392Y-124924117D01*
X47721392Y-124924117D02*
X47673773Y-124876498D01*
X47673773Y-124876498D02*
X47578535Y-124828879D01*
X47578535Y-124828879D02*
X47388059Y-124828879D01*
X47388059Y-124828879D02*
X47292821Y-124876498D01*
X47292821Y-124876498D02*
X47245202Y-124924117D01*
X47245202Y-124924117D02*
X47197583Y-125019355D01*
X57164249Y-56947927D02*
X56830916Y-56471736D01*
X56592821Y-56947927D02*
X56592821Y-55947927D01*
X56592821Y-55947927D02*
X56973773Y-55947927D01*
X56973773Y-55947927D02*
X57069011Y-55995546D01*
X57069011Y-55995546D02*
X57116630Y-56043165D01*
X57116630Y-56043165D02*
X57164249Y-56138403D01*
X57164249Y-56138403D02*
X57164249Y-56281260D01*
X57164249Y-56281260D02*
X57116630Y-56376498D01*
X57116630Y-56376498D02*
X57069011Y-56424117D01*
X57069011Y-56424117D02*
X56973773Y-56471736D01*
X56973773Y-56471736D02*
X56592821Y-56471736D01*
X58116630Y-56947927D02*
X57545202Y-56947927D01*
X57830916Y-56947927D02*
X57830916Y-55947927D01*
X57830916Y-55947927D02*
X57735678Y-56090784D01*
X57735678Y-56090784D02*
X57640440Y-56186022D01*
X57640440Y-56186022D02*
X57545202Y-56233641D01*
X58592821Y-56947927D02*
X58783297Y-56947927D01*
X58783297Y-56947927D02*
X58878535Y-56900308D01*
X58878535Y-56900308D02*
X58926154Y-56852688D01*
X58926154Y-56852688D02*
X59021392Y-56709831D01*
X59021392Y-56709831D02*
X59069011Y-56519355D01*
X59069011Y-56519355D02*
X59069011Y-56138403D01*
X59069011Y-56138403D02*
X59021392Y-56043165D01*
X59021392Y-56043165D02*
X58973773Y-55995546D01*
X58973773Y-55995546D02*
X58878535Y-55947927D01*
X58878535Y-55947927D02*
X58688059Y-55947927D01*
X58688059Y-55947927D02*
X58592821Y-55995546D01*
X58592821Y-55995546D02*
X58545202Y-56043165D01*
X58545202Y-56043165D02*
X58497583Y-56138403D01*
X58497583Y-56138403D02*
X58497583Y-56376498D01*
X58497583Y-56376498D02*
X58545202Y-56471736D01*
X58545202Y-56471736D02*
X58592821Y-56519355D01*
X58592821Y-56519355D02*
X58688059Y-56566974D01*
X58688059Y-56566974D02*
X58878535Y-56566974D01*
X58878535Y-56566974D02*
X58973773Y-56519355D01*
X58973773Y-56519355D02*
X59021392Y-56471736D01*
X59021392Y-56471736D02*
X59069011Y-56376498D01*
X45864249Y-84352688D02*
X45816630Y-84400308D01*
X45816630Y-84400308D02*
X45673773Y-84447927D01*
X45673773Y-84447927D02*
X45578535Y-84447927D01*
X45578535Y-84447927D02*
X45435678Y-84400308D01*
X45435678Y-84400308D02*
X45340440Y-84305069D01*
X45340440Y-84305069D02*
X45292821Y-84209831D01*
X45292821Y-84209831D02*
X45245202Y-84019355D01*
X45245202Y-84019355D02*
X45245202Y-83876498D01*
X45245202Y-83876498D02*
X45292821Y-83686022D01*
X45292821Y-83686022D02*
X45340440Y-83590784D01*
X45340440Y-83590784D02*
X45435678Y-83495546D01*
X45435678Y-83495546D02*
X45578535Y-83447927D01*
X45578535Y-83447927D02*
X45673773Y-83447927D01*
X45673773Y-83447927D02*
X45816630Y-83495546D01*
X45816630Y-83495546D02*
X45864249Y-83543165D01*
X46197583Y-83447927D02*
X46816630Y-83447927D01*
X46816630Y-83447927D02*
X46483297Y-83828879D01*
X46483297Y-83828879D02*
X46626154Y-83828879D01*
X46626154Y-83828879D02*
X46721392Y-83876498D01*
X46721392Y-83876498D02*
X46769011Y-83924117D01*
X46769011Y-83924117D02*
X46816630Y-84019355D01*
X46816630Y-84019355D02*
X46816630Y-84257450D01*
X46816630Y-84257450D02*
X46769011Y-84352688D01*
X46769011Y-84352688D02*
X46721392Y-84400308D01*
X46721392Y-84400308D02*
X46626154Y-84447927D01*
X46626154Y-84447927D02*
X46340440Y-84447927D01*
X46340440Y-84447927D02*
X46245202Y-84400308D01*
X46245202Y-84400308D02*
X46197583Y-84352688D01*
X47435678Y-83447927D02*
X47530916Y-83447927D01*
X47530916Y-83447927D02*
X47626154Y-83495546D01*
X47626154Y-83495546D02*
X47673773Y-83543165D01*
X47673773Y-83543165D02*
X47721392Y-83638403D01*
X47721392Y-83638403D02*
X47769011Y-83828879D01*
X47769011Y-83828879D02*
X47769011Y-84066974D01*
X47769011Y-84066974D02*
X47721392Y-84257450D01*
X47721392Y-84257450D02*
X47673773Y-84352688D01*
X47673773Y-84352688D02*
X47626154Y-84400308D01*
X47626154Y-84400308D02*
X47530916Y-84447927D01*
X47530916Y-84447927D02*
X47435678Y-84447927D01*
X47435678Y-84447927D02*
X47340440Y-84400308D01*
X47340440Y-84400308D02*
X47292821Y-84352688D01*
X47292821Y-84352688D02*
X47245202Y-84257450D01*
X47245202Y-84257450D02*
X47197583Y-84066974D01*
X47197583Y-84066974D02*
X47197583Y-83828879D01*
X47197583Y-83828879D02*
X47245202Y-83638403D01*
X47245202Y-83638403D02*
X47292821Y-83543165D01*
X47292821Y-83543165D02*
X47340440Y-83495546D01*
X47340440Y-83495546D02*
X47435678Y-83447927D01*
D11*
X44835000Y-42815420D02*
X44835000Y-43096580D01*
X43815000Y-42815420D02*
X43815000Y-43096580D01*
X44835000Y-22277420D02*
X44835000Y-22558580D01*
X43815000Y-22277420D02*
X43815000Y-22558580D01*
X59963466Y-42819608D02*
X60270748Y-42819608D01*
X59963466Y-43579608D02*
X60270748Y-43579608D01*
X59936359Y-111413500D02*
X60243641Y-111413500D01*
X59936359Y-112173500D02*
X60243641Y-112173500D01*
X44835000Y-49661420D02*
X44835000Y-49942580D01*
X43815000Y-49661420D02*
X43815000Y-49942580D01*
X59956359Y-70312500D02*
X60263641Y-70312500D01*
X59956359Y-71072500D02*
X60263641Y-71072500D01*
X44835000Y-90737420D02*
X44835000Y-91018580D01*
X43815000Y-90737420D02*
X43815000Y-91018580D01*
X44835000Y-118121420D02*
X44835000Y-118402580D01*
X43815000Y-118121420D02*
X43815000Y-118402580D01*
X59936359Y-97713500D02*
X60243641Y-97713500D01*
X59936359Y-98473500D02*
X60243641Y-98473500D01*
X44835000Y-111275420D02*
X44835000Y-111556580D01*
X43815000Y-111275420D02*
X43815000Y-111556580D01*
X44835000Y-63353420D02*
X44835000Y-63634580D01*
X43815000Y-63353420D02*
X43815000Y-63634580D01*
X44835000Y-56507420D02*
X44835000Y-56788580D01*
X43815000Y-56507420D02*
X43815000Y-56788580D01*
X44835000Y-97583420D02*
X44835000Y-97864580D01*
X43815000Y-97583420D02*
X43815000Y-97864580D01*
X59963466Y-29213108D02*
X60270748Y-29213108D01*
X59963466Y-29973108D02*
X60270748Y-29973108D01*
X59936359Y-84013500D02*
X60243641Y-84013500D01*
X59936359Y-84773500D02*
X60243641Y-84773500D01*
X44835000Y-29123420D02*
X44835000Y-29404580D01*
X43815000Y-29123420D02*
X43815000Y-29404580D01*
X44835000Y-77045420D02*
X44835000Y-77326580D01*
X43815000Y-77045420D02*
X43815000Y-77326580D01*
X44835000Y-70199420D02*
X44835000Y-70480580D01*
X43815000Y-70199420D02*
X43815000Y-70480580D01*
X44835000Y-104429420D02*
X44835000Y-104710580D01*
X43815000Y-104429420D02*
X43815000Y-104710580D01*
X44835000Y-35969420D02*
X44835000Y-36250580D01*
X43815000Y-35969420D02*
X43815000Y-36250580D01*
X44835000Y-124967420D02*
X44835000Y-125248580D01*
X43815000Y-124967420D02*
X43815000Y-125248580D01*
X60056358Y-56612500D02*
X60363640Y-56612500D01*
X60056358Y-57372500D02*
X60363640Y-57372500D01*
X44835000Y-83891420D02*
X44835000Y-84172580D01*
X43815000Y-83891420D02*
X43815000Y-84172580D01*
%LPC*%
D12*
X56826107Y-116987108D03*
X56826107Y-116087108D03*
X55926107Y-116087108D03*
X55926107Y-116987108D03*
X46557107Y-96449108D03*
X46557107Y-95549108D03*
X45657107Y-95549108D03*
X45657107Y-96449108D03*
X60249107Y-55373108D03*
X60249107Y-54473108D03*
X59349107Y-54473108D03*
X59349107Y-55373108D03*
X53403107Y-34835108D03*
X53403107Y-33935108D03*
X52503107Y-33935108D03*
X52503107Y-34835108D03*
X39711107Y-116987108D03*
X39711107Y-116087108D03*
X38811107Y-116087108D03*
X38811107Y-116987108D03*
X32865107Y-99872108D03*
X32865107Y-98972108D03*
X31965107Y-98972108D03*
X31965107Y-99872108D03*
X49980107Y-69065108D03*
X49980107Y-68165108D03*
X49080107Y-68165108D03*
X49080107Y-69065108D03*
X43134107Y-62219108D03*
X43134107Y-61319108D03*
X42234107Y-61319108D03*
X42234107Y-62219108D03*
X46557107Y-72488108D03*
X46557107Y-71588108D03*
X45657107Y-71588108D03*
X45657107Y-72488108D03*
X60249107Y-58796108D03*
X60249107Y-57896108D03*
X59349107Y-57896108D03*
X59349107Y-58796108D03*
X46557107Y-75911108D03*
X46557107Y-75011108D03*
X45657107Y-75011108D03*
X45657107Y-75911108D03*
X39711107Y-41681108D03*
X39711107Y-40781108D03*
X38811107Y-40781108D03*
X38811107Y-41681108D03*
X60249107Y-86180108D03*
X60249107Y-85280108D03*
X59349107Y-85280108D03*
X59349107Y-86180108D03*
X39711107Y-79334108D03*
X39711107Y-78434108D03*
X38811107Y-78434108D03*
X38811107Y-79334108D03*
X36288107Y-79334108D03*
X36288107Y-78434108D03*
X35388107Y-78434108D03*
X35388107Y-79334108D03*
D13*
X44325000Y-42181000D03*
X44325000Y-43731000D03*
X44325000Y-21643000D03*
X44325000Y-23193000D03*
D12*
X49980107Y-110141108D03*
X49980107Y-109241108D03*
X49080107Y-109241108D03*
X49080107Y-110141108D03*
X46557107Y-65642108D03*
X46557107Y-64742108D03*
X45657107Y-64742108D03*
X45657107Y-65642108D03*
X56826107Y-123833108D03*
X56826107Y-122933108D03*
X55926107Y-122933108D03*
X55926107Y-123833108D03*
X60249107Y-106718108D03*
X60249107Y-105818108D03*
X59349107Y-105818108D03*
X59349107Y-106718108D03*
X32865107Y-127256108D03*
X32865107Y-126356108D03*
X31965107Y-126356108D03*
X31965107Y-127256108D03*
X36288107Y-41681108D03*
X36288107Y-40781108D03*
X35388107Y-40781108D03*
X35388107Y-41681108D03*
X46557107Y-106718108D03*
X46557107Y-105818108D03*
X45657107Y-105818108D03*
X45657107Y-106718108D03*
X56826107Y-99872108D03*
X56826107Y-98972108D03*
X55926107Y-98972108D03*
X55926107Y-99872108D03*
X46557107Y-110141108D03*
X46557107Y-109241108D03*
X45657107Y-109241108D03*
X45657107Y-110141108D03*
X49980107Y-72488108D03*
X49980107Y-71588108D03*
X49080107Y-71588108D03*
X49080107Y-72488108D03*
X39711107Y-62219108D03*
X39711107Y-61319108D03*
X38811107Y-61319108D03*
X38811107Y-62219108D03*
X60249107Y-127256108D03*
X60249107Y-126356108D03*
X59349107Y-126356108D03*
X59349107Y-127256108D03*
X49980107Y-34835108D03*
X49980107Y-33935108D03*
X49080107Y-33935108D03*
X49080107Y-34835108D03*
X36288107Y-75911108D03*
X36288107Y-75011108D03*
X35388107Y-75011108D03*
X35388107Y-75911108D03*
X43134107Y-103295108D03*
X43134107Y-102395108D03*
X42234107Y-102395108D03*
X42234107Y-103295108D03*
X56826107Y-31412108D03*
X56826107Y-30512108D03*
X55926107Y-30512108D03*
X55926107Y-31412108D03*
X49980107Y-96449108D03*
X49980107Y-95549108D03*
X49080107Y-95549108D03*
X49080107Y-96449108D03*
X36288107Y-58796108D03*
X36288107Y-57896108D03*
X35388107Y-57896108D03*
X35388107Y-58796108D03*
X53403107Y-51950108D03*
X53403107Y-51050108D03*
X52503107Y-51050108D03*
X52503107Y-51950108D03*
X43134107Y-127256108D03*
X43134107Y-126356108D03*
X42234107Y-126356108D03*
X42234107Y-127256108D03*
X39711107Y-65642108D03*
X39711107Y-64742108D03*
X38811107Y-64742108D03*
X38811107Y-65642108D03*
X43134107Y-123833108D03*
X43134107Y-122933108D03*
X42234107Y-122933108D03*
X42234107Y-123833108D03*
X39711107Y-127256108D03*
X39711107Y-126356108D03*
X38811107Y-126356108D03*
X38811107Y-127256108D03*
X32865107Y-51950108D03*
X32865107Y-51050108D03*
X31965107Y-51050108D03*
X31965107Y-51950108D03*
X53403107Y-113564108D03*
X53403107Y-112664108D03*
X52503107Y-112664108D03*
X52503107Y-113564108D03*
X53403107Y-79334108D03*
X53403107Y-78434108D03*
X52503107Y-78434108D03*
X52503107Y-79334108D03*
X36288107Y-31412108D03*
X36288107Y-30512108D03*
X35388107Y-30512108D03*
X35388107Y-31412108D03*
X49980107Y-116987108D03*
X49980107Y-116087108D03*
X49080107Y-116087108D03*
X49080107Y-116987108D03*
X60249107Y-45104108D03*
X60249107Y-44204108D03*
X59349107Y-44204108D03*
X59349107Y-45104108D03*
X46557107Y-103295108D03*
X46557107Y-102395108D03*
X45657107Y-102395108D03*
X45657107Y-103295108D03*
X36288107Y-72488108D03*
X36288107Y-71588108D03*
X35388107Y-71588108D03*
X35388107Y-72488108D03*
X43134107Y-79334108D03*
X43134107Y-78434108D03*
X42234107Y-78434108D03*
X42234107Y-79334108D03*
D14*
X59607107Y-43199608D03*
X60627107Y-43199608D03*
D12*
X36288107Y-65642108D03*
X36288107Y-64742108D03*
X35388107Y-64742108D03*
X35388107Y-65642108D03*
X39711107Y-21143108D03*
X39711107Y-20243108D03*
X38811107Y-20243108D03*
X38811107Y-21143108D03*
X56826107Y-103295108D03*
X56826107Y-102395108D03*
X55926107Y-102395108D03*
X55926107Y-103295108D03*
X39711107Y-58796108D03*
X39711107Y-57896108D03*
X38811107Y-57896108D03*
X38811107Y-58796108D03*
X32865107Y-72488108D03*
X32865107Y-71588108D03*
X31965107Y-71588108D03*
X31965107Y-72488108D03*
X36288107Y-99872108D03*
X36288107Y-98972108D03*
X35388107Y-98972108D03*
X35388107Y-99872108D03*
X46557107Y-48527108D03*
X46557107Y-47627108D03*
X45657107Y-47627108D03*
X45657107Y-48527108D03*
X49980107Y-86180108D03*
X49980107Y-85280108D03*
X49080107Y-85280108D03*
X49080107Y-86180108D03*
X46557107Y-113564108D03*
X46557107Y-112664108D03*
X45657107Y-112664108D03*
X45657107Y-113564108D03*
X39711107Y-69065108D03*
X39711107Y-68165108D03*
X38811107Y-68165108D03*
X38811107Y-69065108D03*
X60249107Y-62219108D03*
X60249107Y-61319108D03*
X59349107Y-61319108D03*
X59349107Y-62219108D03*
X46557107Y-21143108D03*
X46557107Y-20243108D03*
X45657107Y-20243108D03*
X45657107Y-21143108D03*
X32865107Y-93026108D03*
X32865107Y-92126108D03*
X31965107Y-92126108D03*
X31965107Y-93026108D03*
X60249107Y-51950108D03*
X60249107Y-51050108D03*
X59349107Y-51050108D03*
X59349107Y-51950108D03*
X32865107Y-110141108D03*
X32865107Y-109241108D03*
X31965107Y-109241108D03*
X31965107Y-110141108D03*
X60249107Y-75911108D03*
X60249107Y-75011108D03*
X59349107Y-75011108D03*
X59349107Y-75911108D03*
D14*
X59580000Y-111793500D03*
X60600000Y-111793500D03*
D12*
X36288107Y-69065108D03*
X36288107Y-68165108D03*
X35388107Y-68165108D03*
X35388107Y-69065108D03*
X43134107Y-72488108D03*
X43134107Y-71588108D03*
X42234107Y-71588108D03*
X42234107Y-72488108D03*
X53403107Y-89603108D03*
X53403107Y-88703108D03*
X52503107Y-88703108D03*
X52503107Y-89603108D03*
X56826107Y-127256108D03*
X56826107Y-126356108D03*
X55926107Y-126356108D03*
X55926107Y-127256108D03*
X32865107Y-58796108D03*
X32865107Y-57896108D03*
X31965107Y-57896108D03*
X31965107Y-58796108D03*
X39711107Y-96449108D03*
X39711107Y-95549108D03*
X38811107Y-95549108D03*
X38811107Y-96449108D03*
X46557107Y-55373108D03*
X46557107Y-54473108D03*
X45657107Y-54473108D03*
X45657107Y-55373108D03*
X49980107Y-120410108D03*
X49980107Y-119510108D03*
X49080107Y-119510108D03*
X49080107Y-120410108D03*
X32865107Y-86180108D03*
X32865107Y-85280108D03*
X31965107Y-85280108D03*
X31965107Y-86180108D03*
X46557107Y-27989108D03*
X46557107Y-27089108D03*
X45657107Y-27089108D03*
X45657107Y-27989108D03*
X60249107Y-48527108D03*
X60249107Y-47627108D03*
X59349107Y-47627108D03*
X59349107Y-48527108D03*
X36288107Y-55373108D03*
X36288107Y-54473108D03*
X35388107Y-54473108D03*
X35388107Y-55373108D03*
X49980107Y-106718108D03*
X49980107Y-105818108D03*
X49080107Y-105818108D03*
X49080107Y-106718108D03*
X46557107Y-38258108D03*
X46557107Y-37358108D03*
X45657107Y-37358108D03*
X45657107Y-38258108D03*
X53403107Y-45104108D03*
X53403107Y-44204108D03*
X52503107Y-44204108D03*
X52503107Y-45104108D03*
X46557107Y-31412108D03*
X46557107Y-30512108D03*
X45657107Y-30512108D03*
X45657107Y-31412108D03*
X43134107Y-58796108D03*
X43134107Y-57896108D03*
X42234107Y-57896108D03*
X42234107Y-58796108D03*
X43134107Y-89603108D03*
X43134107Y-88703108D03*
X42234107Y-88703108D03*
X42234107Y-89603108D03*
X32865107Y-24566108D03*
X32865107Y-23666108D03*
X31965107Y-23666108D03*
X31965107Y-24566108D03*
X36288107Y-51950108D03*
X36288107Y-51050108D03*
X35388107Y-51050108D03*
X35388107Y-51950108D03*
X36288107Y-93026108D03*
X36288107Y-92126108D03*
X35388107Y-92126108D03*
X35388107Y-93026108D03*
X56826107Y-106718108D03*
X56826107Y-105818108D03*
X55926107Y-105818108D03*
X55926107Y-106718108D03*
X43134107Y-51950108D03*
X43134107Y-51050108D03*
X42234107Y-51050108D03*
X42234107Y-51950108D03*
X39711107Y-120410108D03*
X39711107Y-119510108D03*
X38811107Y-119510108D03*
X38811107Y-120410108D03*
X60249107Y-96449108D03*
X60249107Y-95549108D03*
X59349107Y-95549108D03*
X59349107Y-96449108D03*
X60249107Y-38258108D03*
X60249107Y-37358108D03*
X59349107Y-37358108D03*
X59349107Y-38258108D03*
X43134107Y-75911108D03*
X43134107Y-75011108D03*
X42234107Y-75011108D03*
X42234107Y-75911108D03*
X39711107Y-72488108D03*
X39711107Y-71588108D03*
X38811107Y-71588108D03*
X38811107Y-72488108D03*
X43134107Y-106718108D03*
X43134107Y-105818108D03*
X42234107Y-105818108D03*
X42234107Y-106718108D03*
X49980107Y-82757108D03*
X49980107Y-81857108D03*
X49080107Y-81857108D03*
X49080107Y-82757108D03*
X49980107Y-55373108D03*
X49980107Y-54473108D03*
X49080107Y-54473108D03*
X49080107Y-55373108D03*
X36288107Y-106718108D03*
X36288107Y-105818108D03*
X35388107Y-105818108D03*
X35388107Y-106718108D03*
X49980107Y-113564108D03*
X49980107Y-112664108D03*
X49080107Y-112664108D03*
X49080107Y-113564108D03*
D13*
X44325000Y-49027000D03*
X44325000Y-50577000D03*
D12*
X32865107Y-123833108D03*
X32865107Y-122933108D03*
X31965107Y-122933108D03*
X31965107Y-123833108D03*
X46557107Y-51950108D03*
X46557107Y-51050108D03*
X45657107Y-51050108D03*
X45657107Y-51950108D03*
X53403107Y-86180108D03*
X53403107Y-85280108D03*
X52503107Y-85280108D03*
X52503107Y-86180108D03*
X39711107Y-103295108D03*
X39711107Y-102395108D03*
X38811107Y-102395108D03*
X38811107Y-103295108D03*
X46557107Y-34835108D03*
X46557107Y-33935108D03*
X45657107Y-33935108D03*
X45657107Y-34835108D03*
X36288107Y-110141108D03*
X36288107Y-109241108D03*
X35388107Y-109241108D03*
X35388107Y-110141108D03*
X43134107Y-24566108D03*
X43134107Y-23666108D03*
X42234107Y-23666108D03*
X42234107Y-24566108D03*
X46557107Y-82757108D03*
X46557107Y-81857108D03*
X45657107Y-81857108D03*
X45657107Y-82757108D03*
X36288107Y-103295108D03*
X36288107Y-102395108D03*
X35388107Y-102395108D03*
X35388107Y-103295108D03*
X53403107Y-82757108D03*
X53403107Y-81857108D03*
X52503107Y-81857108D03*
X52503107Y-82757108D03*
X39711107Y-113564108D03*
X39711107Y-112664108D03*
X38811107Y-112664108D03*
X38811107Y-113564108D03*
X60249107Y-82757108D03*
X60249107Y-81857108D03*
X59349107Y-81857108D03*
X59349107Y-82757108D03*
X49980107Y-21143108D03*
X49980107Y-20243108D03*
X49080107Y-20243108D03*
X49080107Y-21143108D03*
X49980107Y-123833108D03*
X49980107Y-122933108D03*
X49080107Y-122933108D03*
X49080107Y-123833108D03*
X46557107Y-89603108D03*
X46557107Y-88703108D03*
X45657107Y-88703108D03*
X45657107Y-89603108D03*
X36288107Y-82757108D03*
X36288107Y-81857108D03*
X35388107Y-81857108D03*
X35388107Y-82757108D03*
X60249107Y-120410108D03*
X60249107Y-119510108D03*
X59349107Y-119510108D03*
X59349107Y-120410108D03*
X53403107Y-75911108D03*
X53403107Y-75011108D03*
X52503107Y-75011108D03*
X52503107Y-75911108D03*
X49980107Y-127256108D03*
X49980107Y-126356108D03*
X49080107Y-126356108D03*
X49080107Y-127256108D03*
X53403107Y-103295108D03*
X53403107Y-102395108D03*
X52503107Y-102395108D03*
X52503107Y-103295108D03*
X32865107Y-120410108D03*
X32865107Y-119510108D03*
X31965107Y-119510108D03*
X31965107Y-120410108D03*
X49980107Y-31412108D03*
X49980107Y-30512108D03*
X49080107Y-30512108D03*
X49080107Y-31412108D03*
X32865107Y-38258108D03*
X32865107Y-37358108D03*
X31965107Y-37358108D03*
X31965107Y-38258108D03*
X53403107Y-24566108D03*
X53403107Y-23666108D03*
X52503107Y-23666108D03*
X52503107Y-24566108D03*
X39711107Y-82757108D03*
X39711107Y-81857108D03*
X38811107Y-81857108D03*
X38811107Y-82757108D03*
X56826107Y-93026108D03*
X56826107Y-92126108D03*
X55926107Y-92126108D03*
X55926107Y-93026108D03*
X49980107Y-79334108D03*
X49980107Y-78434108D03*
X49080107Y-78434108D03*
X49080107Y-79334108D03*
X49980107Y-27989108D03*
X49980107Y-27089108D03*
X49080107Y-27089108D03*
X49080107Y-27989108D03*
X53403107Y-72488108D03*
X53403107Y-71588108D03*
X52503107Y-71588108D03*
X52503107Y-72488108D03*
X36288107Y-45104108D03*
X36288107Y-44204108D03*
X35388107Y-44204108D03*
X35388107Y-45104108D03*
X56826107Y-96449108D03*
X56826107Y-95549108D03*
X55926107Y-95549108D03*
X55926107Y-96449108D03*
X60249107Y-103295108D03*
X60249107Y-102395108D03*
X59349107Y-102395108D03*
X59349107Y-103295108D03*
X49980107Y-62219108D03*
X49980107Y-61319108D03*
X49080107Y-61319108D03*
X49080107Y-62219108D03*
X56826107Y-38258108D03*
X56826107Y-37358108D03*
X55926107Y-37358108D03*
X55926107Y-38258108D03*
X39711107Y-45104108D03*
X39711107Y-44204108D03*
X38811107Y-44204108D03*
X38811107Y-45104108D03*
X36288107Y-123833108D03*
X36288107Y-122933108D03*
X35388107Y-122933108D03*
X35388107Y-123833108D03*
X39711107Y-31412108D03*
X39711107Y-30512108D03*
X38811107Y-30512108D03*
X38811107Y-31412108D03*
X39711107Y-86180108D03*
X39711107Y-85280108D03*
X38811107Y-85280108D03*
X38811107Y-86180108D03*
X53403107Y-69065108D03*
X53403107Y-68165108D03*
X52503107Y-68165108D03*
X52503107Y-69065108D03*
X39711107Y-55373108D03*
X39711107Y-54473108D03*
X38811107Y-54473108D03*
X38811107Y-55373108D03*
X56826107Y-69065108D03*
X56826107Y-68165108D03*
X55926107Y-68165108D03*
X55926107Y-69065108D03*
X53403107Y-106718108D03*
X53403107Y-105818108D03*
X52503107Y-105818108D03*
X52503107Y-106718108D03*
X43134107Y-27989108D03*
X43134107Y-27089108D03*
X42234107Y-27089108D03*
X42234107Y-27989108D03*
X46557107Y-120410108D03*
X46557107Y-119510108D03*
X45657107Y-119510108D03*
X45657107Y-120410108D03*
X49980107Y-58796108D03*
X49980107Y-57896108D03*
X49080107Y-57896108D03*
X49080107Y-58796108D03*
X53403107Y-65642108D03*
X53403107Y-64742108D03*
X52503107Y-64742108D03*
X52503107Y-65642108D03*
X43134107Y-69065108D03*
X43134107Y-68165108D03*
X42234107Y-68165108D03*
X42234107Y-69065108D03*
D14*
X59600000Y-70692500D03*
X60620000Y-70692500D03*
D12*
X39711107Y-99872108D03*
X39711107Y-98972108D03*
X38811107Y-98972108D03*
X38811107Y-99872108D03*
X56826107Y-24566108D03*
X56826107Y-23666108D03*
X55926107Y-23666108D03*
X55926107Y-24566108D03*
X56826107Y-62219108D03*
X56826107Y-61319108D03*
X55926107Y-61319108D03*
X55926107Y-62219108D03*
X56826107Y-120410108D03*
X56826107Y-119510108D03*
X55926107Y-119510108D03*
X55926107Y-120410108D03*
X43134107Y-93026108D03*
X43134107Y-92126108D03*
X42234107Y-92126108D03*
X42234107Y-93026108D03*
X46557107Y-116987108D03*
X46557107Y-116087108D03*
X45657107Y-116087108D03*
X45657107Y-116987108D03*
X36288107Y-24566108D03*
X36288107Y-23666108D03*
X35388107Y-23666108D03*
X35388107Y-24566108D03*
X32865107Y-41681108D03*
X32865107Y-40781108D03*
X31965107Y-40781108D03*
X31965107Y-41681108D03*
X60249107Y-89603108D03*
X60249107Y-88703108D03*
X59349107Y-88703108D03*
X59349107Y-89603108D03*
X53403107Y-48527108D03*
X53403107Y-47627108D03*
X52503107Y-47627108D03*
X52503107Y-48527108D03*
X32865107Y-21143108D03*
X32865107Y-20243108D03*
X31965107Y-20243108D03*
X31965107Y-21143108D03*
X39711107Y-34835108D03*
X39711107Y-33935108D03*
X38811107Y-33935108D03*
X38811107Y-34835108D03*
X60249107Y-34835108D03*
X60249107Y-33935108D03*
X59349107Y-33935108D03*
X59349107Y-34835108D03*
X43134107Y-116987108D03*
X43134107Y-116087108D03*
X42234107Y-116087108D03*
X42234107Y-116987108D03*
X56826107Y-51950108D03*
X56826107Y-51050108D03*
X55926107Y-51050108D03*
X55926107Y-51950108D03*
X39711107Y-110141108D03*
X39711107Y-109241108D03*
X38811107Y-109241108D03*
X38811107Y-110141108D03*
X46557107Y-45104108D03*
X46557107Y-44204108D03*
X45657107Y-44204108D03*
X45657107Y-45104108D03*
X39711107Y-51950108D03*
X39711107Y-51050108D03*
X38811107Y-51050108D03*
X38811107Y-51950108D03*
X60249107Y-31412108D03*
X60249107Y-30512108D03*
X59349107Y-30512108D03*
X59349107Y-31412108D03*
X60249107Y-41681108D03*
X60249107Y-40781108D03*
X59349107Y-40781108D03*
X59349107Y-41681108D03*
X49980107Y-99872108D03*
X49980107Y-98972108D03*
X49080107Y-98972108D03*
X49080107Y-99872108D03*
X46557107Y-62219108D03*
X46557107Y-61319108D03*
X45657107Y-61319108D03*
X45657107Y-62219108D03*
X60249107Y-79334108D03*
X60249107Y-78434108D03*
X59349107Y-78434108D03*
X59349107Y-79334108D03*
X43134107Y-86180108D03*
X43134107Y-85280108D03*
X42234107Y-85280108D03*
X42234107Y-86180108D03*
X43134107Y-110141108D03*
X43134107Y-109241108D03*
X42234107Y-109241108D03*
X42234107Y-110141108D03*
X53403107Y-96449108D03*
X53403107Y-95549108D03*
X52503107Y-95549108D03*
X52503107Y-96449108D03*
X49980107Y-45104108D03*
X49980107Y-44204108D03*
X49080107Y-44204108D03*
X49080107Y-45104108D03*
X53403107Y-31412108D03*
X53403107Y-30512108D03*
X52503107Y-30512108D03*
X52503107Y-31412108D03*
X32865107Y-89603108D03*
X32865107Y-88703108D03*
X31965107Y-88703108D03*
X31965107Y-89603108D03*
D13*
X44325000Y-90103000D03*
X44325000Y-91653000D03*
D12*
X32865107Y-75911108D03*
X32865107Y-75011108D03*
X31965107Y-75011108D03*
X31965107Y-75911108D03*
X32865107Y-55373108D03*
X32865107Y-54473108D03*
X31965107Y-54473108D03*
X31965107Y-55373108D03*
X53403107Y-99872108D03*
X53403107Y-98972108D03*
X52503107Y-98972108D03*
X52503107Y-99872108D03*
X53403107Y-110141108D03*
X53403107Y-109241108D03*
X52503107Y-109241108D03*
X52503107Y-110141108D03*
X60249107Y-123833108D03*
X60249107Y-122933108D03*
X59349107Y-122933108D03*
X59349107Y-123833108D03*
X56826107Y-113564108D03*
X56826107Y-112664108D03*
X55926107Y-112664108D03*
X55926107Y-113564108D03*
D13*
X44325000Y-117487000D03*
X44325000Y-119037000D03*
D12*
X56826107Y-72488108D03*
X56826107Y-71588108D03*
X55926107Y-71588108D03*
X55926107Y-72488108D03*
D14*
X59580000Y-98093500D03*
X60600000Y-98093500D03*
D13*
X44325000Y-110641000D03*
X44325000Y-112191000D03*
D12*
X36288107Y-38258108D03*
X36288107Y-37358108D03*
X35388107Y-37358108D03*
X35388107Y-38258108D03*
X56826107Y-45104108D03*
X56826107Y-44204108D03*
X55926107Y-44204108D03*
X55926107Y-45104108D03*
X32865107Y-106718108D03*
X32865107Y-105818108D03*
X31965107Y-105818108D03*
X31965107Y-106718108D03*
X56826107Y-27989108D03*
X56826107Y-27089108D03*
X55926107Y-27089108D03*
X55926107Y-27989108D03*
X43134107Y-41681108D03*
X43134107Y-40781108D03*
X42234107Y-40781108D03*
X42234107Y-41681108D03*
X36288107Y-113564108D03*
X36288107Y-112664108D03*
X35388107Y-112664108D03*
X35388107Y-113564108D03*
X32865107Y-113564108D03*
X32865107Y-112664108D03*
X31965107Y-112664108D03*
X31965107Y-113564108D03*
D13*
X44325000Y-62719000D03*
X44325000Y-64269000D03*
D12*
X36288107Y-96449108D03*
X36288107Y-95549108D03*
X35388107Y-95549108D03*
X35388107Y-96449108D03*
X53403107Y-62219108D03*
X53403107Y-61319108D03*
X52503107Y-61319108D03*
X52503107Y-62219108D03*
X53403107Y-27989108D03*
X53403107Y-27089108D03*
X52503107Y-27089108D03*
X52503107Y-27989108D03*
X43134107Y-34835108D03*
X43134107Y-33935108D03*
X42234107Y-33935108D03*
X42234107Y-34835108D03*
X46557107Y-99872108D03*
X46557107Y-98972108D03*
X45657107Y-98972108D03*
X45657107Y-99872108D03*
X43134107Y-21143108D03*
X43134107Y-20243108D03*
X42234107Y-20243108D03*
X42234107Y-21143108D03*
D13*
X44325000Y-55873000D03*
X44325000Y-57423000D03*
D12*
X49980107Y-93026108D03*
X49980107Y-92126108D03*
X49080107Y-92126108D03*
X49080107Y-93026108D03*
X56826107Y-58796108D03*
X56826107Y-57896108D03*
X55926107Y-57896108D03*
X55926107Y-58796108D03*
X39711107Y-48527108D03*
X39711107Y-47627108D03*
X38811107Y-47627108D03*
X38811107Y-48527108D03*
X39711107Y-75911108D03*
X39711107Y-75011108D03*
X38811107Y-75011108D03*
X38811107Y-75911108D03*
X39711107Y-93026108D03*
X39711107Y-92126108D03*
X38811107Y-92126108D03*
X38811107Y-93026108D03*
X46557107Y-123833108D03*
X46557107Y-122933108D03*
X45657107Y-122933108D03*
X45657107Y-123833108D03*
X56826107Y-89603108D03*
X56826107Y-88703108D03*
X55926107Y-88703108D03*
X55926107Y-89603108D03*
X46557107Y-24566108D03*
X46557107Y-23666108D03*
X45657107Y-23666108D03*
X45657107Y-24566108D03*
X32865107Y-62219108D03*
X32865107Y-61319108D03*
X31965107Y-61319108D03*
X31965107Y-62219108D03*
X53403107Y-116987108D03*
X53403107Y-116087108D03*
X52503107Y-116087108D03*
X52503107Y-116987108D03*
X49980107Y-41681108D03*
X49980107Y-40781108D03*
X49080107Y-40781108D03*
X49080107Y-41681108D03*
X43134107Y-55373108D03*
X43134107Y-54473108D03*
X42234107Y-54473108D03*
X42234107Y-55373108D03*
X32865107Y-69065108D03*
X32865107Y-68165108D03*
X31965107Y-68165108D03*
X31965107Y-69065108D03*
X53403107Y-55373108D03*
X53403107Y-54473108D03*
X52503107Y-54473108D03*
X52503107Y-55373108D03*
X43134107Y-82757108D03*
X43134107Y-81857108D03*
X42234107Y-81857108D03*
X42234107Y-82757108D03*
X36288107Y-116987108D03*
X36288107Y-116087108D03*
X35388107Y-116087108D03*
X35388107Y-116987108D03*
D13*
X44325000Y-96949000D03*
X44325000Y-98499000D03*
D14*
X59607107Y-29593108D03*
X60627107Y-29593108D03*
X59580000Y-84393500D03*
X60600000Y-84393500D03*
D12*
X43134107Y-65642108D03*
X43134107Y-64742108D03*
X42234107Y-64742108D03*
X42234107Y-65642108D03*
X53403107Y-41681108D03*
X53403107Y-40781108D03*
X52503107Y-40781108D03*
X52503107Y-41681108D03*
X60249107Y-69065108D03*
X60249107Y-68165108D03*
X59349107Y-68165108D03*
X59349107Y-69065108D03*
X32865107Y-31412108D03*
X32865107Y-30512108D03*
X31965107Y-30512108D03*
X31965107Y-31412108D03*
X56826107Y-75911108D03*
X56826107Y-75011108D03*
X55926107Y-75011108D03*
X55926107Y-75911108D03*
X36288107Y-27989108D03*
X36288107Y-27089108D03*
X35388107Y-27089108D03*
X35388107Y-27989108D03*
X56826107Y-34835108D03*
X56826107Y-33935108D03*
X55926107Y-33935108D03*
X55926107Y-34835108D03*
X46557107Y-127256108D03*
X46557107Y-126356108D03*
X45657107Y-126356108D03*
X45657107Y-127256108D03*
X60249107Y-72488108D03*
X60249107Y-71588108D03*
X59349107Y-71588108D03*
X59349107Y-72488108D03*
X39711107Y-123833108D03*
X39711107Y-122933108D03*
X38811107Y-122933108D03*
X38811107Y-123833108D03*
X60249107Y-27989108D03*
X60249107Y-27089108D03*
X59349107Y-27089108D03*
X59349107Y-27989108D03*
X32865107Y-45104108D03*
X32865107Y-44204108D03*
X31965107Y-44204108D03*
X31965107Y-45104108D03*
X36288107Y-127256108D03*
X36288107Y-126356108D03*
X35388107Y-126356108D03*
X35388107Y-127256108D03*
X56826107Y-86180108D03*
X56826107Y-85280108D03*
X55926107Y-85280108D03*
X55926107Y-86180108D03*
X49980107Y-65642108D03*
X49980107Y-64742108D03*
X49080107Y-64742108D03*
X49080107Y-65642108D03*
X56826107Y-41681108D03*
X56826107Y-40781108D03*
X55926107Y-40781108D03*
X55926107Y-41681108D03*
X56826107Y-79334108D03*
X56826107Y-78434108D03*
X55926107Y-78434108D03*
X55926107Y-79334108D03*
X32865107Y-96449108D03*
X32865107Y-95549108D03*
X31965107Y-95549108D03*
X31965107Y-96449108D03*
X43134107Y-99872108D03*
X43134107Y-98972108D03*
X42234107Y-98972108D03*
X42234107Y-99872108D03*
X46557107Y-69065108D03*
X46557107Y-68165108D03*
X45657107Y-68165108D03*
X45657107Y-69065108D03*
X60249107Y-65642108D03*
X60249107Y-64742108D03*
X59349107Y-64742108D03*
X59349107Y-65642108D03*
X46557107Y-79334108D03*
X46557107Y-78434108D03*
X45657107Y-78434108D03*
X45657107Y-79334108D03*
X43134107Y-113564108D03*
X43134107Y-112664108D03*
X42234107Y-112664108D03*
X42234107Y-113564108D03*
X32865107Y-116987108D03*
X32865107Y-116087108D03*
X31965107Y-116087108D03*
X31965107Y-116987108D03*
X36288107Y-120410108D03*
X36288107Y-119510108D03*
X35388107Y-119510108D03*
X35388107Y-120410108D03*
X43134107Y-96449108D03*
X43134107Y-95549108D03*
X42234107Y-95549108D03*
X42234107Y-96449108D03*
X56826107Y-55373108D03*
X56826107Y-54473108D03*
X55926107Y-54473108D03*
X55926107Y-55373108D03*
X32865107Y-82757108D03*
X32865107Y-81857108D03*
X31965107Y-81857108D03*
X31965107Y-82757108D03*
X60249107Y-21143108D03*
X60249107Y-20243108D03*
X59349107Y-20243108D03*
X59349107Y-21143108D03*
X56826107Y-82757108D03*
X56826107Y-81857108D03*
X55926107Y-81857108D03*
X55926107Y-82757108D03*
X49980107Y-89603108D03*
X49980107Y-88703108D03*
X49080107Y-88703108D03*
X49080107Y-89603108D03*
X56826107Y-21143108D03*
X56826107Y-20243108D03*
X55926107Y-20243108D03*
X55926107Y-21143108D03*
X43134107Y-31412108D03*
X43134107Y-30512108D03*
X42234107Y-30512108D03*
X42234107Y-31412108D03*
X43134107Y-48527108D03*
X43134107Y-47627108D03*
X42234107Y-47627108D03*
X42234107Y-48527108D03*
X49980107Y-48527108D03*
X49980107Y-47627108D03*
X49080107Y-47627108D03*
X49080107Y-48527108D03*
X60249107Y-24566108D03*
X60249107Y-23666108D03*
X59349107Y-23666108D03*
X59349107Y-24566108D03*
X56826107Y-48527108D03*
X56826107Y-47627108D03*
X55926107Y-47627108D03*
X55926107Y-48527108D03*
X43134107Y-45104108D03*
X43134107Y-44204108D03*
X42234107Y-44204108D03*
X42234107Y-45104108D03*
X53403107Y-93026108D03*
X53403107Y-92126108D03*
X52503107Y-92126108D03*
X52503107Y-93026108D03*
X39711107Y-38258108D03*
X39711107Y-37358108D03*
X38811107Y-37358108D03*
X38811107Y-38258108D03*
D13*
X44325000Y-28489000D03*
X44325000Y-30039000D03*
D12*
X46557107Y-86180108D03*
X46557107Y-85280108D03*
X45657107Y-85280108D03*
X45657107Y-86180108D03*
X53403107Y-58796108D03*
X53403107Y-57896108D03*
X52503107Y-57896108D03*
X52503107Y-58796108D03*
X60249107Y-113564108D03*
X60249107Y-112664108D03*
X59349107Y-112664108D03*
X59349107Y-113564108D03*
X49980107Y-103295108D03*
X49980107Y-102395108D03*
X49080107Y-102395108D03*
X49080107Y-103295108D03*
X36288107Y-86180108D03*
X36288107Y-85280108D03*
X35388107Y-85280108D03*
X35388107Y-86180108D03*
X46557107Y-93026108D03*
X46557107Y-92126108D03*
X45657107Y-92126108D03*
X45657107Y-93026108D03*
X36288107Y-48527108D03*
X36288107Y-47627108D03*
X35388107Y-47627108D03*
X35388107Y-48527108D03*
X43134107Y-38258108D03*
X43134107Y-37358108D03*
X42234107Y-37358108D03*
X42234107Y-38258108D03*
X56826107Y-65642108D03*
X56826107Y-64742108D03*
X55926107Y-64742108D03*
X55926107Y-65642108D03*
X49980107Y-38258108D03*
X49980107Y-37358108D03*
X49080107Y-37358108D03*
X49080107Y-38258108D03*
X32865107Y-79334108D03*
X32865107Y-78434108D03*
X31965107Y-78434108D03*
X31965107Y-79334108D03*
X32865107Y-27989108D03*
X32865107Y-27089108D03*
X31965107Y-27089108D03*
X31965107Y-27989108D03*
X43134107Y-120410108D03*
X43134107Y-119510108D03*
X42234107Y-119510108D03*
X42234107Y-120410108D03*
X32865107Y-48527108D03*
X32865107Y-47627108D03*
X31965107Y-47627108D03*
X31965107Y-48527108D03*
X56826107Y-110141108D03*
X56826107Y-109241108D03*
X55926107Y-109241108D03*
X55926107Y-110141108D03*
X49980107Y-24566108D03*
X49980107Y-23666108D03*
X49080107Y-23666108D03*
X49080107Y-24566108D03*
X46557107Y-41681108D03*
X46557107Y-40781108D03*
X45657107Y-40781108D03*
X45657107Y-41681108D03*
X60249107Y-99872108D03*
X60249107Y-98972108D03*
X59349107Y-98972108D03*
X59349107Y-99872108D03*
D13*
X44325000Y-76411000D03*
X44325000Y-77961000D03*
D12*
X39711107Y-24566108D03*
X39711107Y-23666108D03*
X38811107Y-23666108D03*
X38811107Y-24566108D03*
X49980107Y-51950108D03*
X49980107Y-51050108D03*
X49080107Y-51050108D03*
X49080107Y-51950108D03*
X60249107Y-110141108D03*
X60249107Y-109241108D03*
X59349107Y-109241108D03*
X59349107Y-110141108D03*
D13*
X44325000Y-69565000D03*
X44325000Y-71115000D03*
D12*
X60249107Y-116987108D03*
X60249107Y-116087108D03*
X59349107Y-116087108D03*
X59349107Y-116987108D03*
X36288107Y-34835108D03*
X36288107Y-33935108D03*
X35388107Y-33935108D03*
X35388107Y-34835108D03*
X39711107Y-27989108D03*
X39711107Y-27089108D03*
X38811107Y-27089108D03*
X38811107Y-27989108D03*
X53403107Y-120410108D03*
X53403107Y-119510108D03*
X52503107Y-119510108D03*
X52503107Y-120410108D03*
X32865107Y-103295108D03*
X32865107Y-102395108D03*
X31965107Y-102395108D03*
X31965107Y-103295108D03*
D13*
X44325000Y-103795000D03*
X44325000Y-105345000D03*
X44325000Y-35335000D03*
X44325000Y-36885000D03*
X44325000Y-124333000D03*
X44325000Y-125883000D03*
D12*
X36288107Y-21143108D03*
X36288107Y-20243108D03*
X35388107Y-20243108D03*
X35388107Y-21143108D03*
X53403107Y-38258108D03*
X53403107Y-37358108D03*
X52503107Y-37358108D03*
X52503107Y-38258108D03*
X36288107Y-89603108D03*
X36288107Y-88703108D03*
X35388107Y-88703108D03*
X35388107Y-89603108D03*
X53403107Y-127256108D03*
X53403107Y-126356108D03*
X52503107Y-126356108D03*
X52503107Y-127256108D03*
X46557107Y-58796108D03*
X46557107Y-57896108D03*
X45657107Y-57896108D03*
X45657107Y-58796108D03*
X32865107Y-65642108D03*
X32865107Y-64742108D03*
X31965107Y-64742108D03*
X31965107Y-65642108D03*
X53403107Y-21143108D03*
X53403107Y-20243108D03*
X52503107Y-20243108D03*
X52503107Y-21143108D03*
X39711107Y-89603108D03*
X39711107Y-88703108D03*
X38811107Y-88703108D03*
X38811107Y-89603108D03*
X36288107Y-62219108D03*
X36288107Y-61319108D03*
X35388107Y-61319108D03*
X35388107Y-62219108D03*
X32865107Y-34835108D03*
X32865107Y-33935108D03*
X31965107Y-33935108D03*
X31965107Y-34835108D03*
X49980107Y-75911108D03*
X49980107Y-75011108D03*
X49080107Y-75011108D03*
X49080107Y-75911108D03*
X60249107Y-93026108D03*
X60249107Y-92126108D03*
X59349107Y-92126108D03*
X59349107Y-93026108D03*
X53403107Y-123833108D03*
X53403107Y-122933108D03*
X52503107Y-122933108D03*
X52503107Y-123833108D03*
D14*
X59699999Y-56992500D03*
X60719999Y-56992500D03*
D13*
X44325000Y-83257000D03*
X44325000Y-84807000D03*
D12*
X39711107Y-106718108D03*
X39711107Y-105818108D03*
X38811107Y-105818108D03*
X38811107Y-106718108D03*
%LPD*%
M02*
