M48
; DRILL file {KiCad 7.0.8} date Sat Oct 14 22:58:01 2023
; FORMAT={-:-/ absolute / metric / decimal}
; #@! TF.CreationDate,2023-10-14T22:58:01-04:00
; #@! TF.GenerationSoftware,Kicad,Pcbnew,7.0.8
; #@! TF.FileFunction,Plated,1,2,PTH
FMAT,2
METRIC
; #@! TA.AperFunction,Plated,PTH,ViaDrill
T1C0.254
%
G90
G05
T1
X31.173Y-110.927
X31.407Y-62.193
X31.449Y-103.852
X31.457Y-21.155
X31.68Y-114.791
X31.752Y-117.227
X31.889Y-101.093
X32.109Y-103.84
X32.124Y-105.41
X32.157Y-119.343
X32.607Y-117.643
X32.707Y-107.293
X33.485Y-119.992
X33.507Y-108.693
X33.541Y-114.593
X33.778Y-110.545
X33.857Y-122.443
X34.007Y-112.093
X34.076Y-109.549
X34.294Y-120.583
X34.507Y-19.693
X34.507Y-23.116
X34.507Y-26.539
X34.507Y-29.962
X34.507Y-33.385
X34.507Y-36.808
X34.507Y-40.231
X34.507Y-43.654
X34.507Y-47.077
X34.507Y-50.5
X34.507Y-53.923
X34.507Y-57.346
X34.507Y-60.769
X34.507Y-64.192
X34.507Y-67.615
X34.507Y-71.038
X34.507Y-74.461
X34.507Y-77.884
X34.507Y-81.307
X34.507Y-84.73
X34.507Y-88.153
X34.507Y-91.576
X34.507Y-94.999
X34.507Y-98.422
X34.507Y-101.845
X34.507Y-125.806
X35.307Y-32.903
X36.557Y-104.243
X36.907Y-108.693
X36.907Y-112.133
X36.939Y-119.992
X37.319Y-20.943
X37.319Y-24.366
X37.319Y-27.789
X37.319Y-31.212
X37.319Y-34.635
X37.319Y-38.058
X37.319Y-41.481
X37.319Y-44.904
X37.319Y-48.327
X37.319Y-51.75
X37.319Y-55.173
X37.319Y-58.596
X37.319Y-62.019
X37.319Y-65.442
X37.319Y-68.865
X37.319Y-72.288
X37.319Y-75.711
X37.319Y-79.134
X37.319Y-82.557
X37.319Y-85.98
X37.319Y-89.403
X37.319Y-92.826
X37.319Y-96.249
X37.319Y-99.672
X37.319Y-103.095
X37.483Y-113.719
X37.557Y-105.811
X37.907Y-101.893
X37.93Y-19.693
X37.93Y-23.116
X37.93Y-26.539
X37.93Y-29.962
X37.93Y-33.385
X37.93Y-36.808
X37.93Y-40.231
X37.93Y-43.654
X37.93Y-47.077
X37.93Y-50.5
X37.93Y-53.923
X37.93Y-57.346
X37.93Y-60.769
X37.93Y-64.192
X37.93Y-67.615
X37.93Y-71.038
X37.93Y-74.461
X37.93Y-77.884
X37.93Y-81.307
X37.93Y-84.73
X37.93Y-88.153
X37.93Y-91.576
X37.93Y-94.999
X37.93Y-98.422
X37.93Y-122.383
X37.93Y-125.806
X38.007Y-112.093
X38.136Y-121.022
X38.348Y-104.4
X38.693Y-111.311
X38.697Y-107.889
X38.796Y-114.851
X39.942Y-87.552
X40.272Y-107.693
X40.357Y-111.128
X40.407Y-112.093
X40.482Y-109.723
X40.807Y-46.476
X40.817Y-108.743
X40.907Y-105.293
X40.907Y-115.593
X41.257Y-107.568
X41.307Y-101.893
X41.307Y-118.993
X41.353Y-19.693
X41.353Y-23.116
X41.353Y-26.539
X41.353Y-29.962
X41.353Y-33.385
X41.353Y-36.808
X41.353Y-40.231
X41.353Y-43.654
X41.353Y-47.077
X41.353Y-50.5
X41.353Y-53.923
X41.353Y-57.346
X41.353Y-60.769
X41.353Y-64.192
X41.353Y-67.615
X41.353Y-71.038
X41.353Y-74.461
X41.353Y-77.884
X41.353Y-81.307
X41.353Y-84.73
X41.353Y-88.153
X41.353Y-91.576
X41.353Y-94.999
X41.353Y-98.422
X41.353Y-125.806
X43.107Y-104.093
X43.607Y-105.193
X44.707Y-101.893
X44.776Y-19.693
X44.776Y-23.116
X44.776Y-26.539
X44.776Y-29.962
X44.776Y-33.385
X44.776Y-36.808
X44.776Y-40.231
X44.776Y-43.654
X44.776Y-47.077
X44.776Y-50.5
X44.776Y-53.923
X44.776Y-57.346
X44.776Y-60.769
X44.776Y-64.192
X44.776Y-67.615
X44.776Y-71.038
X44.776Y-74.461
X44.776Y-77.884
X44.776Y-81.307
X44.776Y-84.73
X44.776Y-88.153
X44.776Y-91.576
X44.776Y-94.999
X44.776Y-98.422
X44.776Y-122.383
X44.776Y-125.806
X45.107Y-112.193
X47.207Y-105.293
X47.257Y-116.395
X47.507Y-92.847
X47.507Y-96.27
X47.507Y-99.693
X47.507Y-103.116
X47.957Y-116.395
X48.007Y-117.243
X48.199Y-19.693
X48.199Y-23.116
X48.199Y-26.539
X48.199Y-29.962
X48.199Y-33.385
X48.199Y-36.808
X48.199Y-40.231
X48.199Y-43.654
X48.199Y-47.077
X48.199Y-50.5
X48.199Y-53.923
X48.199Y-57.346
X48.199Y-60.769
X48.199Y-64.192
X48.199Y-67.615
X48.199Y-71.038
X48.199Y-74.461
X48.199Y-77.884
X48.199Y-81.307
X48.199Y-84.73
X48.199Y-88.153
X48.199Y-91.576
X48.199Y-94.999
X48.199Y-98.422
X48.199Y-122.383
X48.199Y-125.806
X48.307Y-101.893
X48.607Y-111.893
X48.749Y-107.823
X50.607Y-108.693
X51.011Y-27.789
X51.011Y-31.212
X51.011Y-34.635
X51.011Y-38.058
X51.011Y-41.481
X51.011Y-44.904
X51.011Y-48.327
X51.011Y-51.75
X51.011Y-55.173
X51.011Y-58.596
X51.011Y-62.019
X51.011Y-65.442
X51.011Y-68.865
X51.011Y-72.288
X51.011Y-75.711
X51.011Y-79.134
X51.011Y-82.557
X51.011Y-85.98
X51.011Y-89.403
X51.011Y-92.826
X51.015Y-115.987
X51.107Y-107.344
X51.607Y-108.693
X51.622Y-19.693
X51.622Y-23.116
X51.622Y-26.539
X51.622Y-29.962
X51.622Y-33.385
X51.622Y-36.808
X51.622Y-40.231
X51.622Y-43.654
X51.622Y-47.077
X51.622Y-50.5
X51.622Y-53.923
X51.622Y-57.346
X51.622Y-60.769
X51.622Y-64.192
X51.622Y-67.615
X51.622Y-71.038
X51.622Y-74.461
X51.622Y-77.884
X51.622Y-81.307
X51.622Y-84.73
X51.622Y-88.153
X51.622Y-91.576
X51.622Y-94.999
X51.622Y-98.422
X51.622Y-125.806
X51.707Y-101.893
X51.907Y-105.093
X54.132Y-118.061
X54.132Y-119.992
X54.307Y-92.847
X54.307Y-96.27
X54.307Y-99.693
X54.307Y-103.116
X54.792Y-119.992
X54.807Y-118.028
X54.907Y-105.293
X54.907Y-115.593
X54.907Y-118.993
X55.045Y-19.693
X55.045Y-23.116
X55.045Y-26.539
X55.045Y-29.962
X55.045Y-33.385
X55.045Y-36.808
X55.045Y-40.231
X55.045Y-43.654
X55.045Y-47.077
X55.045Y-50.5
X55.045Y-53.923
X55.045Y-57.346
X55.045Y-60.769
X55.045Y-64.192
X55.045Y-67.615
X55.045Y-71.038
X55.045Y-74.461
X55.045Y-77.884
X55.045Y-81.307
X55.045Y-84.73
X55.045Y-88.153
X55.045Y-91.576
X55.045Y-94.999
X55.045Y-98.422
X55.045Y-125.806
X55.107Y-101.893
X57.337Y-107.658
X57.447Y-112.109
X57.657Y-117.661
X57.857Y-20.943
X57.857Y-24.366
X57.857Y-27.789
X57.857Y-31.212
X57.857Y-34.635
X57.857Y-38.058
X57.857Y-41.481
X57.857Y-44.904
X57.857Y-48.327
X57.857Y-51.75
X57.857Y-55.173
X57.857Y-58.596
X57.857Y-62.019
X57.857Y-65.442
X57.857Y-68.865
X57.857Y-72.288
X57.857Y-75.711
X57.857Y-79.134
X57.857Y-82.557
X57.857Y-85.98
X57.857Y-89.403
X57.857Y-92.826
X57.857Y-96.249
X57.857Y-99.672
X57.857Y-103.095
X58.407Y-105.293
X58.468Y-19.693
X58.468Y-23.116
X58.468Y-26.539
X58.468Y-29.962
X58.468Y-33.385
X58.468Y-36.808
X58.468Y-40.231
X58.468Y-43.654
X58.468Y-47.077
X58.468Y-50.5
X58.468Y-53.923
X58.468Y-57.346
X58.468Y-60.769
X58.468Y-64.192
X58.468Y-67.615
X58.468Y-71.038
X58.468Y-74.461
X58.468Y-77.884
X58.468Y-81.307
X58.468Y-84.73
X58.468Y-88.153
X58.468Y-91.576
X58.468Y-94.999
X58.468Y-98.422
X58.468Y-125.806
X58.507Y-101.893
X58.507Y-118.993
X58.607Y-117.643
X58.748Y-112.964
X59.157Y-108.643
X59.257Y-118.625
X59.418Y-19.522
X59.507Y-50.259
X59.507Y-77.693
X59.507Y-91.335
X59.707Y-36.693
X59.707Y-63.951
X59.837Y-118.373
X59.903Y-60.675
X59.906Y-33.29
X59.928Y-74.314
X59.936Y-46.922
X59.974Y-87.96
X60.02Y-101.606
X60.348Y-25.934
T0
M30
