G04 #@! TF.GenerationSoftware,KiCad,Pcbnew,7.0.8*
G04 #@! TF.CreationDate,2023-10-22T01:26:06-04:00*
G04 #@! TF.ProjectId,MicrocontrollerInputModule,4d696372-6f63-46f6-9e74-726f6c6c6572,V2.6*
G04 #@! TF.SameCoordinates,Original*
G04 #@! TF.FileFunction,Soldermask,Top*
G04 #@! TF.FilePolarity,Negative*
%FSLAX46Y46*%
G04 Gerber Fmt 4.6, Leading zero omitted, Abs format (unit mm)*
G04 Created by KiCad (PCBNEW 7.0.8) date 2023-10-22 01:26:06*
%MOMM*%
%LPD*%
G01*
G04 APERTURE LIST*
G04 Aperture macros list*
%AMRoundRect*
0 Rectangle with rounded corners*
0 $1 Rounding radius*
0 $2 $3 $4 $5 $6 $7 $8 $9 X,Y pos of 4 corners*
0 Add a 4 corners polygon primitive as box body*
4,1,4,$2,$3,$4,$5,$6,$7,$8,$9,$2,$3,0*
0 Add four circle primitives for the rounded corners*
1,1,$1+$1,$2,$3*
1,1,$1+$1,$4,$5*
1,1,$1+$1,$6,$7*
1,1,$1+$1,$8,$9*
0 Add four rect primitives between the rounded corners*
20,1,$1+$1,$2,$3,$4,$5,0*
20,1,$1+$1,$4,$5,$6,$7,0*
20,1,$1+$1,$6,$7,$8,$9,0*
20,1,$1+$1,$8,$9,$2,$3,0*%
G04 Aperture macros list end*
%ADD10R,0.500000X0.500000*%
%ADD11RoundRect,0.225000X-0.250000X0.225000X-0.250000X-0.225000X0.250000X-0.225000X0.250000X0.225000X0*%
%ADD12RoundRect,0.135000X-0.135000X-0.185000X0.135000X-0.185000X0.135000X0.185000X-0.135000X0.185000X0*%
G04 APERTURE END LIST*
D10*
X56826107Y-116987108D03*
X56826107Y-116087108D03*
X55926107Y-116087108D03*
X55926107Y-116987108D03*
X46557107Y-96449108D03*
X46557107Y-95549108D03*
X45657107Y-95549108D03*
X45657107Y-96449108D03*
X60249107Y-55373108D03*
X60249107Y-54473108D03*
X59349107Y-54473108D03*
X59349107Y-55373108D03*
X53403107Y-34835108D03*
X53403107Y-33935108D03*
X52503107Y-33935108D03*
X52503107Y-34835108D03*
X39711107Y-116987108D03*
X39711107Y-116087108D03*
X38811107Y-116087108D03*
X38811107Y-116987108D03*
X32865107Y-99872108D03*
X32865107Y-98972108D03*
X31965107Y-98972108D03*
X31965107Y-99872108D03*
X49980107Y-69065108D03*
X49980107Y-68165108D03*
X49080107Y-68165108D03*
X49080107Y-69065108D03*
X43134107Y-62219108D03*
X43134107Y-61319108D03*
X42234107Y-61319108D03*
X42234107Y-62219108D03*
X46557107Y-72488108D03*
X46557107Y-71588108D03*
X45657107Y-71588108D03*
X45657107Y-72488108D03*
X60249107Y-58796108D03*
X60249107Y-57896108D03*
X59349107Y-57896108D03*
X59349107Y-58796108D03*
X46557107Y-75911108D03*
X46557107Y-75011108D03*
X45657107Y-75011108D03*
X45657107Y-75911108D03*
X39711107Y-41681108D03*
X39711107Y-40781108D03*
X38811107Y-40781108D03*
X38811107Y-41681108D03*
X60249107Y-86180108D03*
X60249107Y-85280108D03*
X59349107Y-85280108D03*
X59349107Y-86180108D03*
X39711107Y-79334108D03*
X39711107Y-78434108D03*
X38811107Y-78434108D03*
X38811107Y-79334108D03*
X36288107Y-79334108D03*
X36288107Y-78434108D03*
X35388107Y-78434108D03*
X35388107Y-79334108D03*
D11*
X44325000Y-42181000D03*
X44325000Y-43731000D03*
X44325000Y-21643000D03*
X44325000Y-23193000D03*
D10*
X49980107Y-110141108D03*
X49980107Y-109241108D03*
X49080107Y-109241108D03*
X49080107Y-110141108D03*
X46557107Y-65642108D03*
X46557107Y-64742108D03*
X45657107Y-64742108D03*
X45657107Y-65642108D03*
X56826107Y-123833108D03*
X56826107Y-122933108D03*
X55926107Y-122933108D03*
X55926107Y-123833108D03*
X60249107Y-106718108D03*
X60249107Y-105818108D03*
X59349107Y-105818108D03*
X59349107Y-106718108D03*
X32865107Y-127256108D03*
X32865107Y-126356108D03*
X31965107Y-126356108D03*
X31965107Y-127256108D03*
X36288107Y-41681108D03*
X36288107Y-40781108D03*
X35388107Y-40781108D03*
X35388107Y-41681108D03*
X46557107Y-106718108D03*
X46557107Y-105818108D03*
X45657107Y-105818108D03*
X45657107Y-106718108D03*
X56826107Y-99872108D03*
X56826107Y-98972108D03*
X55926107Y-98972108D03*
X55926107Y-99872108D03*
X46557107Y-110141108D03*
X46557107Y-109241108D03*
X45657107Y-109241108D03*
X45657107Y-110141108D03*
X49980107Y-72488108D03*
X49980107Y-71588108D03*
X49080107Y-71588108D03*
X49080107Y-72488108D03*
X39711107Y-62219108D03*
X39711107Y-61319108D03*
X38811107Y-61319108D03*
X38811107Y-62219108D03*
X60249107Y-127256108D03*
X60249107Y-126356108D03*
X59349107Y-126356108D03*
X59349107Y-127256108D03*
X49980107Y-34835108D03*
X49980107Y-33935108D03*
X49080107Y-33935108D03*
X49080107Y-34835108D03*
X36288107Y-75911108D03*
X36288107Y-75011108D03*
X35388107Y-75011108D03*
X35388107Y-75911108D03*
X43134107Y-103295108D03*
X43134107Y-102395108D03*
X42234107Y-102395108D03*
X42234107Y-103295108D03*
X56826107Y-31412108D03*
X56826107Y-30512108D03*
X55926107Y-30512108D03*
X55926107Y-31412108D03*
X49980107Y-96449108D03*
X49980107Y-95549108D03*
X49080107Y-95549108D03*
X49080107Y-96449108D03*
X36288107Y-58796108D03*
X36288107Y-57896108D03*
X35388107Y-57896108D03*
X35388107Y-58796108D03*
X53403107Y-51950108D03*
X53403107Y-51050108D03*
X52503107Y-51050108D03*
X52503107Y-51950108D03*
X43134107Y-127256108D03*
X43134107Y-126356108D03*
X42234107Y-126356108D03*
X42234107Y-127256108D03*
X39711107Y-65642108D03*
X39711107Y-64742108D03*
X38811107Y-64742108D03*
X38811107Y-65642108D03*
X43134107Y-123833108D03*
X43134107Y-122933108D03*
X42234107Y-122933108D03*
X42234107Y-123833108D03*
X39711107Y-127256108D03*
X39711107Y-126356108D03*
X38811107Y-126356108D03*
X38811107Y-127256108D03*
X32865107Y-51950108D03*
X32865107Y-51050108D03*
X31965107Y-51050108D03*
X31965107Y-51950108D03*
X53403107Y-113564108D03*
X53403107Y-112664108D03*
X52503107Y-112664108D03*
X52503107Y-113564108D03*
X53403107Y-79334108D03*
X53403107Y-78434108D03*
X52503107Y-78434108D03*
X52503107Y-79334108D03*
X36288107Y-31412108D03*
X36288107Y-30512108D03*
X35388107Y-30512108D03*
X35388107Y-31412108D03*
X49980107Y-116987108D03*
X49980107Y-116087108D03*
X49080107Y-116087108D03*
X49080107Y-116987108D03*
X60249107Y-45104108D03*
X60249107Y-44204108D03*
X59349107Y-44204108D03*
X59349107Y-45104108D03*
X46557107Y-103295108D03*
X46557107Y-102395108D03*
X45657107Y-102395108D03*
X45657107Y-103295108D03*
X36288107Y-72488108D03*
X36288107Y-71588108D03*
X35388107Y-71588108D03*
X35388107Y-72488108D03*
X43134107Y-79334108D03*
X43134107Y-78434108D03*
X42234107Y-78434108D03*
X42234107Y-79334108D03*
D12*
X59607107Y-43199608D03*
X60627107Y-43199608D03*
D10*
X36288107Y-65642108D03*
X36288107Y-64742108D03*
X35388107Y-64742108D03*
X35388107Y-65642108D03*
X39711107Y-21143108D03*
X39711107Y-20243108D03*
X38811107Y-20243108D03*
X38811107Y-21143108D03*
X56826107Y-103295108D03*
X56826107Y-102395108D03*
X55926107Y-102395108D03*
X55926107Y-103295108D03*
X39711107Y-58796108D03*
X39711107Y-57896108D03*
X38811107Y-57896108D03*
X38811107Y-58796108D03*
X32865107Y-72488108D03*
X32865107Y-71588108D03*
X31965107Y-71588108D03*
X31965107Y-72488108D03*
X36288107Y-99872108D03*
X36288107Y-98972108D03*
X35388107Y-98972108D03*
X35388107Y-99872108D03*
X46557107Y-48527108D03*
X46557107Y-47627108D03*
X45657107Y-47627108D03*
X45657107Y-48527108D03*
X49980107Y-86180108D03*
X49980107Y-85280108D03*
X49080107Y-85280108D03*
X49080107Y-86180108D03*
X46557107Y-113564108D03*
X46557107Y-112664108D03*
X45657107Y-112664108D03*
X45657107Y-113564108D03*
X39711107Y-69065108D03*
X39711107Y-68165108D03*
X38811107Y-68165108D03*
X38811107Y-69065108D03*
X60249107Y-62219108D03*
X60249107Y-61319108D03*
X59349107Y-61319108D03*
X59349107Y-62219108D03*
X46557107Y-21143108D03*
X46557107Y-20243108D03*
X45657107Y-20243108D03*
X45657107Y-21143108D03*
X32865107Y-93026108D03*
X32865107Y-92126108D03*
X31965107Y-92126108D03*
X31965107Y-93026108D03*
X60249107Y-51950108D03*
X60249107Y-51050108D03*
X59349107Y-51050108D03*
X59349107Y-51950108D03*
X32865107Y-110141108D03*
X32865107Y-109241108D03*
X31965107Y-109241108D03*
X31965107Y-110141108D03*
X60249107Y-75911108D03*
X60249107Y-75011108D03*
X59349107Y-75011108D03*
X59349107Y-75911108D03*
D12*
X59580000Y-111793500D03*
X60600000Y-111793500D03*
D10*
X36288107Y-69065108D03*
X36288107Y-68165108D03*
X35388107Y-68165108D03*
X35388107Y-69065108D03*
X43134107Y-72488108D03*
X43134107Y-71588108D03*
X42234107Y-71588108D03*
X42234107Y-72488108D03*
X53403107Y-89603108D03*
X53403107Y-88703108D03*
X52503107Y-88703108D03*
X52503107Y-89603108D03*
X56826107Y-127256108D03*
X56826107Y-126356108D03*
X55926107Y-126356108D03*
X55926107Y-127256108D03*
X32865107Y-58796108D03*
X32865107Y-57896108D03*
X31965107Y-57896108D03*
X31965107Y-58796108D03*
X39711107Y-96449108D03*
X39711107Y-95549108D03*
X38811107Y-95549108D03*
X38811107Y-96449108D03*
X46557107Y-55373108D03*
X46557107Y-54473108D03*
X45657107Y-54473108D03*
X45657107Y-55373108D03*
X49980107Y-120410108D03*
X49980107Y-119510108D03*
X49080107Y-119510108D03*
X49080107Y-120410108D03*
X32865107Y-86180108D03*
X32865107Y-85280108D03*
X31965107Y-85280108D03*
X31965107Y-86180108D03*
X46557107Y-27989108D03*
X46557107Y-27089108D03*
X45657107Y-27089108D03*
X45657107Y-27989108D03*
X60249107Y-48527108D03*
X60249107Y-47627108D03*
X59349107Y-47627108D03*
X59349107Y-48527108D03*
X36288107Y-55373108D03*
X36288107Y-54473108D03*
X35388107Y-54473108D03*
X35388107Y-55373108D03*
X49980107Y-106718108D03*
X49980107Y-105818108D03*
X49080107Y-105818108D03*
X49080107Y-106718108D03*
X46557107Y-38258108D03*
X46557107Y-37358108D03*
X45657107Y-37358108D03*
X45657107Y-38258108D03*
X53403107Y-45104108D03*
X53403107Y-44204108D03*
X52503107Y-44204108D03*
X52503107Y-45104108D03*
X46557107Y-31412108D03*
X46557107Y-30512108D03*
X45657107Y-30512108D03*
X45657107Y-31412108D03*
X43134107Y-58796108D03*
X43134107Y-57896108D03*
X42234107Y-57896108D03*
X42234107Y-58796108D03*
X43134107Y-89603108D03*
X43134107Y-88703108D03*
X42234107Y-88703108D03*
X42234107Y-89603108D03*
X32865107Y-24566108D03*
X32865107Y-23666108D03*
X31965107Y-23666108D03*
X31965107Y-24566108D03*
X36288107Y-51950108D03*
X36288107Y-51050108D03*
X35388107Y-51050108D03*
X35388107Y-51950108D03*
X36288107Y-93026108D03*
X36288107Y-92126108D03*
X35388107Y-92126108D03*
X35388107Y-93026108D03*
X56826107Y-106718108D03*
X56826107Y-105818108D03*
X55926107Y-105818108D03*
X55926107Y-106718108D03*
X43134107Y-51950108D03*
X43134107Y-51050108D03*
X42234107Y-51050108D03*
X42234107Y-51950108D03*
X39711107Y-120410108D03*
X39711107Y-119510108D03*
X38811107Y-119510108D03*
X38811107Y-120410108D03*
X60249107Y-96449108D03*
X60249107Y-95549108D03*
X59349107Y-95549108D03*
X59349107Y-96449108D03*
X60249107Y-38258108D03*
X60249107Y-37358108D03*
X59349107Y-37358108D03*
X59349107Y-38258108D03*
X43134107Y-75911108D03*
X43134107Y-75011108D03*
X42234107Y-75011108D03*
X42234107Y-75911108D03*
X39711107Y-72488108D03*
X39711107Y-71588108D03*
X38811107Y-71588108D03*
X38811107Y-72488108D03*
X43134107Y-106718108D03*
X43134107Y-105818108D03*
X42234107Y-105818108D03*
X42234107Y-106718108D03*
X49980107Y-82757108D03*
X49980107Y-81857108D03*
X49080107Y-81857108D03*
X49080107Y-82757108D03*
X49980107Y-55373108D03*
X49980107Y-54473108D03*
X49080107Y-54473108D03*
X49080107Y-55373108D03*
X36288107Y-106718108D03*
X36288107Y-105818108D03*
X35388107Y-105818108D03*
X35388107Y-106718108D03*
X49980107Y-113564108D03*
X49980107Y-112664108D03*
X49080107Y-112664108D03*
X49080107Y-113564108D03*
D11*
X44325000Y-49027000D03*
X44325000Y-50577000D03*
D10*
X32865107Y-123833108D03*
X32865107Y-122933108D03*
X31965107Y-122933108D03*
X31965107Y-123833108D03*
X46557107Y-51950108D03*
X46557107Y-51050108D03*
X45657107Y-51050108D03*
X45657107Y-51950108D03*
X53403107Y-86180108D03*
X53403107Y-85280108D03*
X52503107Y-85280108D03*
X52503107Y-86180108D03*
X39711107Y-103295108D03*
X39711107Y-102395108D03*
X38811107Y-102395108D03*
X38811107Y-103295108D03*
X46557107Y-34835108D03*
X46557107Y-33935108D03*
X45657107Y-33935108D03*
X45657107Y-34835108D03*
X36288107Y-110141108D03*
X36288107Y-109241108D03*
X35388107Y-109241108D03*
X35388107Y-110141108D03*
X43134107Y-24566108D03*
X43134107Y-23666108D03*
X42234107Y-23666108D03*
X42234107Y-24566108D03*
X46557107Y-82757108D03*
X46557107Y-81857108D03*
X45657107Y-81857108D03*
X45657107Y-82757108D03*
X36288107Y-103295108D03*
X36288107Y-102395108D03*
X35388107Y-102395108D03*
X35388107Y-103295108D03*
X53403107Y-82757108D03*
X53403107Y-81857108D03*
X52503107Y-81857108D03*
X52503107Y-82757108D03*
X39711107Y-113564108D03*
X39711107Y-112664108D03*
X38811107Y-112664108D03*
X38811107Y-113564108D03*
X60249107Y-82757108D03*
X60249107Y-81857108D03*
X59349107Y-81857108D03*
X59349107Y-82757108D03*
X49980107Y-21143108D03*
X49980107Y-20243108D03*
X49080107Y-20243108D03*
X49080107Y-21143108D03*
X49980107Y-123833108D03*
X49980107Y-122933108D03*
X49080107Y-122933108D03*
X49080107Y-123833108D03*
X46557107Y-89603108D03*
X46557107Y-88703108D03*
X45657107Y-88703108D03*
X45657107Y-89603108D03*
X36288107Y-82757108D03*
X36288107Y-81857108D03*
X35388107Y-81857108D03*
X35388107Y-82757108D03*
X60249107Y-120410108D03*
X60249107Y-119510108D03*
X59349107Y-119510108D03*
X59349107Y-120410108D03*
X53403107Y-75911108D03*
X53403107Y-75011108D03*
X52503107Y-75011108D03*
X52503107Y-75911108D03*
X49980107Y-127256108D03*
X49980107Y-126356108D03*
X49080107Y-126356108D03*
X49080107Y-127256108D03*
X53403107Y-103295108D03*
X53403107Y-102395108D03*
X52503107Y-102395108D03*
X52503107Y-103295108D03*
X32865107Y-120410108D03*
X32865107Y-119510108D03*
X31965107Y-119510108D03*
X31965107Y-120410108D03*
X49980107Y-31412108D03*
X49980107Y-30512108D03*
X49080107Y-30512108D03*
X49080107Y-31412108D03*
X32865107Y-38258108D03*
X32865107Y-37358108D03*
X31965107Y-37358108D03*
X31965107Y-38258108D03*
X53403107Y-24566108D03*
X53403107Y-23666108D03*
X52503107Y-23666108D03*
X52503107Y-24566108D03*
X39711107Y-82757108D03*
X39711107Y-81857108D03*
X38811107Y-81857108D03*
X38811107Y-82757108D03*
X56826107Y-93026108D03*
X56826107Y-92126108D03*
X55926107Y-92126108D03*
X55926107Y-93026108D03*
X49980107Y-79334108D03*
X49980107Y-78434108D03*
X49080107Y-78434108D03*
X49080107Y-79334108D03*
X49980107Y-27989108D03*
X49980107Y-27089108D03*
X49080107Y-27089108D03*
X49080107Y-27989108D03*
X53403107Y-72488108D03*
X53403107Y-71588108D03*
X52503107Y-71588108D03*
X52503107Y-72488108D03*
X36288107Y-45104108D03*
X36288107Y-44204108D03*
X35388107Y-44204108D03*
X35388107Y-45104108D03*
X56826107Y-96449108D03*
X56826107Y-95549108D03*
X55926107Y-95549108D03*
X55926107Y-96449108D03*
X60249107Y-103295108D03*
X60249107Y-102395108D03*
X59349107Y-102395108D03*
X59349107Y-103295108D03*
X49980107Y-62219108D03*
X49980107Y-61319108D03*
X49080107Y-61319108D03*
X49080107Y-62219108D03*
X56826107Y-38258108D03*
X56826107Y-37358108D03*
X55926107Y-37358108D03*
X55926107Y-38258108D03*
X39711107Y-45104108D03*
X39711107Y-44204108D03*
X38811107Y-44204108D03*
X38811107Y-45104108D03*
X36288107Y-123833108D03*
X36288107Y-122933108D03*
X35388107Y-122933108D03*
X35388107Y-123833108D03*
X39711107Y-31412108D03*
X39711107Y-30512108D03*
X38811107Y-30512108D03*
X38811107Y-31412108D03*
X39711107Y-86180108D03*
X39711107Y-85280108D03*
X38811107Y-85280108D03*
X38811107Y-86180108D03*
X53403107Y-69065108D03*
X53403107Y-68165108D03*
X52503107Y-68165108D03*
X52503107Y-69065108D03*
X39711107Y-55373108D03*
X39711107Y-54473108D03*
X38811107Y-54473108D03*
X38811107Y-55373108D03*
X56826107Y-69065108D03*
X56826107Y-68165108D03*
X55926107Y-68165108D03*
X55926107Y-69065108D03*
X53403107Y-106718108D03*
X53403107Y-105818108D03*
X52503107Y-105818108D03*
X52503107Y-106718108D03*
X43134107Y-27989108D03*
X43134107Y-27089108D03*
X42234107Y-27089108D03*
X42234107Y-27989108D03*
X46557107Y-120410108D03*
X46557107Y-119510108D03*
X45657107Y-119510108D03*
X45657107Y-120410108D03*
X49980107Y-58796108D03*
X49980107Y-57896108D03*
X49080107Y-57896108D03*
X49080107Y-58796108D03*
X53403107Y-65642108D03*
X53403107Y-64742108D03*
X52503107Y-64742108D03*
X52503107Y-65642108D03*
X43134107Y-69065108D03*
X43134107Y-68165108D03*
X42234107Y-68165108D03*
X42234107Y-69065108D03*
D12*
X59600000Y-70692500D03*
X60620000Y-70692500D03*
D10*
X39711107Y-99872108D03*
X39711107Y-98972108D03*
X38811107Y-98972108D03*
X38811107Y-99872108D03*
X56826107Y-24566108D03*
X56826107Y-23666108D03*
X55926107Y-23666108D03*
X55926107Y-24566108D03*
X56826107Y-62219108D03*
X56826107Y-61319108D03*
X55926107Y-61319108D03*
X55926107Y-62219108D03*
X56826107Y-120410108D03*
X56826107Y-119510108D03*
X55926107Y-119510108D03*
X55926107Y-120410108D03*
X43134107Y-93026108D03*
X43134107Y-92126108D03*
X42234107Y-92126108D03*
X42234107Y-93026108D03*
X46557107Y-116987108D03*
X46557107Y-116087108D03*
X45657107Y-116087108D03*
X45657107Y-116987108D03*
X36288107Y-24566108D03*
X36288107Y-23666108D03*
X35388107Y-23666108D03*
X35388107Y-24566108D03*
X32865107Y-41681108D03*
X32865107Y-40781108D03*
X31965107Y-40781108D03*
X31965107Y-41681108D03*
X60249107Y-89603108D03*
X60249107Y-88703108D03*
X59349107Y-88703108D03*
X59349107Y-89603108D03*
X53403107Y-48527108D03*
X53403107Y-47627108D03*
X52503107Y-47627108D03*
X52503107Y-48527108D03*
X32865107Y-21143108D03*
X32865107Y-20243108D03*
X31965107Y-20243108D03*
X31965107Y-21143108D03*
X39711107Y-34835108D03*
X39711107Y-33935108D03*
X38811107Y-33935108D03*
X38811107Y-34835108D03*
X60249107Y-34835108D03*
X60249107Y-33935108D03*
X59349107Y-33935108D03*
X59349107Y-34835108D03*
X43134107Y-116987108D03*
X43134107Y-116087108D03*
X42234107Y-116087108D03*
X42234107Y-116987108D03*
X56826107Y-51950108D03*
X56826107Y-51050108D03*
X55926107Y-51050108D03*
X55926107Y-51950108D03*
X39711107Y-110141108D03*
X39711107Y-109241108D03*
X38811107Y-109241108D03*
X38811107Y-110141108D03*
X46557107Y-45104108D03*
X46557107Y-44204108D03*
X45657107Y-44204108D03*
X45657107Y-45104108D03*
X39711107Y-51950108D03*
X39711107Y-51050108D03*
X38811107Y-51050108D03*
X38811107Y-51950108D03*
X60249107Y-31412108D03*
X60249107Y-30512108D03*
X59349107Y-30512108D03*
X59349107Y-31412108D03*
X60249107Y-41681108D03*
X60249107Y-40781108D03*
X59349107Y-40781108D03*
X59349107Y-41681108D03*
X49980107Y-99872108D03*
X49980107Y-98972108D03*
X49080107Y-98972108D03*
X49080107Y-99872108D03*
X46557107Y-62219108D03*
X46557107Y-61319108D03*
X45657107Y-61319108D03*
X45657107Y-62219108D03*
X60249107Y-79334108D03*
X60249107Y-78434108D03*
X59349107Y-78434108D03*
X59349107Y-79334108D03*
X43134107Y-86180108D03*
X43134107Y-85280108D03*
X42234107Y-85280108D03*
X42234107Y-86180108D03*
X43134107Y-110141108D03*
X43134107Y-109241108D03*
X42234107Y-109241108D03*
X42234107Y-110141108D03*
X53403107Y-96449108D03*
X53403107Y-95549108D03*
X52503107Y-95549108D03*
X52503107Y-96449108D03*
X49980107Y-45104108D03*
X49980107Y-44204108D03*
X49080107Y-44204108D03*
X49080107Y-45104108D03*
X53403107Y-31412108D03*
X53403107Y-30512108D03*
X52503107Y-30512108D03*
X52503107Y-31412108D03*
X32865107Y-89603108D03*
X32865107Y-88703108D03*
X31965107Y-88703108D03*
X31965107Y-89603108D03*
D11*
X44325000Y-90103000D03*
X44325000Y-91653000D03*
D10*
X32865107Y-75911108D03*
X32865107Y-75011108D03*
X31965107Y-75011108D03*
X31965107Y-75911108D03*
X32865107Y-55373108D03*
X32865107Y-54473108D03*
X31965107Y-54473108D03*
X31965107Y-55373108D03*
X53403107Y-99872108D03*
X53403107Y-98972108D03*
X52503107Y-98972108D03*
X52503107Y-99872108D03*
X53403107Y-110141108D03*
X53403107Y-109241108D03*
X52503107Y-109241108D03*
X52503107Y-110141108D03*
X60249107Y-123833108D03*
X60249107Y-122933108D03*
X59349107Y-122933108D03*
X59349107Y-123833108D03*
X56826107Y-113564108D03*
X56826107Y-112664108D03*
X55926107Y-112664108D03*
X55926107Y-113564108D03*
D11*
X44325000Y-117487000D03*
X44325000Y-119037000D03*
D10*
X56826107Y-72488108D03*
X56826107Y-71588108D03*
X55926107Y-71588108D03*
X55926107Y-72488108D03*
D12*
X59580000Y-98093500D03*
X60600000Y-98093500D03*
D11*
X44325000Y-110641000D03*
X44325000Y-112191000D03*
D10*
X36288107Y-38258108D03*
X36288107Y-37358108D03*
X35388107Y-37358108D03*
X35388107Y-38258108D03*
X56826107Y-45104108D03*
X56826107Y-44204108D03*
X55926107Y-44204108D03*
X55926107Y-45104108D03*
X32865107Y-106718108D03*
X32865107Y-105818108D03*
X31965107Y-105818108D03*
X31965107Y-106718108D03*
X56826107Y-27989108D03*
X56826107Y-27089108D03*
X55926107Y-27089108D03*
X55926107Y-27989108D03*
X43134107Y-41681108D03*
X43134107Y-40781108D03*
X42234107Y-40781108D03*
X42234107Y-41681108D03*
X36288107Y-113564108D03*
X36288107Y-112664108D03*
X35388107Y-112664108D03*
X35388107Y-113564108D03*
X32865107Y-113564108D03*
X32865107Y-112664108D03*
X31965107Y-112664108D03*
X31965107Y-113564108D03*
D11*
X44325000Y-62719000D03*
X44325000Y-64269000D03*
D10*
X36288107Y-96449108D03*
X36288107Y-95549108D03*
X35388107Y-95549108D03*
X35388107Y-96449108D03*
X53403107Y-62219108D03*
X53403107Y-61319108D03*
X52503107Y-61319108D03*
X52503107Y-62219108D03*
X53403107Y-27989108D03*
X53403107Y-27089108D03*
X52503107Y-27089108D03*
X52503107Y-27989108D03*
X43134107Y-34835108D03*
X43134107Y-33935108D03*
X42234107Y-33935108D03*
X42234107Y-34835108D03*
X46557107Y-99872108D03*
X46557107Y-98972108D03*
X45657107Y-98972108D03*
X45657107Y-99872108D03*
X43134107Y-21143108D03*
X43134107Y-20243108D03*
X42234107Y-20243108D03*
X42234107Y-21143108D03*
D11*
X44325000Y-55873000D03*
X44325000Y-57423000D03*
D10*
X49980107Y-93026108D03*
X49980107Y-92126108D03*
X49080107Y-92126108D03*
X49080107Y-93026108D03*
X56826107Y-58796108D03*
X56826107Y-57896108D03*
X55926107Y-57896108D03*
X55926107Y-58796108D03*
X39711107Y-48527108D03*
X39711107Y-47627108D03*
X38811107Y-47627108D03*
X38811107Y-48527108D03*
X39711107Y-75911108D03*
X39711107Y-75011108D03*
X38811107Y-75011108D03*
X38811107Y-75911108D03*
X39711107Y-93026108D03*
X39711107Y-92126108D03*
X38811107Y-92126108D03*
X38811107Y-93026108D03*
X46557107Y-123833108D03*
X46557107Y-122933108D03*
X45657107Y-122933108D03*
X45657107Y-123833108D03*
X56826107Y-89603108D03*
X56826107Y-88703108D03*
X55926107Y-88703108D03*
X55926107Y-89603108D03*
X46557107Y-24566108D03*
X46557107Y-23666108D03*
X45657107Y-23666108D03*
X45657107Y-24566108D03*
X32865107Y-62219108D03*
X32865107Y-61319108D03*
X31965107Y-61319108D03*
X31965107Y-62219108D03*
X53403107Y-116987108D03*
X53403107Y-116087108D03*
X52503107Y-116087108D03*
X52503107Y-116987108D03*
X49980107Y-41681108D03*
X49980107Y-40781108D03*
X49080107Y-40781108D03*
X49080107Y-41681108D03*
X43134107Y-55373108D03*
X43134107Y-54473108D03*
X42234107Y-54473108D03*
X42234107Y-55373108D03*
X32865107Y-69065108D03*
X32865107Y-68165108D03*
X31965107Y-68165108D03*
X31965107Y-69065108D03*
X53403107Y-55373108D03*
X53403107Y-54473108D03*
X52503107Y-54473108D03*
X52503107Y-55373108D03*
X43134107Y-82757108D03*
X43134107Y-81857108D03*
X42234107Y-81857108D03*
X42234107Y-82757108D03*
X36288107Y-116987108D03*
X36288107Y-116087108D03*
X35388107Y-116087108D03*
X35388107Y-116987108D03*
D11*
X44325000Y-96949000D03*
X44325000Y-98499000D03*
D12*
X59607107Y-29593108D03*
X60627107Y-29593108D03*
X59580000Y-84393500D03*
X60600000Y-84393500D03*
D10*
X43134107Y-65642108D03*
X43134107Y-64742108D03*
X42234107Y-64742108D03*
X42234107Y-65642108D03*
X53403107Y-41681108D03*
X53403107Y-40781108D03*
X52503107Y-40781108D03*
X52503107Y-41681108D03*
X60249107Y-69065108D03*
X60249107Y-68165108D03*
X59349107Y-68165108D03*
X59349107Y-69065108D03*
X32865107Y-31412108D03*
X32865107Y-30512108D03*
X31965107Y-30512108D03*
X31965107Y-31412108D03*
X56826107Y-75911108D03*
X56826107Y-75011108D03*
X55926107Y-75011108D03*
X55926107Y-75911108D03*
X36288107Y-27989108D03*
X36288107Y-27089108D03*
X35388107Y-27089108D03*
X35388107Y-27989108D03*
X56826107Y-34835108D03*
X56826107Y-33935108D03*
X55926107Y-33935108D03*
X55926107Y-34835108D03*
X46557107Y-127256108D03*
X46557107Y-126356108D03*
X45657107Y-126356108D03*
X45657107Y-127256108D03*
X60249107Y-72488108D03*
X60249107Y-71588108D03*
X59349107Y-71588108D03*
X59349107Y-72488108D03*
X39711107Y-123833108D03*
X39711107Y-122933108D03*
X38811107Y-122933108D03*
X38811107Y-123833108D03*
X60249107Y-27989108D03*
X60249107Y-27089108D03*
X59349107Y-27089108D03*
X59349107Y-27989108D03*
X32865107Y-45104108D03*
X32865107Y-44204108D03*
X31965107Y-44204108D03*
X31965107Y-45104108D03*
X36288107Y-127256108D03*
X36288107Y-126356108D03*
X35388107Y-126356108D03*
X35388107Y-127256108D03*
X56826107Y-86180108D03*
X56826107Y-85280108D03*
X55926107Y-85280108D03*
X55926107Y-86180108D03*
X49980107Y-65642108D03*
X49980107Y-64742108D03*
X49080107Y-64742108D03*
X49080107Y-65642108D03*
X56826107Y-41681108D03*
X56826107Y-40781108D03*
X55926107Y-40781108D03*
X55926107Y-41681108D03*
X56826107Y-79334108D03*
X56826107Y-78434108D03*
X55926107Y-78434108D03*
X55926107Y-79334108D03*
X32865107Y-96449108D03*
X32865107Y-95549108D03*
X31965107Y-95549108D03*
X31965107Y-96449108D03*
X43134107Y-99872108D03*
X43134107Y-98972108D03*
X42234107Y-98972108D03*
X42234107Y-99872108D03*
X46557107Y-69065108D03*
X46557107Y-68165108D03*
X45657107Y-68165108D03*
X45657107Y-69065108D03*
X60249107Y-65642108D03*
X60249107Y-64742108D03*
X59349107Y-64742108D03*
X59349107Y-65642108D03*
X46557107Y-79334108D03*
X46557107Y-78434108D03*
X45657107Y-78434108D03*
X45657107Y-79334108D03*
X43134107Y-113564108D03*
X43134107Y-112664108D03*
X42234107Y-112664108D03*
X42234107Y-113564108D03*
X32865107Y-116987108D03*
X32865107Y-116087108D03*
X31965107Y-116087108D03*
X31965107Y-116987108D03*
X36288107Y-120410108D03*
X36288107Y-119510108D03*
X35388107Y-119510108D03*
X35388107Y-120410108D03*
X43134107Y-96449108D03*
X43134107Y-95549108D03*
X42234107Y-95549108D03*
X42234107Y-96449108D03*
X56826107Y-55373108D03*
X56826107Y-54473108D03*
X55926107Y-54473108D03*
X55926107Y-55373108D03*
X32865107Y-82757108D03*
X32865107Y-81857108D03*
X31965107Y-81857108D03*
X31965107Y-82757108D03*
X60249107Y-21143108D03*
X60249107Y-20243108D03*
X59349107Y-20243108D03*
X59349107Y-21143108D03*
X56826107Y-82757108D03*
X56826107Y-81857108D03*
X55926107Y-81857108D03*
X55926107Y-82757108D03*
X49980107Y-89603108D03*
X49980107Y-88703108D03*
X49080107Y-88703108D03*
X49080107Y-89603108D03*
X56826107Y-21143108D03*
X56826107Y-20243108D03*
X55926107Y-20243108D03*
X55926107Y-21143108D03*
X43134107Y-31412108D03*
X43134107Y-30512108D03*
X42234107Y-30512108D03*
X42234107Y-31412108D03*
X43134107Y-48527108D03*
X43134107Y-47627108D03*
X42234107Y-47627108D03*
X42234107Y-48527108D03*
X49980107Y-48527108D03*
X49980107Y-47627108D03*
X49080107Y-47627108D03*
X49080107Y-48527108D03*
X60249107Y-24566108D03*
X60249107Y-23666108D03*
X59349107Y-23666108D03*
X59349107Y-24566108D03*
X56826107Y-48527108D03*
X56826107Y-47627108D03*
X55926107Y-47627108D03*
X55926107Y-48527108D03*
X43134107Y-45104108D03*
X43134107Y-44204108D03*
X42234107Y-44204108D03*
X42234107Y-45104108D03*
X53403107Y-93026108D03*
X53403107Y-92126108D03*
X52503107Y-92126108D03*
X52503107Y-93026108D03*
X39711107Y-38258108D03*
X39711107Y-37358108D03*
X38811107Y-37358108D03*
X38811107Y-38258108D03*
D11*
X44325000Y-28489000D03*
X44325000Y-30039000D03*
D10*
X46557107Y-86180108D03*
X46557107Y-85280108D03*
X45657107Y-85280108D03*
X45657107Y-86180108D03*
X53403107Y-58796108D03*
X53403107Y-57896108D03*
X52503107Y-57896108D03*
X52503107Y-58796108D03*
X60249107Y-113564108D03*
X60249107Y-112664108D03*
X59349107Y-112664108D03*
X59349107Y-113564108D03*
X49980107Y-103295108D03*
X49980107Y-102395108D03*
X49080107Y-102395108D03*
X49080107Y-103295108D03*
X36288107Y-86180108D03*
X36288107Y-85280108D03*
X35388107Y-85280108D03*
X35388107Y-86180108D03*
X46557107Y-93026108D03*
X46557107Y-92126108D03*
X45657107Y-92126108D03*
X45657107Y-93026108D03*
X36288107Y-48527108D03*
X36288107Y-47627108D03*
X35388107Y-47627108D03*
X35388107Y-48527108D03*
X43134107Y-38258108D03*
X43134107Y-37358108D03*
X42234107Y-37358108D03*
X42234107Y-38258108D03*
X56826107Y-65642108D03*
X56826107Y-64742108D03*
X55926107Y-64742108D03*
X55926107Y-65642108D03*
X49980107Y-38258108D03*
X49980107Y-37358108D03*
X49080107Y-37358108D03*
X49080107Y-38258108D03*
X32865107Y-79334108D03*
X32865107Y-78434108D03*
X31965107Y-78434108D03*
X31965107Y-79334108D03*
X32865107Y-27989108D03*
X32865107Y-27089108D03*
X31965107Y-27089108D03*
X31965107Y-27989108D03*
X43134107Y-120410108D03*
X43134107Y-119510108D03*
X42234107Y-119510108D03*
X42234107Y-120410108D03*
X32865107Y-48527108D03*
X32865107Y-47627108D03*
X31965107Y-47627108D03*
X31965107Y-48527108D03*
X56826107Y-110141108D03*
X56826107Y-109241108D03*
X55926107Y-109241108D03*
X55926107Y-110141108D03*
X49980107Y-24566108D03*
X49980107Y-23666108D03*
X49080107Y-23666108D03*
X49080107Y-24566108D03*
X46557107Y-41681108D03*
X46557107Y-40781108D03*
X45657107Y-40781108D03*
X45657107Y-41681108D03*
X60249107Y-99872108D03*
X60249107Y-98972108D03*
X59349107Y-98972108D03*
X59349107Y-99872108D03*
D11*
X44325000Y-76411000D03*
X44325000Y-77961000D03*
D10*
X39711107Y-24566108D03*
X39711107Y-23666108D03*
X38811107Y-23666108D03*
X38811107Y-24566108D03*
X49980107Y-51950108D03*
X49980107Y-51050108D03*
X49080107Y-51050108D03*
X49080107Y-51950108D03*
X60249107Y-110141108D03*
X60249107Y-109241108D03*
X59349107Y-109241108D03*
X59349107Y-110141108D03*
D11*
X44325000Y-69565000D03*
X44325000Y-71115000D03*
D10*
X60249107Y-116987108D03*
X60249107Y-116087108D03*
X59349107Y-116087108D03*
X59349107Y-116987108D03*
X36288107Y-34835108D03*
X36288107Y-33935108D03*
X35388107Y-33935108D03*
X35388107Y-34835108D03*
X39711107Y-27989108D03*
X39711107Y-27089108D03*
X38811107Y-27089108D03*
X38811107Y-27989108D03*
X53403107Y-120410108D03*
X53403107Y-119510108D03*
X52503107Y-119510108D03*
X52503107Y-120410108D03*
X32865107Y-103295108D03*
X32865107Y-102395108D03*
X31965107Y-102395108D03*
X31965107Y-103295108D03*
D11*
X44325000Y-103795000D03*
X44325000Y-105345000D03*
X44325000Y-35335000D03*
X44325000Y-36885000D03*
X44325000Y-124333000D03*
X44325000Y-125883000D03*
D10*
X36288107Y-21143108D03*
X36288107Y-20243108D03*
X35388107Y-20243108D03*
X35388107Y-21143108D03*
X53403107Y-38258108D03*
X53403107Y-37358108D03*
X52503107Y-37358108D03*
X52503107Y-38258108D03*
X36288107Y-89603108D03*
X36288107Y-88703108D03*
X35388107Y-88703108D03*
X35388107Y-89603108D03*
X53403107Y-127256108D03*
X53403107Y-126356108D03*
X52503107Y-126356108D03*
X52503107Y-127256108D03*
X46557107Y-58796108D03*
X46557107Y-57896108D03*
X45657107Y-57896108D03*
X45657107Y-58796108D03*
X32865107Y-65642108D03*
X32865107Y-64742108D03*
X31965107Y-64742108D03*
X31965107Y-65642108D03*
X53403107Y-21143108D03*
X53403107Y-20243108D03*
X52503107Y-20243108D03*
X52503107Y-21143108D03*
X39711107Y-89603108D03*
X39711107Y-88703108D03*
X38811107Y-88703108D03*
X38811107Y-89603108D03*
X36288107Y-62219108D03*
X36288107Y-61319108D03*
X35388107Y-61319108D03*
X35388107Y-62219108D03*
X32865107Y-34835108D03*
X32865107Y-33935108D03*
X31965107Y-33935108D03*
X31965107Y-34835108D03*
X49980107Y-75911108D03*
X49980107Y-75011108D03*
X49080107Y-75011108D03*
X49080107Y-75911108D03*
X60249107Y-93026108D03*
X60249107Y-92126108D03*
X59349107Y-92126108D03*
X59349107Y-93026108D03*
X53403107Y-123833108D03*
X53403107Y-122933108D03*
X52503107Y-122933108D03*
X52503107Y-123833108D03*
D12*
X59699999Y-56992500D03*
X60719999Y-56992500D03*
D11*
X44325000Y-83257000D03*
X44325000Y-84807000D03*
D10*
X39711107Y-106718108D03*
X39711107Y-105818108D03*
X38811107Y-105818108D03*
X38811107Y-106718108D03*
M02*
