%TF.GenerationSoftware,KiCad,Pcbnew,8.0.1*%
%TF.CreationDate,2024-04-01T01:15:32-04:00*%
%TF.ProjectId,MicrocontrollerInputModule,4d696372-6f63-46f6-9e74-726f6c6c6572,V3.0*%
%TF.SameCoordinates,Original*%
%TF.FileFunction,Legend,Top*%
%TF.FilePolarity,Positive*%
%FSLAX46Y46*%
G04 Gerber Fmt 4.6, Leading zero omitted, Abs format (unit mm)*
G04 Created by KiCad (PCBNEW 8.0.1) date 2024-04-01 01:15:32*
%MOMM*%
%LPD*%
G01*
G04 APERTURE LIST*
%ADD10C,0.100000*%
%ADD11R,0.500000X0.500000*%
G04 APERTURE END LIST*
D10*
%TO.C,N260*%
X27594000Y13213000D02*
G75*
G02*
X27544000Y13213000I-25000J0D01*
G01*
X27544000Y13213000D02*
G75*
G02*
X27594000Y13213000I25000J0D01*
G01*
%TO.C,N203*%
X17325000Y33751000D02*
G75*
G02*
X17275000Y33751000I-25000J0D01*
G01*
X17275000Y33751000D02*
G75*
G02*
X17325000Y33751000I25000J0D01*
G01*
%TO.C,N99*%
X31017000Y74827000D02*
G75*
G02*
X30967000Y74827000I-25000J0D01*
G01*
X30967000Y74827000D02*
G75*
G02*
X31017000Y74827000I25000J0D01*
G01*
%TO.C,N43*%
X24171000Y95365000D02*
G75*
G02*
X24121000Y95365000I-25000J0D01*
G01*
X24121000Y95365000D02*
G75*
G02*
X24171000Y95365000I25000J0D01*
G01*
%TO.C,N255*%
X10479000Y13213000D02*
G75*
G02*
X10429000Y13213000I-25000J0D01*
G01*
X10429000Y13213000D02*
G75*
G02*
X10479000Y13213000I25000J0D01*
G01*
%TO.C,N208*%
X3633000Y30328000D02*
G75*
G02*
X3583000Y30328000I-25000J0D01*
G01*
X3583000Y30328000D02*
G75*
G02*
X3633000Y30328000I25000J0D01*
G01*
%TO.C,N132*%
X20748000Y61135000D02*
G75*
G02*
X20698000Y61135000I-25000J0D01*
G01*
X20698000Y61135000D02*
G75*
G02*
X20748000Y61135000I25000J0D01*
G01*
%TO.C,N112*%
X13902000Y67981000D02*
G75*
G02*
X13852000Y67981000I-25000J0D01*
G01*
X13852000Y67981000D02*
G75*
G02*
X13902000Y67981000I25000J0D01*
G01*
%TO.C,N140*%
X17325000Y57712000D02*
G75*
G02*
X17275000Y57712000I-25000J0D01*
G01*
X17275000Y57712000D02*
G75*
G02*
X17325000Y57712000I25000J0D01*
G01*
%TO.C,N108*%
X31017000Y71404000D02*
G75*
G02*
X30967000Y71404000I-25000J0D01*
G01*
X30967000Y71404000D02*
G75*
G02*
X31017000Y71404000I25000J0D01*
G01*
%TO.C,N149*%
X17325000Y54289000D02*
G75*
G02*
X17275000Y54289000I-25000J0D01*
G01*
X17275000Y54289000D02*
G75*
G02*
X17325000Y54289000I25000J0D01*
G01*
%TO.C,N57*%
X10479000Y88519000D02*
G75*
G02*
X10429000Y88519000I-25000J0D01*
G01*
X10429000Y88519000D02*
G75*
G02*
X10479000Y88519000I25000J0D01*
G01*
%TO.C,N180*%
X31017000Y44020000D02*
G75*
G02*
X30967000Y44020000I-25000J0D01*
G01*
X30967000Y44020000D02*
G75*
G02*
X31017000Y44020000I25000J0D01*
G01*
%TO.C,N156*%
X10479000Y50866000D02*
G75*
G02*
X10429000Y50866000I-25000J0D01*
G01*
X10429000Y50866000D02*
G75*
G02*
X10479000Y50866000I25000J0D01*
G01*
%TO.C,N155*%
X7056000Y50866000D02*
G75*
G02*
X7006000Y50866000I-25000J0D01*
G01*
X7006000Y50866000D02*
G75*
G02*
X7056000Y50866000I25000J0D01*
G01*
%TO.C,N240*%
X20748000Y20059000D02*
G75*
G02*
X20698000Y20059000I-25000J0D01*
G01*
X20698000Y20059000D02*
G75*
G02*
X20748000Y20059000I25000J0D01*
G01*
%TO.C,N122*%
X17325000Y64558000D02*
G75*
G02*
X17275000Y64558000I-25000J0D01*
G01*
X17275000Y64558000D02*
G75*
G02*
X17325000Y64558000I25000J0D01*
G01*
%TO.C,N278*%
X27594000Y6367000D02*
G75*
G02*
X27544000Y6367000I-25000J0D01*
G01*
X27544000Y6367000D02*
G75*
G02*
X27594000Y6367000I25000J0D01*
G01*
%TO.C,N234*%
X31017000Y23482000D02*
G75*
G02*
X30967000Y23482000I-25000J0D01*
G01*
X30967000Y23482000D02*
G75*
G02*
X31017000Y23482000I25000J0D01*
G01*
%TO.C,N280*%
X3633000Y2944000D02*
G75*
G02*
X3583000Y2944000I-25000J0D01*
G01*
X3583000Y2944000D02*
G75*
G02*
X3633000Y2944000I25000J0D01*
G01*
%TO.C,N56*%
X7056000Y88519000D02*
G75*
G02*
X7006000Y88519000I-25000J0D01*
G01*
X7006000Y88519000D02*
G75*
G02*
X7056000Y88519000I25000J0D01*
G01*
%TO.C,N230*%
X17325000Y23482000D02*
G75*
G02*
X17275000Y23482000I-25000J0D01*
G01*
X17275000Y23482000D02*
G75*
G02*
X17325000Y23482000I25000J0D01*
G01*
%TO.C,N215*%
X27594000Y30328000D02*
G75*
G02*
X27544000Y30328000I-25000J0D01*
G01*
X27544000Y30328000D02*
G75*
G02*
X27594000Y30328000I25000J0D01*
G01*
%TO.C,N239*%
X17325000Y20059000D02*
G75*
G02*
X17275000Y20059000I-25000J0D01*
G01*
X17275000Y20059000D02*
G75*
G02*
X17325000Y20059000I25000J0D01*
G01*
%TO.C,N141*%
X20748000Y57712000D02*
G75*
G02*
X20698000Y57712000I-25000J0D01*
G01*
X20698000Y57712000D02*
G75*
G02*
X20748000Y57712000I25000J0D01*
G01*
%TO.C,N111*%
X10479000Y67981000D02*
G75*
G02*
X10429000Y67981000I-25000J0D01*
G01*
X10429000Y67981000D02*
G75*
G02*
X10479000Y67981000I25000J0D01*
G01*
%TO.C,N288*%
X31017000Y2944000D02*
G75*
G02*
X30967000Y2944000I-25000J0D01*
G01*
X30967000Y2944000D02*
G75*
G02*
X31017000Y2944000I25000J0D01*
G01*
%TO.C,N42*%
X20748000Y95365000D02*
G75*
G02*
X20698000Y95365000I-25000J0D01*
G01*
X20698000Y95365000D02*
G75*
G02*
X20748000Y95365000I25000J0D01*
G01*
%TO.C,N146*%
X7056000Y54289000D02*
G75*
G02*
X7006000Y54289000I-25000J0D01*
G01*
X7006000Y54289000D02*
G75*
G02*
X7056000Y54289000I25000J0D01*
G01*
%TO.C,N220*%
X13902000Y26905000D02*
G75*
G02*
X13852000Y26905000I-25000J0D01*
G01*
X13852000Y26905000D02*
G75*
G02*
X13902000Y26905000I25000J0D01*
G01*
%TO.C,N35*%
X27594000Y98788000D02*
G75*
G02*
X27544000Y98788000I-25000J0D01*
G01*
X27544000Y98788000D02*
G75*
G02*
X27594000Y98788000I25000J0D01*
G01*
%TO.C,N204*%
X20748000Y33751000D02*
G75*
G02*
X20698000Y33751000I-25000J0D01*
G01*
X20698000Y33751000D02*
G75*
G02*
X20748000Y33751000I25000J0D01*
G01*
%TO.C,N101*%
X7056000Y71404000D02*
G75*
G02*
X7006000Y71404000I-25000J0D01*
G01*
X7006000Y71404000D02*
G75*
G02*
X7056000Y71404000I25000J0D01*
G01*
%TO.C,N88*%
X24171000Y78250000D02*
G75*
G02*
X24121000Y78250000I-25000J0D01*
G01*
X24121000Y78250000D02*
G75*
G02*
X24171000Y78250000I25000J0D01*
G01*
%TO.C,N283*%
X13902000Y2944000D02*
G75*
G02*
X13852000Y2944000I-25000J0D01*
G01*
X13852000Y2944000D02*
G75*
G02*
X13902000Y2944000I25000J0D01*
G01*
%TO.C,N120*%
X10479000Y64558000D02*
G75*
G02*
X10429000Y64558000I-25000J0D01*
G01*
X10429000Y64558000D02*
G75*
G02*
X10479000Y64558000I25000J0D01*
G01*
%TO.C,N274*%
X13902000Y6367000D02*
G75*
G02*
X13852000Y6367000I-25000J0D01*
G01*
X13852000Y6367000D02*
G75*
G02*
X13902000Y6367000I25000J0D01*
G01*
%TO.C,N282*%
X10479000Y2944000D02*
G75*
G02*
X10429000Y2944000I-25000J0D01*
G01*
X10429000Y2944000D02*
G75*
G02*
X10479000Y2944000I25000J0D01*
G01*
%TO.C,N82*%
X3633000Y78250000D02*
G75*
G02*
X3583000Y78250000I-25000J0D01*
G01*
X3583000Y78250000D02*
G75*
G02*
X3633000Y78250000I25000J0D01*
G01*
%TO.C,N250*%
X24171000Y16636000D02*
G75*
G02*
X24121000Y16636000I-25000J0D01*
G01*
X24121000Y16636000D02*
G75*
G02*
X24171000Y16636000I25000J0D01*
G01*
%TO.C,N160*%
X24171000Y50866000D02*
G75*
G02*
X24121000Y50866000I-25000J0D01*
G01*
X24121000Y50866000D02*
G75*
G02*
X24171000Y50866000I25000J0D01*
G01*
%TO.C,N29*%
X7056000Y98788000D02*
G75*
G02*
X7006000Y98788000I-25000J0D01*
G01*
X7006000Y98788000D02*
G75*
G02*
X7056000Y98788000I25000J0D01*
G01*
%TO.C,N258*%
X20748000Y13213000D02*
G75*
G02*
X20698000Y13213000I-25000J0D01*
G01*
X20698000Y13213000D02*
G75*
G02*
X20748000Y13213000I25000J0D01*
G01*
%TO.C,N72*%
X31017000Y85096000D02*
G75*
G02*
X30967000Y85096000I-25000J0D01*
G01*
X30967000Y85096000D02*
G75*
G02*
X31017000Y85096000I25000J0D01*
G01*
%TO.C,N221*%
X17325000Y26905000D02*
G75*
G02*
X17275000Y26905000I-25000J0D01*
G01*
X17275000Y26905000D02*
G75*
G02*
X17325000Y26905000I25000J0D01*
G01*
%TO.C,N137*%
X7056000Y57712000D02*
G75*
G02*
X7006000Y57712000I-25000J0D01*
G01*
X7006000Y57712000D02*
G75*
G02*
X7056000Y57712000I25000J0D01*
G01*
%TO.C,N157*%
X13902000Y50866000D02*
G75*
G02*
X13852000Y50866000I-25000J0D01*
G01*
X13852000Y50866000D02*
G75*
G02*
X13902000Y50866000I25000J0D01*
G01*
%TO.C,N119*%
X7056000Y64558000D02*
G75*
G02*
X7006000Y64558000I-25000J0D01*
G01*
X7006000Y64558000D02*
G75*
G02*
X7056000Y64558000I25000J0D01*
G01*
%TO.C,N3*%
X10479000Y109057000D02*
G75*
G02*
X10429000Y109057000I-25000J0D01*
G01*
X10429000Y109057000D02*
G75*
G02*
X10479000Y109057000I25000J0D01*
G01*
%TO.C,N224*%
X27594000Y26905000D02*
G75*
G02*
X27544000Y26905000I-25000J0D01*
G01*
X27544000Y26905000D02*
G75*
G02*
X27594000Y26905000I25000J0D01*
G01*
%TO.C,N102*%
X10479000Y71404000D02*
G75*
G02*
X10429000Y71404000I-25000J0D01*
G01*
X10429000Y71404000D02*
G75*
G02*
X10479000Y71404000I25000J0D01*
G01*
%TO.C,N136*%
X3633000Y57712000D02*
G75*
G02*
X3583000Y57712000I-25000J0D01*
G01*
X3583000Y57712000D02*
G75*
G02*
X3633000Y57712000I25000J0D01*
G01*
%TO.C,N209*%
X7056000Y30328000D02*
G75*
G02*
X7006000Y30328000I-25000J0D01*
G01*
X7006000Y30328000D02*
G75*
G02*
X7056000Y30328000I25000J0D01*
G01*
%TO.C,N77*%
X17325000Y81673000D02*
G75*
G02*
X17275000Y81673000I-25000J0D01*
G01*
X17275000Y81673000D02*
G75*
G02*
X17325000Y81673000I25000J0D01*
G01*
%TO.C,N177*%
X20748000Y44020000D02*
G75*
G02*
X20698000Y44020000I-25000J0D01*
G01*
X20698000Y44020000D02*
G75*
G02*
X20748000Y44020000I25000J0D01*
G01*
%TO.C,N248*%
X17325000Y16636000D02*
G75*
G02*
X17275000Y16636000I-25000J0D01*
G01*
X17275000Y16636000D02*
G75*
G02*
X17325000Y16636000I25000J0D01*
G01*
%TO.C,N129*%
X10479000Y61135000D02*
G75*
G02*
X10429000Y61135000I-25000J0D01*
G01*
X10429000Y61135000D02*
G75*
G02*
X10479000Y61135000I25000J0D01*
G01*
%TO.C,N117*%
X31017000Y67981000D02*
G75*
G02*
X30967000Y67981000I-25000J0D01*
G01*
X30967000Y67981000D02*
G75*
G02*
X31017000Y67981000I25000J0D01*
G01*
%TO.C,N5*%
X17325000Y109057000D02*
G75*
G02*
X17275000Y109057000I-25000J0D01*
G01*
X17275000Y109057000D02*
G75*
G02*
X17325000Y109057000I25000J0D01*
G01*
%TO.C,N190*%
X3633000Y37174000D02*
G75*
G02*
X3583000Y37174000I-25000J0D01*
G01*
X3583000Y37174000D02*
G75*
G02*
X3633000Y37174000I25000J0D01*
G01*
%TO.C,N90*%
X31017000Y78250000D02*
G75*
G02*
X30967000Y78250000I-25000J0D01*
G01*
X30967000Y78250000D02*
G75*
G02*
X31017000Y78250000I25000J0D01*
G01*
%TO.C,N235*%
X3633000Y20059000D02*
G75*
G02*
X3583000Y20059000I-25000J0D01*
G01*
X3583000Y20059000D02*
G75*
G02*
X3633000Y20059000I25000J0D01*
G01*
%TO.C,N153*%
X31017000Y54289000D02*
G75*
G02*
X30967000Y54289000I-25000J0D01*
G01*
X30967000Y54289000D02*
G75*
G02*
X31017000Y54289000I25000J0D01*
G01*
%TO.C,N128*%
X7056000Y61135000D02*
G75*
G02*
X7006000Y61135000I-25000J0D01*
G01*
X7006000Y61135000D02*
G75*
G02*
X7056000Y61135000I25000J0D01*
G01*
%TO.C,N139*%
X13902000Y57712000D02*
G75*
G02*
X13852000Y57712000I-25000J0D01*
G01*
X13852000Y57712000D02*
G75*
G02*
X13902000Y57712000I25000J0D01*
G01*
%TO.C,N187*%
X24171000Y40597000D02*
G75*
G02*
X24121000Y40597000I-25000J0D01*
G01*
X24121000Y40597000D02*
G75*
G02*
X24171000Y40597000I25000J0D01*
G01*
%TO.C,N287*%
X27594000Y2944000D02*
G75*
G02*
X27544000Y2944000I-25000J0D01*
G01*
X27544000Y2944000D02*
G75*
G02*
X27594000Y2944000I25000J0D01*
G01*
%TO.C,N100*%
X3633000Y71404000D02*
G75*
G02*
X3583000Y71404000I-25000J0D01*
G01*
X3583000Y71404000D02*
G75*
G02*
X3633000Y71404000I25000J0D01*
G01*
%TO.C,N201*%
X10479000Y33751000D02*
G75*
G02*
X10429000Y33751000I-25000J0D01*
G01*
X10429000Y33751000D02*
G75*
G02*
X10479000Y33751000I25000J0D01*
G01*
%TO.C,N95*%
X17325000Y74827000D02*
G75*
G02*
X17275000Y74827000I-25000J0D01*
G01*
X17275000Y74827000D02*
G75*
G02*
X17325000Y74827000I25000J0D01*
G01*
%TO.C,N267*%
X20748000Y9790000D02*
G75*
G02*
X20698000Y9790000I-25000J0D01*
G01*
X20698000Y9790000D02*
G75*
G02*
X20748000Y9790000I25000J0D01*
G01*
%TO.C,N172*%
X3633000Y44020000D02*
G75*
G02*
X3583000Y44020000I-25000J0D01*
G01*
X3583000Y44020000D02*
G75*
G02*
X3633000Y44020000I25000J0D01*
G01*
%TO.C,N23*%
X17325000Y102211000D02*
G75*
G02*
X17275000Y102211000I-25000J0D01*
G01*
X17275000Y102211000D02*
G75*
G02*
X17325000Y102211000I25000J0D01*
G01*
%TO.C,N81*%
X31017000Y81673000D02*
G75*
G02*
X30967000Y81673000I-25000J0D01*
G01*
X30967000Y81673000D02*
G75*
G02*
X31017000Y81673000I25000J0D01*
G01*
%TO.C,N92*%
X7056000Y74827000D02*
G75*
G02*
X7006000Y74827000I-25000J0D01*
G01*
X7006000Y74827000D02*
G75*
G02*
X7056000Y74827000I25000J0D01*
G01*
%TO.C,N231*%
X20748000Y23482000D02*
G75*
G02*
X20698000Y23482000I-25000J0D01*
G01*
X20698000Y23482000D02*
G75*
G02*
X20748000Y23482000I25000J0D01*
G01*
%TO.C,N50*%
X17325000Y91942000D02*
G75*
G02*
X17275000Y91942000I-25000J0D01*
G01*
X17275000Y91942000D02*
G75*
G02*
X17325000Y91942000I25000J0D01*
G01*
%TO.C,N70*%
X24171000Y85096000D02*
G75*
G02*
X24121000Y85096000I-25000J0D01*
G01*
X24121000Y85096000D02*
G75*
G02*
X24171000Y85096000I25000J0D01*
G01*
%TO.C,N32*%
X17325000Y98788000D02*
G75*
G02*
X17275000Y98788000I-25000J0D01*
G01*
X17275000Y98788000D02*
G75*
G02*
X17325000Y98788000I25000J0D01*
G01*
%TO.C,N103*%
X13902000Y71404000D02*
G75*
G02*
X13852000Y71404000I-25000J0D01*
G01*
X13852000Y71404000D02*
G75*
G02*
X13902000Y71404000I25000J0D01*
G01*
%TO.C,N184*%
X13902000Y40597000D02*
G75*
G02*
X13852000Y40597000I-25000J0D01*
G01*
X13852000Y40597000D02*
G75*
G02*
X13902000Y40597000I25000J0D01*
G01*
%TO.C,N10*%
X3633000Y105634000D02*
G75*
G02*
X3583000Y105634000I-25000J0D01*
G01*
X3583000Y105634000D02*
G75*
G02*
X3633000Y105634000I25000J0D01*
G01*
%TO.C,N83*%
X7056000Y78250000D02*
G75*
G02*
X7006000Y78250000I-25000J0D01*
G01*
X7006000Y78250000D02*
G75*
G02*
X7056000Y78250000I25000J0D01*
G01*
%TO.C,N191*%
X7056000Y37174000D02*
G75*
G02*
X7006000Y37174000I-25000J0D01*
G01*
X7006000Y37174000D02*
G75*
G02*
X7056000Y37174000I25000J0D01*
G01*
%TO.C,N233*%
X27594000Y23482000D02*
G75*
G02*
X27544000Y23482000I-25000J0D01*
G01*
X27544000Y23482000D02*
G75*
G02*
X27594000Y23482000I25000J0D01*
G01*
%TO.C,N85*%
X13902000Y78250000D02*
G75*
G02*
X13852000Y78250000I-25000J0D01*
G01*
X13852000Y78250000D02*
G75*
G02*
X13902000Y78250000I25000J0D01*
G01*
%TO.C,N264*%
X10479000Y9790000D02*
G75*
G02*
X10429000Y9790000I-25000J0D01*
G01*
X10429000Y9790000D02*
G75*
G02*
X10479000Y9790000I25000J0D01*
G01*
%TO.C,N207*%
X31017000Y33751000D02*
G75*
G02*
X30967000Y33751000I-25000J0D01*
G01*
X30967000Y33751000D02*
G75*
G02*
X31017000Y33751000I25000J0D01*
G01*
%TO.C,N54*%
X31017000Y91942000D02*
G75*
G02*
X30967000Y91942000I-25000J0D01*
G01*
X30967000Y91942000D02*
G75*
G02*
X31017000Y91942000I25000J0D01*
G01*
%TO.C,N148*%
X13902000Y54289000D02*
G75*
G02*
X13852000Y54289000I-25000J0D01*
G01*
X13852000Y54289000D02*
G75*
G02*
X13902000Y54289000I25000J0D01*
G01*
%TO.C,N138*%
X10479000Y57712000D02*
G75*
G02*
X10429000Y57712000I-25000J0D01*
G01*
X10429000Y57712000D02*
G75*
G02*
X10479000Y57712000I25000J0D01*
G01*
%TO.C,N229*%
X13902000Y23482000D02*
G75*
G02*
X13852000Y23482000I-25000J0D01*
G01*
X13852000Y23482000D02*
G75*
G02*
X13902000Y23482000I25000J0D01*
G01*
%TO.C,N168*%
X20748000Y47443000D02*
G75*
G02*
X20698000Y47443000I-25000J0D01*
G01*
X20698000Y47443000D02*
G75*
G02*
X20748000Y47443000I25000J0D01*
G01*
%TO.C,N96*%
X20748000Y74827000D02*
G75*
G02*
X20698000Y74827000I-25000J0D01*
G01*
X20698000Y74827000D02*
G75*
G02*
X20748000Y74827000I25000J0D01*
G01*
%TO.C,N227*%
X7056000Y23482000D02*
G75*
G02*
X7006000Y23482000I-25000J0D01*
G01*
X7006000Y23482000D02*
G75*
G02*
X7056000Y23482000I25000J0D01*
G01*
%TO.C,N249*%
X20748000Y16636000D02*
G75*
G02*
X20698000Y16636000I-25000J0D01*
G01*
X20698000Y16636000D02*
G75*
G02*
X20748000Y16636000I25000J0D01*
G01*
%TO.C,N271*%
X3633000Y6367000D02*
G75*
G02*
X3583000Y6367000I-25000J0D01*
G01*
X3583000Y6367000D02*
G75*
G02*
X3633000Y6367000I25000J0D01*
G01*
%TO.C,N86*%
X17325000Y78250000D02*
G75*
G02*
X17275000Y78250000I-25000J0D01*
G01*
X17275000Y78250000D02*
G75*
G02*
X17325000Y78250000I25000J0D01*
G01*
%TO.C,N178*%
X24171000Y44020000D02*
G75*
G02*
X24121000Y44020000I-25000J0D01*
G01*
X24121000Y44020000D02*
G75*
G02*
X24171000Y44020000I25000J0D01*
G01*
%TO.C,N219*%
X10479000Y26905000D02*
G75*
G02*
X10429000Y26905000I-25000J0D01*
G01*
X10429000Y26905000D02*
G75*
G02*
X10479000Y26905000I25000J0D01*
G01*
%TO.C,N41*%
X17325000Y95365000D02*
G75*
G02*
X17275000Y95365000I-25000J0D01*
G01*
X17275000Y95365000D02*
G75*
G02*
X17325000Y95365000I25000J0D01*
G01*
%TO.C,N236*%
X7056000Y20059000D02*
G75*
G02*
X7006000Y20059000I-25000J0D01*
G01*
X7006000Y20059000D02*
G75*
G02*
X7056000Y20059000I25000J0D01*
G01*
%TO.C,N13*%
X13902000Y105634000D02*
G75*
G02*
X13852000Y105634000I-25000J0D01*
G01*
X13852000Y105634000D02*
G75*
G02*
X13902000Y105634000I25000J0D01*
G01*
%TO.C,N167*%
X17325000Y47443000D02*
G75*
G02*
X17275000Y47443000I-25000J0D01*
G01*
X17275000Y47443000D02*
G75*
G02*
X17325000Y47443000I25000J0D01*
G01*
%TO.C,N218*%
X7056000Y26905000D02*
G75*
G02*
X7006000Y26905000I-25000J0D01*
G01*
X7006000Y26905000D02*
G75*
G02*
X7056000Y26905000I25000J0D01*
G01*
%TO.C,N169*%
X24171000Y47443000D02*
G75*
G02*
X24121000Y47443000I-25000J0D01*
G01*
X24121000Y47443000D02*
G75*
G02*
X24171000Y47443000I25000J0D01*
G01*
%TO.C,N246*%
X10479000Y16636000D02*
G75*
G02*
X10429000Y16636000I-25000J0D01*
G01*
X10429000Y16636000D02*
G75*
G02*
X10479000Y16636000I25000J0D01*
G01*
%TO.C,N171*%
X31017000Y47443000D02*
G75*
G02*
X30967000Y47443000I-25000J0D01*
G01*
X30967000Y47443000D02*
G75*
G02*
X31017000Y47443000I25000J0D01*
G01*
%TO.C,N6*%
X20748000Y109057000D02*
G75*
G02*
X20698000Y109057000I-25000J0D01*
G01*
X20698000Y109057000D02*
G75*
G02*
X20748000Y109057000I25000J0D01*
G01*
%TO.C,N276*%
X20748000Y6367000D02*
G75*
G02*
X20698000Y6367000I-25000J0D01*
G01*
X20698000Y6367000D02*
G75*
G02*
X20748000Y6367000I25000J0D01*
G01*
%TO.C,N185*%
X17325000Y40597000D02*
G75*
G02*
X17275000Y40597000I-25000J0D01*
G01*
X17275000Y40597000D02*
G75*
G02*
X17325000Y40597000I25000J0D01*
G01*
%TO.C,N164*%
X7056000Y47443000D02*
G75*
G02*
X7006000Y47443000I-25000J0D01*
G01*
X7006000Y47443000D02*
G75*
G02*
X7056000Y47443000I25000J0D01*
G01*
%TO.C,N270*%
X31017000Y9790000D02*
G75*
G02*
X30967000Y9790000I-25000J0D01*
G01*
X30967000Y9790000D02*
G75*
G02*
X31017000Y9790000I25000J0D01*
G01*
%TO.C,N151*%
X24171000Y54289000D02*
G75*
G02*
X24121000Y54289000I-25000J0D01*
G01*
X24121000Y54289000D02*
G75*
G02*
X24171000Y54289000I25000J0D01*
G01*
%TO.C,N285*%
X20748000Y2944000D02*
G75*
G02*
X20698000Y2944000I-25000J0D01*
G01*
X20698000Y2944000D02*
G75*
G02*
X20748000Y2944000I25000J0D01*
G01*
%TO.C,N223*%
X24171000Y26905000D02*
G75*
G02*
X24121000Y26905000I-25000J0D01*
G01*
X24121000Y26905000D02*
G75*
G02*
X24171000Y26905000I25000J0D01*
G01*
%TO.C,N262*%
X3633000Y9790000D02*
G75*
G02*
X3583000Y9790000I-25000J0D01*
G01*
X3583000Y9790000D02*
G75*
G02*
X3633000Y9790000I25000J0D01*
G01*
%TO.C,N33*%
X20748000Y98788000D02*
G75*
G02*
X20698000Y98788000I-25000J0D01*
G01*
X20698000Y98788000D02*
G75*
G02*
X20748000Y98788000I25000J0D01*
G01*
%TO.C,N46*%
X3633000Y91942000D02*
G75*
G02*
X3583000Y91942000I-25000J0D01*
G01*
X3583000Y91942000D02*
G75*
G02*
X3633000Y91942000I25000J0D01*
G01*
%TO.C,N16*%
X24171000Y105634000D02*
G75*
G02*
X24121000Y105634000I-25000J0D01*
G01*
X24121000Y105634000D02*
G75*
G02*
X24171000Y105634000I25000J0D01*
G01*
%TO.C,N165*%
X10479000Y47443000D02*
G75*
G02*
X10429000Y47443000I-25000J0D01*
G01*
X10429000Y47443000D02*
G75*
G02*
X10479000Y47443000I25000J0D01*
G01*
%TO.C,N197*%
X27594000Y37174000D02*
G75*
G02*
X27544000Y37174000I-25000J0D01*
G01*
X27544000Y37174000D02*
G75*
G02*
X27594000Y37174000I25000J0D01*
G01*
%TO.C,N159*%
X20748000Y50866000D02*
G75*
G02*
X20698000Y50866000I-25000J0D01*
G01*
X20698000Y50866000D02*
G75*
G02*
X20748000Y50866000I25000J0D01*
G01*
%TO.C,N24*%
X20748000Y102211000D02*
G75*
G02*
X20698000Y102211000I-25000J0D01*
G01*
X20698000Y102211000D02*
G75*
G02*
X20748000Y102211000I25000J0D01*
G01*
%TO.C,N142*%
X24171000Y57712000D02*
G75*
G02*
X24121000Y57712000I-25000J0D01*
G01*
X24121000Y57712000D02*
G75*
G02*
X24171000Y57712000I25000J0D01*
G01*
%TO.C,N65*%
X7056000Y85096000D02*
G75*
G02*
X7006000Y85096000I-25000J0D01*
G01*
X7006000Y85096000D02*
G75*
G02*
X7056000Y85096000I25000J0D01*
G01*
%TO.C,N206*%
X27594000Y33751000D02*
G75*
G02*
X27544000Y33751000I-25000J0D01*
G01*
X27544000Y33751000D02*
G75*
G02*
X27594000Y33751000I25000J0D01*
G01*
%TO.C,N225*%
X31017000Y26905000D02*
G75*
G02*
X30967000Y26905000I-25000J0D01*
G01*
X30967000Y26905000D02*
G75*
G02*
X31017000Y26905000I25000J0D01*
G01*
%TO.C,N114*%
X20748000Y67981000D02*
G75*
G02*
X20698000Y67981000I-25000J0D01*
G01*
X20698000Y67981000D02*
G75*
G02*
X20748000Y67981000I25000J0D01*
G01*
%TO.C,N53*%
X27594000Y91942000D02*
G75*
G02*
X27544000Y91942000I-25000J0D01*
G01*
X27544000Y91942000D02*
G75*
G02*
X27594000Y91942000I25000J0D01*
G01*
%TO.C,N66*%
X10479000Y85096000D02*
G75*
G02*
X10429000Y85096000I-25000J0D01*
G01*
X10429000Y85096000D02*
G75*
G02*
X10479000Y85096000I25000J0D01*
G01*
%TO.C,N272*%
X7056000Y6367000D02*
G75*
G02*
X7006000Y6367000I-25000J0D01*
G01*
X7006000Y6367000D02*
G75*
G02*
X7056000Y6367000I25000J0D01*
G01*
%TO.C,N30*%
X10479000Y98788000D02*
G75*
G02*
X10429000Y98788000I-25000J0D01*
G01*
X10429000Y98788000D02*
G75*
G02*
X10479000Y98788000I25000J0D01*
G01*
%TO.C,N174*%
X10479000Y44020000D02*
G75*
G02*
X10429000Y44020000I-25000J0D01*
G01*
X10429000Y44020000D02*
G75*
G02*
X10479000Y44020000I25000J0D01*
G01*
%TO.C,N133*%
X24171000Y61135000D02*
G75*
G02*
X24121000Y61135000I-25000J0D01*
G01*
X24121000Y61135000D02*
G75*
G02*
X24171000Y61135000I25000J0D01*
G01*
%TO.C,N93*%
X10479000Y74827000D02*
G75*
G02*
X10429000Y74827000I-25000J0D01*
G01*
X10429000Y74827000D02*
G75*
G02*
X10479000Y74827000I25000J0D01*
G01*
%TO.C,N134*%
X27594000Y61135000D02*
G75*
G02*
X27544000Y61135000I-25000J0D01*
G01*
X27544000Y61135000D02*
G75*
G02*
X27594000Y61135000I25000J0D01*
G01*
%TO.C,N232*%
X24171000Y23482000D02*
G75*
G02*
X24121000Y23482000I-25000J0D01*
G01*
X24121000Y23482000D02*
G75*
G02*
X24171000Y23482000I25000J0D01*
G01*
%TO.C,N22*%
X13902000Y102211000D02*
G75*
G02*
X13852000Y102211000I-25000J0D01*
G01*
X13852000Y102211000D02*
G75*
G02*
X13902000Y102211000I25000J0D01*
G01*
%TO.C,N266*%
X17325000Y9790000D02*
G75*
G02*
X17275000Y9790000I-25000J0D01*
G01*
X17275000Y9790000D02*
G75*
G02*
X17325000Y9790000I25000J0D01*
G01*
%TO.C,N105*%
X20748000Y71404000D02*
G75*
G02*
X20698000Y71404000I-25000J0D01*
G01*
X20698000Y71404000D02*
G75*
G02*
X20748000Y71404000I25000J0D01*
G01*
%TO.C,N124*%
X24171000Y64558000D02*
G75*
G02*
X24121000Y64558000I-25000J0D01*
G01*
X24121000Y64558000D02*
G75*
G02*
X24171000Y64558000I25000J0D01*
G01*
%TO.C,N130*%
X13902000Y61135000D02*
G75*
G02*
X13852000Y61135000I-25000J0D01*
G01*
X13852000Y61135000D02*
G75*
G02*
X13902000Y61135000I25000J0D01*
G01*
%TO.C,N210*%
X10479000Y30328000D02*
G75*
G02*
X10429000Y30328000I-25000J0D01*
G01*
X10429000Y30328000D02*
G75*
G02*
X10479000Y30328000I25000J0D01*
G01*
%TO.C,N17*%
X27594000Y105634000D02*
G75*
G02*
X27544000Y105634000I-25000J0D01*
G01*
X27544000Y105634000D02*
G75*
G02*
X27594000Y105634000I25000J0D01*
G01*
%TO.C,N116*%
X27594000Y67981000D02*
G75*
G02*
X27544000Y67981000I-25000J0D01*
G01*
X27544000Y67981000D02*
G75*
G02*
X27594000Y67981000I25000J0D01*
G01*
%TO.C,N269*%
X27594000Y9790000D02*
G75*
G02*
X27544000Y9790000I-25000J0D01*
G01*
X27544000Y9790000D02*
G75*
G02*
X27594000Y9790000I25000J0D01*
G01*
%TO.C,N193*%
X13902000Y37174000D02*
G75*
G02*
X13852000Y37174000I-25000J0D01*
G01*
X13852000Y37174000D02*
G75*
G02*
X13902000Y37174000I25000J0D01*
G01*
%TO.C,N257*%
X17325000Y13213000D02*
G75*
G02*
X17275000Y13213000I-25000J0D01*
G01*
X17275000Y13213000D02*
G75*
G02*
X17325000Y13213000I25000J0D01*
G01*
%TO.C,N11*%
X7056000Y105634000D02*
G75*
G02*
X7006000Y105634000I-25000J0D01*
G01*
X7006000Y105634000D02*
G75*
G02*
X7056000Y105634000I25000J0D01*
G01*
%TO.C,N55*%
X3633000Y88519000D02*
G75*
G02*
X3583000Y88519000I-25000J0D01*
G01*
X3583000Y88519000D02*
G75*
G02*
X3633000Y88519000I25000J0D01*
G01*
%TO.C,N189*%
X31017000Y40597000D02*
G75*
G02*
X30967000Y40597000I-25000J0D01*
G01*
X30967000Y40597000D02*
G75*
G02*
X31017000Y40597000I25000J0D01*
G01*
%TO.C,N79*%
X24171000Y81673000D02*
G75*
G02*
X24121000Y81673000I-25000J0D01*
G01*
X24121000Y81673000D02*
G75*
G02*
X24171000Y81673000I25000J0D01*
G01*
%TO.C,N1*%
X3633000Y109057000D02*
G75*
G02*
X3583000Y109057000I-25000J0D01*
G01*
X3583000Y109057000D02*
G75*
G02*
X3633000Y109057000I25000J0D01*
G01*
%TO.C,N39*%
X10479000Y95365000D02*
G75*
G02*
X10429000Y95365000I-25000J0D01*
G01*
X10429000Y95365000D02*
G75*
G02*
X10479000Y95365000I25000J0D01*
G01*
%TO.C,N45*%
X31017000Y95365000D02*
G75*
G02*
X30967000Y95365000I-25000J0D01*
G01*
X30967000Y95365000D02*
G75*
G02*
X31017000Y95365000I25000J0D01*
G01*
%TO.C,N256*%
X13902000Y13213000D02*
G75*
G02*
X13852000Y13213000I-25000J0D01*
G01*
X13852000Y13213000D02*
G75*
G02*
X13902000Y13213000I25000J0D01*
G01*
%TO.C,N89*%
X27594000Y78250000D02*
G75*
G02*
X27544000Y78250000I-25000J0D01*
G01*
X27544000Y78250000D02*
G75*
G02*
X27594000Y78250000I25000J0D01*
G01*
%TO.C,N237*%
X10479000Y20059000D02*
G75*
G02*
X10429000Y20059000I-25000J0D01*
G01*
X10429000Y20059000D02*
G75*
G02*
X10479000Y20059000I25000J0D01*
G01*
%TO.C,N68*%
X17325000Y85096000D02*
G75*
G02*
X17275000Y85096000I-25000J0D01*
G01*
X17275000Y85096000D02*
G75*
G02*
X17325000Y85096000I25000J0D01*
G01*
%TO.C,N84*%
X10479000Y78250000D02*
G75*
G02*
X10429000Y78250000I-25000J0D01*
G01*
X10429000Y78250000D02*
G75*
G02*
X10479000Y78250000I25000J0D01*
G01*
%TO.C,N36*%
X31017000Y98788000D02*
G75*
G02*
X30967000Y98788000I-25000J0D01*
G01*
X30967000Y98788000D02*
G75*
G02*
X31017000Y98788000I25000J0D01*
G01*
%TO.C,N63*%
X31017000Y88519000D02*
G75*
G02*
X30967000Y88519000I-25000J0D01*
G01*
X30967000Y88519000D02*
G75*
G02*
X31017000Y88519000I25000J0D01*
G01*
%TO.C,N213*%
X20748000Y30328000D02*
G75*
G02*
X20698000Y30328000I-25000J0D01*
G01*
X20698000Y30328000D02*
G75*
G02*
X20748000Y30328000I25000J0D01*
G01*
%TO.C,N113*%
X17325000Y67981000D02*
G75*
G02*
X17275000Y67981000I-25000J0D01*
G01*
X17275000Y67981000D02*
G75*
G02*
X17325000Y67981000I25000J0D01*
G01*
%TO.C,N162*%
X31017000Y50866000D02*
G75*
G02*
X30967000Y50866000I-25000J0D01*
G01*
X30967000Y50866000D02*
G75*
G02*
X31017000Y50866000I25000J0D01*
G01*
%TO.C,N175*%
X13902000Y44020000D02*
G75*
G02*
X13852000Y44020000I-25000J0D01*
G01*
X13852000Y44020000D02*
G75*
G02*
X13902000Y44020000I25000J0D01*
G01*
%TO.C,N238*%
X13902000Y20059000D02*
G75*
G02*
X13852000Y20059000I-25000J0D01*
G01*
X13852000Y20059000D02*
G75*
G02*
X13902000Y20059000I25000J0D01*
G01*
%TO.C,N205*%
X24171000Y33751000D02*
G75*
G02*
X24121000Y33751000I-25000J0D01*
G01*
X24121000Y33751000D02*
G75*
G02*
X24171000Y33751000I25000J0D01*
G01*
%TO.C,N69*%
X20748000Y85096000D02*
G75*
G02*
X20698000Y85096000I-25000J0D01*
G01*
X20698000Y85096000D02*
G75*
G02*
X20748000Y85096000I25000J0D01*
G01*
%TO.C,N34*%
X24171000Y98788000D02*
G75*
G02*
X24121000Y98788000I-25000J0D01*
G01*
X24121000Y98788000D02*
G75*
G02*
X24171000Y98788000I25000J0D01*
G01*
%TO.C,N181*%
X3633000Y40597000D02*
G75*
G02*
X3583000Y40597000I-25000J0D01*
G01*
X3583000Y40597000D02*
G75*
G02*
X3633000Y40597000I25000J0D01*
G01*
%TO.C,N145*%
X3633000Y54289000D02*
G75*
G02*
X3583000Y54289000I-25000J0D01*
G01*
X3583000Y54289000D02*
G75*
G02*
X3633000Y54289000I25000J0D01*
G01*
%TO.C,N91*%
X3633000Y74827000D02*
G75*
G02*
X3583000Y74827000I-25000J0D01*
G01*
X3583000Y74827000D02*
G75*
G02*
X3633000Y74827000I25000J0D01*
G01*
%TO.C,N214*%
X24171000Y30328000D02*
G75*
G02*
X24121000Y30328000I-25000J0D01*
G01*
X24121000Y30328000D02*
G75*
G02*
X24171000Y30328000I25000J0D01*
G01*
%TO.C,N241*%
X24171000Y20059000D02*
G75*
G02*
X24121000Y20059000I-25000J0D01*
G01*
X24121000Y20059000D02*
G75*
G02*
X24171000Y20059000I25000J0D01*
G01*
%TO.C,N279*%
X31017000Y6367000D02*
G75*
G02*
X30967000Y6367000I-25000J0D01*
G01*
X30967000Y6367000D02*
G75*
G02*
X31017000Y6367000I25000J0D01*
G01*
%TO.C,N251*%
X27594000Y16636000D02*
G75*
G02*
X27544000Y16636000I-25000J0D01*
G01*
X27544000Y16636000D02*
G75*
G02*
X27594000Y16636000I25000J0D01*
G01*
%TO.C,N143*%
X27594000Y57712000D02*
G75*
G02*
X27544000Y57712000I-25000J0D01*
G01*
X27544000Y57712000D02*
G75*
G02*
X27594000Y57712000I25000J0D01*
G01*
%TO.C,N47*%
X7056000Y91942000D02*
G75*
G02*
X7006000Y91942000I-25000J0D01*
G01*
X7006000Y91942000D02*
G75*
G02*
X7056000Y91942000I25000J0D01*
G01*
%TO.C,N71*%
X27594000Y85096000D02*
G75*
G02*
X27544000Y85096000I-25000J0D01*
G01*
X27544000Y85096000D02*
G75*
G02*
X27594000Y85096000I25000J0D01*
G01*
%TO.C,N226*%
X3633000Y23482000D02*
G75*
G02*
X3583000Y23482000I-25000J0D01*
G01*
X3583000Y23482000D02*
G75*
G02*
X3633000Y23482000I25000J0D01*
G01*
%TO.C,N26*%
X27594000Y102211000D02*
G75*
G02*
X27544000Y102211000I-25000J0D01*
G01*
X27544000Y102211000D02*
G75*
G02*
X27594000Y102211000I25000J0D01*
G01*
%TO.C,N58*%
X13902000Y88519000D02*
G75*
G02*
X13852000Y88519000I-25000J0D01*
G01*
X13852000Y88519000D02*
G75*
G02*
X13902000Y88519000I25000J0D01*
G01*
%TO.C,N245*%
X7056000Y16636000D02*
G75*
G02*
X7006000Y16636000I-25000J0D01*
G01*
X7006000Y16636000D02*
G75*
G02*
X7056000Y16636000I25000J0D01*
G01*
%TO.C,N244*%
X3633000Y16636000D02*
G75*
G02*
X3583000Y16636000I-25000J0D01*
G01*
X3583000Y16636000D02*
G75*
G02*
X3633000Y16636000I25000J0D01*
G01*
%TO.C,N200*%
X7056000Y33751000D02*
G75*
G02*
X7006000Y33751000I-25000J0D01*
G01*
X7006000Y33751000D02*
G75*
G02*
X7056000Y33751000I25000J0D01*
G01*
%TO.C,N115*%
X24171000Y67981000D02*
G75*
G02*
X24121000Y67981000I-25000J0D01*
G01*
X24121000Y67981000D02*
G75*
G02*
X24171000Y67981000I25000J0D01*
G01*
%TO.C,N25*%
X24171000Y102211000D02*
G75*
G02*
X24121000Y102211000I-25000J0D01*
G01*
X24121000Y102211000D02*
G75*
G02*
X24171000Y102211000I25000J0D01*
G01*
%TO.C,N40*%
X13902000Y95365000D02*
G75*
G02*
X13852000Y95365000I-25000J0D01*
G01*
X13852000Y95365000D02*
G75*
G02*
X13902000Y95365000I25000J0D01*
G01*
%TO.C,N212*%
X17325000Y30328000D02*
G75*
G02*
X17275000Y30328000I-25000J0D01*
G01*
X17275000Y30328000D02*
G75*
G02*
X17325000Y30328000I25000J0D01*
G01*
%TO.C,N4*%
X13902000Y109057000D02*
G75*
G02*
X13852000Y109057000I-25000J0D01*
G01*
X13852000Y109057000D02*
G75*
G02*
X13902000Y109057000I25000J0D01*
G01*
%TO.C,N195*%
X20748000Y37174000D02*
G75*
G02*
X20698000Y37174000I-25000J0D01*
G01*
X20698000Y37174000D02*
G75*
G02*
X20748000Y37174000I25000J0D01*
G01*
%TO.C,N107*%
X27594000Y71404000D02*
G75*
G02*
X27544000Y71404000I-25000J0D01*
G01*
X27544000Y71404000D02*
G75*
G02*
X27594000Y71404000I25000J0D01*
G01*
%TO.C,N75*%
X10479000Y81673000D02*
G75*
G02*
X10429000Y81673000I-25000J0D01*
G01*
X10429000Y81673000D02*
G75*
G02*
X10479000Y81673000I25000J0D01*
G01*
%TO.C,N147*%
X10479000Y54289000D02*
G75*
G02*
X10429000Y54289000I-25000J0D01*
G01*
X10429000Y54289000D02*
G75*
G02*
X10479000Y54289000I25000J0D01*
G01*
%TO.C,N192*%
X10479000Y37174000D02*
G75*
G02*
X10429000Y37174000I-25000J0D01*
G01*
X10429000Y37174000D02*
G75*
G02*
X10479000Y37174000I25000J0D01*
G01*
%TO.C,N275*%
X17325000Y6367000D02*
G75*
G02*
X17275000Y6367000I-25000J0D01*
G01*
X17275000Y6367000D02*
G75*
G02*
X17325000Y6367000I25000J0D01*
G01*
%TO.C,N188*%
X27594000Y40597000D02*
G75*
G02*
X27544000Y40597000I-25000J0D01*
G01*
X27544000Y40597000D02*
G75*
G02*
X27594000Y40597000I25000J0D01*
G01*
%TO.C,N14*%
X17325000Y105634000D02*
G75*
G02*
X17275000Y105634000I-25000J0D01*
G01*
X17275000Y105634000D02*
G75*
G02*
X17325000Y105634000I25000J0D01*
G01*
%TO.C,N109*%
X3633000Y67981000D02*
G75*
G02*
X3583000Y67981000I-25000J0D01*
G01*
X3583000Y67981000D02*
G75*
G02*
X3633000Y67981000I25000J0D01*
G01*
%TO.C,N259*%
X24171000Y13213000D02*
G75*
G02*
X24121000Y13213000I-25000J0D01*
G01*
X24121000Y13213000D02*
G75*
G02*
X24171000Y13213000I25000J0D01*
G01*
%TO.C,N60*%
X20748000Y88519000D02*
G75*
G02*
X20698000Y88519000I-25000J0D01*
G01*
X20698000Y88519000D02*
G75*
G02*
X20748000Y88519000I25000J0D01*
G01*
%TO.C,N94*%
X13902000Y74827000D02*
G75*
G02*
X13852000Y74827000I-25000J0D01*
G01*
X13852000Y74827000D02*
G75*
G02*
X13902000Y74827000I25000J0D01*
G01*
%TO.C,N127*%
X3633000Y61135000D02*
G75*
G02*
X3583000Y61135000I-25000J0D01*
G01*
X3583000Y61135000D02*
G75*
G02*
X3633000Y61135000I25000J0D01*
G01*
%TO.C,N97*%
X24171000Y74827000D02*
G75*
G02*
X24121000Y74827000I-25000J0D01*
G01*
X24121000Y74827000D02*
G75*
G02*
X24171000Y74827000I25000J0D01*
G01*
%TO.C,N166*%
X13902000Y47443000D02*
G75*
G02*
X13852000Y47443000I-25000J0D01*
G01*
X13852000Y47443000D02*
G75*
G02*
X13902000Y47443000I25000J0D01*
G01*
%TO.C,N254*%
X7056000Y13213000D02*
G75*
G02*
X7006000Y13213000I-25000J0D01*
G01*
X7006000Y13213000D02*
G75*
G02*
X7056000Y13213000I25000J0D01*
G01*
%TO.C,N121*%
X13902000Y64558000D02*
G75*
G02*
X13852000Y64558000I-25000J0D01*
G01*
X13852000Y64558000D02*
G75*
G02*
X13902000Y64558000I25000J0D01*
G01*
%TO.C,N61*%
X24171000Y88519000D02*
G75*
G02*
X24121000Y88519000I-25000J0D01*
G01*
X24121000Y88519000D02*
G75*
G02*
X24171000Y88519000I25000J0D01*
G01*
%TO.C,N135*%
X31017000Y61135000D02*
G75*
G02*
X30967000Y61135000I-25000J0D01*
G01*
X30967000Y61135000D02*
G75*
G02*
X31017000Y61135000I25000J0D01*
G01*
%TO.C,N28*%
X3633000Y98788000D02*
G75*
G02*
X3583000Y98788000I-25000J0D01*
G01*
X3583000Y98788000D02*
G75*
G02*
X3633000Y98788000I25000J0D01*
G01*
%TO.C,N152*%
X27594000Y54289000D02*
G75*
G02*
X27544000Y54289000I-25000J0D01*
G01*
X27544000Y54289000D02*
G75*
G02*
X27594000Y54289000I25000J0D01*
G01*
%TO.C,N20*%
X7056000Y102211000D02*
G75*
G02*
X7006000Y102211000I-25000J0D01*
G01*
X7006000Y102211000D02*
G75*
G02*
X7056000Y102211000I25000J0D01*
G01*
%TO.C,N44*%
X27594000Y95365000D02*
G75*
G02*
X27544000Y95365000I-25000J0D01*
G01*
X27544000Y95365000D02*
G75*
G02*
X27594000Y95365000I25000J0D01*
G01*
%TO.C,N284*%
X17325000Y2944000D02*
G75*
G02*
X17275000Y2944000I-25000J0D01*
G01*
X17275000Y2944000D02*
G75*
G02*
X17325000Y2944000I25000J0D01*
G01*
%TO.C,N144*%
X31017000Y57712000D02*
G75*
G02*
X30967000Y57712000I-25000J0D01*
G01*
X30967000Y57712000D02*
G75*
G02*
X31017000Y57712000I25000J0D01*
G01*
%TO.C,N273*%
X10479000Y6367000D02*
G75*
G02*
X10429000Y6367000I-25000J0D01*
G01*
X10429000Y6367000D02*
G75*
G02*
X10479000Y6367000I25000J0D01*
G01*
%TO.C,N27*%
X31017000Y102211000D02*
G75*
G02*
X30967000Y102211000I-25000J0D01*
G01*
X30967000Y102211000D02*
G75*
G02*
X31017000Y102211000I25000J0D01*
G01*
%TO.C,N64*%
X3633000Y85096000D02*
G75*
G02*
X3583000Y85096000I-25000J0D01*
G01*
X3583000Y85096000D02*
G75*
G02*
X3633000Y85096000I25000J0D01*
G01*
%TO.C,N281*%
X7056000Y2944000D02*
G75*
G02*
X7006000Y2944000I-25000J0D01*
G01*
X7006000Y2944000D02*
G75*
G02*
X7056000Y2944000I25000J0D01*
G01*
%TO.C,N179*%
X27594000Y44020000D02*
G75*
G02*
X27544000Y44020000I-25000J0D01*
G01*
X27544000Y44020000D02*
G75*
G02*
X27594000Y44020000I25000J0D01*
G01*
%TO.C,N123*%
X20748000Y64558000D02*
G75*
G02*
X20698000Y64558000I-25000J0D01*
G01*
X20698000Y64558000D02*
G75*
G02*
X20748000Y64558000I25000J0D01*
G01*
%TO.C,N62*%
X27594000Y88519000D02*
G75*
G02*
X27544000Y88519000I-25000J0D01*
G01*
X27544000Y88519000D02*
G75*
G02*
X27594000Y88519000I25000J0D01*
G01*
%TO.C,N161*%
X27594000Y50866000D02*
G75*
G02*
X27544000Y50866000I-25000J0D01*
G01*
X27544000Y50866000D02*
G75*
G02*
X27594000Y50866000I25000J0D01*
G01*
%TO.C,N199*%
X3633000Y33751000D02*
G75*
G02*
X3583000Y33751000I-25000J0D01*
G01*
X3583000Y33751000D02*
G75*
G02*
X3633000Y33751000I25000J0D01*
G01*
%TO.C,N211*%
X13902000Y30328000D02*
G75*
G02*
X13852000Y30328000I-25000J0D01*
G01*
X13852000Y30328000D02*
G75*
G02*
X13902000Y30328000I25000J0D01*
G01*
%TO.C,N131*%
X17325000Y61135000D02*
G75*
G02*
X17275000Y61135000I-25000J0D01*
G01*
X17275000Y61135000D02*
G75*
G02*
X17325000Y61135000I25000J0D01*
G01*
%TO.C,N126*%
X31017000Y64558000D02*
G75*
G02*
X30967000Y64558000I-25000J0D01*
G01*
X30967000Y64558000D02*
G75*
G02*
X31017000Y64558000I25000J0D01*
G01*
%TO.C,N158*%
X17325000Y50866000D02*
G75*
G02*
X17275000Y50866000I-25000J0D01*
G01*
X17275000Y50866000D02*
G75*
G02*
X17325000Y50866000I25000J0D01*
G01*
%TO.C,N247*%
X13902000Y16636000D02*
G75*
G02*
X13852000Y16636000I-25000J0D01*
G01*
X13852000Y16636000D02*
G75*
G02*
X13902000Y16636000I25000J0D01*
G01*
%TO.C,N253*%
X3633000Y13213000D02*
G75*
G02*
X3583000Y13213000I-25000J0D01*
G01*
X3583000Y13213000D02*
G75*
G02*
X3633000Y13213000I25000J0D01*
G01*
%TO.C,N263*%
X7056000Y9790000D02*
G75*
G02*
X7006000Y9790000I-25000J0D01*
G01*
X7006000Y9790000D02*
G75*
G02*
X7056000Y9790000I25000J0D01*
G01*
%TO.C,N202*%
X13902000Y33751000D02*
G75*
G02*
X13852000Y33751000I-25000J0D01*
G01*
X13852000Y33751000D02*
G75*
G02*
X13902000Y33751000I25000J0D01*
G01*
%TO.C,N98*%
X27594000Y74827000D02*
G75*
G02*
X27544000Y74827000I-25000J0D01*
G01*
X27544000Y74827000D02*
G75*
G02*
X27594000Y74827000I25000J0D01*
G01*
%TO.C,N163*%
X3633000Y47443000D02*
G75*
G02*
X3583000Y47443000I-25000J0D01*
G01*
X3583000Y47443000D02*
G75*
G02*
X3633000Y47443000I25000J0D01*
G01*
%TO.C,N9*%
X31017000Y109057000D02*
G75*
G02*
X30967000Y109057000I-25000J0D01*
G01*
X30967000Y109057000D02*
G75*
G02*
X31017000Y109057000I25000J0D01*
G01*
%TO.C,N170*%
X27594000Y47443000D02*
G75*
G02*
X27544000Y47443000I-25000J0D01*
G01*
X27544000Y47443000D02*
G75*
G02*
X27594000Y47443000I25000J0D01*
G01*
%TO.C,N186*%
X20748000Y40597000D02*
G75*
G02*
X20698000Y40597000I-25000J0D01*
G01*
X20698000Y40597000D02*
G75*
G02*
X20748000Y40597000I25000J0D01*
G01*
%TO.C,N8*%
X27594000Y109057000D02*
G75*
G02*
X27544000Y109057000I-25000J0D01*
G01*
X27544000Y109057000D02*
G75*
G02*
X27594000Y109057000I25000J0D01*
G01*
%TO.C,N31*%
X13902000Y98788000D02*
G75*
G02*
X13852000Y98788000I-25000J0D01*
G01*
X13852000Y98788000D02*
G75*
G02*
X13902000Y98788000I25000J0D01*
G01*
%TO.C,N76*%
X13902000Y81673000D02*
G75*
G02*
X13852000Y81673000I-25000J0D01*
G01*
X13852000Y81673000D02*
G75*
G02*
X13902000Y81673000I25000J0D01*
G01*
%TO.C,N78*%
X20748000Y81673000D02*
G75*
G02*
X20698000Y81673000I-25000J0D01*
G01*
X20698000Y81673000D02*
G75*
G02*
X20748000Y81673000I25000J0D01*
G01*
%TO.C,N18*%
X31017000Y105634000D02*
G75*
G02*
X30967000Y105634000I-25000J0D01*
G01*
X30967000Y105634000D02*
G75*
G02*
X31017000Y105634000I25000J0D01*
G01*
%TO.C,N80*%
X27594000Y81673000D02*
G75*
G02*
X27544000Y81673000I-25000J0D01*
G01*
X27544000Y81673000D02*
G75*
G02*
X27594000Y81673000I25000J0D01*
G01*
%TO.C,N67*%
X13902000Y85096000D02*
G75*
G02*
X13852000Y85096000I-25000J0D01*
G01*
X13852000Y85096000D02*
G75*
G02*
X13902000Y85096000I25000J0D01*
G01*
%TO.C,N196*%
X24171000Y37174000D02*
G75*
G02*
X24121000Y37174000I-25000J0D01*
G01*
X24121000Y37174000D02*
G75*
G02*
X24171000Y37174000I25000J0D01*
G01*
%TO.C,N48*%
X10479000Y91942000D02*
G75*
G02*
X10429000Y91942000I-25000J0D01*
G01*
X10429000Y91942000D02*
G75*
G02*
X10479000Y91942000I25000J0D01*
G01*
%TO.C,N176*%
X17325000Y44020000D02*
G75*
G02*
X17275000Y44020000I-25000J0D01*
G01*
X17275000Y44020000D02*
G75*
G02*
X17325000Y44020000I25000J0D01*
G01*
%TO.C,N106*%
X24171000Y71404000D02*
G75*
G02*
X24121000Y71404000I-25000J0D01*
G01*
X24121000Y71404000D02*
G75*
G02*
X24171000Y71404000I25000J0D01*
G01*
%TO.C,N252*%
X31017000Y16636000D02*
G75*
G02*
X30967000Y16636000I-25000J0D01*
G01*
X30967000Y16636000D02*
G75*
G02*
X31017000Y16636000I25000J0D01*
G01*
%TO.C,N222*%
X20748000Y26905000D02*
G75*
G02*
X20698000Y26905000I-25000J0D01*
G01*
X20698000Y26905000D02*
G75*
G02*
X20748000Y26905000I25000J0D01*
G01*
%TO.C,N173*%
X7056000Y44020000D02*
G75*
G02*
X7006000Y44020000I-25000J0D01*
G01*
X7006000Y44020000D02*
G75*
G02*
X7056000Y44020000I25000J0D01*
G01*
%TO.C,N194*%
X17325000Y37174000D02*
G75*
G02*
X17275000Y37174000I-25000J0D01*
G01*
X17275000Y37174000D02*
G75*
G02*
X17325000Y37174000I25000J0D01*
G01*
%TO.C,N74*%
X7056000Y81673000D02*
G75*
G02*
X7006000Y81673000I-25000J0D01*
G01*
X7006000Y81673000D02*
G75*
G02*
X7056000Y81673000I25000J0D01*
G01*
%TO.C,N49*%
X13902000Y91942000D02*
G75*
G02*
X13852000Y91942000I-25000J0D01*
G01*
X13852000Y91942000D02*
G75*
G02*
X13902000Y91942000I25000J0D01*
G01*
%TO.C,N125*%
X27594000Y64558000D02*
G75*
G02*
X27544000Y64558000I-25000J0D01*
G01*
X27544000Y64558000D02*
G75*
G02*
X27594000Y64558000I25000J0D01*
G01*
%TO.C,N51*%
X20748000Y91942000D02*
G75*
G02*
X20698000Y91942000I-25000J0D01*
G01*
X20698000Y91942000D02*
G75*
G02*
X20748000Y91942000I25000J0D01*
G01*
%TO.C,N154*%
X3633000Y50866000D02*
G75*
G02*
X3583000Y50866000I-25000J0D01*
G01*
X3583000Y50866000D02*
G75*
G02*
X3633000Y50866000I25000J0D01*
G01*
%TO.C,N19*%
X3633000Y102211000D02*
G75*
G02*
X3583000Y102211000I-25000J0D01*
G01*
X3583000Y102211000D02*
G75*
G02*
X3633000Y102211000I25000J0D01*
G01*
%TO.C,N265*%
X13902000Y9790000D02*
G75*
G02*
X13852000Y9790000I-25000J0D01*
G01*
X13852000Y9790000D02*
G75*
G02*
X13902000Y9790000I25000J0D01*
G01*
%TO.C,N73*%
X3633000Y81673000D02*
G75*
G02*
X3583000Y81673000I-25000J0D01*
G01*
X3583000Y81673000D02*
G75*
G02*
X3633000Y81673000I25000J0D01*
G01*
%TO.C,N242*%
X27594000Y20059000D02*
G75*
G02*
X27544000Y20059000I-25000J0D01*
G01*
X27544000Y20059000D02*
G75*
G02*
X27594000Y20059000I25000J0D01*
G01*
%TO.C,N15*%
X20748000Y105634000D02*
G75*
G02*
X20698000Y105634000I-25000J0D01*
G01*
X20698000Y105634000D02*
G75*
G02*
X20748000Y105634000I25000J0D01*
G01*
%TO.C,N59*%
X17325000Y88519000D02*
G75*
G02*
X17275000Y88519000I-25000J0D01*
G01*
X17275000Y88519000D02*
G75*
G02*
X17325000Y88519000I25000J0D01*
G01*
%TO.C,N216*%
X31017000Y30328000D02*
G75*
G02*
X30967000Y30328000I-25000J0D01*
G01*
X30967000Y30328000D02*
G75*
G02*
X31017000Y30328000I25000J0D01*
G01*
%TO.C,N12*%
X10479000Y105634000D02*
G75*
G02*
X10429000Y105634000I-25000J0D01*
G01*
X10429000Y105634000D02*
G75*
G02*
X10479000Y105634000I25000J0D01*
G01*
%TO.C,N87*%
X20748000Y78250000D02*
G75*
G02*
X20698000Y78250000I-25000J0D01*
G01*
X20698000Y78250000D02*
G75*
G02*
X20748000Y78250000I25000J0D01*
G01*
%TO.C,N243*%
X31017000Y20059000D02*
G75*
G02*
X30967000Y20059000I-25000J0D01*
G01*
X30967000Y20059000D02*
G75*
G02*
X31017000Y20059000I25000J0D01*
G01*
%TO.C,N261*%
X31017000Y13213000D02*
G75*
G02*
X30967000Y13213000I-25000J0D01*
G01*
X30967000Y13213000D02*
G75*
G02*
X31017000Y13213000I25000J0D01*
G01*
%TO.C,N38*%
X7056000Y95365000D02*
G75*
G02*
X7006000Y95365000I-25000J0D01*
G01*
X7006000Y95365000D02*
G75*
G02*
X7056000Y95365000I25000J0D01*
G01*
%TO.C,N21*%
X10479000Y102211000D02*
G75*
G02*
X10429000Y102211000I-25000J0D01*
G01*
X10429000Y102211000D02*
G75*
G02*
X10479000Y102211000I25000J0D01*
G01*
%TO.C,N268*%
X24171000Y9790000D02*
G75*
G02*
X24121000Y9790000I-25000J0D01*
G01*
X24121000Y9790000D02*
G75*
G02*
X24171000Y9790000I25000J0D01*
G01*
%TO.C,N217*%
X3633000Y26905000D02*
G75*
G02*
X3583000Y26905000I-25000J0D01*
G01*
X3583000Y26905000D02*
G75*
G02*
X3633000Y26905000I25000J0D01*
G01*
%TO.C,N2*%
X7056000Y109057000D02*
G75*
G02*
X7006000Y109057000I-25000J0D01*
G01*
X7006000Y109057000D02*
G75*
G02*
X7056000Y109057000I25000J0D01*
G01*
%TO.C,N52*%
X24171000Y91942000D02*
G75*
G02*
X24121000Y91942000I-25000J0D01*
G01*
X24121000Y91942000D02*
G75*
G02*
X24171000Y91942000I25000J0D01*
G01*
%TO.C,N182*%
X7056000Y40597000D02*
G75*
G02*
X7006000Y40597000I-25000J0D01*
G01*
X7006000Y40597000D02*
G75*
G02*
X7056000Y40597000I25000J0D01*
G01*
%TO.C,N286*%
X24171000Y2944000D02*
G75*
G02*
X24121000Y2944000I-25000J0D01*
G01*
X24121000Y2944000D02*
G75*
G02*
X24171000Y2944000I25000J0D01*
G01*
%TO.C,N104*%
X17325000Y71404000D02*
G75*
G02*
X17275000Y71404000I-25000J0D01*
G01*
X17275000Y71404000D02*
G75*
G02*
X17325000Y71404000I25000J0D01*
G01*
%TO.C,N118*%
X3633000Y64558000D02*
G75*
G02*
X3583000Y64558000I-25000J0D01*
G01*
X3583000Y64558000D02*
G75*
G02*
X3633000Y64558000I25000J0D01*
G01*
%TO.C,N7*%
X24171000Y109057000D02*
G75*
G02*
X24121000Y109057000I-25000J0D01*
G01*
X24121000Y109057000D02*
G75*
G02*
X24171000Y109057000I25000J0D01*
G01*
%TO.C,N183*%
X10479000Y40597000D02*
G75*
G02*
X10429000Y40597000I-25000J0D01*
G01*
X10429000Y40597000D02*
G75*
G02*
X10479000Y40597000I25000J0D01*
G01*
%TO.C,N110*%
X7056000Y67981000D02*
G75*
G02*
X7006000Y67981000I-25000J0D01*
G01*
X7006000Y67981000D02*
G75*
G02*
X7056000Y67981000I25000J0D01*
G01*
%TO.C,N37*%
X3633000Y95365000D02*
G75*
G02*
X3583000Y95365000I-25000J0D01*
G01*
X3583000Y95365000D02*
G75*
G02*
X3633000Y95365000I25000J0D01*
G01*
%TO.C,N150*%
X20748000Y54289000D02*
G75*
G02*
X20698000Y54289000I-25000J0D01*
G01*
X20698000Y54289000D02*
G75*
G02*
X20748000Y54289000I25000J0D01*
G01*
%TO.C,N198*%
X31017000Y37174000D02*
G75*
G02*
X30967000Y37174000I-25000J0D01*
G01*
X30967000Y37174000D02*
G75*
G02*
X31017000Y37174000I25000J0D01*
G01*
%TO.C,N277*%
X24171000Y6367000D02*
G75*
G02*
X24121000Y6367000I-25000J0D01*
G01*
X24121000Y6367000D02*
G75*
G02*
X24171000Y6367000I25000J0D01*
G01*
%TO.C,N228*%
X10479000Y23482000D02*
G75*
G02*
X10429000Y23482000I-25000J0D01*
G01*
X10429000Y23482000D02*
G75*
G02*
X10479000Y23482000I25000J0D01*
G01*
%TD*%
%LPC*%
D11*
%TO.C,N260*%
X27219000Y13563000D03*
X27219000Y14463000D03*
X26319000Y14463000D03*
X26319000Y13563000D03*
%TD*%
%TO.C,N203*%
X16950000Y34101000D03*
X16950000Y35001000D03*
X16050000Y35001000D03*
X16050000Y34101000D03*
%TD*%
%TO.C,N99*%
X30642000Y75177000D03*
X30642000Y76077000D03*
X29742000Y76077000D03*
X29742000Y75177000D03*
%TD*%
%TO.C,N43*%
X23796000Y95715000D03*
X23796000Y96615000D03*
X22896000Y96615000D03*
X22896000Y95715000D03*
%TD*%
%TO.C,N255*%
X10104000Y13563000D03*
X10104000Y14463000D03*
X9204000Y14463000D03*
X9204000Y13563000D03*
%TD*%
%TO.C,N208*%
X3258000Y30678000D03*
X3258000Y31578000D03*
X2358000Y31578000D03*
X2358000Y30678000D03*
%TD*%
%TO.C,N132*%
X20373000Y61485000D03*
X20373000Y62385000D03*
X19473000Y62385000D03*
X19473000Y61485000D03*
%TD*%
%TO.C,N112*%
X13527000Y68331000D03*
X13527000Y69231000D03*
X12627000Y69231000D03*
X12627000Y68331000D03*
%TD*%
%TO.C,N140*%
X16950000Y58062000D03*
X16950000Y58962000D03*
X16050000Y58962000D03*
X16050000Y58062000D03*
%TD*%
%TO.C,N108*%
X30642000Y71754000D03*
X30642000Y72654000D03*
X29742000Y72654000D03*
X29742000Y71754000D03*
%TD*%
%TO.C,N149*%
X16950000Y54639000D03*
X16950000Y55539000D03*
X16050000Y55539000D03*
X16050000Y54639000D03*
%TD*%
%TO.C,N57*%
X10104000Y88869000D03*
X10104000Y89769000D03*
X9204000Y89769000D03*
X9204000Y88869000D03*
%TD*%
%TO.C,N180*%
X30642000Y44370000D03*
X30642000Y45270000D03*
X29742000Y45270000D03*
X29742000Y44370000D03*
%TD*%
%TO.C,N156*%
X10104000Y51216000D03*
X10104000Y52116000D03*
X9204000Y52116000D03*
X9204000Y51216000D03*
%TD*%
%TO.C,N155*%
X6681000Y51216000D03*
X6681000Y52116000D03*
X5781000Y52116000D03*
X5781000Y51216000D03*
%TD*%
%TO.C,N240*%
X20373000Y20409000D03*
X20373000Y21309000D03*
X19473000Y21309000D03*
X19473000Y20409000D03*
%TD*%
%TO.C,N122*%
X16950000Y64908000D03*
X16950000Y65808000D03*
X16050000Y65808000D03*
X16050000Y64908000D03*
%TD*%
%TO.C,N278*%
X27219000Y6717000D03*
X27219000Y7617000D03*
X26319000Y7617000D03*
X26319000Y6717000D03*
%TD*%
%TO.C,N234*%
X30642000Y23832000D03*
X30642000Y24732000D03*
X29742000Y24732000D03*
X29742000Y23832000D03*
%TD*%
%TO.C,N280*%
X3258000Y3294000D03*
X3258000Y4194000D03*
X2358000Y4194000D03*
X2358000Y3294000D03*
%TD*%
%TO.C,N56*%
X6681000Y88869000D03*
X6681000Y89769000D03*
X5781000Y89769000D03*
X5781000Y88869000D03*
%TD*%
%TO.C,N230*%
X16950000Y23832000D03*
X16950000Y24732000D03*
X16050000Y24732000D03*
X16050000Y23832000D03*
%TD*%
%TO.C,N215*%
X27219000Y30678000D03*
X27219000Y31578000D03*
X26319000Y31578000D03*
X26319000Y30678000D03*
%TD*%
%TO.C,N239*%
X16950000Y20409000D03*
X16950000Y21309000D03*
X16050000Y21309000D03*
X16050000Y20409000D03*
%TD*%
%TO.C,N141*%
X20373000Y58062000D03*
X20373000Y58962000D03*
X19473000Y58962000D03*
X19473000Y58062000D03*
%TD*%
%TO.C,N111*%
X10104000Y68331000D03*
X10104000Y69231000D03*
X9204000Y69231000D03*
X9204000Y68331000D03*
%TD*%
%TO.C,N288*%
X30642000Y3294000D03*
X30642000Y4194000D03*
X29742000Y4194000D03*
X29742000Y3294000D03*
%TD*%
%TO.C,N42*%
X20373000Y95715000D03*
X20373000Y96615000D03*
X19473000Y96615000D03*
X19473000Y95715000D03*
%TD*%
%TO.C,N146*%
X6681000Y54639000D03*
X6681000Y55539000D03*
X5781000Y55539000D03*
X5781000Y54639000D03*
%TD*%
%TO.C,N220*%
X13527000Y27255000D03*
X13527000Y28155000D03*
X12627000Y28155000D03*
X12627000Y27255000D03*
%TD*%
%TO.C,N35*%
X27219000Y99138000D03*
X27219000Y100038000D03*
X26319000Y100038000D03*
X26319000Y99138000D03*
%TD*%
%TO.C,N204*%
X20373000Y34101000D03*
X20373000Y35001000D03*
X19473000Y35001000D03*
X19473000Y34101000D03*
%TD*%
%TO.C,N101*%
X6681000Y71754000D03*
X6681000Y72654000D03*
X5781000Y72654000D03*
X5781000Y71754000D03*
%TD*%
%TO.C,N88*%
X23796000Y78600000D03*
X23796000Y79500000D03*
X22896000Y79500000D03*
X22896000Y78600000D03*
%TD*%
%TO.C,N283*%
X13527000Y3294000D03*
X13527000Y4194000D03*
X12627000Y4194000D03*
X12627000Y3294000D03*
%TD*%
%TO.C,N120*%
X10104000Y64908000D03*
X10104000Y65808000D03*
X9204000Y65808000D03*
X9204000Y64908000D03*
%TD*%
%TO.C,N274*%
X13527000Y6717000D03*
X13527000Y7617000D03*
X12627000Y7617000D03*
X12627000Y6717000D03*
%TD*%
%TO.C,N282*%
X10104000Y3294000D03*
X10104000Y4194000D03*
X9204000Y4194000D03*
X9204000Y3294000D03*
%TD*%
%TO.C,N82*%
X3258000Y78600000D03*
X3258000Y79500000D03*
X2358000Y79500000D03*
X2358000Y78600000D03*
%TD*%
%TO.C,N250*%
X23796000Y16986000D03*
X23796000Y17886000D03*
X22896000Y17886000D03*
X22896000Y16986000D03*
%TD*%
%TO.C,N160*%
X23796000Y51216000D03*
X23796000Y52116000D03*
X22896000Y52116000D03*
X22896000Y51216000D03*
%TD*%
%TO.C,N29*%
X6681000Y99138000D03*
X6681000Y100038000D03*
X5781000Y100038000D03*
X5781000Y99138000D03*
%TD*%
%TO.C,N258*%
X20373000Y13563000D03*
X20373000Y14463000D03*
X19473000Y14463000D03*
X19473000Y13563000D03*
%TD*%
%TO.C,N72*%
X30642000Y85446000D03*
X30642000Y86346000D03*
X29742000Y86346000D03*
X29742000Y85446000D03*
%TD*%
%TO.C,N221*%
X16950000Y27255000D03*
X16950000Y28155000D03*
X16050000Y28155000D03*
X16050000Y27255000D03*
%TD*%
%TO.C,N137*%
X6681000Y58062000D03*
X6681000Y58962000D03*
X5781000Y58962000D03*
X5781000Y58062000D03*
%TD*%
%TO.C,N157*%
X13527000Y51216000D03*
X13527000Y52116000D03*
X12627000Y52116000D03*
X12627000Y51216000D03*
%TD*%
%TO.C,N119*%
X6681000Y64908000D03*
X6681000Y65808000D03*
X5781000Y65808000D03*
X5781000Y64908000D03*
%TD*%
%TO.C,N3*%
X10104000Y109407000D03*
X10104000Y110307000D03*
X9204000Y110307000D03*
X9204000Y109407000D03*
%TD*%
%TO.C,N224*%
X27219000Y27255000D03*
X27219000Y28155000D03*
X26319000Y28155000D03*
X26319000Y27255000D03*
%TD*%
%TO.C,N102*%
X10104000Y71754000D03*
X10104000Y72654000D03*
X9204000Y72654000D03*
X9204000Y71754000D03*
%TD*%
%TO.C,N136*%
X3258000Y58062000D03*
X3258000Y58962000D03*
X2358000Y58962000D03*
X2358000Y58062000D03*
%TD*%
%TO.C,N209*%
X6681000Y30678000D03*
X6681000Y31578000D03*
X5781000Y31578000D03*
X5781000Y30678000D03*
%TD*%
%TO.C,N77*%
X16950000Y82023000D03*
X16950000Y82923000D03*
X16050000Y82923000D03*
X16050000Y82023000D03*
%TD*%
%TO.C,N177*%
X20373000Y44370000D03*
X20373000Y45270000D03*
X19473000Y45270000D03*
X19473000Y44370000D03*
%TD*%
%TO.C,N248*%
X16950000Y16986000D03*
X16950000Y17886000D03*
X16050000Y17886000D03*
X16050000Y16986000D03*
%TD*%
%TO.C,N129*%
X10104000Y61485000D03*
X10104000Y62385000D03*
X9204000Y62385000D03*
X9204000Y61485000D03*
%TD*%
%TO.C,N117*%
X30642000Y68331000D03*
X30642000Y69231000D03*
X29742000Y69231000D03*
X29742000Y68331000D03*
%TD*%
%TO.C,N5*%
X16950000Y109407000D03*
X16950000Y110307000D03*
X16050000Y110307000D03*
X16050000Y109407000D03*
%TD*%
%TO.C,N190*%
X3258000Y37524000D03*
X3258000Y38424000D03*
X2358000Y38424000D03*
X2358000Y37524000D03*
%TD*%
%TO.C,N90*%
X30642000Y78600000D03*
X30642000Y79500000D03*
X29742000Y79500000D03*
X29742000Y78600000D03*
%TD*%
%TO.C,N235*%
X3258000Y20409000D03*
X3258000Y21309000D03*
X2358000Y21309000D03*
X2358000Y20409000D03*
%TD*%
%TO.C,N153*%
X30642000Y54639000D03*
X30642000Y55539000D03*
X29742000Y55539000D03*
X29742000Y54639000D03*
%TD*%
%TO.C,N128*%
X6681000Y61485000D03*
X6681000Y62385000D03*
X5781000Y62385000D03*
X5781000Y61485000D03*
%TD*%
%TO.C,N139*%
X13527000Y58062000D03*
X13527000Y58962000D03*
X12627000Y58962000D03*
X12627000Y58062000D03*
%TD*%
%TO.C,N187*%
X23796000Y40947000D03*
X23796000Y41847000D03*
X22896000Y41847000D03*
X22896000Y40947000D03*
%TD*%
%TO.C,N287*%
X27219000Y3294000D03*
X27219000Y4194000D03*
X26319000Y4194000D03*
X26319000Y3294000D03*
%TD*%
%TO.C,N100*%
X3258000Y71754000D03*
X3258000Y72654000D03*
X2358000Y72654000D03*
X2358000Y71754000D03*
%TD*%
%TO.C,N201*%
X10104000Y34101000D03*
X10104000Y35001000D03*
X9204000Y35001000D03*
X9204000Y34101000D03*
%TD*%
%TO.C,N95*%
X16950000Y75177000D03*
X16950000Y76077000D03*
X16050000Y76077000D03*
X16050000Y75177000D03*
%TD*%
%TO.C,N267*%
X20373000Y10140000D03*
X20373000Y11040000D03*
X19473000Y11040000D03*
X19473000Y10140000D03*
%TD*%
%TO.C,N172*%
X3258000Y44370000D03*
X3258000Y45270000D03*
X2358000Y45270000D03*
X2358000Y44370000D03*
%TD*%
%TO.C,N23*%
X16950000Y102561000D03*
X16950000Y103461000D03*
X16050000Y103461000D03*
X16050000Y102561000D03*
%TD*%
%TO.C,N81*%
X30642000Y82023000D03*
X30642000Y82923000D03*
X29742000Y82923000D03*
X29742000Y82023000D03*
%TD*%
%TO.C,N92*%
X6681000Y75177000D03*
X6681000Y76077000D03*
X5781000Y76077000D03*
X5781000Y75177000D03*
%TD*%
%TO.C,N231*%
X20373000Y23832000D03*
X20373000Y24732000D03*
X19473000Y24732000D03*
X19473000Y23832000D03*
%TD*%
%TO.C,N50*%
X16950000Y92292000D03*
X16950000Y93192000D03*
X16050000Y93192000D03*
X16050000Y92292000D03*
%TD*%
%TO.C,N70*%
X23796000Y85446000D03*
X23796000Y86346000D03*
X22896000Y86346000D03*
X22896000Y85446000D03*
%TD*%
%TO.C,N32*%
X16950000Y99138000D03*
X16950000Y100038000D03*
X16050000Y100038000D03*
X16050000Y99138000D03*
%TD*%
%TO.C,N103*%
X13527000Y71754000D03*
X13527000Y72654000D03*
X12627000Y72654000D03*
X12627000Y71754000D03*
%TD*%
%TO.C,N184*%
X13527000Y40947000D03*
X13527000Y41847000D03*
X12627000Y41847000D03*
X12627000Y40947000D03*
%TD*%
%TO.C,N10*%
X3258000Y105984000D03*
X3258000Y106884000D03*
X2358000Y106884000D03*
X2358000Y105984000D03*
%TD*%
%TO.C,N83*%
X6681000Y78600000D03*
X6681000Y79500000D03*
X5781000Y79500000D03*
X5781000Y78600000D03*
%TD*%
%TO.C,N191*%
X6681000Y37524000D03*
X6681000Y38424000D03*
X5781000Y38424000D03*
X5781000Y37524000D03*
%TD*%
%TO.C,N233*%
X27219000Y23832000D03*
X27219000Y24732000D03*
X26319000Y24732000D03*
X26319000Y23832000D03*
%TD*%
%TO.C,N85*%
X13527000Y78600000D03*
X13527000Y79500000D03*
X12627000Y79500000D03*
X12627000Y78600000D03*
%TD*%
%TO.C,N264*%
X10104000Y10140000D03*
X10104000Y11040000D03*
X9204000Y11040000D03*
X9204000Y10140000D03*
%TD*%
%TO.C,N207*%
X30642000Y34101000D03*
X30642000Y35001000D03*
X29742000Y35001000D03*
X29742000Y34101000D03*
%TD*%
%TO.C,N54*%
X30642000Y92292000D03*
X30642000Y93192000D03*
X29742000Y93192000D03*
X29742000Y92292000D03*
%TD*%
%TO.C,N148*%
X13527000Y54639000D03*
X13527000Y55539000D03*
X12627000Y55539000D03*
X12627000Y54639000D03*
%TD*%
%TO.C,N138*%
X10104000Y58062000D03*
X10104000Y58962000D03*
X9204000Y58962000D03*
X9204000Y58062000D03*
%TD*%
%TO.C,N229*%
X13527000Y23832000D03*
X13527000Y24732000D03*
X12627000Y24732000D03*
X12627000Y23832000D03*
%TD*%
%TO.C,N168*%
X20373000Y47793000D03*
X20373000Y48693000D03*
X19473000Y48693000D03*
X19473000Y47793000D03*
%TD*%
%TO.C,N96*%
X20373000Y75177000D03*
X20373000Y76077000D03*
X19473000Y76077000D03*
X19473000Y75177000D03*
%TD*%
%TO.C,N227*%
X6681000Y23832000D03*
X6681000Y24732000D03*
X5781000Y24732000D03*
X5781000Y23832000D03*
%TD*%
%TO.C,N249*%
X20373000Y16986000D03*
X20373000Y17886000D03*
X19473000Y17886000D03*
X19473000Y16986000D03*
%TD*%
%TO.C,N271*%
X3258000Y6717000D03*
X3258000Y7617000D03*
X2358000Y7617000D03*
X2358000Y6717000D03*
%TD*%
%TO.C,N86*%
X16950000Y78600000D03*
X16950000Y79500000D03*
X16050000Y79500000D03*
X16050000Y78600000D03*
%TD*%
%TO.C,N178*%
X23796000Y44370000D03*
X23796000Y45270000D03*
X22896000Y45270000D03*
X22896000Y44370000D03*
%TD*%
%TO.C,N219*%
X10104000Y27255000D03*
X10104000Y28155000D03*
X9204000Y28155000D03*
X9204000Y27255000D03*
%TD*%
%TO.C,N41*%
X16950000Y95715000D03*
X16950000Y96615000D03*
X16050000Y96615000D03*
X16050000Y95715000D03*
%TD*%
%TO.C,N236*%
X6681000Y20409000D03*
X6681000Y21309000D03*
X5781000Y21309000D03*
X5781000Y20409000D03*
%TD*%
%TO.C,N13*%
X13527000Y105984000D03*
X13527000Y106884000D03*
X12627000Y106884000D03*
X12627000Y105984000D03*
%TD*%
%TO.C,N167*%
X16950000Y47793000D03*
X16950000Y48693000D03*
X16050000Y48693000D03*
X16050000Y47793000D03*
%TD*%
%TO.C,N218*%
X6681000Y27255000D03*
X6681000Y28155000D03*
X5781000Y28155000D03*
X5781000Y27255000D03*
%TD*%
%TO.C,N169*%
X23796000Y47793000D03*
X23796000Y48693000D03*
X22896000Y48693000D03*
X22896000Y47793000D03*
%TD*%
%TO.C,N246*%
X10104000Y16986000D03*
X10104000Y17886000D03*
X9204000Y17886000D03*
X9204000Y16986000D03*
%TD*%
%TO.C,N171*%
X30642000Y47793000D03*
X30642000Y48693000D03*
X29742000Y48693000D03*
X29742000Y47793000D03*
%TD*%
%TO.C,N6*%
X20373000Y109407000D03*
X20373000Y110307000D03*
X19473000Y110307000D03*
X19473000Y109407000D03*
%TD*%
%TO.C,N276*%
X20373000Y6717000D03*
X20373000Y7617000D03*
X19473000Y7617000D03*
X19473000Y6717000D03*
%TD*%
%TO.C,N185*%
X16950000Y40947000D03*
X16950000Y41847000D03*
X16050000Y41847000D03*
X16050000Y40947000D03*
%TD*%
%TO.C,N164*%
X6681000Y47793000D03*
X6681000Y48693000D03*
X5781000Y48693000D03*
X5781000Y47793000D03*
%TD*%
%TO.C,N270*%
X30642000Y10140000D03*
X30642000Y11040000D03*
X29742000Y11040000D03*
X29742000Y10140000D03*
%TD*%
%TO.C,N151*%
X23796000Y54639000D03*
X23796000Y55539000D03*
X22896000Y55539000D03*
X22896000Y54639000D03*
%TD*%
%TO.C,N285*%
X20373000Y3294000D03*
X20373000Y4194000D03*
X19473000Y4194000D03*
X19473000Y3294000D03*
%TD*%
%TO.C,N223*%
X23796000Y27255000D03*
X23796000Y28155000D03*
X22896000Y28155000D03*
X22896000Y27255000D03*
%TD*%
%TO.C,N262*%
X3258000Y10140000D03*
X3258000Y11040000D03*
X2358000Y11040000D03*
X2358000Y10140000D03*
%TD*%
%TO.C,N33*%
X20373000Y99138000D03*
X20373000Y100038000D03*
X19473000Y100038000D03*
X19473000Y99138000D03*
%TD*%
%TO.C,N46*%
X3258000Y92292000D03*
X3258000Y93192000D03*
X2358000Y93192000D03*
X2358000Y92292000D03*
%TD*%
%TO.C,N16*%
X23796000Y105984000D03*
X23796000Y106884000D03*
X22896000Y106884000D03*
X22896000Y105984000D03*
%TD*%
%TO.C,N165*%
X10104000Y47793000D03*
X10104000Y48693000D03*
X9204000Y48693000D03*
X9204000Y47793000D03*
%TD*%
%TO.C,N197*%
X27219000Y37524000D03*
X27219000Y38424000D03*
X26319000Y38424000D03*
X26319000Y37524000D03*
%TD*%
%TO.C,N159*%
X20373000Y51216000D03*
X20373000Y52116000D03*
X19473000Y52116000D03*
X19473000Y51216000D03*
%TD*%
%TO.C,N24*%
X20373000Y102561000D03*
X20373000Y103461000D03*
X19473000Y103461000D03*
X19473000Y102561000D03*
%TD*%
%TO.C,N142*%
X23796000Y58062000D03*
X23796000Y58962000D03*
X22896000Y58962000D03*
X22896000Y58062000D03*
%TD*%
%TO.C,N65*%
X6681000Y85446000D03*
X6681000Y86346000D03*
X5781000Y86346000D03*
X5781000Y85446000D03*
%TD*%
%TO.C,N206*%
X27219000Y34101000D03*
X27219000Y35001000D03*
X26319000Y35001000D03*
X26319000Y34101000D03*
%TD*%
%TO.C,N225*%
X30642000Y27255000D03*
X30642000Y28155000D03*
X29742000Y28155000D03*
X29742000Y27255000D03*
%TD*%
%TO.C,N114*%
X20373000Y68331000D03*
X20373000Y69231000D03*
X19473000Y69231000D03*
X19473000Y68331000D03*
%TD*%
%TO.C,N53*%
X27219000Y92292000D03*
X27219000Y93192000D03*
X26319000Y93192000D03*
X26319000Y92292000D03*
%TD*%
%TO.C,N66*%
X10104000Y85446000D03*
X10104000Y86346000D03*
X9204000Y86346000D03*
X9204000Y85446000D03*
%TD*%
%TO.C,N272*%
X6681000Y6717000D03*
X6681000Y7617000D03*
X5781000Y7617000D03*
X5781000Y6717000D03*
%TD*%
%TO.C,N30*%
X10104000Y99138000D03*
X10104000Y100038000D03*
X9204000Y100038000D03*
X9204000Y99138000D03*
%TD*%
%TO.C,N174*%
X10104000Y44370000D03*
X10104000Y45270000D03*
X9204000Y45270000D03*
X9204000Y44370000D03*
%TD*%
%TO.C,N133*%
X23796000Y61485000D03*
X23796000Y62385000D03*
X22896000Y62385000D03*
X22896000Y61485000D03*
%TD*%
%TO.C,N93*%
X10104000Y75177000D03*
X10104000Y76077000D03*
X9204000Y76077000D03*
X9204000Y75177000D03*
%TD*%
%TO.C,N134*%
X27219000Y61485000D03*
X27219000Y62385000D03*
X26319000Y62385000D03*
X26319000Y61485000D03*
%TD*%
%TO.C,N232*%
X23796000Y23832000D03*
X23796000Y24732000D03*
X22896000Y24732000D03*
X22896000Y23832000D03*
%TD*%
%TO.C,N22*%
X13527000Y102561000D03*
X13527000Y103461000D03*
X12627000Y103461000D03*
X12627000Y102561000D03*
%TD*%
%TO.C,N266*%
X16950000Y10140000D03*
X16950000Y11040000D03*
X16050000Y11040000D03*
X16050000Y10140000D03*
%TD*%
%TO.C,N105*%
X20373000Y71754000D03*
X20373000Y72654000D03*
X19473000Y72654000D03*
X19473000Y71754000D03*
%TD*%
%TO.C,N124*%
X23796000Y64908000D03*
X23796000Y65808000D03*
X22896000Y65808000D03*
X22896000Y64908000D03*
%TD*%
%TO.C,N130*%
X13527000Y61485000D03*
X13527000Y62385000D03*
X12627000Y62385000D03*
X12627000Y61485000D03*
%TD*%
%TO.C,N210*%
X10104000Y30678000D03*
X10104000Y31578000D03*
X9204000Y31578000D03*
X9204000Y30678000D03*
%TD*%
%TO.C,N17*%
X27219000Y105984000D03*
X27219000Y106884000D03*
X26319000Y106884000D03*
X26319000Y105984000D03*
%TD*%
%TO.C,N116*%
X27219000Y68331000D03*
X27219000Y69231000D03*
X26319000Y69231000D03*
X26319000Y68331000D03*
%TD*%
%TO.C,N269*%
X27219000Y10140000D03*
X27219000Y11040000D03*
X26319000Y11040000D03*
X26319000Y10140000D03*
%TD*%
%TO.C,N193*%
X13527000Y37524000D03*
X13527000Y38424000D03*
X12627000Y38424000D03*
X12627000Y37524000D03*
%TD*%
%TO.C,N257*%
X16950000Y13563000D03*
X16950000Y14463000D03*
X16050000Y14463000D03*
X16050000Y13563000D03*
%TD*%
%TO.C,N11*%
X6681000Y105984000D03*
X6681000Y106884000D03*
X5781000Y106884000D03*
X5781000Y105984000D03*
%TD*%
%TO.C,N55*%
X3258000Y88869000D03*
X3258000Y89769000D03*
X2358000Y89769000D03*
X2358000Y88869000D03*
%TD*%
%TO.C,N189*%
X30642000Y40947000D03*
X30642000Y41847000D03*
X29742000Y41847000D03*
X29742000Y40947000D03*
%TD*%
%TO.C,N79*%
X23796000Y82023000D03*
X23796000Y82923000D03*
X22896000Y82923000D03*
X22896000Y82023000D03*
%TD*%
%TO.C,N1*%
X3258000Y109407000D03*
X3258000Y110307000D03*
X2358000Y110307000D03*
X2358000Y109407000D03*
%TD*%
%TO.C,N39*%
X10104000Y95715000D03*
X10104000Y96615000D03*
X9204000Y96615000D03*
X9204000Y95715000D03*
%TD*%
%TO.C,N45*%
X30642000Y95715000D03*
X30642000Y96615000D03*
X29742000Y96615000D03*
X29742000Y95715000D03*
%TD*%
%TO.C,N256*%
X13527000Y13563000D03*
X13527000Y14463000D03*
X12627000Y14463000D03*
X12627000Y13563000D03*
%TD*%
%TO.C,N89*%
X27219000Y78600000D03*
X27219000Y79500000D03*
X26319000Y79500000D03*
X26319000Y78600000D03*
%TD*%
%TO.C,N237*%
X10104000Y20409000D03*
X10104000Y21309000D03*
X9204000Y21309000D03*
X9204000Y20409000D03*
%TD*%
%TO.C,N68*%
X16950000Y85446000D03*
X16950000Y86346000D03*
X16050000Y86346000D03*
X16050000Y85446000D03*
%TD*%
%TO.C,N84*%
X10104000Y78600000D03*
X10104000Y79500000D03*
X9204000Y79500000D03*
X9204000Y78600000D03*
%TD*%
%TO.C,N36*%
X30642000Y99138000D03*
X30642000Y100038000D03*
X29742000Y100038000D03*
X29742000Y99138000D03*
%TD*%
%TO.C,N63*%
X30642000Y88869000D03*
X30642000Y89769000D03*
X29742000Y89769000D03*
X29742000Y88869000D03*
%TD*%
%TO.C,N213*%
X20373000Y30678000D03*
X20373000Y31578000D03*
X19473000Y31578000D03*
X19473000Y30678000D03*
%TD*%
%TO.C,N113*%
X16950000Y68331000D03*
X16950000Y69231000D03*
X16050000Y69231000D03*
X16050000Y68331000D03*
%TD*%
%TO.C,N162*%
X30642000Y51216000D03*
X30642000Y52116000D03*
X29742000Y52116000D03*
X29742000Y51216000D03*
%TD*%
%TO.C,N175*%
X13527000Y44370000D03*
X13527000Y45270000D03*
X12627000Y45270000D03*
X12627000Y44370000D03*
%TD*%
%TO.C,N238*%
X13527000Y20409000D03*
X13527000Y21309000D03*
X12627000Y21309000D03*
X12627000Y20409000D03*
%TD*%
%TO.C,N205*%
X23796000Y34101000D03*
X23796000Y35001000D03*
X22896000Y35001000D03*
X22896000Y34101000D03*
%TD*%
%TO.C,N69*%
X20373000Y85446000D03*
X20373000Y86346000D03*
X19473000Y86346000D03*
X19473000Y85446000D03*
%TD*%
%TO.C,N34*%
X23796000Y99138000D03*
X23796000Y100038000D03*
X22896000Y100038000D03*
X22896000Y99138000D03*
%TD*%
%TO.C,N181*%
X3258000Y40947000D03*
X3258000Y41847000D03*
X2358000Y41847000D03*
X2358000Y40947000D03*
%TD*%
%TO.C,N145*%
X3258000Y54639000D03*
X3258000Y55539000D03*
X2358000Y55539000D03*
X2358000Y54639000D03*
%TD*%
%TO.C,N91*%
X3258000Y75177000D03*
X3258000Y76077000D03*
X2358000Y76077000D03*
X2358000Y75177000D03*
%TD*%
%TO.C,N214*%
X23796000Y30678000D03*
X23796000Y31578000D03*
X22896000Y31578000D03*
X22896000Y30678000D03*
%TD*%
%TO.C,N241*%
X23796000Y20409000D03*
X23796000Y21309000D03*
X22896000Y21309000D03*
X22896000Y20409000D03*
%TD*%
%TO.C,N279*%
X30642000Y6717000D03*
X30642000Y7617000D03*
X29742000Y7617000D03*
X29742000Y6717000D03*
%TD*%
%TO.C,N251*%
X27219000Y16986000D03*
X27219000Y17886000D03*
X26319000Y17886000D03*
X26319000Y16986000D03*
%TD*%
%TO.C,N143*%
X27219000Y58062000D03*
X27219000Y58962000D03*
X26319000Y58962000D03*
X26319000Y58062000D03*
%TD*%
%TO.C,N47*%
X6681000Y92292000D03*
X6681000Y93192000D03*
X5781000Y93192000D03*
X5781000Y92292000D03*
%TD*%
%TO.C,N71*%
X27219000Y85446000D03*
X27219000Y86346000D03*
X26319000Y86346000D03*
X26319000Y85446000D03*
%TD*%
%TO.C,N226*%
X3258000Y23832000D03*
X3258000Y24732000D03*
X2358000Y24732000D03*
X2358000Y23832000D03*
%TD*%
%TO.C,N26*%
X27219000Y102561000D03*
X27219000Y103461000D03*
X26319000Y103461000D03*
X26319000Y102561000D03*
%TD*%
%TO.C,N58*%
X13527000Y88869000D03*
X13527000Y89769000D03*
X12627000Y89769000D03*
X12627000Y88869000D03*
%TD*%
%TO.C,N245*%
X6681000Y16986000D03*
X6681000Y17886000D03*
X5781000Y17886000D03*
X5781000Y16986000D03*
%TD*%
%TO.C,N244*%
X3258000Y16986000D03*
X3258000Y17886000D03*
X2358000Y17886000D03*
X2358000Y16986000D03*
%TD*%
%TO.C,N200*%
X6681000Y34101000D03*
X6681000Y35001000D03*
X5781000Y35001000D03*
X5781000Y34101000D03*
%TD*%
%TO.C,N115*%
X23796000Y68331000D03*
X23796000Y69231000D03*
X22896000Y69231000D03*
X22896000Y68331000D03*
%TD*%
%TO.C,N25*%
X23796000Y102561000D03*
X23796000Y103461000D03*
X22896000Y103461000D03*
X22896000Y102561000D03*
%TD*%
%TO.C,N40*%
X13527000Y95715000D03*
X13527000Y96615000D03*
X12627000Y96615000D03*
X12627000Y95715000D03*
%TD*%
%TO.C,N212*%
X16950000Y30678000D03*
X16950000Y31578000D03*
X16050000Y31578000D03*
X16050000Y30678000D03*
%TD*%
%TO.C,N4*%
X13527000Y109407000D03*
X13527000Y110307000D03*
X12627000Y110307000D03*
X12627000Y109407000D03*
%TD*%
%TO.C,N195*%
X20373000Y37524000D03*
X20373000Y38424000D03*
X19473000Y38424000D03*
X19473000Y37524000D03*
%TD*%
%TO.C,N107*%
X27219000Y71754000D03*
X27219000Y72654000D03*
X26319000Y72654000D03*
X26319000Y71754000D03*
%TD*%
%TO.C,N75*%
X10104000Y82023000D03*
X10104000Y82923000D03*
X9204000Y82923000D03*
X9204000Y82023000D03*
%TD*%
%TO.C,N147*%
X10104000Y54639000D03*
X10104000Y55539000D03*
X9204000Y55539000D03*
X9204000Y54639000D03*
%TD*%
%TO.C,N192*%
X10104000Y37524000D03*
X10104000Y38424000D03*
X9204000Y38424000D03*
X9204000Y37524000D03*
%TD*%
%TO.C,N275*%
X16950000Y6717000D03*
X16950000Y7617000D03*
X16050000Y7617000D03*
X16050000Y6717000D03*
%TD*%
%TO.C,N188*%
X27219000Y40947000D03*
X27219000Y41847000D03*
X26319000Y41847000D03*
X26319000Y40947000D03*
%TD*%
%TO.C,N14*%
X16950000Y105984000D03*
X16950000Y106884000D03*
X16050000Y106884000D03*
X16050000Y105984000D03*
%TD*%
%TO.C,N109*%
X3258000Y68331000D03*
X3258000Y69231000D03*
X2358000Y69231000D03*
X2358000Y68331000D03*
%TD*%
%TO.C,N259*%
X23796000Y13563000D03*
X23796000Y14463000D03*
X22896000Y14463000D03*
X22896000Y13563000D03*
%TD*%
%TO.C,N60*%
X20373000Y88869000D03*
X20373000Y89769000D03*
X19473000Y89769000D03*
X19473000Y88869000D03*
%TD*%
%TO.C,N94*%
X13527000Y75177000D03*
X13527000Y76077000D03*
X12627000Y76077000D03*
X12627000Y75177000D03*
%TD*%
%TO.C,N127*%
X3258000Y61485000D03*
X3258000Y62385000D03*
X2358000Y62385000D03*
X2358000Y61485000D03*
%TD*%
%TO.C,N97*%
X23796000Y75177000D03*
X23796000Y76077000D03*
X22896000Y76077000D03*
X22896000Y75177000D03*
%TD*%
%TO.C,N166*%
X13527000Y47793000D03*
X13527000Y48693000D03*
X12627000Y48693000D03*
X12627000Y47793000D03*
%TD*%
%TO.C,N254*%
X6681000Y13563000D03*
X6681000Y14463000D03*
X5781000Y14463000D03*
X5781000Y13563000D03*
%TD*%
%TO.C,N121*%
X13527000Y64908000D03*
X13527000Y65808000D03*
X12627000Y65808000D03*
X12627000Y64908000D03*
%TD*%
%TO.C,N61*%
X23796000Y88869000D03*
X23796000Y89769000D03*
X22896000Y89769000D03*
X22896000Y88869000D03*
%TD*%
%TO.C,N135*%
X30642000Y61485000D03*
X30642000Y62385000D03*
X29742000Y62385000D03*
X29742000Y61485000D03*
%TD*%
%TO.C,N28*%
X3258000Y99138000D03*
X3258000Y100038000D03*
X2358000Y100038000D03*
X2358000Y99138000D03*
%TD*%
%TO.C,N152*%
X27219000Y54639000D03*
X27219000Y55539000D03*
X26319000Y55539000D03*
X26319000Y54639000D03*
%TD*%
%TO.C,N20*%
X6681000Y102561000D03*
X6681000Y103461000D03*
X5781000Y103461000D03*
X5781000Y102561000D03*
%TD*%
%TO.C,N44*%
X27219000Y95715000D03*
X27219000Y96615000D03*
X26319000Y96615000D03*
X26319000Y95715000D03*
%TD*%
%TO.C,N284*%
X16950000Y3294000D03*
X16950000Y4194000D03*
X16050000Y4194000D03*
X16050000Y3294000D03*
%TD*%
%TO.C,N144*%
X30642000Y58062000D03*
X30642000Y58962000D03*
X29742000Y58962000D03*
X29742000Y58062000D03*
%TD*%
%TO.C,N273*%
X10104000Y6717000D03*
X10104000Y7617000D03*
X9204000Y7617000D03*
X9204000Y6717000D03*
%TD*%
%TO.C,N27*%
X30642000Y102561000D03*
X30642000Y103461000D03*
X29742000Y103461000D03*
X29742000Y102561000D03*
%TD*%
%TO.C,N64*%
X3258000Y85446000D03*
X3258000Y86346000D03*
X2358000Y86346000D03*
X2358000Y85446000D03*
%TD*%
%TO.C,N281*%
X6681000Y3294000D03*
X6681000Y4194000D03*
X5781000Y4194000D03*
X5781000Y3294000D03*
%TD*%
%TO.C,N179*%
X27219000Y44370000D03*
X27219000Y45270000D03*
X26319000Y45270000D03*
X26319000Y44370000D03*
%TD*%
%TO.C,N123*%
X20373000Y64908000D03*
X20373000Y65808000D03*
X19473000Y65808000D03*
X19473000Y64908000D03*
%TD*%
%TO.C,N62*%
X27219000Y88869000D03*
X27219000Y89769000D03*
X26319000Y89769000D03*
X26319000Y88869000D03*
%TD*%
%TO.C,N161*%
X27219000Y51216000D03*
X27219000Y52116000D03*
X26319000Y52116000D03*
X26319000Y51216000D03*
%TD*%
%TO.C,N199*%
X3258000Y34101000D03*
X3258000Y35001000D03*
X2358000Y35001000D03*
X2358000Y34101000D03*
%TD*%
%TO.C,N211*%
X13527000Y30678000D03*
X13527000Y31578000D03*
X12627000Y31578000D03*
X12627000Y30678000D03*
%TD*%
%TO.C,N131*%
X16950000Y61485000D03*
X16950000Y62385000D03*
X16050000Y62385000D03*
X16050000Y61485000D03*
%TD*%
%TO.C,N126*%
X30642000Y64908000D03*
X30642000Y65808000D03*
X29742000Y65808000D03*
X29742000Y64908000D03*
%TD*%
%TO.C,N158*%
X16950000Y51216000D03*
X16950000Y52116000D03*
X16050000Y52116000D03*
X16050000Y51216000D03*
%TD*%
%TO.C,N247*%
X13527000Y16986000D03*
X13527000Y17886000D03*
X12627000Y17886000D03*
X12627000Y16986000D03*
%TD*%
%TO.C,N253*%
X3258000Y13563000D03*
X3258000Y14463000D03*
X2358000Y14463000D03*
X2358000Y13563000D03*
%TD*%
%TO.C,N263*%
X6681000Y10140000D03*
X6681000Y11040000D03*
X5781000Y11040000D03*
X5781000Y10140000D03*
%TD*%
%TO.C,N202*%
X13527000Y34101000D03*
X13527000Y35001000D03*
X12627000Y35001000D03*
X12627000Y34101000D03*
%TD*%
%TO.C,N98*%
X27219000Y75177000D03*
X27219000Y76077000D03*
X26319000Y76077000D03*
X26319000Y75177000D03*
%TD*%
%TO.C,N163*%
X3258000Y47793000D03*
X3258000Y48693000D03*
X2358000Y48693000D03*
X2358000Y47793000D03*
%TD*%
%TO.C,N9*%
X30642000Y109407000D03*
X30642000Y110307000D03*
X29742000Y110307000D03*
X29742000Y109407000D03*
%TD*%
%TO.C,N170*%
X27219000Y47793000D03*
X27219000Y48693000D03*
X26319000Y48693000D03*
X26319000Y47793000D03*
%TD*%
%TO.C,N186*%
X20373000Y40947000D03*
X20373000Y41847000D03*
X19473000Y41847000D03*
X19473000Y40947000D03*
%TD*%
%TO.C,N8*%
X27219000Y109407000D03*
X27219000Y110307000D03*
X26319000Y110307000D03*
X26319000Y109407000D03*
%TD*%
%TO.C,N31*%
X13527000Y99138000D03*
X13527000Y100038000D03*
X12627000Y100038000D03*
X12627000Y99138000D03*
%TD*%
%TO.C,N76*%
X13527000Y82023000D03*
X13527000Y82923000D03*
X12627000Y82923000D03*
X12627000Y82023000D03*
%TD*%
%TO.C,N78*%
X20373000Y82023000D03*
X20373000Y82923000D03*
X19473000Y82923000D03*
X19473000Y82023000D03*
%TD*%
%TO.C,N18*%
X30642000Y105984000D03*
X30642000Y106884000D03*
X29742000Y106884000D03*
X29742000Y105984000D03*
%TD*%
%TO.C,N80*%
X27219000Y82023000D03*
X27219000Y82923000D03*
X26319000Y82923000D03*
X26319000Y82023000D03*
%TD*%
%TO.C,N67*%
X13527000Y85446000D03*
X13527000Y86346000D03*
X12627000Y86346000D03*
X12627000Y85446000D03*
%TD*%
%TO.C,N196*%
X23796000Y37524000D03*
X23796000Y38424000D03*
X22896000Y38424000D03*
X22896000Y37524000D03*
%TD*%
%TO.C,N48*%
X10104000Y92292000D03*
X10104000Y93192000D03*
X9204000Y93192000D03*
X9204000Y92292000D03*
%TD*%
%TO.C,N176*%
X16950000Y44370000D03*
X16950000Y45270000D03*
X16050000Y45270000D03*
X16050000Y44370000D03*
%TD*%
%TO.C,N106*%
X23796000Y71754000D03*
X23796000Y72654000D03*
X22896000Y72654000D03*
X22896000Y71754000D03*
%TD*%
%TO.C,N252*%
X30642000Y16986000D03*
X30642000Y17886000D03*
X29742000Y17886000D03*
X29742000Y16986000D03*
%TD*%
%TO.C,N222*%
X20373000Y27255000D03*
X20373000Y28155000D03*
X19473000Y28155000D03*
X19473000Y27255000D03*
%TD*%
%TO.C,N173*%
X6681000Y44370000D03*
X6681000Y45270000D03*
X5781000Y45270000D03*
X5781000Y44370000D03*
%TD*%
%TO.C,N194*%
X16950000Y37524000D03*
X16950000Y38424000D03*
X16050000Y38424000D03*
X16050000Y37524000D03*
%TD*%
%TO.C,N74*%
X6681000Y82023000D03*
X6681000Y82923000D03*
X5781000Y82923000D03*
X5781000Y82023000D03*
%TD*%
%TO.C,N49*%
X13527000Y92292000D03*
X13527000Y93192000D03*
X12627000Y93192000D03*
X12627000Y92292000D03*
%TD*%
%TO.C,N125*%
X27219000Y64908000D03*
X27219000Y65808000D03*
X26319000Y65808000D03*
X26319000Y64908000D03*
%TD*%
%TO.C,N51*%
X20373000Y92292000D03*
X20373000Y93192000D03*
X19473000Y93192000D03*
X19473000Y92292000D03*
%TD*%
%TO.C,N154*%
X3258000Y51216000D03*
X3258000Y52116000D03*
X2358000Y52116000D03*
X2358000Y51216000D03*
%TD*%
%TO.C,N19*%
X3258000Y102561000D03*
X3258000Y103461000D03*
X2358000Y103461000D03*
X2358000Y102561000D03*
%TD*%
%TO.C,N265*%
X13527000Y10140000D03*
X13527000Y11040000D03*
X12627000Y11040000D03*
X12627000Y10140000D03*
%TD*%
%TO.C,N73*%
X3258000Y82023000D03*
X3258000Y82923000D03*
X2358000Y82923000D03*
X2358000Y82023000D03*
%TD*%
%TO.C,N242*%
X27219000Y20409000D03*
X27219000Y21309000D03*
X26319000Y21309000D03*
X26319000Y20409000D03*
%TD*%
%TO.C,N15*%
X20373000Y105984000D03*
X20373000Y106884000D03*
X19473000Y106884000D03*
X19473000Y105984000D03*
%TD*%
%TO.C,N59*%
X16950000Y88869000D03*
X16950000Y89769000D03*
X16050000Y89769000D03*
X16050000Y88869000D03*
%TD*%
%TO.C,N216*%
X30642000Y30678000D03*
X30642000Y31578000D03*
X29742000Y31578000D03*
X29742000Y30678000D03*
%TD*%
%TO.C,N12*%
X10104000Y105984000D03*
X10104000Y106884000D03*
X9204000Y106884000D03*
X9204000Y105984000D03*
%TD*%
%TO.C,N87*%
X20373000Y78600000D03*
X20373000Y79500000D03*
X19473000Y79500000D03*
X19473000Y78600000D03*
%TD*%
%TO.C,N243*%
X30642000Y20409000D03*
X30642000Y21309000D03*
X29742000Y21309000D03*
X29742000Y20409000D03*
%TD*%
%TO.C,N261*%
X30642000Y13563000D03*
X30642000Y14463000D03*
X29742000Y14463000D03*
X29742000Y13563000D03*
%TD*%
%TO.C,N38*%
X6681000Y95715000D03*
X6681000Y96615000D03*
X5781000Y96615000D03*
X5781000Y95715000D03*
%TD*%
%TO.C,N21*%
X10104000Y102561000D03*
X10104000Y103461000D03*
X9204000Y103461000D03*
X9204000Y102561000D03*
%TD*%
%TO.C,N268*%
X23796000Y10140000D03*
X23796000Y11040000D03*
X22896000Y11040000D03*
X22896000Y10140000D03*
%TD*%
%TO.C,N217*%
X3258000Y27255000D03*
X3258000Y28155000D03*
X2358000Y28155000D03*
X2358000Y27255000D03*
%TD*%
%TO.C,N2*%
X6681000Y109407000D03*
X6681000Y110307000D03*
X5781000Y110307000D03*
X5781000Y109407000D03*
%TD*%
%TO.C,N52*%
X23796000Y92292000D03*
X23796000Y93192000D03*
X22896000Y93192000D03*
X22896000Y92292000D03*
%TD*%
%TO.C,N182*%
X6681000Y40947000D03*
X6681000Y41847000D03*
X5781000Y41847000D03*
X5781000Y40947000D03*
%TD*%
%TO.C,N286*%
X23796000Y3294000D03*
X23796000Y4194000D03*
X22896000Y4194000D03*
X22896000Y3294000D03*
%TD*%
%TO.C,N104*%
X16950000Y71754000D03*
X16950000Y72654000D03*
X16050000Y72654000D03*
X16050000Y71754000D03*
%TD*%
%TO.C,N118*%
X3258000Y64908000D03*
X3258000Y65808000D03*
X2358000Y65808000D03*
X2358000Y64908000D03*
%TD*%
%TO.C,N7*%
X23796000Y109407000D03*
X23796000Y110307000D03*
X22896000Y110307000D03*
X22896000Y109407000D03*
%TD*%
%TO.C,N183*%
X10104000Y40947000D03*
X10104000Y41847000D03*
X9204000Y41847000D03*
X9204000Y40947000D03*
%TD*%
%TO.C,N110*%
X6681000Y68331000D03*
X6681000Y69231000D03*
X5781000Y69231000D03*
X5781000Y68331000D03*
%TD*%
%TO.C,N37*%
X3258000Y95715000D03*
X3258000Y96615000D03*
X2358000Y96615000D03*
X2358000Y95715000D03*
%TD*%
%TO.C,N150*%
X20373000Y54639000D03*
X20373000Y55539000D03*
X19473000Y55539000D03*
X19473000Y54639000D03*
%TD*%
%TO.C,N198*%
X30642000Y37524000D03*
X30642000Y38424000D03*
X29742000Y38424000D03*
X29742000Y37524000D03*
%TD*%
%TO.C,N277*%
X23796000Y6717000D03*
X23796000Y7617000D03*
X22896000Y7617000D03*
X22896000Y6717000D03*
%TD*%
%TO.C,N228*%
X10104000Y23832000D03*
X10104000Y24732000D03*
X9204000Y24732000D03*
X9204000Y23832000D03*
%TD*%
%LPD*%
M02*
