M48
; DRILL file {KiCad 8.0.1} date 2024-04-01T01:15:32-0400
; FORMAT={-:-/ absolute / inch / decimal}
; #@! TF.CreationDate,2024-04-01T01:15:32-04:00
; #@! TF.GenerationSoftware,Kicad,Pcbnew,8.0.1
; #@! TF.FileFunction,Plated,1,2,PTH
FMAT,2
INCH
; #@! TA.AperFunction,Plated,PTH,ViaDrill
T1C0.0118
%
G90
G05
T1
X0.0709Y2.6912
X0.0844Y0.7778
X0.0898Y2.1319
X0.0898Y1.2967
X0.0907Y1.0465
X0.0923Y4.2874
X0.1005Y1.1483
X0.1026Y0.5405
X0.1032Y1.2572
X0.1047Y0.9105
X0.1048Y0.8605
X0.11Y2.6161
X0.11Y2.0768
X0.11Y1.8091
X0.11Y1.5374
X0.1139Y3.9665
X0.1139Y3.1595
X0.1139Y2.3484
X0.1178Y3.6988
X0.1178Y3.4272
X0.1178Y2.8878
X0.1264Y0.6433
X0.1281Y0.5967
X0.1531Y0.8957
X0.1749Y1.2205
X0.1769Y1.626
X0.1769Y1.4902
X0.1769Y1.3524
X0.1929Y4.3644
X0.1929Y4.2297
X0.1929Y4.0949
X0.1929Y3.9602
X0.1929Y3.8254
X0.1929Y3.6906
X0.1929Y3.5559
X0.1929Y3.4211
X0.1929Y3.2863
X0.1929Y3.1516
X0.1929Y3.0168
X0.1929Y2.882
X0.1929Y2.7473
X0.1929Y2.6125
X0.1929Y2.4778
X0.1929Y2.343
X0.1929Y2.2082
X0.1929Y2.0735
X0.1929Y1.9387
X0.1929Y1.8039
X0.1929Y1.6692
X0.1929Y1.5344
X0.1929Y1.3996
X0.1929Y1.2649
X0.1929Y1.1301
X0.1929Y0.1868
X0.1985Y0.5873
X0.2005Y0.3209
X0.2044Y0.4547
X0.2244Y3.8444
X0.267Y0.7754
X0.284Y1.0445
X0.2863Y0.6267
X0.2903Y0.764
X0.3036Y4.3152
X0.3036Y4.1805
X0.3036Y4.0457
X0.3036Y3.9109
X0.3036Y3.7762
X0.3036Y3.6414
X0.3036Y3.5067
X0.3036Y3.3719
X0.3036Y3.2371
X0.3036Y3.1024
X0.3036Y2.9676
X0.3036Y2.8328
X0.3036Y2.6981
X0.3036Y2.5633
X0.3036Y2.4285
X0.3036Y2.2938
X0.3036Y2.159
X0.3036Y2.0243
X0.3036Y1.8895
X0.3036Y1.7547
X0.3036Y1.62
X0.3036Y1.4852
X0.3036Y1.3504
X0.3036Y1.2157
X0.3036Y1.0886
X0.3096Y0.8171
X0.3257Y0.974
X0.3268Y1.1282
X0.3277Y4.3644
X0.3277Y4.2297
X0.3277Y4.0949
X0.3277Y3.9602
X0.3277Y3.8254
X0.3277Y3.6906
X0.3277Y3.5559
X0.3277Y3.4211
X0.3277Y3.2863
X0.3277Y3.1516
X0.3277Y3.0168
X0.3277Y2.882
X0.3277Y2.7473
X0.3277Y2.6125
X0.3277Y2.4778
X0.3277Y2.343
X0.3277Y2.2082
X0.3277Y2.0735
X0.3277Y1.9387
X0.3277Y1.8039
X0.3277Y1.6692
X0.3277Y1.5344
X0.3277Y1.3996
X0.3277Y1.2649
X0.3277Y0.1868
X0.3441Y1.0295
X0.347Y0.7149
X0.3579Y0.8922
X0.38Y0.6252
X0.4069Y1.6928
X0.4199Y0.8999
X0.4281Y0.82
X0.432Y0.7713
X0.4382Y0.6184
X0.4409Y3.31
X0.4413Y0.8585
X0.4449Y0.9944
X0.4587Y0.9048
X0.4606Y1.1282
X0.4624Y4.3644
X0.4624Y4.2297
X0.4624Y4.0949
X0.4624Y3.9602
X0.4624Y3.8254
X0.4624Y3.6906
X0.4624Y3.5559
X0.4624Y3.4211
X0.4624Y3.2863
X0.4624Y3.1516
X0.4624Y3.0168
X0.4624Y2.882
X0.4624Y2.7473
X0.4624Y2.6125
X0.4624Y2.4778
X0.4624Y2.343
X0.4624Y2.2082
X0.4624Y2.0735
X0.4624Y1.9387
X0.4624Y1.8039
X0.4624Y1.6692
X0.4624Y1.5344
X0.4624Y1.3996
X0.4624Y1.2649
X0.4624Y0.1868
X0.4795Y0.4512
X0.5315Y1.0416
X0.5512Y0.9983
X0.5945Y1.1282
X0.5972Y4.3644
X0.5972Y4.2297
X0.5972Y4.0949
X0.5972Y3.9602
X0.5972Y3.8254
X0.5972Y3.6906
X0.5972Y3.5559
X0.5972Y3.4211
X0.5972Y3.2863
X0.5972Y3.1516
X0.5972Y3.0168
X0.5972Y2.882
X0.5972Y2.7473
X0.5972Y2.6125
X0.5972Y2.4778
X0.5972Y2.343
X0.5972Y2.2082
X0.5972Y2.0735
X0.5972Y1.9387
X0.5972Y1.8039
X0.5972Y1.6692
X0.5972Y1.5344
X0.5972Y1.3996
X0.5972Y1.2649
X0.5972Y0.3215
X0.5972Y0.1868
X0.6169Y0.7448
X0.627Y1.1443
X0.6921Y0.5531
X0.7047Y1.4844
X0.7047Y1.3496
X0.7047Y1.2148
X0.7047Y1.0801
X0.7197Y0.5488
X0.7244Y0.5239
X0.732Y4.3644
X0.732Y4.2297
X0.732Y4.0949
X0.732Y3.9602
X0.732Y3.8254
X0.732Y3.6906
X0.732Y3.5559
X0.732Y3.4211
X0.732Y3.2863
X0.732Y3.1516
X0.732Y3.0168
X0.732Y2.882
X0.732Y2.7473
X0.732Y2.6125
X0.732Y2.4778
X0.732Y2.343
X0.732Y2.2082
X0.732Y2.0735
X0.732Y1.9387
X0.732Y1.8039
X0.732Y1.6692
X0.732Y1.5344
X0.732Y1.3996
X0.732Y1.2649
X0.732Y0.3215
X0.732Y0.1868
X0.7362Y1.1282
X0.7536Y0.8948
X0.766Y0.6181
X0.8268Y0.8605
X0.8292Y0.5748
X0.8427Y4.0457
X0.8427Y3.9109
X0.8427Y3.7762
X0.8427Y3.6414
X0.8427Y3.5067
X0.8427Y3.3719
X0.8427Y3.2371
X0.8427Y3.1024
X0.8427Y2.9676
X0.8427Y2.8328
X0.8427Y2.6981
X0.8427Y2.5633
X0.8427Y2.4285
X0.8427Y2.2938
X0.8427Y2.159
X0.8427Y2.0243
X0.8427Y1.8895
X0.8427Y1.7547
X0.8427Y1.62
X0.8427Y1.4852
X0.8465Y0.9136
X0.8591Y0.6105
X0.8661Y0.8605
X0.8667Y4.3644
X0.8667Y4.2297
X0.8667Y4.0949
X0.8667Y3.9602
X0.8667Y3.8254
X0.8667Y3.6906
X0.8667Y3.5559
X0.8667Y3.4211
X0.8667Y3.2863
X0.8667Y3.1516
X0.8667Y3.0168
X0.8667Y2.882
X0.8667Y2.7473
X0.8667Y2.6125
X0.8667Y2.4778
X0.8667Y2.343
X0.8667Y2.2082
X0.8667Y2.0735
X0.8667Y1.9387
X0.8667Y1.8039
X0.8667Y1.6692
X0.8667Y1.5344
X0.8667Y1.3996
X0.8667Y1.2649
X0.8667Y0.1868
X0.8701Y1.1282
X0.878Y1.0022
X0.8983Y0.6102
X0.9604Y0.6181
X0.9724Y1.4844
X0.9724Y1.3496
X0.9724Y1.2148
X0.9724Y1.0801
X0.9961Y0.9944
X0.9961Y0.5889
X0.9961Y0.455
X1.0015Y4.3644
X1.0015Y4.2297
X1.0015Y4.0949
X1.0015Y3.9602
X1.0015Y3.8254
X1.0015Y3.6906
X1.0015Y3.5559
X1.0015Y3.4211
X1.0015Y3.2863
X1.0015Y3.1516
X1.0015Y3.0168
X1.0015Y2.882
X1.0015Y2.7473
X1.0015Y2.6125
X1.0015Y2.4778
X1.0015Y2.343
X1.0015Y2.2082
X1.0015Y2.0735
X1.0015Y1.9387
X1.0015Y1.8039
X1.0015Y1.6692
X1.0015Y1.5344
X1.0015Y1.3996
X1.0015Y1.2649
X1.0015Y0.1868
X1.0039Y1.1282
X1.0917Y0.9012
X1.0961Y0.726
X1.1122Y4.3152
X1.1122Y4.1805
X1.1122Y4.0457
X1.1122Y3.9109
X1.1122Y3.7762
X1.1122Y3.6414
X1.1122Y3.5067
X1.1122Y3.3719
X1.1122Y3.2371
X1.1122Y3.1024
X1.1122Y2.9676
X1.1122Y2.8328
X1.1122Y2.6981
X1.1122Y2.5633
X1.1122Y2.4285
X1.1122Y2.2938
X1.1122Y2.159
X1.1122Y2.0243
X1.1122Y1.8895
X1.1122Y1.7547
X1.1122Y1.62
X1.1122Y1.4852
X1.1122Y1.3504
X1.1122Y1.2157
X1.1122Y1.0809
X1.1339Y0.9944
X1.1363Y4.3644
X1.1363Y4.2297
X1.1363Y4.0949
X1.1363Y3.9602
X1.1363Y3.8254
X1.1363Y3.6906
X1.1363Y3.5559
X1.1363Y3.4211
X1.1363Y3.2863
X1.1363Y3.1516
X1.1363Y3.0168
X1.1363Y2.882
X1.1363Y2.7473
X1.1363Y2.6125
X1.1363Y2.4778
X1.1363Y2.343
X1.1363Y2.2082
X1.1363Y2.0735
X1.1363Y1.9387
X1.1363Y1.8039
X1.1363Y1.6692
X1.1363Y1.5344
X1.1363Y1.3996
X1.1363Y1.2649
X1.1363Y0.1868
X1.1378Y1.1282
X1.1473Y0.6924
X1.1611Y0.455
X1.1634Y0.8625
X1.1736Y4.3712
X1.1772Y3.1611
X1.1772Y2.081
X1.1772Y1.5439
X1.185Y3.6952
X1.185Y2.622
X1.1927Y2.751
X1.1929Y3.8291
X1.1937Y2.214
X1.1941Y3.2924
X1.1956Y1.6768
X1.1974Y1.1395
X1.2103Y4.1187
M30
