%TF.GenerationSoftware,KiCad,Pcbnew,8.0.1*%
%TF.CreationDate,2024-04-01T01:15:32-04:00*%
%TF.ProjectId,MicrocontrollerInputModule,4d696372-6f63-46f6-9e74-726f6c6c6572,V3.0*%
%TF.SameCoordinates,Original*%
%TF.FileFunction,Paste,Bot*%
%TF.FilePolarity,Positive*%
%FSLAX46Y46*%
G04 Gerber Fmt 4.6, Leading zero omitted, Abs format (unit mm)*
G04 Created by KiCad (PCBNEW 8.0.1) date 2024-04-01 01:15:32*
%MOMM*%
%LPD*%
G01*
G04 APERTURE LIST*
G04 Aperture macros list*
%AMRoundRect*
0 Rectangle with rounded corners*
0 $1 Rounding radius*
0 $2 $3 $4 $5 $6 $7 $8 $9 X,Y pos of 4 corners*
0 Add a 4 corners polygon primitive as box body*
4,1,4,$2,$3,$4,$5,$6,$7,$8,$9,$2,$3,0*
0 Add four circle primitives for the rounded corners*
1,1,$1+$1,$2,$3*
1,1,$1+$1,$4,$5*
1,1,$1+$1,$6,$7*
1,1,$1+$1,$8,$9*
0 Add four rect primitives between the rounded corners*
20,1,$1+$1,$2,$3,$4,$5,0*
20,1,$1+$1,$4,$5,$6,$7,0*
20,1,$1+$1,$6,$7,$8,$9,0*
20,1,$1+$1,$8,$9,$2,$3,0*%
G04 Aperture macros list end*
%ADD10C,0.010000*%
%ADD11RoundRect,0.140000X-0.140000X-0.170000X0.140000X-0.170000X0.140000X0.170000X-0.140000X0.170000X0*%
%ADD12RoundRect,0.140000X0.140000X0.170000X-0.140000X0.170000X-0.140000X-0.170000X0.140000X-0.170000X0*%
%ADD13RoundRect,0.135000X0.185000X-0.135000X0.185000X0.135000X-0.185000X0.135000X-0.185000X-0.135000X0*%
%ADD14RoundRect,0.225000X-0.250000X0.225000X-0.250000X-0.225000X0.250000X-0.225000X0.250000X0.225000X0*%
%ADD15RoundRect,0.249999X0.395001X-0.395001X0.395001X0.395001X-0.395001X0.395001X-0.395001X-0.395001X0*%
%ADD16RoundRect,0.050000X0.050000X-0.387500X0.050000X0.387500X-0.050000X0.387500X-0.050000X-0.387500X0*%
%ADD17RoundRect,0.050000X0.387500X-0.050000X0.387500X0.050000X-0.387500X0.050000X-0.387500X-0.050000X0*%
%ADD18RoundRect,0.135000X0.135000X0.185000X-0.135000X0.185000X-0.135000X-0.185000X0.135000X-0.185000X0*%
%ADD19RoundRect,0.250000X0.312500X0.625000X-0.312500X0.625000X-0.312500X-0.625000X0.312500X-0.625000X0*%
%ADD20RoundRect,0.147500X-0.172500X0.147500X-0.172500X-0.147500X0.172500X-0.147500X0.172500X0.147500X0*%
%ADD21RoundRect,0.135000X-0.135000X-0.185000X0.135000X-0.185000X0.135000X0.185000X-0.135000X0.185000X0*%
%ADD22RoundRect,0.135000X-0.185000X0.135000X-0.185000X-0.135000X0.185000X-0.135000X0.185000X0.135000X0*%
%ADD23RoundRect,0.225000X-0.225000X-0.250000X0.225000X-0.250000X0.225000X0.250000X-0.225000X0.250000X0*%
%ADD24RoundRect,0.050000X-0.050000X-0.750000X0.050000X-0.750000X0.050000X0.750000X-0.050000X0.750000X0*%
%ADD25RoundRect,0.075000X-0.187500X-0.075000X0.187500X-0.075000X0.187500X0.075000X-0.187500X0.075000X0*%
%ADD26R,1.200000X1.400000*%
%ADD27RoundRect,0.007800X0.422200X0.122200X-0.422200X0.122200X-0.422200X-0.122200X0.422200X-0.122200X0*%
%ADD28RoundRect,0.007800X-0.122200X0.422200X-0.122200X-0.422200X0.122200X-0.422200X0.122200X0.422200X0*%
%ADD29R,0.400000X0.800000*%
%ADD30RoundRect,0.140000X-0.170000X0.140000X-0.170000X-0.140000X0.170000X-0.140000X0.170000X0.140000X0*%
%ADD31R,1.250000X0.760000*%
%ADD32RoundRect,0.147500X0.147500X0.172500X-0.147500X0.172500X-0.147500X-0.172500X0.147500X-0.172500X0*%
%ADD33RoundRect,0.147500X0.017678X-0.226274X0.226274X-0.017678X-0.017678X0.226274X-0.226274X0.017678X0*%
G04 APERTURE END LIST*
D10*
%TO.C,J2*%
X13875000Y10750000D02*
X13625000Y10750000D01*
X13625000Y11400000D01*
X13875000Y11400000D01*
X13875000Y10750000D01*
G36*
X13875000Y10750000D02*
G01*
X13625000Y10750000D01*
X13625000Y11400000D01*
X13875000Y11400000D01*
X13875000Y10750000D01*
G37*
X14375000Y10750000D02*
X14125000Y10750000D01*
X14125000Y11400000D01*
X14375000Y11400000D01*
X14375000Y10750000D01*
G36*
X14375000Y10750000D02*
G01*
X14125000Y10750000D01*
X14125000Y11400000D01*
X14375000Y11400000D01*
X14375000Y10750000D01*
G37*
X14875000Y10750000D02*
X14625000Y10750000D01*
X14625000Y11400000D01*
X14875000Y11400000D01*
X14875000Y10750000D01*
G36*
X14875000Y10750000D02*
G01*
X14625000Y10750000D01*
X14625000Y11400000D01*
X14875000Y11400000D01*
X14875000Y10750000D01*
G37*
X15375000Y10750000D02*
X15125000Y10750000D01*
X15125000Y11400000D01*
X15375000Y11400000D01*
X15375000Y10750000D01*
G36*
X15375000Y10750000D02*
G01*
X15125000Y10750000D01*
X15125000Y11400000D01*
X15375000Y11400000D01*
X15375000Y10750000D01*
G37*
X15875000Y10750000D02*
X15625000Y10750000D01*
X15625000Y11400000D01*
X15875000Y11400000D01*
X15875000Y10750000D01*
G36*
X15875000Y10750000D02*
G01*
X15625000Y10750000D01*
X15625000Y11400000D01*
X15875000Y11400000D01*
X15875000Y10750000D01*
G37*
X16375000Y10750000D02*
X16125000Y10750000D01*
X16125000Y11400000D01*
X16375000Y11400000D01*
X16375000Y10750000D01*
G36*
X16375000Y10750000D02*
G01*
X16125000Y10750000D01*
X16125000Y11400000D01*
X16375000Y11400000D01*
X16375000Y10750000D01*
G37*
X16875000Y10750000D02*
X16625000Y10750000D01*
X16625000Y11400000D01*
X16875000Y11400000D01*
X16875000Y10750000D01*
G36*
X16875000Y10750000D02*
G01*
X16625000Y10750000D01*
X16625000Y11400000D01*
X16875000Y11400000D01*
X16875000Y10750000D01*
G37*
X17375000Y10750000D02*
X17125000Y10750000D01*
X17125000Y11400000D01*
X17375000Y11400000D01*
X17375000Y10750000D01*
G36*
X17375000Y10750000D02*
G01*
X17125000Y10750000D01*
X17125000Y11400000D01*
X17375000Y11400000D01*
X17375000Y10750000D01*
G37*
X17875000Y10750000D02*
X17625000Y10750000D01*
X17625000Y11400000D01*
X17875000Y11400000D01*
X17875000Y10750000D01*
G36*
X17875000Y10750000D02*
G01*
X17625000Y10750000D01*
X17625000Y11400000D01*
X17875000Y11400000D01*
X17875000Y10750000D01*
G37*
X18375000Y10750000D02*
X18125000Y10750000D01*
X18125000Y11400000D01*
X18375000Y11400000D01*
X18375000Y10750000D01*
G36*
X18375000Y10750000D02*
G01*
X18125000Y10750000D01*
X18125000Y11400000D01*
X18375000Y11400000D01*
X18375000Y10750000D01*
G37*
X18875000Y10750000D02*
X18625000Y10750000D01*
X18625000Y11400000D01*
X18875000Y11400000D01*
X18875000Y10750000D01*
G36*
X18875000Y10750000D02*
G01*
X18625000Y10750000D01*
X18625000Y11400000D01*
X18875000Y11400000D01*
X18875000Y10750000D01*
G37*
X19375000Y10750000D02*
X19125000Y10750000D01*
X19125000Y11400000D01*
X19375000Y11400000D01*
X19375000Y10750000D01*
G36*
X19375000Y10750000D02*
G01*
X19125000Y10750000D01*
X19125000Y11400000D01*
X19375000Y11400000D01*
X19375000Y10750000D01*
G37*
%TD*%
D11*
%TO.C,C5*%
X26900000Y21185000D03*
X27860000Y21185000D03*
%TD*%
D12*
%TO.C,C7*%
X26000000Y25857000D03*
X25040000Y25857000D03*
%TD*%
D13*
%TO.C,R8*%
X4042893Y14080108D03*
X4042893Y15100108D03*
%TD*%
D14*
%TO.C,C18*%
X2369999Y16705000D03*
X2369999Y15155000D03*
%TD*%
D15*
%TO.C,U2*%
X20700000Y20400000D03*
X22300000Y20400000D03*
X20700000Y22000000D03*
X22300000Y22000000D03*
D16*
X24100000Y17762500D03*
X23700000Y17762500D03*
X23300000Y17762500D03*
X22900000Y17762500D03*
X22500000Y17762500D03*
X22100000Y17762500D03*
X21700000Y17762500D03*
X21300000Y17762500D03*
X20900000Y17762500D03*
X20500000Y17762500D03*
X20100000Y17762500D03*
X19700000Y17762500D03*
X19300000Y17762500D03*
X18900000Y17762500D03*
D17*
X18062500Y18600000D03*
X18062500Y19000000D03*
X18062500Y19400000D03*
X18062500Y19800000D03*
X18062500Y20200000D03*
X18062500Y20600000D03*
X18062500Y21000000D03*
X18062500Y21400000D03*
X18062500Y21800000D03*
X18062500Y22200000D03*
X18062500Y22600000D03*
X18062500Y23000000D03*
X18062500Y23400000D03*
X18062500Y23800000D03*
D16*
X18900000Y24637500D03*
X19300000Y24637500D03*
X19700000Y24637500D03*
X20100000Y24637500D03*
X20500000Y24637500D03*
X20900000Y24637500D03*
X21300000Y24637500D03*
X21700000Y24637500D03*
X22100000Y24637500D03*
X22500000Y24637500D03*
X22900000Y24637500D03*
X23300000Y24637500D03*
X23700000Y24637500D03*
X24100000Y24637500D03*
D17*
X24937500Y23800000D03*
X24937500Y23400000D03*
X24937500Y23000000D03*
X24937500Y22600000D03*
X24937500Y22200000D03*
X24937500Y21800000D03*
X24937500Y21400000D03*
X24937500Y21000000D03*
X24937500Y20600000D03*
X24937500Y20200000D03*
X24937500Y19800000D03*
X24937500Y19400000D03*
X24937500Y19000000D03*
X24937500Y18600000D03*
%TD*%
D18*
%TO.C,R12*%
X5460000Y21180000D03*
X4440000Y21180000D03*
%TD*%
%TO.C,R7*%
X11742893Y8450108D03*
X10722893Y8450108D03*
%TD*%
D19*
%TO.C,F1*%
X17662500Y13140000D03*
X14737500Y13140000D03*
%TD*%
D20*
%TO.C,D5*%
X22032893Y14130108D03*
X22032893Y13160108D03*
%TD*%
D21*
%TO.C,R1*%
X26110000Y15480000D03*
X27130000Y15480000D03*
%TD*%
D22*
%TO.C,R11*%
X8099999Y23100001D03*
X8099999Y22080001D03*
%TD*%
D23*
%TO.C,C16*%
X9172893Y12040108D03*
X10722893Y12040108D03*
%TD*%
%TO.C,C15*%
X19225000Y12800000D03*
X20775000Y12800000D03*
%TD*%
D11*
%TO.C,C9*%
X28840000Y21757000D03*
X29800000Y21757000D03*
%TD*%
D12*
%TO.C,C1*%
X16060000Y19700000D03*
X15100000Y19700000D03*
%TD*%
D20*
%TO.C,D1*%
X6622893Y10790108D03*
X6622893Y9820108D03*
%TD*%
D24*
%TO.C,U1*%
X28407500Y18857000D03*
D25*
X27120000Y18107000D03*
X27120000Y18607000D03*
X27120000Y19107000D03*
X27120000Y19607000D03*
X29695000Y19607000D03*
X29695000Y19107000D03*
X29695000Y18607000D03*
X29695000Y18107000D03*
%TD*%
D18*
%TO.C,R2*%
X28220000Y16816000D03*
X27200000Y16816000D03*
%TD*%
D11*
%TO.C,C6*%
X26400000Y23600000D03*
X27360000Y23600000D03*
%TD*%
D18*
%TO.C,R9*%
X4900000Y26000000D03*
X3880000Y26000000D03*
%TD*%
D13*
%TO.C,R10*%
X9350000Y25087000D03*
X9350000Y26107000D03*
%TD*%
D12*
%TO.C,C11*%
X24080000Y25950000D03*
X23120000Y25950000D03*
%TD*%
D26*
%TO.C,Y1*%
X13714000Y21665000D03*
X13714000Y19465000D03*
X12014000Y19465000D03*
X12014000Y21665000D03*
%TD*%
D19*
%TO.C,F2*%
X10932893Y10110108D03*
X8007893Y10110108D03*
%TD*%
D27*
%TO.C,U4*%
X3865000Y17655000D03*
D28*
X4300000Y18590000D03*
X4800000Y18590000D03*
X5300000Y18590000D03*
X5800000Y18590000D03*
X6300000Y18590000D03*
D27*
X6735000Y17655000D03*
X6735000Y17155000D03*
D28*
X6300000Y16220000D03*
X5800000Y16220000D03*
X5300000Y16220000D03*
X4800000Y16220000D03*
X4300000Y16220000D03*
D27*
X3865000Y17155000D03*
%TD*%
D22*
%TO.C,R15*%
X7969999Y17005000D03*
X7969999Y15985000D03*
%TD*%
%TO.C,R16*%
X6692893Y15020108D03*
X6692893Y14000108D03*
%TD*%
D18*
%TO.C,R5*%
X29880000Y23277000D03*
X28860000Y23277000D03*
%TD*%
D13*
%TO.C,R14*%
X7969999Y18405000D03*
X7969999Y19425000D03*
%TD*%
D14*
%TO.C,C17*%
X2600000Y22800000D03*
X2600000Y21250000D03*
%TD*%
D29*
%TO.C,J2*%
X12750000Y8500000D03*
X20250000Y8500000D03*
%TD*%
D11*
%TO.C,C2*%
X12940000Y23150000D03*
X13900000Y23150000D03*
%TD*%
D30*
%TO.C,C10*%
X26100000Y17400000D03*
X26100000Y16440000D03*
%TD*%
%TO.C,C3*%
X29100000Y16796000D03*
X29100000Y15836000D03*
%TD*%
D11*
%TO.C,C13*%
X20520000Y25950000D03*
X21480000Y25950000D03*
%TD*%
D18*
%TO.C,R6*%
X29340000Y24327000D03*
X28320000Y24327000D03*
%TD*%
D31*
%TO.C,SW1*%
X28742893Y11620108D03*
X28742893Y10350108D03*
X22592893Y10350108D03*
X22592893Y11620108D03*
%TD*%
D11*
%TO.C,C12*%
X20172893Y16300108D03*
X21132893Y16300108D03*
%TD*%
D20*
%TO.C,D4*%
X30392893Y11750108D03*
X30392893Y10780108D03*
%TD*%
D18*
%TO.C,R13*%
X4662893Y19780108D03*
X3642893Y19780108D03*
%TD*%
D11*
%TO.C,C8*%
X26400000Y24607000D03*
X27360000Y24607000D03*
%TD*%
D32*
%TO.C,D2*%
X19985000Y14000000D03*
X19015000Y14000000D03*
%TD*%
D12*
%TO.C,C4*%
X16260000Y22875000D03*
X15300000Y22875000D03*
%TD*%
D27*
%TO.C,U3*%
X4065000Y23850000D03*
D28*
X4500000Y24785000D03*
X5000000Y24785000D03*
X5500000Y24785000D03*
X6000000Y24785000D03*
X6500000Y24785000D03*
D27*
X6935000Y23850000D03*
X6935000Y23350000D03*
D28*
X6500000Y22415000D03*
X6000000Y22415000D03*
X5500000Y22415000D03*
X5000000Y22415000D03*
X4500000Y22415000D03*
D27*
X4065000Y23350000D03*
%TD*%
D33*
%TO.C,D3*%
X29956999Y8914214D03*
X30642893Y9600108D03*
%TD*%
D21*
%TO.C,R3*%
X15290000Y20875000D03*
X16310000Y20875000D03*
%TD*%
D12*
%TO.C,C14*%
X16260000Y21900000D03*
X15300000Y21900000D03*
%TD*%
D22*
%TO.C,R4*%
X16900000Y25820000D03*
X16900000Y24800000D03*
%TD*%
D18*
%TO.C,R24*%
X4392893Y27620108D03*
X3372893Y27620108D03*
%TD*%
M02*
