%TF.GenerationSoftware,KiCad,Pcbnew,7.0.8*%
%TF.CreationDate,2023-10-22T17:40:08-04:00*%
%TF.ProjectId,RGB-Panel,5247422d-5061-46e6-956c-2e6b69636164,V2.6*%
%TF.SameCoordinates,Original*%
%TF.FileFunction,Drillmap*%
%TF.FilePolarity,Positive*%
%FSLAX45Y45*%
G04 Gerber Fmt 4.5, Leading zero omitted, Abs format (unit mm)*
G04 Created by KiCad (PCBNEW 7.0.8) date 2023-10-22 17:40:08*
%MOMM*%
%LPD*%
G01*
G04 APERTURE LIST*
%ADD10C,0.100000*%
%ADD11C,0.200000*%
%ADD12C,0.050000*%
%ADD13C,0.300000*%
G04 APERTURE END LIST*
D10*
X10280902Y-13798778D02*
X10283867Y-13794463D01*
X10700000Y-11214444D02*
X10500000Y-11214444D01*
X6500000Y-14539999D02*
X6500000Y-14539999D01*
X10293358Y-13775836D02*
X10295106Y-13770901D01*
X7289884Y-13839486D02*
X7294936Y-13839871D01*
X10225882Y-13836592D02*
X10230902Y-13835105D01*
X7270064Y-2704586D02*
X7265270Y-2706225D01*
X10500000Y-9038889D02*
X10700000Y-9038889D01*
X10245399Y-13829100D02*
X10250000Y-13826602D01*
X10789884Y-2700513D02*
X10784858Y-2701153D01*
X10738790Y-13819077D02*
X10742873Y-13822076D01*
X10240674Y-13831354D02*
X10245399Y-13829100D01*
X7220923Y-2738789D02*
X7217924Y-2742873D01*
X7200000Y-13740000D02*
X7200128Y-13745064D01*
X10784858Y-13838846D02*
X10789884Y-13839486D01*
X13700001Y-2700000D02*
X12916667Y-2700000D01*
X7234863Y-13815876D02*
X7238789Y-13819077D01*
X12916667Y-2500000D02*
X14000000Y-2500000D01*
X10742873Y-13822076D02*
X10747104Y-13824864D01*
X14000000Y-12752222D02*
X14000000Y-14039999D01*
X10205234Y-13839862D02*
X10210453Y-13839452D01*
X13789780Y-2755961D02*
X13787434Y-2751470D01*
X13730902Y-13835105D02*
X13735837Y-13833357D01*
X12916667Y-2700000D02*
X12916667Y-2500000D01*
X13770711Y-13810710D02*
X13774315Y-13806912D01*
X7200000Y-11514444D02*
X7200000Y-12452222D01*
X10299999Y-2800000D02*
X10299871Y-2794935D01*
X10731104Y-2727520D02*
X10727521Y-2731103D01*
X7000000Y-2500000D02*
X8083333Y-2500000D01*
X9416667Y-14039999D02*
X9416667Y-13839999D01*
X7000000Y-7801111D02*
X7000000Y-7801111D01*
X7000000Y-14039999D02*
X7000000Y-12752222D01*
X7300000Y-2700000D02*
X7294936Y-2700128D01*
X10794936Y-2700128D02*
X10789884Y-2700513D01*
X11583333Y-2500000D02*
X11583333Y-2500000D01*
X13772479Y-2731104D02*
X13768896Y-2727521D01*
X7000000Y-7801111D02*
X7200000Y-7801111D01*
X10299486Y-2789883D02*
X10298846Y-2784857D01*
X7251470Y-2712565D02*
X7247104Y-2715135D01*
X10747104Y-13824864D02*
X10751470Y-13827434D01*
X14000000Y-2500000D02*
X14000000Y-2500000D01*
X14000000Y-6263333D02*
X14000000Y-6263333D01*
X9416667Y-14039999D02*
X9416667Y-14039999D01*
X13799999Y-7801111D02*
X14000000Y-7801111D01*
X14000000Y-7501111D02*
X13799999Y-7501111D01*
X14000000Y-11514444D02*
X14000000Y-12452222D01*
X10299999Y-6563333D02*
X10500000Y-6563333D01*
X8383333Y-14039999D02*
X8383333Y-14039999D01*
X13798769Y-13755643D02*
X13799452Y-13750453D01*
X7000000Y-9038889D02*
X7200000Y-9038889D01*
X13799999Y-6563333D02*
X14000000Y-6563333D01*
X11883333Y-13839999D02*
X12616667Y-13839999D01*
X10287434Y-2751470D02*
X10284864Y-2747104D01*
X10265137Y-2724125D02*
X10261211Y-2720923D01*
X13799999Y-5325555D02*
X14000000Y-5325555D01*
X14000000Y-12452222D02*
X13800000Y-12452222D01*
X14000000Y-2500000D02*
X14000000Y-3787778D01*
X7242874Y-2717923D02*
X7238790Y-2720922D01*
X13786603Y-13790000D02*
X13789101Y-13785399D01*
X7200000Y-9038889D02*
X7200000Y-9976666D01*
X10300000Y-8738889D02*
X10300000Y-7801111D01*
X13800000Y-12452222D02*
X13800000Y-11514444D01*
X10299863Y-13745233D02*
X10300000Y-13740000D01*
X13787434Y-2751470D02*
X13784864Y-2747104D01*
X10779871Y-2702047D02*
X10774935Y-2703192D01*
X14000000Y-3787778D02*
X13799999Y-3787778D01*
X7220922Y-13801210D02*
X7224124Y-13805137D01*
X10500000Y-11514444D02*
X10700000Y-11514444D01*
X11583333Y-2700000D02*
X10800001Y-2700000D01*
X13735837Y-13833357D02*
X13740674Y-13831354D01*
X7200129Y-2794935D02*
X7200001Y-2800000D01*
X10774935Y-13836807D02*
X10779871Y-13837953D01*
X10220791Y-13837814D02*
X10225882Y-13836592D01*
X10770064Y-2704586D02*
X10765270Y-2706225D01*
X7300001Y-13839999D02*
X8083333Y-13839999D01*
X14000000Y-14039999D02*
X14000000Y-14039999D01*
X10700000Y-13740000D02*
X10700128Y-13745064D01*
X7000000Y-9976666D02*
X7000000Y-9038889D01*
X10700000Y-12752222D02*
X10700000Y-13740000D01*
X7200000Y-11214444D02*
X7000000Y-11214444D01*
X10765270Y-13833775D02*
X10770064Y-13835414D01*
X13779077Y-2738790D02*
X13775875Y-2734863D01*
X11883333Y-14039999D02*
X11883333Y-13839999D01*
X13800000Y-10276666D02*
X14000000Y-10276666D01*
X10747104Y-2715135D02*
X10742874Y-2717923D01*
X13799863Y-13745233D02*
X13800000Y-13740000D01*
X14000000Y-5025555D02*
X14000000Y-5025555D01*
X7000000Y-4087778D02*
X7200000Y-4087778D01*
X7206225Y-2765269D02*
X7204586Y-2770063D01*
X7279871Y-13837953D02*
X7284858Y-13838846D01*
X12616667Y-2700000D02*
X11883333Y-2700000D01*
X7200000Y-12452222D02*
X7000000Y-12452222D01*
X12916667Y-14039999D02*
X12916667Y-13839999D01*
X13800000Y-11514444D02*
X14000000Y-11514444D01*
X10230902Y-13835105D02*
X10235837Y-13833357D01*
X14000000Y-6263333D02*
X13799999Y-6263333D01*
X10250000Y-13826602D02*
X10254464Y-13823866D01*
X10700000Y-11514444D02*
X10700000Y-12452222D01*
X7247104Y-2715135D02*
X7242874Y-2717923D01*
X10293775Y-2765270D02*
X10291895Y-2760565D01*
X7202047Y-2779870D02*
X7201154Y-2784857D01*
X11883333Y-2700000D02*
X11883333Y-2500000D01*
X10727521Y-13808896D02*
X10731103Y-13812479D01*
X10500000Y-6563333D02*
X10700000Y-6563333D01*
X10706225Y-13774730D02*
X10708104Y-13779435D01*
X13793774Y-2765270D02*
X13791895Y-2760565D01*
X10272479Y-2731104D02*
X10268897Y-2727521D01*
X7270064Y-13835414D02*
X7274935Y-13836807D01*
X10751470Y-2712565D02*
X10747104Y-2715135D01*
X14500000Y-2000000D02*
X6500000Y-2000000D01*
X14000000Y-14039999D02*
X12916667Y-14039999D01*
X13791355Y-13780673D02*
X13793358Y-13775836D01*
X10720923Y-2738789D02*
X10717924Y-2742873D01*
X13748530Y-2712566D02*
X13744039Y-2710220D01*
X14000000Y-7501111D02*
X14000000Y-7501111D01*
X10731103Y-13812479D02*
X10734863Y-13815876D01*
X7212565Y-13788530D02*
X7215135Y-13792896D01*
X13799486Y-2789883D02*
X13798846Y-2784857D01*
X10210453Y-13839452D02*
X10215644Y-13838768D01*
X7231103Y-13812479D02*
X7234863Y-13815876D01*
X10300000Y-7501111D02*
X10299999Y-6563333D01*
X7000000Y-10276666D02*
X7200000Y-10276666D01*
X10710220Y-2755960D02*
X10708105Y-2760564D01*
X7200000Y-6563333D02*
X7200000Y-7501111D01*
X10296807Y-2774935D02*
X10295413Y-2770064D01*
X10262932Y-13817714D02*
X10266913Y-13814314D01*
X13799999Y-7501111D02*
X13799999Y-6563333D01*
X10500000Y-6263333D02*
X10299999Y-6263333D01*
X7000000Y-12452222D02*
X7000000Y-11514444D01*
X8383333Y-14039999D02*
X8383333Y-13839999D01*
X13715644Y-13838768D02*
X13720791Y-13837814D01*
X10742874Y-2717923D02*
X10738790Y-2720922D01*
X10300000Y-12752222D02*
X10500000Y-12752222D01*
X7255961Y-13829780D02*
X7260565Y-13831895D01*
X13800000Y-8738889D02*
X13799999Y-7801111D01*
X10789884Y-13839486D02*
X10794936Y-13839871D01*
X7000000Y-7501111D02*
X7000000Y-6563333D01*
X7000000Y-12752222D02*
X7200000Y-12752222D01*
X14000000Y-10276666D02*
X14000000Y-11214444D01*
X10210117Y-2700513D02*
X10205065Y-2700128D01*
X10700000Y-7801111D02*
X10700000Y-8738889D01*
X9116667Y-2500000D02*
X9116667Y-2500000D01*
X10220130Y-2702047D02*
X10215143Y-2701153D01*
X13757127Y-2717924D02*
X13752896Y-2715136D01*
X10700000Y-6263333D02*
X10500000Y-6263333D01*
X13715143Y-2701153D02*
X13710117Y-2700513D01*
X10300000Y-9038889D02*
X10500000Y-9038889D01*
X10299999Y-3787778D02*
X10299999Y-2800000D01*
X13761210Y-2720923D02*
X13757127Y-2717924D01*
X13795413Y-2770064D02*
X13793774Y-2765270D01*
X13797952Y-2779870D02*
X13796807Y-2774935D01*
X13750000Y-13826602D02*
X13754464Y-13823866D01*
X10702048Y-2779870D02*
X10701154Y-2784857D01*
X13775875Y-2734863D02*
X13772479Y-2731104D01*
X10702047Y-13760129D02*
X10703192Y-13765065D01*
X10229937Y-2704586D02*
X10225066Y-2703193D01*
X13774315Y-13806912D02*
X13777715Y-13802931D01*
X10755961Y-13829780D02*
X10760565Y-13831895D01*
X10244040Y-2710220D02*
X10239436Y-2708105D01*
X10291355Y-13780673D02*
X10293358Y-13775836D01*
X13758779Y-13820901D02*
X13762932Y-13817714D01*
X14000000Y-5025555D02*
X13799999Y-5025555D01*
X11583333Y-13839999D02*
X11583333Y-14039999D01*
X10500000Y-11514444D02*
X10500000Y-11514444D01*
X10299999Y-5025555D02*
X10299999Y-5025555D01*
X7224124Y-13805137D02*
X7227521Y-13808896D01*
X13765137Y-2724125D02*
X13761210Y-2720923D01*
X7247104Y-13824864D02*
X7251470Y-13827434D01*
X10248530Y-2712566D02*
X10244040Y-2710220D01*
X13800000Y-13740000D02*
X13800000Y-12752222D01*
X7274935Y-13836807D02*
X7279871Y-13837953D01*
X11883333Y-14039999D02*
X11883333Y-14039999D01*
X10703192Y-13765065D02*
X10704586Y-13769936D01*
X7210219Y-13784039D02*
X7212565Y-13788530D01*
X10225066Y-2703193D02*
X10220130Y-2702047D01*
X7238789Y-13819077D02*
X7242873Y-13822076D01*
X10300000Y-7801111D02*
X10300000Y-7801111D01*
X13720130Y-2702047D02*
X13715143Y-2701153D01*
X7227521Y-2731103D02*
X7224125Y-2734862D01*
X7265270Y-2706225D02*
X7260565Y-2708104D01*
X10299999Y-5025555D02*
X10299999Y-4087778D01*
X7000000Y-11214444D02*
X7000000Y-10276666D01*
X10500000Y-9038889D02*
X10500000Y-9038889D01*
X13793358Y-13775836D02*
X13795106Y-13770901D01*
X10298846Y-2784857D02*
X10297952Y-2779870D01*
X10704586Y-13769936D02*
X10706225Y-13774730D01*
X11883333Y-2500000D02*
X12616667Y-2500000D01*
X10274315Y-13806912D02*
X10277715Y-13802931D01*
X10257127Y-2717924D02*
X10252896Y-2715136D01*
X10252896Y-2715136D02*
X10248530Y-2712566D01*
X13784864Y-2747104D02*
X13782076Y-2742874D01*
X7201153Y-13755142D02*
X7202047Y-13760129D01*
X13799452Y-13750453D02*
X13799863Y-13745233D01*
X13783867Y-13794463D02*
X13786603Y-13790000D01*
X7200000Y-5325555D02*
X7200000Y-6263333D01*
X10701154Y-2784857D02*
X10700514Y-2789883D01*
X10289780Y-2755961D02*
X10287434Y-2751470D01*
X7284858Y-2701153D02*
X7279871Y-2702047D01*
X12916667Y-13839999D02*
X13700000Y-13839999D01*
X7208105Y-2760564D02*
X7206225Y-2765269D01*
X7202047Y-13760129D02*
X7203192Y-13765065D01*
X10266913Y-13814314D02*
X10270711Y-13810710D01*
X7294936Y-2700128D02*
X7289884Y-2700513D01*
X14000000Y-9976666D02*
X14000000Y-9976666D01*
X12616667Y-14039999D02*
X11883333Y-14039999D01*
X14000000Y-8738889D02*
X13800000Y-8738889D01*
X10794936Y-13839871D02*
X10800001Y-13839999D01*
X7200000Y-3787778D02*
X7000000Y-3787778D01*
X7200000Y-4087778D02*
X7200000Y-5025555D01*
X13725882Y-13836592D02*
X13730902Y-13835105D01*
X13799871Y-2794935D02*
X13799486Y-2789883D01*
X10779871Y-13837953D02*
X10784858Y-13838846D01*
X10717924Y-2742873D02*
X10715136Y-2747103D01*
X13780902Y-13798778D02*
X13783867Y-13794463D01*
X13752896Y-2715136D02*
X13748530Y-2712566D01*
X10299999Y-6263333D02*
X10299999Y-5325555D01*
X10710219Y-13784039D02*
X10712565Y-13788530D01*
X10300000Y-12452222D02*
X10300000Y-11514444D01*
X13754464Y-13823866D02*
X13758779Y-13820901D01*
X10700000Y-5325555D02*
X10700000Y-6263333D01*
X8083333Y-13839999D02*
X8083333Y-14039999D01*
X10724125Y-2734862D02*
X10720923Y-2738789D01*
X10717924Y-13797127D02*
X10720922Y-13801210D01*
X10770064Y-13835414D02*
X10774935Y-13836807D01*
X10760565Y-13831895D02*
X10765270Y-13833775D01*
X14000000Y-8738889D02*
X14000000Y-8738889D01*
X13791895Y-2760565D02*
X13789780Y-2755961D01*
X13800000Y-11214444D02*
X13800000Y-10276666D01*
X13768896Y-2727521D02*
X13765137Y-2724125D01*
X10300000Y-13740000D02*
X10300000Y-12752222D01*
X10712565Y-13788530D02*
X10715135Y-13792896D01*
X7289884Y-2700513D02*
X7284858Y-2701153D01*
X10700000Y-4087778D02*
X10700000Y-5025555D01*
X14500000Y-14539999D02*
X14500000Y-2000000D01*
X10708105Y-2760564D02*
X10706225Y-2765269D01*
X10727521Y-2731103D02*
X10724125Y-2734862D01*
X13705234Y-13839862D02*
X13710453Y-13839452D01*
X7000000Y-6563333D02*
X7000000Y-6563333D01*
X8383333Y-2500000D02*
X9116667Y-2500000D01*
X14000000Y-7801111D02*
X14000000Y-8738889D01*
X8083333Y-2500000D02*
X8083333Y-2700000D01*
X10299871Y-2794935D02*
X10299486Y-2789883D01*
X14000000Y-9976666D02*
X13800000Y-9976666D01*
X10500000Y-12752222D02*
X10700000Y-12752222D01*
X10724124Y-13805137D02*
X10727521Y-13808896D01*
X13799999Y-3787778D02*
X13799999Y-2800000D01*
X10751470Y-13827434D02*
X10755961Y-13829780D01*
X14000000Y-11214444D02*
X13800000Y-11214444D01*
X10299999Y-4087778D02*
X10500000Y-4087778D01*
X10277715Y-13802931D02*
X10280902Y-13798778D01*
X10297952Y-2779870D02*
X10296807Y-2774935D01*
X8383333Y-2700000D02*
X8383333Y-2500000D01*
X10284864Y-2747104D02*
X10282076Y-2742874D01*
X8083333Y-2700000D02*
X7300000Y-2700000D01*
X9416667Y-13839999D02*
X10200000Y-13839999D01*
X7200000Y-10276666D02*
X7200000Y-11214444D01*
X10701153Y-13755142D02*
X10702047Y-13760129D01*
X10765270Y-2706225D02*
X10760565Y-2708104D01*
X10715135Y-13792896D02*
X10717924Y-13797127D01*
X7203193Y-2774935D02*
X7202047Y-2779870D01*
X10700000Y-9038889D02*
X10700000Y-9976666D01*
X10275876Y-2734863D02*
X10272479Y-2731104D01*
X10270711Y-13810710D02*
X10274315Y-13806912D01*
X7234863Y-2724124D02*
X7231104Y-2727520D01*
X10215143Y-2701153D02*
X10210117Y-2700513D01*
X10800001Y-2700000D02*
X10794936Y-2700128D01*
X10300000Y-7801111D02*
X10500000Y-7801111D01*
X12616667Y-13839999D02*
X12616667Y-14039999D01*
X10500000Y-5325555D02*
X10700000Y-5325555D01*
X13799999Y-5025555D02*
X13799999Y-4087778D01*
X10708104Y-13779435D02*
X10710219Y-13784039D01*
X13796807Y-2774935D02*
X13795413Y-2770064D01*
X10500000Y-10276666D02*
X10700000Y-10276666D01*
X6500000Y-14539999D02*
X14500000Y-14539999D01*
X9116667Y-14039999D02*
X8383333Y-14039999D01*
X10500000Y-7801111D02*
X10700000Y-7801111D01*
X11583333Y-14039999D02*
X9416667Y-14039999D01*
X7208104Y-13779435D02*
X7210219Y-13784039D01*
X10700001Y-3787778D02*
X10500000Y-3787778D01*
X10200000Y-13839999D02*
X10205234Y-13839862D01*
X7200000Y-12752222D02*
X7200000Y-13740000D01*
X9416667Y-2700000D02*
X9416667Y-2500000D01*
X10239436Y-2708105D02*
X10234731Y-2706225D01*
X13740674Y-13831354D02*
X13745399Y-13829100D01*
X10283867Y-13794463D02*
X10286603Y-13790000D01*
X13800000Y-9976666D02*
X13800000Y-9038889D01*
X7217924Y-2742873D02*
X7215136Y-2747103D01*
X9116667Y-13839999D02*
X9116667Y-14039999D01*
X11583333Y-2500000D02*
X11583333Y-2700000D01*
X10205065Y-2700128D02*
X10200001Y-2700000D01*
X10215644Y-13838768D02*
X10220791Y-13837814D01*
X14000000Y-4087778D02*
X14000000Y-5025555D01*
X10700513Y-13750116D02*
X10701153Y-13755142D01*
X10734863Y-13815876D02*
X10738790Y-13819077D01*
X13734731Y-2706225D02*
X13729937Y-2704586D01*
X7200001Y-2800000D02*
X7200000Y-3787778D01*
X10760565Y-2708104D02*
X10755961Y-2710219D01*
X10258779Y-13820901D02*
X10262932Y-13817714D01*
X10704587Y-2770063D02*
X10703193Y-2774935D01*
X10700000Y-7501111D02*
X10500000Y-7501111D01*
X13729937Y-2704586D02*
X13725066Y-2703193D01*
X10296593Y-13765882D02*
X10297815Y-13760791D01*
X10299999Y-5325555D02*
X10500000Y-5325555D01*
X13800000Y-9038889D02*
X14000000Y-9038889D01*
X7000000Y-6263333D02*
X7000000Y-5325555D01*
X13798846Y-2784857D02*
X13797952Y-2779870D01*
X7000000Y-5325555D02*
X7200000Y-5325555D01*
X10700129Y-2794935D02*
X10700001Y-2800000D01*
X7000000Y-10276666D02*
X7000000Y-10276666D01*
X7210220Y-2755960D02*
X7208105Y-2760564D01*
X6500000Y-2000000D02*
X6500000Y-14539999D01*
X14000000Y-9038889D02*
X14000000Y-9976666D01*
X7000000Y-6563333D02*
X7200000Y-6563333D01*
X10734863Y-2724124D02*
X10731104Y-2727520D01*
X7200513Y-13750116D02*
X7201153Y-13755142D01*
X9116667Y-2500000D02*
X9116667Y-2700000D01*
X7000000Y-8738889D02*
X7000000Y-7801111D01*
X7215136Y-2747103D02*
X7212566Y-2751470D01*
X13789101Y-13785399D02*
X13791355Y-13780673D01*
X13710117Y-2700513D02*
X13705065Y-2700128D01*
X10500000Y-5025555D02*
X10299999Y-5025555D01*
X10703193Y-2774935D02*
X10702048Y-2779870D01*
X13797815Y-13760791D02*
X13798769Y-13755643D01*
X7212566Y-2751470D02*
X7210220Y-2755960D01*
X10706225Y-2765269D02*
X10704587Y-2770063D01*
X7200514Y-2789883D02*
X7200129Y-2794935D01*
X10295413Y-2770064D02*
X10293775Y-2765270D01*
X10234731Y-2706225D02*
X10229937Y-2704586D01*
X7215135Y-13792896D02*
X7217924Y-13797127D01*
X8383333Y-13839999D02*
X9116667Y-13839999D01*
X10261211Y-2720923D02*
X10257127Y-2717924D01*
X10715136Y-2747103D02*
X10712566Y-2751470D01*
X7204586Y-2770063D02*
X7203193Y-2774935D01*
X7000000Y-11514444D02*
X7000000Y-11514444D01*
X10700000Y-12452222D02*
X10500000Y-12452222D01*
X10254464Y-13823866D02*
X10258779Y-13820901D01*
X12616667Y-2500000D02*
X12616667Y-2700000D01*
X10784858Y-2701153D02*
X10779871Y-2702047D01*
X10268897Y-2727521D02*
X10265137Y-2724125D01*
X13782076Y-2742874D02*
X13779077Y-2738790D01*
X13799999Y-2800000D02*
X13799871Y-2794935D01*
X10700001Y-2800000D02*
X10700001Y-3787778D01*
X10235837Y-13833357D02*
X10240674Y-13831354D01*
X10299452Y-13750453D02*
X10299863Y-13745233D01*
X10282076Y-2742874D02*
X10279077Y-2738790D01*
X13745399Y-13829100D02*
X13750000Y-13826602D01*
X13799999Y-6263333D02*
X13799999Y-5325555D01*
X13766913Y-13814314D02*
X13770711Y-13810710D01*
X7000000Y-5325555D02*
X7000000Y-5325555D01*
X10298769Y-13755643D02*
X10299452Y-13750453D01*
X7204586Y-13769936D02*
X7206224Y-13774730D01*
X7279871Y-2702047D02*
X7274935Y-2703192D01*
X7200000Y-7501111D02*
X7000000Y-7501111D01*
X13720791Y-13837814D02*
X13725882Y-13836592D01*
X10300000Y-7501111D02*
X10300000Y-7501111D01*
X13739436Y-2708105D02*
X13734731Y-2706225D01*
X7224125Y-2734862D02*
X7220923Y-2738789D01*
X7217924Y-13797127D02*
X7220922Y-13801210D01*
X14000000Y-11214444D02*
X14000000Y-11214444D01*
X7242873Y-13822076D02*
X7247104Y-13824864D01*
X10500000Y-10276666D02*
X10500000Y-10276666D01*
X7238790Y-2720922D02*
X7234863Y-2724124D01*
X10800001Y-13839999D02*
X11583333Y-13839999D01*
X13744039Y-2710220D02*
X13739436Y-2708105D01*
X10500000Y-7501111D02*
X10300000Y-7501111D01*
X7000000Y-11514444D02*
X7200000Y-11514444D01*
X7200000Y-8738889D02*
X7000000Y-8738889D01*
X10300000Y-10276666D02*
X10500000Y-10276666D01*
X14000000Y-5325555D02*
X14000000Y-6263333D01*
X10500000Y-3787778D02*
X10299999Y-3787778D01*
X10700000Y-8738889D02*
X10500000Y-8738889D01*
X10299999Y-6263333D02*
X10299999Y-6263333D01*
X7200000Y-5025555D02*
X7000000Y-5025555D01*
X7274935Y-2703192D02*
X7270064Y-2704586D01*
X10712566Y-2751470D02*
X10710220Y-2755960D01*
X10291895Y-2760565D02*
X10289780Y-2755961D01*
X7294936Y-13839871D02*
X7300001Y-13839999D01*
X7231104Y-2727520D02*
X7227521Y-2731103D01*
X13705065Y-2700128D02*
X13700001Y-2700000D01*
X10500000Y-4087778D02*
X10700000Y-4087778D01*
X10774935Y-2703192D02*
X10770064Y-2704586D01*
X14000000Y-6563333D02*
X14000000Y-7501111D01*
X13800000Y-12752222D02*
X14000000Y-12752222D01*
X7284858Y-13838846D02*
X7289884Y-13839486D01*
X7260565Y-13831895D02*
X7265270Y-13833775D01*
X13796593Y-13765882D02*
X13797815Y-13760791D01*
X9116667Y-2700000D02*
X8383333Y-2700000D01*
X12616667Y-2500000D02*
X12616667Y-2500000D01*
X10700514Y-2789883D02*
X10700129Y-2794935D01*
X7206224Y-13774730D02*
X7208104Y-13779435D01*
X7200128Y-13745064D02*
X7200513Y-13750116D01*
X10700000Y-9976666D02*
X10500000Y-9976666D01*
X10300000Y-11214444D02*
X10300000Y-10276666D01*
X13762932Y-13817714D02*
X13766913Y-13814314D01*
X10500000Y-8738889D02*
X10300000Y-8738889D01*
X10286603Y-13790000D02*
X10289101Y-13785399D01*
X7200000Y-9976666D02*
X7000000Y-9976666D01*
X10700000Y-10276666D02*
X10700000Y-11214444D01*
X7000000Y-9038889D02*
X7000000Y-9038889D01*
X13725066Y-2703193D02*
X13720130Y-2702047D01*
X10700128Y-13745064D02*
X10700513Y-13750116D01*
X7000000Y-3787778D02*
X7000000Y-2500000D01*
X13799999Y-4087778D02*
X14000000Y-4087778D01*
X13777715Y-13802931D02*
X13780902Y-13798778D01*
X7251470Y-13827434D02*
X7255961Y-13829780D01*
X10297815Y-13760791D02*
X10298769Y-13755643D01*
X10500000Y-9976666D02*
X10300000Y-9976666D01*
X10500000Y-11214444D02*
X10300000Y-11214444D01*
X7265270Y-13833775D02*
X7270064Y-13835414D01*
X7203192Y-13765065D02*
X7204586Y-13769936D01*
X7227521Y-13808896D02*
X7231103Y-13812479D01*
X10500000Y-12452222D02*
X10300000Y-12452222D01*
X13710453Y-13839452D02*
X13715644Y-13838768D01*
X10755961Y-2710219D02*
X10751470Y-2712565D01*
X10289101Y-13785399D02*
X10291355Y-13780673D01*
X7200000Y-7801111D02*
X7200000Y-8738889D01*
X7260565Y-2708104D02*
X7255961Y-2710219D01*
X9416667Y-2500000D02*
X11583333Y-2500000D01*
X10295106Y-13770901D02*
X10296593Y-13765882D01*
X10720922Y-13801210D02*
X10724124Y-13805137D01*
X8083333Y-2500000D02*
X8083333Y-2500000D01*
X10700000Y-6563333D02*
X10700000Y-7501111D01*
X7201154Y-2784857D02*
X7200514Y-2789883D01*
X8083333Y-14039999D02*
X7000000Y-14039999D01*
X10700000Y-5025555D02*
X10500000Y-5025555D01*
X13795106Y-13770901D02*
X13796593Y-13765882D01*
X7000000Y-14039999D02*
X7000000Y-14039999D01*
X10300000Y-11514444D02*
X10500000Y-11514444D01*
X10300000Y-9976666D02*
X10300000Y-9038889D01*
X14000000Y-12452222D02*
X14000000Y-12452222D01*
X10738790Y-2720922D02*
X10734863Y-2724124D01*
X7000000Y-4087778D02*
X7000000Y-4087778D01*
X13700000Y-13839999D02*
X13705234Y-13839862D01*
X7000000Y-5025555D02*
X7000000Y-4087778D01*
X7200000Y-6263333D02*
X7000000Y-6263333D01*
X10200001Y-2700000D02*
X9416667Y-2700000D01*
X7255961Y-2710219D02*
X7251470Y-2712565D01*
X10279077Y-2738790D02*
X10275876Y-2734863D01*
D11*
D12*
X6475000Y-2675000D02*
X6525000Y-2725000D01*
X6525000Y-2675000D02*
X6475000Y-2725000D01*
X6475000Y-13815000D02*
X6525000Y-13865000D01*
X6525000Y-13815000D02*
X6475000Y-13865000D01*
X6558333Y-2675000D02*
X6608333Y-2725000D01*
X6608333Y-2675000D02*
X6558333Y-2725000D01*
X6558333Y-13815000D02*
X6608333Y-13865000D01*
X6608333Y-13815000D02*
X6558333Y-13865000D01*
X6641666Y-2675000D02*
X6691666Y-2725000D01*
X6691666Y-2675000D02*
X6641666Y-2725000D01*
X6641666Y-13815000D02*
X6691666Y-13865000D01*
X6691666Y-13815000D02*
X6641666Y-13865000D01*
X6725000Y-2675000D02*
X6775000Y-2725000D01*
X6775000Y-2675000D02*
X6725000Y-2725000D01*
X6725000Y-13815000D02*
X6775000Y-13865000D01*
X6775000Y-13815000D02*
X6725000Y-13865000D01*
X6808333Y-2675000D02*
X6858333Y-2725000D01*
X6858333Y-2675000D02*
X6808333Y-2725000D01*
X6808333Y-13815000D02*
X6858333Y-13865000D01*
X6858333Y-13815000D02*
X6808333Y-13865000D01*
X6891666Y-2675000D02*
X6941666Y-2725000D01*
X6941666Y-2675000D02*
X6891666Y-2725000D01*
X6891666Y-13815000D02*
X6941666Y-13865000D01*
X6941666Y-13815000D02*
X6891666Y-13865000D01*
X6975000Y-2675000D02*
X7025000Y-2725000D01*
X7025000Y-2675000D02*
X6975000Y-2725000D01*
X6975000Y-13815000D02*
X7025000Y-13865000D01*
X7025000Y-13815000D02*
X6975000Y-13865000D01*
X7175000Y-1975000D02*
X7225000Y-2025000D01*
X7225000Y-1975000D02*
X7175000Y-2025000D01*
X7175000Y-2058333D02*
X7225000Y-2108333D01*
X7225000Y-2058333D02*
X7175000Y-2108333D01*
X7175000Y-2141667D02*
X7225000Y-2191667D01*
X7225000Y-2141667D02*
X7175000Y-2191667D01*
X7175000Y-2225000D02*
X7225000Y-2275000D01*
X7225000Y-2225000D02*
X7175000Y-2275000D01*
X7175000Y-2308333D02*
X7225000Y-2358333D01*
X7225000Y-2308333D02*
X7175000Y-2358333D01*
X7175000Y-2391667D02*
X7225000Y-2441667D01*
X7225000Y-2391667D02*
X7175000Y-2441667D01*
X7175000Y-2475000D02*
X7225000Y-2525000D01*
X7225000Y-2475000D02*
X7175000Y-2525000D01*
X7175000Y-12627222D02*
X7225000Y-12677222D01*
X7225000Y-12627222D02*
X7175000Y-12677222D01*
X7175000Y-12727222D02*
X7225000Y-12777222D01*
X7225000Y-12727222D02*
X7175000Y-12777222D01*
X7175000Y-14014999D02*
X7225000Y-14064999D01*
X7225000Y-14014999D02*
X7175000Y-14064999D01*
X7175000Y-14098333D02*
X7225000Y-14148333D01*
X7225000Y-14098333D02*
X7175000Y-14148333D01*
X7175000Y-14181666D02*
X7225000Y-14231666D01*
X7225000Y-14181666D02*
X7175000Y-14231666D01*
X7175000Y-14264999D02*
X7225000Y-14314999D01*
X7225000Y-14264999D02*
X7175000Y-14314999D01*
X7175000Y-14348333D02*
X7225000Y-14398333D01*
X7225000Y-14348333D02*
X7175000Y-14398333D01*
X7175000Y-14431666D02*
X7225000Y-14481666D01*
X7225000Y-14431666D02*
X7175000Y-14481666D01*
X7175000Y-14514999D02*
X7225000Y-14564999D01*
X7225000Y-14514999D02*
X7175000Y-14564999D01*
X7175000Y-12427222D02*
X7225000Y-12477222D01*
X7225000Y-12427222D02*
X7175000Y-12477222D01*
X7175000Y-12527222D02*
X7225000Y-12577222D01*
X7225000Y-12527222D02*
X7175000Y-12577222D01*
X7175000Y-11189444D02*
X7225000Y-11239444D01*
X7225000Y-11189444D02*
X7175000Y-11239444D01*
X7175000Y-11289444D02*
X7225000Y-11339444D01*
X7225000Y-11289444D02*
X7175000Y-11339444D01*
X7175000Y-11389444D02*
X7225000Y-11439444D01*
X7225000Y-11389444D02*
X7175000Y-11439444D01*
X7175000Y-11489444D02*
X7225000Y-11539444D01*
X7225000Y-11489444D02*
X7175000Y-11539444D01*
X7175000Y-9951666D02*
X7225000Y-10001666D01*
X7225000Y-9951666D02*
X7175000Y-10001666D01*
X7175000Y-10051666D02*
X7225000Y-10101666D01*
X7225000Y-10051666D02*
X7175000Y-10101666D01*
X7175000Y-10151666D02*
X7225000Y-10201666D01*
X7225000Y-10151666D02*
X7175000Y-10201666D01*
X7175000Y-10251666D02*
X7225000Y-10301666D01*
X7225000Y-10251666D02*
X7175000Y-10301666D01*
X7175000Y-8713889D02*
X7225000Y-8763889D01*
X7225000Y-8713889D02*
X7175000Y-8763889D01*
X7175000Y-8813889D02*
X7225000Y-8863889D01*
X7225000Y-8813889D02*
X7175000Y-8863889D01*
X7175000Y-8913889D02*
X7225000Y-8963889D01*
X7225000Y-8913889D02*
X7175000Y-8963889D01*
X7175000Y-9013889D02*
X7225000Y-9063889D01*
X7225000Y-9013889D02*
X7175000Y-9063889D01*
X7175000Y-7476111D02*
X7225000Y-7526111D01*
X7225000Y-7476111D02*
X7175000Y-7526111D01*
X7175000Y-7576111D02*
X7225000Y-7626111D01*
X7225000Y-7576111D02*
X7175000Y-7626111D01*
X7175000Y-7676111D02*
X7225000Y-7726111D01*
X7225000Y-7676111D02*
X7175000Y-7726111D01*
X7175000Y-7776111D02*
X7225000Y-7826111D01*
X7225000Y-7776111D02*
X7175000Y-7826111D01*
X7175000Y-6238333D02*
X7225000Y-6288333D01*
X7225000Y-6238333D02*
X7175000Y-6288333D01*
X7175000Y-6338333D02*
X7225000Y-6388333D01*
X7225000Y-6338333D02*
X7175000Y-6388333D01*
X7175000Y-6438333D02*
X7225000Y-6488333D01*
X7225000Y-6438333D02*
X7175000Y-6488333D01*
X7175000Y-6538333D02*
X7225000Y-6588333D01*
X7225000Y-6538333D02*
X7175000Y-6588333D01*
X7175000Y-5000555D02*
X7225000Y-5050555D01*
X7225000Y-5000555D02*
X7175000Y-5050555D01*
X7175000Y-5100555D02*
X7225000Y-5150555D01*
X7225000Y-5100555D02*
X7175000Y-5150555D01*
X7175000Y-5200555D02*
X7225000Y-5250555D01*
X7225000Y-5200555D02*
X7175000Y-5250555D01*
X7175000Y-5300555D02*
X7225000Y-5350555D01*
X7225000Y-5300555D02*
X7175000Y-5350555D01*
X7175000Y-3962778D02*
X7225000Y-4012778D01*
X7225000Y-3962778D02*
X7175000Y-4012778D01*
X7175000Y-4062778D02*
X7225000Y-4112778D01*
X7225000Y-4062778D02*
X7175000Y-4112778D01*
X7175001Y-3762778D02*
X7225001Y-3812778D01*
X7225001Y-3762778D02*
X7175001Y-3812778D01*
X7175001Y-3862778D02*
X7225001Y-3912778D01*
X7225001Y-3862778D02*
X7175001Y-3912778D01*
X8058333Y-2675000D02*
X8108333Y-2725000D01*
X8108333Y-2675000D02*
X8058333Y-2725000D01*
X8058333Y-13814999D02*
X8108333Y-13864999D01*
X8108333Y-13814999D02*
X8058333Y-13864999D01*
X8158333Y-2675000D02*
X8208333Y-2725000D01*
X8208333Y-2675000D02*
X8158333Y-2725000D01*
X8158333Y-13814999D02*
X8208333Y-13864999D01*
X8208333Y-13814999D02*
X8158333Y-13864999D01*
X8258333Y-2675000D02*
X8308333Y-2725000D01*
X8308333Y-2675000D02*
X8258333Y-2725000D01*
X8258333Y-13814999D02*
X8308333Y-13864999D01*
X8308333Y-13814999D02*
X8258333Y-13864999D01*
X8358333Y-2675000D02*
X8408333Y-2725000D01*
X8408333Y-2675000D02*
X8358333Y-2725000D01*
X8358333Y-13814999D02*
X8408333Y-13864999D01*
X8408333Y-13814999D02*
X8358333Y-13864999D01*
X9091667Y-2675000D02*
X9141667Y-2725000D01*
X9141667Y-2675000D02*
X9091667Y-2725000D01*
X9091667Y-13814999D02*
X9141667Y-13864999D01*
X9141667Y-13814999D02*
X9091667Y-13864999D01*
X9191667Y-2675000D02*
X9241667Y-2725000D01*
X9241667Y-2675000D02*
X9191667Y-2725000D01*
X9191667Y-13814999D02*
X9241667Y-13864999D01*
X9241667Y-13814999D02*
X9191667Y-13864999D01*
X9291667Y-2675000D02*
X9341667Y-2725000D01*
X9341667Y-2675000D02*
X9291667Y-2725000D01*
X9291667Y-13814999D02*
X9341667Y-13864999D01*
X9341667Y-13814999D02*
X9291667Y-13864999D01*
X9391667Y-2675000D02*
X9441667Y-2725000D01*
X9441667Y-2675000D02*
X9391667Y-2725000D01*
X9391667Y-13814999D02*
X9441667Y-13864999D01*
X9441667Y-13814999D02*
X9391667Y-13864999D01*
X10274999Y-3762778D02*
X10324999Y-3812778D01*
X10324999Y-3762778D02*
X10274999Y-3812778D01*
X10274999Y-3862778D02*
X10324999Y-3912778D01*
X10324999Y-3862778D02*
X10274999Y-3912778D01*
X10274999Y-3962778D02*
X10324999Y-4012778D01*
X10324999Y-3962778D02*
X10274999Y-4012778D01*
X10274999Y-4062778D02*
X10324999Y-4112778D01*
X10324999Y-4062778D02*
X10274999Y-4112778D01*
X10274999Y-5000555D02*
X10324999Y-5050555D01*
X10324999Y-5000555D02*
X10274999Y-5050555D01*
X10274999Y-5100555D02*
X10324999Y-5150555D01*
X10324999Y-5100555D02*
X10274999Y-5150555D01*
X10274999Y-5200555D02*
X10324999Y-5250555D01*
X10324999Y-5200555D02*
X10274999Y-5250555D01*
X10274999Y-5300555D02*
X10324999Y-5350555D01*
X10324999Y-5300555D02*
X10274999Y-5350555D01*
X10274999Y-6238333D02*
X10324999Y-6288333D01*
X10324999Y-6238333D02*
X10274999Y-6288333D01*
X10274999Y-6338333D02*
X10324999Y-6388333D01*
X10324999Y-6338333D02*
X10274999Y-6388333D01*
X10274999Y-6438333D02*
X10324999Y-6488333D01*
X10324999Y-6438333D02*
X10274999Y-6488333D01*
X10274999Y-6538333D02*
X10324999Y-6588333D01*
X10324999Y-6538333D02*
X10274999Y-6588333D01*
X10275000Y-7476111D02*
X10325000Y-7526111D01*
X10325000Y-7476111D02*
X10275000Y-7526111D01*
X10275000Y-7576111D02*
X10325000Y-7626111D01*
X10325000Y-7576111D02*
X10275000Y-7626111D01*
X10275000Y-7676111D02*
X10325000Y-7726111D01*
X10325000Y-7676111D02*
X10275000Y-7726111D01*
X10275000Y-7776111D02*
X10325000Y-7826111D01*
X10325000Y-7776111D02*
X10275000Y-7826111D01*
X10275000Y-8713889D02*
X10325000Y-8763889D01*
X10325000Y-8713889D02*
X10275000Y-8763889D01*
X10275000Y-8813889D02*
X10325000Y-8863889D01*
X10325000Y-8813889D02*
X10275000Y-8863889D01*
X10275000Y-8913889D02*
X10325000Y-8963889D01*
X10325000Y-8913889D02*
X10275000Y-8963889D01*
X10275000Y-9013889D02*
X10325000Y-9063889D01*
X10325000Y-9013889D02*
X10275000Y-9063889D01*
X10275000Y-9951666D02*
X10325000Y-10001666D01*
X10325000Y-9951666D02*
X10275000Y-10001666D01*
X10275000Y-10051666D02*
X10325000Y-10101666D01*
X10325000Y-10051666D02*
X10275000Y-10101666D01*
X10275000Y-10151666D02*
X10325000Y-10201666D01*
X10325000Y-10151666D02*
X10275000Y-10201666D01*
X10275000Y-10251666D02*
X10325000Y-10301666D01*
X10325000Y-10251666D02*
X10275000Y-10301666D01*
X10275000Y-11189444D02*
X10325000Y-11239444D01*
X10325000Y-11189444D02*
X10275000Y-11239444D01*
X10275000Y-11289444D02*
X10325000Y-11339444D01*
X10325000Y-11289444D02*
X10275000Y-11339444D01*
X10275000Y-11389444D02*
X10325000Y-11439444D01*
X10325000Y-11389444D02*
X10275000Y-11439444D01*
X10275000Y-11489444D02*
X10325000Y-11539444D01*
X10325000Y-11489444D02*
X10275000Y-11539444D01*
X10275000Y-12427222D02*
X10325000Y-12477222D01*
X10325000Y-12427222D02*
X10275000Y-12477222D01*
X10275000Y-12527222D02*
X10325000Y-12577222D01*
X10325000Y-12527222D02*
X10275000Y-12577222D01*
X10275000Y-12627222D02*
X10325000Y-12677222D01*
X10325000Y-12627222D02*
X10275000Y-12677222D01*
X10275000Y-12727222D02*
X10325000Y-12777222D01*
X10325000Y-12727222D02*
X10275000Y-12777222D01*
X10675000Y-12627222D02*
X10725000Y-12677222D01*
X10725000Y-12627222D02*
X10675000Y-12677222D01*
X10675000Y-12727222D02*
X10725000Y-12777222D01*
X10725000Y-12727222D02*
X10675000Y-12777222D01*
X10675000Y-12427222D02*
X10725000Y-12477222D01*
X10725000Y-12427222D02*
X10675000Y-12477222D01*
X10675000Y-12527222D02*
X10725000Y-12577222D01*
X10725000Y-12527222D02*
X10675000Y-12577222D01*
X10675000Y-11189444D02*
X10725000Y-11239444D01*
X10725000Y-11189444D02*
X10675000Y-11239444D01*
X10675000Y-11289444D02*
X10725000Y-11339444D01*
X10725000Y-11289444D02*
X10675000Y-11339444D01*
X10675000Y-11389444D02*
X10725000Y-11439444D01*
X10725000Y-11389444D02*
X10675000Y-11439444D01*
X10675000Y-11489444D02*
X10725000Y-11539444D01*
X10725000Y-11489444D02*
X10675000Y-11539444D01*
X10675000Y-9951666D02*
X10725000Y-10001666D01*
X10725000Y-9951666D02*
X10675000Y-10001666D01*
X10675000Y-10051666D02*
X10725000Y-10101666D01*
X10725000Y-10051666D02*
X10675000Y-10101666D01*
X10675000Y-10151666D02*
X10725000Y-10201666D01*
X10725000Y-10151666D02*
X10675000Y-10201666D01*
X10675000Y-10251666D02*
X10725000Y-10301666D01*
X10725000Y-10251666D02*
X10675000Y-10301666D01*
X10675000Y-8713889D02*
X10725000Y-8763889D01*
X10725000Y-8713889D02*
X10675000Y-8763889D01*
X10675000Y-8813889D02*
X10725000Y-8863889D01*
X10725000Y-8813889D02*
X10675000Y-8863889D01*
X10675000Y-8913889D02*
X10725000Y-8963889D01*
X10725000Y-8913889D02*
X10675000Y-8963889D01*
X10675000Y-9013889D02*
X10725000Y-9063889D01*
X10725000Y-9013889D02*
X10675000Y-9063889D01*
X10675000Y-7476111D02*
X10725000Y-7526111D01*
X10725000Y-7476111D02*
X10675000Y-7526111D01*
X10675000Y-7576111D02*
X10725000Y-7626111D01*
X10725000Y-7576111D02*
X10675000Y-7626111D01*
X10675000Y-7676111D02*
X10725000Y-7726111D01*
X10725000Y-7676111D02*
X10675000Y-7726111D01*
X10675000Y-7776111D02*
X10725000Y-7826111D01*
X10725000Y-7776111D02*
X10675000Y-7826111D01*
X10675000Y-6238333D02*
X10725000Y-6288333D01*
X10725000Y-6238333D02*
X10675000Y-6288333D01*
X10675000Y-6338333D02*
X10725000Y-6388333D01*
X10725000Y-6338333D02*
X10675000Y-6388333D01*
X10675000Y-6438333D02*
X10725000Y-6488333D01*
X10725000Y-6438333D02*
X10675000Y-6488333D01*
X10675000Y-6538333D02*
X10725000Y-6588333D01*
X10725000Y-6538333D02*
X10675000Y-6588333D01*
X10675000Y-5000555D02*
X10725000Y-5050555D01*
X10725000Y-5000555D02*
X10675000Y-5050555D01*
X10675000Y-5100555D02*
X10725000Y-5150555D01*
X10725000Y-5100555D02*
X10675000Y-5150555D01*
X10675000Y-5200555D02*
X10725000Y-5250555D01*
X10725000Y-5200555D02*
X10675000Y-5250555D01*
X10675000Y-5300555D02*
X10725000Y-5350555D01*
X10725000Y-5300555D02*
X10675000Y-5350555D01*
X10675000Y-3962778D02*
X10725000Y-4012778D01*
X10725000Y-3962778D02*
X10675000Y-4012778D01*
X10675000Y-4062778D02*
X10725000Y-4112778D01*
X10725000Y-4062778D02*
X10675000Y-4112778D01*
X10675001Y-3762778D02*
X10725001Y-3812778D01*
X10725001Y-3762778D02*
X10675001Y-3812778D01*
X10675001Y-3862778D02*
X10725001Y-3912778D01*
X10725001Y-3862778D02*
X10675001Y-3912778D01*
X11558333Y-2675000D02*
X11608333Y-2725000D01*
X11608333Y-2675000D02*
X11558333Y-2725000D01*
X11558333Y-13814999D02*
X11608333Y-13864999D01*
X11608333Y-13814999D02*
X11558333Y-13864999D01*
X11658333Y-2675000D02*
X11708333Y-2725000D01*
X11708333Y-2675000D02*
X11658333Y-2725000D01*
X11658333Y-13814999D02*
X11708333Y-13864999D01*
X11708333Y-13814999D02*
X11658333Y-13864999D01*
X11758333Y-2675000D02*
X11808333Y-2725000D01*
X11808333Y-2675000D02*
X11758333Y-2725000D01*
X11758333Y-13814999D02*
X11808333Y-13864999D01*
X11808333Y-13814999D02*
X11758333Y-13864999D01*
X11858333Y-2675000D02*
X11908333Y-2725000D01*
X11908333Y-2675000D02*
X11858333Y-2725000D01*
X11858333Y-13814999D02*
X11908333Y-13864999D01*
X11908333Y-13814999D02*
X11858333Y-13864999D01*
X12591667Y-2675000D02*
X12641667Y-2725000D01*
X12641667Y-2675000D02*
X12591667Y-2725000D01*
X12591667Y-13814999D02*
X12641667Y-13864999D01*
X12641667Y-13814999D02*
X12591667Y-13864999D01*
X12691667Y-2675000D02*
X12741667Y-2725000D01*
X12741667Y-2675000D02*
X12691667Y-2725000D01*
X12691667Y-13814999D02*
X12741667Y-13864999D01*
X12741667Y-13814999D02*
X12691667Y-13864999D01*
X12791667Y-2675000D02*
X12841667Y-2725000D01*
X12841667Y-2675000D02*
X12791667Y-2725000D01*
X12791667Y-13814999D02*
X12841667Y-13864999D01*
X12841667Y-13814999D02*
X12791667Y-13864999D01*
X12891667Y-2675000D02*
X12941667Y-2725000D01*
X12941667Y-2675000D02*
X12891667Y-2725000D01*
X12891667Y-13814999D02*
X12941667Y-13864999D01*
X12941667Y-13814999D02*
X12891667Y-13864999D01*
X13774999Y-3762778D02*
X13824999Y-3812778D01*
X13824999Y-3762778D02*
X13774999Y-3812778D01*
X13774999Y-3862778D02*
X13824999Y-3912778D01*
X13824999Y-3862778D02*
X13774999Y-3912778D01*
X13774999Y-3962778D02*
X13824999Y-4012778D01*
X13824999Y-3962778D02*
X13774999Y-4012778D01*
X13774999Y-4062778D02*
X13824999Y-4112778D01*
X13824999Y-4062778D02*
X13774999Y-4112778D01*
X13774999Y-5000555D02*
X13824999Y-5050555D01*
X13824999Y-5000555D02*
X13774999Y-5050555D01*
X13774999Y-5100555D02*
X13824999Y-5150555D01*
X13824999Y-5100555D02*
X13774999Y-5150555D01*
X13774999Y-5200555D02*
X13824999Y-5250555D01*
X13824999Y-5200555D02*
X13774999Y-5250555D01*
X13774999Y-5300555D02*
X13824999Y-5350555D01*
X13824999Y-5300555D02*
X13774999Y-5350555D01*
X13774999Y-6238333D02*
X13824999Y-6288333D01*
X13824999Y-6238333D02*
X13774999Y-6288333D01*
X13774999Y-6338333D02*
X13824999Y-6388333D01*
X13824999Y-6338333D02*
X13774999Y-6388333D01*
X13774999Y-6438333D02*
X13824999Y-6488333D01*
X13824999Y-6438333D02*
X13774999Y-6488333D01*
X13774999Y-6538333D02*
X13824999Y-6588333D01*
X13824999Y-6538333D02*
X13774999Y-6588333D01*
X13774999Y-7476111D02*
X13824999Y-7526111D01*
X13824999Y-7476111D02*
X13774999Y-7526111D01*
X13774999Y-7576111D02*
X13824999Y-7626111D01*
X13824999Y-7576111D02*
X13774999Y-7626111D01*
X13774999Y-7676111D02*
X13824999Y-7726111D01*
X13824999Y-7676111D02*
X13774999Y-7726111D01*
X13774999Y-7776111D02*
X13824999Y-7826111D01*
X13824999Y-7776111D02*
X13774999Y-7826111D01*
X13775000Y-8713889D02*
X13825000Y-8763889D01*
X13825000Y-8713889D02*
X13775000Y-8763889D01*
X13775000Y-8813889D02*
X13825000Y-8863889D01*
X13825000Y-8813889D02*
X13775000Y-8863889D01*
X13775000Y-8913889D02*
X13825000Y-8963889D01*
X13825000Y-8913889D02*
X13775000Y-8963889D01*
X13775000Y-9013889D02*
X13825000Y-9063889D01*
X13825000Y-9013889D02*
X13775000Y-9063889D01*
X13775000Y-9951666D02*
X13825000Y-10001666D01*
X13825000Y-9951666D02*
X13775000Y-10001666D01*
X13775000Y-10051666D02*
X13825000Y-10101666D01*
X13825000Y-10051666D02*
X13775000Y-10101666D01*
X13775000Y-10151666D02*
X13825000Y-10201666D01*
X13825000Y-10151666D02*
X13775000Y-10201666D01*
X13775000Y-10251666D02*
X13825000Y-10301666D01*
X13825000Y-10251666D02*
X13775000Y-10301666D01*
X13775000Y-11189444D02*
X13825000Y-11239444D01*
X13825000Y-11189444D02*
X13775000Y-11239444D01*
X13775000Y-11289444D02*
X13825000Y-11339444D01*
X13825000Y-11289444D02*
X13775000Y-11339444D01*
X13775000Y-11389444D02*
X13825000Y-11439444D01*
X13825000Y-11389444D02*
X13775000Y-11439444D01*
X13775000Y-11489444D02*
X13825000Y-11539444D01*
X13825000Y-11489444D02*
X13775000Y-11539444D01*
X13775000Y-12427222D02*
X13825000Y-12477222D01*
X13825000Y-12427222D02*
X13775000Y-12477222D01*
X13775000Y-12527222D02*
X13825000Y-12577222D01*
X13825000Y-12527222D02*
X13775000Y-12577222D01*
X13775000Y-12627222D02*
X13825000Y-12677222D01*
X13825000Y-12627222D02*
X13775000Y-12677222D01*
X13775000Y-12727222D02*
X13825000Y-12777222D01*
X13825000Y-12727222D02*
X13775000Y-12777222D01*
X13775000Y-1975000D02*
X13825000Y-2025000D01*
X13825000Y-1975000D02*
X13775000Y-2025000D01*
X13775000Y-2058333D02*
X13825000Y-2108333D01*
X13825000Y-2058333D02*
X13775000Y-2108333D01*
X13775000Y-2141667D02*
X13825000Y-2191667D01*
X13825000Y-2141667D02*
X13775000Y-2191667D01*
X13775000Y-2225000D02*
X13825000Y-2275000D01*
X13825000Y-2225000D02*
X13775000Y-2275000D01*
X13775000Y-2308333D02*
X13825000Y-2358333D01*
X13825000Y-2308333D02*
X13775000Y-2358333D01*
X13775000Y-2391667D02*
X13825000Y-2441667D01*
X13825000Y-2391667D02*
X13775000Y-2441667D01*
X13775000Y-2475000D02*
X13825000Y-2525000D01*
X13825000Y-2475000D02*
X13775000Y-2525000D01*
X13775000Y-14014999D02*
X13825000Y-14064999D01*
X13825000Y-14014999D02*
X13775000Y-14064999D01*
X13775000Y-14098333D02*
X13825000Y-14148333D01*
X13825000Y-14098333D02*
X13775000Y-14148333D01*
X13775000Y-14181666D02*
X13825000Y-14231666D01*
X13825000Y-14181666D02*
X13775000Y-14231666D01*
X13775000Y-14264999D02*
X13825000Y-14314999D01*
X13825000Y-14264999D02*
X13775000Y-14314999D01*
X13775000Y-14348333D02*
X13825000Y-14398333D01*
X13825000Y-14348333D02*
X13775000Y-14398333D01*
X13775000Y-14431666D02*
X13825000Y-14481666D01*
X13825000Y-14431666D02*
X13775000Y-14481666D01*
X13775000Y-14514999D02*
X13825000Y-14564999D01*
X13825000Y-14514999D02*
X13775000Y-14564999D01*
X13975000Y-2675000D02*
X14025000Y-2725000D01*
X14025000Y-2675000D02*
X13975000Y-2725000D01*
X13975000Y-13815000D02*
X14025000Y-13865000D01*
X14025000Y-13815000D02*
X13975000Y-13865000D01*
X14058334Y-2675000D02*
X14108334Y-2725000D01*
X14108334Y-2675000D02*
X14058334Y-2725000D01*
X14058334Y-13815000D02*
X14108334Y-13865000D01*
X14108334Y-13815000D02*
X14058334Y-13865000D01*
X14141667Y-2675000D02*
X14191667Y-2725000D01*
X14191667Y-2675000D02*
X14141667Y-2725000D01*
X14141667Y-13815000D02*
X14191667Y-13865000D01*
X14191667Y-13815000D02*
X14141667Y-13865000D01*
X14225000Y-2675000D02*
X14275000Y-2725000D01*
X14275000Y-2675000D02*
X14225000Y-2725000D01*
X14225000Y-13815000D02*
X14275000Y-13865000D01*
X14275000Y-13815000D02*
X14225000Y-13865000D01*
X14308334Y-2675000D02*
X14358334Y-2725000D01*
X14358334Y-2675000D02*
X14308334Y-2725000D01*
X14308334Y-13815000D02*
X14358334Y-13865000D01*
X14358334Y-13815000D02*
X14308334Y-13865000D01*
X14391667Y-2675000D02*
X14441667Y-2725000D01*
X14441667Y-2675000D02*
X14391667Y-2725000D01*
X14391667Y-13815000D02*
X14441667Y-13865000D01*
X14441667Y-13815000D02*
X14391667Y-13865000D01*
X14475000Y-2675000D02*
X14525000Y-2725000D01*
X14525000Y-2675000D02*
X14475000Y-2725000D01*
X14475000Y-13815000D02*
X14525000Y-13865000D01*
X14525000Y-13815000D02*
X14475000Y-13865000D01*
D13*
X6950000Y-2300000D02*
G75*
G03*
X6950000Y-2300000I-150000J0D01*
G01*
X6950000Y-14239999D02*
G75*
G03*
X6950000Y-14239999I-150000J0D01*
G01*
X14350000Y-2300000D02*
G75*
G03*
X14350000Y-2300000I-150000J0D01*
G01*
X14350000Y-14239999D02*
G75*
G03*
X14350000Y-14239999I-150000J0D01*
G01*
D11*
X6755776Y-14856483D02*
X6755776Y-14656483D01*
X6755776Y-14656483D02*
X6803395Y-14656483D01*
X6803395Y-14656483D02*
X6831967Y-14666007D01*
X6831967Y-14666007D02*
X6851015Y-14685055D01*
X6851015Y-14685055D02*
X6860538Y-14704102D01*
X6860538Y-14704102D02*
X6870062Y-14742197D01*
X6870062Y-14742197D02*
X6870062Y-14770769D01*
X6870062Y-14770769D02*
X6860538Y-14808864D01*
X6860538Y-14808864D02*
X6851015Y-14827912D01*
X6851015Y-14827912D02*
X6831967Y-14846959D01*
X6831967Y-14846959D02*
X6803395Y-14856483D01*
X6803395Y-14856483D02*
X6755776Y-14856483D01*
X6955776Y-14856483D02*
X6955776Y-14723150D01*
X6955776Y-14761245D02*
X6965300Y-14742197D01*
X6965300Y-14742197D02*
X6974824Y-14732674D01*
X6974824Y-14732674D02*
X6993872Y-14723150D01*
X6993872Y-14723150D02*
X7012919Y-14723150D01*
X7079586Y-14856483D02*
X7079586Y-14723150D01*
X7079586Y-14656483D02*
X7070062Y-14666007D01*
X7070062Y-14666007D02*
X7079586Y-14675531D01*
X7079586Y-14675531D02*
X7089110Y-14666007D01*
X7089110Y-14666007D02*
X7079586Y-14656483D01*
X7079586Y-14656483D02*
X7079586Y-14675531D01*
X7203395Y-14856483D02*
X7184348Y-14846959D01*
X7184348Y-14846959D02*
X7174824Y-14827912D01*
X7174824Y-14827912D02*
X7174824Y-14656483D01*
X7308157Y-14856483D02*
X7289110Y-14846959D01*
X7289110Y-14846959D02*
X7279586Y-14827912D01*
X7279586Y-14827912D02*
X7279586Y-14656483D01*
X7536729Y-14856483D02*
X7536729Y-14656483D01*
X7536729Y-14656483D02*
X7603396Y-14799340D01*
X7603396Y-14799340D02*
X7670062Y-14656483D01*
X7670062Y-14656483D02*
X7670062Y-14856483D01*
X7851015Y-14856483D02*
X7851015Y-14751721D01*
X7851015Y-14751721D02*
X7841491Y-14732674D01*
X7841491Y-14732674D02*
X7822443Y-14723150D01*
X7822443Y-14723150D02*
X7784348Y-14723150D01*
X7784348Y-14723150D02*
X7765300Y-14732674D01*
X7851015Y-14846959D02*
X7831967Y-14856483D01*
X7831967Y-14856483D02*
X7784348Y-14856483D01*
X7784348Y-14856483D02*
X7765300Y-14846959D01*
X7765300Y-14846959D02*
X7755776Y-14827912D01*
X7755776Y-14827912D02*
X7755776Y-14808864D01*
X7755776Y-14808864D02*
X7765300Y-14789817D01*
X7765300Y-14789817D02*
X7784348Y-14780293D01*
X7784348Y-14780293D02*
X7831967Y-14780293D01*
X7831967Y-14780293D02*
X7851015Y-14770769D01*
X7946253Y-14723150D02*
X7946253Y-14923150D01*
X7946253Y-14732674D02*
X7965300Y-14723150D01*
X7965300Y-14723150D02*
X8003396Y-14723150D01*
X8003396Y-14723150D02*
X8022443Y-14732674D01*
X8022443Y-14732674D02*
X8031967Y-14742197D01*
X8031967Y-14742197D02*
X8041491Y-14761245D01*
X8041491Y-14761245D02*
X8041491Y-14818388D01*
X8041491Y-14818388D02*
X8031967Y-14837436D01*
X8031967Y-14837436D02*
X8022443Y-14846959D01*
X8022443Y-14846959D02*
X8003396Y-14856483D01*
X8003396Y-14856483D02*
X7965300Y-14856483D01*
X7965300Y-14856483D02*
X7946253Y-14846959D01*
X8127205Y-14837436D02*
X8136729Y-14846959D01*
X8136729Y-14846959D02*
X8127205Y-14856483D01*
X8127205Y-14856483D02*
X8117681Y-14846959D01*
X8117681Y-14846959D02*
X8127205Y-14837436D01*
X8127205Y-14837436D02*
X8127205Y-14856483D01*
X8127205Y-14732674D02*
X8136729Y-14742197D01*
X8136729Y-14742197D02*
X8127205Y-14751721D01*
X8127205Y-14751721D02*
X8117681Y-14742197D01*
X8117681Y-14742197D02*
X8127205Y-14732674D01*
X8127205Y-14732674D02*
X8127205Y-14751721D01*
D12*
X6445000Y-15159999D02*
X6495000Y-15209999D01*
X6495000Y-15159999D02*
X6445000Y-15209999D01*
D11*
X6793872Y-15076483D02*
X6812919Y-15076483D01*
X6812919Y-15076483D02*
X6831967Y-15086007D01*
X6831967Y-15086007D02*
X6841491Y-15095531D01*
X6841491Y-15095531D02*
X6851015Y-15114578D01*
X6851015Y-15114578D02*
X6860538Y-15152674D01*
X6860538Y-15152674D02*
X6860538Y-15200293D01*
X6860538Y-15200293D02*
X6851015Y-15238388D01*
X6851015Y-15238388D02*
X6841491Y-15257436D01*
X6841491Y-15257436D02*
X6831967Y-15266959D01*
X6831967Y-15266959D02*
X6812919Y-15276483D01*
X6812919Y-15276483D02*
X6793872Y-15276483D01*
X6793872Y-15276483D02*
X6774824Y-15266959D01*
X6774824Y-15266959D02*
X6765300Y-15257436D01*
X6765300Y-15257436D02*
X6755776Y-15238388D01*
X6755776Y-15238388D02*
X6746253Y-15200293D01*
X6746253Y-15200293D02*
X6746253Y-15152674D01*
X6746253Y-15152674D02*
X6755776Y-15114578D01*
X6755776Y-15114578D02*
X6765300Y-15095531D01*
X6765300Y-15095531D02*
X6774824Y-15086007D01*
X6774824Y-15086007D02*
X6793872Y-15076483D01*
X6946253Y-15257436D02*
X6955776Y-15266959D01*
X6955776Y-15266959D02*
X6946253Y-15276483D01*
X6946253Y-15276483D02*
X6936729Y-15266959D01*
X6936729Y-15266959D02*
X6946253Y-15257436D01*
X6946253Y-15257436D02*
X6946253Y-15276483D01*
X7136729Y-15076483D02*
X7041491Y-15076483D01*
X7041491Y-15076483D02*
X7031967Y-15171721D01*
X7031967Y-15171721D02*
X7041491Y-15162197D01*
X7041491Y-15162197D02*
X7060538Y-15152674D01*
X7060538Y-15152674D02*
X7108157Y-15152674D01*
X7108157Y-15152674D02*
X7127205Y-15162197D01*
X7127205Y-15162197D02*
X7136729Y-15171721D01*
X7136729Y-15171721D02*
X7146253Y-15190769D01*
X7146253Y-15190769D02*
X7146253Y-15238388D01*
X7146253Y-15238388D02*
X7136729Y-15257436D01*
X7136729Y-15257436D02*
X7127205Y-15266959D01*
X7127205Y-15266959D02*
X7108157Y-15276483D01*
X7108157Y-15276483D02*
X7060538Y-15276483D01*
X7060538Y-15276483D02*
X7041491Y-15266959D01*
X7041491Y-15266959D02*
X7031967Y-15257436D01*
X7270062Y-15076483D02*
X7289110Y-15076483D01*
X7289110Y-15076483D02*
X7308157Y-15086007D01*
X7308157Y-15086007D02*
X7317681Y-15095531D01*
X7317681Y-15095531D02*
X7327205Y-15114578D01*
X7327205Y-15114578D02*
X7336729Y-15152674D01*
X7336729Y-15152674D02*
X7336729Y-15200293D01*
X7336729Y-15200293D02*
X7327205Y-15238388D01*
X7327205Y-15238388D02*
X7317681Y-15257436D01*
X7317681Y-15257436D02*
X7308157Y-15266959D01*
X7308157Y-15266959D02*
X7289110Y-15276483D01*
X7289110Y-15276483D02*
X7270062Y-15276483D01*
X7270062Y-15276483D02*
X7251015Y-15266959D01*
X7251015Y-15266959D02*
X7241491Y-15257436D01*
X7241491Y-15257436D02*
X7231967Y-15238388D01*
X7231967Y-15238388D02*
X7222443Y-15200293D01*
X7222443Y-15200293D02*
X7222443Y-15152674D01*
X7222443Y-15152674D02*
X7231967Y-15114578D01*
X7231967Y-15114578D02*
X7241491Y-15095531D01*
X7241491Y-15095531D02*
X7251015Y-15086007D01*
X7251015Y-15086007D02*
X7270062Y-15076483D01*
X7460538Y-15076483D02*
X7479586Y-15076483D01*
X7479586Y-15076483D02*
X7498634Y-15086007D01*
X7498634Y-15086007D02*
X7508157Y-15095531D01*
X7508157Y-15095531D02*
X7517681Y-15114578D01*
X7517681Y-15114578D02*
X7527205Y-15152674D01*
X7527205Y-15152674D02*
X7527205Y-15200293D01*
X7527205Y-15200293D02*
X7517681Y-15238388D01*
X7517681Y-15238388D02*
X7508157Y-15257436D01*
X7508157Y-15257436D02*
X7498634Y-15266959D01*
X7498634Y-15266959D02*
X7479586Y-15276483D01*
X7479586Y-15276483D02*
X7460538Y-15276483D01*
X7460538Y-15276483D02*
X7441491Y-15266959D01*
X7441491Y-15266959D02*
X7431967Y-15257436D01*
X7431967Y-15257436D02*
X7422443Y-15238388D01*
X7422443Y-15238388D02*
X7412919Y-15200293D01*
X7412919Y-15200293D02*
X7412919Y-15152674D01*
X7412919Y-15152674D02*
X7422443Y-15114578D01*
X7422443Y-15114578D02*
X7431967Y-15095531D01*
X7431967Y-15095531D02*
X7441491Y-15086007D01*
X7441491Y-15086007D02*
X7460538Y-15076483D01*
X7612919Y-15276483D02*
X7612919Y-15143150D01*
X7612919Y-15162197D02*
X7622443Y-15152674D01*
X7622443Y-15152674D02*
X7641491Y-15143150D01*
X7641491Y-15143150D02*
X7670062Y-15143150D01*
X7670062Y-15143150D02*
X7689110Y-15152674D01*
X7689110Y-15152674D02*
X7698634Y-15171721D01*
X7698634Y-15171721D02*
X7698634Y-15276483D01*
X7698634Y-15171721D02*
X7708157Y-15152674D01*
X7708157Y-15152674D02*
X7727205Y-15143150D01*
X7727205Y-15143150D02*
X7755776Y-15143150D01*
X7755776Y-15143150D02*
X7774824Y-15152674D01*
X7774824Y-15152674D02*
X7784348Y-15171721D01*
X7784348Y-15171721D02*
X7784348Y-15276483D01*
X7879586Y-15276483D02*
X7879586Y-15143150D01*
X7879586Y-15162197D02*
X7889110Y-15152674D01*
X7889110Y-15152674D02*
X7908157Y-15143150D01*
X7908157Y-15143150D02*
X7936729Y-15143150D01*
X7936729Y-15143150D02*
X7955777Y-15152674D01*
X7955777Y-15152674D02*
X7965300Y-15171721D01*
X7965300Y-15171721D02*
X7965300Y-15276483D01*
X7965300Y-15171721D02*
X7974824Y-15152674D01*
X7974824Y-15152674D02*
X7993872Y-15143150D01*
X7993872Y-15143150D02*
X8022443Y-15143150D01*
X8022443Y-15143150D02*
X8041491Y-15152674D01*
X8041491Y-15152674D02*
X8051015Y-15171721D01*
X8051015Y-15171721D02*
X8051015Y-15276483D01*
X8441491Y-15066959D02*
X8270062Y-15324102D01*
X8698634Y-15076483D02*
X8717682Y-15076483D01*
X8717682Y-15076483D02*
X8736729Y-15086007D01*
X8736729Y-15086007D02*
X8746253Y-15095531D01*
X8746253Y-15095531D02*
X8755777Y-15114578D01*
X8755777Y-15114578D02*
X8765301Y-15152674D01*
X8765301Y-15152674D02*
X8765301Y-15200293D01*
X8765301Y-15200293D02*
X8755777Y-15238388D01*
X8755777Y-15238388D02*
X8746253Y-15257436D01*
X8746253Y-15257436D02*
X8736729Y-15266959D01*
X8736729Y-15266959D02*
X8717682Y-15276483D01*
X8717682Y-15276483D02*
X8698634Y-15276483D01*
X8698634Y-15276483D02*
X8679586Y-15266959D01*
X8679586Y-15266959D02*
X8670062Y-15257436D01*
X8670062Y-15257436D02*
X8660539Y-15238388D01*
X8660539Y-15238388D02*
X8651015Y-15200293D01*
X8651015Y-15200293D02*
X8651015Y-15152674D01*
X8651015Y-15152674D02*
X8660539Y-15114578D01*
X8660539Y-15114578D02*
X8670062Y-15095531D01*
X8670062Y-15095531D02*
X8679586Y-15086007D01*
X8679586Y-15086007D02*
X8698634Y-15076483D01*
X8851015Y-15257436D02*
X8860539Y-15266959D01*
X8860539Y-15266959D02*
X8851015Y-15276483D01*
X8851015Y-15276483D02*
X8841491Y-15266959D01*
X8841491Y-15266959D02*
X8851015Y-15257436D01*
X8851015Y-15257436D02*
X8851015Y-15276483D01*
X8984348Y-15076483D02*
X9003396Y-15076483D01*
X9003396Y-15076483D02*
X9022443Y-15086007D01*
X9022443Y-15086007D02*
X9031967Y-15095531D01*
X9031967Y-15095531D02*
X9041491Y-15114578D01*
X9041491Y-15114578D02*
X9051015Y-15152674D01*
X9051015Y-15152674D02*
X9051015Y-15200293D01*
X9051015Y-15200293D02*
X9041491Y-15238388D01*
X9041491Y-15238388D02*
X9031967Y-15257436D01*
X9031967Y-15257436D02*
X9022443Y-15266959D01*
X9022443Y-15266959D02*
X9003396Y-15276483D01*
X9003396Y-15276483D02*
X8984348Y-15276483D01*
X8984348Y-15276483D02*
X8965301Y-15266959D01*
X8965301Y-15266959D02*
X8955777Y-15257436D01*
X8955777Y-15257436D02*
X8946253Y-15238388D01*
X8946253Y-15238388D02*
X8936729Y-15200293D01*
X8936729Y-15200293D02*
X8936729Y-15152674D01*
X8936729Y-15152674D02*
X8946253Y-15114578D01*
X8946253Y-15114578D02*
X8955777Y-15095531D01*
X8955777Y-15095531D02*
X8965301Y-15086007D01*
X8965301Y-15086007D02*
X8984348Y-15076483D01*
X9241491Y-15276483D02*
X9127205Y-15276483D01*
X9184348Y-15276483D02*
X9184348Y-15076483D01*
X9184348Y-15076483D02*
X9165301Y-15105055D01*
X9165301Y-15105055D02*
X9146253Y-15124102D01*
X9146253Y-15124102D02*
X9127205Y-15133626D01*
X9336729Y-15276483D02*
X9374824Y-15276483D01*
X9374824Y-15276483D02*
X9393872Y-15266959D01*
X9393872Y-15266959D02*
X9403396Y-15257436D01*
X9403396Y-15257436D02*
X9422443Y-15228864D01*
X9422443Y-15228864D02*
X9431967Y-15190769D01*
X9431967Y-15190769D02*
X9431967Y-15114578D01*
X9431967Y-15114578D02*
X9422443Y-15095531D01*
X9422443Y-15095531D02*
X9412920Y-15086007D01*
X9412920Y-15086007D02*
X9393872Y-15076483D01*
X9393872Y-15076483D02*
X9355777Y-15076483D01*
X9355777Y-15076483D02*
X9336729Y-15086007D01*
X9336729Y-15086007D02*
X9327205Y-15095531D01*
X9327205Y-15095531D02*
X9317682Y-15114578D01*
X9317682Y-15114578D02*
X9317682Y-15162197D01*
X9317682Y-15162197D02*
X9327205Y-15181245D01*
X9327205Y-15181245D02*
X9336729Y-15190769D01*
X9336729Y-15190769D02*
X9355777Y-15200293D01*
X9355777Y-15200293D02*
X9393872Y-15200293D01*
X9393872Y-15200293D02*
X9412920Y-15190769D01*
X9412920Y-15190769D02*
X9422443Y-15181245D01*
X9422443Y-15181245D02*
X9431967Y-15162197D01*
X9498634Y-15076483D02*
X9631967Y-15076483D01*
X9631967Y-15076483D02*
X9546253Y-15276483D01*
X9698634Y-15076483D02*
X9698634Y-15114578D01*
X9774824Y-15076483D02*
X9774824Y-15114578D01*
X10070063Y-15352674D02*
X10060539Y-15343150D01*
X10060539Y-15343150D02*
X10041491Y-15314578D01*
X10041491Y-15314578D02*
X10031967Y-15295531D01*
X10031967Y-15295531D02*
X10022444Y-15266959D01*
X10022444Y-15266959D02*
X10012920Y-15219340D01*
X10012920Y-15219340D02*
X10012920Y-15181245D01*
X10012920Y-15181245D02*
X10022444Y-15133626D01*
X10022444Y-15133626D02*
X10031967Y-15105055D01*
X10031967Y-15105055D02*
X10041491Y-15086007D01*
X10041491Y-15086007D02*
X10060539Y-15057436D01*
X10060539Y-15057436D02*
X10070063Y-15047912D01*
X10136729Y-15095531D02*
X10146253Y-15086007D01*
X10146253Y-15086007D02*
X10165301Y-15076483D01*
X10165301Y-15076483D02*
X10212920Y-15076483D01*
X10212920Y-15076483D02*
X10231967Y-15086007D01*
X10231967Y-15086007D02*
X10241491Y-15095531D01*
X10241491Y-15095531D02*
X10251015Y-15114578D01*
X10251015Y-15114578D02*
X10251015Y-15133626D01*
X10251015Y-15133626D02*
X10241491Y-15162197D01*
X10241491Y-15162197D02*
X10127205Y-15276483D01*
X10127205Y-15276483D02*
X10251015Y-15276483D01*
X10441491Y-15276483D02*
X10327205Y-15276483D01*
X10384348Y-15276483D02*
X10384348Y-15076483D01*
X10384348Y-15076483D02*
X10365301Y-15105055D01*
X10365301Y-15105055D02*
X10346253Y-15124102D01*
X10346253Y-15124102D02*
X10327205Y-15133626D01*
X10612920Y-15076483D02*
X10574824Y-15076483D01*
X10574824Y-15076483D02*
X10555777Y-15086007D01*
X10555777Y-15086007D02*
X10546253Y-15095531D01*
X10546253Y-15095531D02*
X10527205Y-15124102D01*
X10527205Y-15124102D02*
X10517682Y-15162197D01*
X10517682Y-15162197D02*
X10517682Y-15238388D01*
X10517682Y-15238388D02*
X10527205Y-15257436D01*
X10527205Y-15257436D02*
X10536729Y-15266959D01*
X10536729Y-15266959D02*
X10555777Y-15276483D01*
X10555777Y-15276483D02*
X10593872Y-15276483D01*
X10593872Y-15276483D02*
X10612920Y-15266959D01*
X10612920Y-15266959D02*
X10622444Y-15257436D01*
X10622444Y-15257436D02*
X10631967Y-15238388D01*
X10631967Y-15238388D02*
X10631967Y-15190769D01*
X10631967Y-15190769D02*
X10622444Y-15171721D01*
X10622444Y-15171721D02*
X10612920Y-15162197D01*
X10612920Y-15162197D02*
X10593872Y-15152674D01*
X10593872Y-15152674D02*
X10555777Y-15152674D01*
X10555777Y-15152674D02*
X10536729Y-15162197D01*
X10536729Y-15162197D02*
X10527205Y-15171721D01*
X10527205Y-15171721D02*
X10517682Y-15190769D01*
X10870063Y-15276483D02*
X10870063Y-15076483D01*
X10955777Y-15276483D02*
X10955777Y-15171721D01*
X10955777Y-15171721D02*
X10946253Y-15152674D01*
X10946253Y-15152674D02*
X10927206Y-15143150D01*
X10927206Y-15143150D02*
X10898634Y-15143150D01*
X10898634Y-15143150D02*
X10879586Y-15152674D01*
X10879586Y-15152674D02*
X10870063Y-15162197D01*
X11079586Y-15276483D02*
X11060539Y-15266959D01*
X11060539Y-15266959D02*
X11051015Y-15257436D01*
X11051015Y-15257436D02*
X11041491Y-15238388D01*
X11041491Y-15238388D02*
X11041491Y-15181245D01*
X11041491Y-15181245D02*
X11051015Y-15162197D01*
X11051015Y-15162197D02*
X11060539Y-15152674D01*
X11060539Y-15152674D02*
X11079586Y-15143150D01*
X11079586Y-15143150D02*
X11108158Y-15143150D01*
X11108158Y-15143150D02*
X11127206Y-15152674D01*
X11127206Y-15152674D02*
X11136729Y-15162197D01*
X11136729Y-15162197D02*
X11146253Y-15181245D01*
X11146253Y-15181245D02*
X11146253Y-15238388D01*
X11146253Y-15238388D02*
X11136729Y-15257436D01*
X11136729Y-15257436D02*
X11127206Y-15266959D01*
X11127206Y-15266959D02*
X11108158Y-15276483D01*
X11108158Y-15276483D02*
X11079586Y-15276483D01*
X11260539Y-15276483D02*
X11241491Y-15266959D01*
X11241491Y-15266959D02*
X11231967Y-15247912D01*
X11231967Y-15247912D02*
X11231967Y-15076483D01*
X11412920Y-15266959D02*
X11393872Y-15276483D01*
X11393872Y-15276483D02*
X11355777Y-15276483D01*
X11355777Y-15276483D02*
X11336729Y-15266959D01*
X11336729Y-15266959D02*
X11327205Y-15247912D01*
X11327205Y-15247912D02*
X11327205Y-15171721D01*
X11327205Y-15171721D02*
X11336729Y-15152674D01*
X11336729Y-15152674D02*
X11355777Y-15143150D01*
X11355777Y-15143150D02*
X11393872Y-15143150D01*
X11393872Y-15143150D02*
X11412920Y-15152674D01*
X11412920Y-15152674D02*
X11422444Y-15171721D01*
X11422444Y-15171721D02*
X11422444Y-15190769D01*
X11422444Y-15190769D02*
X11327205Y-15209817D01*
X11498634Y-15266959D02*
X11517682Y-15276483D01*
X11517682Y-15276483D02*
X11555777Y-15276483D01*
X11555777Y-15276483D02*
X11574825Y-15266959D01*
X11574825Y-15266959D02*
X11584348Y-15247912D01*
X11584348Y-15247912D02*
X11584348Y-15238388D01*
X11584348Y-15238388D02*
X11574825Y-15219340D01*
X11574825Y-15219340D02*
X11555777Y-15209817D01*
X11555777Y-15209817D02*
X11527205Y-15209817D01*
X11527205Y-15209817D02*
X11508158Y-15200293D01*
X11508158Y-15200293D02*
X11498634Y-15181245D01*
X11498634Y-15181245D02*
X11498634Y-15171721D01*
X11498634Y-15171721D02*
X11508158Y-15152674D01*
X11508158Y-15152674D02*
X11527205Y-15143150D01*
X11527205Y-15143150D02*
X11555777Y-15143150D01*
X11555777Y-15143150D02*
X11574825Y-15152674D01*
X11651015Y-15352674D02*
X11660539Y-15343150D01*
X11660539Y-15343150D02*
X11679586Y-15314578D01*
X11679586Y-15314578D02*
X11689110Y-15295531D01*
X11689110Y-15295531D02*
X11698634Y-15266959D01*
X11698634Y-15266959D02*
X11708158Y-15219340D01*
X11708158Y-15219340D02*
X11708158Y-15181245D01*
X11708158Y-15181245D02*
X11698634Y-15133626D01*
X11698634Y-15133626D02*
X11689110Y-15105055D01*
X11689110Y-15105055D02*
X11679586Y-15086007D01*
X11679586Y-15086007D02*
X11660539Y-15057436D01*
X11660539Y-15057436D02*
X11651015Y-15047912D01*
X12012920Y-15352674D02*
X12003396Y-15343150D01*
X12003396Y-15343150D02*
X11984348Y-15314578D01*
X11984348Y-15314578D02*
X11974825Y-15295531D01*
X11974825Y-15295531D02*
X11965301Y-15266959D01*
X11965301Y-15266959D02*
X11955777Y-15219340D01*
X11955777Y-15219340D02*
X11955777Y-15181245D01*
X11955777Y-15181245D02*
X11965301Y-15133626D01*
X11965301Y-15133626D02*
X11974825Y-15105055D01*
X11974825Y-15105055D02*
X11984348Y-15086007D01*
X11984348Y-15086007D02*
X12003396Y-15057436D01*
X12003396Y-15057436D02*
X12012920Y-15047912D01*
X12089110Y-15143150D02*
X12089110Y-15276483D01*
X12089110Y-15162197D02*
X12098634Y-15152674D01*
X12098634Y-15152674D02*
X12117682Y-15143150D01*
X12117682Y-15143150D02*
X12146253Y-15143150D01*
X12146253Y-15143150D02*
X12165301Y-15152674D01*
X12165301Y-15152674D02*
X12174825Y-15171721D01*
X12174825Y-15171721D02*
X12174825Y-15276483D01*
X12298634Y-15276483D02*
X12279586Y-15266959D01*
X12279586Y-15266959D02*
X12270063Y-15257436D01*
X12270063Y-15257436D02*
X12260539Y-15238388D01*
X12260539Y-15238388D02*
X12260539Y-15181245D01*
X12260539Y-15181245D02*
X12270063Y-15162197D01*
X12270063Y-15162197D02*
X12279586Y-15152674D01*
X12279586Y-15152674D02*
X12298634Y-15143150D01*
X12298634Y-15143150D02*
X12327206Y-15143150D01*
X12327206Y-15143150D02*
X12346253Y-15152674D01*
X12346253Y-15152674D02*
X12355777Y-15162197D01*
X12355777Y-15162197D02*
X12365301Y-15181245D01*
X12365301Y-15181245D02*
X12365301Y-15238388D01*
X12365301Y-15238388D02*
X12355777Y-15257436D01*
X12355777Y-15257436D02*
X12346253Y-15266959D01*
X12346253Y-15266959D02*
X12327206Y-15276483D01*
X12327206Y-15276483D02*
X12298634Y-15276483D01*
X12422444Y-15143150D02*
X12498634Y-15143150D01*
X12451015Y-15076483D02*
X12451015Y-15247912D01*
X12451015Y-15247912D02*
X12460539Y-15266959D01*
X12460539Y-15266959D02*
X12479586Y-15276483D01*
X12479586Y-15276483D02*
X12498634Y-15276483D01*
X12717682Y-15143150D02*
X12717682Y-15343150D01*
X12717682Y-15152674D02*
X12736729Y-15143150D01*
X12736729Y-15143150D02*
X12774825Y-15143150D01*
X12774825Y-15143150D02*
X12793872Y-15152674D01*
X12793872Y-15152674D02*
X12803396Y-15162197D01*
X12803396Y-15162197D02*
X12812920Y-15181245D01*
X12812920Y-15181245D02*
X12812920Y-15238388D01*
X12812920Y-15238388D02*
X12803396Y-15257436D01*
X12803396Y-15257436D02*
X12793872Y-15266959D01*
X12793872Y-15266959D02*
X12774825Y-15276483D01*
X12774825Y-15276483D02*
X12736729Y-15276483D01*
X12736729Y-15276483D02*
X12717682Y-15266959D01*
X12927206Y-15276483D02*
X12908158Y-15266959D01*
X12908158Y-15266959D02*
X12898634Y-15247912D01*
X12898634Y-15247912D02*
X12898634Y-15076483D01*
X13089110Y-15276483D02*
X13089110Y-15171721D01*
X13089110Y-15171721D02*
X13079587Y-15152674D01*
X13079587Y-15152674D02*
X13060539Y-15143150D01*
X13060539Y-15143150D02*
X13022444Y-15143150D01*
X13022444Y-15143150D02*
X13003396Y-15152674D01*
X13089110Y-15266959D02*
X13070063Y-15276483D01*
X13070063Y-15276483D02*
X13022444Y-15276483D01*
X13022444Y-15276483D02*
X13003396Y-15266959D01*
X13003396Y-15266959D02*
X12993872Y-15247912D01*
X12993872Y-15247912D02*
X12993872Y-15228864D01*
X12993872Y-15228864D02*
X13003396Y-15209817D01*
X13003396Y-15209817D02*
X13022444Y-15200293D01*
X13022444Y-15200293D02*
X13070063Y-15200293D01*
X13070063Y-15200293D02*
X13089110Y-15190769D01*
X13155777Y-15143150D02*
X13231967Y-15143150D01*
X13184348Y-15076483D02*
X13184348Y-15247912D01*
X13184348Y-15247912D02*
X13193872Y-15266959D01*
X13193872Y-15266959D02*
X13212920Y-15276483D01*
X13212920Y-15276483D02*
X13231967Y-15276483D01*
X13374825Y-15266959D02*
X13355777Y-15276483D01*
X13355777Y-15276483D02*
X13317682Y-15276483D01*
X13317682Y-15276483D02*
X13298634Y-15266959D01*
X13298634Y-15266959D02*
X13289110Y-15247912D01*
X13289110Y-15247912D02*
X13289110Y-15171721D01*
X13289110Y-15171721D02*
X13298634Y-15152674D01*
X13298634Y-15152674D02*
X13317682Y-15143150D01*
X13317682Y-15143150D02*
X13355777Y-15143150D01*
X13355777Y-15143150D02*
X13374825Y-15152674D01*
X13374825Y-15152674D02*
X13384348Y-15171721D01*
X13384348Y-15171721D02*
X13384348Y-15190769D01*
X13384348Y-15190769D02*
X13289110Y-15209817D01*
X13555777Y-15276483D02*
X13555777Y-15076483D01*
X13555777Y-15266959D02*
X13536729Y-15276483D01*
X13536729Y-15276483D02*
X13498634Y-15276483D01*
X13498634Y-15276483D02*
X13479587Y-15266959D01*
X13479587Y-15266959D02*
X13470063Y-15257436D01*
X13470063Y-15257436D02*
X13460539Y-15238388D01*
X13460539Y-15238388D02*
X13460539Y-15181245D01*
X13460539Y-15181245D02*
X13470063Y-15162197D01*
X13470063Y-15162197D02*
X13479587Y-15152674D01*
X13479587Y-15152674D02*
X13498634Y-15143150D01*
X13498634Y-15143150D02*
X13536729Y-15143150D01*
X13536729Y-15143150D02*
X13555777Y-15152674D01*
X13631968Y-15352674D02*
X13641491Y-15343150D01*
X13641491Y-15343150D02*
X13660539Y-15314578D01*
X13660539Y-15314578D02*
X13670063Y-15295531D01*
X13670063Y-15295531D02*
X13679587Y-15266959D01*
X13679587Y-15266959D02*
X13689110Y-15219340D01*
X13689110Y-15219340D02*
X13689110Y-15181245D01*
X13689110Y-15181245D02*
X13679587Y-15133626D01*
X13679587Y-15133626D02*
X13670063Y-15105055D01*
X13670063Y-15105055D02*
X13660539Y-15086007D01*
X13660539Y-15086007D02*
X13641491Y-15057436D01*
X13641491Y-15057436D02*
X13631968Y-15047912D01*
X6495000Y-15448999D02*
G75*
G03*
X6495000Y-15448999I-100000J0D01*
G01*
X6736729Y-15340483D02*
X6860538Y-15340483D01*
X6860538Y-15340483D02*
X6793872Y-15416674D01*
X6793872Y-15416674D02*
X6822443Y-15416674D01*
X6822443Y-15416674D02*
X6841491Y-15426197D01*
X6841491Y-15426197D02*
X6851015Y-15435721D01*
X6851015Y-15435721D02*
X6860538Y-15454769D01*
X6860538Y-15454769D02*
X6860538Y-15502388D01*
X6860538Y-15502388D02*
X6851015Y-15521436D01*
X6851015Y-15521436D02*
X6841491Y-15530959D01*
X6841491Y-15530959D02*
X6822443Y-15540483D01*
X6822443Y-15540483D02*
X6765300Y-15540483D01*
X6765300Y-15540483D02*
X6746253Y-15530959D01*
X6746253Y-15530959D02*
X6736729Y-15521436D01*
X6946253Y-15521436D02*
X6955776Y-15530959D01*
X6955776Y-15530959D02*
X6946253Y-15540483D01*
X6946253Y-15540483D02*
X6936729Y-15530959D01*
X6936729Y-15530959D02*
X6946253Y-15521436D01*
X6946253Y-15521436D02*
X6946253Y-15540483D01*
X7079586Y-15340483D02*
X7098634Y-15340483D01*
X7098634Y-15340483D02*
X7117681Y-15350007D01*
X7117681Y-15350007D02*
X7127205Y-15359531D01*
X7127205Y-15359531D02*
X7136729Y-15378578D01*
X7136729Y-15378578D02*
X7146253Y-15416674D01*
X7146253Y-15416674D02*
X7146253Y-15464293D01*
X7146253Y-15464293D02*
X7136729Y-15502388D01*
X7136729Y-15502388D02*
X7127205Y-15521436D01*
X7127205Y-15521436D02*
X7117681Y-15530959D01*
X7117681Y-15530959D02*
X7098634Y-15540483D01*
X7098634Y-15540483D02*
X7079586Y-15540483D01*
X7079586Y-15540483D02*
X7060538Y-15530959D01*
X7060538Y-15530959D02*
X7051015Y-15521436D01*
X7051015Y-15521436D02*
X7041491Y-15502388D01*
X7041491Y-15502388D02*
X7031967Y-15464293D01*
X7031967Y-15464293D02*
X7031967Y-15416674D01*
X7031967Y-15416674D02*
X7041491Y-15378578D01*
X7041491Y-15378578D02*
X7051015Y-15359531D01*
X7051015Y-15359531D02*
X7060538Y-15350007D01*
X7060538Y-15350007D02*
X7079586Y-15340483D01*
X7270062Y-15340483D02*
X7289110Y-15340483D01*
X7289110Y-15340483D02*
X7308157Y-15350007D01*
X7308157Y-15350007D02*
X7317681Y-15359531D01*
X7317681Y-15359531D02*
X7327205Y-15378578D01*
X7327205Y-15378578D02*
X7336729Y-15416674D01*
X7336729Y-15416674D02*
X7336729Y-15464293D01*
X7336729Y-15464293D02*
X7327205Y-15502388D01*
X7327205Y-15502388D02*
X7317681Y-15521436D01*
X7317681Y-15521436D02*
X7308157Y-15530959D01*
X7308157Y-15530959D02*
X7289110Y-15540483D01*
X7289110Y-15540483D02*
X7270062Y-15540483D01*
X7270062Y-15540483D02*
X7251015Y-15530959D01*
X7251015Y-15530959D02*
X7241491Y-15521436D01*
X7241491Y-15521436D02*
X7231967Y-15502388D01*
X7231967Y-15502388D02*
X7222443Y-15464293D01*
X7222443Y-15464293D02*
X7222443Y-15416674D01*
X7222443Y-15416674D02*
X7231967Y-15378578D01*
X7231967Y-15378578D02*
X7241491Y-15359531D01*
X7241491Y-15359531D02*
X7251015Y-15350007D01*
X7251015Y-15350007D02*
X7270062Y-15340483D01*
X7460538Y-15340483D02*
X7479586Y-15340483D01*
X7479586Y-15340483D02*
X7498634Y-15350007D01*
X7498634Y-15350007D02*
X7508157Y-15359531D01*
X7508157Y-15359531D02*
X7517681Y-15378578D01*
X7517681Y-15378578D02*
X7527205Y-15416674D01*
X7527205Y-15416674D02*
X7527205Y-15464293D01*
X7527205Y-15464293D02*
X7517681Y-15502388D01*
X7517681Y-15502388D02*
X7508157Y-15521436D01*
X7508157Y-15521436D02*
X7498634Y-15530959D01*
X7498634Y-15530959D02*
X7479586Y-15540483D01*
X7479586Y-15540483D02*
X7460538Y-15540483D01*
X7460538Y-15540483D02*
X7441491Y-15530959D01*
X7441491Y-15530959D02*
X7431967Y-15521436D01*
X7431967Y-15521436D02*
X7422443Y-15502388D01*
X7422443Y-15502388D02*
X7412919Y-15464293D01*
X7412919Y-15464293D02*
X7412919Y-15416674D01*
X7412919Y-15416674D02*
X7422443Y-15378578D01*
X7422443Y-15378578D02*
X7431967Y-15359531D01*
X7431967Y-15359531D02*
X7441491Y-15350007D01*
X7441491Y-15350007D02*
X7460538Y-15340483D01*
X7612919Y-15540483D02*
X7612919Y-15407150D01*
X7612919Y-15426197D02*
X7622443Y-15416674D01*
X7622443Y-15416674D02*
X7641491Y-15407150D01*
X7641491Y-15407150D02*
X7670062Y-15407150D01*
X7670062Y-15407150D02*
X7689110Y-15416674D01*
X7689110Y-15416674D02*
X7698634Y-15435721D01*
X7698634Y-15435721D02*
X7698634Y-15540483D01*
X7698634Y-15435721D02*
X7708157Y-15416674D01*
X7708157Y-15416674D02*
X7727205Y-15407150D01*
X7727205Y-15407150D02*
X7755776Y-15407150D01*
X7755776Y-15407150D02*
X7774824Y-15416674D01*
X7774824Y-15416674D02*
X7784348Y-15435721D01*
X7784348Y-15435721D02*
X7784348Y-15540483D01*
X7879586Y-15540483D02*
X7879586Y-15407150D01*
X7879586Y-15426197D02*
X7889110Y-15416674D01*
X7889110Y-15416674D02*
X7908157Y-15407150D01*
X7908157Y-15407150D02*
X7936729Y-15407150D01*
X7936729Y-15407150D02*
X7955777Y-15416674D01*
X7955777Y-15416674D02*
X7965300Y-15435721D01*
X7965300Y-15435721D02*
X7965300Y-15540483D01*
X7965300Y-15435721D02*
X7974824Y-15416674D01*
X7974824Y-15416674D02*
X7993872Y-15407150D01*
X7993872Y-15407150D02*
X8022443Y-15407150D01*
X8022443Y-15407150D02*
X8041491Y-15416674D01*
X8041491Y-15416674D02*
X8051015Y-15435721D01*
X8051015Y-15435721D02*
X8051015Y-15540483D01*
X8441491Y-15330959D02*
X8270062Y-15588102D01*
X8698634Y-15340483D02*
X8717682Y-15340483D01*
X8717682Y-15340483D02*
X8736729Y-15350007D01*
X8736729Y-15350007D02*
X8746253Y-15359531D01*
X8746253Y-15359531D02*
X8755777Y-15378578D01*
X8755777Y-15378578D02*
X8765301Y-15416674D01*
X8765301Y-15416674D02*
X8765301Y-15464293D01*
X8765301Y-15464293D02*
X8755777Y-15502388D01*
X8755777Y-15502388D02*
X8746253Y-15521436D01*
X8746253Y-15521436D02*
X8736729Y-15530959D01*
X8736729Y-15530959D02*
X8717682Y-15540483D01*
X8717682Y-15540483D02*
X8698634Y-15540483D01*
X8698634Y-15540483D02*
X8679586Y-15530959D01*
X8679586Y-15530959D02*
X8670062Y-15521436D01*
X8670062Y-15521436D02*
X8660539Y-15502388D01*
X8660539Y-15502388D02*
X8651015Y-15464293D01*
X8651015Y-15464293D02*
X8651015Y-15416674D01*
X8651015Y-15416674D02*
X8660539Y-15378578D01*
X8660539Y-15378578D02*
X8670062Y-15359531D01*
X8670062Y-15359531D02*
X8679586Y-15350007D01*
X8679586Y-15350007D02*
X8698634Y-15340483D01*
X8851015Y-15521436D02*
X8860539Y-15530959D01*
X8860539Y-15530959D02*
X8851015Y-15540483D01*
X8851015Y-15540483D02*
X8841491Y-15530959D01*
X8841491Y-15530959D02*
X8851015Y-15521436D01*
X8851015Y-15521436D02*
X8851015Y-15540483D01*
X9051015Y-15540483D02*
X8936729Y-15540483D01*
X8993872Y-15540483D02*
X8993872Y-15340483D01*
X8993872Y-15340483D02*
X8974824Y-15369055D01*
X8974824Y-15369055D02*
X8955777Y-15388102D01*
X8955777Y-15388102D02*
X8936729Y-15397626D01*
X9241491Y-15540483D02*
X9127205Y-15540483D01*
X9184348Y-15540483D02*
X9184348Y-15340483D01*
X9184348Y-15340483D02*
X9165301Y-15369055D01*
X9165301Y-15369055D02*
X9146253Y-15388102D01*
X9146253Y-15388102D02*
X9127205Y-15397626D01*
X9355777Y-15426197D02*
X9336729Y-15416674D01*
X9336729Y-15416674D02*
X9327205Y-15407150D01*
X9327205Y-15407150D02*
X9317682Y-15388102D01*
X9317682Y-15388102D02*
X9317682Y-15378578D01*
X9317682Y-15378578D02*
X9327205Y-15359531D01*
X9327205Y-15359531D02*
X9336729Y-15350007D01*
X9336729Y-15350007D02*
X9355777Y-15340483D01*
X9355777Y-15340483D02*
X9393872Y-15340483D01*
X9393872Y-15340483D02*
X9412920Y-15350007D01*
X9412920Y-15350007D02*
X9422443Y-15359531D01*
X9422443Y-15359531D02*
X9431967Y-15378578D01*
X9431967Y-15378578D02*
X9431967Y-15388102D01*
X9431967Y-15388102D02*
X9422443Y-15407150D01*
X9422443Y-15407150D02*
X9412920Y-15416674D01*
X9412920Y-15416674D02*
X9393872Y-15426197D01*
X9393872Y-15426197D02*
X9355777Y-15426197D01*
X9355777Y-15426197D02*
X9336729Y-15435721D01*
X9336729Y-15435721D02*
X9327205Y-15445245D01*
X9327205Y-15445245D02*
X9317682Y-15464293D01*
X9317682Y-15464293D02*
X9317682Y-15502388D01*
X9317682Y-15502388D02*
X9327205Y-15521436D01*
X9327205Y-15521436D02*
X9336729Y-15530959D01*
X9336729Y-15530959D02*
X9355777Y-15540483D01*
X9355777Y-15540483D02*
X9393872Y-15540483D01*
X9393872Y-15540483D02*
X9412920Y-15530959D01*
X9412920Y-15530959D02*
X9422443Y-15521436D01*
X9422443Y-15521436D02*
X9431967Y-15502388D01*
X9431967Y-15502388D02*
X9431967Y-15464293D01*
X9431967Y-15464293D02*
X9422443Y-15445245D01*
X9422443Y-15445245D02*
X9412920Y-15435721D01*
X9412920Y-15435721D02*
X9393872Y-15426197D01*
X9622443Y-15540483D02*
X9508158Y-15540483D01*
X9565301Y-15540483D02*
X9565301Y-15340483D01*
X9565301Y-15340483D02*
X9546253Y-15369055D01*
X9546253Y-15369055D02*
X9527205Y-15388102D01*
X9527205Y-15388102D02*
X9508158Y-15397626D01*
X9698634Y-15340483D02*
X9698634Y-15378578D01*
X9774824Y-15340483D02*
X9774824Y-15378578D01*
X10070063Y-15616674D02*
X10060539Y-15607150D01*
X10060539Y-15607150D02*
X10041491Y-15578578D01*
X10041491Y-15578578D02*
X10031967Y-15559531D01*
X10031967Y-15559531D02*
X10022444Y-15530959D01*
X10022444Y-15530959D02*
X10012920Y-15483340D01*
X10012920Y-15483340D02*
X10012920Y-15445245D01*
X10012920Y-15445245D02*
X10022444Y-15397626D01*
X10022444Y-15397626D02*
X10031967Y-15369055D01*
X10031967Y-15369055D02*
X10041491Y-15350007D01*
X10041491Y-15350007D02*
X10060539Y-15321436D01*
X10060539Y-15321436D02*
X10070063Y-15311912D01*
X10231967Y-15407150D02*
X10231967Y-15540483D01*
X10184348Y-15330959D02*
X10136729Y-15473817D01*
X10136729Y-15473817D02*
X10260539Y-15473817D01*
X10489110Y-15540483D02*
X10489110Y-15340483D01*
X10574825Y-15540483D02*
X10574825Y-15435721D01*
X10574825Y-15435721D02*
X10565301Y-15416674D01*
X10565301Y-15416674D02*
X10546253Y-15407150D01*
X10546253Y-15407150D02*
X10517682Y-15407150D01*
X10517682Y-15407150D02*
X10498634Y-15416674D01*
X10498634Y-15416674D02*
X10489110Y-15426197D01*
X10698634Y-15540483D02*
X10679586Y-15530959D01*
X10679586Y-15530959D02*
X10670063Y-15521436D01*
X10670063Y-15521436D02*
X10660539Y-15502388D01*
X10660539Y-15502388D02*
X10660539Y-15445245D01*
X10660539Y-15445245D02*
X10670063Y-15426197D01*
X10670063Y-15426197D02*
X10679586Y-15416674D01*
X10679586Y-15416674D02*
X10698634Y-15407150D01*
X10698634Y-15407150D02*
X10727206Y-15407150D01*
X10727206Y-15407150D02*
X10746253Y-15416674D01*
X10746253Y-15416674D02*
X10755777Y-15426197D01*
X10755777Y-15426197D02*
X10765301Y-15445245D01*
X10765301Y-15445245D02*
X10765301Y-15502388D01*
X10765301Y-15502388D02*
X10755777Y-15521436D01*
X10755777Y-15521436D02*
X10746253Y-15530959D01*
X10746253Y-15530959D02*
X10727206Y-15540483D01*
X10727206Y-15540483D02*
X10698634Y-15540483D01*
X10879586Y-15540483D02*
X10860539Y-15530959D01*
X10860539Y-15530959D02*
X10851015Y-15511912D01*
X10851015Y-15511912D02*
X10851015Y-15340483D01*
X11031967Y-15530959D02*
X11012920Y-15540483D01*
X11012920Y-15540483D02*
X10974825Y-15540483D01*
X10974825Y-15540483D02*
X10955777Y-15530959D01*
X10955777Y-15530959D02*
X10946253Y-15511912D01*
X10946253Y-15511912D02*
X10946253Y-15435721D01*
X10946253Y-15435721D02*
X10955777Y-15416674D01*
X10955777Y-15416674D02*
X10974825Y-15407150D01*
X10974825Y-15407150D02*
X11012920Y-15407150D01*
X11012920Y-15407150D02*
X11031967Y-15416674D01*
X11031967Y-15416674D02*
X11041491Y-15435721D01*
X11041491Y-15435721D02*
X11041491Y-15454769D01*
X11041491Y-15454769D02*
X10946253Y-15473817D01*
X11117682Y-15530959D02*
X11136729Y-15540483D01*
X11136729Y-15540483D02*
X11174825Y-15540483D01*
X11174825Y-15540483D02*
X11193872Y-15530959D01*
X11193872Y-15530959D02*
X11203396Y-15511912D01*
X11203396Y-15511912D02*
X11203396Y-15502388D01*
X11203396Y-15502388D02*
X11193872Y-15483340D01*
X11193872Y-15483340D02*
X11174825Y-15473817D01*
X11174825Y-15473817D02*
X11146253Y-15473817D01*
X11146253Y-15473817D02*
X11127206Y-15464293D01*
X11127206Y-15464293D02*
X11117682Y-15445245D01*
X11117682Y-15445245D02*
X11117682Y-15435721D01*
X11117682Y-15435721D02*
X11127206Y-15416674D01*
X11127206Y-15416674D02*
X11146253Y-15407150D01*
X11146253Y-15407150D02*
X11174825Y-15407150D01*
X11174825Y-15407150D02*
X11193872Y-15416674D01*
X11270063Y-15616674D02*
X11279586Y-15607150D01*
X11279586Y-15607150D02*
X11298634Y-15578578D01*
X11298634Y-15578578D02*
X11308158Y-15559531D01*
X11308158Y-15559531D02*
X11317682Y-15530959D01*
X11317682Y-15530959D02*
X11327205Y-15483340D01*
X11327205Y-15483340D02*
X11327205Y-15445245D01*
X11327205Y-15445245D02*
X11317682Y-15397626D01*
X11317682Y-15397626D02*
X11308158Y-15369055D01*
X11308158Y-15369055D02*
X11298634Y-15350007D01*
X11298634Y-15350007D02*
X11279586Y-15321436D01*
X11279586Y-15321436D02*
X11270063Y-15311912D01*
X11631967Y-15616674D02*
X11622444Y-15607150D01*
X11622444Y-15607150D02*
X11603396Y-15578578D01*
X11603396Y-15578578D02*
X11593872Y-15559531D01*
X11593872Y-15559531D02*
X11584348Y-15530959D01*
X11584348Y-15530959D02*
X11574825Y-15483340D01*
X11574825Y-15483340D02*
X11574825Y-15445245D01*
X11574825Y-15445245D02*
X11584348Y-15397626D01*
X11584348Y-15397626D02*
X11593872Y-15369055D01*
X11593872Y-15369055D02*
X11603396Y-15350007D01*
X11603396Y-15350007D02*
X11622444Y-15321436D01*
X11622444Y-15321436D02*
X11631967Y-15311912D01*
X11708158Y-15407150D02*
X11708158Y-15540483D01*
X11708158Y-15426197D02*
X11717682Y-15416674D01*
X11717682Y-15416674D02*
X11736729Y-15407150D01*
X11736729Y-15407150D02*
X11765301Y-15407150D01*
X11765301Y-15407150D02*
X11784348Y-15416674D01*
X11784348Y-15416674D02*
X11793872Y-15435721D01*
X11793872Y-15435721D02*
X11793872Y-15540483D01*
X11917682Y-15540483D02*
X11898634Y-15530959D01*
X11898634Y-15530959D02*
X11889110Y-15521436D01*
X11889110Y-15521436D02*
X11879586Y-15502388D01*
X11879586Y-15502388D02*
X11879586Y-15445245D01*
X11879586Y-15445245D02*
X11889110Y-15426197D01*
X11889110Y-15426197D02*
X11898634Y-15416674D01*
X11898634Y-15416674D02*
X11917682Y-15407150D01*
X11917682Y-15407150D02*
X11946253Y-15407150D01*
X11946253Y-15407150D02*
X11965301Y-15416674D01*
X11965301Y-15416674D02*
X11974825Y-15426197D01*
X11974825Y-15426197D02*
X11984348Y-15445245D01*
X11984348Y-15445245D02*
X11984348Y-15502388D01*
X11984348Y-15502388D02*
X11974825Y-15521436D01*
X11974825Y-15521436D02*
X11965301Y-15530959D01*
X11965301Y-15530959D02*
X11946253Y-15540483D01*
X11946253Y-15540483D02*
X11917682Y-15540483D01*
X12041491Y-15407150D02*
X12117682Y-15407150D01*
X12070063Y-15340483D02*
X12070063Y-15511912D01*
X12070063Y-15511912D02*
X12079586Y-15530959D01*
X12079586Y-15530959D02*
X12098634Y-15540483D01*
X12098634Y-15540483D02*
X12117682Y-15540483D01*
X12336729Y-15407150D02*
X12336729Y-15607150D01*
X12336729Y-15416674D02*
X12355777Y-15407150D01*
X12355777Y-15407150D02*
X12393872Y-15407150D01*
X12393872Y-15407150D02*
X12412920Y-15416674D01*
X12412920Y-15416674D02*
X12422444Y-15426197D01*
X12422444Y-15426197D02*
X12431967Y-15445245D01*
X12431967Y-15445245D02*
X12431967Y-15502388D01*
X12431967Y-15502388D02*
X12422444Y-15521436D01*
X12422444Y-15521436D02*
X12412920Y-15530959D01*
X12412920Y-15530959D02*
X12393872Y-15540483D01*
X12393872Y-15540483D02*
X12355777Y-15540483D01*
X12355777Y-15540483D02*
X12336729Y-15530959D01*
X12546253Y-15540483D02*
X12527206Y-15530959D01*
X12527206Y-15530959D02*
X12517682Y-15511912D01*
X12517682Y-15511912D02*
X12517682Y-15340483D01*
X12708158Y-15540483D02*
X12708158Y-15435721D01*
X12708158Y-15435721D02*
X12698634Y-15416674D01*
X12698634Y-15416674D02*
X12679587Y-15407150D01*
X12679587Y-15407150D02*
X12641491Y-15407150D01*
X12641491Y-15407150D02*
X12622444Y-15416674D01*
X12708158Y-15530959D02*
X12689110Y-15540483D01*
X12689110Y-15540483D02*
X12641491Y-15540483D01*
X12641491Y-15540483D02*
X12622444Y-15530959D01*
X12622444Y-15530959D02*
X12612920Y-15511912D01*
X12612920Y-15511912D02*
X12612920Y-15492864D01*
X12612920Y-15492864D02*
X12622444Y-15473817D01*
X12622444Y-15473817D02*
X12641491Y-15464293D01*
X12641491Y-15464293D02*
X12689110Y-15464293D01*
X12689110Y-15464293D02*
X12708158Y-15454769D01*
X12774825Y-15407150D02*
X12851015Y-15407150D01*
X12803396Y-15340483D02*
X12803396Y-15511912D01*
X12803396Y-15511912D02*
X12812920Y-15530959D01*
X12812920Y-15530959D02*
X12831967Y-15540483D01*
X12831967Y-15540483D02*
X12851015Y-15540483D01*
X12993872Y-15530959D02*
X12974825Y-15540483D01*
X12974825Y-15540483D02*
X12936729Y-15540483D01*
X12936729Y-15540483D02*
X12917682Y-15530959D01*
X12917682Y-15530959D02*
X12908158Y-15511912D01*
X12908158Y-15511912D02*
X12908158Y-15435721D01*
X12908158Y-15435721D02*
X12917682Y-15416674D01*
X12917682Y-15416674D02*
X12936729Y-15407150D01*
X12936729Y-15407150D02*
X12974825Y-15407150D01*
X12974825Y-15407150D02*
X12993872Y-15416674D01*
X12993872Y-15416674D02*
X13003396Y-15435721D01*
X13003396Y-15435721D02*
X13003396Y-15454769D01*
X13003396Y-15454769D02*
X12908158Y-15473817D01*
X13174825Y-15540483D02*
X13174825Y-15340483D01*
X13174825Y-15530959D02*
X13155777Y-15540483D01*
X13155777Y-15540483D02*
X13117682Y-15540483D01*
X13117682Y-15540483D02*
X13098634Y-15530959D01*
X13098634Y-15530959D02*
X13089110Y-15521436D01*
X13089110Y-15521436D02*
X13079587Y-15502388D01*
X13079587Y-15502388D02*
X13079587Y-15445245D01*
X13079587Y-15445245D02*
X13089110Y-15426197D01*
X13089110Y-15426197D02*
X13098634Y-15416674D01*
X13098634Y-15416674D02*
X13117682Y-15407150D01*
X13117682Y-15407150D02*
X13155777Y-15407150D01*
X13155777Y-15407150D02*
X13174825Y-15416674D01*
X13251015Y-15616674D02*
X13260539Y-15607150D01*
X13260539Y-15607150D02*
X13279587Y-15578578D01*
X13279587Y-15578578D02*
X13289110Y-15559531D01*
X13289110Y-15559531D02*
X13298634Y-15530959D01*
X13298634Y-15530959D02*
X13308158Y-15483340D01*
X13308158Y-15483340D02*
X13308158Y-15445245D01*
X13308158Y-15445245D02*
X13298634Y-15397626D01*
X13298634Y-15397626D02*
X13289110Y-15369055D01*
X13289110Y-15369055D02*
X13279587Y-15350007D01*
X13279587Y-15350007D02*
X13260539Y-15321436D01*
X13260539Y-15321436D02*
X13251015Y-15311912D01*
M02*
