G04 #@! TF.GenerationSoftware,KiCad,Pcbnew,7.0.8*
G04 #@! TF.CreationDate,2023-10-22T17:40:02-04:00*
G04 #@! TF.ProjectId,RGB-Panel,5247422d-5061-46e6-956c-2e6b69636164,V2.6*
G04 #@! TF.SameCoordinates,Original*
G04 #@! TF.FileFunction,Legend,Top*
G04 #@! TF.FilePolarity,Positive*
%FSLAX46Y46*%
G04 Gerber Fmt 4.6, Leading zero omitted, Abs format (unit mm)*
G04 Created by KiCad (PCBNEW 7.0.8) date 2023-10-22 17:40:02*
%MOMM*%
%LPD*%
G01*
G04 APERTURE LIST*
G04 Aperture macros list*
%AMRoundRect*
0 Rectangle with rounded corners*
0 $1 Rounding radius*
0 $2 $3 $4 $5 $6 $7 $8 $9 X,Y pos of 4 corners*
0 Add a 4 corners polygon primitive as box body*
4,1,4,$2,$3,$4,$5,$6,$7,$8,$9,$2,$3,0*
0 Add four circle primitives for the rounded corners*
1,1,$1+$1,$2,$3*
1,1,$1+$1,$4,$5*
1,1,$1+$1,$6,$7*
1,1,$1+$1,$8,$9*
0 Add four rect primitives between the rounded corners*
20,1,$1+$1,$2,$3,$4,$5,0*
20,1,$1+$1,$4,$5,$6,$7,0*
20,1,$1+$1,$6,$7,$8,$9,0*
20,1,$1+$1,$8,$9,$2,$3,0*%
G04 Aperture macros list end*
%ADD10C,0.300000*%
%ADD11C,0.100000*%
%ADD12C,0.120000*%
%ADD13C,0.500000*%
%ADD14R,0.500000X0.500000*%
%ADD15RoundRect,0.225000X-0.250000X0.225000X-0.250000X-0.225000X0.250000X-0.225000X0.250000X0.225000X0*%
%ADD16C,3.000000*%
%ADD17RoundRect,0.135000X-0.135000X-0.185000X0.135000X-0.185000X0.135000X0.185000X-0.135000X0.185000X0*%
G04 APERTURE END LIST*
D10*
X97971425Y-22178328D02*
X97971425Y-23249757D01*
X97971425Y-23249757D02*
X97899996Y-23464042D01*
X97899996Y-23464042D02*
X97757139Y-23606900D01*
X97757139Y-23606900D02*
X97542853Y-23678328D01*
X97542853Y-23678328D02*
X97399996Y-23678328D01*
X99399996Y-23678328D02*
X98685710Y-23678328D01*
X98685710Y-23678328D02*
X98685710Y-22178328D01*
X100757139Y-23535471D02*
X100685711Y-23606900D01*
X100685711Y-23606900D02*
X100471425Y-23678328D01*
X100471425Y-23678328D02*
X100328568Y-23678328D01*
X100328568Y-23678328D02*
X100114282Y-23606900D01*
X100114282Y-23606900D02*
X99971425Y-23464042D01*
X99971425Y-23464042D02*
X99899996Y-23321185D01*
X99899996Y-23321185D02*
X99828568Y-23035471D01*
X99828568Y-23035471D02*
X99828568Y-22821185D01*
X99828568Y-22821185D02*
X99899996Y-22535471D01*
X99899996Y-22535471D02*
X99971425Y-22392614D01*
X99971425Y-22392614D02*
X100114282Y-22249757D01*
X100114282Y-22249757D02*
X100328568Y-22178328D01*
X100328568Y-22178328D02*
X100471425Y-22178328D01*
X100471425Y-22178328D02*
X100685711Y-22249757D01*
X100685711Y-22249757D02*
X100757139Y-22321185D01*
X101828568Y-22178328D02*
X101828568Y-23249757D01*
X101828568Y-23249757D02*
X101757139Y-23464042D01*
X101757139Y-23464042D02*
X101614282Y-23606900D01*
X101614282Y-23606900D02*
X101399996Y-23678328D01*
X101399996Y-23678328D02*
X101257139Y-23678328D01*
X103257139Y-23678328D02*
X102542853Y-23678328D01*
X102542853Y-23678328D02*
X102542853Y-22178328D01*
X104614282Y-23535471D02*
X104542854Y-23606900D01*
X104542854Y-23606900D02*
X104328568Y-23678328D01*
X104328568Y-23678328D02*
X104185711Y-23678328D01*
X104185711Y-23678328D02*
X103971425Y-23606900D01*
X103971425Y-23606900D02*
X103828568Y-23464042D01*
X103828568Y-23464042D02*
X103757139Y-23321185D01*
X103757139Y-23321185D02*
X103685711Y-23035471D01*
X103685711Y-23035471D02*
X103685711Y-22821185D01*
X103685711Y-22821185D02*
X103757139Y-22535471D01*
X103757139Y-22535471D02*
X103828568Y-22392614D01*
X103828568Y-22392614D02*
X103971425Y-22249757D01*
X103971425Y-22249757D02*
X104185711Y-22178328D01*
X104185711Y-22178328D02*
X104328568Y-22178328D01*
X104328568Y-22178328D02*
X104542854Y-22249757D01*
X104542854Y-22249757D02*
X104614282Y-22321185D01*
X105685711Y-22178328D02*
X105685711Y-23249757D01*
X105685711Y-23249757D02*
X105614282Y-23464042D01*
X105614282Y-23464042D02*
X105471425Y-23606900D01*
X105471425Y-23606900D02*
X105257139Y-23678328D01*
X105257139Y-23678328D02*
X105114282Y-23678328D01*
X107114282Y-23678328D02*
X106399996Y-23678328D01*
X106399996Y-23678328D02*
X106399996Y-22178328D01*
X108471425Y-23535471D02*
X108399997Y-23606900D01*
X108399997Y-23606900D02*
X108185711Y-23678328D01*
X108185711Y-23678328D02*
X108042854Y-23678328D01*
X108042854Y-23678328D02*
X107828568Y-23606900D01*
X107828568Y-23606900D02*
X107685711Y-23464042D01*
X107685711Y-23464042D02*
X107614282Y-23321185D01*
X107614282Y-23321185D02*
X107542854Y-23035471D01*
X107542854Y-23035471D02*
X107542854Y-22821185D01*
X107542854Y-22821185D02*
X107614282Y-22535471D01*
X107614282Y-22535471D02*
X107685711Y-22392614D01*
X107685711Y-22392614D02*
X107828568Y-22249757D01*
X107828568Y-22249757D02*
X108042854Y-22178328D01*
X108042854Y-22178328D02*
X108185711Y-22178328D01*
X108185711Y-22178328D02*
X108399997Y-22249757D01*
X108399997Y-22249757D02*
X108471425Y-22321185D01*
X109542854Y-22178328D02*
X109542854Y-23249757D01*
X109542854Y-23249757D02*
X109471425Y-23464042D01*
X109471425Y-23464042D02*
X109328568Y-23606900D01*
X109328568Y-23606900D02*
X109114282Y-23678328D01*
X109114282Y-23678328D02*
X108971425Y-23678328D01*
X110971425Y-23678328D02*
X110257139Y-23678328D01*
X110257139Y-23678328D02*
X110257139Y-22178328D01*
X112328568Y-23535471D02*
X112257140Y-23606900D01*
X112257140Y-23606900D02*
X112042854Y-23678328D01*
X112042854Y-23678328D02*
X111899997Y-23678328D01*
X111899997Y-23678328D02*
X111685711Y-23606900D01*
X111685711Y-23606900D02*
X111542854Y-23464042D01*
X111542854Y-23464042D02*
X111471425Y-23321185D01*
X111471425Y-23321185D02*
X111399997Y-23035471D01*
X111399997Y-23035471D02*
X111399997Y-22821185D01*
X111399997Y-22821185D02*
X111471425Y-22535471D01*
X111471425Y-22535471D02*
X111542854Y-22392614D01*
X111542854Y-22392614D02*
X111685711Y-22249757D01*
X111685711Y-22249757D02*
X111899997Y-22178328D01*
X111899997Y-22178328D02*
X112042854Y-22178328D01*
X112042854Y-22178328D02*
X112257140Y-22249757D01*
X112257140Y-22249757D02*
X112328568Y-22321185D01*
D11*
X126748006Y-74942000D02*
G75*
G03*
X126748006Y-74942000I-25000J0D01*
G01*
X123325006Y-88634000D02*
G75*
G03*
X123325006Y-88634000I-25000J0D01*
G01*
X91748006Y-122864000D02*
G75*
G03*
X91748006Y-122864000I-25000J0D01*
G01*
X88325006Y-133133000D02*
G75*
G03*
X88325006Y-133133000I-25000J0D01*
G01*
D12*
X86227899Y-38073312D02*
X86227899Y-38354472D01*
X85207899Y-38073312D02*
X85207899Y-38354472D01*
D11*
X116479006Y-126287000D02*
G75*
G03*
X116479006Y-126287000I-25000J0D01*
G01*
X91748006Y-85211000D02*
G75*
G03*
X91748006Y-85211000I-25000J0D01*
G01*
X88325006Y-50981000D02*
G75*
G03*
X88325006Y-50981000I-25000J0D01*
G01*
X81479006Y-81788000D02*
G75*
G03*
X81479006Y-81788000I-25000J0D01*
G01*
X113056006Y-85211000D02*
G75*
G03*
X113056006Y-85211000I-25000J0D01*
G01*
X78056006Y-50981000D02*
G75*
G03*
X78056006Y-50981000I-25000J0D01*
G01*
X78056006Y-105749000D02*
G75*
G03*
X78056006Y-105749000I-25000J0D01*
G01*
X91748006Y-102326000D02*
G75*
G03*
X91748006Y-102326000I-25000J0D01*
G01*
X133594006Y-136556000D02*
G75*
G03*
X133594006Y-136556000I-25000J0D01*
G01*
X91748006Y-50981000D02*
G75*
G03*
X91748006Y-50981000I-25000J0D01*
G01*
X102017006Y-119441000D02*
G75*
G03*
X102017006Y-119441000I-25000J0D01*
G01*
X116479006Y-37289000D02*
G75*
G03*
X116479006Y-37289000I-25000J0D01*
G01*
X116479006Y-40712000D02*
G75*
G03*
X116479006Y-40712000I-25000J0D01*
G01*
X98594006Y-78365000D02*
G75*
G03*
X98594006Y-78365000I-25000J0D01*
G01*
X130171006Y-102326000D02*
G75*
G03*
X130171006Y-102326000I-25000J0D01*
G01*
D12*
X86227899Y-113379312D02*
X86227899Y-113660472D01*
X85207899Y-113379312D02*
X85207899Y-113660472D01*
D11*
X95171006Y-85211000D02*
G75*
G03*
X95171006Y-85211000I-25000J0D01*
G01*
X133594006Y-129710000D02*
G75*
G03*
X133594006Y-129710000I-25000J0D01*
G01*
X91748006Y-126287000D02*
G75*
G03*
X91748006Y-126287000I-25000J0D01*
G01*
X74633006Y-44135000D02*
G75*
G03*
X74633006Y-44135000I-25000J0D01*
G01*
X95171006Y-37289000D02*
G75*
G03*
X95171006Y-37289000I-25000J0D01*
G01*
X74633006Y-119441000D02*
G75*
G03*
X74633006Y-119441000I-25000J0D01*
G01*
X74633006Y-102326000D02*
G75*
G03*
X74633006Y-102326000I-25000J0D01*
G01*
X126748006Y-112595000D02*
G75*
G03*
X126748006Y-112595000I-25000J0D01*
G01*
X119902006Y-129710000D02*
G75*
G03*
X119902006Y-129710000I-25000J0D01*
G01*
X123325006Y-122864000D02*
G75*
G03*
X123325006Y-122864000I-25000J0D01*
G01*
X78056006Y-92057000D02*
G75*
G03*
X78056006Y-92057000I-25000J0D01*
G01*
X126748006Y-95480000D02*
G75*
G03*
X126748006Y-95480000I-25000J0D01*
G01*
X84902006Y-40712000D02*
G75*
G03*
X84902006Y-40712000I-25000J0D01*
G01*
D12*
X86227899Y-127071312D02*
X86227899Y-127352472D01*
X85207899Y-127071312D02*
X85207899Y-127352472D01*
D11*
X137017006Y-126287000D02*
G75*
G03*
X137017006Y-126287000I-25000J0D01*
G01*
X91748006Y-30443000D02*
G75*
G03*
X91748006Y-30443000I-25000J0D01*
G01*
X130171006Y-95480000D02*
G75*
G03*
X130171006Y-95480000I-25000J0D01*
G01*
X137017006Y-133133000D02*
G75*
G03*
X137017006Y-133133000I-25000J0D01*
G01*
X81479006Y-78365000D02*
G75*
G03*
X81479006Y-78365000I-25000J0D01*
G01*
X91748006Y-57827000D02*
G75*
G03*
X91748006Y-57827000I-25000J0D01*
G01*
X133594006Y-50981000D02*
G75*
G03*
X133594006Y-50981000I-25000J0D01*
G01*
X98594006Y-92057000D02*
G75*
G03*
X98594006Y-92057000I-25000J0D01*
G01*
X123325006Y-71519000D02*
G75*
G03*
X123325006Y-71519000I-25000J0D01*
G01*
X123325006Y-116018000D02*
G75*
G03*
X123325006Y-116018000I-25000J0D01*
G01*
X88325006Y-81788000D02*
G75*
G03*
X88325006Y-81788000I-25000J0D01*
G01*
X126748006Y-68096000D02*
G75*
G03*
X126748006Y-68096000I-25000J0D01*
G01*
X74633006Y-88634000D02*
G75*
G03*
X74633006Y-88634000I-25000J0D01*
G01*
X91748006Y-112595000D02*
G75*
G03*
X91748006Y-112595000I-25000J0D01*
G01*
X130171006Y-68096000D02*
G75*
G03*
X130171006Y-68096000I-25000J0D01*
G01*
X74633006Y-47558000D02*
G75*
G03*
X74633006Y-47558000I-25000J0D01*
G01*
X109633006Y-30443000D02*
G75*
G03*
X109633006Y-30443000I-25000J0D01*
G01*
X130171006Y-122864000D02*
G75*
G03*
X130171006Y-122864000I-25000J0D01*
G01*
X113056006Y-81788000D02*
G75*
G03*
X113056006Y-81788000I-25000J0D01*
G01*
X116479006Y-57827000D02*
G75*
G03*
X116479006Y-57827000I-25000J0D01*
G01*
X126748006Y-122864000D02*
G75*
G03*
X126748006Y-122864000I-25000J0D01*
G01*
X119902006Y-85211000D02*
G75*
G03*
X119902006Y-85211000I-25000J0D01*
G01*
X137017006Y-85211000D02*
G75*
G03*
X137017006Y-85211000I-25000J0D01*
G01*
X119902006Y-116018000D02*
G75*
G03*
X119902006Y-116018000I-25000J0D01*
G01*
X84902006Y-95480000D02*
G75*
G03*
X84902006Y-95480000I-25000J0D01*
G01*
X98594006Y-40712000D02*
G75*
G03*
X98594006Y-40712000I-25000J0D01*
G01*
D12*
X121227899Y-92841312D02*
X121227899Y-93122472D01*
X120207899Y-92841312D02*
X120207899Y-93122472D01*
X86227899Y-72303312D02*
X86227899Y-72584472D01*
X85207899Y-72303312D02*
X85207899Y-72584472D01*
D11*
X113056006Y-74942000D02*
G75*
G03*
X113056006Y-74942000I-25000J0D01*
G01*
X133594006Y-78365000D02*
G75*
G03*
X133594006Y-78365000I-25000J0D01*
G01*
X123325006Y-95480000D02*
G75*
G03*
X123325006Y-95480000I-25000J0D01*
G01*
X119902006Y-136556000D02*
G75*
G03*
X119902006Y-136556000I-25000J0D01*
G01*
D12*
X86227899Y-58611312D02*
X86227899Y-58892472D01*
X85207899Y-58611312D02*
X85207899Y-58892472D01*
D11*
X113056006Y-37289000D02*
G75*
G03*
X113056006Y-37289000I-25000J0D01*
G01*
X98594006Y-33866000D02*
G75*
G03*
X98594006Y-33866000I-25000J0D01*
G01*
X98594006Y-112595000D02*
G75*
G03*
X98594006Y-112595000I-25000J0D01*
G01*
X116479006Y-112595000D02*
G75*
G03*
X116479006Y-112595000I-25000J0D01*
G01*
X95171006Y-129710000D02*
G75*
G03*
X95171006Y-129710000I-25000J0D01*
G01*
X119902006Y-68096000D02*
G75*
G03*
X119902006Y-68096000I-25000J0D01*
G01*
X95171006Y-98903000D02*
G75*
G03*
X95171006Y-98903000I-25000J0D01*
G01*
D12*
X86227899Y-44919312D02*
X86227899Y-45200472D01*
X85207899Y-44919312D02*
X85207899Y-45200472D01*
D11*
X95171006Y-68096000D02*
G75*
G03*
X95171006Y-68096000I-25000J0D01*
G01*
X123325006Y-30443000D02*
G75*
G03*
X123325006Y-30443000I-25000J0D01*
G01*
X116479006Y-136556000D02*
G75*
G03*
X116479006Y-136556000I-25000J0D01*
G01*
X137017006Y-64673000D02*
G75*
G03*
X137017006Y-64673000I-25000J0D01*
G01*
X95171006Y-109172000D02*
G75*
G03*
X95171006Y-109172000I-25000J0D01*
G01*
X137017006Y-88634000D02*
G75*
G03*
X137017006Y-88634000I-25000J0D01*
G01*
D12*
X121227899Y-79149312D02*
X121227899Y-79430472D01*
X120207899Y-79149312D02*
X120207899Y-79430472D01*
D11*
X91748006Y-61250000D02*
G75*
G03*
X91748006Y-61250000I-25000J0D01*
G01*
X130171006Y-74942000D02*
G75*
G03*
X130171006Y-74942000I-25000J0D01*
G01*
X95171006Y-30443000D02*
G75*
G03*
X95171006Y-30443000I-25000J0D01*
G01*
X133594006Y-102326000D02*
G75*
G03*
X133594006Y-102326000I-25000J0D01*
G01*
D12*
X121227899Y-106533312D02*
X121227899Y-106814472D01*
X120207899Y-106533312D02*
X120207899Y-106814472D01*
D11*
X133594006Y-95480000D02*
G75*
G03*
X133594006Y-95480000I-25000J0D01*
G01*
X133594006Y-57827000D02*
G75*
G03*
X133594006Y-57827000I-25000J0D01*
G01*
X109633006Y-85211000D02*
G75*
G03*
X109633006Y-85211000I-25000J0D01*
G01*
X113056006Y-95480000D02*
G75*
G03*
X113056006Y-95480000I-25000J0D01*
G01*
X74633006Y-78365000D02*
G75*
G03*
X74633006Y-78365000I-25000J0D01*
G01*
X78056006Y-129710000D02*
G75*
G03*
X78056006Y-129710000I-25000J0D01*
G01*
X133594006Y-37289000D02*
G75*
G03*
X133594006Y-37289000I-25000J0D01*
G01*
X119902006Y-95480000D02*
G75*
G03*
X119902006Y-95480000I-25000J0D01*
G01*
X137017006Y-61250000D02*
G75*
G03*
X137017006Y-61250000I-25000J0D01*
G01*
X116479006Y-61250000D02*
G75*
G03*
X116479006Y-61250000I-25000J0D01*
G01*
X88325006Y-54404000D02*
G75*
G03*
X88325006Y-54404000I-25000J0D01*
G01*
X98594006Y-88634000D02*
G75*
G03*
X98594006Y-88634000I-25000J0D01*
G01*
X116479006Y-116018000D02*
G75*
G03*
X116479006Y-116018000I-25000J0D01*
G01*
X95171006Y-88634000D02*
G75*
G03*
X95171006Y-88634000I-25000J0D01*
G01*
X74633006Y-109172000D02*
G75*
G03*
X74633006Y-109172000I-25000J0D01*
G01*
X123325006Y-85211000D02*
G75*
G03*
X123325006Y-85211000I-25000J0D01*
G01*
X98594006Y-85211000D02*
G75*
G03*
X98594006Y-85211000I-25000J0D01*
G01*
X130171006Y-119441000D02*
G75*
G03*
X130171006Y-119441000I-25000J0D01*
G01*
D12*
X121227899Y-65457312D02*
X121227899Y-65738472D01*
X120207899Y-65457312D02*
X120207899Y-65738472D01*
D11*
X116479006Y-92057000D02*
G75*
G03*
X116479006Y-92057000I-25000J0D01*
G01*
X109633006Y-68096000D02*
G75*
G03*
X109633006Y-68096000I-25000J0D01*
G01*
X91748006Y-109172000D02*
G75*
G03*
X91748006Y-109172000I-25000J0D01*
G01*
X113056006Y-98903000D02*
G75*
G03*
X113056006Y-98903000I-25000J0D01*
G01*
X133594006Y-119441000D02*
G75*
G03*
X133594006Y-119441000I-25000J0D01*
G01*
X84902006Y-37289000D02*
G75*
G03*
X84902006Y-37289000I-25000J0D01*
G01*
X78056006Y-119441000D02*
G75*
G03*
X78056006Y-119441000I-25000J0D01*
G01*
X78056006Y-54404000D02*
G75*
G03*
X78056006Y-54404000I-25000J0D01*
G01*
X119902006Y-71519000D02*
G75*
G03*
X119902006Y-71519000I-25000J0D01*
G01*
D12*
X121227899Y-72303312D02*
X121227899Y-72584472D01*
X120207899Y-72303312D02*
X120207899Y-72584472D01*
D11*
X81479006Y-126287000D02*
G75*
G03*
X81479006Y-126287000I-25000J0D01*
G01*
X113056006Y-88634000D02*
G75*
G03*
X113056006Y-88634000I-25000J0D01*
G01*
X116479006Y-133133000D02*
G75*
G03*
X116479006Y-133133000I-25000J0D01*
G01*
X81479006Y-44135000D02*
G75*
G03*
X81479006Y-44135000I-25000J0D01*
G01*
X109633006Y-116018000D02*
G75*
G03*
X109633006Y-116018000I-25000J0D01*
G01*
X102017006Y-126287000D02*
G75*
G03*
X102017006Y-126287000I-25000J0D01*
G01*
X88325006Y-85211000D02*
G75*
G03*
X88325006Y-85211000I-25000J0D01*
G01*
X119902006Y-57827000D02*
G75*
G03*
X119902006Y-57827000I-25000J0D01*
G01*
X113056006Y-61250000D02*
G75*
G03*
X113056006Y-61250000I-25000J0D01*
G01*
X84902006Y-30443000D02*
G75*
G03*
X84902006Y-30443000I-25000J0D01*
G01*
X130171006Y-126287000D02*
G75*
G03*
X130171006Y-126287000I-25000J0D01*
G01*
X84902006Y-133133000D02*
G75*
G03*
X84902006Y-133133000I-25000J0D01*
G01*
X116479006Y-95480000D02*
G75*
G03*
X116479006Y-95480000I-25000J0D01*
G01*
X113056006Y-105749000D02*
G75*
G03*
X113056006Y-105749000I-25000J0D01*
G01*
X84902006Y-64673000D02*
G75*
G03*
X84902006Y-64673000I-25000J0D01*
G01*
X102017006Y-37289000D02*
G75*
G03*
X102017006Y-37289000I-25000J0D01*
G01*
X137017006Y-102326000D02*
G75*
G03*
X137017006Y-102326000I-25000J0D01*
G01*
X126748006Y-64673000D02*
G75*
G03*
X126748006Y-64673000I-25000J0D01*
G01*
X113056006Y-78365000D02*
G75*
G03*
X113056006Y-78365000I-25000J0D01*
G01*
X113056006Y-136556000D02*
G75*
G03*
X113056006Y-136556000I-25000J0D01*
G01*
X91748006Y-95480000D02*
G75*
G03*
X91748006Y-95480000I-25000J0D01*
G01*
X130171006Y-44135000D02*
G75*
G03*
X130171006Y-44135000I-25000J0D01*
G01*
X98594006Y-95480000D02*
G75*
G03*
X98594006Y-95480000I-25000J0D01*
G01*
X88325006Y-57827000D02*
G75*
G03*
X88325006Y-57827000I-25000J0D01*
G01*
X95171006Y-74942000D02*
G75*
G03*
X95171006Y-74942000I-25000J0D01*
G01*
X130171006Y-54404000D02*
G75*
G03*
X130171006Y-54404000I-25000J0D01*
G01*
X78056006Y-102326000D02*
G75*
G03*
X78056006Y-102326000I-25000J0D01*
G01*
X81479006Y-61250000D02*
G75*
G03*
X81479006Y-61250000I-25000J0D01*
G01*
X81479006Y-109172000D02*
G75*
G03*
X81479006Y-109172000I-25000J0D01*
G01*
X95171006Y-92057000D02*
G75*
G03*
X95171006Y-92057000I-25000J0D01*
G01*
D12*
X121227899Y-127071312D02*
X121227899Y-127352472D01*
X120207899Y-127071312D02*
X120207899Y-127352472D01*
X121227899Y-44919312D02*
X121227899Y-45200472D01*
X120207899Y-44919312D02*
X120207899Y-45200472D01*
D11*
X78056006Y-122864000D02*
G75*
G03*
X78056006Y-122864000I-25000J0D01*
G01*
X123325006Y-133133000D02*
G75*
G03*
X123325006Y-133133000I-25000J0D01*
G01*
X119902006Y-88634000D02*
G75*
G03*
X119902006Y-88634000I-25000J0D01*
G01*
X137017006Y-105749000D02*
G75*
G03*
X137017006Y-105749000I-25000J0D01*
G01*
X116479006Y-105749000D02*
G75*
G03*
X116479006Y-105749000I-25000J0D01*
G01*
X91748006Y-71519000D02*
G75*
G03*
X91748006Y-71519000I-25000J0D01*
G01*
X98594006Y-133133000D02*
G75*
G03*
X98594006Y-133133000I-25000J0D01*
G01*
X74633006Y-61250000D02*
G75*
G03*
X74633006Y-61250000I-25000J0D01*
G01*
X116479006Y-74942000D02*
G75*
G03*
X116479006Y-74942000I-25000J0D01*
G01*
X109633006Y-136556000D02*
G75*
G03*
X109633006Y-136556000I-25000J0D01*
G01*
X123325006Y-47558000D02*
G75*
G03*
X123325006Y-47558000I-25000J0D01*
G01*
X91748006Y-136556000D02*
G75*
G03*
X91748006Y-136556000I-25000J0D01*
G01*
X137017006Y-50981000D02*
G75*
G03*
X137017006Y-50981000I-25000J0D01*
G01*
X123325006Y-92057000D02*
G75*
G03*
X123325006Y-92057000I-25000J0D01*
G01*
X137017006Y-30443000D02*
G75*
G03*
X137017006Y-30443000I-25000J0D01*
G01*
X109633006Y-88634000D02*
G75*
G03*
X109633006Y-88634000I-25000J0D01*
G01*
X123325006Y-57827000D02*
G75*
G03*
X123325006Y-57827000I-25000J0D01*
G01*
X84902006Y-88634000D02*
G75*
G03*
X84902006Y-88634000I-25000J0D01*
G01*
X91748006Y-37289000D02*
G75*
G03*
X91748006Y-37289000I-25000J0D01*
G01*
X84902006Y-109172000D02*
G75*
G03*
X84902006Y-109172000I-25000J0D01*
G01*
X102017006Y-88634000D02*
G75*
G03*
X102017006Y-88634000I-25000J0D01*
G01*
X84902006Y-122864000D02*
G75*
G03*
X84902006Y-122864000I-25000J0D01*
G01*
X119902006Y-133133000D02*
G75*
G03*
X119902006Y-133133000I-25000J0D01*
G01*
X113056006Y-92057000D02*
G75*
G03*
X113056006Y-92057000I-25000J0D01*
G01*
X78056006Y-78365000D02*
G75*
G03*
X78056006Y-78365000I-25000J0D01*
G01*
D12*
X101349258Y-79262392D02*
X101656540Y-79262392D01*
X101349258Y-80022392D02*
X101656540Y-80022392D01*
D11*
X133594006Y-40712000D02*
G75*
G03*
X133594006Y-40712000I-25000J0D01*
G01*
X84902006Y-54404000D02*
G75*
G03*
X84902006Y-54404000I-25000J0D01*
G01*
X133594006Y-112595000D02*
G75*
G03*
X133594006Y-112595000I-25000J0D01*
G01*
X116479006Y-102326000D02*
G75*
G03*
X116479006Y-102326000I-25000J0D01*
G01*
X123325006Y-109172000D02*
G75*
G03*
X123325006Y-109172000I-25000J0D01*
G01*
X84902006Y-92057000D02*
G75*
G03*
X84902006Y-92057000I-25000J0D01*
G01*
X126748006Y-109172000D02*
G75*
G03*
X126748006Y-109172000I-25000J0D01*
G01*
X88325006Y-112595000D02*
G75*
G03*
X88325006Y-112595000I-25000J0D01*
G01*
X123325006Y-78365000D02*
G75*
G03*
X123325006Y-78365000I-25000J0D01*
G01*
X78056006Y-40712000D02*
G75*
G03*
X78056006Y-40712000I-25000J0D01*
G01*
X109633006Y-119441000D02*
G75*
G03*
X109633006Y-119441000I-25000J0D01*
G01*
X81479006Y-74942000D02*
G75*
G03*
X81479006Y-74942000I-25000J0D01*
G01*
X113056006Y-30443000D02*
G75*
G03*
X113056006Y-30443000I-25000J0D01*
G01*
X102017006Y-122864000D02*
G75*
G03*
X102017006Y-122864000I-25000J0D01*
G01*
D12*
X101356365Y-38163000D02*
X101663647Y-38163000D01*
X101356365Y-38923000D02*
X101663647Y-38923000D01*
D11*
X78056006Y-33866000D02*
G75*
G03*
X78056006Y-33866000I-25000J0D01*
G01*
X78056006Y-71519000D02*
G75*
G03*
X78056006Y-71519000I-25000J0D01*
G01*
X74633006Y-133133000D02*
G75*
G03*
X74633006Y-133133000I-25000J0D01*
G01*
X126748006Y-71519000D02*
G75*
G03*
X126748006Y-71519000I-25000J0D01*
G01*
X113056006Y-122864000D02*
G75*
G03*
X113056006Y-122864000I-25000J0D01*
G01*
X126748006Y-33866000D02*
G75*
G03*
X126748006Y-33866000I-25000J0D01*
G01*
X78056006Y-109172000D02*
G75*
G03*
X78056006Y-109172000I-25000J0D01*
G01*
X116479006Y-119441000D02*
G75*
G03*
X116479006Y-119441000I-25000J0D01*
G01*
X119902006Y-33866000D02*
G75*
G03*
X119902006Y-33866000I-25000J0D01*
G01*
X84902006Y-81788000D02*
G75*
G03*
X84902006Y-81788000I-25000J0D01*
G01*
X123325006Y-112595000D02*
G75*
G03*
X123325006Y-112595000I-25000J0D01*
G01*
X102017006Y-112595000D02*
G75*
G03*
X102017006Y-112595000I-25000J0D01*
G01*
X130171006Y-71519000D02*
G75*
G03*
X130171006Y-71519000I-25000J0D01*
G01*
X113056006Y-50981000D02*
G75*
G03*
X113056006Y-50981000I-25000J0D01*
G01*
X102017006Y-74942000D02*
G75*
G03*
X102017006Y-74942000I-25000J0D01*
G01*
X95171006Y-50981000D02*
G75*
G03*
X95171006Y-50981000I-25000J0D01*
G01*
X78056006Y-68096000D02*
G75*
G03*
X78056006Y-68096000I-25000J0D01*
G01*
X126748006Y-88634000D02*
G75*
G03*
X126748006Y-88634000I-25000J0D01*
G01*
X102017006Y-92057000D02*
G75*
G03*
X102017006Y-92057000I-25000J0D01*
G01*
X78056006Y-85211000D02*
G75*
G03*
X78056006Y-85211000I-25000J0D01*
G01*
X119902006Y-92057000D02*
G75*
G03*
X119902006Y-92057000I-25000J0D01*
G01*
X109633006Y-98903000D02*
G75*
G03*
X109633006Y-98903000I-25000J0D01*
G01*
X116479006Y-122864000D02*
G75*
G03*
X116479006Y-122864000I-25000J0D01*
G01*
X84902006Y-61250000D02*
G75*
G03*
X84902006Y-61250000I-25000J0D01*
G01*
X88325006Y-78365000D02*
G75*
G03*
X88325006Y-78365000I-25000J0D01*
G01*
X88325006Y-88634000D02*
G75*
G03*
X88325006Y-88634000I-25000J0D01*
G01*
X123325006Y-61250000D02*
G75*
G03*
X123325006Y-61250000I-25000J0D01*
G01*
X74633006Y-50981000D02*
G75*
G03*
X74633006Y-50981000I-25000J0D01*
G01*
X113056006Y-64673000D02*
G75*
G03*
X113056006Y-64673000I-25000J0D01*
G01*
X109633006Y-122864000D02*
G75*
G03*
X109633006Y-122864000I-25000J0D01*
G01*
X81479006Y-71519000D02*
G75*
G03*
X81479006Y-71519000I-25000J0D01*
G01*
X81479006Y-30443000D02*
G75*
G03*
X81479006Y-30443000I-25000J0D01*
G01*
X88325006Y-30443000D02*
G75*
G03*
X88325006Y-30443000I-25000J0D01*
G01*
X88325006Y-136556000D02*
G75*
G03*
X88325006Y-136556000I-25000J0D01*
G01*
D12*
X121227899Y-133917312D02*
X121227899Y-134198472D01*
X120207899Y-133917312D02*
X120207899Y-134198472D01*
D11*
X91748006Y-54404000D02*
G75*
G03*
X91748006Y-54404000I-25000J0D01*
G01*
X74633006Y-129710000D02*
G75*
G03*
X74633006Y-129710000I-25000J0D01*
G01*
X78056006Y-37289000D02*
G75*
G03*
X78056006Y-37289000I-25000J0D01*
G01*
X88325006Y-40712000D02*
G75*
G03*
X88325006Y-40712000I-25000J0D01*
G01*
X119902006Y-40712000D02*
G75*
G03*
X119902006Y-40712000I-25000J0D01*
G01*
X88325006Y-68096000D02*
G75*
G03*
X88325006Y-68096000I-25000J0D01*
G01*
X88325006Y-71519000D02*
G75*
G03*
X88325006Y-71519000I-25000J0D01*
G01*
X102017006Y-68096000D02*
G75*
G03*
X102017006Y-68096000I-25000J0D01*
G01*
X137017006Y-54404000D02*
G75*
G03*
X137017006Y-54404000I-25000J0D01*
G01*
X123325006Y-105749000D02*
G75*
G03*
X123325006Y-105749000I-25000J0D01*
G01*
X84902006Y-78365000D02*
G75*
G03*
X84902006Y-78365000I-25000J0D01*
G01*
X130171006Y-50981000D02*
G75*
G03*
X130171006Y-50981000I-25000J0D01*
G01*
D12*
X136449257Y-65562392D02*
X136756539Y-65562392D01*
X136449257Y-66322392D02*
X136756539Y-66322392D01*
D11*
X95171006Y-78365000D02*
G75*
G03*
X95171006Y-78365000I-25000J0D01*
G01*
X133594006Y-85211000D02*
G75*
G03*
X133594006Y-85211000I-25000J0D01*
G01*
D12*
X86227899Y-106533312D02*
X86227899Y-106814472D01*
X85207899Y-106533312D02*
X85207899Y-106814472D01*
D11*
X88325006Y-122864000D02*
G75*
G03*
X88325006Y-122864000I-25000J0D01*
G01*
X109633006Y-105749000D02*
G75*
G03*
X109633006Y-105749000I-25000J0D01*
G01*
X95171006Y-33866000D02*
G75*
G03*
X95171006Y-33866000I-25000J0D01*
G01*
X78056006Y-136556000D02*
G75*
G03*
X78056006Y-136556000I-25000J0D01*
G01*
X133594006Y-74942000D02*
G75*
G03*
X133594006Y-74942000I-25000J0D01*
G01*
X102017006Y-85211000D02*
G75*
G03*
X102017006Y-85211000I-25000J0D01*
G01*
X133594006Y-71519000D02*
G75*
G03*
X133594006Y-71519000I-25000J0D01*
G01*
X95171006Y-71519000D02*
G75*
G03*
X95171006Y-71519000I-25000J0D01*
G01*
X95171006Y-136556000D02*
G75*
G03*
X95171006Y-136556000I-25000J0D01*
G01*
D12*
X136329258Y-106663392D02*
X136636540Y-106663392D01*
X136329258Y-107423392D02*
X136636540Y-107423392D01*
D11*
X98594006Y-61250000D02*
G75*
G03*
X98594006Y-61250000I-25000J0D01*
G01*
X116479006Y-47558000D02*
G75*
G03*
X116479006Y-47558000I-25000J0D01*
G01*
X123325006Y-81788000D02*
G75*
G03*
X123325006Y-81788000I-25000J0D01*
G01*
X119902006Y-47558000D02*
G75*
G03*
X119902006Y-47558000I-25000J0D01*
G01*
X123325006Y-129710000D02*
G75*
G03*
X123325006Y-129710000I-25000J0D01*
G01*
X95171006Y-122864000D02*
G75*
G03*
X95171006Y-122864000I-25000J0D01*
G01*
X102017006Y-105749000D02*
G75*
G03*
X102017006Y-105749000I-25000J0D01*
G01*
X123325006Y-98903000D02*
G75*
G03*
X123325006Y-98903000I-25000J0D01*
G01*
X95171006Y-40712000D02*
G75*
G03*
X95171006Y-40712000I-25000J0D01*
G01*
X81479006Y-40712000D02*
G75*
G03*
X81479006Y-40712000I-25000J0D01*
G01*
X78056006Y-88634000D02*
G75*
G03*
X78056006Y-88634000I-25000J0D01*
G01*
X109633006Y-33866000D02*
G75*
G03*
X109633006Y-33866000I-25000J0D01*
G01*
X119902006Y-81788000D02*
G75*
G03*
X119902006Y-81788000I-25000J0D01*
G01*
X84902006Y-136556000D02*
G75*
G03*
X84902006Y-136556000I-25000J0D01*
G01*
X113056006Y-68096000D02*
G75*
G03*
X113056006Y-68096000I-25000J0D01*
G01*
X74633006Y-95480000D02*
G75*
G03*
X74633006Y-95480000I-25000J0D01*
G01*
X95171006Y-54404000D02*
G75*
G03*
X95171006Y-54404000I-25000J0D01*
G01*
X137017006Y-74942000D02*
G75*
G03*
X137017006Y-74942000I-25000J0D01*
G01*
X119902006Y-74942000D02*
G75*
G03*
X119902006Y-74942000I-25000J0D01*
G01*
X113056006Y-33866000D02*
G75*
G03*
X113056006Y-33866000I-25000J0D01*
G01*
X126748006Y-61250000D02*
G75*
G03*
X126748006Y-61250000I-25000J0D01*
G01*
X102017006Y-133133000D02*
G75*
G03*
X102017006Y-133133000I-25000J0D01*
G01*
X84902006Y-116018000D02*
G75*
G03*
X84902006Y-116018000I-25000J0D01*
G01*
X123325006Y-40712000D02*
G75*
G03*
X123325006Y-40712000I-25000J0D01*
G01*
D12*
X136329258Y-92963392D02*
X136636540Y-92963392D01*
X136329258Y-93723392D02*
X136636540Y-93723392D01*
D11*
X126748006Y-30443000D02*
G75*
G03*
X126748006Y-30443000I-25000J0D01*
G01*
X98594006Y-119441000D02*
G75*
G03*
X98594006Y-119441000I-25000J0D01*
G01*
X109633006Y-50981000D02*
G75*
G03*
X109633006Y-50981000I-25000J0D01*
G01*
X126748006Y-44135000D02*
G75*
G03*
X126748006Y-44135000I-25000J0D01*
G01*
X98594006Y-129710000D02*
G75*
G03*
X98594006Y-129710000I-25000J0D01*
G01*
X88325006Y-126287000D02*
G75*
G03*
X88325006Y-126287000I-25000J0D01*
G01*
X130171006Y-133133000D02*
G75*
G03*
X130171006Y-133133000I-25000J0D01*
G01*
X109633006Y-112595000D02*
G75*
G03*
X109633006Y-112595000I-25000J0D01*
G01*
X98594006Y-122864000D02*
G75*
G03*
X98594006Y-122864000I-25000J0D01*
G01*
X133594006Y-61250000D02*
G75*
G03*
X133594006Y-61250000I-25000J0D01*
G01*
X113056006Y-57827000D02*
G75*
G03*
X113056006Y-57827000I-25000J0D01*
G01*
X133594006Y-88634000D02*
G75*
G03*
X133594006Y-88634000I-25000J0D01*
G01*
X102017006Y-81788000D02*
G75*
G03*
X102017006Y-81788000I-25000J0D01*
G01*
X109633006Y-37289000D02*
G75*
G03*
X109633006Y-37289000I-25000J0D01*
G01*
X113056006Y-102326000D02*
G75*
G03*
X113056006Y-102326000I-25000J0D01*
G01*
X116479006Y-68096000D02*
G75*
G03*
X116479006Y-68096000I-25000J0D01*
G01*
X74633006Y-74942000D02*
G75*
G03*
X74633006Y-74942000I-25000J0D01*
G01*
X91748006Y-88634000D02*
G75*
G03*
X91748006Y-88634000I-25000J0D01*
G01*
D12*
X136349258Y-79262392D02*
X136656540Y-79262392D01*
X136349258Y-80022392D02*
X136656540Y-80022392D01*
D11*
X81479006Y-122864000D02*
G75*
G03*
X81479006Y-122864000I-25000J0D01*
G01*
D12*
X86227899Y-92841312D02*
X86227899Y-93122472D01*
X85207899Y-92841312D02*
X85207899Y-93122472D01*
D11*
X123325006Y-64673000D02*
G75*
G03*
X123325006Y-64673000I-25000J0D01*
G01*
X119902006Y-122864000D02*
G75*
G03*
X119902006Y-122864000I-25000J0D01*
G01*
X119902006Y-78365000D02*
G75*
G03*
X119902006Y-78365000I-25000J0D01*
G01*
X137017006Y-129710000D02*
G75*
G03*
X137017006Y-129710000I-25000J0D01*
G01*
X137017006Y-71519000D02*
G75*
G03*
X137017006Y-71519000I-25000J0D01*
G01*
D12*
X101329258Y-106663392D02*
X101636540Y-106663392D01*
X101329258Y-107423392D02*
X101636540Y-107423392D01*
D11*
X74633006Y-40712000D02*
G75*
G03*
X74633006Y-40712000I-25000J0D01*
G01*
X95171006Y-44135000D02*
G75*
G03*
X95171006Y-44135000I-25000J0D01*
G01*
X98594006Y-136556000D02*
G75*
G03*
X98594006Y-136556000I-25000J0D01*
G01*
X98594006Y-50981000D02*
G75*
G03*
X98594006Y-50981000I-25000J0D01*
G01*
X123325006Y-102326000D02*
G75*
G03*
X123325006Y-102326000I-25000J0D01*
G01*
X98594006Y-105749000D02*
G75*
G03*
X98594006Y-105749000I-25000J0D01*
G01*
D12*
X86227899Y-31227312D02*
X86227899Y-31508472D01*
X85207899Y-31227312D02*
X85207899Y-31508472D01*
D11*
X98594006Y-44135000D02*
G75*
G03*
X98594006Y-44135000I-25000J0D01*
G01*
X84902006Y-44135000D02*
G75*
G03*
X84902006Y-44135000I-25000J0D01*
G01*
X109633006Y-81788000D02*
G75*
G03*
X109633006Y-81788000I-25000J0D01*
G01*
X98594006Y-30443000D02*
G75*
G03*
X98594006Y-30443000I-25000J0D01*
G01*
X78056006Y-74942000D02*
G75*
G03*
X78056006Y-74942000I-25000J0D01*
G01*
X137017006Y-109172000D02*
G75*
G03*
X137017006Y-109172000I-25000J0D01*
G01*
X91748006Y-105749000D02*
G75*
G03*
X91748006Y-105749000I-25000J0D01*
G01*
X130171006Y-116018000D02*
G75*
G03*
X130171006Y-116018000I-25000J0D01*
G01*
X130171006Y-33866000D02*
G75*
G03*
X130171006Y-33866000I-25000J0D01*
G01*
X137017006Y-33866000D02*
G75*
G03*
X137017006Y-33866000I-25000J0D01*
G01*
X113056006Y-109172000D02*
G75*
G03*
X113056006Y-109172000I-25000J0D01*
G01*
X123325006Y-74942000D02*
G75*
G03*
X123325006Y-74942000I-25000J0D01*
G01*
X102017006Y-129710000D02*
G75*
G03*
X102017006Y-129710000I-25000J0D01*
G01*
X98594006Y-102326000D02*
G75*
G03*
X98594006Y-102326000I-25000J0D01*
G01*
X130171006Y-136556000D02*
G75*
G03*
X130171006Y-136556000I-25000J0D01*
G01*
X95171006Y-112595000D02*
G75*
G03*
X95171006Y-112595000I-25000J0D01*
G01*
X91748006Y-44135000D02*
G75*
G03*
X91748006Y-44135000I-25000J0D01*
G01*
X74633006Y-122864000D02*
G75*
G03*
X74633006Y-122864000I-25000J0D01*
G01*
X130171006Y-129710000D02*
G75*
G03*
X130171006Y-129710000I-25000J0D01*
G01*
D12*
X136356365Y-51769500D02*
X136663647Y-51769500D01*
X136356365Y-52529500D02*
X136663647Y-52529500D01*
D11*
X74633006Y-81788000D02*
G75*
G03*
X74633006Y-81788000I-25000J0D01*
G01*
X91748006Y-33866000D02*
G75*
G03*
X91748006Y-33866000I-25000J0D01*
G01*
X78056006Y-126287000D02*
G75*
G03*
X78056006Y-126287000I-25000J0D01*
G01*
X78056006Y-95480000D02*
G75*
G03*
X78056006Y-95480000I-25000J0D01*
G01*
X137017006Y-112595000D02*
G75*
G03*
X137017006Y-112595000I-25000J0D01*
G01*
X130171006Y-40712000D02*
G75*
G03*
X130171006Y-40712000I-25000J0D01*
G01*
X116479006Y-109172000D02*
G75*
G03*
X116479006Y-109172000I-25000J0D01*
G01*
X119902006Y-30443000D02*
G75*
G03*
X119902006Y-30443000I-25000J0D01*
G01*
X84902006Y-102326000D02*
G75*
G03*
X84902006Y-102326000I-25000J0D01*
G01*
X137017006Y-57827000D02*
G75*
G03*
X137017006Y-57827000I-25000J0D01*
G01*
X84902006Y-57827000D02*
G75*
G03*
X84902006Y-57827000I-25000J0D01*
G01*
X78056006Y-61250000D02*
G75*
G03*
X78056006Y-61250000I-25000J0D01*
G01*
X130171006Y-109172000D02*
G75*
G03*
X130171006Y-109172000I-25000J0D01*
G01*
X126748006Y-40712000D02*
G75*
G03*
X126748006Y-40712000I-25000J0D01*
G01*
X91748006Y-81788000D02*
G75*
G03*
X91748006Y-81788000I-25000J0D01*
G01*
X78056006Y-44135000D02*
G75*
G03*
X78056006Y-44135000I-25000J0D01*
G01*
X102017006Y-61250000D02*
G75*
G03*
X102017006Y-61250000I-25000J0D01*
G01*
X113056006Y-116018000D02*
G75*
G03*
X113056006Y-116018000I-25000J0D01*
G01*
X74633006Y-126287000D02*
G75*
G03*
X74633006Y-126287000I-25000J0D01*
G01*
X109633006Y-44135000D02*
G75*
G03*
X109633006Y-44135000I-25000J0D01*
G01*
X98594006Y-64673000D02*
G75*
G03*
X98594006Y-64673000I-25000J0D01*
G01*
X102017006Y-47558000D02*
G75*
G03*
X102017006Y-47558000I-25000J0D01*
G01*
D12*
X121227899Y-58611312D02*
X121227899Y-58892472D01*
X120207899Y-58611312D02*
X120207899Y-58892472D01*
D11*
X81479006Y-119441000D02*
G75*
G03*
X81479006Y-119441000I-25000J0D01*
G01*
X130171006Y-78365000D02*
G75*
G03*
X130171006Y-78365000I-25000J0D01*
G01*
X91748006Y-68096000D02*
G75*
G03*
X91748006Y-68096000I-25000J0D01*
G01*
X74633006Y-85211000D02*
G75*
G03*
X74633006Y-85211000I-25000J0D01*
G01*
X133594006Y-81788000D02*
G75*
G03*
X133594006Y-81788000I-25000J0D01*
G01*
X84902006Y-129710000D02*
G75*
G03*
X84902006Y-129710000I-25000J0D01*
G01*
X123325006Y-54404000D02*
G75*
G03*
X123325006Y-54404000I-25000J0D01*
G01*
X95171006Y-126287000D02*
G75*
G03*
X95171006Y-126287000I-25000J0D01*
G01*
X116479006Y-44135000D02*
G75*
G03*
X116479006Y-44135000I-25000J0D01*
G01*
X81479006Y-33866000D02*
G75*
G03*
X81479006Y-33866000I-25000J0D01*
G01*
X84902006Y-50981000D02*
G75*
G03*
X84902006Y-50981000I-25000J0D01*
G01*
X126748006Y-85211000D02*
G75*
G03*
X126748006Y-85211000I-25000J0D01*
G01*
X91748006Y-98903000D02*
G75*
G03*
X91748006Y-98903000I-25000J0D01*
G01*
X91748006Y-40712000D02*
G75*
G03*
X91748006Y-40712000I-25000J0D01*
G01*
X98594006Y-126287000D02*
G75*
G03*
X98594006Y-126287000I-25000J0D01*
G01*
X88325006Y-37289000D02*
G75*
G03*
X88325006Y-37289000I-25000J0D01*
G01*
D12*
X121227899Y-51765312D02*
X121227899Y-52046472D01*
X120207899Y-51765312D02*
X120207899Y-52046472D01*
D11*
X74633006Y-68096000D02*
G75*
G03*
X74633006Y-68096000I-25000J0D01*
G01*
X109633006Y-54404000D02*
G75*
G03*
X109633006Y-54404000I-25000J0D01*
G01*
X133594006Y-105749000D02*
G75*
G03*
X133594006Y-105749000I-25000J0D01*
G01*
X74633006Y-71519000D02*
G75*
G03*
X74633006Y-71519000I-25000J0D01*
G01*
X102017006Y-64673000D02*
G75*
G03*
X102017006Y-64673000I-25000J0D01*
G01*
D12*
X86227899Y-85995312D02*
X86227899Y-86276472D01*
X85207899Y-85995312D02*
X85207899Y-86276472D01*
D11*
X81479006Y-54404000D02*
G75*
G03*
X81479006Y-54404000I-25000J0D01*
G01*
X137017006Y-37289000D02*
G75*
G03*
X137017006Y-37289000I-25000J0D01*
G01*
X91748006Y-78365000D02*
G75*
G03*
X91748006Y-78365000I-25000J0D01*
G01*
X119902006Y-50981000D02*
G75*
G03*
X119902006Y-50981000I-25000J0D01*
G01*
X102017006Y-116018000D02*
G75*
G03*
X102017006Y-116018000I-25000J0D01*
G01*
X130171006Y-92057000D02*
G75*
G03*
X130171006Y-92057000I-25000J0D01*
G01*
X81479006Y-112595000D02*
G75*
G03*
X81479006Y-112595000I-25000J0D01*
G01*
X91748006Y-64673000D02*
G75*
G03*
X91748006Y-64673000I-25000J0D01*
G01*
D12*
X86227899Y-65457312D02*
X86227899Y-65738472D01*
X85207899Y-65457312D02*
X85207899Y-65738472D01*
D11*
X133594006Y-33866000D02*
G75*
G03*
X133594006Y-33866000I-25000J0D01*
G01*
X119902006Y-64673000D02*
G75*
G03*
X119902006Y-64673000I-25000J0D01*
G01*
X126748006Y-102326000D02*
G75*
G03*
X126748006Y-102326000I-25000J0D01*
G01*
X130171006Y-30443000D02*
G75*
G03*
X130171006Y-30443000I-25000J0D01*
G01*
D12*
X136329258Y-120363392D02*
X136636540Y-120363392D01*
X136329258Y-121123392D02*
X136636540Y-121123392D01*
D11*
X123325006Y-33866000D02*
G75*
G03*
X123325006Y-33866000I-25000J0D01*
G01*
X109633006Y-102326000D02*
G75*
G03*
X109633006Y-102326000I-25000J0D01*
G01*
X126748006Y-105749000D02*
G75*
G03*
X126748006Y-105749000I-25000J0D01*
G01*
X137017006Y-47558000D02*
G75*
G03*
X137017006Y-47558000I-25000J0D01*
G01*
X113056006Y-112595000D02*
G75*
G03*
X113056006Y-112595000I-25000J0D01*
G01*
X130171006Y-57827000D02*
G75*
G03*
X130171006Y-57827000I-25000J0D01*
G01*
X123325006Y-119441000D02*
G75*
G03*
X123325006Y-119441000I-25000J0D01*
G01*
X130171006Y-64673000D02*
G75*
G03*
X130171006Y-64673000I-25000J0D01*
G01*
X91748006Y-74942000D02*
G75*
G03*
X91748006Y-74942000I-25000J0D01*
G01*
X130171006Y-61250000D02*
G75*
G03*
X130171006Y-61250000I-25000J0D01*
G01*
X126748006Y-81788000D02*
G75*
G03*
X126748006Y-81788000I-25000J0D01*
G01*
X116479006Y-78365000D02*
G75*
G03*
X116479006Y-78365000I-25000J0D01*
G01*
X81479006Y-50981000D02*
G75*
G03*
X81479006Y-50981000I-25000J0D01*
G01*
D12*
X86227899Y-120225312D02*
X86227899Y-120506472D01*
X85207899Y-120225312D02*
X85207899Y-120506472D01*
D11*
X130171006Y-105749000D02*
G75*
G03*
X130171006Y-105749000I-25000J0D01*
G01*
X88325006Y-92057000D02*
G75*
G03*
X88325006Y-92057000I-25000J0D01*
G01*
X109633006Y-71519000D02*
G75*
G03*
X109633006Y-71519000I-25000J0D01*
G01*
X81479006Y-98903000D02*
G75*
G03*
X81479006Y-98903000I-25000J0D01*
G01*
X133594006Y-44135000D02*
G75*
G03*
X133594006Y-44135000I-25000J0D01*
G01*
X102017006Y-44135000D02*
G75*
G03*
X102017006Y-44135000I-25000J0D01*
G01*
X133594006Y-122864000D02*
G75*
G03*
X133594006Y-122864000I-25000J0D01*
G01*
X109633006Y-47558000D02*
G75*
G03*
X109633006Y-47558000I-25000J0D01*
G01*
X98594006Y-74942000D02*
G75*
G03*
X98594006Y-74942000I-25000J0D01*
G01*
X126748006Y-92057000D02*
G75*
G03*
X126748006Y-92057000I-25000J0D01*
G01*
D12*
X121227899Y-31227312D02*
X121227899Y-31508472D01*
X120207899Y-31227312D02*
X120207899Y-31508472D01*
D11*
X123325006Y-44135000D02*
G75*
G03*
X123325006Y-44135000I-25000J0D01*
G01*
X98594006Y-47558000D02*
G75*
G03*
X98594006Y-47558000I-25000J0D01*
G01*
X133594006Y-64673000D02*
G75*
G03*
X133594006Y-64673000I-25000J0D01*
G01*
X91748006Y-92057000D02*
G75*
G03*
X91748006Y-92057000I-25000J0D01*
G01*
X81479006Y-116018000D02*
G75*
G03*
X81479006Y-116018000I-25000J0D01*
G01*
X78056006Y-81788000D02*
G75*
G03*
X78056006Y-81788000I-25000J0D01*
G01*
X119902006Y-126287000D02*
G75*
G03*
X119902006Y-126287000I-25000J0D01*
G01*
X91748006Y-116018000D02*
G75*
G03*
X91748006Y-116018000I-25000J0D01*
G01*
X119902006Y-44135000D02*
G75*
G03*
X119902006Y-44135000I-25000J0D01*
G01*
X119902006Y-37289000D02*
G75*
G03*
X119902006Y-37289000I-25000J0D01*
G01*
X116479006Y-98903000D02*
G75*
G03*
X116479006Y-98903000I-25000J0D01*
G01*
X78056006Y-112595000D02*
G75*
G03*
X78056006Y-112595000I-25000J0D01*
G01*
X84902006Y-98903000D02*
G75*
G03*
X84902006Y-98903000I-25000J0D01*
G01*
X102017006Y-40712000D02*
G75*
G03*
X102017006Y-40712000I-25000J0D01*
G01*
X137017006Y-98903000D02*
G75*
G03*
X137017006Y-98903000I-25000J0D01*
G01*
X81479006Y-85211000D02*
G75*
G03*
X81479006Y-85211000I-25000J0D01*
G01*
X116479006Y-85211000D02*
G75*
G03*
X116479006Y-85211000I-25000J0D01*
G01*
X81479006Y-64673000D02*
G75*
G03*
X81479006Y-64673000I-25000J0D01*
G01*
X84902006Y-68096000D02*
G75*
G03*
X84902006Y-68096000I-25000J0D01*
G01*
X102017006Y-95480000D02*
G75*
G03*
X102017006Y-95480000I-25000J0D01*
G01*
X78056006Y-133133000D02*
G75*
G03*
X78056006Y-133133000I-25000J0D01*
G01*
X88325006Y-33866000D02*
G75*
G03*
X88325006Y-33866000I-25000J0D01*
G01*
X88325006Y-98903000D02*
G75*
G03*
X88325006Y-98903000I-25000J0D01*
G01*
X126748006Y-78365000D02*
G75*
G03*
X126748006Y-78365000I-25000J0D01*
G01*
X74633006Y-64673000D02*
G75*
G03*
X74633006Y-64673000I-25000J0D01*
G01*
X119902006Y-54404000D02*
G75*
G03*
X119902006Y-54404000I-25000J0D01*
G01*
X98594006Y-81788000D02*
G75*
G03*
X98594006Y-81788000I-25000J0D01*
G01*
X102017006Y-30443000D02*
G75*
G03*
X102017006Y-30443000I-25000J0D01*
G01*
D12*
X101329258Y-92963392D02*
X101636540Y-92963392D01*
X101329258Y-93723392D02*
X101636540Y-93723392D01*
D11*
X81479006Y-136556000D02*
G75*
G03*
X81479006Y-136556000I-25000J0D01*
G01*
X88325006Y-119441000D02*
G75*
G03*
X88325006Y-119441000I-25000J0D01*
G01*
X119902006Y-61250000D02*
G75*
G03*
X119902006Y-61250000I-25000J0D01*
G01*
X81479006Y-129710000D02*
G75*
G03*
X81479006Y-129710000I-25000J0D01*
G01*
X113056006Y-54404000D02*
G75*
G03*
X113056006Y-54404000I-25000J0D01*
G01*
X78056006Y-30443000D02*
G75*
G03*
X78056006Y-30443000I-25000J0D01*
G01*
X116479006Y-54404000D02*
G75*
G03*
X116479006Y-54404000I-25000J0D01*
G01*
X130171006Y-98903000D02*
G75*
G03*
X130171006Y-98903000I-25000J0D01*
G01*
X102017006Y-54404000D02*
G75*
G03*
X102017006Y-54404000I-25000J0D01*
G01*
X123325006Y-126287000D02*
G75*
G03*
X123325006Y-126287000I-25000J0D01*
G01*
X116479006Y-71519000D02*
G75*
G03*
X116479006Y-71519000I-25000J0D01*
G01*
X102017006Y-33866000D02*
G75*
G03*
X102017006Y-33866000I-25000J0D01*
G01*
X81479006Y-95480000D02*
G75*
G03*
X81479006Y-95480000I-25000J0D01*
G01*
X123325006Y-50981000D02*
G75*
G03*
X123325006Y-50981000I-25000J0D01*
G01*
X116479006Y-129710000D02*
G75*
G03*
X116479006Y-129710000I-25000J0D01*
G01*
X109633006Y-92057000D02*
G75*
G03*
X109633006Y-92057000I-25000J0D01*
G01*
X74633006Y-57827000D02*
G75*
G03*
X74633006Y-57827000I-25000J0D01*
G01*
X98594006Y-54404000D02*
G75*
G03*
X98594006Y-54404000I-25000J0D01*
G01*
X81479006Y-57827000D02*
G75*
G03*
X81479006Y-57827000I-25000J0D01*
G01*
D12*
X136356365Y-38163000D02*
X136663647Y-38163000D01*
X136356365Y-38923000D02*
X136663647Y-38923000D01*
D11*
X95171006Y-81788000D02*
G75*
G03*
X95171006Y-81788000I-25000J0D01*
G01*
X84902006Y-71519000D02*
G75*
G03*
X84902006Y-71519000I-25000J0D01*
G01*
X123325006Y-37289000D02*
G75*
G03*
X123325006Y-37289000I-25000J0D01*
G01*
X91748006Y-133133000D02*
G75*
G03*
X91748006Y-133133000I-25000J0D01*
G01*
D12*
X86227899Y-99687312D02*
X86227899Y-99968472D01*
X85207899Y-99687312D02*
X85207899Y-99968472D01*
D11*
X109633006Y-95480000D02*
G75*
G03*
X109633006Y-95480000I-25000J0D01*
G01*
X81479006Y-37289000D02*
G75*
G03*
X81479006Y-37289000I-25000J0D01*
G01*
X109633006Y-129710000D02*
G75*
G03*
X109633006Y-129710000I-25000J0D01*
G01*
D12*
X101449257Y-65562392D02*
X101756539Y-65562392D01*
X101449257Y-66322392D02*
X101756539Y-66322392D01*
D11*
X133594006Y-54404000D02*
G75*
G03*
X133594006Y-54404000I-25000J0D01*
G01*
X126748006Y-126287000D02*
G75*
G03*
X126748006Y-126287000I-25000J0D01*
G01*
D12*
X86227899Y-79149312D02*
X86227899Y-79430472D01*
X85207899Y-79149312D02*
X85207899Y-79430472D01*
D11*
X84902006Y-119441000D02*
G75*
G03*
X84902006Y-119441000I-25000J0D01*
G01*
X78056006Y-47558000D02*
G75*
G03*
X78056006Y-47558000I-25000J0D01*
G01*
X109633006Y-133133000D02*
G75*
G03*
X109633006Y-133133000I-25000J0D01*
G01*
X126748006Y-119441000D02*
G75*
G03*
X126748006Y-119441000I-25000J0D01*
G01*
X126748006Y-57827000D02*
G75*
G03*
X126748006Y-57827000I-25000J0D01*
G01*
X137017006Y-122864000D02*
G75*
G03*
X137017006Y-122864000I-25000J0D01*
G01*
X98594006Y-109172000D02*
G75*
G03*
X98594006Y-109172000I-25000J0D01*
G01*
X137017006Y-92057000D02*
G75*
G03*
X137017006Y-92057000I-25000J0D01*
G01*
X126748006Y-98903000D02*
G75*
G03*
X126748006Y-98903000I-25000J0D01*
G01*
X88325006Y-116018000D02*
G75*
G03*
X88325006Y-116018000I-25000J0D01*
G01*
X84902006Y-47558000D02*
G75*
G03*
X84902006Y-47558000I-25000J0D01*
G01*
X137017006Y-40712000D02*
G75*
G03*
X137017006Y-40712000I-25000J0D01*
G01*
X74633006Y-30443000D02*
G75*
G03*
X74633006Y-30443000I-25000J0D01*
G01*
X137017006Y-116018000D02*
G75*
G03*
X137017006Y-116018000I-25000J0D01*
G01*
X91748006Y-119441000D02*
G75*
G03*
X91748006Y-119441000I-25000J0D01*
G01*
X98594006Y-71519000D02*
G75*
G03*
X98594006Y-71519000I-25000J0D01*
G01*
X133594006Y-92057000D02*
G75*
G03*
X133594006Y-92057000I-25000J0D01*
G01*
X91748006Y-129710000D02*
G75*
G03*
X91748006Y-129710000I-25000J0D01*
G01*
X95171006Y-105749000D02*
G75*
G03*
X95171006Y-105749000I-25000J0D01*
G01*
X126748006Y-54404000D02*
G75*
G03*
X126748006Y-54404000I-25000J0D01*
G01*
D12*
X101329258Y-120363392D02*
X101636540Y-120363392D01*
X101329258Y-121123392D02*
X101636540Y-121123392D01*
X121227899Y-38073312D02*
X121227899Y-38354472D01*
X120207899Y-38073312D02*
X120207899Y-38354472D01*
D11*
X74633006Y-92057000D02*
G75*
G03*
X74633006Y-92057000I-25000J0D01*
G01*
X126748006Y-50981000D02*
G75*
G03*
X126748006Y-50981000I-25000J0D01*
G01*
X81479006Y-102326000D02*
G75*
G03*
X81479006Y-102326000I-25000J0D01*
G01*
X102017006Y-50981000D02*
G75*
G03*
X102017006Y-50981000I-25000J0D01*
G01*
X119902006Y-119441000D02*
G75*
G03*
X119902006Y-119441000I-25000J0D01*
G01*
X119902006Y-98903000D02*
G75*
G03*
X119902006Y-98903000I-25000J0D01*
G01*
X88325006Y-44135000D02*
G75*
G03*
X88325006Y-44135000I-25000J0D01*
G01*
X81479006Y-133133000D02*
G75*
G03*
X81479006Y-133133000I-25000J0D01*
G01*
X102017006Y-109172000D02*
G75*
G03*
X102017006Y-109172000I-25000J0D01*
G01*
X95171006Y-64673000D02*
G75*
G03*
X95171006Y-64673000I-25000J0D01*
G01*
D12*
X121227899Y-113379312D02*
X121227899Y-113660472D01*
X120207899Y-113379312D02*
X120207899Y-113660472D01*
D11*
X113056006Y-47558000D02*
G75*
G03*
X113056006Y-47558000I-25000J0D01*
G01*
X130171006Y-88634000D02*
G75*
G03*
X130171006Y-88634000I-25000J0D01*
G01*
X126748006Y-136556000D02*
G75*
G03*
X126748006Y-136556000I-25000J0D01*
G01*
X98594006Y-37289000D02*
G75*
G03*
X98594006Y-37289000I-25000J0D01*
G01*
X113056006Y-133133000D02*
G75*
G03*
X113056006Y-133133000I-25000J0D01*
G01*
X84902006Y-105749000D02*
G75*
G03*
X84902006Y-105749000I-25000J0D01*
G01*
X137017006Y-81788000D02*
G75*
G03*
X137017006Y-81788000I-25000J0D01*
G01*
X98594006Y-98903000D02*
G75*
G03*
X98594006Y-98903000I-25000J0D01*
G01*
X137017006Y-136556000D02*
G75*
G03*
X137017006Y-136556000I-25000J0D01*
G01*
X109633006Y-40712000D02*
G75*
G03*
X109633006Y-40712000I-25000J0D01*
G01*
X88325006Y-95480000D02*
G75*
G03*
X88325006Y-95480000I-25000J0D01*
G01*
X84902006Y-126287000D02*
G75*
G03*
X84902006Y-126287000I-25000J0D01*
G01*
X119902006Y-102326000D02*
G75*
G03*
X119902006Y-102326000I-25000J0D01*
G01*
X119902006Y-109172000D02*
G75*
G03*
X119902006Y-109172000I-25000J0D01*
G01*
X126748006Y-37289000D02*
G75*
G03*
X126748006Y-37289000I-25000J0D01*
G01*
X74633006Y-33866000D02*
G75*
G03*
X74633006Y-33866000I-25000J0D01*
G01*
X88325006Y-64673000D02*
G75*
G03*
X88325006Y-64673000I-25000J0D01*
G01*
X126748006Y-129710000D02*
G75*
G03*
X126748006Y-129710000I-25000J0D01*
G01*
X95171006Y-133133000D02*
G75*
G03*
X95171006Y-133133000I-25000J0D01*
G01*
X98594006Y-68096000D02*
G75*
G03*
X98594006Y-68096000I-25000J0D01*
G01*
X95171006Y-61250000D02*
G75*
G03*
X95171006Y-61250000I-25000J0D01*
G01*
X109633006Y-126287000D02*
G75*
G03*
X109633006Y-126287000I-25000J0D01*
G01*
X74633006Y-112595000D02*
G75*
G03*
X74633006Y-112595000I-25000J0D01*
G01*
X91748006Y-47558000D02*
G75*
G03*
X91748006Y-47558000I-25000J0D01*
G01*
X133594006Y-116018000D02*
G75*
G03*
X133594006Y-116018000I-25000J0D01*
G01*
X130171006Y-47558000D02*
G75*
G03*
X130171006Y-47558000I-25000J0D01*
G01*
X137017006Y-78365000D02*
G75*
G03*
X137017006Y-78365000I-25000J0D01*
G01*
X102017006Y-57827000D02*
G75*
G03*
X102017006Y-57827000I-25000J0D01*
G01*
X113056006Y-44135000D02*
G75*
G03*
X113056006Y-44135000I-25000J0D01*
G01*
X137017006Y-119441000D02*
G75*
G03*
X137017006Y-119441000I-25000J0D01*
G01*
X137017006Y-44135000D02*
G75*
G03*
X137017006Y-44135000I-25000J0D01*
G01*
X81479006Y-105749000D02*
G75*
G03*
X81479006Y-105749000I-25000J0D01*
G01*
X133594006Y-126287000D02*
G75*
G03*
X133594006Y-126287000I-25000J0D01*
G01*
X74633006Y-98903000D02*
G75*
G03*
X74633006Y-98903000I-25000J0D01*
G01*
X123325006Y-136556000D02*
G75*
G03*
X123325006Y-136556000I-25000J0D01*
G01*
X88325006Y-105749000D02*
G75*
G03*
X88325006Y-105749000I-25000J0D01*
G01*
D12*
X121227899Y-120225312D02*
X121227899Y-120506472D01*
X120207899Y-120225312D02*
X120207899Y-120506472D01*
D11*
X130171006Y-112595000D02*
G75*
G03*
X130171006Y-112595000I-25000J0D01*
G01*
D12*
X101356365Y-51769500D02*
X101663647Y-51769500D01*
X101356365Y-52529500D02*
X101663647Y-52529500D01*
D11*
X84902006Y-74942000D02*
G75*
G03*
X84902006Y-74942000I-25000J0D01*
G01*
X102017006Y-71519000D02*
G75*
G03*
X102017006Y-71519000I-25000J0D01*
G01*
X116479006Y-30443000D02*
G75*
G03*
X116479006Y-30443000I-25000J0D01*
G01*
X109633006Y-64673000D02*
G75*
G03*
X109633006Y-64673000I-25000J0D01*
G01*
X74633006Y-54404000D02*
G75*
G03*
X74633006Y-54404000I-25000J0D01*
G01*
X95171006Y-47558000D02*
G75*
G03*
X95171006Y-47558000I-25000J0D01*
G01*
X102017006Y-78365000D02*
G75*
G03*
X102017006Y-78365000I-25000J0D01*
G01*
X109633006Y-57827000D02*
G75*
G03*
X109633006Y-57827000I-25000J0D01*
G01*
X116479006Y-88634000D02*
G75*
G03*
X116479006Y-88634000I-25000J0D01*
G01*
X88325006Y-102326000D02*
G75*
G03*
X88325006Y-102326000I-25000J0D01*
G01*
X95171006Y-116018000D02*
G75*
G03*
X95171006Y-116018000I-25000J0D01*
G01*
X113056006Y-40712000D02*
G75*
G03*
X113056006Y-40712000I-25000J0D01*
G01*
X78056006Y-116018000D02*
G75*
G03*
X78056006Y-116018000I-25000J0D01*
G01*
X116479006Y-64673000D02*
G75*
G03*
X116479006Y-64673000I-25000J0D01*
G01*
X81479006Y-47558000D02*
G75*
G03*
X81479006Y-47558000I-25000J0D01*
G01*
X126748006Y-47558000D02*
G75*
G03*
X126748006Y-47558000I-25000J0D01*
G01*
X81479006Y-92057000D02*
G75*
G03*
X81479006Y-92057000I-25000J0D01*
G01*
X133594006Y-47558000D02*
G75*
G03*
X133594006Y-47558000I-25000J0D01*
G01*
X119902006Y-112595000D02*
G75*
G03*
X119902006Y-112595000I-25000J0D01*
G01*
X126748006Y-133133000D02*
G75*
G03*
X126748006Y-133133000I-25000J0D01*
G01*
X123325006Y-68096000D02*
G75*
G03*
X123325006Y-68096000I-25000J0D01*
G01*
X130171006Y-85211000D02*
G75*
G03*
X130171006Y-85211000I-25000J0D01*
G01*
X119902006Y-105749000D02*
G75*
G03*
X119902006Y-105749000I-25000J0D01*
G01*
X116479006Y-50981000D02*
G75*
G03*
X116479006Y-50981000I-25000J0D01*
G01*
X116479006Y-81788000D02*
G75*
G03*
X116479006Y-81788000I-25000J0D01*
G01*
X133594006Y-68096000D02*
G75*
G03*
X133594006Y-68096000I-25000J0D01*
G01*
X98594006Y-116018000D02*
G75*
G03*
X98594006Y-116018000I-25000J0D01*
G01*
X81479006Y-88634000D02*
G75*
G03*
X81479006Y-88634000I-25000J0D01*
G01*
X109633006Y-74942000D02*
G75*
G03*
X109633006Y-74942000I-25000J0D01*
G01*
X78056006Y-64673000D02*
G75*
G03*
X78056006Y-64673000I-25000J0D01*
G01*
X98594006Y-57827000D02*
G75*
G03*
X98594006Y-57827000I-25000J0D01*
G01*
X95171006Y-95480000D02*
G75*
G03*
X95171006Y-95480000I-25000J0D01*
G01*
X113056006Y-71519000D02*
G75*
G03*
X113056006Y-71519000I-25000J0D01*
G01*
X95171006Y-57827000D02*
G75*
G03*
X95171006Y-57827000I-25000J0D01*
G01*
X88325006Y-61250000D02*
G75*
G03*
X88325006Y-61250000I-25000J0D01*
G01*
X74633006Y-105749000D02*
G75*
G03*
X74633006Y-105749000I-25000J0D01*
G01*
X84902006Y-112595000D02*
G75*
G03*
X84902006Y-112595000I-25000J0D01*
G01*
X74633006Y-37289000D02*
G75*
G03*
X74633006Y-37289000I-25000J0D01*
G01*
D12*
X121227899Y-99687312D02*
X121227899Y-99968472D01*
X120207899Y-99687312D02*
X120207899Y-99968472D01*
X86227899Y-133917312D02*
X86227899Y-134198472D01*
X85207899Y-133917312D02*
X85207899Y-134198472D01*
D11*
X102017006Y-102326000D02*
G75*
G03*
X102017006Y-102326000I-25000J0D01*
G01*
X95171006Y-102326000D02*
G75*
G03*
X95171006Y-102326000I-25000J0D01*
G01*
X88325006Y-47558000D02*
G75*
G03*
X88325006Y-47558000I-25000J0D01*
G01*
X133594006Y-30443000D02*
G75*
G03*
X133594006Y-30443000I-25000J0D01*
G01*
X109633006Y-78365000D02*
G75*
G03*
X109633006Y-78365000I-25000J0D01*
G01*
X113056006Y-129710000D02*
G75*
G03*
X113056006Y-129710000I-25000J0D01*
G01*
X109633006Y-109172000D02*
G75*
G03*
X109633006Y-109172000I-25000J0D01*
G01*
X133594006Y-133133000D02*
G75*
G03*
X133594006Y-133133000I-25000J0D01*
G01*
X102017006Y-98903000D02*
G75*
G03*
X102017006Y-98903000I-25000J0D01*
G01*
X133594006Y-98903000D02*
G75*
G03*
X133594006Y-98903000I-25000J0D01*
G01*
X130171006Y-37289000D02*
G75*
G03*
X130171006Y-37289000I-25000J0D01*
G01*
X137017006Y-68096000D02*
G75*
G03*
X137017006Y-68096000I-25000J0D01*
G01*
X88325006Y-109172000D02*
G75*
G03*
X88325006Y-109172000I-25000J0D01*
G01*
X130171006Y-81788000D02*
G75*
G03*
X130171006Y-81788000I-25000J0D01*
G01*
X78056006Y-57827000D02*
G75*
G03*
X78056006Y-57827000I-25000J0D01*
G01*
X133594006Y-109172000D02*
G75*
G03*
X133594006Y-109172000I-25000J0D01*
G01*
X113056006Y-126287000D02*
G75*
G03*
X113056006Y-126287000I-25000J0D01*
G01*
X116479006Y-33866000D02*
G75*
G03*
X116479006Y-33866000I-25000J0D01*
G01*
X126748006Y-116018000D02*
G75*
G03*
X126748006Y-116018000I-25000J0D01*
G01*
X84902006Y-85211000D02*
G75*
G03*
X84902006Y-85211000I-25000J0D01*
G01*
X137017006Y-95480000D02*
G75*
G03*
X137017006Y-95480000I-25000J0D01*
G01*
X113056006Y-119441000D02*
G75*
G03*
X113056006Y-119441000I-25000J0D01*
G01*
X81479006Y-68096000D02*
G75*
G03*
X81479006Y-68096000I-25000J0D01*
G01*
X102017006Y-136556000D02*
G75*
G03*
X102017006Y-136556000I-25000J0D01*
G01*
X88325006Y-129710000D02*
G75*
G03*
X88325006Y-129710000I-25000J0D01*
G01*
D12*
X86227899Y-51765312D02*
X86227899Y-52046472D01*
X85207899Y-51765312D02*
X85207899Y-52046472D01*
D11*
X74633006Y-116018000D02*
G75*
G03*
X74633006Y-116018000I-25000J0D01*
G01*
X88325006Y-74942000D02*
G75*
G03*
X88325006Y-74942000I-25000J0D01*
G01*
D12*
X121227899Y-85995312D02*
X121227899Y-86276472D01*
X120207899Y-85995312D02*
X120207899Y-86276472D01*
D11*
X95171006Y-119441000D02*
G75*
G03*
X95171006Y-119441000I-25000J0D01*
G01*
X78056006Y-98903000D02*
G75*
G03*
X78056006Y-98903000I-25000J0D01*
G01*
X109633006Y-61250000D02*
G75*
G03*
X109633006Y-61250000I-25000J0D01*
G01*
X74633006Y-136556000D02*
G75*
G03*
X74633006Y-136556000I-25000J0D01*
G01*
X84902006Y-33866000D02*
G75*
G03*
X84902006Y-33866000I-25000J0D01*
G01*
%LPC*%
D13*
X71999997Y-142899995D03*
D14*
X126373006Y-74592000D03*
X126373006Y-73692000D03*
X125473006Y-73692000D03*
X125473006Y-74592000D03*
X122950006Y-88284000D03*
X122950006Y-87384000D03*
X122050006Y-87384000D03*
X122050006Y-88284000D03*
X91373006Y-122514000D03*
X91373006Y-121614000D03*
X90473006Y-121614000D03*
X90473006Y-122514000D03*
X87950006Y-132783000D03*
X87950006Y-131883000D03*
X87050006Y-131883000D03*
X87050006Y-132783000D03*
D15*
X85717899Y-37438892D03*
X85717899Y-38988892D03*
D16*
X67999997Y-23000000D03*
D14*
X116104006Y-125937000D03*
X116104006Y-125037000D03*
X115204006Y-125037000D03*
X115204006Y-125937000D03*
D13*
X107000003Y-53255554D03*
D14*
X91373006Y-84861000D03*
X91373006Y-83961000D03*
X90473006Y-83961000D03*
X90473006Y-84861000D03*
X87950006Y-50631000D03*
X87950006Y-49731000D03*
X87050006Y-49731000D03*
X87050006Y-50631000D03*
D13*
X102999995Y-76011109D03*
X107000002Y-63633332D03*
X106999998Y-115144441D03*
X129166667Y-138399995D03*
D14*
X81104006Y-81438000D03*
X81104006Y-80538000D03*
X80204006Y-80538000D03*
X80204006Y-81438000D03*
X112681006Y-84861000D03*
X112681006Y-83961000D03*
X111781006Y-83961000D03*
X111781006Y-84861000D03*
X77681006Y-50631000D03*
X77681006Y-49731000D03*
X76781006Y-49731000D03*
X76781006Y-50631000D03*
D13*
X72000002Y-77011109D03*
D14*
X77681006Y-105399000D03*
X77681006Y-104499000D03*
X76781006Y-104499000D03*
X76781006Y-105399000D03*
X91373006Y-101976000D03*
X91373006Y-101076000D03*
X90473006Y-101076000D03*
X90473006Y-101976000D03*
D16*
X67999997Y-128899995D03*
D14*
X133219006Y-136206000D03*
X133219006Y-135306000D03*
X132319006Y-135306000D03*
X132319006Y-136206000D03*
X91373006Y-50631000D03*
X91373006Y-49731000D03*
X90473006Y-49731000D03*
X90473006Y-50631000D03*
X101642006Y-119091000D03*
X101642006Y-118191000D03*
X100742006Y-118191000D03*
X100742006Y-119091000D03*
X116104006Y-36939000D03*
X116104006Y-36039000D03*
X115204006Y-36039000D03*
X115204006Y-36939000D03*
X116104006Y-40362000D03*
X116104006Y-39462000D03*
X115204006Y-39462000D03*
X115204006Y-40362000D03*
X98219006Y-78015000D03*
X98219006Y-77115000D03*
X97319006Y-77115000D03*
X97319006Y-78015000D03*
X129796006Y-101976000D03*
X129796006Y-101076000D03*
X128896006Y-101076000D03*
X128896006Y-101976000D03*
D15*
X85717899Y-112744892D03*
X85717899Y-114294892D03*
D14*
X94796006Y-84861000D03*
X94796006Y-83961000D03*
X93896006Y-83961000D03*
X93896006Y-84861000D03*
X133219006Y-129360000D03*
X133219006Y-128460000D03*
X132319006Y-128460000D03*
X132319006Y-129360000D03*
D13*
X138000002Y-144566661D03*
D14*
X91373006Y-125937000D03*
X91373006Y-125037000D03*
X90473006Y-125037000D03*
X90473006Y-125937000D03*
D13*
X72000003Y-62633332D03*
D14*
X74258006Y-43785000D03*
X74258006Y-42885000D03*
X73358006Y-42885000D03*
X73358006Y-43785000D03*
D13*
X138000000Y-115144441D03*
X137999994Y-62633332D03*
D14*
X94796006Y-36939000D03*
X94796006Y-36039000D03*
X93896006Y-36039000D03*
X93896006Y-36939000D03*
X74258006Y-119091000D03*
X74258006Y-118191000D03*
X73358006Y-118191000D03*
X73358006Y-119091000D03*
X74258006Y-101976000D03*
X74258006Y-101076000D03*
X73358006Y-101076000D03*
X73358006Y-101976000D03*
X126373006Y-112245000D03*
X126373006Y-111345000D03*
X125473006Y-111345000D03*
X125473006Y-112245000D03*
X119527006Y-129360000D03*
X119527006Y-128460000D03*
X118627006Y-128460000D03*
X118627006Y-129360000D03*
X122950006Y-122514000D03*
X122950006Y-121614000D03*
X122050006Y-121614000D03*
X122050006Y-122514000D03*
X77681006Y-91707000D03*
X77681006Y-90807000D03*
X76781006Y-90807000D03*
X76781006Y-91707000D03*
X126373006Y-95130000D03*
X126373006Y-94230000D03*
X125473006Y-94230000D03*
X125473006Y-95130000D03*
X84527006Y-40362000D03*
X84527006Y-39462000D03*
X83627006Y-39462000D03*
X83627006Y-40362000D03*
D13*
X144166669Y-27000000D03*
D15*
X85717899Y-126436892D03*
X85717899Y-127986892D03*
D14*
X136642006Y-125937000D03*
X136642006Y-125037000D03*
X135742006Y-125037000D03*
X135742006Y-125937000D03*
X91373006Y-30093000D03*
X91373006Y-29193000D03*
X90473006Y-29193000D03*
X90473006Y-30093000D03*
X129796006Y-95130000D03*
X129796006Y-94230000D03*
X128896006Y-94230000D03*
X128896006Y-95130000D03*
X136642006Y-132783000D03*
X136642006Y-131883000D03*
X135742006Y-131883000D03*
X135742006Y-132783000D03*
X81104006Y-78015000D03*
X81104006Y-77115000D03*
X80204006Y-77115000D03*
X80204006Y-78015000D03*
X91373006Y-57477000D03*
X91373006Y-56577000D03*
X90473006Y-56577000D03*
X90473006Y-57477000D03*
X133219006Y-50631000D03*
X133219006Y-49731000D03*
X132319006Y-49731000D03*
X132319006Y-50631000D03*
X98219006Y-91707000D03*
X98219006Y-90807000D03*
X97319006Y-90807000D03*
X97319006Y-91707000D03*
X122950006Y-71169000D03*
X122950006Y-70269000D03*
X122050006Y-70269000D03*
X122050006Y-71169000D03*
X122950006Y-115668000D03*
X122950006Y-114768000D03*
X122050006Y-114768000D03*
X122050006Y-115668000D03*
D13*
X115833331Y-27000000D03*
D14*
X87950006Y-81438000D03*
X87950006Y-80538000D03*
X87050006Y-80538000D03*
X87050006Y-81438000D03*
X126373006Y-67746000D03*
X126373006Y-66846000D03*
X125473006Y-66846000D03*
X125473006Y-67746000D03*
X74258006Y-88284000D03*
X74258006Y-87384000D03*
X73358006Y-87384000D03*
X73358006Y-88284000D03*
X91373006Y-112245000D03*
X91373006Y-111345000D03*
X90473006Y-111345000D03*
X90473006Y-112245000D03*
X129796006Y-67746000D03*
X129796006Y-66846000D03*
X128896006Y-66846000D03*
X128896006Y-67746000D03*
X74258006Y-47208000D03*
X74258006Y-46308000D03*
X73358006Y-46308000D03*
X73358006Y-47208000D03*
D13*
X64999997Y-138399996D03*
D14*
X109258006Y-30093000D03*
X109258006Y-29193000D03*
X108358006Y-29193000D03*
X108358006Y-30093000D03*
X129796006Y-122514000D03*
X129796006Y-121614000D03*
X128896006Y-121614000D03*
X128896006Y-122514000D03*
D13*
X137999992Y-52255554D03*
D14*
X112681006Y-81438000D03*
X112681006Y-80538000D03*
X111781006Y-80538000D03*
X111781006Y-81438000D03*
D13*
X69999997Y-27000000D03*
D14*
X116104006Y-57477000D03*
X116104006Y-56577000D03*
X115204006Y-56577000D03*
X115204006Y-57477000D03*
X126373006Y-122514000D03*
X126373006Y-121614000D03*
X125473006Y-121614000D03*
X125473006Y-122514000D03*
X119527006Y-84861000D03*
X119527006Y-83961000D03*
X118627006Y-83961000D03*
X118627006Y-84861000D03*
X136642006Y-84861000D03*
X136642006Y-83961000D03*
X135742006Y-83961000D03*
X135742006Y-84861000D03*
X119527006Y-115668000D03*
X119527006Y-114768000D03*
X118627006Y-114768000D03*
X118627006Y-115668000D03*
D13*
X71999997Y-21666667D03*
D14*
X84527006Y-95130000D03*
X84527006Y-94230000D03*
X83627006Y-94230000D03*
X83627006Y-95130000D03*
X98219006Y-40362000D03*
X98219006Y-39462000D03*
X97319006Y-39462000D03*
X97319006Y-40362000D03*
D15*
X120717899Y-92206892D03*
X120717899Y-93756892D03*
D13*
X102999991Y-38877777D03*
D15*
X85717899Y-71668892D03*
X85717899Y-73218892D03*
D14*
X112681006Y-74592000D03*
X112681006Y-73692000D03*
X111781006Y-73692000D03*
X111781006Y-74592000D03*
D13*
X102999991Y-39877777D03*
X80833332Y-27000000D03*
X102999997Y-90388886D03*
D14*
X133219006Y-78015000D03*
X133219006Y-77115000D03*
X132319006Y-77115000D03*
X132319006Y-78015000D03*
X122950006Y-95130000D03*
X122950006Y-94230000D03*
X122050006Y-94230000D03*
X122050006Y-95130000D03*
X119527006Y-136206000D03*
X119527006Y-135306000D03*
X118627006Y-135306000D03*
X118627006Y-136206000D03*
D13*
X72000001Y-89388886D03*
D15*
X85717899Y-57976892D03*
X85717899Y-59526892D03*
D14*
X112681006Y-36939000D03*
X112681006Y-36039000D03*
X111781006Y-36039000D03*
X111781006Y-36939000D03*
X98219006Y-33516000D03*
X98219006Y-32616000D03*
X97319006Y-32616000D03*
X97319006Y-33516000D03*
D13*
X71999997Y-25000000D03*
D14*
X98219006Y-112245000D03*
X98219006Y-111345000D03*
X97319006Y-111345000D03*
X97319006Y-112245000D03*
D13*
X128166667Y-27000001D03*
X102999997Y-89388886D03*
D14*
X116104006Y-112245000D03*
X116104006Y-111345000D03*
X115204006Y-111345000D03*
X115204006Y-112245000D03*
X94796006Y-129360000D03*
X94796006Y-128460000D03*
X93896006Y-128460000D03*
X93896006Y-129360000D03*
X119527006Y-67746000D03*
X119527006Y-66846000D03*
X118627006Y-66846000D03*
X118627006Y-67746000D03*
X94796006Y-98553000D03*
X94796006Y-97653000D03*
X93896006Y-97653000D03*
X93896006Y-98553000D03*
D15*
X85717899Y-44284892D03*
X85717899Y-45834892D03*
D14*
X94796006Y-67746000D03*
X94796006Y-66846000D03*
X93896006Y-66846000D03*
X93896006Y-67746000D03*
D13*
X102999998Y-102766663D03*
D14*
X122950006Y-30093000D03*
X122950006Y-29193000D03*
X122050006Y-29193000D03*
X122050006Y-30093000D03*
X116104006Y-136206000D03*
X116104006Y-135306000D03*
X115204006Y-135306000D03*
X115204006Y-136206000D03*
X136642006Y-64323000D03*
X136642006Y-63423000D03*
X135742006Y-63423000D03*
X135742006Y-64323000D03*
D13*
X117833331Y-27000000D03*
D14*
X94796006Y-108822000D03*
X94796006Y-107922000D03*
X93896006Y-107922000D03*
X93896006Y-108822000D03*
D13*
X71999997Y-22500000D03*
D14*
X136642006Y-88284000D03*
X136642006Y-87384000D03*
X135742006Y-87384000D03*
X135742006Y-88284000D03*
D15*
X120717899Y-78514892D03*
X120717899Y-80064892D03*
D13*
X102999997Y-88388886D03*
D14*
X91373006Y-60900000D03*
X91373006Y-60000000D03*
X90473006Y-60000000D03*
X90473006Y-60900000D03*
X129796006Y-74592000D03*
X129796006Y-73692000D03*
X128896006Y-73692000D03*
X128896006Y-74592000D03*
X94796006Y-30093000D03*
X94796006Y-29193000D03*
X93896006Y-29193000D03*
X93896006Y-30093000D03*
X133219006Y-101976000D03*
X133219006Y-101076000D03*
X132319006Y-101076000D03*
X132319006Y-101976000D03*
D13*
X83833332Y-138399995D03*
D15*
X120717899Y-105898892D03*
X120717899Y-107448892D03*
D14*
X133219006Y-95130000D03*
X133219006Y-94230000D03*
X132319006Y-94230000D03*
X132319006Y-95130000D03*
X133219006Y-57477000D03*
X133219006Y-56577000D03*
X132319006Y-56577000D03*
X132319006Y-57477000D03*
X109258006Y-84861000D03*
X109258006Y-83961000D03*
X108358006Y-83961000D03*
X108358006Y-84861000D03*
X112681006Y-95130000D03*
X112681006Y-94230000D03*
X111781006Y-94230000D03*
X111781006Y-95130000D03*
D13*
X102999992Y-51255554D03*
D14*
X74258006Y-78015000D03*
X74258006Y-77115000D03*
X73358006Y-77115000D03*
X73358006Y-78015000D03*
X77681006Y-129360000D03*
X77681006Y-128460000D03*
X76781006Y-128460000D03*
X76781006Y-129360000D03*
X133219006Y-36939000D03*
X133219006Y-36039000D03*
X132319006Y-36039000D03*
X132319006Y-36939000D03*
X119527006Y-95130000D03*
X119527006Y-94230000D03*
X118627006Y-94230000D03*
X118627006Y-95130000D03*
X136642006Y-60900000D03*
X136642006Y-60000000D03*
X135742006Y-60000000D03*
X135742006Y-60900000D03*
X116104006Y-60900000D03*
X116104006Y-60000000D03*
X115204006Y-60000000D03*
X115204006Y-60900000D03*
X87950006Y-54054000D03*
X87950006Y-53154000D03*
X87050006Y-53154000D03*
X87050006Y-54054000D03*
X98219006Y-88284000D03*
X98219006Y-87384000D03*
X97319006Y-87384000D03*
X97319006Y-88284000D03*
X116104006Y-115668000D03*
X116104006Y-114768000D03*
X115204006Y-114768000D03*
X115204006Y-115668000D03*
D13*
X127166667Y-138399995D03*
D14*
X94796006Y-88284000D03*
X94796006Y-87384000D03*
X93896006Y-87384000D03*
X93896006Y-88284000D03*
X74258006Y-108822000D03*
X74258006Y-107922000D03*
X73358006Y-107922000D03*
X73358006Y-108822000D03*
X122950006Y-84861000D03*
X122950006Y-83961000D03*
X122050006Y-83961000D03*
X122050006Y-84861000D03*
D13*
X72000004Y-51255554D03*
D14*
X98219006Y-84861000D03*
X98219006Y-83961000D03*
X97319006Y-83961000D03*
X97319006Y-84861000D03*
X129796006Y-119091000D03*
X129796006Y-118191000D03*
X128896006Y-118191000D03*
X128896006Y-119091000D03*
D15*
X120717899Y-64822892D03*
X120717899Y-66372892D03*
D14*
X116104006Y-91707000D03*
X116104006Y-90807000D03*
X115204006Y-90807000D03*
X115204006Y-91707000D03*
X109258006Y-67746000D03*
X109258006Y-66846000D03*
X108358006Y-66846000D03*
X108358006Y-67746000D03*
X91373006Y-108822000D03*
X91373006Y-107922000D03*
X90473006Y-107922000D03*
X90473006Y-108822000D03*
X112681006Y-98553000D03*
X112681006Y-97653000D03*
X111781006Y-97653000D03*
X111781006Y-98553000D03*
X133219006Y-119091000D03*
X133219006Y-118191000D03*
X132319006Y-118191000D03*
X132319006Y-119091000D03*
D13*
X107000000Y-89388886D03*
D14*
X84527006Y-36939000D03*
X84527006Y-36039000D03*
X83627006Y-36039000D03*
X83627006Y-36939000D03*
D13*
X72000001Y-90388886D03*
D14*
X77681006Y-119091000D03*
X77681006Y-118191000D03*
X76781006Y-118191000D03*
X76781006Y-119091000D03*
X77681006Y-54054000D03*
X77681006Y-53154000D03*
X76781006Y-53154000D03*
X76781006Y-54054000D03*
D13*
X71999997Y-24166667D03*
X72000003Y-63633332D03*
D14*
X119527006Y-71169000D03*
X119527006Y-70269000D03*
X118627006Y-70269000D03*
X118627006Y-71169000D03*
D15*
X120717899Y-71668892D03*
X120717899Y-73218892D03*
D14*
X81104006Y-125937000D03*
X81104006Y-125037000D03*
X80204006Y-125037000D03*
X80204006Y-125937000D03*
X112681006Y-88284000D03*
X112681006Y-87384000D03*
X111781006Y-87384000D03*
X111781006Y-88284000D03*
X116104006Y-132783000D03*
X116104006Y-131883000D03*
X115204006Y-131883000D03*
X115204006Y-132783000D03*
X81104006Y-43785000D03*
X81104006Y-42885000D03*
X80204006Y-42885000D03*
X80204006Y-43785000D03*
X109258006Y-115668000D03*
X109258006Y-114768000D03*
X108358006Y-114768000D03*
X108358006Y-115668000D03*
X101642006Y-125937000D03*
X101642006Y-125037000D03*
X100742006Y-125037000D03*
X100742006Y-125937000D03*
X87950006Y-84861000D03*
X87950006Y-83961000D03*
X87050006Y-83961000D03*
X87050006Y-84861000D03*
X119527006Y-57477000D03*
X119527006Y-56577000D03*
X118627006Y-56577000D03*
X118627006Y-57477000D03*
X112681006Y-60900000D03*
X112681006Y-60000000D03*
X111781006Y-60000000D03*
X111781006Y-60900000D03*
X84527006Y-30093000D03*
X84527006Y-29193000D03*
X83627006Y-29193000D03*
X83627006Y-30093000D03*
X129796006Y-125937000D03*
X129796006Y-125037000D03*
X128896006Y-125037000D03*
X128896006Y-125937000D03*
X84527006Y-132783000D03*
X84527006Y-131883000D03*
X83627006Y-131883000D03*
X83627006Y-132783000D03*
X116104006Y-95130000D03*
X116104006Y-94230000D03*
X115204006Y-94230000D03*
X115204006Y-95130000D03*
X112681006Y-105399000D03*
X112681006Y-104499000D03*
X111781006Y-104499000D03*
X111781006Y-105399000D03*
X84527006Y-64323000D03*
X84527006Y-63423000D03*
X83627006Y-63423000D03*
X83627006Y-64323000D03*
D13*
X107000004Y-40877777D03*
D14*
X101642006Y-36939000D03*
X101642006Y-36039000D03*
X100742006Y-36039000D03*
X100742006Y-36939000D03*
D13*
X91166667Y-138399995D03*
D14*
X136642006Y-101976000D03*
X136642006Y-101076000D03*
X135742006Y-101076000D03*
X135742006Y-101976000D03*
X126373006Y-64323000D03*
X126373006Y-63423000D03*
X125473006Y-63423000D03*
X125473006Y-64323000D03*
X112681006Y-78015000D03*
X112681006Y-77115000D03*
X111781006Y-77115000D03*
X111781006Y-78015000D03*
X112681006Y-136206000D03*
X112681006Y-135306000D03*
X111781006Y-135306000D03*
X111781006Y-136206000D03*
X91373006Y-95130000D03*
X91373006Y-94230000D03*
X90473006Y-94230000D03*
X90473006Y-95130000D03*
X129796006Y-43785000D03*
X129796006Y-42885000D03*
X128896006Y-42885000D03*
X128896006Y-43785000D03*
X98219006Y-95130000D03*
X98219006Y-94230000D03*
X97319006Y-94230000D03*
X97319006Y-95130000D03*
X87950006Y-57477000D03*
X87950006Y-56577000D03*
X87050006Y-56577000D03*
X87050006Y-57477000D03*
D16*
X142000003Y-128899995D03*
D14*
X94796006Y-74592000D03*
X94796006Y-73692000D03*
X93896006Y-73692000D03*
X93896006Y-74592000D03*
X129796006Y-54054000D03*
X129796006Y-53154000D03*
X128896006Y-53154000D03*
X128896006Y-54054000D03*
X77681006Y-101976000D03*
X77681006Y-101076000D03*
X76781006Y-101076000D03*
X76781006Y-101976000D03*
X81104006Y-60900000D03*
X81104006Y-60000000D03*
X80204006Y-60000000D03*
X80204006Y-60900000D03*
X81104006Y-108822000D03*
X81104006Y-107922000D03*
X80204006Y-107922000D03*
X80204006Y-108822000D03*
X94796006Y-91707000D03*
X94796006Y-90807000D03*
X93896006Y-90807000D03*
X93896006Y-91707000D03*
D15*
X120717899Y-126436892D03*
X120717899Y-127986892D03*
D13*
X69166664Y-138399996D03*
D15*
X120717899Y-44284892D03*
X120717899Y-45834892D03*
D13*
X126166667Y-27000001D03*
X102999994Y-63633332D03*
D14*
X77681006Y-122514000D03*
X77681006Y-121614000D03*
X76781006Y-121614000D03*
X76781006Y-122514000D03*
X122950006Y-132783000D03*
X122950006Y-131883000D03*
X122050006Y-131883000D03*
X122050006Y-132783000D03*
X119527006Y-88284000D03*
X119527006Y-87384000D03*
X118627006Y-87384000D03*
X118627006Y-88284000D03*
X136642006Y-105399000D03*
X136642006Y-104499000D03*
X135742006Y-104499000D03*
X135742006Y-105399000D03*
X116104006Y-105399000D03*
X116104006Y-104499000D03*
X115204006Y-104499000D03*
X115204006Y-105399000D03*
X91373006Y-71169000D03*
X91373006Y-70269000D03*
X90473006Y-70269000D03*
X90473006Y-71169000D03*
X98219006Y-132783000D03*
X98219006Y-131883000D03*
X97319006Y-131883000D03*
X97319006Y-132783000D03*
X74258006Y-60900000D03*
X74258006Y-60000000D03*
X73358006Y-60000000D03*
X73358006Y-60900000D03*
X116104006Y-74592000D03*
X116104006Y-73692000D03*
X115204006Y-73692000D03*
X115204006Y-74592000D03*
D13*
X107000002Y-62633332D03*
X138000002Y-20000000D03*
D14*
X109258006Y-136206000D03*
X109258006Y-135306000D03*
X108358006Y-135306000D03*
X108358006Y-136206000D03*
X122950006Y-47208000D03*
X122950006Y-46308000D03*
X122050006Y-46308000D03*
X122050006Y-47208000D03*
X91373006Y-136206000D03*
X91373006Y-135306000D03*
X90473006Y-135306000D03*
X90473006Y-136206000D03*
D13*
X102999995Y-78011109D03*
D14*
X136642006Y-50631000D03*
X136642006Y-49731000D03*
X135742006Y-49731000D03*
X135742006Y-50631000D03*
D13*
X138000001Y-125522218D03*
D14*
X122950006Y-91707000D03*
X122950006Y-90807000D03*
X122050006Y-90807000D03*
X122050006Y-91707000D03*
X136642006Y-30093000D03*
X136642006Y-29193000D03*
X135742006Y-29193000D03*
X135742006Y-30093000D03*
X109258006Y-88284000D03*
X109258006Y-87384000D03*
X108358006Y-87384000D03*
X108358006Y-88284000D03*
X122950006Y-57477000D03*
X122950006Y-56577000D03*
X122050006Y-56577000D03*
X122050006Y-57477000D03*
X84527006Y-88284000D03*
X84527006Y-87384000D03*
X83627006Y-87384000D03*
X83627006Y-88284000D03*
X91373006Y-36939000D03*
X91373006Y-36039000D03*
X90473006Y-36039000D03*
X90473006Y-36939000D03*
D13*
X71999997Y-127522218D03*
D14*
X84527006Y-108822000D03*
X84527006Y-107922000D03*
X83627006Y-107922000D03*
X83627006Y-108822000D03*
X101642006Y-88284000D03*
X101642006Y-87384000D03*
X100742006Y-87384000D03*
X100742006Y-88284000D03*
X84527006Y-122514000D03*
X84527006Y-121614000D03*
X83627006Y-121614000D03*
X83627006Y-122514000D03*
X119527006Y-132783000D03*
X119527006Y-131883000D03*
X118627006Y-131883000D03*
X118627006Y-132783000D03*
X112681006Y-91707000D03*
X112681006Y-90807000D03*
X111781006Y-90807000D03*
X111781006Y-91707000D03*
X77681006Y-78015000D03*
X77681006Y-77115000D03*
X76781006Y-77115000D03*
X76781006Y-78015000D03*
D17*
X100992899Y-79642392D03*
X102012899Y-79642392D03*
D14*
X133219006Y-40362000D03*
X133219006Y-39462000D03*
X132319006Y-39462000D03*
X132319006Y-40362000D03*
X84527006Y-54054000D03*
X84527006Y-53154000D03*
X83627006Y-53154000D03*
X83627006Y-54054000D03*
X133219006Y-112245000D03*
X133219006Y-111345000D03*
X132319006Y-111345000D03*
X132319006Y-112245000D03*
X116104006Y-101976000D03*
X116104006Y-101076000D03*
X115204006Y-101076000D03*
X115204006Y-101976000D03*
D13*
X106999998Y-114144441D03*
X137999998Y-100766663D03*
D14*
X122950006Y-108822000D03*
X122950006Y-107922000D03*
X122050006Y-107922000D03*
X122050006Y-108822000D03*
X84527006Y-91707000D03*
X84527006Y-90807000D03*
X83627006Y-90807000D03*
X83627006Y-91707000D03*
D13*
X72000002Y-75011109D03*
D14*
X126373006Y-108822000D03*
X126373006Y-107922000D03*
X125473006Y-107922000D03*
X125473006Y-108822000D03*
X87950006Y-112245000D03*
X87950006Y-111345000D03*
X87050006Y-111345000D03*
X87050006Y-112245000D03*
D13*
X102999997Y-87388886D03*
X127166667Y-27000001D03*
D14*
X122950006Y-78015000D03*
X122950006Y-77115000D03*
X122050006Y-77115000D03*
X122050006Y-78015000D03*
X77681006Y-40362000D03*
X77681006Y-39462000D03*
X76781006Y-39462000D03*
X76781006Y-40362000D03*
X109258006Y-119091000D03*
X109258006Y-118191000D03*
X108358006Y-118191000D03*
X108358006Y-119091000D03*
X81104006Y-74592000D03*
X81104006Y-73692000D03*
X80204006Y-73692000D03*
X80204006Y-74592000D03*
X112681006Y-30093000D03*
X112681006Y-29193000D03*
X111781006Y-29193000D03*
X111781006Y-30093000D03*
X101642006Y-122514000D03*
X101642006Y-121614000D03*
X100742006Y-121614000D03*
X100742006Y-122514000D03*
D17*
X101000006Y-38543000D03*
X102020006Y-38543000D03*
D14*
X77681006Y-33516000D03*
X77681006Y-32616000D03*
X76781006Y-32616000D03*
X76781006Y-33516000D03*
X77681006Y-71169000D03*
X77681006Y-70269000D03*
X76781006Y-70269000D03*
X76781006Y-71169000D03*
D13*
X72000002Y-78011109D03*
D14*
X74258006Y-132783000D03*
X74258006Y-131883000D03*
X73358006Y-131883000D03*
X73358006Y-132783000D03*
X126373006Y-71169000D03*
X126373006Y-70269000D03*
X125473006Y-70269000D03*
X125473006Y-71169000D03*
X112681006Y-122514000D03*
X112681006Y-121614000D03*
X111781006Y-121614000D03*
X111781006Y-122514000D03*
X126373006Y-33516000D03*
X126373006Y-32616000D03*
X125473006Y-32616000D03*
X125473006Y-33516000D03*
X77681006Y-108822000D03*
X77681006Y-107922000D03*
X76781006Y-107922000D03*
X76781006Y-108822000D03*
X116104006Y-119091000D03*
X116104006Y-118191000D03*
X115204006Y-118191000D03*
X115204006Y-119091000D03*
X119527006Y-33516000D03*
X119527006Y-32616000D03*
X118627006Y-32616000D03*
X118627006Y-33516000D03*
X84527006Y-81438000D03*
X84527006Y-80538000D03*
X83627006Y-80538000D03*
X83627006Y-81438000D03*
D13*
X71999997Y-140399995D03*
D14*
X122950006Y-112245000D03*
X122950006Y-111345000D03*
X122050006Y-111345000D03*
X122050006Y-112245000D03*
X101642006Y-112245000D03*
X101642006Y-111345000D03*
X100742006Y-111345000D03*
X100742006Y-112245000D03*
X129796006Y-71169000D03*
X129796006Y-70269000D03*
X128896006Y-70269000D03*
X128896006Y-71169000D03*
D13*
X107000002Y-65633332D03*
X137999991Y-40877777D03*
D14*
X112681006Y-50631000D03*
X112681006Y-49731000D03*
X111781006Y-49731000D03*
X111781006Y-50631000D03*
X101642006Y-74592000D03*
X101642006Y-73692000D03*
X100742006Y-73692000D03*
X100742006Y-74592000D03*
X94796006Y-50631000D03*
X94796006Y-49731000D03*
X93896006Y-49731000D03*
X93896006Y-50631000D03*
X77681006Y-67746000D03*
X77681006Y-66846000D03*
X76781006Y-66846000D03*
X76781006Y-67746000D03*
X126373006Y-88284000D03*
X126373006Y-87384000D03*
X125473006Y-87384000D03*
X125473006Y-88284000D03*
X101642006Y-91707000D03*
X101642006Y-90807000D03*
X100742006Y-90807000D03*
X100742006Y-91707000D03*
X77681006Y-84861000D03*
X77681006Y-83961000D03*
X76781006Y-83961000D03*
X76781006Y-84861000D03*
D13*
X72000006Y-37877777D03*
D14*
X119527006Y-91707000D03*
X119527006Y-90807000D03*
X118627006Y-90807000D03*
X118627006Y-91707000D03*
X109258006Y-98553000D03*
X109258006Y-97653000D03*
X108358006Y-97653000D03*
X108358006Y-98553000D03*
X116104006Y-122514000D03*
X116104006Y-121614000D03*
X115204006Y-121614000D03*
X115204006Y-122514000D03*
X84527006Y-60900000D03*
X84527006Y-60000000D03*
X83627006Y-60000000D03*
X83627006Y-60900000D03*
D13*
X138000000Y-113144441D03*
D14*
X87950006Y-78015000D03*
X87950006Y-77115000D03*
X87050006Y-77115000D03*
X87050006Y-78015000D03*
X87950006Y-88284000D03*
X87950006Y-87384000D03*
X87050006Y-87384000D03*
X87050006Y-88284000D03*
X122950006Y-60900000D03*
X122950006Y-60000000D03*
X122050006Y-60000000D03*
X122050006Y-60900000D03*
X74258006Y-50631000D03*
X74258006Y-49731000D03*
X73358006Y-49731000D03*
X73358006Y-50631000D03*
D13*
X67499997Y-27000000D03*
X140833336Y-27000000D03*
X106999996Y-126522218D03*
D14*
X112681006Y-64323000D03*
X112681006Y-63423000D03*
X111781006Y-63423000D03*
X111781006Y-64323000D03*
X109258006Y-122514000D03*
X109258006Y-121614000D03*
X108358006Y-121614000D03*
X108358006Y-122514000D03*
D13*
X107000002Y-64633332D03*
D14*
X81104006Y-71169000D03*
X81104006Y-70269000D03*
X80204006Y-70269000D03*
X80204006Y-71169000D03*
X81104006Y-30093000D03*
X81104006Y-29193000D03*
X80204006Y-29193000D03*
X80204006Y-30093000D03*
D13*
X65833331Y-138399996D03*
D14*
X87950006Y-30093000D03*
X87950006Y-29193000D03*
X87050006Y-29193000D03*
X87050006Y-30093000D03*
D13*
X65833331Y-27000000D03*
X142500003Y-138399996D03*
D14*
X87950006Y-136206000D03*
X87950006Y-135306000D03*
X87050006Y-135306000D03*
X87050006Y-136206000D03*
D15*
X120717899Y-133282892D03*
X120717899Y-134832892D03*
D14*
X91373006Y-54054000D03*
X91373006Y-53154000D03*
X90473006Y-53154000D03*
X90473006Y-54054000D03*
D13*
X103000001Y-124522218D03*
D14*
X74258006Y-129360000D03*
X74258006Y-128460000D03*
X73358006Y-128460000D03*
X73358006Y-129360000D03*
X77681006Y-36939000D03*
X77681006Y-36039000D03*
X76781006Y-36039000D03*
X76781006Y-36939000D03*
X87950006Y-40362000D03*
X87950006Y-39462000D03*
X87050006Y-39462000D03*
X87050006Y-40362000D03*
D13*
X102999991Y-37877777D03*
X81833332Y-27000000D03*
D14*
X119527006Y-40362000D03*
X119527006Y-39462000D03*
X118627006Y-39462000D03*
X118627006Y-40362000D03*
X87950006Y-67746000D03*
X87950006Y-66846000D03*
X87050006Y-66846000D03*
X87050006Y-67746000D03*
D13*
X72000000Y-99766663D03*
X137999992Y-50255554D03*
X107000001Y-77011109D03*
D14*
X87950006Y-71169000D03*
X87950006Y-70269000D03*
X87050006Y-70269000D03*
X87050006Y-71169000D03*
X101642006Y-67746000D03*
X101642006Y-66846000D03*
X100742006Y-66846000D03*
X100742006Y-67746000D03*
D13*
X141666669Y-138399996D03*
D14*
X136642006Y-54054000D03*
X136642006Y-53154000D03*
X135742006Y-53154000D03*
X135742006Y-54054000D03*
X122950006Y-105399000D03*
X122950006Y-104499000D03*
X122050006Y-104499000D03*
X122050006Y-105399000D03*
X84527006Y-78015000D03*
X84527006Y-77115000D03*
X83627006Y-77115000D03*
X83627006Y-78015000D03*
D13*
X102999994Y-64633332D03*
D14*
X129796006Y-50631000D03*
X129796006Y-49731000D03*
X128896006Y-49731000D03*
X128896006Y-50631000D03*
D17*
X136092898Y-65942392D03*
X137112898Y-65942392D03*
D14*
X94796006Y-78015000D03*
X94796006Y-77115000D03*
X93896006Y-77115000D03*
X93896006Y-78015000D03*
X133219006Y-84861000D03*
X133219006Y-83961000D03*
X132319006Y-83961000D03*
X132319006Y-84861000D03*
D15*
X85717899Y-105898892D03*
X85717899Y-107448892D03*
D13*
X107000000Y-88388886D03*
D14*
X87950006Y-122514000D03*
X87950006Y-121614000D03*
X87050006Y-121614000D03*
X87050006Y-122514000D03*
D13*
X118833331Y-138399995D03*
X93166667Y-138399995D03*
D14*
X109258006Y-105399000D03*
X109258006Y-104499000D03*
X108358006Y-104499000D03*
X108358006Y-105399000D03*
X94796006Y-33516000D03*
X94796006Y-32616000D03*
X93896006Y-32616000D03*
X93896006Y-33516000D03*
X77681006Y-136206000D03*
X77681006Y-135306000D03*
X76781006Y-135306000D03*
X76781006Y-136206000D03*
D13*
X107000001Y-78011109D03*
D14*
X133219006Y-74592000D03*
X133219006Y-73692000D03*
X132319006Y-73692000D03*
X132319006Y-74592000D03*
D13*
X137999994Y-64633332D03*
X72000004Y-53255554D03*
D14*
X101642006Y-84861000D03*
X101642006Y-83961000D03*
X100742006Y-83961000D03*
X100742006Y-84861000D03*
X133219006Y-71169000D03*
X133219006Y-70269000D03*
X132319006Y-70269000D03*
X132319006Y-71169000D03*
X94796006Y-71169000D03*
X94796006Y-70269000D03*
X93896006Y-70269000D03*
X93896006Y-71169000D03*
X94796006Y-136206000D03*
X94796006Y-135306000D03*
X93896006Y-135306000D03*
X93896006Y-136206000D03*
D17*
X135972899Y-107043392D03*
X136992899Y-107043392D03*
D14*
X98219006Y-60900000D03*
X98219006Y-60000000D03*
X97319006Y-60000000D03*
X97319006Y-60900000D03*
X116104006Y-47208000D03*
X116104006Y-46308000D03*
X115204006Y-46308000D03*
X115204006Y-47208000D03*
D13*
X140000003Y-138399996D03*
D14*
X122950006Y-81438000D03*
X122950006Y-80538000D03*
X122050006Y-80538000D03*
X122050006Y-81438000D03*
X119527006Y-47208000D03*
X119527006Y-46308000D03*
X118627006Y-46308000D03*
X118627006Y-47208000D03*
D13*
X137999994Y-65633332D03*
D14*
X122950006Y-129360000D03*
X122950006Y-128460000D03*
X122050006Y-128460000D03*
X122050006Y-129360000D03*
X94796006Y-122514000D03*
X94796006Y-121614000D03*
X93896006Y-121614000D03*
X93896006Y-122514000D03*
X101642006Y-105399000D03*
X101642006Y-104499000D03*
X100742006Y-104499000D03*
X100742006Y-105399000D03*
X122950006Y-98553000D03*
X122950006Y-97653000D03*
X122050006Y-97653000D03*
X122050006Y-98553000D03*
X94796006Y-40362000D03*
X94796006Y-39462000D03*
X93896006Y-39462000D03*
X93896006Y-40362000D03*
X81104006Y-40362000D03*
X81104006Y-39462000D03*
X80204006Y-39462000D03*
X80204006Y-40362000D03*
X77681006Y-88284000D03*
X77681006Y-87384000D03*
X76781006Y-87384000D03*
X76781006Y-88284000D03*
X109258006Y-33516000D03*
X109258006Y-32616000D03*
X108358006Y-32616000D03*
X108358006Y-33516000D03*
X119527006Y-81438000D03*
X119527006Y-80538000D03*
X118627006Y-80538000D03*
X118627006Y-81438000D03*
D13*
X138000002Y-24166667D03*
D14*
X84527006Y-136206000D03*
X84527006Y-135306000D03*
X83627006Y-135306000D03*
X83627006Y-136206000D03*
X112681006Y-67746000D03*
X112681006Y-66846000D03*
X111781006Y-66846000D03*
X111781006Y-67746000D03*
X74258006Y-95130000D03*
X74258006Y-94230000D03*
X73358006Y-94230000D03*
X73358006Y-95130000D03*
X94796006Y-54054000D03*
X94796006Y-53154000D03*
X93896006Y-53154000D03*
X93896006Y-54054000D03*
X136642006Y-74592000D03*
X136642006Y-73692000D03*
X135742006Y-73692000D03*
X135742006Y-74592000D03*
X119527006Y-74592000D03*
X119527006Y-73692000D03*
X118627006Y-73692000D03*
X118627006Y-74592000D03*
X112681006Y-33516000D03*
X112681006Y-32616000D03*
X111781006Y-32616000D03*
X111781006Y-33516000D03*
D13*
X138000001Y-124522218D03*
X106999998Y-112144441D03*
X71999997Y-142066661D03*
X138000001Y-126522218D03*
D14*
X126373006Y-60900000D03*
X126373006Y-60000000D03*
X125473006Y-60000000D03*
X125473006Y-60900000D03*
X101642006Y-132783000D03*
X101642006Y-131883000D03*
X100742006Y-131883000D03*
X100742006Y-132783000D03*
X84527006Y-115668000D03*
X84527006Y-114768000D03*
X83627006Y-114768000D03*
X83627006Y-115668000D03*
X122950006Y-40362000D03*
X122950006Y-39462000D03*
X122050006Y-39462000D03*
X122050006Y-40362000D03*
D17*
X135972899Y-93343392D03*
X136992899Y-93343392D03*
D14*
X126373006Y-30093000D03*
X126373006Y-29193000D03*
X125473006Y-29193000D03*
X125473006Y-30093000D03*
X98219006Y-119091000D03*
X98219006Y-118191000D03*
X97319006Y-118191000D03*
X97319006Y-119091000D03*
X109258006Y-50631000D03*
X109258006Y-49731000D03*
X108358006Y-49731000D03*
X108358006Y-50631000D03*
X126373006Y-43785000D03*
X126373006Y-42885000D03*
X125473006Y-42885000D03*
X125473006Y-43785000D03*
X98219006Y-129360000D03*
X98219006Y-128460000D03*
X97319006Y-128460000D03*
X97319006Y-129360000D03*
D13*
X106999999Y-102766663D03*
D14*
X87950006Y-125937000D03*
X87950006Y-125037000D03*
X87050006Y-125037000D03*
X87050006Y-125937000D03*
X129796006Y-132783000D03*
X129796006Y-131883000D03*
X128896006Y-131883000D03*
X128896006Y-132783000D03*
X109258006Y-112245000D03*
X109258006Y-111345000D03*
X108358006Y-111345000D03*
X108358006Y-112245000D03*
X98219006Y-122514000D03*
X98219006Y-121614000D03*
X97319006Y-121614000D03*
X97319006Y-122514000D03*
D13*
X138000002Y-142066661D03*
D14*
X133219006Y-60900000D03*
X133219006Y-60000000D03*
X132319006Y-60000000D03*
X132319006Y-60900000D03*
X112681006Y-57477000D03*
X112681006Y-56577000D03*
X111781006Y-56577000D03*
X111781006Y-57477000D03*
D13*
X72000003Y-65633332D03*
D14*
X133219006Y-88284000D03*
X133219006Y-87384000D03*
X132319006Y-87384000D03*
X132319006Y-88284000D03*
D13*
X137999993Y-53255554D03*
D14*
X101642006Y-81438000D03*
X101642006Y-80538000D03*
X100742006Y-80538000D03*
X100742006Y-81438000D03*
D13*
X103000000Y-113144441D03*
D14*
X109258006Y-36939000D03*
X109258006Y-36039000D03*
X108358006Y-36039000D03*
X108358006Y-36939000D03*
X112681006Y-101976000D03*
X112681006Y-101076000D03*
X111781006Y-101076000D03*
X111781006Y-101976000D03*
X116104006Y-67746000D03*
X116104006Y-66846000D03*
X115204006Y-66846000D03*
X115204006Y-67746000D03*
X74258006Y-74592000D03*
X74258006Y-73692000D03*
X73358006Y-73692000D03*
X73358006Y-74592000D03*
D13*
X71999997Y-145399995D03*
D14*
X91373006Y-88284000D03*
X91373006Y-87384000D03*
X90473006Y-87384000D03*
X90473006Y-88284000D03*
D17*
X135992899Y-79642392D03*
X137012899Y-79642392D03*
D14*
X81104006Y-122514000D03*
X81104006Y-121614000D03*
X80204006Y-121614000D03*
X80204006Y-122514000D03*
D15*
X85717899Y-92206892D03*
X85717899Y-93756892D03*
D13*
X117833331Y-138399995D03*
X68333331Y-138399996D03*
X71999999Y-112144441D03*
D14*
X122950006Y-64323000D03*
X122950006Y-63423000D03*
X122050006Y-63423000D03*
X122050006Y-64323000D03*
D13*
X115833331Y-138399995D03*
D14*
X119527006Y-122514000D03*
X119527006Y-121614000D03*
X118627006Y-121614000D03*
X118627006Y-122514000D03*
X119527006Y-78015000D03*
X119527006Y-77115000D03*
X118627006Y-77115000D03*
X118627006Y-78015000D03*
D13*
X138000002Y-142899995D03*
D16*
X142000003Y-23000000D03*
D13*
X137999997Y-87388886D03*
D14*
X136642006Y-129360000D03*
X136642006Y-128460000D03*
X135742006Y-128460000D03*
X135742006Y-129360000D03*
X136642006Y-71169000D03*
X136642006Y-70269000D03*
X135742006Y-70269000D03*
X135742006Y-71169000D03*
D13*
X137999991Y-39877777D03*
D17*
X100972899Y-107043392D03*
X101992899Y-107043392D03*
D14*
X74258006Y-40362000D03*
X74258006Y-39462000D03*
X73358006Y-39462000D03*
X73358006Y-40362000D03*
X94796006Y-43785000D03*
X94796006Y-42885000D03*
X93896006Y-42885000D03*
X93896006Y-43785000D03*
X98219006Y-136206000D03*
X98219006Y-135306000D03*
X97319006Y-135306000D03*
X97319006Y-136206000D03*
X98219006Y-50631000D03*
X98219006Y-49731000D03*
X97319006Y-49731000D03*
X97319006Y-50631000D03*
X122950006Y-101976000D03*
X122950006Y-101076000D03*
X122050006Y-101076000D03*
X122050006Y-101976000D03*
X98219006Y-105399000D03*
X98219006Y-104499000D03*
X97319006Y-104499000D03*
X97319006Y-105399000D03*
D15*
X85717899Y-30592892D03*
X85717899Y-32142892D03*
D13*
X103000000Y-114144441D03*
X138000002Y-20833334D03*
D14*
X98219006Y-43785000D03*
X98219006Y-42885000D03*
X97319006Y-42885000D03*
X97319006Y-43785000D03*
X84527006Y-43785000D03*
X84527006Y-42885000D03*
X83627006Y-42885000D03*
X83627006Y-43785000D03*
X109258006Y-81438000D03*
X109258006Y-80538000D03*
X108358006Y-80538000D03*
X108358006Y-81438000D03*
X98219006Y-30093000D03*
X98219006Y-29193000D03*
X97319006Y-29193000D03*
X97319006Y-30093000D03*
D13*
X106999997Y-125522218D03*
D14*
X77681006Y-74592000D03*
X77681006Y-73692000D03*
X76781006Y-73692000D03*
X76781006Y-74592000D03*
X136642006Y-108822000D03*
X136642006Y-107922000D03*
X135742006Y-107922000D03*
X135742006Y-108822000D03*
X91373006Y-105399000D03*
X91373006Y-104499000D03*
X90473006Y-104499000D03*
X90473006Y-105399000D03*
X129796006Y-115668000D03*
X129796006Y-114768000D03*
X128896006Y-114768000D03*
X128896006Y-115668000D03*
D13*
X71999998Y-125522218D03*
D14*
X129796006Y-33516000D03*
X129796006Y-32616000D03*
X128896006Y-32616000D03*
X128896006Y-33516000D03*
X136642006Y-33516000D03*
X136642006Y-32616000D03*
X135742006Y-32616000D03*
X135742006Y-33516000D03*
X112681006Y-108822000D03*
X112681006Y-107922000D03*
X111781006Y-107922000D03*
X111781006Y-108822000D03*
X122950006Y-74592000D03*
X122950006Y-73692000D03*
X122050006Y-73692000D03*
X122050006Y-74592000D03*
X101642006Y-129360000D03*
X101642006Y-128460000D03*
X100742006Y-128460000D03*
X100742006Y-129360000D03*
X98219006Y-101976000D03*
X98219006Y-101076000D03*
X97319006Y-101076000D03*
X97319006Y-101976000D03*
X129796006Y-136206000D03*
X129796006Y-135306000D03*
X128896006Y-135306000D03*
X128896006Y-136206000D03*
X94796006Y-112245000D03*
X94796006Y-111345000D03*
X93896006Y-111345000D03*
X93896006Y-112245000D03*
D13*
X138000002Y-140399995D03*
D14*
X91373006Y-43785000D03*
X91373006Y-42885000D03*
X90473006Y-42885000D03*
X90473006Y-43785000D03*
X74258006Y-122514000D03*
X74258006Y-121614000D03*
X73358006Y-121614000D03*
X73358006Y-122514000D03*
D13*
X72000000Y-100766663D03*
X94166667Y-27000001D03*
D14*
X129796006Y-129360000D03*
X129796006Y-128460000D03*
X128896006Y-128460000D03*
X128896006Y-129360000D03*
D13*
X137999995Y-76011109D03*
D17*
X136000006Y-52149500D03*
X137020006Y-52149500D03*
D13*
X116833331Y-138399995D03*
D14*
X74258006Y-81438000D03*
X74258006Y-80538000D03*
X73358006Y-80538000D03*
X73358006Y-81438000D03*
X91373006Y-33516000D03*
X91373006Y-32616000D03*
X90473006Y-32616000D03*
X90473006Y-33516000D03*
X77681006Y-125937000D03*
X77681006Y-125037000D03*
X76781006Y-125037000D03*
X76781006Y-125937000D03*
D13*
X106999999Y-99766663D03*
D14*
X77681006Y-95130000D03*
X77681006Y-94230000D03*
X76781006Y-94230000D03*
X76781006Y-95130000D03*
X136642006Y-112245000D03*
X136642006Y-111345000D03*
X135742006Y-111345000D03*
X135742006Y-112245000D03*
D13*
X91166667Y-27000001D03*
D14*
X129796006Y-40362000D03*
X129796006Y-39462000D03*
X128896006Y-39462000D03*
X128896006Y-40362000D03*
D13*
X71999997Y-141233328D03*
D14*
X116104006Y-108822000D03*
X116104006Y-107922000D03*
X115204006Y-107922000D03*
X115204006Y-108822000D03*
X119527006Y-30093000D03*
X119527006Y-29193000D03*
X118627006Y-29193000D03*
X118627006Y-30093000D03*
D13*
X72000006Y-38877777D03*
D14*
X84527006Y-101976000D03*
X84527006Y-101076000D03*
X83627006Y-101076000D03*
X83627006Y-101976000D03*
X136642006Y-57477000D03*
X136642006Y-56577000D03*
X135742006Y-56577000D03*
X135742006Y-57477000D03*
D13*
X143333336Y-27000000D03*
D14*
X84527006Y-57477000D03*
X84527006Y-56577000D03*
X83627006Y-56577000D03*
X83627006Y-57477000D03*
D13*
X118833331Y-27000000D03*
D14*
X77681006Y-60900000D03*
X77681006Y-60000000D03*
X76781006Y-60000000D03*
X76781006Y-60900000D03*
X129796006Y-108822000D03*
X129796006Y-107922000D03*
X128896006Y-107922000D03*
X128896006Y-108822000D03*
X126373006Y-40362000D03*
X126373006Y-39462000D03*
X125473006Y-39462000D03*
X125473006Y-40362000D03*
X91373006Y-81438000D03*
X91373006Y-80538000D03*
X90473006Y-80538000D03*
X90473006Y-81438000D03*
D13*
X67499997Y-138399996D03*
D14*
X77681006Y-43785000D03*
X77681006Y-42885000D03*
X76781006Y-42885000D03*
X76781006Y-43785000D03*
X101642006Y-60900000D03*
X101642006Y-60000000D03*
X100742006Y-60000000D03*
X100742006Y-60900000D03*
X112681006Y-115668000D03*
X112681006Y-114768000D03*
X111781006Y-114768000D03*
X111781006Y-115668000D03*
D13*
X142500003Y-27000000D03*
X138000002Y-21666667D03*
X107000000Y-90388886D03*
D14*
X74258006Y-125937000D03*
X74258006Y-125037000D03*
X73358006Y-125037000D03*
X73358006Y-125937000D03*
X109258006Y-43785000D03*
X109258006Y-42885000D03*
X108358006Y-42885000D03*
X108358006Y-43785000D03*
D13*
X71999997Y-20833334D03*
X116833331Y-27000000D03*
X92166667Y-27000001D03*
X103000001Y-127522218D03*
D14*
X98219006Y-64323000D03*
X98219006Y-63423000D03*
X97319006Y-63423000D03*
X97319006Y-64323000D03*
X101642006Y-47208000D03*
X101642006Y-46308000D03*
X100742006Y-46308000D03*
X100742006Y-47208000D03*
D15*
X120717899Y-57976892D03*
X120717899Y-59526892D03*
D13*
X106999997Y-124522218D03*
D14*
X81104006Y-119091000D03*
X81104006Y-118191000D03*
X80204006Y-118191000D03*
X80204006Y-119091000D03*
X129796006Y-78015000D03*
X129796006Y-77115000D03*
X128896006Y-77115000D03*
X128896006Y-78015000D03*
X91373006Y-67746000D03*
X91373006Y-66846000D03*
X90473006Y-66846000D03*
X90473006Y-67746000D03*
X74258006Y-84861000D03*
X74258006Y-83961000D03*
X73358006Y-83961000D03*
X73358006Y-84861000D03*
X133219006Y-81438000D03*
X133219006Y-80538000D03*
X132319006Y-80538000D03*
X132319006Y-81438000D03*
X84527006Y-129360000D03*
X84527006Y-128460000D03*
X83627006Y-128460000D03*
X83627006Y-129360000D03*
X122950006Y-54054000D03*
X122950006Y-53154000D03*
X122050006Y-53154000D03*
X122050006Y-54054000D03*
X94796006Y-125937000D03*
X94796006Y-125037000D03*
X93896006Y-125037000D03*
X93896006Y-125937000D03*
X116104006Y-43785000D03*
X116104006Y-42885000D03*
X115204006Y-42885000D03*
X115204006Y-43785000D03*
X81104006Y-33516000D03*
X81104006Y-32616000D03*
X80204006Y-32616000D03*
X80204006Y-33516000D03*
X84527006Y-50631000D03*
X84527006Y-49731000D03*
X83627006Y-49731000D03*
X83627006Y-50631000D03*
X126373006Y-84861000D03*
X126373006Y-83961000D03*
X125473006Y-83961000D03*
X125473006Y-84861000D03*
D13*
X126166667Y-138399995D03*
D14*
X91373006Y-98553000D03*
X91373006Y-97653000D03*
X90473006Y-97653000D03*
X90473006Y-98553000D03*
X91373006Y-40362000D03*
X91373006Y-39462000D03*
X90473006Y-39462000D03*
X90473006Y-40362000D03*
D13*
X82833332Y-27000000D03*
D14*
X98219006Y-125937000D03*
X98219006Y-125037000D03*
X97319006Y-125037000D03*
X97319006Y-125937000D03*
X87950006Y-36939000D03*
X87950006Y-36039000D03*
X87050006Y-36039000D03*
X87050006Y-36939000D03*
D15*
X120717899Y-51130892D03*
X120717899Y-52680892D03*
D14*
X74258006Y-67746000D03*
X74258006Y-66846000D03*
X73358006Y-66846000D03*
X73358006Y-67746000D03*
X109258006Y-54054000D03*
X109258006Y-53154000D03*
X108358006Y-53154000D03*
X108358006Y-54054000D03*
X133219006Y-105399000D03*
X133219006Y-104499000D03*
X132319006Y-104499000D03*
X132319006Y-105399000D03*
D13*
X128166667Y-138399995D03*
D14*
X74258006Y-71169000D03*
X74258006Y-70269000D03*
X73358006Y-70269000D03*
X73358006Y-71169000D03*
X101642006Y-64323000D03*
X101642006Y-63423000D03*
X100742006Y-63423000D03*
X100742006Y-64323000D03*
D15*
X85717899Y-85360892D03*
X85717899Y-86910892D03*
D14*
X81104006Y-54054000D03*
X81104006Y-53154000D03*
X80204006Y-53154000D03*
X80204006Y-54054000D03*
X136642006Y-36939000D03*
X136642006Y-36039000D03*
X135742006Y-36039000D03*
X135742006Y-36939000D03*
D13*
X71999997Y-143733328D03*
D14*
X91373006Y-78015000D03*
X91373006Y-77115000D03*
X90473006Y-77115000D03*
X90473006Y-78015000D03*
D13*
X102999991Y-40877777D03*
D14*
X119527006Y-50631000D03*
X119527006Y-49731000D03*
X118627006Y-49731000D03*
X118627006Y-50631000D03*
D13*
X72000002Y-76011109D03*
D14*
X101642006Y-115668000D03*
X101642006Y-114768000D03*
X100742006Y-114768000D03*
X100742006Y-115668000D03*
X129796006Y-91707000D03*
X129796006Y-90807000D03*
X128896006Y-90807000D03*
X128896006Y-91707000D03*
X81104006Y-112245000D03*
X81104006Y-111345000D03*
X80204006Y-111345000D03*
X80204006Y-112245000D03*
X91373006Y-64323000D03*
X91373006Y-63423000D03*
X90473006Y-63423000D03*
X90473006Y-64323000D03*
D15*
X85717899Y-64822892D03*
X85717899Y-66372892D03*
D14*
X133219006Y-33516000D03*
X133219006Y-32616000D03*
X132319006Y-32616000D03*
X132319006Y-33516000D03*
X119527006Y-64323000D03*
X119527006Y-63423000D03*
X118627006Y-63423000D03*
X118627006Y-64323000D03*
D13*
X137999997Y-89388886D03*
D14*
X126373006Y-101976000D03*
X126373006Y-101076000D03*
X125473006Y-101076000D03*
X125473006Y-101976000D03*
X129796006Y-30093000D03*
X129796006Y-29193000D03*
X128896006Y-29193000D03*
X128896006Y-30093000D03*
D17*
X135972899Y-120743392D03*
X136992899Y-120743392D03*
D14*
X122950006Y-33516000D03*
X122950006Y-32616000D03*
X122050006Y-32616000D03*
X122050006Y-33516000D03*
D13*
X102999995Y-77011109D03*
D14*
X109258006Y-101976000D03*
X109258006Y-101076000D03*
X108358006Y-101076000D03*
X108358006Y-101976000D03*
X126373006Y-105399000D03*
X126373006Y-104499000D03*
X125473006Y-104499000D03*
X125473006Y-105399000D03*
X136642006Y-47208000D03*
X136642006Y-46308000D03*
X135742006Y-46308000D03*
X135742006Y-47208000D03*
X112681006Y-112245000D03*
X112681006Y-111345000D03*
X111781006Y-111345000D03*
X111781006Y-112245000D03*
D16*
X67999997Y-142399995D03*
D13*
X102999992Y-50255554D03*
D14*
X129796006Y-57477000D03*
X129796006Y-56577000D03*
X128896006Y-56577000D03*
X128896006Y-57477000D03*
D13*
X102999995Y-75011109D03*
D14*
X122950006Y-119091000D03*
X122950006Y-118191000D03*
X122050006Y-118191000D03*
X122050006Y-119091000D03*
X129796006Y-64323000D03*
X129796006Y-63423000D03*
X128896006Y-63423000D03*
X128896006Y-64323000D03*
X91373006Y-74592000D03*
X91373006Y-73692000D03*
X90473006Y-73692000D03*
X90473006Y-74592000D03*
D13*
X138000002Y-22500000D03*
X107000005Y-38877777D03*
D14*
X129796006Y-60900000D03*
X129796006Y-60000000D03*
X128896006Y-60000000D03*
X128896006Y-60900000D03*
X126373006Y-81438000D03*
X126373006Y-80538000D03*
X125473006Y-80538000D03*
X125473006Y-81438000D03*
X116104006Y-78015000D03*
X116104006Y-77115000D03*
X115204006Y-77115000D03*
X115204006Y-78015000D03*
X81104006Y-50631000D03*
X81104006Y-49731000D03*
X80204006Y-49731000D03*
X80204006Y-50631000D03*
D15*
X85717899Y-119590892D03*
X85717899Y-121140892D03*
D14*
X129796006Y-105399000D03*
X129796006Y-104499000D03*
X128896006Y-104499000D03*
X128896006Y-105399000D03*
X87950006Y-91707000D03*
X87950006Y-90807000D03*
X87050006Y-90807000D03*
X87050006Y-91707000D03*
X109258006Y-71169000D03*
X109258006Y-70269000D03*
X108358006Y-70269000D03*
X108358006Y-71169000D03*
X81104006Y-98553000D03*
X81104006Y-97653000D03*
X80204006Y-97653000D03*
X80204006Y-98553000D03*
X133219006Y-43785000D03*
X133219006Y-42885000D03*
X132319006Y-42885000D03*
X132319006Y-43785000D03*
X101642006Y-43785000D03*
X101642006Y-42885000D03*
X100742006Y-42885000D03*
X100742006Y-43785000D03*
X133219006Y-122514000D03*
X133219006Y-121614000D03*
X132319006Y-121614000D03*
X132319006Y-122514000D03*
X109258006Y-47208000D03*
X109258006Y-46308000D03*
X108358006Y-46308000D03*
X108358006Y-47208000D03*
D13*
X145000003Y-138399996D03*
X92166667Y-138399995D03*
D14*
X98219006Y-74592000D03*
X98219006Y-73692000D03*
X97319006Y-73692000D03*
X97319006Y-74592000D03*
D13*
X72000005Y-39877777D03*
D14*
X126373006Y-91707000D03*
X126373006Y-90807000D03*
X125473006Y-90807000D03*
X125473006Y-91707000D03*
D13*
X141666669Y-27000000D03*
X106999996Y-127522218D03*
X71999999Y-114144441D03*
D15*
X120717899Y-30592892D03*
X120717899Y-32142892D03*
D14*
X122950006Y-43785000D03*
X122950006Y-42885000D03*
X122050006Y-42885000D03*
X122050006Y-43785000D03*
D13*
X72000004Y-52255554D03*
X93166667Y-27000001D03*
D14*
X98219006Y-47208000D03*
X98219006Y-46308000D03*
X97319006Y-46308000D03*
X97319006Y-47208000D03*
X133219006Y-64323000D03*
X133219006Y-63423000D03*
X132319006Y-63423000D03*
X132319006Y-64323000D03*
X91373006Y-91707000D03*
X91373006Y-90807000D03*
X90473006Y-90807000D03*
X90473006Y-91707000D03*
X81104006Y-115668000D03*
X81104006Y-114768000D03*
X80204006Y-114768000D03*
X80204006Y-115668000D03*
X77681006Y-81438000D03*
X77681006Y-80538000D03*
X76781006Y-80538000D03*
X76781006Y-81438000D03*
X119527006Y-125937000D03*
X119527006Y-125037000D03*
X118627006Y-125037000D03*
X118627006Y-125937000D03*
X91373006Y-115668000D03*
X91373006Y-114768000D03*
X90473006Y-114768000D03*
X90473006Y-115668000D03*
X119527006Y-43785000D03*
X119527006Y-42885000D03*
X118627006Y-42885000D03*
X118627006Y-43785000D03*
X119527006Y-36939000D03*
X119527006Y-36039000D03*
X118627006Y-36039000D03*
X118627006Y-36939000D03*
D13*
X102999999Y-112144441D03*
D14*
X116104006Y-98553000D03*
X116104006Y-97653000D03*
X115204006Y-97653000D03*
X115204006Y-98553000D03*
X77681006Y-112245000D03*
X77681006Y-111345000D03*
X76781006Y-111345000D03*
X76781006Y-112245000D03*
X84527006Y-98553000D03*
X84527006Y-97653000D03*
X83627006Y-97653000D03*
X83627006Y-98553000D03*
D13*
X145000003Y-27000000D03*
D14*
X101642006Y-40362000D03*
X101642006Y-39462000D03*
X100742006Y-39462000D03*
X100742006Y-40362000D03*
D13*
X138000001Y-127522218D03*
D14*
X136642006Y-98553000D03*
X136642006Y-97653000D03*
X135742006Y-97653000D03*
X135742006Y-98553000D03*
X81104006Y-84861000D03*
X81104006Y-83961000D03*
X80204006Y-83961000D03*
X80204006Y-84861000D03*
X116104006Y-84861000D03*
X116104006Y-83961000D03*
X115204006Y-83961000D03*
X115204006Y-84861000D03*
X81104006Y-64323000D03*
X81104006Y-63423000D03*
X80204006Y-63423000D03*
X80204006Y-64323000D03*
X84527006Y-67746000D03*
X84527006Y-66846000D03*
X83627006Y-66846000D03*
X83627006Y-67746000D03*
X101642006Y-95130000D03*
X101642006Y-94230000D03*
X100742006Y-94230000D03*
X100742006Y-95130000D03*
X77681006Y-132783000D03*
X77681006Y-131883000D03*
X76781006Y-131883000D03*
X76781006Y-132783000D03*
D13*
X137999991Y-38877777D03*
D14*
X87950006Y-33516000D03*
X87950006Y-32616000D03*
X87050006Y-32616000D03*
X87050006Y-33516000D03*
X87950006Y-98553000D03*
X87950006Y-97653000D03*
X87050006Y-97653000D03*
X87050006Y-98553000D03*
X126373006Y-78015000D03*
X126373006Y-77115000D03*
X125473006Y-77115000D03*
X125473006Y-78015000D03*
X74258006Y-64323000D03*
X74258006Y-63423000D03*
X73358006Y-63423000D03*
X73358006Y-64323000D03*
X119527006Y-54054000D03*
X119527006Y-53154000D03*
X118627006Y-53154000D03*
X118627006Y-54054000D03*
X98219006Y-81438000D03*
X98219006Y-80538000D03*
X97319006Y-80538000D03*
X97319006Y-81438000D03*
X101642006Y-30093000D03*
X101642006Y-29193000D03*
X100742006Y-29193000D03*
X100742006Y-30093000D03*
D13*
X144166669Y-138399996D03*
D17*
X100972899Y-93343392D03*
X101992899Y-93343392D03*
D14*
X81104006Y-136206000D03*
X81104006Y-135306000D03*
X80204006Y-135306000D03*
X80204006Y-136206000D03*
D13*
X64999997Y-27000000D03*
D14*
X87950006Y-119091000D03*
X87950006Y-118191000D03*
X87050006Y-118191000D03*
X87050006Y-119091000D03*
X119527006Y-60900000D03*
X119527006Y-60000000D03*
X118627006Y-60000000D03*
X118627006Y-60900000D03*
D13*
X137999992Y-51255554D03*
D14*
X81104006Y-129360000D03*
X81104006Y-128460000D03*
X80204006Y-128460000D03*
X80204006Y-129360000D03*
X112681006Y-54054000D03*
X112681006Y-53154000D03*
X111781006Y-53154000D03*
X111781006Y-54054000D03*
X77681006Y-30093000D03*
X77681006Y-29193000D03*
X76781006Y-29193000D03*
X76781006Y-30093000D03*
X116104006Y-54054000D03*
X116104006Y-53154000D03*
X115204006Y-53154000D03*
X115204006Y-54054000D03*
X129796006Y-98553000D03*
X129796006Y-97653000D03*
X128896006Y-97653000D03*
X128896006Y-98553000D03*
X101642006Y-54054000D03*
X101642006Y-53154000D03*
X100742006Y-53154000D03*
X100742006Y-54054000D03*
D16*
X67999997Y-36500000D03*
D13*
X82833332Y-138399995D03*
D14*
X122950006Y-125937000D03*
X122950006Y-125037000D03*
X122050006Y-125037000D03*
X122050006Y-125937000D03*
D13*
X102999998Y-100766663D03*
D14*
X116104006Y-71169000D03*
X116104006Y-70269000D03*
X115204006Y-70269000D03*
X115204006Y-71169000D03*
X101642006Y-33516000D03*
X101642006Y-32616000D03*
X100742006Y-32616000D03*
X100742006Y-33516000D03*
X81104006Y-95130000D03*
X81104006Y-94230000D03*
X80204006Y-94230000D03*
X80204006Y-95130000D03*
X122950006Y-50631000D03*
X122950006Y-49731000D03*
X122050006Y-49731000D03*
X122050006Y-50631000D03*
X116104006Y-129360000D03*
X116104006Y-128460000D03*
X115204006Y-128460000D03*
X115204006Y-129360000D03*
X109258006Y-91707000D03*
X109258006Y-90807000D03*
X108358006Y-90807000D03*
X108358006Y-91707000D03*
X74258006Y-57477000D03*
X74258006Y-56577000D03*
X73358006Y-56577000D03*
X73358006Y-57477000D03*
X98219006Y-54054000D03*
X98219006Y-53154000D03*
X97319006Y-53154000D03*
X97319006Y-54054000D03*
X81104006Y-57477000D03*
X81104006Y-56577000D03*
X80204006Y-56577000D03*
X80204006Y-57477000D03*
D17*
X136000006Y-38543000D03*
X137020006Y-38543000D03*
D13*
X102999992Y-52255554D03*
D14*
X94796006Y-81438000D03*
X94796006Y-80538000D03*
X93896006Y-80538000D03*
X93896006Y-81438000D03*
X84527006Y-71169000D03*
X84527006Y-70269000D03*
X83627006Y-70269000D03*
X83627006Y-71169000D03*
X122950006Y-36939000D03*
X122950006Y-36039000D03*
X122050006Y-36039000D03*
X122050006Y-36939000D03*
X91373006Y-132783000D03*
X91373006Y-131883000D03*
X90473006Y-131883000D03*
X90473006Y-132783000D03*
D15*
X85717899Y-99052892D03*
X85717899Y-100602892D03*
D13*
X138000002Y-143733328D03*
D14*
X109258006Y-95130000D03*
X109258006Y-94230000D03*
X108358006Y-94230000D03*
X108358006Y-95130000D03*
X81104006Y-36939000D03*
X81104006Y-36039000D03*
X80204006Y-36039000D03*
X80204006Y-36939000D03*
X109258006Y-129360000D03*
X109258006Y-128460000D03*
X108358006Y-128460000D03*
X108358006Y-129360000D03*
D13*
X137999995Y-77011109D03*
D17*
X101092898Y-65942392D03*
X102112898Y-65942392D03*
D14*
X133219006Y-54054000D03*
X133219006Y-53154000D03*
X132319006Y-53154000D03*
X132319006Y-54054000D03*
D13*
X138000002Y-141233328D03*
D16*
X142000003Y-142399995D03*
D14*
X126373006Y-125937000D03*
X126373006Y-125037000D03*
X125473006Y-125037000D03*
X125473006Y-125937000D03*
D15*
X85717899Y-78514892D03*
X85717899Y-80064892D03*
D14*
X84527006Y-119091000D03*
X84527006Y-118191000D03*
X83627006Y-118191000D03*
X83627006Y-119091000D03*
X77681006Y-47208000D03*
X77681006Y-46308000D03*
X76781006Y-46308000D03*
X76781006Y-47208000D03*
X109258006Y-132783000D03*
X109258006Y-131883000D03*
X108358006Y-131883000D03*
X108358006Y-132783000D03*
X126373006Y-119091000D03*
X126373006Y-118191000D03*
X125473006Y-118191000D03*
X125473006Y-119091000D03*
X126373006Y-57477000D03*
X126373006Y-56577000D03*
X125473006Y-56577000D03*
X125473006Y-57477000D03*
X136642006Y-122514000D03*
X136642006Y-121614000D03*
X135742006Y-121614000D03*
X135742006Y-122514000D03*
X98219006Y-108822000D03*
X98219006Y-107922000D03*
X97319006Y-107922000D03*
X97319006Y-108822000D03*
X136642006Y-91707000D03*
X136642006Y-90807000D03*
X135742006Y-90807000D03*
X135742006Y-91707000D03*
X126373006Y-98553000D03*
X126373006Y-97653000D03*
X125473006Y-97653000D03*
X125473006Y-98553000D03*
X87950006Y-115668000D03*
X87950006Y-114768000D03*
X87050006Y-114768000D03*
X87050006Y-115668000D03*
D13*
X107000000Y-87388886D03*
D14*
X84527006Y-47208000D03*
X84527006Y-46308000D03*
X83627006Y-46308000D03*
X83627006Y-47208000D03*
X136642006Y-40362000D03*
X136642006Y-39462000D03*
X135742006Y-39462000D03*
X135742006Y-40362000D03*
D13*
X72000003Y-64633332D03*
D14*
X74258006Y-30093000D03*
X74258006Y-29193000D03*
X73358006Y-29193000D03*
X73358006Y-30093000D03*
X136642006Y-115668000D03*
X136642006Y-114768000D03*
X135742006Y-114768000D03*
X135742006Y-115668000D03*
D13*
X71999997Y-126522218D03*
X103000001Y-126522218D03*
X72000004Y-50255554D03*
D14*
X91373006Y-119091000D03*
X91373006Y-118191000D03*
X90473006Y-118191000D03*
X90473006Y-119091000D03*
D13*
X137999998Y-99766663D03*
X107000001Y-75011109D03*
D14*
X98219006Y-71169000D03*
X98219006Y-70269000D03*
X97319006Y-70269000D03*
X97319006Y-71169000D03*
X133219006Y-91707000D03*
X133219006Y-90807000D03*
X132319006Y-90807000D03*
X132319006Y-91707000D03*
X91373006Y-129360000D03*
X91373006Y-128460000D03*
X90473006Y-128460000D03*
X90473006Y-129360000D03*
X94796006Y-105399000D03*
X94796006Y-104499000D03*
X93896006Y-104499000D03*
X93896006Y-105399000D03*
D13*
X140000003Y-27000000D03*
D14*
X126373006Y-54054000D03*
X126373006Y-53154000D03*
X125473006Y-53154000D03*
X125473006Y-54054000D03*
D13*
X94166667Y-138399995D03*
D17*
X100972899Y-120743392D03*
X101992899Y-120743392D03*
D15*
X120717899Y-37438892D03*
X120717899Y-38988892D03*
D13*
X68333331Y-27000000D03*
D14*
X74258006Y-91707000D03*
X74258006Y-90807000D03*
X73358006Y-90807000D03*
X73358006Y-91707000D03*
X126373006Y-50631000D03*
X126373006Y-49731000D03*
X125473006Y-49731000D03*
X125473006Y-50631000D03*
X81104006Y-101976000D03*
X81104006Y-101076000D03*
X80204006Y-101076000D03*
X80204006Y-101976000D03*
X101642006Y-50631000D03*
X101642006Y-49731000D03*
X100742006Y-49731000D03*
X100742006Y-50631000D03*
D13*
X129166667Y-27000001D03*
X72000001Y-88388886D03*
X102999994Y-62633332D03*
X106999998Y-113144441D03*
D14*
X119527006Y-119091000D03*
X119527006Y-118191000D03*
X118627006Y-118191000D03*
X118627006Y-119091000D03*
D13*
X66666664Y-27000000D03*
D14*
X119527006Y-98553000D03*
X119527006Y-97653000D03*
X118627006Y-97653000D03*
X118627006Y-98553000D03*
X87950006Y-43785000D03*
X87950006Y-42885000D03*
X87050006Y-42885000D03*
X87050006Y-43785000D03*
X81104006Y-132783000D03*
X81104006Y-131883000D03*
X80204006Y-131883000D03*
X80204006Y-132783000D03*
D13*
X138000002Y-145399995D03*
D14*
X101642006Y-108822000D03*
X101642006Y-107922000D03*
X100742006Y-107922000D03*
X100742006Y-108822000D03*
X94796006Y-64323000D03*
X94796006Y-63423000D03*
X93896006Y-63423000D03*
X93896006Y-64323000D03*
D13*
X83833332Y-27000000D03*
D15*
X120717899Y-112744892D03*
X120717899Y-114294892D03*
D14*
X112681006Y-47208000D03*
X112681006Y-46308000D03*
X111781006Y-46308000D03*
X111781006Y-47208000D03*
X129796006Y-88284000D03*
X129796006Y-87384000D03*
X128896006Y-87384000D03*
X128896006Y-88284000D03*
X126373006Y-136206000D03*
X126373006Y-135306000D03*
X125473006Y-135306000D03*
X125473006Y-136206000D03*
X98219006Y-36939000D03*
X98219006Y-36039000D03*
X97319006Y-36039000D03*
X97319006Y-36939000D03*
D13*
X137999997Y-90388886D03*
D14*
X112681006Y-132783000D03*
X112681006Y-131883000D03*
X111781006Y-131883000D03*
X111781006Y-132783000D03*
X84527006Y-105399000D03*
X84527006Y-104499000D03*
X83627006Y-104499000D03*
X83627006Y-105399000D03*
X136642006Y-81438000D03*
X136642006Y-80538000D03*
X135742006Y-80538000D03*
X135742006Y-81438000D03*
X98219006Y-98553000D03*
X98219006Y-97653000D03*
X97319006Y-97653000D03*
X97319006Y-98553000D03*
X136642006Y-136206000D03*
X136642006Y-135306000D03*
X135742006Y-135306000D03*
X135742006Y-136206000D03*
X109258006Y-40362000D03*
X109258006Y-39462000D03*
X108358006Y-39462000D03*
X108358006Y-40362000D03*
X87950006Y-95130000D03*
X87950006Y-94230000D03*
X87050006Y-94230000D03*
X87050006Y-95130000D03*
D13*
X138000000Y-114144441D03*
D16*
X142000003Y-36500000D03*
D14*
X84527006Y-125937000D03*
X84527006Y-125037000D03*
X83627006Y-125037000D03*
X83627006Y-125937000D03*
D13*
X81833332Y-138399995D03*
D14*
X119527006Y-101976000D03*
X119527006Y-101076000D03*
X118627006Y-101076000D03*
X118627006Y-101976000D03*
X119527006Y-108822000D03*
X119527006Y-107922000D03*
X118627006Y-107922000D03*
X118627006Y-108822000D03*
X126373006Y-36939000D03*
X126373006Y-36039000D03*
X125473006Y-36039000D03*
X125473006Y-36939000D03*
X74258006Y-33516000D03*
X74258006Y-32616000D03*
X73358006Y-32616000D03*
X73358006Y-33516000D03*
X87950006Y-64323000D03*
X87950006Y-63423000D03*
X87050006Y-63423000D03*
X87050006Y-64323000D03*
X126373006Y-129360000D03*
X126373006Y-128460000D03*
X125473006Y-128460000D03*
X125473006Y-129360000D03*
X94796006Y-132783000D03*
X94796006Y-131883000D03*
X93896006Y-131883000D03*
X93896006Y-132783000D03*
D13*
X102999994Y-65633332D03*
X106999999Y-101766663D03*
X102999998Y-101766663D03*
D14*
X98219006Y-67746000D03*
X98219006Y-66846000D03*
X97319006Y-66846000D03*
X97319006Y-67746000D03*
X94796006Y-60900000D03*
X94796006Y-60000000D03*
X93896006Y-60000000D03*
X93896006Y-60900000D03*
X109258006Y-125937000D03*
X109258006Y-125037000D03*
X108358006Y-125037000D03*
X108358006Y-125937000D03*
D13*
X69999997Y-138399996D03*
D14*
X74258006Y-112245000D03*
X74258006Y-111345000D03*
X73358006Y-111345000D03*
X73358006Y-112245000D03*
X91373006Y-47208000D03*
X91373006Y-46308000D03*
X90473006Y-46308000D03*
X90473006Y-47208000D03*
D13*
X71999997Y-144566661D03*
D14*
X133219006Y-115668000D03*
X133219006Y-114768000D03*
X132319006Y-114768000D03*
X132319006Y-115668000D03*
D13*
X137999998Y-102766663D03*
D14*
X129796006Y-47208000D03*
X129796006Y-46308000D03*
X128896006Y-46308000D03*
X128896006Y-47208000D03*
X136642006Y-78015000D03*
X136642006Y-77115000D03*
X135742006Y-77115000D03*
X135742006Y-78015000D03*
X101642006Y-57477000D03*
X101642006Y-56577000D03*
X100742006Y-56577000D03*
X100742006Y-57477000D03*
X112681006Y-43785000D03*
X112681006Y-42885000D03*
X111781006Y-42885000D03*
X111781006Y-43785000D03*
X136642006Y-119091000D03*
X136642006Y-118191000D03*
X135742006Y-118191000D03*
X135742006Y-119091000D03*
X136642006Y-43785000D03*
X136642006Y-42885000D03*
X135742006Y-42885000D03*
X135742006Y-43785000D03*
X81104006Y-105399000D03*
X81104006Y-104499000D03*
X80204006Y-104499000D03*
X80204006Y-105399000D03*
X133219006Y-125937000D03*
X133219006Y-125037000D03*
X132319006Y-125037000D03*
X132319006Y-125937000D03*
X74258006Y-98553000D03*
X74258006Y-97653000D03*
X73358006Y-97653000D03*
X73358006Y-98553000D03*
X122950006Y-136206000D03*
X122950006Y-135306000D03*
X122050006Y-135306000D03*
X122050006Y-136206000D03*
X87950006Y-105399000D03*
X87950006Y-104499000D03*
X87050006Y-104499000D03*
X87050006Y-105399000D03*
D15*
X120717899Y-119590892D03*
X120717899Y-121140892D03*
D13*
X72000000Y-101766663D03*
D14*
X129796006Y-112245000D03*
X129796006Y-111345000D03*
X128896006Y-111345000D03*
X128896006Y-112245000D03*
D17*
X101000006Y-52149500D03*
X102020006Y-52149500D03*
D14*
X84527006Y-74592000D03*
X84527006Y-73692000D03*
X83627006Y-73692000D03*
X83627006Y-74592000D03*
X101642006Y-71169000D03*
X101642006Y-70269000D03*
X100742006Y-70269000D03*
X100742006Y-71169000D03*
D13*
X102999993Y-53255554D03*
D14*
X116104006Y-30093000D03*
X116104006Y-29193000D03*
X115204006Y-29193000D03*
X115204006Y-30093000D03*
X109258006Y-64323000D03*
X109258006Y-63423000D03*
X108358006Y-63423000D03*
X108358006Y-64323000D03*
X74258006Y-54054000D03*
X74258006Y-53154000D03*
X73358006Y-53154000D03*
X73358006Y-54054000D03*
X94796006Y-47208000D03*
X94796006Y-46308000D03*
X93896006Y-46308000D03*
X93896006Y-47208000D03*
X101642006Y-78015000D03*
X101642006Y-77115000D03*
X100742006Y-77115000D03*
X100742006Y-78015000D03*
X109258006Y-57477000D03*
X109258006Y-56577000D03*
X108358006Y-56577000D03*
X108358006Y-57477000D03*
X116104006Y-88284000D03*
X116104006Y-87384000D03*
X115204006Y-87384000D03*
X115204006Y-88284000D03*
X87950006Y-101976000D03*
X87950006Y-101076000D03*
X87050006Y-101076000D03*
X87050006Y-101976000D03*
X94796006Y-115668000D03*
X94796006Y-114768000D03*
X93896006Y-114768000D03*
X93896006Y-115668000D03*
X112681006Y-40362000D03*
X112681006Y-39462000D03*
X111781006Y-39462000D03*
X111781006Y-40362000D03*
X77681006Y-115668000D03*
X77681006Y-114768000D03*
X76781006Y-114768000D03*
X76781006Y-115668000D03*
X116104006Y-64323000D03*
X116104006Y-63423000D03*
X115204006Y-63423000D03*
X115204006Y-64323000D03*
X81104006Y-47208000D03*
X81104006Y-46308000D03*
X80204006Y-46308000D03*
X80204006Y-47208000D03*
D13*
X107000001Y-76011109D03*
D14*
X126373006Y-47208000D03*
X126373006Y-46308000D03*
X125473006Y-46308000D03*
X125473006Y-47208000D03*
X81104006Y-91707000D03*
X81104006Y-90807000D03*
X80204006Y-90807000D03*
X80204006Y-91707000D03*
D13*
X72000005Y-40877777D03*
X106999999Y-100766663D03*
D14*
X133219006Y-47208000D03*
X133219006Y-46308000D03*
X132319006Y-46308000D03*
X132319006Y-47208000D03*
X119527006Y-112245000D03*
X119527006Y-111345000D03*
X118627006Y-111345000D03*
X118627006Y-112245000D03*
X126373006Y-132783000D03*
X126373006Y-131883000D03*
X125473006Y-131883000D03*
X125473006Y-132783000D03*
X122950006Y-67746000D03*
X122950006Y-66846000D03*
X122050006Y-66846000D03*
X122050006Y-67746000D03*
D13*
X137999998Y-101766663D03*
D14*
X129796006Y-84861000D03*
X129796006Y-83961000D03*
X128896006Y-83961000D03*
X128896006Y-84861000D03*
X119527006Y-105399000D03*
X119527006Y-104499000D03*
X118627006Y-104499000D03*
X118627006Y-105399000D03*
X116104006Y-50631000D03*
X116104006Y-49731000D03*
X115204006Y-49731000D03*
X115204006Y-50631000D03*
X116104006Y-81438000D03*
X116104006Y-80538000D03*
X115204006Y-80538000D03*
X115204006Y-81438000D03*
D13*
X107000003Y-50255554D03*
D14*
X133219006Y-67746000D03*
X133219006Y-66846000D03*
X132319006Y-66846000D03*
X132319006Y-67746000D03*
X98219006Y-115668000D03*
X98219006Y-114768000D03*
X97319006Y-114768000D03*
X97319006Y-115668000D03*
X81104006Y-88284000D03*
X81104006Y-87384000D03*
X80204006Y-87384000D03*
X80204006Y-88284000D03*
D13*
X72000000Y-102766663D03*
X138000002Y-23333334D03*
X103000000Y-115144441D03*
D14*
X109258006Y-74592000D03*
X109258006Y-73692000D03*
X108358006Y-73692000D03*
X108358006Y-74592000D03*
X77681006Y-64323000D03*
X77681006Y-63423000D03*
X76781006Y-63423000D03*
X76781006Y-64323000D03*
X98219006Y-57477000D03*
X98219006Y-56577000D03*
X97319006Y-56577000D03*
X97319006Y-57477000D03*
X94796006Y-95130000D03*
X94796006Y-94230000D03*
X93896006Y-94230000D03*
X93896006Y-95130000D03*
X112681006Y-71169000D03*
X112681006Y-70269000D03*
X111781006Y-70269000D03*
X111781006Y-71169000D03*
D13*
X71999999Y-115144441D03*
D14*
X94796006Y-57477000D03*
X94796006Y-56577000D03*
X93896006Y-56577000D03*
X93896006Y-57477000D03*
X87950006Y-60900000D03*
X87950006Y-60000000D03*
X87050006Y-60000000D03*
X87050006Y-60900000D03*
D13*
X138000002Y-25000000D03*
X102999998Y-99766663D03*
X107000003Y-51255554D03*
D14*
X74258006Y-105399000D03*
X74258006Y-104499000D03*
X73358006Y-104499000D03*
X73358006Y-105399000D03*
D13*
X107000004Y-39877777D03*
D14*
X84527006Y-112245000D03*
X84527006Y-111345000D03*
X83627006Y-111345000D03*
X83627006Y-112245000D03*
X74258006Y-36939000D03*
X74258006Y-36039000D03*
X73358006Y-36039000D03*
X73358006Y-36939000D03*
D13*
X103000001Y-125522218D03*
X66666664Y-138399996D03*
D15*
X120717899Y-99052892D03*
X120717899Y-100602892D03*
X85717899Y-133282892D03*
X85717899Y-134832892D03*
D14*
X101642006Y-101976000D03*
X101642006Y-101076000D03*
X100742006Y-101076000D03*
X100742006Y-101976000D03*
D13*
X107000005Y-37877777D03*
D14*
X94796006Y-101976000D03*
X94796006Y-101076000D03*
X93896006Y-101076000D03*
X93896006Y-101976000D03*
D13*
X72000001Y-87388886D03*
X71999997Y-20000000D03*
D14*
X87950006Y-47208000D03*
X87950006Y-46308000D03*
X87050006Y-46308000D03*
X87050006Y-47208000D03*
D13*
X71999997Y-23333334D03*
D14*
X133219006Y-30093000D03*
X133219006Y-29193000D03*
X132319006Y-29193000D03*
X132319006Y-30093000D03*
D13*
X137999991Y-37877777D03*
D14*
X109258006Y-78015000D03*
X109258006Y-77115000D03*
X108358006Y-77115000D03*
X108358006Y-78015000D03*
X112681006Y-129360000D03*
X112681006Y-128460000D03*
X111781006Y-128460000D03*
X111781006Y-129360000D03*
X109258006Y-108822000D03*
X109258006Y-107922000D03*
X108358006Y-107922000D03*
X108358006Y-108822000D03*
X133219006Y-132783000D03*
X133219006Y-131883000D03*
X132319006Y-131883000D03*
X132319006Y-132783000D03*
D13*
X140833336Y-138399996D03*
D14*
X101642006Y-98553000D03*
X101642006Y-97653000D03*
X100742006Y-97653000D03*
X100742006Y-98553000D03*
X133219006Y-98553000D03*
X133219006Y-97653000D03*
X132319006Y-97653000D03*
X132319006Y-98553000D03*
X129796006Y-36939000D03*
X129796006Y-36039000D03*
X128896006Y-36039000D03*
X128896006Y-36939000D03*
D13*
X80833332Y-138399995D03*
D14*
X136642006Y-67746000D03*
X136642006Y-66846000D03*
X135742006Y-66846000D03*
X135742006Y-67746000D03*
D13*
X71999998Y-124522218D03*
D14*
X87950006Y-108822000D03*
X87950006Y-107922000D03*
X87050006Y-107922000D03*
X87050006Y-108822000D03*
X129796006Y-81438000D03*
X129796006Y-80538000D03*
X128896006Y-80538000D03*
X128896006Y-81438000D03*
X77681006Y-57477000D03*
X77681006Y-56577000D03*
X76781006Y-56577000D03*
X76781006Y-57477000D03*
D13*
X69166664Y-27000000D03*
X137999995Y-75011109D03*
D14*
X133219006Y-108822000D03*
X133219006Y-107922000D03*
X132319006Y-107922000D03*
X132319006Y-108822000D03*
X112681006Y-125937000D03*
X112681006Y-125037000D03*
X111781006Y-125037000D03*
X111781006Y-125937000D03*
X116104006Y-33516000D03*
X116104006Y-32616000D03*
X115204006Y-32616000D03*
X115204006Y-33516000D03*
X126373006Y-115668000D03*
X126373006Y-114768000D03*
X125473006Y-114768000D03*
X125473006Y-115668000D03*
X84527006Y-84861000D03*
X84527006Y-83961000D03*
X83627006Y-83961000D03*
X83627006Y-84861000D03*
X136642006Y-95130000D03*
X136642006Y-94230000D03*
X135742006Y-94230000D03*
X135742006Y-95130000D03*
X112681006Y-119091000D03*
X112681006Y-118191000D03*
X111781006Y-118191000D03*
X111781006Y-119091000D03*
X81104006Y-67746000D03*
X81104006Y-66846000D03*
X80204006Y-66846000D03*
X80204006Y-67746000D03*
D13*
X71999999Y-113144441D03*
X107000003Y-52255554D03*
X143333336Y-138399996D03*
X137999999Y-112144441D03*
D14*
X101642006Y-136206000D03*
X101642006Y-135306000D03*
X100742006Y-135306000D03*
X100742006Y-136206000D03*
D13*
X137999997Y-88388886D03*
X137999994Y-63633332D03*
D14*
X87950006Y-129360000D03*
X87950006Y-128460000D03*
X87050006Y-128460000D03*
X87050006Y-129360000D03*
D15*
X85717899Y-51130892D03*
X85717899Y-52680892D03*
D14*
X74258006Y-115668000D03*
X74258006Y-114768000D03*
X73358006Y-114768000D03*
X73358006Y-115668000D03*
X87950006Y-74592000D03*
X87950006Y-73692000D03*
X87050006Y-73692000D03*
X87050006Y-74592000D03*
D15*
X120717899Y-85360892D03*
X120717899Y-86910892D03*
D13*
X137999995Y-78011109D03*
D14*
X94796006Y-119091000D03*
X94796006Y-118191000D03*
X93896006Y-118191000D03*
X93896006Y-119091000D03*
X77681006Y-98553000D03*
X77681006Y-97653000D03*
X76781006Y-97653000D03*
X76781006Y-98553000D03*
X109258006Y-60900000D03*
X109258006Y-60000000D03*
X108358006Y-60000000D03*
X108358006Y-60900000D03*
X74258006Y-136206000D03*
X74258006Y-135306000D03*
X73358006Y-135306000D03*
X73358006Y-136206000D03*
X84527006Y-33516000D03*
X84527006Y-32616000D03*
X83627006Y-32616000D03*
X83627006Y-33516000D03*
%LPD*%
M02*
