G04 #@! TF.GenerationSoftware,KiCad,Pcbnew,7.0.8*
G04 #@! TF.CreationDate,2023-10-22T17:40:02-04:00*
G04 #@! TF.ProjectId,RGB-Panel,5247422d-5061-46e6-956c-2e6b69636164,V2.6*
G04 #@! TF.SameCoordinates,Original*
G04 #@! TF.FileFunction,Soldermask,Top*
G04 #@! TF.FilePolarity,Negative*
%FSLAX46Y46*%
G04 Gerber Fmt 4.6, Leading zero omitted, Abs format (unit mm)*
G04 Created by KiCad (PCBNEW 7.0.8) date 2023-10-22 17:40:02*
%MOMM*%
%LPD*%
G01*
G04 APERTURE LIST*
G04 Aperture macros list*
%AMRoundRect*
0 Rectangle with rounded corners*
0 $1 Rounding radius*
0 $2 $3 $4 $5 $6 $7 $8 $9 X,Y pos of 4 corners*
0 Add a 4 corners polygon primitive as box body*
4,1,4,$2,$3,$4,$5,$6,$7,$8,$9,$2,$3,0*
0 Add four circle primitives for the rounded corners*
1,1,$1+$1,$2,$3*
1,1,$1+$1,$4,$5*
1,1,$1+$1,$6,$7*
1,1,$1+$1,$8,$9*
0 Add four rect primitives between the rounded corners*
20,1,$1+$1,$2,$3,$4,$5,0*
20,1,$1+$1,$4,$5,$6,$7,0*
20,1,$1+$1,$6,$7,$8,$9,0*
20,1,$1+$1,$8,$9,$2,$3,0*%
G04 Aperture macros list end*
%ADD10C,0.500000*%
%ADD11R,0.500000X0.500000*%
%ADD12RoundRect,0.225000X-0.250000X0.225000X-0.250000X-0.225000X0.250000X-0.225000X0.250000X0.225000X0*%
%ADD13C,3.000000*%
%ADD14RoundRect,0.135000X-0.135000X-0.185000X0.135000X-0.185000X0.135000X0.185000X-0.135000X0.185000X0*%
G04 APERTURE END LIST*
D10*
X71999997Y-142899995D03*
D11*
X126373006Y-74592000D03*
X126373006Y-73692000D03*
X125473006Y-73692000D03*
X125473006Y-74592000D03*
X122950006Y-88284000D03*
X122950006Y-87384000D03*
X122050006Y-87384000D03*
X122050006Y-88284000D03*
X91373006Y-122514000D03*
X91373006Y-121614000D03*
X90473006Y-121614000D03*
X90473006Y-122514000D03*
X87950006Y-132783000D03*
X87950006Y-131883000D03*
X87050006Y-131883000D03*
X87050006Y-132783000D03*
D12*
X85717899Y-37438892D03*
X85717899Y-38988892D03*
D13*
X67999997Y-23000000D03*
D11*
X116104006Y-125937000D03*
X116104006Y-125037000D03*
X115204006Y-125037000D03*
X115204006Y-125937000D03*
D10*
X107000003Y-53255554D03*
D11*
X91373006Y-84861000D03*
X91373006Y-83961000D03*
X90473006Y-83961000D03*
X90473006Y-84861000D03*
X87950006Y-50631000D03*
X87950006Y-49731000D03*
X87050006Y-49731000D03*
X87050006Y-50631000D03*
D10*
X102999995Y-76011109D03*
X107000002Y-63633332D03*
X106999998Y-115144441D03*
X129166667Y-138399995D03*
D11*
X81104006Y-81438000D03*
X81104006Y-80538000D03*
X80204006Y-80538000D03*
X80204006Y-81438000D03*
X112681006Y-84861000D03*
X112681006Y-83961000D03*
X111781006Y-83961000D03*
X111781006Y-84861000D03*
X77681006Y-50631000D03*
X77681006Y-49731000D03*
X76781006Y-49731000D03*
X76781006Y-50631000D03*
D10*
X72000002Y-77011109D03*
D11*
X77681006Y-105399000D03*
X77681006Y-104499000D03*
X76781006Y-104499000D03*
X76781006Y-105399000D03*
X91373006Y-101976000D03*
X91373006Y-101076000D03*
X90473006Y-101076000D03*
X90473006Y-101976000D03*
D13*
X67999997Y-128899995D03*
D11*
X133219006Y-136206000D03*
X133219006Y-135306000D03*
X132319006Y-135306000D03*
X132319006Y-136206000D03*
X91373006Y-50631000D03*
X91373006Y-49731000D03*
X90473006Y-49731000D03*
X90473006Y-50631000D03*
X101642006Y-119091000D03*
X101642006Y-118191000D03*
X100742006Y-118191000D03*
X100742006Y-119091000D03*
X116104006Y-36939000D03*
X116104006Y-36039000D03*
X115204006Y-36039000D03*
X115204006Y-36939000D03*
X116104006Y-40362000D03*
X116104006Y-39462000D03*
X115204006Y-39462000D03*
X115204006Y-40362000D03*
X98219006Y-78015000D03*
X98219006Y-77115000D03*
X97319006Y-77115000D03*
X97319006Y-78015000D03*
X129796006Y-101976000D03*
X129796006Y-101076000D03*
X128896006Y-101076000D03*
X128896006Y-101976000D03*
D12*
X85717899Y-112744892D03*
X85717899Y-114294892D03*
D11*
X94796006Y-84861000D03*
X94796006Y-83961000D03*
X93896006Y-83961000D03*
X93896006Y-84861000D03*
X133219006Y-129360000D03*
X133219006Y-128460000D03*
X132319006Y-128460000D03*
X132319006Y-129360000D03*
D10*
X138000002Y-144566661D03*
D11*
X91373006Y-125937000D03*
X91373006Y-125037000D03*
X90473006Y-125037000D03*
X90473006Y-125937000D03*
D10*
X72000003Y-62633332D03*
D11*
X74258006Y-43785000D03*
X74258006Y-42885000D03*
X73358006Y-42885000D03*
X73358006Y-43785000D03*
D10*
X138000000Y-115144441D03*
X137999994Y-62633332D03*
D11*
X94796006Y-36939000D03*
X94796006Y-36039000D03*
X93896006Y-36039000D03*
X93896006Y-36939000D03*
X74258006Y-119091000D03*
X74258006Y-118191000D03*
X73358006Y-118191000D03*
X73358006Y-119091000D03*
X74258006Y-101976000D03*
X74258006Y-101076000D03*
X73358006Y-101076000D03*
X73358006Y-101976000D03*
X126373006Y-112245000D03*
X126373006Y-111345000D03*
X125473006Y-111345000D03*
X125473006Y-112245000D03*
X119527006Y-129360000D03*
X119527006Y-128460000D03*
X118627006Y-128460000D03*
X118627006Y-129360000D03*
X122950006Y-122514000D03*
X122950006Y-121614000D03*
X122050006Y-121614000D03*
X122050006Y-122514000D03*
X77681006Y-91707000D03*
X77681006Y-90807000D03*
X76781006Y-90807000D03*
X76781006Y-91707000D03*
X126373006Y-95130000D03*
X126373006Y-94230000D03*
X125473006Y-94230000D03*
X125473006Y-95130000D03*
X84527006Y-40362000D03*
X84527006Y-39462000D03*
X83627006Y-39462000D03*
X83627006Y-40362000D03*
D10*
X144166669Y-27000000D03*
D12*
X85717899Y-126436892D03*
X85717899Y-127986892D03*
D11*
X136642006Y-125937000D03*
X136642006Y-125037000D03*
X135742006Y-125037000D03*
X135742006Y-125937000D03*
X91373006Y-30093000D03*
X91373006Y-29193000D03*
X90473006Y-29193000D03*
X90473006Y-30093000D03*
X129796006Y-95130000D03*
X129796006Y-94230000D03*
X128896006Y-94230000D03*
X128896006Y-95130000D03*
X136642006Y-132783000D03*
X136642006Y-131883000D03*
X135742006Y-131883000D03*
X135742006Y-132783000D03*
X81104006Y-78015000D03*
X81104006Y-77115000D03*
X80204006Y-77115000D03*
X80204006Y-78015000D03*
X91373006Y-57477000D03*
X91373006Y-56577000D03*
X90473006Y-56577000D03*
X90473006Y-57477000D03*
X133219006Y-50631000D03*
X133219006Y-49731000D03*
X132319006Y-49731000D03*
X132319006Y-50631000D03*
X98219006Y-91707000D03*
X98219006Y-90807000D03*
X97319006Y-90807000D03*
X97319006Y-91707000D03*
X122950006Y-71169000D03*
X122950006Y-70269000D03*
X122050006Y-70269000D03*
X122050006Y-71169000D03*
X122950006Y-115668000D03*
X122950006Y-114768000D03*
X122050006Y-114768000D03*
X122050006Y-115668000D03*
D10*
X115833331Y-27000000D03*
D11*
X87950006Y-81438000D03*
X87950006Y-80538000D03*
X87050006Y-80538000D03*
X87050006Y-81438000D03*
X126373006Y-67746000D03*
X126373006Y-66846000D03*
X125473006Y-66846000D03*
X125473006Y-67746000D03*
X74258006Y-88284000D03*
X74258006Y-87384000D03*
X73358006Y-87384000D03*
X73358006Y-88284000D03*
X91373006Y-112245000D03*
X91373006Y-111345000D03*
X90473006Y-111345000D03*
X90473006Y-112245000D03*
X129796006Y-67746000D03*
X129796006Y-66846000D03*
X128896006Y-66846000D03*
X128896006Y-67746000D03*
X74258006Y-47208000D03*
X74258006Y-46308000D03*
X73358006Y-46308000D03*
X73358006Y-47208000D03*
D10*
X64999997Y-138399996D03*
D11*
X109258006Y-30093000D03*
X109258006Y-29193000D03*
X108358006Y-29193000D03*
X108358006Y-30093000D03*
X129796006Y-122514000D03*
X129796006Y-121614000D03*
X128896006Y-121614000D03*
X128896006Y-122514000D03*
D10*
X137999992Y-52255554D03*
D11*
X112681006Y-81438000D03*
X112681006Y-80538000D03*
X111781006Y-80538000D03*
X111781006Y-81438000D03*
D10*
X69999997Y-27000000D03*
D11*
X116104006Y-57477000D03*
X116104006Y-56577000D03*
X115204006Y-56577000D03*
X115204006Y-57477000D03*
X126373006Y-122514000D03*
X126373006Y-121614000D03*
X125473006Y-121614000D03*
X125473006Y-122514000D03*
X119527006Y-84861000D03*
X119527006Y-83961000D03*
X118627006Y-83961000D03*
X118627006Y-84861000D03*
X136642006Y-84861000D03*
X136642006Y-83961000D03*
X135742006Y-83961000D03*
X135742006Y-84861000D03*
X119527006Y-115668000D03*
X119527006Y-114768000D03*
X118627006Y-114768000D03*
X118627006Y-115668000D03*
D10*
X71999997Y-21666667D03*
D11*
X84527006Y-95130000D03*
X84527006Y-94230000D03*
X83627006Y-94230000D03*
X83627006Y-95130000D03*
X98219006Y-40362000D03*
X98219006Y-39462000D03*
X97319006Y-39462000D03*
X97319006Y-40362000D03*
D12*
X120717899Y-92206892D03*
X120717899Y-93756892D03*
D10*
X102999991Y-38877777D03*
D12*
X85717899Y-71668892D03*
X85717899Y-73218892D03*
D11*
X112681006Y-74592000D03*
X112681006Y-73692000D03*
X111781006Y-73692000D03*
X111781006Y-74592000D03*
D10*
X102999991Y-39877777D03*
X80833332Y-27000000D03*
X102999997Y-90388886D03*
D11*
X133219006Y-78015000D03*
X133219006Y-77115000D03*
X132319006Y-77115000D03*
X132319006Y-78015000D03*
X122950006Y-95130000D03*
X122950006Y-94230000D03*
X122050006Y-94230000D03*
X122050006Y-95130000D03*
X119527006Y-136206000D03*
X119527006Y-135306000D03*
X118627006Y-135306000D03*
X118627006Y-136206000D03*
D10*
X72000001Y-89388886D03*
D12*
X85717899Y-57976892D03*
X85717899Y-59526892D03*
D11*
X112681006Y-36939000D03*
X112681006Y-36039000D03*
X111781006Y-36039000D03*
X111781006Y-36939000D03*
X98219006Y-33516000D03*
X98219006Y-32616000D03*
X97319006Y-32616000D03*
X97319006Y-33516000D03*
D10*
X71999997Y-25000000D03*
D11*
X98219006Y-112245000D03*
X98219006Y-111345000D03*
X97319006Y-111345000D03*
X97319006Y-112245000D03*
D10*
X128166667Y-27000001D03*
X102999997Y-89388886D03*
D11*
X116104006Y-112245000D03*
X116104006Y-111345000D03*
X115204006Y-111345000D03*
X115204006Y-112245000D03*
X94796006Y-129360000D03*
X94796006Y-128460000D03*
X93896006Y-128460000D03*
X93896006Y-129360000D03*
X119527006Y-67746000D03*
X119527006Y-66846000D03*
X118627006Y-66846000D03*
X118627006Y-67746000D03*
X94796006Y-98553000D03*
X94796006Y-97653000D03*
X93896006Y-97653000D03*
X93896006Y-98553000D03*
D12*
X85717899Y-44284892D03*
X85717899Y-45834892D03*
D11*
X94796006Y-67746000D03*
X94796006Y-66846000D03*
X93896006Y-66846000D03*
X93896006Y-67746000D03*
D10*
X102999998Y-102766663D03*
D11*
X122950006Y-30093000D03*
X122950006Y-29193000D03*
X122050006Y-29193000D03*
X122050006Y-30093000D03*
X116104006Y-136206000D03*
X116104006Y-135306000D03*
X115204006Y-135306000D03*
X115204006Y-136206000D03*
X136642006Y-64323000D03*
X136642006Y-63423000D03*
X135742006Y-63423000D03*
X135742006Y-64323000D03*
D10*
X117833331Y-27000000D03*
D11*
X94796006Y-108822000D03*
X94796006Y-107922000D03*
X93896006Y-107922000D03*
X93896006Y-108822000D03*
D10*
X71999997Y-22500000D03*
D11*
X136642006Y-88284000D03*
X136642006Y-87384000D03*
X135742006Y-87384000D03*
X135742006Y-88284000D03*
D12*
X120717899Y-78514892D03*
X120717899Y-80064892D03*
D10*
X102999997Y-88388886D03*
D11*
X91373006Y-60900000D03*
X91373006Y-60000000D03*
X90473006Y-60000000D03*
X90473006Y-60900000D03*
X129796006Y-74592000D03*
X129796006Y-73692000D03*
X128896006Y-73692000D03*
X128896006Y-74592000D03*
X94796006Y-30093000D03*
X94796006Y-29193000D03*
X93896006Y-29193000D03*
X93896006Y-30093000D03*
X133219006Y-101976000D03*
X133219006Y-101076000D03*
X132319006Y-101076000D03*
X132319006Y-101976000D03*
D10*
X83833332Y-138399995D03*
D12*
X120717899Y-105898892D03*
X120717899Y-107448892D03*
D11*
X133219006Y-95130000D03*
X133219006Y-94230000D03*
X132319006Y-94230000D03*
X132319006Y-95130000D03*
X133219006Y-57477000D03*
X133219006Y-56577000D03*
X132319006Y-56577000D03*
X132319006Y-57477000D03*
X109258006Y-84861000D03*
X109258006Y-83961000D03*
X108358006Y-83961000D03*
X108358006Y-84861000D03*
X112681006Y-95130000D03*
X112681006Y-94230000D03*
X111781006Y-94230000D03*
X111781006Y-95130000D03*
D10*
X102999992Y-51255554D03*
D11*
X74258006Y-78015000D03*
X74258006Y-77115000D03*
X73358006Y-77115000D03*
X73358006Y-78015000D03*
X77681006Y-129360000D03*
X77681006Y-128460000D03*
X76781006Y-128460000D03*
X76781006Y-129360000D03*
X133219006Y-36939000D03*
X133219006Y-36039000D03*
X132319006Y-36039000D03*
X132319006Y-36939000D03*
X119527006Y-95130000D03*
X119527006Y-94230000D03*
X118627006Y-94230000D03*
X118627006Y-95130000D03*
X136642006Y-60900000D03*
X136642006Y-60000000D03*
X135742006Y-60000000D03*
X135742006Y-60900000D03*
X116104006Y-60900000D03*
X116104006Y-60000000D03*
X115204006Y-60000000D03*
X115204006Y-60900000D03*
X87950006Y-54054000D03*
X87950006Y-53154000D03*
X87050006Y-53154000D03*
X87050006Y-54054000D03*
X98219006Y-88284000D03*
X98219006Y-87384000D03*
X97319006Y-87384000D03*
X97319006Y-88284000D03*
X116104006Y-115668000D03*
X116104006Y-114768000D03*
X115204006Y-114768000D03*
X115204006Y-115668000D03*
D10*
X127166667Y-138399995D03*
D11*
X94796006Y-88284000D03*
X94796006Y-87384000D03*
X93896006Y-87384000D03*
X93896006Y-88284000D03*
X74258006Y-108822000D03*
X74258006Y-107922000D03*
X73358006Y-107922000D03*
X73358006Y-108822000D03*
X122950006Y-84861000D03*
X122950006Y-83961000D03*
X122050006Y-83961000D03*
X122050006Y-84861000D03*
D10*
X72000004Y-51255554D03*
D11*
X98219006Y-84861000D03*
X98219006Y-83961000D03*
X97319006Y-83961000D03*
X97319006Y-84861000D03*
X129796006Y-119091000D03*
X129796006Y-118191000D03*
X128896006Y-118191000D03*
X128896006Y-119091000D03*
D12*
X120717899Y-64822892D03*
X120717899Y-66372892D03*
D11*
X116104006Y-91707000D03*
X116104006Y-90807000D03*
X115204006Y-90807000D03*
X115204006Y-91707000D03*
X109258006Y-67746000D03*
X109258006Y-66846000D03*
X108358006Y-66846000D03*
X108358006Y-67746000D03*
X91373006Y-108822000D03*
X91373006Y-107922000D03*
X90473006Y-107922000D03*
X90473006Y-108822000D03*
X112681006Y-98553000D03*
X112681006Y-97653000D03*
X111781006Y-97653000D03*
X111781006Y-98553000D03*
X133219006Y-119091000D03*
X133219006Y-118191000D03*
X132319006Y-118191000D03*
X132319006Y-119091000D03*
D10*
X107000000Y-89388886D03*
D11*
X84527006Y-36939000D03*
X84527006Y-36039000D03*
X83627006Y-36039000D03*
X83627006Y-36939000D03*
D10*
X72000001Y-90388886D03*
D11*
X77681006Y-119091000D03*
X77681006Y-118191000D03*
X76781006Y-118191000D03*
X76781006Y-119091000D03*
X77681006Y-54054000D03*
X77681006Y-53154000D03*
X76781006Y-53154000D03*
X76781006Y-54054000D03*
D10*
X71999997Y-24166667D03*
X72000003Y-63633332D03*
D11*
X119527006Y-71169000D03*
X119527006Y-70269000D03*
X118627006Y-70269000D03*
X118627006Y-71169000D03*
D12*
X120717899Y-71668892D03*
X120717899Y-73218892D03*
D11*
X81104006Y-125937000D03*
X81104006Y-125037000D03*
X80204006Y-125037000D03*
X80204006Y-125937000D03*
X112681006Y-88284000D03*
X112681006Y-87384000D03*
X111781006Y-87384000D03*
X111781006Y-88284000D03*
X116104006Y-132783000D03*
X116104006Y-131883000D03*
X115204006Y-131883000D03*
X115204006Y-132783000D03*
X81104006Y-43785000D03*
X81104006Y-42885000D03*
X80204006Y-42885000D03*
X80204006Y-43785000D03*
X109258006Y-115668000D03*
X109258006Y-114768000D03*
X108358006Y-114768000D03*
X108358006Y-115668000D03*
X101642006Y-125937000D03*
X101642006Y-125037000D03*
X100742006Y-125037000D03*
X100742006Y-125937000D03*
X87950006Y-84861000D03*
X87950006Y-83961000D03*
X87050006Y-83961000D03*
X87050006Y-84861000D03*
X119527006Y-57477000D03*
X119527006Y-56577000D03*
X118627006Y-56577000D03*
X118627006Y-57477000D03*
X112681006Y-60900000D03*
X112681006Y-60000000D03*
X111781006Y-60000000D03*
X111781006Y-60900000D03*
X84527006Y-30093000D03*
X84527006Y-29193000D03*
X83627006Y-29193000D03*
X83627006Y-30093000D03*
X129796006Y-125937000D03*
X129796006Y-125037000D03*
X128896006Y-125037000D03*
X128896006Y-125937000D03*
X84527006Y-132783000D03*
X84527006Y-131883000D03*
X83627006Y-131883000D03*
X83627006Y-132783000D03*
X116104006Y-95130000D03*
X116104006Y-94230000D03*
X115204006Y-94230000D03*
X115204006Y-95130000D03*
X112681006Y-105399000D03*
X112681006Y-104499000D03*
X111781006Y-104499000D03*
X111781006Y-105399000D03*
X84527006Y-64323000D03*
X84527006Y-63423000D03*
X83627006Y-63423000D03*
X83627006Y-64323000D03*
D10*
X107000004Y-40877777D03*
D11*
X101642006Y-36939000D03*
X101642006Y-36039000D03*
X100742006Y-36039000D03*
X100742006Y-36939000D03*
D10*
X91166667Y-138399995D03*
D11*
X136642006Y-101976000D03*
X136642006Y-101076000D03*
X135742006Y-101076000D03*
X135742006Y-101976000D03*
X126373006Y-64323000D03*
X126373006Y-63423000D03*
X125473006Y-63423000D03*
X125473006Y-64323000D03*
X112681006Y-78015000D03*
X112681006Y-77115000D03*
X111781006Y-77115000D03*
X111781006Y-78015000D03*
X112681006Y-136206000D03*
X112681006Y-135306000D03*
X111781006Y-135306000D03*
X111781006Y-136206000D03*
X91373006Y-95130000D03*
X91373006Y-94230000D03*
X90473006Y-94230000D03*
X90473006Y-95130000D03*
X129796006Y-43785000D03*
X129796006Y-42885000D03*
X128896006Y-42885000D03*
X128896006Y-43785000D03*
X98219006Y-95130000D03*
X98219006Y-94230000D03*
X97319006Y-94230000D03*
X97319006Y-95130000D03*
X87950006Y-57477000D03*
X87950006Y-56577000D03*
X87050006Y-56577000D03*
X87050006Y-57477000D03*
D13*
X142000003Y-128899995D03*
D11*
X94796006Y-74592000D03*
X94796006Y-73692000D03*
X93896006Y-73692000D03*
X93896006Y-74592000D03*
X129796006Y-54054000D03*
X129796006Y-53154000D03*
X128896006Y-53154000D03*
X128896006Y-54054000D03*
X77681006Y-101976000D03*
X77681006Y-101076000D03*
X76781006Y-101076000D03*
X76781006Y-101976000D03*
X81104006Y-60900000D03*
X81104006Y-60000000D03*
X80204006Y-60000000D03*
X80204006Y-60900000D03*
X81104006Y-108822000D03*
X81104006Y-107922000D03*
X80204006Y-107922000D03*
X80204006Y-108822000D03*
X94796006Y-91707000D03*
X94796006Y-90807000D03*
X93896006Y-90807000D03*
X93896006Y-91707000D03*
D12*
X120717899Y-126436892D03*
X120717899Y-127986892D03*
D10*
X69166664Y-138399996D03*
D12*
X120717899Y-44284892D03*
X120717899Y-45834892D03*
D10*
X126166667Y-27000001D03*
X102999994Y-63633332D03*
D11*
X77681006Y-122514000D03*
X77681006Y-121614000D03*
X76781006Y-121614000D03*
X76781006Y-122514000D03*
X122950006Y-132783000D03*
X122950006Y-131883000D03*
X122050006Y-131883000D03*
X122050006Y-132783000D03*
X119527006Y-88284000D03*
X119527006Y-87384000D03*
X118627006Y-87384000D03*
X118627006Y-88284000D03*
X136642006Y-105399000D03*
X136642006Y-104499000D03*
X135742006Y-104499000D03*
X135742006Y-105399000D03*
X116104006Y-105399000D03*
X116104006Y-104499000D03*
X115204006Y-104499000D03*
X115204006Y-105399000D03*
X91373006Y-71169000D03*
X91373006Y-70269000D03*
X90473006Y-70269000D03*
X90473006Y-71169000D03*
X98219006Y-132783000D03*
X98219006Y-131883000D03*
X97319006Y-131883000D03*
X97319006Y-132783000D03*
X74258006Y-60900000D03*
X74258006Y-60000000D03*
X73358006Y-60000000D03*
X73358006Y-60900000D03*
X116104006Y-74592000D03*
X116104006Y-73692000D03*
X115204006Y-73692000D03*
X115204006Y-74592000D03*
D10*
X107000002Y-62633332D03*
X138000002Y-20000000D03*
D11*
X109258006Y-136206000D03*
X109258006Y-135306000D03*
X108358006Y-135306000D03*
X108358006Y-136206000D03*
X122950006Y-47208000D03*
X122950006Y-46308000D03*
X122050006Y-46308000D03*
X122050006Y-47208000D03*
X91373006Y-136206000D03*
X91373006Y-135306000D03*
X90473006Y-135306000D03*
X90473006Y-136206000D03*
D10*
X102999995Y-78011109D03*
D11*
X136642006Y-50631000D03*
X136642006Y-49731000D03*
X135742006Y-49731000D03*
X135742006Y-50631000D03*
D10*
X138000001Y-125522218D03*
D11*
X122950006Y-91707000D03*
X122950006Y-90807000D03*
X122050006Y-90807000D03*
X122050006Y-91707000D03*
X136642006Y-30093000D03*
X136642006Y-29193000D03*
X135742006Y-29193000D03*
X135742006Y-30093000D03*
X109258006Y-88284000D03*
X109258006Y-87384000D03*
X108358006Y-87384000D03*
X108358006Y-88284000D03*
X122950006Y-57477000D03*
X122950006Y-56577000D03*
X122050006Y-56577000D03*
X122050006Y-57477000D03*
X84527006Y-88284000D03*
X84527006Y-87384000D03*
X83627006Y-87384000D03*
X83627006Y-88284000D03*
X91373006Y-36939000D03*
X91373006Y-36039000D03*
X90473006Y-36039000D03*
X90473006Y-36939000D03*
D10*
X71999997Y-127522218D03*
D11*
X84527006Y-108822000D03*
X84527006Y-107922000D03*
X83627006Y-107922000D03*
X83627006Y-108822000D03*
X101642006Y-88284000D03*
X101642006Y-87384000D03*
X100742006Y-87384000D03*
X100742006Y-88284000D03*
X84527006Y-122514000D03*
X84527006Y-121614000D03*
X83627006Y-121614000D03*
X83627006Y-122514000D03*
X119527006Y-132783000D03*
X119527006Y-131883000D03*
X118627006Y-131883000D03*
X118627006Y-132783000D03*
X112681006Y-91707000D03*
X112681006Y-90807000D03*
X111781006Y-90807000D03*
X111781006Y-91707000D03*
X77681006Y-78015000D03*
X77681006Y-77115000D03*
X76781006Y-77115000D03*
X76781006Y-78015000D03*
D14*
X100992899Y-79642392D03*
X102012899Y-79642392D03*
D11*
X133219006Y-40362000D03*
X133219006Y-39462000D03*
X132319006Y-39462000D03*
X132319006Y-40362000D03*
X84527006Y-54054000D03*
X84527006Y-53154000D03*
X83627006Y-53154000D03*
X83627006Y-54054000D03*
X133219006Y-112245000D03*
X133219006Y-111345000D03*
X132319006Y-111345000D03*
X132319006Y-112245000D03*
X116104006Y-101976000D03*
X116104006Y-101076000D03*
X115204006Y-101076000D03*
X115204006Y-101976000D03*
D10*
X106999998Y-114144441D03*
X137999998Y-100766663D03*
D11*
X122950006Y-108822000D03*
X122950006Y-107922000D03*
X122050006Y-107922000D03*
X122050006Y-108822000D03*
X84527006Y-91707000D03*
X84527006Y-90807000D03*
X83627006Y-90807000D03*
X83627006Y-91707000D03*
D10*
X72000002Y-75011109D03*
D11*
X126373006Y-108822000D03*
X126373006Y-107922000D03*
X125473006Y-107922000D03*
X125473006Y-108822000D03*
X87950006Y-112245000D03*
X87950006Y-111345000D03*
X87050006Y-111345000D03*
X87050006Y-112245000D03*
D10*
X102999997Y-87388886D03*
X127166667Y-27000001D03*
D11*
X122950006Y-78015000D03*
X122950006Y-77115000D03*
X122050006Y-77115000D03*
X122050006Y-78015000D03*
X77681006Y-40362000D03*
X77681006Y-39462000D03*
X76781006Y-39462000D03*
X76781006Y-40362000D03*
X109258006Y-119091000D03*
X109258006Y-118191000D03*
X108358006Y-118191000D03*
X108358006Y-119091000D03*
X81104006Y-74592000D03*
X81104006Y-73692000D03*
X80204006Y-73692000D03*
X80204006Y-74592000D03*
X112681006Y-30093000D03*
X112681006Y-29193000D03*
X111781006Y-29193000D03*
X111781006Y-30093000D03*
X101642006Y-122514000D03*
X101642006Y-121614000D03*
X100742006Y-121614000D03*
X100742006Y-122514000D03*
D14*
X101000006Y-38543000D03*
X102020006Y-38543000D03*
D11*
X77681006Y-33516000D03*
X77681006Y-32616000D03*
X76781006Y-32616000D03*
X76781006Y-33516000D03*
X77681006Y-71169000D03*
X77681006Y-70269000D03*
X76781006Y-70269000D03*
X76781006Y-71169000D03*
D10*
X72000002Y-78011109D03*
D11*
X74258006Y-132783000D03*
X74258006Y-131883000D03*
X73358006Y-131883000D03*
X73358006Y-132783000D03*
X126373006Y-71169000D03*
X126373006Y-70269000D03*
X125473006Y-70269000D03*
X125473006Y-71169000D03*
X112681006Y-122514000D03*
X112681006Y-121614000D03*
X111781006Y-121614000D03*
X111781006Y-122514000D03*
X126373006Y-33516000D03*
X126373006Y-32616000D03*
X125473006Y-32616000D03*
X125473006Y-33516000D03*
X77681006Y-108822000D03*
X77681006Y-107922000D03*
X76781006Y-107922000D03*
X76781006Y-108822000D03*
X116104006Y-119091000D03*
X116104006Y-118191000D03*
X115204006Y-118191000D03*
X115204006Y-119091000D03*
X119527006Y-33516000D03*
X119527006Y-32616000D03*
X118627006Y-32616000D03*
X118627006Y-33516000D03*
X84527006Y-81438000D03*
X84527006Y-80538000D03*
X83627006Y-80538000D03*
X83627006Y-81438000D03*
D10*
X71999997Y-140399995D03*
D11*
X122950006Y-112245000D03*
X122950006Y-111345000D03*
X122050006Y-111345000D03*
X122050006Y-112245000D03*
X101642006Y-112245000D03*
X101642006Y-111345000D03*
X100742006Y-111345000D03*
X100742006Y-112245000D03*
X129796006Y-71169000D03*
X129796006Y-70269000D03*
X128896006Y-70269000D03*
X128896006Y-71169000D03*
D10*
X107000002Y-65633332D03*
X137999991Y-40877777D03*
D11*
X112681006Y-50631000D03*
X112681006Y-49731000D03*
X111781006Y-49731000D03*
X111781006Y-50631000D03*
X101642006Y-74592000D03*
X101642006Y-73692000D03*
X100742006Y-73692000D03*
X100742006Y-74592000D03*
X94796006Y-50631000D03*
X94796006Y-49731000D03*
X93896006Y-49731000D03*
X93896006Y-50631000D03*
X77681006Y-67746000D03*
X77681006Y-66846000D03*
X76781006Y-66846000D03*
X76781006Y-67746000D03*
X126373006Y-88284000D03*
X126373006Y-87384000D03*
X125473006Y-87384000D03*
X125473006Y-88284000D03*
X101642006Y-91707000D03*
X101642006Y-90807000D03*
X100742006Y-90807000D03*
X100742006Y-91707000D03*
X77681006Y-84861000D03*
X77681006Y-83961000D03*
X76781006Y-83961000D03*
X76781006Y-84861000D03*
D10*
X72000006Y-37877777D03*
D11*
X119527006Y-91707000D03*
X119527006Y-90807000D03*
X118627006Y-90807000D03*
X118627006Y-91707000D03*
X109258006Y-98553000D03*
X109258006Y-97653000D03*
X108358006Y-97653000D03*
X108358006Y-98553000D03*
X116104006Y-122514000D03*
X116104006Y-121614000D03*
X115204006Y-121614000D03*
X115204006Y-122514000D03*
X84527006Y-60900000D03*
X84527006Y-60000000D03*
X83627006Y-60000000D03*
X83627006Y-60900000D03*
D10*
X138000000Y-113144441D03*
D11*
X87950006Y-78015000D03*
X87950006Y-77115000D03*
X87050006Y-77115000D03*
X87050006Y-78015000D03*
X87950006Y-88284000D03*
X87950006Y-87384000D03*
X87050006Y-87384000D03*
X87050006Y-88284000D03*
X122950006Y-60900000D03*
X122950006Y-60000000D03*
X122050006Y-60000000D03*
X122050006Y-60900000D03*
X74258006Y-50631000D03*
X74258006Y-49731000D03*
X73358006Y-49731000D03*
X73358006Y-50631000D03*
D10*
X67499997Y-27000000D03*
X140833336Y-27000000D03*
X106999996Y-126522218D03*
D11*
X112681006Y-64323000D03*
X112681006Y-63423000D03*
X111781006Y-63423000D03*
X111781006Y-64323000D03*
X109258006Y-122514000D03*
X109258006Y-121614000D03*
X108358006Y-121614000D03*
X108358006Y-122514000D03*
D10*
X107000002Y-64633332D03*
D11*
X81104006Y-71169000D03*
X81104006Y-70269000D03*
X80204006Y-70269000D03*
X80204006Y-71169000D03*
X81104006Y-30093000D03*
X81104006Y-29193000D03*
X80204006Y-29193000D03*
X80204006Y-30093000D03*
D10*
X65833331Y-138399996D03*
D11*
X87950006Y-30093000D03*
X87950006Y-29193000D03*
X87050006Y-29193000D03*
X87050006Y-30093000D03*
D10*
X65833331Y-27000000D03*
X142500003Y-138399996D03*
D11*
X87950006Y-136206000D03*
X87950006Y-135306000D03*
X87050006Y-135306000D03*
X87050006Y-136206000D03*
D12*
X120717899Y-133282892D03*
X120717899Y-134832892D03*
D11*
X91373006Y-54054000D03*
X91373006Y-53154000D03*
X90473006Y-53154000D03*
X90473006Y-54054000D03*
D10*
X103000001Y-124522218D03*
D11*
X74258006Y-129360000D03*
X74258006Y-128460000D03*
X73358006Y-128460000D03*
X73358006Y-129360000D03*
X77681006Y-36939000D03*
X77681006Y-36039000D03*
X76781006Y-36039000D03*
X76781006Y-36939000D03*
X87950006Y-40362000D03*
X87950006Y-39462000D03*
X87050006Y-39462000D03*
X87050006Y-40362000D03*
D10*
X102999991Y-37877777D03*
X81833332Y-27000000D03*
D11*
X119527006Y-40362000D03*
X119527006Y-39462000D03*
X118627006Y-39462000D03*
X118627006Y-40362000D03*
X87950006Y-67746000D03*
X87950006Y-66846000D03*
X87050006Y-66846000D03*
X87050006Y-67746000D03*
D10*
X72000000Y-99766663D03*
X137999992Y-50255554D03*
X107000001Y-77011109D03*
D11*
X87950006Y-71169000D03*
X87950006Y-70269000D03*
X87050006Y-70269000D03*
X87050006Y-71169000D03*
X101642006Y-67746000D03*
X101642006Y-66846000D03*
X100742006Y-66846000D03*
X100742006Y-67746000D03*
D10*
X141666669Y-138399996D03*
D11*
X136642006Y-54054000D03*
X136642006Y-53154000D03*
X135742006Y-53154000D03*
X135742006Y-54054000D03*
X122950006Y-105399000D03*
X122950006Y-104499000D03*
X122050006Y-104499000D03*
X122050006Y-105399000D03*
X84527006Y-78015000D03*
X84527006Y-77115000D03*
X83627006Y-77115000D03*
X83627006Y-78015000D03*
D10*
X102999994Y-64633332D03*
D11*
X129796006Y-50631000D03*
X129796006Y-49731000D03*
X128896006Y-49731000D03*
X128896006Y-50631000D03*
D14*
X136092898Y-65942392D03*
X137112898Y-65942392D03*
D11*
X94796006Y-78015000D03*
X94796006Y-77115000D03*
X93896006Y-77115000D03*
X93896006Y-78015000D03*
X133219006Y-84861000D03*
X133219006Y-83961000D03*
X132319006Y-83961000D03*
X132319006Y-84861000D03*
D12*
X85717899Y-105898892D03*
X85717899Y-107448892D03*
D10*
X107000000Y-88388886D03*
D11*
X87950006Y-122514000D03*
X87950006Y-121614000D03*
X87050006Y-121614000D03*
X87050006Y-122514000D03*
D10*
X118833331Y-138399995D03*
X93166667Y-138399995D03*
D11*
X109258006Y-105399000D03*
X109258006Y-104499000D03*
X108358006Y-104499000D03*
X108358006Y-105399000D03*
X94796006Y-33516000D03*
X94796006Y-32616000D03*
X93896006Y-32616000D03*
X93896006Y-33516000D03*
X77681006Y-136206000D03*
X77681006Y-135306000D03*
X76781006Y-135306000D03*
X76781006Y-136206000D03*
D10*
X107000001Y-78011109D03*
D11*
X133219006Y-74592000D03*
X133219006Y-73692000D03*
X132319006Y-73692000D03*
X132319006Y-74592000D03*
D10*
X137999994Y-64633332D03*
X72000004Y-53255554D03*
D11*
X101642006Y-84861000D03*
X101642006Y-83961000D03*
X100742006Y-83961000D03*
X100742006Y-84861000D03*
X133219006Y-71169000D03*
X133219006Y-70269000D03*
X132319006Y-70269000D03*
X132319006Y-71169000D03*
X94796006Y-71169000D03*
X94796006Y-70269000D03*
X93896006Y-70269000D03*
X93896006Y-71169000D03*
X94796006Y-136206000D03*
X94796006Y-135306000D03*
X93896006Y-135306000D03*
X93896006Y-136206000D03*
D14*
X135972899Y-107043392D03*
X136992899Y-107043392D03*
D11*
X98219006Y-60900000D03*
X98219006Y-60000000D03*
X97319006Y-60000000D03*
X97319006Y-60900000D03*
X116104006Y-47208000D03*
X116104006Y-46308000D03*
X115204006Y-46308000D03*
X115204006Y-47208000D03*
D10*
X140000003Y-138399996D03*
D11*
X122950006Y-81438000D03*
X122950006Y-80538000D03*
X122050006Y-80538000D03*
X122050006Y-81438000D03*
X119527006Y-47208000D03*
X119527006Y-46308000D03*
X118627006Y-46308000D03*
X118627006Y-47208000D03*
D10*
X137999994Y-65633332D03*
D11*
X122950006Y-129360000D03*
X122950006Y-128460000D03*
X122050006Y-128460000D03*
X122050006Y-129360000D03*
X94796006Y-122514000D03*
X94796006Y-121614000D03*
X93896006Y-121614000D03*
X93896006Y-122514000D03*
X101642006Y-105399000D03*
X101642006Y-104499000D03*
X100742006Y-104499000D03*
X100742006Y-105399000D03*
X122950006Y-98553000D03*
X122950006Y-97653000D03*
X122050006Y-97653000D03*
X122050006Y-98553000D03*
X94796006Y-40362000D03*
X94796006Y-39462000D03*
X93896006Y-39462000D03*
X93896006Y-40362000D03*
X81104006Y-40362000D03*
X81104006Y-39462000D03*
X80204006Y-39462000D03*
X80204006Y-40362000D03*
X77681006Y-88284000D03*
X77681006Y-87384000D03*
X76781006Y-87384000D03*
X76781006Y-88284000D03*
X109258006Y-33516000D03*
X109258006Y-32616000D03*
X108358006Y-32616000D03*
X108358006Y-33516000D03*
X119527006Y-81438000D03*
X119527006Y-80538000D03*
X118627006Y-80538000D03*
X118627006Y-81438000D03*
D10*
X138000002Y-24166667D03*
D11*
X84527006Y-136206000D03*
X84527006Y-135306000D03*
X83627006Y-135306000D03*
X83627006Y-136206000D03*
X112681006Y-67746000D03*
X112681006Y-66846000D03*
X111781006Y-66846000D03*
X111781006Y-67746000D03*
X74258006Y-95130000D03*
X74258006Y-94230000D03*
X73358006Y-94230000D03*
X73358006Y-95130000D03*
X94796006Y-54054000D03*
X94796006Y-53154000D03*
X93896006Y-53154000D03*
X93896006Y-54054000D03*
X136642006Y-74592000D03*
X136642006Y-73692000D03*
X135742006Y-73692000D03*
X135742006Y-74592000D03*
X119527006Y-74592000D03*
X119527006Y-73692000D03*
X118627006Y-73692000D03*
X118627006Y-74592000D03*
X112681006Y-33516000D03*
X112681006Y-32616000D03*
X111781006Y-32616000D03*
X111781006Y-33516000D03*
D10*
X138000001Y-124522218D03*
X106999998Y-112144441D03*
X71999997Y-142066661D03*
X138000001Y-126522218D03*
D11*
X126373006Y-60900000D03*
X126373006Y-60000000D03*
X125473006Y-60000000D03*
X125473006Y-60900000D03*
X101642006Y-132783000D03*
X101642006Y-131883000D03*
X100742006Y-131883000D03*
X100742006Y-132783000D03*
X84527006Y-115668000D03*
X84527006Y-114768000D03*
X83627006Y-114768000D03*
X83627006Y-115668000D03*
X122950006Y-40362000D03*
X122950006Y-39462000D03*
X122050006Y-39462000D03*
X122050006Y-40362000D03*
D14*
X135972899Y-93343392D03*
X136992899Y-93343392D03*
D11*
X126373006Y-30093000D03*
X126373006Y-29193000D03*
X125473006Y-29193000D03*
X125473006Y-30093000D03*
X98219006Y-119091000D03*
X98219006Y-118191000D03*
X97319006Y-118191000D03*
X97319006Y-119091000D03*
X109258006Y-50631000D03*
X109258006Y-49731000D03*
X108358006Y-49731000D03*
X108358006Y-50631000D03*
X126373006Y-43785000D03*
X126373006Y-42885000D03*
X125473006Y-42885000D03*
X125473006Y-43785000D03*
X98219006Y-129360000D03*
X98219006Y-128460000D03*
X97319006Y-128460000D03*
X97319006Y-129360000D03*
D10*
X106999999Y-102766663D03*
D11*
X87950006Y-125937000D03*
X87950006Y-125037000D03*
X87050006Y-125037000D03*
X87050006Y-125937000D03*
X129796006Y-132783000D03*
X129796006Y-131883000D03*
X128896006Y-131883000D03*
X128896006Y-132783000D03*
X109258006Y-112245000D03*
X109258006Y-111345000D03*
X108358006Y-111345000D03*
X108358006Y-112245000D03*
X98219006Y-122514000D03*
X98219006Y-121614000D03*
X97319006Y-121614000D03*
X97319006Y-122514000D03*
D10*
X138000002Y-142066661D03*
D11*
X133219006Y-60900000D03*
X133219006Y-60000000D03*
X132319006Y-60000000D03*
X132319006Y-60900000D03*
X112681006Y-57477000D03*
X112681006Y-56577000D03*
X111781006Y-56577000D03*
X111781006Y-57477000D03*
D10*
X72000003Y-65633332D03*
D11*
X133219006Y-88284000D03*
X133219006Y-87384000D03*
X132319006Y-87384000D03*
X132319006Y-88284000D03*
D10*
X137999993Y-53255554D03*
D11*
X101642006Y-81438000D03*
X101642006Y-80538000D03*
X100742006Y-80538000D03*
X100742006Y-81438000D03*
D10*
X103000000Y-113144441D03*
D11*
X109258006Y-36939000D03*
X109258006Y-36039000D03*
X108358006Y-36039000D03*
X108358006Y-36939000D03*
X112681006Y-101976000D03*
X112681006Y-101076000D03*
X111781006Y-101076000D03*
X111781006Y-101976000D03*
X116104006Y-67746000D03*
X116104006Y-66846000D03*
X115204006Y-66846000D03*
X115204006Y-67746000D03*
X74258006Y-74592000D03*
X74258006Y-73692000D03*
X73358006Y-73692000D03*
X73358006Y-74592000D03*
D10*
X71999997Y-145399995D03*
D11*
X91373006Y-88284000D03*
X91373006Y-87384000D03*
X90473006Y-87384000D03*
X90473006Y-88284000D03*
D14*
X135992899Y-79642392D03*
X137012899Y-79642392D03*
D11*
X81104006Y-122514000D03*
X81104006Y-121614000D03*
X80204006Y-121614000D03*
X80204006Y-122514000D03*
D12*
X85717899Y-92206892D03*
X85717899Y-93756892D03*
D10*
X117833331Y-138399995D03*
X68333331Y-138399996D03*
X71999999Y-112144441D03*
D11*
X122950006Y-64323000D03*
X122950006Y-63423000D03*
X122050006Y-63423000D03*
X122050006Y-64323000D03*
D10*
X115833331Y-138399995D03*
D11*
X119527006Y-122514000D03*
X119527006Y-121614000D03*
X118627006Y-121614000D03*
X118627006Y-122514000D03*
X119527006Y-78015000D03*
X119527006Y-77115000D03*
X118627006Y-77115000D03*
X118627006Y-78015000D03*
D10*
X138000002Y-142899995D03*
D13*
X142000003Y-23000000D03*
D10*
X137999997Y-87388886D03*
D11*
X136642006Y-129360000D03*
X136642006Y-128460000D03*
X135742006Y-128460000D03*
X135742006Y-129360000D03*
X136642006Y-71169000D03*
X136642006Y-70269000D03*
X135742006Y-70269000D03*
X135742006Y-71169000D03*
D10*
X137999991Y-39877777D03*
D14*
X100972899Y-107043392D03*
X101992899Y-107043392D03*
D11*
X74258006Y-40362000D03*
X74258006Y-39462000D03*
X73358006Y-39462000D03*
X73358006Y-40362000D03*
X94796006Y-43785000D03*
X94796006Y-42885000D03*
X93896006Y-42885000D03*
X93896006Y-43785000D03*
X98219006Y-136206000D03*
X98219006Y-135306000D03*
X97319006Y-135306000D03*
X97319006Y-136206000D03*
X98219006Y-50631000D03*
X98219006Y-49731000D03*
X97319006Y-49731000D03*
X97319006Y-50631000D03*
X122950006Y-101976000D03*
X122950006Y-101076000D03*
X122050006Y-101076000D03*
X122050006Y-101976000D03*
X98219006Y-105399000D03*
X98219006Y-104499000D03*
X97319006Y-104499000D03*
X97319006Y-105399000D03*
D12*
X85717899Y-30592892D03*
X85717899Y-32142892D03*
D10*
X103000000Y-114144441D03*
X138000002Y-20833334D03*
D11*
X98219006Y-43785000D03*
X98219006Y-42885000D03*
X97319006Y-42885000D03*
X97319006Y-43785000D03*
X84527006Y-43785000D03*
X84527006Y-42885000D03*
X83627006Y-42885000D03*
X83627006Y-43785000D03*
X109258006Y-81438000D03*
X109258006Y-80538000D03*
X108358006Y-80538000D03*
X108358006Y-81438000D03*
X98219006Y-30093000D03*
X98219006Y-29193000D03*
X97319006Y-29193000D03*
X97319006Y-30093000D03*
D10*
X106999997Y-125522218D03*
D11*
X77681006Y-74592000D03*
X77681006Y-73692000D03*
X76781006Y-73692000D03*
X76781006Y-74592000D03*
X136642006Y-108822000D03*
X136642006Y-107922000D03*
X135742006Y-107922000D03*
X135742006Y-108822000D03*
X91373006Y-105399000D03*
X91373006Y-104499000D03*
X90473006Y-104499000D03*
X90473006Y-105399000D03*
X129796006Y-115668000D03*
X129796006Y-114768000D03*
X128896006Y-114768000D03*
X128896006Y-115668000D03*
D10*
X71999998Y-125522218D03*
D11*
X129796006Y-33516000D03*
X129796006Y-32616000D03*
X128896006Y-32616000D03*
X128896006Y-33516000D03*
X136642006Y-33516000D03*
X136642006Y-32616000D03*
X135742006Y-32616000D03*
X135742006Y-33516000D03*
X112681006Y-108822000D03*
X112681006Y-107922000D03*
X111781006Y-107922000D03*
X111781006Y-108822000D03*
X122950006Y-74592000D03*
X122950006Y-73692000D03*
X122050006Y-73692000D03*
X122050006Y-74592000D03*
X101642006Y-129360000D03*
X101642006Y-128460000D03*
X100742006Y-128460000D03*
X100742006Y-129360000D03*
X98219006Y-101976000D03*
X98219006Y-101076000D03*
X97319006Y-101076000D03*
X97319006Y-101976000D03*
X129796006Y-136206000D03*
X129796006Y-135306000D03*
X128896006Y-135306000D03*
X128896006Y-136206000D03*
X94796006Y-112245000D03*
X94796006Y-111345000D03*
X93896006Y-111345000D03*
X93896006Y-112245000D03*
D10*
X138000002Y-140399995D03*
D11*
X91373006Y-43785000D03*
X91373006Y-42885000D03*
X90473006Y-42885000D03*
X90473006Y-43785000D03*
X74258006Y-122514000D03*
X74258006Y-121614000D03*
X73358006Y-121614000D03*
X73358006Y-122514000D03*
D10*
X72000000Y-100766663D03*
X94166667Y-27000001D03*
D11*
X129796006Y-129360000D03*
X129796006Y-128460000D03*
X128896006Y-128460000D03*
X128896006Y-129360000D03*
D10*
X137999995Y-76011109D03*
D14*
X136000006Y-52149500D03*
X137020006Y-52149500D03*
D10*
X116833331Y-138399995D03*
D11*
X74258006Y-81438000D03*
X74258006Y-80538000D03*
X73358006Y-80538000D03*
X73358006Y-81438000D03*
X91373006Y-33516000D03*
X91373006Y-32616000D03*
X90473006Y-32616000D03*
X90473006Y-33516000D03*
X77681006Y-125937000D03*
X77681006Y-125037000D03*
X76781006Y-125037000D03*
X76781006Y-125937000D03*
D10*
X106999999Y-99766663D03*
D11*
X77681006Y-95130000D03*
X77681006Y-94230000D03*
X76781006Y-94230000D03*
X76781006Y-95130000D03*
X136642006Y-112245000D03*
X136642006Y-111345000D03*
X135742006Y-111345000D03*
X135742006Y-112245000D03*
D10*
X91166667Y-27000001D03*
D11*
X129796006Y-40362000D03*
X129796006Y-39462000D03*
X128896006Y-39462000D03*
X128896006Y-40362000D03*
D10*
X71999997Y-141233328D03*
D11*
X116104006Y-108822000D03*
X116104006Y-107922000D03*
X115204006Y-107922000D03*
X115204006Y-108822000D03*
X119527006Y-30093000D03*
X119527006Y-29193000D03*
X118627006Y-29193000D03*
X118627006Y-30093000D03*
D10*
X72000006Y-38877777D03*
D11*
X84527006Y-101976000D03*
X84527006Y-101076000D03*
X83627006Y-101076000D03*
X83627006Y-101976000D03*
X136642006Y-57477000D03*
X136642006Y-56577000D03*
X135742006Y-56577000D03*
X135742006Y-57477000D03*
D10*
X143333336Y-27000000D03*
D11*
X84527006Y-57477000D03*
X84527006Y-56577000D03*
X83627006Y-56577000D03*
X83627006Y-57477000D03*
D10*
X118833331Y-27000000D03*
D11*
X77681006Y-60900000D03*
X77681006Y-60000000D03*
X76781006Y-60000000D03*
X76781006Y-60900000D03*
X129796006Y-108822000D03*
X129796006Y-107922000D03*
X128896006Y-107922000D03*
X128896006Y-108822000D03*
X126373006Y-40362000D03*
X126373006Y-39462000D03*
X125473006Y-39462000D03*
X125473006Y-40362000D03*
X91373006Y-81438000D03*
X91373006Y-80538000D03*
X90473006Y-80538000D03*
X90473006Y-81438000D03*
D10*
X67499997Y-138399996D03*
D11*
X77681006Y-43785000D03*
X77681006Y-42885000D03*
X76781006Y-42885000D03*
X76781006Y-43785000D03*
X101642006Y-60900000D03*
X101642006Y-60000000D03*
X100742006Y-60000000D03*
X100742006Y-60900000D03*
X112681006Y-115668000D03*
X112681006Y-114768000D03*
X111781006Y-114768000D03*
X111781006Y-115668000D03*
D10*
X142500003Y-27000000D03*
X138000002Y-21666667D03*
X107000000Y-90388886D03*
D11*
X74258006Y-125937000D03*
X74258006Y-125037000D03*
X73358006Y-125037000D03*
X73358006Y-125937000D03*
X109258006Y-43785000D03*
X109258006Y-42885000D03*
X108358006Y-42885000D03*
X108358006Y-43785000D03*
D10*
X71999997Y-20833334D03*
X116833331Y-27000000D03*
X92166667Y-27000001D03*
X103000001Y-127522218D03*
D11*
X98219006Y-64323000D03*
X98219006Y-63423000D03*
X97319006Y-63423000D03*
X97319006Y-64323000D03*
X101642006Y-47208000D03*
X101642006Y-46308000D03*
X100742006Y-46308000D03*
X100742006Y-47208000D03*
D12*
X120717899Y-57976892D03*
X120717899Y-59526892D03*
D10*
X106999997Y-124522218D03*
D11*
X81104006Y-119091000D03*
X81104006Y-118191000D03*
X80204006Y-118191000D03*
X80204006Y-119091000D03*
X129796006Y-78015000D03*
X129796006Y-77115000D03*
X128896006Y-77115000D03*
X128896006Y-78015000D03*
X91373006Y-67746000D03*
X91373006Y-66846000D03*
X90473006Y-66846000D03*
X90473006Y-67746000D03*
X74258006Y-84861000D03*
X74258006Y-83961000D03*
X73358006Y-83961000D03*
X73358006Y-84861000D03*
X133219006Y-81438000D03*
X133219006Y-80538000D03*
X132319006Y-80538000D03*
X132319006Y-81438000D03*
X84527006Y-129360000D03*
X84527006Y-128460000D03*
X83627006Y-128460000D03*
X83627006Y-129360000D03*
X122950006Y-54054000D03*
X122950006Y-53154000D03*
X122050006Y-53154000D03*
X122050006Y-54054000D03*
X94796006Y-125937000D03*
X94796006Y-125037000D03*
X93896006Y-125037000D03*
X93896006Y-125937000D03*
X116104006Y-43785000D03*
X116104006Y-42885000D03*
X115204006Y-42885000D03*
X115204006Y-43785000D03*
X81104006Y-33516000D03*
X81104006Y-32616000D03*
X80204006Y-32616000D03*
X80204006Y-33516000D03*
X84527006Y-50631000D03*
X84527006Y-49731000D03*
X83627006Y-49731000D03*
X83627006Y-50631000D03*
X126373006Y-84861000D03*
X126373006Y-83961000D03*
X125473006Y-83961000D03*
X125473006Y-84861000D03*
D10*
X126166667Y-138399995D03*
D11*
X91373006Y-98553000D03*
X91373006Y-97653000D03*
X90473006Y-97653000D03*
X90473006Y-98553000D03*
X91373006Y-40362000D03*
X91373006Y-39462000D03*
X90473006Y-39462000D03*
X90473006Y-40362000D03*
D10*
X82833332Y-27000000D03*
D11*
X98219006Y-125937000D03*
X98219006Y-125037000D03*
X97319006Y-125037000D03*
X97319006Y-125937000D03*
X87950006Y-36939000D03*
X87950006Y-36039000D03*
X87050006Y-36039000D03*
X87050006Y-36939000D03*
D12*
X120717899Y-51130892D03*
X120717899Y-52680892D03*
D11*
X74258006Y-67746000D03*
X74258006Y-66846000D03*
X73358006Y-66846000D03*
X73358006Y-67746000D03*
X109258006Y-54054000D03*
X109258006Y-53154000D03*
X108358006Y-53154000D03*
X108358006Y-54054000D03*
X133219006Y-105399000D03*
X133219006Y-104499000D03*
X132319006Y-104499000D03*
X132319006Y-105399000D03*
D10*
X128166667Y-138399995D03*
D11*
X74258006Y-71169000D03*
X74258006Y-70269000D03*
X73358006Y-70269000D03*
X73358006Y-71169000D03*
X101642006Y-64323000D03*
X101642006Y-63423000D03*
X100742006Y-63423000D03*
X100742006Y-64323000D03*
D12*
X85717899Y-85360892D03*
X85717899Y-86910892D03*
D11*
X81104006Y-54054000D03*
X81104006Y-53154000D03*
X80204006Y-53154000D03*
X80204006Y-54054000D03*
X136642006Y-36939000D03*
X136642006Y-36039000D03*
X135742006Y-36039000D03*
X135742006Y-36939000D03*
D10*
X71999997Y-143733328D03*
D11*
X91373006Y-78015000D03*
X91373006Y-77115000D03*
X90473006Y-77115000D03*
X90473006Y-78015000D03*
D10*
X102999991Y-40877777D03*
D11*
X119527006Y-50631000D03*
X119527006Y-49731000D03*
X118627006Y-49731000D03*
X118627006Y-50631000D03*
D10*
X72000002Y-76011109D03*
D11*
X101642006Y-115668000D03*
X101642006Y-114768000D03*
X100742006Y-114768000D03*
X100742006Y-115668000D03*
X129796006Y-91707000D03*
X129796006Y-90807000D03*
X128896006Y-90807000D03*
X128896006Y-91707000D03*
X81104006Y-112245000D03*
X81104006Y-111345000D03*
X80204006Y-111345000D03*
X80204006Y-112245000D03*
X91373006Y-64323000D03*
X91373006Y-63423000D03*
X90473006Y-63423000D03*
X90473006Y-64323000D03*
D12*
X85717899Y-64822892D03*
X85717899Y-66372892D03*
D11*
X133219006Y-33516000D03*
X133219006Y-32616000D03*
X132319006Y-32616000D03*
X132319006Y-33516000D03*
X119527006Y-64323000D03*
X119527006Y-63423000D03*
X118627006Y-63423000D03*
X118627006Y-64323000D03*
D10*
X137999997Y-89388886D03*
D11*
X126373006Y-101976000D03*
X126373006Y-101076000D03*
X125473006Y-101076000D03*
X125473006Y-101976000D03*
X129796006Y-30093000D03*
X129796006Y-29193000D03*
X128896006Y-29193000D03*
X128896006Y-30093000D03*
D14*
X135972899Y-120743392D03*
X136992899Y-120743392D03*
D11*
X122950006Y-33516000D03*
X122950006Y-32616000D03*
X122050006Y-32616000D03*
X122050006Y-33516000D03*
D10*
X102999995Y-77011109D03*
D11*
X109258006Y-101976000D03*
X109258006Y-101076000D03*
X108358006Y-101076000D03*
X108358006Y-101976000D03*
X126373006Y-105399000D03*
X126373006Y-104499000D03*
X125473006Y-104499000D03*
X125473006Y-105399000D03*
X136642006Y-47208000D03*
X136642006Y-46308000D03*
X135742006Y-46308000D03*
X135742006Y-47208000D03*
X112681006Y-112245000D03*
X112681006Y-111345000D03*
X111781006Y-111345000D03*
X111781006Y-112245000D03*
D13*
X67999997Y-142399995D03*
D10*
X102999992Y-50255554D03*
D11*
X129796006Y-57477000D03*
X129796006Y-56577000D03*
X128896006Y-56577000D03*
X128896006Y-57477000D03*
D10*
X102999995Y-75011109D03*
D11*
X122950006Y-119091000D03*
X122950006Y-118191000D03*
X122050006Y-118191000D03*
X122050006Y-119091000D03*
X129796006Y-64323000D03*
X129796006Y-63423000D03*
X128896006Y-63423000D03*
X128896006Y-64323000D03*
X91373006Y-74592000D03*
X91373006Y-73692000D03*
X90473006Y-73692000D03*
X90473006Y-74592000D03*
D10*
X138000002Y-22500000D03*
X107000005Y-38877777D03*
D11*
X129796006Y-60900000D03*
X129796006Y-60000000D03*
X128896006Y-60000000D03*
X128896006Y-60900000D03*
X126373006Y-81438000D03*
X126373006Y-80538000D03*
X125473006Y-80538000D03*
X125473006Y-81438000D03*
X116104006Y-78015000D03*
X116104006Y-77115000D03*
X115204006Y-77115000D03*
X115204006Y-78015000D03*
X81104006Y-50631000D03*
X81104006Y-49731000D03*
X80204006Y-49731000D03*
X80204006Y-50631000D03*
D12*
X85717899Y-119590892D03*
X85717899Y-121140892D03*
D11*
X129796006Y-105399000D03*
X129796006Y-104499000D03*
X128896006Y-104499000D03*
X128896006Y-105399000D03*
X87950006Y-91707000D03*
X87950006Y-90807000D03*
X87050006Y-90807000D03*
X87050006Y-91707000D03*
X109258006Y-71169000D03*
X109258006Y-70269000D03*
X108358006Y-70269000D03*
X108358006Y-71169000D03*
X81104006Y-98553000D03*
X81104006Y-97653000D03*
X80204006Y-97653000D03*
X80204006Y-98553000D03*
X133219006Y-43785000D03*
X133219006Y-42885000D03*
X132319006Y-42885000D03*
X132319006Y-43785000D03*
X101642006Y-43785000D03*
X101642006Y-42885000D03*
X100742006Y-42885000D03*
X100742006Y-43785000D03*
X133219006Y-122514000D03*
X133219006Y-121614000D03*
X132319006Y-121614000D03*
X132319006Y-122514000D03*
X109258006Y-47208000D03*
X109258006Y-46308000D03*
X108358006Y-46308000D03*
X108358006Y-47208000D03*
D10*
X145000003Y-138399996D03*
X92166667Y-138399995D03*
D11*
X98219006Y-74592000D03*
X98219006Y-73692000D03*
X97319006Y-73692000D03*
X97319006Y-74592000D03*
D10*
X72000005Y-39877777D03*
D11*
X126373006Y-91707000D03*
X126373006Y-90807000D03*
X125473006Y-90807000D03*
X125473006Y-91707000D03*
D10*
X141666669Y-27000000D03*
X106999996Y-127522218D03*
X71999999Y-114144441D03*
D12*
X120717899Y-30592892D03*
X120717899Y-32142892D03*
D11*
X122950006Y-43785000D03*
X122950006Y-42885000D03*
X122050006Y-42885000D03*
X122050006Y-43785000D03*
D10*
X72000004Y-52255554D03*
X93166667Y-27000001D03*
D11*
X98219006Y-47208000D03*
X98219006Y-46308000D03*
X97319006Y-46308000D03*
X97319006Y-47208000D03*
X133219006Y-64323000D03*
X133219006Y-63423000D03*
X132319006Y-63423000D03*
X132319006Y-64323000D03*
X91373006Y-91707000D03*
X91373006Y-90807000D03*
X90473006Y-90807000D03*
X90473006Y-91707000D03*
X81104006Y-115668000D03*
X81104006Y-114768000D03*
X80204006Y-114768000D03*
X80204006Y-115668000D03*
X77681006Y-81438000D03*
X77681006Y-80538000D03*
X76781006Y-80538000D03*
X76781006Y-81438000D03*
X119527006Y-125937000D03*
X119527006Y-125037000D03*
X118627006Y-125037000D03*
X118627006Y-125937000D03*
X91373006Y-115668000D03*
X91373006Y-114768000D03*
X90473006Y-114768000D03*
X90473006Y-115668000D03*
X119527006Y-43785000D03*
X119527006Y-42885000D03*
X118627006Y-42885000D03*
X118627006Y-43785000D03*
X119527006Y-36939000D03*
X119527006Y-36039000D03*
X118627006Y-36039000D03*
X118627006Y-36939000D03*
D10*
X102999999Y-112144441D03*
D11*
X116104006Y-98553000D03*
X116104006Y-97653000D03*
X115204006Y-97653000D03*
X115204006Y-98553000D03*
X77681006Y-112245000D03*
X77681006Y-111345000D03*
X76781006Y-111345000D03*
X76781006Y-112245000D03*
X84527006Y-98553000D03*
X84527006Y-97653000D03*
X83627006Y-97653000D03*
X83627006Y-98553000D03*
D10*
X145000003Y-27000000D03*
D11*
X101642006Y-40362000D03*
X101642006Y-39462000D03*
X100742006Y-39462000D03*
X100742006Y-40362000D03*
D10*
X138000001Y-127522218D03*
D11*
X136642006Y-98553000D03*
X136642006Y-97653000D03*
X135742006Y-97653000D03*
X135742006Y-98553000D03*
X81104006Y-84861000D03*
X81104006Y-83961000D03*
X80204006Y-83961000D03*
X80204006Y-84861000D03*
X116104006Y-84861000D03*
X116104006Y-83961000D03*
X115204006Y-83961000D03*
X115204006Y-84861000D03*
X81104006Y-64323000D03*
X81104006Y-63423000D03*
X80204006Y-63423000D03*
X80204006Y-64323000D03*
X84527006Y-67746000D03*
X84527006Y-66846000D03*
X83627006Y-66846000D03*
X83627006Y-67746000D03*
X101642006Y-95130000D03*
X101642006Y-94230000D03*
X100742006Y-94230000D03*
X100742006Y-95130000D03*
X77681006Y-132783000D03*
X77681006Y-131883000D03*
X76781006Y-131883000D03*
X76781006Y-132783000D03*
D10*
X137999991Y-38877777D03*
D11*
X87950006Y-33516000D03*
X87950006Y-32616000D03*
X87050006Y-32616000D03*
X87050006Y-33516000D03*
X87950006Y-98553000D03*
X87950006Y-97653000D03*
X87050006Y-97653000D03*
X87050006Y-98553000D03*
X126373006Y-78015000D03*
X126373006Y-77115000D03*
X125473006Y-77115000D03*
X125473006Y-78015000D03*
X74258006Y-64323000D03*
X74258006Y-63423000D03*
X73358006Y-63423000D03*
X73358006Y-64323000D03*
X119527006Y-54054000D03*
X119527006Y-53154000D03*
X118627006Y-53154000D03*
X118627006Y-54054000D03*
X98219006Y-81438000D03*
X98219006Y-80538000D03*
X97319006Y-80538000D03*
X97319006Y-81438000D03*
X101642006Y-30093000D03*
X101642006Y-29193000D03*
X100742006Y-29193000D03*
X100742006Y-30093000D03*
D10*
X144166669Y-138399996D03*
D14*
X100972899Y-93343392D03*
X101992899Y-93343392D03*
D11*
X81104006Y-136206000D03*
X81104006Y-135306000D03*
X80204006Y-135306000D03*
X80204006Y-136206000D03*
D10*
X64999997Y-27000000D03*
D11*
X87950006Y-119091000D03*
X87950006Y-118191000D03*
X87050006Y-118191000D03*
X87050006Y-119091000D03*
X119527006Y-60900000D03*
X119527006Y-60000000D03*
X118627006Y-60000000D03*
X118627006Y-60900000D03*
D10*
X137999992Y-51255554D03*
D11*
X81104006Y-129360000D03*
X81104006Y-128460000D03*
X80204006Y-128460000D03*
X80204006Y-129360000D03*
X112681006Y-54054000D03*
X112681006Y-53154000D03*
X111781006Y-53154000D03*
X111781006Y-54054000D03*
X77681006Y-30093000D03*
X77681006Y-29193000D03*
X76781006Y-29193000D03*
X76781006Y-30093000D03*
X116104006Y-54054000D03*
X116104006Y-53154000D03*
X115204006Y-53154000D03*
X115204006Y-54054000D03*
X129796006Y-98553000D03*
X129796006Y-97653000D03*
X128896006Y-97653000D03*
X128896006Y-98553000D03*
X101642006Y-54054000D03*
X101642006Y-53154000D03*
X100742006Y-53154000D03*
X100742006Y-54054000D03*
D13*
X67999997Y-36500000D03*
D10*
X82833332Y-138399995D03*
D11*
X122950006Y-125937000D03*
X122950006Y-125037000D03*
X122050006Y-125037000D03*
X122050006Y-125937000D03*
D10*
X102999998Y-100766663D03*
D11*
X116104006Y-71169000D03*
X116104006Y-70269000D03*
X115204006Y-70269000D03*
X115204006Y-71169000D03*
X101642006Y-33516000D03*
X101642006Y-32616000D03*
X100742006Y-32616000D03*
X100742006Y-33516000D03*
X81104006Y-95130000D03*
X81104006Y-94230000D03*
X80204006Y-94230000D03*
X80204006Y-95130000D03*
X122950006Y-50631000D03*
X122950006Y-49731000D03*
X122050006Y-49731000D03*
X122050006Y-50631000D03*
X116104006Y-129360000D03*
X116104006Y-128460000D03*
X115204006Y-128460000D03*
X115204006Y-129360000D03*
X109258006Y-91707000D03*
X109258006Y-90807000D03*
X108358006Y-90807000D03*
X108358006Y-91707000D03*
X74258006Y-57477000D03*
X74258006Y-56577000D03*
X73358006Y-56577000D03*
X73358006Y-57477000D03*
X98219006Y-54054000D03*
X98219006Y-53154000D03*
X97319006Y-53154000D03*
X97319006Y-54054000D03*
X81104006Y-57477000D03*
X81104006Y-56577000D03*
X80204006Y-56577000D03*
X80204006Y-57477000D03*
D14*
X136000006Y-38543000D03*
X137020006Y-38543000D03*
D10*
X102999992Y-52255554D03*
D11*
X94796006Y-81438000D03*
X94796006Y-80538000D03*
X93896006Y-80538000D03*
X93896006Y-81438000D03*
X84527006Y-71169000D03*
X84527006Y-70269000D03*
X83627006Y-70269000D03*
X83627006Y-71169000D03*
X122950006Y-36939000D03*
X122950006Y-36039000D03*
X122050006Y-36039000D03*
X122050006Y-36939000D03*
X91373006Y-132783000D03*
X91373006Y-131883000D03*
X90473006Y-131883000D03*
X90473006Y-132783000D03*
D12*
X85717899Y-99052892D03*
X85717899Y-100602892D03*
D10*
X138000002Y-143733328D03*
D11*
X109258006Y-95130000D03*
X109258006Y-94230000D03*
X108358006Y-94230000D03*
X108358006Y-95130000D03*
X81104006Y-36939000D03*
X81104006Y-36039000D03*
X80204006Y-36039000D03*
X80204006Y-36939000D03*
X109258006Y-129360000D03*
X109258006Y-128460000D03*
X108358006Y-128460000D03*
X108358006Y-129360000D03*
D10*
X137999995Y-77011109D03*
D14*
X101092898Y-65942392D03*
X102112898Y-65942392D03*
D11*
X133219006Y-54054000D03*
X133219006Y-53154000D03*
X132319006Y-53154000D03*
X132319006Y-54054000D03*
D10*
X138000002Y-141233328D03*
D13*
X142000003Y-142399995D03*
D11*
X126373006Y-125937000D03*
X126373006Y-125037000D03*
X125473006Y-125037000D03*
X125473006Y-125937000D03*
D12*
X85717899Y-78514892D03*
X85717899Y-80064892D03*
D11*
X84527006Y-119091000D03*
X84527006Y-118191000D03*
X83627006Y-118191000D03*
X83627006Y-119091000D03*
X77681006Y-47208000D03*
X77681006Y-46308000D03*
X76781006Y-46308000D03*
X76781006Y-47208000D03*
X109258006Y-132783000D03*
X109258006Y-131883000D03*
X108358006Y-131883000D03*
X108358006Y-132783000D03*
X126373006Y-119091000D03*
X126373006Y-118191000D03*
X125473006Y-118191000D03*
X125473006Y-119091000D03*
X126373006Y-57477000D03*
X126373006Y-56577000D03*
X125473006Y-56577000D03*
X125473006Y-57477000D03*
X136642006Y-122514000D03*
X136642006Y-121614000D03*
X135742006Y-121614000D03*
X135742006Y-122514000D03*
X98219006Y-108822000D03*
X98219006Y-107922000D03*
X97319006Y-107922000D03*
X97319006Y-108822000D03*
X136642006Y-91707000D03*
X136642006Y-90807000D03*
X135742006Y-90807000D03*
X135742006Y-91707000D03*
X126373006Y-98553000D03*
X126373006Y-97653000D03*
X125473006Y-97653000D03*
X125473006Y-98553000D03*
X87950006Y-115668000D03*
X87950006Y-114768000D03*
X87050006Y-114768000D03*
X87050006Y-115668000D03*
D10*
X107000000Y-87388886D03*
D11*
X84527006Y-47208000D03*
X84527006Y-46308000D03*
X83627006Y-46308000D03*
X83627006Y-47208000D03*
X136642006Y-40362000D03*
X136642006Y-39462000D03*
X135742006Y-39462000D03*
X135742006Y-40362000D03*
D10*
X72000003Y-64633332D03*
D11*
X74258006Y-30093000D03*
X74258006Y-29193000D03*
X73358006Y-29193000D03*
X73358006Y-30093000D03*
X136642006Y-115668000D03*
X136642006Y-114768000D03*
X135742006Y-114768000D03*
X135742006Y-115668000D03*
D10*
X71999997Y-126522218D03*
X103000001Y-126522218D03*
X72000004Y-50255554D03*
D11*
X91373006Y-119091000D03*
X91373006Y-118191000D03*
X90473006Y-118191000D03*
X90473006Y-119091000D03*
D10*
X137999998Y-99766663D03*
X107000001Y-75011109D03*
D11*
X98219006Y-71169000D03*
X98219006Y-70269000D03*
X97319006Y-70269000D03*
X97319006Y-71169000D03*
X133219006Y-91707000D03*
X133219006Y-90807000D03*
X132319006Y-90807000D03*
X132319006Y-91707000D03*
X91373006Y-129360000D03*
X91373006Y-128460000D03*
X90473006Y-128460000D03*
X90473006Y-129360000D03*
X94796006Y-105399000D03*
X94796006Y-104499000D03*
X93896006Y-104499000D03*
X93896006Y-105399000D03*
D10*
X140000003Y-27000000D03*
D11*
X126373006Y-54054000D03*
X126373006Y-53154000D03*
X125473006Y-53154000D03*
X125473006Y-54054000D03*
D10*
X94166667Y-138399995D03*
D14*
X100972899Y-120743392D03*
X101992899Y-120743392D03*
D12*
X120717899Y-37438892D03*
X120717899Y-38988892D03*
D10*
X68333331Y-27000000D03*
D11*
X74258006Y-91707000D03*
X74258006Y-90807000D03*
X73358006Y-90807000D03*
X73358006Y-91707000D03*
X126373006Y-50631000D03*
X126373006Y-49731000D03*
X125473006Y-49731000D03*
X125473006Y-50631000D03*
X81104006Y-101976000D03*
X81104006Y-101076000D03*
X80204006Y-101076000D03*
X80204006Y-101976000D03*
X101642006Y-50631000D03*
X101642006Y-49731000D03*
X100742006Y-49731000D03*
X100742006Y-50631000D03*
D10*
X129166667Y-27000001D03*
X72000001Y-88388886D03*
X102999994Y-62633332D03*
X106999998Y-113144441D03*
D11*
X119527006Y-119091000D03*
X119527006Y-118191000D03*
X118627006Y-118191000D03*
X118627006Y-119091000D03*
D10*
X66666664Y-27000000D03*
D11*
X119527006Y-98553000D03*
X119527006Y-97653000D03*
X118627006Y-97653000D03*
X118627006Y-98553000D03*
X87950006Y-43785000D03*
X87950006Y-42885000D03*
X87050006Y-42885000D03*
X87050006Y-43785000D03*
X81104006Y-132783000D03*
X81104006Y-131883000D03*
X80204006Y-131883000D03*
X80204006Y-132783000D03*
D10*
X138000002Y-145399995D03*
D11*
X101642006Y-108822000D03*
X101642006Y-107922000D03*
X100742006Y-107922000D03*
X100742006Y-108822000D03*
X94796006Y-64323000D03*
X94796006Y-63423000D03*
X93896006Y-63423000D03*
X93896006Y-64323000D03*
D10*
X83833332Y-27000000D03*
D12*
X120717899Y-112744892D03*
X120717899Y-114294892D03*
D11*
X112681006Y-47208000D03*
X112681006Y-46308000D03*
X111781006Y-46308000D03*
X111781006Y-47208000D03*
X129796006Y-88284000D03*
X129796006Y-87384000D03*
X128896006Y-87384000D03*
X128896006Y-88284000D03*
X126373006Y-136206000D03*
X126373006Y-135306000D03*
X125473006Y-135306000D03*
X125473006Y-136206000D03*
X98219006Y-36939000D03*
X98219006Y-36039000D03*
X97319006Y-36039000D03*
X97319006Y-36939000D03*
D10*
X137999997Y-90388886D03*
D11*
X112681006Y-132783000D03*
X112681006Y-131883000D03*
X111781006Y-131883000D03*
X111781006Y-132783000D03*
X84527006Y-105399000D03*
X84527006Y-104499000D03*
X83627006Y-104499000D03*
X83627006Y-105399000D03*
X136642006Y-81438000D03*
X136642006Y-80538000D03*
X135742006Y-80538000D03*
X135742006Y-81438000D03*
X98219006Y-98553000D03*
X98219006Y-97653000D03*
X97319006Y-97653000D03*
X97319006Y-98553000D03*
X136642006Y-136206000D03*
X136642006Y-135306000D03*
X135742006Y-135306000D03*
X135742006Y-136206000D03*
X109258006Y-40362000D03*
X109258006Y-39462000D03*
X108358006Y-39462000D03*
X108358006Y-40362000D03*
X87950006Y-95130000D03*
X87950006Y-94230000D03*
X87050006Y-94230000D03*
X87050006Y-95130000D03*
D10*
X138000000Y-114144441D03*
D13*
X142000003Y-36500000D03*
D11*
X84527006Y-125937000D03*
X84527006Y-125037000D03*
X83627006Y-125037000D03*
X83627006Y-125937000D03*
D10*
X81833332Y-138399995D03*
D11*
X119527006Y-101976000D03*
X119527006Y-101076000D03*
X118627006Y-101076000D03*
X118627006Y-101976000D03*
X119527006Y-108822000D03*
X119527006Y-107922000D03*
X118627006Y-107922000D03*
X118627006Y-108822000D03*
X126373006Y-36939000D03*
X126373006Y-36039000D03*
X125473006Y-36039000D03*
X125473006Y-36939000D03*
X74258006Y-33516000D03*
X74258006Y-32616000D03*
X73358006Y-32616000D03*
X73358006Y-33516000D03*
X87950006Y-64323000D03*
X87950006Y-63423000D03*
X87050006Y-63423000D03*
X87050006Y-64323000D03*
X126373006Y-129360000D03*
X126373006Y-128460000D03*
X125473006Y-128460000D03*
X125473006Y-129360000D03*
X94796006Y-132783000D03*
X94796006Y-131883000D03*
X93896006Y-131883000D03*
X93896006Y-132783000D03*
D10*
X102999994Y-65633332D03*
X106999999Y-101766663D03*
X102999998Y-101766663D03*
D11*
X98219006Y-67746000D03*
X98219006Y-66846000D03*
X97319006Y-66846000D03*
X97319006Y-67746000D03*
X94796006Y-60900000D03*
X94796006Y-60000000D03*
X93896006Y-60000000D03*
X93896006Y-60900000D03*
X109258006Y-125937000D03*
X109258006Y-125037000D03*
X108358006Y-125037000D03*
X108358006Y-125937000D03*
D10*
X69999997Y-138399996D03*
D11*
X74258006Y-112245000D03*
X74258006Y-111345000D03*
X73358006Y-111345000D03*
X73358006Y-112245000D03*
X91373006Y-47208000D03*
X91373006Y-46308000D03*
X90473006Y-46308000D03*
X90473006Y-47208000D03*
D10*
X71999997Y-144566661D03*
D11*
X133219006Y-115668000D03*
X133219006Y-114768000D03*
X132319006Y-114768000D03*
X132319006Y-115668000D03*
D10*
X137999998Y-102766663D03*
D11*
X129796006Y-47208000D03*
X129796006Y-46308000D03*
X128896006Y-46308000D03*
X128896006Y-47208000D03*
X136642006Y-78015000D03*
X136642006Y-77115000D03*
X135742006Y-77115000D03*
X135742006Y-78015000D03*
X101642006Y-57477000D03*
X101642006Y-56577000D03*
X100742006Y-56577000D03*
X100742006Y-57477000D03*
X112681006Y-43785000D03*
X112681006Y-42885000D03*
X111781006Y-42885000D03*
X111781006Y-43785000D03*
X136642006Y-119091000D03*
X136642006Y-118191000D03*
X135742006Y-118191000D03*
X135742006Y-119091000D03*
X136642006Y-43785000D03*
X136642006Y-42885000D03*
X135742006Y-42885000D03*
X135742006Y-43785000D03*
X81104006Y-105399000D03*
X81104006Y-104499000D03*
X80204006Y-104499000D03*
X80204006Y-105399000D03*
X133219006Y-125937000D03*
X133219006Y-125037000D03*
X132319006Y-125037000D03*
X132319006Y-125937000D03*
X74258006Y-98553000D03*
X74258006Y-97653000D03*
X73358006Y-97653000D03*
X73358006Y-98553000D03*
X122950006Y-136206000D03*
X122950006Y-135306000D03*
X122050006Y-135306000D03*
X122050006Y-136206000D03*
X87950006Y-105399000D03*
X87950006Y-104499000D03*
X87050006Y-104499000D03*
X87050006Y-105399000D03*
D12*
X120717899Y-119590892D03*
X120717899Y-121140892D03*
D10*
X72000000Y-101766663D03*
D11*
X129796006Y-112245000D03*
X129796006Y-111345000D03*
X128896006Y-111345000D03*
X128896006Y-112245000D03*
D14*
X101000006Y-52149500D03*
X102020006Y-52149500D03*
D11*
X84527006Y-74592000D03*
X84527006Y-73692000D03*
X83627006Y-73692000D03*
X83627006Y-74592000D03*
X101642006Y-71169000D03*
X101642006Y-70269000D03*
X100742006Y-70269000D03*
X100742006Y-71169000D03*
D10*
X102999993Y-53255554D03*
D11*
X116104006Y-30093000D03*
X116104006Y-29193000D03*
X115204006Y-29193000D03*
X115204006Y-30093000D03*
X109258006Y-64323000D03*
X109258006Y-63423000D03*
X108358006Y-63423000D03*
X108358006Y-64323000D03*
X74258006Y-54054000D03*
X74258006Y-53154000D03*
X73358006Y-53154000D03*
X73358006Y-54054000D03*
X94796006Y-47208000D03*
X94796006Y-46308000D03*
X93896006Y-46308000D03*
X93896006Y-47208000D03*
X101642006Y-78015000D03*
X101642006Y-77115000D03*
X100742006Y-77115000D03*
X100742006Y-78015000D03*
X109258006Y-57477000D03*
X109258006Y-56577000D03*
X108358006Y-56577000D03*
X108358006Y-57477000D03*
X116104006Y-88284000D03*
X116104006Y-87384000D03*
X115204006Y-87384000D03*
X115204006Y-88284000D03*
X87950006Y-101976000D03*
X87950006Y-101076000D03*
X87050006Y-101076000D03*
X87050006Y-101976000D03*
X94796006Y-115668000D03*
X94796006Y-114768000D03*
X93896006Y-114768000D03*
X93896006Y-115668000D03*
X112681006Y-40362000D03*
X112681006Y-39462000D03*
X111781006Y-39462000D03*
X111781006Y-40362000D03*
X77681006Y-115668000D03*
X77681006Y-114768000D03*
X76781006Y-114768000D03*
X76781006Y-115668000D03*
X116104006Y-64323000D03*
X116104006Y-63423000D03*
X115204006Y-63423000D03*
X115204006Y-64323000D03*
X81104006Y-47208000D03*
X81104006Y-46308000D03*
X80204006Y-46308000D03*
X80204006Y-47208000D03*
D10*
X107000001Y-76011109D03*
D11*
X126373006Y-47208000D03*
X126373006Y-46308000D03*
X125473006Y-46308000D03*
X125473006Y-47208000D03*
X81104006Y-91707000D03*
X81104006Y-90807000D03*
X80204006Y-90807000D03*
X80204006Y-91707000D03*
D10*
X72000005Y-40877777D03*
X106999999Y-100766663D03*
D11*
X133219006Y-47208000D03*
X133219006Y-46308000D03*
X132319006Y-46308000D03*
X132319006Y-47208000D03*
X119527006Y-112245000D03*
X119527006Y-111345000D03*
X118627006Y-111345000D03*
X118627006Y-112245000D03*
X126373006Y-132783000D03*
X126373006Y-131883000D03*
X125473006Y-131883000D03*
X125473006Y-132783000D03*
X122950006Y-67746000D03*
X122950006Y-66846000D03*
X122050006Y-66846000D03*
X122050006Y-67746000D03*
D10*
X137999998Y-101766663D03*
D11*
X129796006Y-84861000D03*
X129796006Y-83961000D03*
X128896006Y-83961000D03*
X128896006Y-84861000D03*
X119527006Y-105399000D03*
X119527006Y-104499000D03*
X118627006Y-104499000D03*
X118627006Y-105399000D03*
X116104006Y-50631000D03*
X116104006Y-49731000D03*
X115204006Y-49731000D03*
X115204006Y-50631000D03*
X116104006Y-81438000D03*
X116104006Y-80538000D03*
X115204006Y-80538000D03*
X115204006Y-81438000D03*
D10*
X107000003Y-50255554D03*
D11*
X133219006Y-67746000D03*
X133219006Y-66846000D03*
X132319006Y-66846000D03*
X132319006Y-67746000D03*
X98219006Y-115668000D03*
X98219006Y-114768000D03*
X97319006Y-114768000D03*
X97319006Y-115668000D03*
X81104006Y-88284000D03*
X81104006Y-87384000D03*
X80204006Y-87384000D03*
X80204006Y-88284000D03*
D10*
X72000000Y-102766663D03*
X138000002Y-23333334D03*
X103000000Y-115144441D03*
D11*
X109258006Y-74592000D03*
X109258006Y-73692000D03*
X108358006Y-73692000D03*
X108358006Y-74592000D03*
X77681006Y-64323000D03*
X77681006Y-63423000D03*
X76781006Y-63423000D03*
X76781006Y-64323000D03*
X98219006Y-57477000D03*
X98219006Y-56577000D03*
X97319006Y-56577000D03*
X97319006Y-57477000D03*
X94796006Y-95130000D03*
X94796006Y-94230000D03*
X93896006Y-94230000D03*
X93896006Y-95130000D03*
X112681006Y-71169000D03*
X112681006Y-70269000D03*
X111781006Y-70269000D03*
X111781006Y-71169000D03*
D10*
X71999999Y-115144441D03*
D11*
X94796006Y-57477000D03*
X94796006Y-56577000D03*
X93896006Y-56577000D03*
X93896006Y-57477000D03*
X87950006Y-60900000D03*
X87950006Y-60000000D03*
X87050006Y-60000000D03*
X87050006Y-60900000D03*
D10*
X138000002Y-25000000D03*
X102999998Y-99766663D03*
X107000003Y-51255554D03*
D11*
X74258006Y-105399000D03*
X74258006Y-104499000D03*
X73358006Y-104499000D03*
X73358006Y-105399000D03*
D10*
X107000004Y-39877777D03*
D11*
X84527006Y-112245000D03*
X84527006Y-111345000D03*
X83627006Y-111345000D03*
X83627006Y-112245000D03*
X74258006Y-36939000D03*
X74258006Y-36039000D03*
X73358006Y-36039000D03*
X73358006Y-36939000D03*
D10*
X103000001Y-125522218D03*
X66666664Y-138399996D03*
D12*
X120717899Y-99052892D03*
X120717899Y-100602892D03*
X85717899Y-133282892D03*
X85717899Y-134832892D03*
D11*
X101642006Y-101976000D03*
X101642006Y-101076000D03*
X100742006Y-101076000D03*
X100742006Y-101976000D03*
D10*
X107000005Y-37877777D03*
D11*
X94796006Y-101976000D03*
X94796006Y-101076000D03*
X93896006Y-101076000D03*
X93896006Y-101976000D03*
D10*
X72000001Y-87388886D03*
X71999997Y-20000000D03*
D11*
X87950006Y-47208000D03*
X87950006Y-46308000D03*
X87050006Y-46308000D03*
X87050006Y-47208000D03*
D10*
X71999997Y-23333334D03*
D11*
X133219006Y-30093000D03*
X133219006Y-29193000D03*
X132319006Y-29193000D03*
X132319006Y-30093000D03*
D10*
X137999991Y-37877777D03*
D11*
X109258006Y-78015000D03*
X109258006Y-77115000D03*
X108358006Y-77115000D03*
X108358006Y-78015000D03*
X112681006Y-129360000D03*
X112681006Y-128460000D03*
X111781006Y-128460000D03*
X111781006Y-129360000D03*
X109258006Y-108822000D03*
X109258006Y-107922000D03*
X108358006Y-107922000D03*
X108358006Y-108822000D03*
X133219006Y-132783000D03*
X133219006Y-131883000D03*
X132319006Y-131883000D03*
X132319006Y-132783000D03*
D10*
X140833336Y-138399996D03*
D11*
X101642006Y-98553000D03*
X101642006Y-97653000D03*
X100742006Y-97653000D03*
X100742006Y-98553000D03*
X133219006Y-98553000D03*
X133219006Y-97653000D03*
X132319006Y-97653000D03*
X132319006Y-98553000D03*
X129796006Y-36939000D03*
X129796006Y-36039000D03*
X128896006Y-36039000D03*
X128896006Y-36939000D03*
D10*
X80833332Y-138399995D03*
D11*
X136642006Y-67746000D03*
X136642006Y-66846000D03*
X135742006Y-66846000D03*
X135742006Y-67746000D03*
D10*
X71999998Y-124522218D03*
D11*
X87950006Y-108822000D03*
X87950006Y-107922000D03*
X87050006Y-107922000D03*
X87050006Y-108822000D03*
X129796006Y-81438000D03*
X129796006Y-80538000D03*
X128896006Y-80538000D03*
X128896006Y-81438000D03*
X77681006Y-57477000D03*
X77681006Y-56577000D03*
X76781006Y-56577000D03*
X76781006Y-57477000D03*
D10*
X69166664Y-27000000D03*
X137999995Y-75011109D03*
D11*
X133219006Y-108822000D03*
X133219006Y-107922000D03*
X132319006Y-107922000D03*
X132319006Y-108822000D03*
X112681006Y-125937000D03*
X112681006Y-125037000D03*
X111781006Y-125037000D03*
X111781006Y-125937000D03*
X116104006Y-33516000D03*
X116104006Y-32616000D03*
X115204006Y-32616000D03*
X115204006Y-33516000D03*
X126373006Y-115668000D03*
X126373006Y-114768000D03*
X125473006Y-114768000D03*
X125473006Y-115668000D03*
X84527006Y-84861000D03*
X84527006Y-83961000D03*
X83627006Y-83961000D03*
X83627006Y-84861000D03*
X136642006Y-95130000D03*
X136642006Y-94230000D03*
X135742006Y-94230000D03*
X135742006Y-95130000D03*
X112681006Y-119091000D03*
X112681006Y-118191000D03*
X111781006Y-118191000D03*
X111781006Y-119091000D03*
X81104006Y-67746000D03*
X81104006Y-66846000D03*
X80204006Y-66846000D03*
X80204006Y-67746000D03*
D10*
X71999999Y-113144441D03*
X107000003Y-52255554D03*
X143333336Y-138399996D03*
X137999999Y-112144441D03*
D11*
X101642006Y-136206000D03*
X101642006Y-135306000D03*
X100742006Y-135306000D03*
X100742006Y-136206000D03*
D10*
X137999997Y-88388886D03*
X137999994Y-63633332D03*
D11*
X87950006Y-129360000D03*
X87950006Y-128460000D03*
X87050006Y-128460000D03*
X87050006Y-129360000D03*
D12*
X85717899Y-51130892D03*
X85717899Y-52680892D03*
D11*
X74258006Y-115668000D03*
X74258006Y-114768000D03*
X73358006Y-114768000D03*
X73358006Y-115668000D03*
X87950006Y-74592000D03*
X87950006Y-73692000D03*
X87050006Y-73692000D03*
X87050006Y-74592000D03*
D12*
X120717899Y-85360892D03*
X120717899Y-86910892D03*
D10*
X137999995Y-78011109D03*
D11*
X94796006Y-119091000D03*
X94796006Y-118191000D03*
X93896006Y-118191000D03*
X93896006Y-119091000D03*
X77681006Y-98553000D03*
X77681006Y-97653000D03*
X76781006Y-97653000D03*
X76781006Y-98553000D03*
X109258006Y-60900000D03*
X109258006Y-60000000D03*
X108358006Y-60000000D03*
X108358006Y-60900000D03*
X74258006Y-136206000D03*
X74258006Y-135306000D03*
X73358006Y-135306000D03*
X73358006Y-136206000D03*
X84527006Y-33516000D03*
X84527006Y-32616000D03*
X83627006Y-32616000D03*
X83627006Y-33516000D03*
M02*
