G04 #@! TF.GenerationSoftware,KiCad,Pcbnew,7.0.8*
G04 #@! TF.CreationDate,2023-10-22T17:40:02-04:00*
G04 #@! TF.ProjectId,RGB-Panel,5247422d-5061-46e6-956c-2e6b69636164,V2.6*
G04 #@! TF.SameCoordinates,Original*
G04 #@! TF.FileFunction,Profile,NP*
%FSLAX46Y46*%
G04 Gerber Fmt 4.6, Leading zero omitted, Abs format (unit mm)*
G04 Created by KiCad (PCBNEW 7.0.8) date 2023-10-22 17:40:02*
%MOMM*%
%LPD*%
G01*
G04 APERTURE LIST*
G04 #@! TA.AperFunction,Profile*
%ADD10C,0.100000*%
G04 #@! TD*
G04 APERTURE END LIST*
D10*
X102809018Y-137987780D02*
X102838671Y-137944634D01*
X106999998Y-112144441D02*
X104999999Y-112144441D01*
X64999997Y-145399995D02*
X64999997Y-145399995D01*
X102933581Y-137758364D02*
X102951058Y-137709013D01*
X72898837Y-138394864D02*
X72949356Y-138398711D01*
X102258822Y-138365920D02*
X102309019Y-138351051D01*
X72700642Y-27045858D02*
X72652699Y-27062245D01*
X104999999Y-90388886D02*
X107000000Y-90388886D01*
X102453992Y-138291001D02*
X102500002Y-138266020D01*
X107898837Y-27005129D02*
X107848577Y-27011529D01*
X107387895Y-138190773D02*
X107428733Y-138220761D01*
X102406739Y-138313540D02*
X102453992Y-138291001D01*
X72209228Y-27387890D02*
X72179240Y-27428728D01*
X71999996Y-137399996D02*
X72001279Y-137450645D01*
X107848577Y-138388464D02*
X107898837Y-138394864D01*
X137000006Y-27000001D02*
X129166667Y-27000000D01*
X72348628Y-138158756D02*
X72387895Y-138190773D01*
X129166667Y-25000000D02*
X140000003Y-25000000D01*
X107428733Y-138220761D02*
X107471038Y-138248641D01*
X140000003Y-127522218D02*
X140000003Y-140399995D01*
X102052339Y-138398625D02*
X102104532Y-138394517D01*
X137897798Y-27559608D02*
X137874341Y-27514701D01*
X137309019Y-138351051D02*
X137358370Y-138333575D01*
X129166667Y-27000000D02*
X129166667Y-25000000D01*
X137707108Y-138107101D02*
X137743146Y-138069125D01*
X71999998Y-115144441D02*
X71999997Y-124522218D01*
X102999989Y-27999999D02*
X102998706Y-27949351D01*
X107311037Y-27275203D02*
X107275211Y-27311029D01*
X69999997Y-25000000D02*
X80833331Y-25000000D01*
X94166667Y-140399995D02*
X94166667Y-138399995D01*
X69999997Y-78011108D02*
X69999997Y-78011108D01*
X69999997Y-140399995D02*
X69999997Y-127522218D01*
X73000005Y-26999999D02*
X72949356Y-27001282D01*
X107949356Y-27001282D02*
X107898837Y-27005129D01*
X115833331Y-25000000D02*
X115833331Y-25000000D01*
X137724790Y-27311036D02*
X137688965Y-27275210D01*
X69999997Y-78011108D02*
X72000001Y-78011108D01*
X102994860Y-27898832D02*
X102988459Y-27848573D01*
X72514702Y-27125650D02*
X72471040Y-27151352D01*
X107471038Y-138248641D02*
X107514700Y-138274344D01*
X140000003Y-25000000D02*
X140000003Y-25000000D01*
X140000003Y-62633331D02*
X140000003Y-62633331D01*
X94166667Y-140399995D02*
X94166667Y-140399995D01*
X137999995Y-78011108D02*
X140000003Y-78011108D01*
X140000003Y-75011108D02*
X137999995Y-75011108D01*
X140000003Y-115144441D02*
X140000003Y-124522218D01*
X102999994Y-65633331D02*
X104999999Y-65633331D01*
X83833331Y-140399995D02*
X83833331Y-140399995D01*
X137987690Y-137556431D02*
X137994524Y-137504526D01*
X69999997Y-90388886D02*
X72000000Y-90388886D01*
X137999994Y-65633331D02*
X140000003Y-65633331D01*
X118833331Y-138399995D02*
X126166667Y-138399995D01*
X102874341Y-27514701D02*
X102848639Y-27471039D01*
X102651371Y-27241245D02*
X102612105Y-27209227D01*
X137999993Y-53255553D02*
X140000003Y-53255553D01*
X140000003Y-124522218D02*
X138000001Y-124522218D01*
X140000003Y-25000000D02*
X140000003Y-37877776D01*
X72428736Y-27179233D02*
X72387898Y-27209220D01*
X137866026Y-137899996D02*
X137891007Y-137853986D01*
X72000000Y-90388886D02*
X71999999Y-99766663D01*
X102999997Y-87388886D02*
X102999995Y-78011108D01*
X138000001Y-124522218D02*
X138000000Y-115144441D01*
X102998632Y-137452333D02*
X103000003Y-137399998D01*
X137874341Y-27514701D02*
X137848639Y-27471039D01*
X107798707Y-27020467D02*
X107749352Y-27031920D01*
X140000003Y-37877776D02*
X137999991Y-37877776D01*
X72209224Y-138012103D02*
X72241242Y-138051370D01*
X104999999Y-115144441D02*
X106999998Y-115144441D01*
X115833331Y-26999999D02*
X108000005Y-26999999D01*
X137358370Y-138333575D02*
X137406739Y-138313540D01*
X72001289Y-27949348D02*
X72000006Y-27999998D01*
X107749352Y-138368073D02*
X107798706Y-138379526D01*
X102207914Y-138378142D02*
X102258822Y-138365920D01*
X107700642Y-27045858D02*
X107652699Y-27062245D01*
X73000006Y-138399995D02*
X80833331Y-138399995D01*
X140000003Y-140399995D02*
X140000003Y-140399995D01*
X106999996Y-137399996D02*
X107001279Y-137450645D01*
X69999997Y-99766663D02*
X69999997Y-90388886D01*
X106999996Y-127522218D02*
X106999996Y-137399996D01*
X71999998Y-112144441D02*
X69999997Y-112144441D01*
X107652698Y-138337749D02*
X107700641Y-138354136D01*
X137790772Y-27387897D02*
X137758755Y-27348631D01*
X118833331Y-140399995D02*
X118833331Y-138399995D01*
X137999998Y-102766663D02*
X140000003Y-102766663D01*
X107471040Y-27151352D02*
X107428736Y-27179233D01*
X137998632Y-137452333D02*
X138000003Y-137399998D01*
X140000003Y-50255553D02*
X140000003Y-50255553D01*
X69999997Y-40877776D02*
X72000004Y-40877776D01*
X72062252Y-27652692D02*
X72045865Y-27700634D01*
X72798706Y-138379526D02*
X72848577Y-138388464D01*
X126166667Y-27000000D02*
X118833331Y-26999999D01*
X71999997Y-124522218D02*
X69999997Y-124522218D01*
X129166667Y-140399995D02*
X129166667Y-138399995D01*
X138000000Y-115144441D02*
X140000003Y-115144441D01*
X102309019Y-138351051D02*
X102358370Y-138333575D01*
X140000003Y-62633331D02*
X137999994Y-62633331D01*
X102500002Y-138266020D02*
X102544641Y-138238665D01*
X106999998Y-115144441D02*
X106999997Y-124522218D01*
X72471040Y-27151352D02*
X72428736Y-27179233D01*
X102937745Y-27652697D02*
X102918951Y-27605646D01*
X72020475Y-27798699D02*
X72011536Y-27848569D01*
X118833331Y-26999999D02*
X118833331Y-25000000D01*
X107275207Y-138088964D02*
X107311034Y-138124790D01*
X104999999Y-65633331D02*
X107000002Y-65633331D01*
X107062245Y-137747302D02*
X107081040Y-137794353D01*
X137937745Y-27652697D02*
X137918951Y-27605646D01*
X102724790Y-27311036D02*
X102688965Y-27275210D01*
X72700641Y-138354136D02*
X72749352Y-138368073D01*
X107514702Y-27125650D02*
X107471040Y-27151352D01*
X145000003Y-20000000D02*
X64999997Y-20000000D01*
X140000003Y-140399995D02*
X129166667Y-140399995D01*
X137913546Y-137806733D02*
X137933581Y-137758364D01*
X107209228Y-27387890D02*
X107179240Y-27428728D01*
X137485302Y-27125656D02*
X137440395Y-27102198D01*
X140000003Y-75011108D02*
X140000003Y-75011108D01*
X107311034Y-138124790D02*
X107348628Y-138158756D01*
X72125652Y-137885299D02*
X72151354Y-137928961D01*
X137994860Y-27898832D02*
X137988459Y-27848573D01*
X102104532Y-138394517D02*
X102156437Y-138387683D01*
X72311034Y-138124790D02*
X72348628Y-138158756D01*
X102999995Y-75011108D02*
X102999994Y-65633331D01*
X69999997Y-102766663D02*
X71999999Y-102766663D01*
X107102199Y-27559602D02*
X107081046Y-27605641D01*
X72000002Y-65633331D02*
X72000001Y-75011108D01*
X102968069Y-27749349D02*
X102954132Y-27700639D01*
X102629322Y-138177140D02*
X102669132Y-138143139D01*
X137999995Y-75011108D02*
X137999994Y-65633331D01*
X104999999Y-62633331D02*
X102999994Y-62633331D01*
X69999997Y-124522218D02*
X69999997Y-115144441D01*
X83833331Y-140399995D02*
X83833331Y-138399995D01*
X137156437Y-138387683D02*
X137207914Y-138378142D01*
X107428736Y-27179233D02*
X107387898Y-27209220D01*
X103000001Y-127522218D02*
X104999999Y-127522218D01*
X72559609Y-138297801D02*
X72605647Y-138318955D01*
X137999997Y-87388886D02*
X137999995Y-78011108D01*
X107898837Y-138394864D02*
X107949356Y-138398711D01*
X69999997Y-75011108D02*
X69999997Y-65633331D01*
X69999997Y-127522218D02*
X71999996Y-127522218D01*
X140000003Y-102766663D02*
X140000003Y-112144441D01*
X102101173Y-27005132D02*
X102050654Y-27001284D01*
X107000001Y-78011108D02*
X107000000Y-87388886D01*
X91166667Y-25000000D02*
X91166667Y-25000000D01*
X102201302Y-27020472D02*
X102151432Y-27011533D01*
X137571268Y-27179240D02*
X137528964Y-27151359D01*
X107000002Y-62633331D02*
X104999999Y-62633331D01*
X137151432Y-27011533D02*
X137101173Y-27005132D01*
X102999997Y-90388886D02*
X104999999Y-90388886D01*
X102999991Y-37877776D02*
X102999989Y-27999999D01*
X137612105Y-27209227D02*
X137571268Y-27179240D01*
X137954132Y-27700639D02*
X137937745Y-27652697D01*
X137979521Y-27798703D02*
X137968069Y-27749349D01*
X137500002Y-138266020D02*
X137544641Y-138238665D01*
X107020475Y-27798699D02*
X107011536Y-27848569D01*
X137758755Y-27348631D02*
X137724790Y-27311036D01*
X107020467Y-137601295D02*
X107031920Y-137650649D01*
X102299366Y-27045863D02*
X102250656Y-27031925D01*
X137743146Y-138069125D02*
X137777147Y-138029315D01*
X107559609Y-138297801D02*
X107605647Y-138318955D01*
X102440395Y-27102198D02*
X102394357Y-27081045D01*
X102913546Y-137806733D02*
X102933581Y-137758364D01*
X137587787Y-138209011D02*
X137629322Y-138177140D01*
X140000003Y-50255553D02*
X137999992Y-50255553D01*
X115833331Y-138399995D02*
X115833331Y-140399995D01*
X104999999Y-115144441D02*
X104999999Y-115144441D01*
X102999992Y-50255553D02*
X102999992Y-50255553D01*
X72241242Y-138051370D02*
X72275207Y-138088964D01*
X137651371Y-27241245D02*
X137612105Y-27209227D01*
X72471038Y-138248641D02*
X72514700Y-138274344D01*
X102485302Y-27125656D02*
X102440395Y-27102198D01*
X138000003Y-137399998D02*
X138000001Y-127522218D01*
X72749352Y-138368073D02*
X72798706Y-138379526D01*
X118833331Y-140399995D02*
X118833331Y-140399995D01*
X107031920Y-137650649D02*
X107045858Y-137699360D01*
X72102193Y-137840391D02*
X72125652Y-137885299D01*
X102250656Y-27031925D02*
X102201302Y-27020472D01*
X72387895Y-138190773D02*
X72428733Y-138220761D01*
X102999995Y-78011108D02*
X102999995Y-78011108D01*
X137201302Y-27020472D02*
X137151432Y-27011533D01*
X72275211Y-27311029D02*
X72241246Y-27348624D01*
X72652699Y-27062245D02*
X72605649Y-27081039D01*
X102999992Y-50255553D02*
X102999991Y-40877776D01*
X69999997Y-112144441D02*
X69999997Y-102766663D01*
X104999999Y-90388886D02*
X104999999Y-90388886D01*
X137933581Y-137758364D02*
X137951058Y-137709013D01*
X102988459Y-27848573D02*
X102979521Y-27798703D01*
X107045858Y-137699360D02*
X107062245Y-137747302D01*
X118833331Y-25000000D02*
X126166667Y-25000000D01*
X102743146Y-138069125D02*
X102777147Y-138029315D01*
X102571268Y-27179240D02*
X102528964Y-27151359D01*
X102528964Y-27151359D02*
X102485302Y-27125656D01*
X137848639Y-27471039D02*
X137820759Y-27428735D01*
X72011528Y-137551424D02*
X72020467Y-137601295D01*
X137994524Y-137504526D02*
X137998632Y-137452333D01*
X137838671Y-137944634D02*
X137866026Y-137899996D01*
X72000003Y-53255553D02*
X72000002Y-62633331D01*
X107011536Y-27848569D02*
X107005136Y-27898829D01*
X102897798Y-27559608D02*
X102874341Y-27514701D01*
X72848577Y-27011529D02*
X72798707Y-27020467D01*
X129166667Y-138399995D02*
X137000003Y-138399995D01*
X72081046Y-27605641D02*
X72062252Y-27652692D01*
X72020467Y-137601295D02*
X72031920Y-137650649D01*
X102669132Y-138143139D02*
X102707108Y-138107101D01*
X72949356Y-27001282D02*
X72898837Y-27005129D01*
X140000003Y-99766663D02*
X140000003Y-99766663D01*
X126166667Y-140399995D02*
X118833331Y-140399995D01*
X140000003Y-87388886D02*
X137999997Y-87388886D01*
X107949356Y-138398711D02*
X108000006Y-138399995D01*
X72000005Y-37877776D02*
X69999997Y-37877776D01*
X72000004Y-40877776D02*
X72000003Y-50255553D01*
X137258822Y-138365920D02*
X137309019Y-138351051D01*
X137998706Y-27949351D02*
X137994860Y-27898832D01*
X107798706Y-138379526D02*
X107848577Y-138388464D01*
X107179240Y-27428728D02*
X107151359Y-27471032D01*
X137809018Y-137987780D02*
X137838671Y-137944634D01*
X137528964Y-27151359D02*
X137485302Y-27125656D01*
X102999994Y-62633331D02*
X102999993Y-53255553D01*
X107102193Y-137840391D02*
X107125652Y-137885299D01*
X103000001Y-124522218D02*
X103000000Y-115144441D01*
X137544641Y-138238665D02*
X137587787Y-138209011D01*
X107000003Y-53255553D02*
X107000002Y-62633331D01*
X80833331Y-138399995D02*
X80833331Y-140399995D01*
X107241246Y-27348624D02*
X107209228Y-27387890D01*
X107179236Y-137971266D02*
X107209224Y-138012103D01*
X107700641Y-138354136D02*
X107749352Y-138368073D01*
X107605647Y-138318955D02*
X107652698Y-138337749D01*
X140000003Y-87388886D02*
X140000003Y-87388886D01*
X137918951Y-27605646D02*
X137897798Y-27559608D01*
X137999999Y-112144441D02*
X137999998Y-102766663D01*
X137688965Y-27275210D02*
X137651371Y-27241245D01*
X103000003Y-137399998D02*
X103000001Y-127522218D01*
X107125652Y-137885299D02*
X107151354Y-137928961D01*
X72898837Y-27005129D02*
X72848577Y-27011529D01*
X107000004Y-40877776D02*
X107000003Y-50255553D01*
X145000003Y-145399995D02*
X145000003Y-20000000D01*
X107081046Y-27605641D02*
X107062252Y-27652692D01*
X107275211Y-27311029D02*
X107241246Y-27348624D01*
X137052339Y-138398625D02*
X137104532Y-138394517D01*
X69999997Y-65633331D02*
X69999997Y-65633331D01*
X83833331Y-25000000D02*
X91166667Y-25000000D01*
X140000003Y-78011108D02*
X140000003Y-87388886D01*
X80833331Y-25000000D02*
X80833331Y-26999999D01*
X102998706Y-27949351D02*
X102994860Y-27898832D01*
X140000003Y-99766663D02*
X137999998Y-99766663D01*
X104999999Y-127522218D02*
X106999996Y-127522218D01*
X107241242Y-138051370D02*
X107275207Y-138088964D01*
X137999991Y-37877776D02*
X137999989Y-27999999D01*
X107514700Y-138274344D02*
X107559609Y-138297801D01*
X140000003Y-112144441D02*
X137999999Y-112144441D01*
X102999991Y-40877776D02*
X104999999Y-40877776D01*
X102777147Y-138029315D02*
X102809018Y-137987780D01*
X102979521Y-27798703D02*
X102968069Y-27749349D01*
X83833331Y-26999999D02*
X83833331Y-25000000D01*
X102848639Y-27471039D02*
X102820759Y-27428735D01*
X80833331Y-26999999D02*
X73000005Y-26999999D01*
X94166667Y-138399995D02*
X102000003Y-138399995D01*
X71999999Y-102766663D02*
X71999998Y-112144441D01*
X107011528Y-137551424D02*
X107020467Y-137601295D01*
X107652699Y-27062245D02*
X107605649Y-27081039D01*
X107151354Y-137928961D02*
X107179236Y-137971266D01*
X72031927Y-27749345D02*
X72020475Y-27798699D01*
X107000000Y-90388886D02*
X106999999Y-99766663D01*
X102758755Y-27348631D02*
X102724790Y-27311036D01*
X102707108Y-138107101D02*
X102743146Y-138069125D01*
X72348631Y-27241238D02*
X72311037Y-27275203D01*
X102151432Y-27011533D02*
X102101173Y-27005132D01*
X108000005Y-26999999D02*
X107949356Y-27001282D01*
X102999995Y-78011108D02*
X104999999Y-78011108D01*
X126166667Y-138399995D02*
X126166667Y-140399995D01*
X104999999Y-53255553D02*
X107000003Y-53255553D01*
X137999992Y-50255553D02*
X137999991Y-40877776D01*
X107081040Y-137794353D02*
X107102193Y-137840391D01*
X137968069Y-27749349D02*
X137954132Y-27700639D01*
X104999999Y-102766663D02*
X106999999Y-102766663D01*
X64999997Y-145399995D02*
X145000003Y-145399995D01*
X91166667Y-140399995D02*
X83833331Y-140399995D01*
X104999999Y-78011108D02*
X107000001Y-78011108D01*
X115833331Y-140399995D02*
X94166667Y-140399995D01*
X72081040Y-137794353D02*
X72102193Y-137840391D01*
X107000005Y-37877776D02*
X104999999Y-37877776D01*
X102000003Y-138399995D02*
X102052339Y-138398625D01*
X71999996Y-127522218D02*
X71999996Y-137399996D01*
X94166667Y-27000000D02*
X94166667Y-25000000D01*
X102394357Y-27081045D02*
X102347307Y-27062250D01*
X137406739Y-138313540D02*
X137453992Y-138291001D01*
X102838671Y-137944634D02*
X102866026Y-137899996D01*
X137999998Y-99766663D02*
X137999997Y-90388886D01*
X72179240Y-27428728D02*
X72151359Y-27471032D01*
X91166667Y-138399995D02*
X91166667Y-140399995D01*
X115833331Y-25000000D02*
X115833331Y-26999999D01*
X102050654Y-27001284D02*
X102000006Y-27000001D01*
X102156437Y-138387683D02*
X102207914Y-138378142D01*
X140000003Y-40877776D02*
X140000003Y-50255553D01*
X107005127Y-137501164D02*
X107011528Y-137551424D01*
X107348628Y-138158756D02*
X107387895Y-138190773D01*
X137347307Y-27062250D02*
X137299366Y-27045863D01*
X72000006Y-27999998D02*
X72000005Y-37877776D01*
X107605649Y-27081039D02*
X107559610Y-27102192D01*
X102587787Y-138209011D02*
X102629322Y-138177140D01*
X107045865Y-27700634D02*
X107031927Y-27749345D01*
X107000001Y-75011108D02*
X104999999Y-75011108D01*
X137299366Y-27045863D02*
X137250656Y-27031925D01*
X102965927Y-137658816D02*
X102978149Y-137607908D01*
X102999993Y-53255553D02*
X104999999Y-53255553D01*
X137999997Y-90388886D02*
X140000003Y-90388886D01*
X69999997Y-62633331D02*
X69999997Y-53255553D01*
X137988459Y-27848573D02*
X137979521Y-27798703D01*
X69999997Y-53255553D02*
X72000003Y-53255553D01*
X107001289Y-27949348D02*
X107000006Y-27999998D01*
X69999997Y-102766663D02*
X69999997Y-102766663D01*
X72102199Y-27559602D02*
X72081046Y-27605641D01*
X64999997Y-20000000D02*
X64999997Y-145399995D01*
X140000003Y-90388886D02*
X140000003Y-99766663D01*
X69999997Y-65633331D02*
X72000002Y-65633331D01*
X107348631Y-27241238D02*
X107311037Y-27275203D01*
X72005127Y-137501164D02*
X72011528Y-137551424D01*
X91166667Y-25000000D02*
X91166667Y-27000000D01*
X69999997Y-87388886D02*
X69999997Y-78011108D01*
X72151359Y-27471032D02*
X72125657Y-27514695D01*
X137891007Y-137853986D02*
X137913546Y-137806733D01*
X137101173Y-27005132D02*
X137050654Y-27001284D01*
X104999999Y-50255553D02*
X102999992Y-50255553D01*
X107031927Y-27749345D02*
X107020475Y-27798699D01*
X137978149Y-137607908D02*
X137987690Y-137556431D01*
X72125657Y-27514695D02*
X72102199Y-27559602D01*
X107062252Y-27652692D02*
X107045865Y-27700634D01*
X72005136Y-27898829D02*
X72001289Y-27949348D01*
X102954132Y-27700639D02*
X102937745Y-27652697D01*
X102347307Y-27062250D02*
X102299366Y-27045863D01*
X72151354Y-137928961D02*
X72179236Y-137971266D01*
X83833331Y-138399995D02*
X91166667Y-138399995D01*
X102612105Y-27209227D02*
X102571268Y-27179240D01*
X107151359Y-27471032D02*
X107125657Y-27514695D01*
X72045865Y-27700634D02*
X72031927Y-27749345D01*
X69999997Y-115144441D02*
X69999997Y-115144441D01*
X106999997Y-124522218D02*
X104999999Y-124522218D01*
X102544641Y-138238665D02*
X102587787Y-138209011D01*
X126166667Y-25000000D02*
X126166667Y-27000000D01*
X107848577Y-27011529D02*
X107798707Y-27020467D01*
X102688965Y-27275210D02*
X102651371Y-27241245D01*
X137820759Y-27428735D02*
X137790772Y-27387897D01*
X137999989Y-27999999D02*
X137998706Y-27949351D01*
X107000006Y-27999998D02*
X107000005Y-37877776D01*
X102358370Y-138333575D02*
X102406739Y-138313540D01*
X102994524Y-137504526D02*
X102998632Y-137452333D01*
X102820759Y-27428735D02*
X102790772Y-27387897D01*
X137453992Y-138291001D02*
X137500002Y-138266020D01*
X137999994Y-62633331D02*
X137999993Y-53255553D01*
X137669132Y-138143139D02*
X137707108Y-138107101D01*
X69999997Y-53255553D02*
X69999997Y-53255553D01*
X102987690Y-137556431D02*
X102994524Y-137504526D01*
X72045858Y-137699360D02*
X72062245Y-137747302D01*
X72798707Y-27020467D02*
X72749352Y-27031920D01*
X72000001Y-75011108D02*
X69999997Y-75011108D01*
X137207914Y-138378142D02*
X137258822Y-138365920D01*
X102999995Y-75011108D02*
X102999995Y-75011108D01*
X137394357Y-27081045D02*
X137347307Y-27062250D01*
X72241246Y-27348624D02*
X72209228Y-27387890D01*
X72179236Y-137971266D02*
X72209224Y-138012103D01*
X140000003Y-112144441D02*
X140000003Y-112144441D01*
X72428733Y-138220761D02*
X72471038Y-138248641D01*
X104999999Y-102766663D02*
X104999999Y-102766663D01*
X72387898Y-27209220D02*
X72348631Y-27241238D01*
X108000006Y-138399995D02*
X115833331Y-138399995D01*
X137440395Y-27102198D02*
X137394357Y-27081045D01*
X104999999Y-75011108D02*
X102999995Y-75011108D01*
X69999997Y-115144441D02*
X71999998Y-115144441D01*
X72000000Y-87388886D02*
X69999997Y-87388886D01*
X102999998Y-102766663D02*
X104999999Y-102766663D01*
X140000003Y-53255553D02*
X140000003Y-62633331D01*
X104999999Y-37877776D02*
X102999991Y-37877776D01*
X107000000Y-87388886D02*
X104999999Y-87388886D01*
X102999994Y-62633331D02*
X102999994Y-62633331D01*
X72000003Y-50255553D02*
X69999997Y-50255553D01*
X72749352Y-27031920D02*
X72700642Y-27045858D01*
X107125657Y-27514695D02*
X107102199Y-27559602D01*
X102918951Y-27605646D02*
X102897798Y-27559608D01*
X72949356Y-138398711D02*
X73000006Y-138399995D01*
X72311037Y-27275203D02*
X72275211Y-27311029D01*
X137050654Y-27001284D02*
X137000006Y-27000001D01*
X104999999Y-40877776D02*
X107000004Y-40877776D01*
X107749352Y-27031920D02*
X107700642Y-27045858D01*
X140000003Y-65633331D02*
X140000003Y-75011108D01*
X138000001Y-127522218D02*
X140000003Y-127522218D01*
X72848577Y-138388464D02*
X72898837Y-138394864D01*
X72605647Y-138318955D02*
X72652698Y-138337749D01*
X137965927Y-137658816D02*
X137978149Y-137607908D01*
X91166667Y-27000000D02*
X83833331Y-26999999D01*
X126166667Y-25000000D02*
X126166667Y-25000000D01*
X107005136Y-27898829D02*
X107001289Y-27949348D01*
X72062245Y-137747302D02*
X72081040Y-137794353D01*
X72001279Y-137450645D02*
X72005127Y-137501164D01*
X106999999Y-99766663D02*
X104999999Y-99766663D01*
X102999999Y-112144441D02*
X102999998Y-102766663D01*
X137629322Y-138177140D02*
X137669132Y-138143139D01*
X104999999Y-87388886D02*
X102999997Y-87388886D01*
X102866026Y-137899996D02*
X102891007Y-137853986D01*
X71999999Y-99766663D02*
X69999997Y-99766663D01*
X106999999Y-102766663D02*
X106999998Y-112144441D01*
X69999997Y-90388886D02*
X69999997Y-90388886D01*
X137250656Y-27031925D02*
X137201302Y-27020472D01*
X107001279Y-137450645D02*
X107005127Y-137501164D01*
X69999997Y-37877776D02*
X69999997Y-25000000D01*
X137999991Y-40877776D02*
X140000003Y-40877776D01*
X137777147Y-138029315D02*
X137809018Y-137987780D01*
X72514700Y-138274344D02*
X72559609Y-138297801D01*
X102978149Y-137607908D02*
X102987690Y-137556431D01*
X104999999Y-99766663D02*
X102999998Y-99766663D01*
X104999999Y-112144441D02*
X102999999Y-112144441D01*
X72652698Y-138337749D02*
X72700641Y-138354136D01*
X72031920Y-137650649D02*
X72045858Y-137699360D01*
X72275207Y-138088964D02*
X72311034Y-138124790D01*
X104999999Y-124522218D02*
X103000001Y-124522218D01*
X137104532Y-138394517D02*
X137156437Y-138387683D01*
X107559610Y-27102192D02*
X107514702Y-27125650D01*
X102891007Y-137853986D02*
X102913546Y-137806733D01*
X72000001Y-78011108D02*
X72000000Y-87388886D01*
X72605649Y-27081039D02*
X72559610Y-27102192D01*
X94166667Y-25000000D02*
X115833331Y-25000000D01*
X102951058Y-137709013D02*
X102965927Y-137658816D01*
X107209224Y-138012103D02*
X107241242Y-138051370D01*
X80833331Y-25000000D02*
X80833331Y-25000000D01*
X107000002Y-65633331D02*
X107000001Y-75011108D01*
X72011536Y-27848569D02*
X72005136Y-27898829D01*
X80833331Y-140399995D02*
X69999997Y-140399995D01*
X107000003Y-50255553D02*
X104999999Y-50255553D01*
X137951058Y-137709013D02*
X137965927Y-137658816D01*
X69999997Y-140399995D02*
X69999997Y-140399995D01*
X103000000Y-115144441D02*
X104999999Y-115144441D01*
X102999998Y-99766663D02*
X102999997Y-90388886D01*
X140000003Y-124522218D02*
X140000003Y-124522218D01*
X107387898Y-27209220D02*
X107348631Y-27241238D01*
X69999997Y-40877776D02*
X69999997Y-40877776D01*
X137000003Y-138399995D02*
X137052339Y-138398625D01*
X69999997Y-50255553D02*
X69999997Y-40877776D01*
X72000002Y-62633331D02*
X69999997Y-62633331D01*
X102000006Y-27000001D02*
X94166667Y-27000000D01*
X72559610Y-27102192D02*
X72514702Y-27125650D01*
X102790772Y-27387897D02*
X102758755Y-27348631D01*
M02*
